<svg xmlns="http://www.w3.org/2000/svg" xmlns:xlink="http://www.w3.org/1999/xlink" width="179" height="158" viewBox="0 0 179 158">
  <defs>
    <clipPath id="clip-path">
      <rect id="Rectángulo_297214" data-name="Rectángulo 297214" width="179" height="158" transform="translate(-2733 -8284)" fill="#fff"/>
    </clipPath>
    <clipPath id="clip-path-2">
      <rect id="Rectángulo_54592" data-name="Rectángulo 54592" width="136.099" height="133" fill="none"/>
    </clipPath>
    <clipPath id="clip-path-3">
      <rect id="Rectángulo_54565" data-name="Rectángulo 54565" width="136.1" height="133" fill="none"/>
    </clipPath>
    <clipPath id="clip-path-4">
      <rect id="Rectángulo_54563" data-name="Rectángulo 54563" width="19.06" height="68.999" fill="none"/>
    </clipPath>
    <clipPath id="clip-path-5">
      <rect id="Rectángulo_54564" data-name="Rectángulo 54564" width="9.499" height="40.929" fill="none"/>
    </clipPath>
    <clipPath id="clip-path-6">
      <path id="Trazado_234716" data-name="Trazado 234716" d="M130.6,375.09c-1.362,30.126,24.683,55.705,58.172,57.133s61.743-21.837,63.1-51.963-24.683-55.705-58.172-57.133q-1.469-.063-2.921-.062c-32.2,0-58.861,22.78-60.183,52.025" transform="translate(-130.552 -323.065)" fill="none"/>
    </clipPath>
    <clipPath id="clip-path-8">
      <path id="Trazado_234718" data-name="Trazado 234718" d="M1014.511,330.7c-4.387.385-11.695.074-14.524,3.352-.894,1.617,1.764,1.591,2.028,3.409,2.392.253,3.375-3.409,5.74-3.836a3.538,3.538,0,0,1,3.355,1.8c.725,1.115,1.064,2.423,1.679,3.6a9.137,9.137,0,0,0,7.255,4.728,2.566,2.566,0,0,0,1.883-.414c1.442-1.234-.621-3.551-.085-5.343.612-2.048,3.653-1.737,5.708-2.488.567-.207,4.927-1.337,5-1.921.124-1.036-1.9-1.695-4.161-2.26a41.89,41.89,0,0,0-9.087-.809c-1.856,0-3.561.073-4.789.181" transform="translate(-999.804 -330.517)" fill="#2ca5a5"/>
    </clipPath>
    <clipPath id="clip-path-10">
      <rect id="Rectángulo_54569" data-name="Rectángulo 54569" width="95.256" height="87.376" fill="none"/>
    </clipPath>
    <clipPath id="clip-path-11">
      <rect id="Rectángulo_54577" data-name="Rectángulo 54577" width="110.074" height="106.884" fill="none"/>
    </clipPath>
    <clipPath id="clip-path-12">
      <rect id="Rectángulo_54570" data-name="Rectángulo 54570" width="30.947" height="106.595" fill="none"/>
    </clipPath>
    <clipPath id="clip-path-13">
      <rect id="Rectángulo_54571" data-name="Rectángulo 54571" width="84.169" height="106.884" fill="none"/>
    </clipPath>
    <clipPath id="clip-path-14">
      <rect id="Rectángulo_54572" data-name="Rectángulo 54572" width="101.282" height="0.432" fill="none"/>
    </clipPath>
    <clipPath id="clip-path-15">
      <rect id="Rectángulo_54573" data-name="Rectángulo 54573" width="71.929" height="0.431" fill="none"/>
    </clipPath>
    <clipPath id="clip-path-16">
      <rect id="Rectángulo_54574" data-name="Rectángulo 54574" width="110.074" height="0.432" fill="none"/>
    </clipPath>
    <clipPath id="clip-path-17">
      <rect id="Rectángulo_54575" data-name="Rectángulo 54575" width="101.282" height="0.431" fill="none"/>
    </clipPath>
    <clipPath id="clip-path-18">
      <rect id="Rectángulo_54576" data-name="Rectángulo 54576" width="72.181" height="0.319" fill="none"/>
    </clipPath>
    <clipPath id="clip-path-19">
      <path id="Trazado_234728" data-name="Trazado 234728" d="M1048.7,2540.424c.2,1.58,4.823,1.175,4.823,1.175l.734-1.988-4.672-1.1s-1.089.336-.885,1.916" transform="translate(-1048.679 -2538.507)" fill="none"/>
    </clipPath>
    <linearGradient id="linear-gradient" x1="-11.039" y1="2.227" x2="-11.029" y2="2.227" gradientUnits="objectBoundingBox">
      <stop offset="0" stop-color="#09005d"/>
      <stop offset="1" stop-color="#1a0f91"/>
    </linearGradient>
    <clipPath id="clip-path-20">
      <path id="Trazado_234729" data-name="Trazado 234729" d="M1140.769,2163.7c-5.167,1.015-6.554,3.647-7.734,5.305s-7.462,1.975-8.07,3.454-.61,1.622-.772,4.449-1.218,4.438-1.035,7.569,4.691,2.623,4.691,2.623l66.972-1.152s7.314-2.135,4.761-8.594c-2.2-1.886-1.137-3.3-2.85-4.764s-10.305-2.74-12.881-3.256-9.1-4.833-18-6.76a35.814,35.814,0,0,0-6.933-.518,106.362,106.362,0,0,0-18.148,1.641" transform="translate(-1123.137 -2162.061)" fill="#ef6f6c"/>
    </clipPath>
    <clipPath id="clip-path-21">
      <path id="Trazado_234730" data-name="Trazado 234730" d="M1116.137,2595.492c.211,3.6,6.483,2.8,6.51,2.8,0,0,4.9-3.842-1.973-3.526a11.338,11.338,0,0,1-4.192-1.011Z" transform="translate(-1116.137 -2593.755)" fill="#e24542"/>
    </clipPath>
    <clipPath id="clip-path-22">
      <path id="Trazado_234731" data-name="Trazado 234731" d="M2455.645,2519.687c-2.166,1.218-9.828.131-9.828.131l-.744,4.788,7.2.176c-.167.049,9.428-.729,5.03-6.994,0,0,.09.917-1.657,1.9" transform="translate(-2445.073 -2517.787)" fill="none"/>
    </clipPath>
    <clipPath id="clip-path-23">
      <path id="Trazado_234732" data-name="Trazado 234732" d="M1244.1,2519.3c-3.626.221-7.438,2.8-7.136,7.475s5.486,5.986,7.995,5.833,6.454-3.238,6.208-7.058a6.477,6.477,0,0,0-6.6-6.265q-.23,0-.465.014" transform="translate(-1236.949 -2519.281)" fill="#1b3f5e"/>
    </clipPath>
    <clipPath id="clip-path-24">
      <path id="Trazado_234733" data-name="Trazado 234733" d="M2329.05,2512.285c-1.9,2.611-2.44,6.486,1.13,8.939s7.721-.145,9.038-1.952,1.579-5.836-1.34-7.842a7.627,7.627,0,0,0-4.272-1.379,5.492,5.492,0,0,0-4.556,2.234" transform="translate(-2327.556 -2510.051)" fill="#1b3f5e"/>
    </clipPath>
    <clipPath id="clip-path-26">
      <path id="Trazado_234741" data-name="Trazado 234741" d="M1586.566,2562.079c-.959.058-1.319.527,1.623.471,1.669-.028,5.539,1.377,9.256,1.331,9.819-.122,23.4-1.747,23.3-1.951a84.111,84.111,0,0,0-8.61-.188c-9.3,0-23.124.187-25.569.337" transform="translate(-1585.875 -2561.742)" fill="#e24542"/>
    </clipPath>
    <clipPath id="clip-path-28">
      <rect id="Rectángulo_54586" data-name="Rectángulo 54586" width="120.5" height="66.288" fill="none"/>
    </clipPath>
    <clipPath id="clip-path-29">
      <path id="Trazado_234744" data-name="Trazado 234744" d="M328,1202.5c8.51-9.025,21.9-11.684,33.932-8.171a58.428,58.428,0,0,0,6.508,1.839c7.286,1.238,15.7-.346,21.682,5.085a5.647,5.647,0,0,0,2.23,1.58c1.3.329,2.582-.492,3.714-1.194a27.112,27.112,0,0,1,18-3.889c6.321,1.035,10.383-.235,15.958-3.894a4.755,4.755,0,0,0,2.288-2.567c.488-2.072-1.789-3.685-3.748-4.687A10.394,10.394,0,0,1,439,1193.09a5.2,5.2,0,0,1,.32,2.595,6.816,6.816,0,0,1-2.1,3.383c-2.554,2.622-5.718,4.941-9.422,5.5-5.818.885-9.9,1.429-15.488,3.338a78.325,78.325,0,0,0-15.52,7.5c-2.4,1.47-4.723,3.126-7.419,4.007-6.688,2.185-11.8-1.538-18.191-1.659-7.171-.137-10.179,3.315-15.76,6.569-3.62,2.11-8.173,1.714-12.408,1.594-9.016-.255-15.475,4.6-10.4,13.188.814,1.378,2.745,1.693,4.406,1.628s3.432-.338,4.9.4c2.337,1.168,2.688,4.135,3.79,6.421a9.882,9.882,0,0,0,7.377,5.3l-12.435-2.477a31.86,31.86,0,0,1-8.1-2.372c-3.065-1.532-5.483-4-7.838-6.412-6.366-6.532-8.31-12.61-1.885-19.843,2.488-2.8,2.978-4.252,2.583-8.383-.231-2.421-.9-4.938-.022-7.224a9.825,9.825,0,0,1,1.888-2.859q.352-.4.717-.789" transform="translate(-318.87 -1186.571)" fill="none"/>
    </clipPath>
    <clipPath id="clip-path-30">
      <path id="Trazado_234745" data-name="Trazado 234745" d="M1430.41,704.522c-2.314.321-4.053,2.443-4.638,4.637a18.66,18.66,0,0,0-.049,6.7,3.26,3.26,0,0,1-.133,1.675,6.8,6.8,0,0,1-.922,1.23,4.761,4.761,0,0,0,.238,5.527,14.1,14.1,0,0,0,4.622,3.655c-1.87,2.616.093,6.193,2.741,7.9s3.268.47,6.349,1.669a16.1,16.1,0,0,1,5.567,4.214s5.812-7.594,3.48-13.117c-.994-1.345-.98-3.161-.848-4.84s.33-3.449-.386-4.956-2.744-2.541-4.242-1.633a13.6,13.6,0,0,1-.03-3.921,3.8,3.8,0,0,0-1.406-3.47c-1.13-.693-3.249.24-3.072,1.536a15.852,15.852,0,0,0-2.422-4.778,5.88,5.88,0,0,0-4.238-2.07,4.447,4.447,0,0,0-.611.042" transform="translate(-1423.888 -704.48)" fill="none"/>
    </clipPath>
    <clipPath id="clip-path-32">
      <path id="Trazado_234751" data-name="Trazado 234751" d="M1757.615,948.13a13.261,13.261,0,0,0-2.873,3.669,2.33,2.33,0,0,1-.784.869,4.927,4.927,0,0,1-1.03.308,3.358,3.358,0,0,0-2.217,3.138,9.251,9.251,0,0,0,.991,3.863c-2.141.691-2.58,3.447-1.848,5.448s1.6,1.568,2.787,3.462a10.559,10.559,0,0,1,1.274,4.55s6.426-1.853,7.489-5.827a4.97,4.97,0,0,1,1.589-3,6.881,6.881,0,0,0,1.893-2.883,2.107,2.107,0,0,0-1.642-2.6,9.643,9.643,0,0,1,1.649-2.171,2.6,2.6,0,0,0,.7-2.474c-.328-.834-1.891-1.169-2.344-.385a10.745,10.745,0,0,0,.7-3.6,3.718,3.718,0,0,0-1.808-3.059,3.3,3.3,0,0,0-1.559-.37,5,5,0,0,0-2.964,1.065" transform="translate(-1749.525 -947.065)" fill="#42acac"/>
    </clipPath>
  </defs>
  <g id="Enmascarar_grupo_700399" data-name="Enmascarar grupo 700399" transform="translate(2733 8284)" clip-path="url(#clip-path)">
    <g id="Grupo_877457" data-name="Grupo 877457" transform="translate(-2712 -8271)">
      <g id="Grupo_597766" data-name="Grupo 597766" clip-path="url(#clip-path-2)">
        <g id="Grupo_597699" data-name="Grupo 597699">
          <g id="Grupo_597698" data-name="Grupo 597698" clip-path="url(#clip-path-3)">
            <path id="Trazado_234712" data-name="Trazado 234712" d="M1.6.718c-.138-.572.69-.952,1.2-.553C7.953,4.222,20.332,16.37,17.247,37.6c-3.871,26.636,2.747,36.356,10.984,42.284,0,0-11.313-2.788-18.43-12.65C-7.674,43.02,4.063,10.887,1.6.718" transform="translate(0 0)" fill="#0e8282"/>
            <g id="Grupo_597694" data-name="Grupo 597694" transform="translate(5.52 8.853)" style="mix-blend-mode: soft-light;isolation: isolate">
              <g id="Grupo_597693" data-name="Grupo 597693">
                <g id="Grupo_597692" data-name="Grupo 597692" clip-path="url(#clip-path-4)">
                  <path id="Trazado_234713" data-name="Trazado 234713" d="M112.848,186.565c.645,2.965,1.219,5.94,1.663,8.927q.694,4.478,1.06,8.982c.229,3,.39,6.005.4,9.011.025,3.005-.1,6.008-.245,9.023a79.264,79.264,0,0,0-.037,9.106,26.347,26.347,0,0,0,2.2,9.012c.328.719.673,1.436,1.065,2.128.377.7.79,1.384,1.219,2.063a32.616,32.616,0,0,0,2.923,3.9,36.564,36.564,0,0,0,7.7,6.539.787.787,0,0,0,.974-.108.521.521,0,0,0-.112-.806h0c-.688-.469-1.369-.945-2.023-1.444-.332-.245-.649-.5-.973-.754s-.636-.514-.937-.784a32.805,32.805,0,0,1-3.4-3.392,32.362,32.362,0,0,1-5-7.794,25.811,25.811,0,0,1-1.457-4.247,28.221,28.221,0,0,1-.7-4.4,78.389,78.389,0,0,1-.04-8.986c.091-3.015.158-6.045.076-9.073q-.054-2.271-.205-4.538c-.045-.756-.108-1.511-.169-2.266s-.144-1.508-.226-2.262q-.5-4.52-1.335-9c-.574-2.985-1.241-5.956-2.045-8.9a.19.19,0,0,0-.223-.118.159.159,0,0,0-.142.18" transform="translate(-112.845 -186.38)" fill="#fff"/>
                </g>
              </g>
            </g>
            <path id="Trazado_234714" data-name="Trazado 234714" d="M199.191,196.077a1.317,1.317,0,0,1-2.123-.351,37.4,37.4,0,0,1,.995-32.967c6.618-12.871,8.947-20.461,9.758-23.977a.821.821,0,0,1,1.538-.145c3.5,7.692,12.724,33.857-10.168,57.44" transform="translate(-184.241 -131.603)" fill="#2ca5a5"/>
            <g id="Grupo_597697" data-name="Grupo 597697" transform="translate(13.378 23.076)" style="mix-blend-mode: soft-light;isolation: isolate">
              <g id="Grupo_597696" data-name="Grupo 597696">
                <g id="Grupo_597695" data-name="Grupo 597695" clip-path="url(#clip-path-5)">
                  <path id="Trazado_234715" data-name="Trazado 234715" d="M273.9,526.735a.366.366,0,0,1-.069.005.354.354,0,0,1-.354-.355c0-.219.442-22.068,8.811-40.367a.364.364,0,0,1,.475-.177.345.345,0,0,1,.183.461c-8.308,18.166-8.746,39.878-8.749,40.095a.352.352,0,0,1-.3.338" transform="translate(-273.478 -485.811)" fill="#fff"/>
                </g>
              </g>
            </g>
          </g>
        </g>
        <g id="Grupo_597701" data-name="Grupo 597701" transform="translate(6.387 15.346)">
          <g id="Grupo_597700" data-name="Grupo 597700" clip-path="url(#clip-path-6)">
            <path id="Trazado_234758" data-name="Trazado 234758" d="M0,0,165.334,2.278l2.245,161.279L2.245,161.279Z" transform="translate(-54.882 36.544) rotate(-35.089)" fill="#0e8282"/>
          </g>
        </g>
        <g id="Grupo_597703" data-name="Grupo 597703">
          <g id="Grupo_597702" data-name="Grupo 597702" clip-path="url(#clip-path-3)">
            <path id="Trazado_234717" data-name="Trazado 234717" d="M328.252,579.221a11.309,11.309,0,0,0-2.167,6.854c.223,2.825,1.7,5.47,1.771,8.3.128,4.8-3.691,8.824-4.882,13.487-1.331,5.213,3.689,11.152,5.689,14.061s1.141-2.361,2.353-4.415,3.828,8.647,7.913,11c2.192,1.26,4.763,2.1,6.339,4.042,2.3,2.833,1.662,6.865,1.317,10.457s.172,7.969,3.5,9.565c1.962.94,4.455.622,6.225,1.87,3.109,2.191,1.624,6.969,2.855,10.5,1.34,3.842,4,3.893,8.105,4.707s-.518-7.952,1.407-11.015c1.012-1.61,2.557-2.892,3.355-4.612,1.107-2.385.8-5.572,2.942-7.153,1.609-1.185,3.849-.864,5.868-.882s4.476-.868,4.705-2.817c.2-1.729-1.579-3.107-3.323-3.508s-3.6-.21-5.315-.722c-4.9-1.465-7.184-8.121-12.3-8.432-4.373-.266-8.035,4.5-12.332,3.667-2.4-.464-4.035-2.524-5.813-4.15-2.284-2.089-5.119-3.657-6.932-6.143s-2.122-6.461.458-8.195c1.916-1.288,4.639-.765,6.533.555s3.183,3.279,4.573,5.1a3.446,3.446,0,0,0,1.6,1.351c1.849.562,3.2-1.964,2.755-3.795s-1.775-3.442-1.837-5.322c-.11-3.313,3.564-5.416,6.788-6.508s7.023-2.393,7.971-5.578c.335-1.125.247-2.363.758-3.423,1.693-3.515,10.628-5.27,8.492-7.308s-8.914-2.481-10.234-6.586c-.473-1.47-.959-3.412-2.538-3.554-2.572-.231-4.039,2.859-6.2,3.39-1.024.252-1.123,1.941-1.083,4.017a2.813,2.813,0,0,1-5.623.1,4.113,4.113,0,0,1,.327-1.689,7.674,7.674,0,0,1,2-2.516c3.318-3.076,13.218-6.456,11.145-7.765s-12.023-4.923-13.507-2.929.97.306,1.569,2.671-7.36,2.048-11.04,3.072a2.709,2.709,0,0,1-1.851.066c-.636-.3-.9-1.018-1.249-1.616-1.848-3.206-8-1.125-8-1.125a9.9,9.9,0,0,0-3.1,2.927" transform="translate(-306.964 -545.439)" fill="#2ca5a5"/>
          </g>
        </g>
        <g id="Grupo_597705" data-name="Grupo 597705" transform="translate(48.91 15.7)">
          <g id="Grupo_597704" data-name="Grupo 597704" clip-path="url(#clip-path-8)">
            <path id="Trazado_234759" data-name="Trazado 234759" d="M0,0,36.115.361l.25,24.471L.25,24.471Z" transform="translate(-5.401 1.806) rotate(-21.637)" fill="#2ca5a5"/>
          </g>
        </g>
        <g id="Grupo_597734" data-name="Grupo 597734">
          <g id="Grupo_597733" data-name="Grupo 597733" clip-path="url(#clip-path-3)">
            <path id="Trazado_234719" data-name="Trazado 234719" d="M2035.071,807.262a52.161,52.161,0,0,0-.243-18.264c-.308-1.6-1.029-3.517-2.693-3.748-1.925-.267-4.281,1.88-5.486.4a2.429,2.429,0,0,1-.019-2.387,15.766,15.766,0,0,1,3.626-5.518,20.1,20.1,0,0,0,2.873-2.986c1.624-2.458.484-6.049-1.814-7.933s-5.263,1.494-7.679.153-2.491-4.593-2.945-7.259c-.336-1.975-1.835-7.324-3.49-4.719s2.208,12.977,6.555,17.948a3.127,3.127,0,0,1,1.059,2.057c-.106,1.876-2.921,1.792-4.815,2.176-2.344.475-5.937-.744-3.954,3.223,1.046,2.092,6.041,4.955,4.7,6.355s-5.469,5.455-7.405,8.734-2.874,7.363-1.415,10.867,5.851,5.924,9.434,4.448c1.677-.691,3.506-2.127,5.065-1.212,1.412.829,1.2,2.819,1.134,4.419s.88,3.726,2.484,3.35a2.659,2.659,0,0,0,1.3-.91c2.257-2.518,3.186-5.9,3.729-9.194" transform="translate(-1912.826 -718.47)" fill="#2ca5a5"/>
            <g id="Grupo_597708" data-name="Grupo 597708" transform="translate(16.163 22.328)" opacity="0.18">
              <g id="Grupo_597707" data-name="Grupo 597707">
                <g id="Grupo_597706" data-name="Grupo 597706" clip-path="url(#clip-path-10)">
                  <path id="Trazado_234720" data-name="Trazado 234720" d="M425.653,513.761c0,24.128-21.324,43.688-47.628,43.688S330.4,537.889,330.4,513.761s21.324-43.688,47.628-43.688,47.628,19.56,47.628,43.688" transform="translate(-330.397 -470.073)" fill="#2ca5a5"/>
                </g>
              </g>
            </g>
            <g id="Grupo_597732" data-name="Grupo 597732" transform="translate(13.38 17.469)" opacity="0.68">
              <g id="Grupo_597731" data-name="Grupo 597731">
                <g id="Grupo_597730" data-name="Grupo 597730" clip-path="url(#clip-path-11)">
                  <g id="Grupo_597711" data-name="Grupo 597711" transform="translate(39.701 0.288)" style="mix-blend-mode: soft-light;isolation: isolate">
                    <g id="Grupo_597710" data-name="Grupo 597710">
                      <g id="Grupo_597709" data-name="Grupo 597709" clip-path="url(#clip-path-12)">
                        <path id="Trazado_234721" data-name="Trazado 234721" d="M1116.014,426.966a160.717,160.717,0,0,1-2.433,28.765c-.441,2.371-.952,4.73-1.562,7.067a66.618,66.618,0,0,1-2.182,6.915,32.346,32.346,0,0,1-3.256,6.515A13.092,13.092,0,0,1,1104.14,479a6.979,6.979,0,0,1-1.6,1,4.889,4.889,0,0,1-1.86.427,4.81,4.81,0,0,1-1.88-.336,6.578,6.578,0,0,1-1.632-.945,12.457,12.457,0,0,1-2.494-2.725,24.878,24.878,0,0,1-1.844-3.158c-.54-1.089-1.021-2.2-1.459-3.334a65.115,65.115,0,0,1-2.205-6.908c-.616-2.335-1.132-4.694-1.577-7.064a143.946,143.946,0,0,1-1.9-14.328q-.606-7.2-.627-14.433c-.011-2.408.052-4.816.139-7.222s.225-4.811.406-7.212c.363-4.8.907-9.594,1.717-14.346.407-2.376.881-4.741,1.452-7.086a66.656,66.656,0,0,1,2.065-6.944c.415-1.136.869-2.26,1.387-3.358a24.3,24.3,0,0,1,1.776-3.185,11.965,11.965,0,0,1,2.441-2.745,6.276,6.276,0,0,1,1.613-.94,4.666,4.666,0,0,1,1.854-.321,5.028,5.028,0,0,1,1.832.418,7.211,7.211,0,0,1,1.593.967,13.367,13.367,0,0,1,2.494,2.7,25.658,25.658,0,0,1,1.9,3.119c.562,1.077,1.063,2.182,1.526,3.3a64.552,64.552,0,0,1,2.343,6.86c.66,2.323,1.218,4.672,1.7,7.034a147.185,147.185,0,0,1,2.712,28.736m-.622,0c.008-4.8-.182-9.6-.594-14.384a134.558,134.558,0,0,0-1.943-14.268c-.458-2.358-.992-4.7-1.627-7.02a64.092,64.092,0,0,0-2.266-6.845,31.875,31.875,0,0,0-3.33-6.4,13.124,13.124,0,0,0-2.425-2.674,6.979,6.979,0,0,0-1.537-.953,4.728,4.728,0,0,0-1.757-.415,4.431,4.431,0,0,0-1.773.322,6.057,6.057,0,0,0-1.55.923,11.735,11.735,0,0,0-2.367,2.714,24.058,24.058,0,0,0-1.727,3.167c-.5,1.093-.943,2.213-1.345,3.346a66.24,66.24,0,0,0-1.988,6.927c-.546,2.34-1,4.7-1.379,7.071-.762,4.743-1.259,9.524-1.575,14.315s-.434,9.594-.425,14.394q-.015,7.2.528,14.387a143.349,143.349,0,0,0,1.8,14.286c.427,2.363.925,4.714,1.522,7.041a64.658,64.658,0,0,0,2.144,6.877c.427,1.123.9,2.231,1.422,3.311a24.5,24.5,0,0,0,1.795,3.122,12.106,12.106,0,0,0,2.4,2.663,6.228,6.228,0,0,0,1.54.906,4.376,4.376,0,0,0,1.744.321,4.542,4.542,0,0,0,1.727-.409,6.628,6.628,0,0,0,1.508-.96,12.744,12.744,0,0,0,2.353-2.708,31.967,31.967,0,0,0,3.169-6.457,66.137,66.137,0,0,0,2.12-6.884c.59-2.328,1.083-4.68,1.505-7.044.845-4.728,1.409-9.5,1.783-14.288s.553-9.587.551-14.388" transform="translate(-1085.068 -373.83)" fill="#fff"/>
                      </g>
                    </g>
                  </g>
                  <g id="Grupo_597714" data-name="Grupo 597714" transform="translate(11.489)" style="mix-blend-mode: soft-light;isolation: isolate">
                    <g id="Grupo_597713" data-name="Grupo 597713">
                      <g id="Grupo_597712" data-name="Grupo 597712" clip-path="url(#clip-path-13)">
                        <path id="Trazado_234722" data-name="Trazado 234722" d="M592.546,421.181a68.233,68.233,0,0,1-2.558,18.371,58.374,58.374,0,0,1-7.9,16.85,48.83,48.83,0,0,1-6.041,7.193,42.148,42.148,0,0,1-7.438,5.822,36.388,36.388,0,0,1-8.682,3.857,33.332,33.332,0,0,1-18.878.007,36.4,36.4,0,0,1-8.688-3.852,42.193,42.193,0,0,1-7.447-5.818,48.88,48.88,0,0,1-6.05-7.191,58.446,58.446,0,0,1-7.921-16.856,67.561,67.561,0,0,1-2.563-18.383,70.82,70.82,0,0,1,.651-9.274,65.072,65.072,0,0,1,1.923-9.105,58.43,58.43,0,0,1,7.93-16.846,48.843,48.843,0,0,1,6.051-7.185,42.065,42.065,0,0,1,7.445-5.809,36.524,36.524,0,0,1,8.682-3.839,33.136,33.136,0,0,1,18.854.006,36.5,36.5,0,0,1,8.676,3.845,42.037,42.037,0,0,1,7.436,5.813,48.786,48.786,0,0,1,6.041,7.186,58.349,58.349,0,0,1,7.913,16.841,68.235,68.235,0,0,1,2.569,18.368m-.713,0a67.583,67.583,0,0,0-2.471-18.2,58.122,58.122,0,0,0-7.69-16.753,48.349,48.349,0,0,0-5.925-7.175,41.176,41.176,0,0,0-7.325-5.823,35.9,35.9,0,0,0-8.588-3.851,32.435,32.435,0,0,0-18.694.006,35.881,35.881,0,0,0-8.582,3.856,41.144,41.144,0,0,0-7.317,5.827,48.327,48.327,0,0,0-5.915,7.176,58.045,58.045,0,0,0-7.673,16.747,65.491,65.491,0,0,0-1.846,9.016,67.941,67.941,0,0,0,0,18.347,65.464,65.464,0,0,0,1.852,9.014,58.024,58.024,0,0,0,7.682,16.737,48.294,48.294,0,0,0,5.915,7.169,41.037,41.037,0,0,0,7.315,5.818,36,36,0,0,0,8.576,3.844,32.244,32.244,0,0,0,18.669.007A36.011,36.011,0,0,0,568.4,469.1a41.063,41.063,0,0,0,7.324-5.814,48.32,48.32,0,0,0,5.925-7.168,58.1,58.1,0,0,0,7.7-16.743,67.589,67.589,0,0,0,2.481-18.2" transform="translate(-508.377 -367.756)" fill="#fff"/>
                      </g>
                    </g>
                  </g>
                  <g id="Grupo_597717" data-name="Grupo 597717" transform="translate(4.396 32.097)" style="mix-blend-mode: soft-light;isolation: isolate">
                    <g id="Grupo_597716" data-name="Grupo 597716">
                      <g id="Grupo_597715" data-name="Grupo 597715" clip-path="url(#clip-path-14)">
                        <path id="Trazado_234723" data-name="Trazado 234723" d="M363.426,1043.652l12.65-.084,12.651-.048,25.3-.038,25.3.042,12.65.052,12.651.091a.031.031,0,1,1,0,.061l-12.651.091-12.65.052-25.3.042-25.3-.038-12.651-.048-12.65-.084a.046.046,0,1,1,0-.091" transform="translate(-363.379 -1043.482)" fill="#fff"/>
                      </g>
                    </g>
                  </g>
                  <g id="Grupo_597720" data-name="Grupo 597720" transform="translate(19.072 11.523)" style="mix-blend-mode: soft-light;isolation: isolate">
                    <g id="Grupo_597719" data-name="Grupo 597719">
                      <g id="Grupo_597718" data-name="Grupo 597718" clip-path="url(#clip-path-15)">
                        <path id="Trazado_234724" data-name="Trazado 234724" d="M663.434,610.521l8.982-.084,8.981-.048c2.994-.02,5.988-.018,8.981-.024l8.981-.014,17.963.042,8.981.052c2.994.031,5.988.049,8.982.091a.031.031,0,1,1,0,.061c-2.994.042-5.988.06-8.982.091l-8.981.052-17.963.042-8.981-.014c-2.994-.006-5.988,0-8.981-.024l-8.981-.048-8.982-.084a.046.046,0,1,1,0-.091" transform="translate(-663.388 -610.351)" fill="#fff"/>
                      </g>
                    </g>
                  </g>
                  <g id="Grupo_597723" data-name="Grupo 597723" transform="translate(0 52.67)" style="mix-blend-mode: soft-light;isolation: isolate">
                    <g id="Grupo_597722" data-name="Grupo 597722">
                      <g id="Grupo_597721" data-name="Grupo 597721" clip-path="url(#clip-path-16)">
                        <path id="Trazado_234725" data-name="Trazado 234725" d="M273.557,1476.783l13.75-.084,13.749-.048,27.5-.038,27.5.042,13.75.052,13.749.091a.031.031,0,1,1,0,.061l-13.749.091-13.75.052-27.5.042-27.5-.038-13.749-.048-13.75-.084a.045.045,0,1,1,0-.091" transform="translate(-273.511 -1476.613)" fill="#fff"/>
                      </g>
                    </g>
                  </g>
                  <g id="Grupo_597726" data-name="Grupo 597726" transform="translate(4.396 73.244)" style="mix-blend-mode: soft-light;isolation: isolate">
                    <g id="Grupo_597725" data-name="Grupo 597725">
                      <g id="Grupo_597724" data-name="Grupo 597724" clip-path="url(#clip-path-17)">
                        <path id="Trazado_234726" data-name="Trazado 234726" d="M363.426,1909.915l12.65-.084,12.651-.048,25.3-.038,25.3.042,12.65.052,12.651.091a.032.032,0,0,1,.031.031.031.031,0,0,1-.031.03l-12.651.091-12.65.052-25.3.042-25.3-.038-12.651-.048-12.65-.084a.045.045,0,1,1,0-.091" transform="translate(-363.379 -1909.745)" fill="#fff"/>
                      </g>
                    </g>
                  </g>
                  <g id="Grupo_597729" data-name="Grupo 597729" transform="translate(20.765 93.874)" style="mix-blend-mode: soft-light;isolation: isolate">
                    <g id="Grupo_597728" data-name="Grupo 597728">
                      <g id="Grupo_597727" data-name="Grupo 597727" clip-path="url(#clip-path-18)">
                        <path id="Trazado_234727" data-name="Trazado 234727" d="M769.994,2344.375H698.142a.16.16,0,1,1,0-.319h71.852a.16.16,0,1,1,0,.319" transform="translate(-697.978 -2344.056)" fill="#fff"/>
                      </g>
                    </g>
                  </g>
                </g>
              </g>
            </g>
          </g>
        </g>
        <g id="Grupo_597736" data-name="Grupo 597736" transform="translate(51.301 120.579)">
          <g id="Grupo_597735" data-name="Grupo 597735" clip-path="url(#clip-path-19)">
            <path id="Trazado_234765" data-name="Trazado 234765" d="M0,0,4.55.027l.036,6.357L.036,6.357Z" transform="translate(-0.884 3.357) rotate(-78.471)" fill="url(#linear-gradient)"/>
          </g>
        </g>
        <g id="Grupo_597738" data-name="Grupo 597738" transform="translate(54.943 102.698)">
          <g id="Grupo_597737" data-name="Grupo 597737" clip-path="url(#clip-path-20)">
            <path id="Trazado_234761" data-name="Trazado 234761" d="M0,0,67.394.958l1.1,78.221L1.1,78.221Z" transform="translate(-12.811 16.292) rotate(-52.989)" fill="#ef6f6c"/>
          </g>
        </g>
        <g id="Grupo_597740" data-name="Grupo 597740" transform="translate(54.601 123.203)">
          <g id="Grupo_597739" data-name="Grupo 597739" clip-path="url(#clip-path-21)">
            <path id="Trazado_234766" data-name="Trazado 234766" d="M0,0,6.1-.029,6.039,11.742l-6.1.029Z" transform="translate(-0.342 5.315) rotate(-86.424)" fill="#e24542"/>
          </g>
        </g>
        <g id="Grupo_597742" data-name="Grupo 597742" transform="translate(119.611 119.595)">
          <g id="Grupo_597741" data-name="Grupo 597741" clip-path="url(#clip-path-22)">
            <path id="Trazado_234767" data-name="Trazado 234767" d="M0,0,8.157-.039l-.089,17.1L-.089,17.1Z" transform="matrix(0.062, -0.998, 0.998, 0.062, -0.452, 7.015)" fill="#e24542"/>
          </g>
        </g>
        <g id="Grupo_597744" data-name="Grupo 597744" transform="translate(60.511 119.666)">
          <g id="Grupo_597743" data-name="Grupo 597743" clip-path="url(#clip-path-23)">
            <path id="Trazado_234762" data-name="Trazado 234762" d="M0,0,18.635.224l.229,19.336L.229,19.336Z" transform="matrix(0.455, -0.89, 0.89, 0.455, -5.912, 10.68)" fill="#1b3f5e"/>
          </g>
        </g>
        <g id="Grupo_597746" data-name="Grupo 597746" transform="translate(113.862 119.227)">
          <g id="Grupo_597745" data-name="Grupo 597745" clip-path="url(#clip-path-24)">
            <path id="Trazado_234763" data-name="Trazado 234763" d="M0,0,18.583.2l.2,18.145L.2,18.145Z" transform="matrix(0.913, -0.407, 0.407, 0.913, -6.166, 2.26)" fill="#1b3f5e"/>
          </g>
        </g>
        <g id="Grupo_597748" data-name="Grupo 597748">
          <g id="Grupo_597747" data-name="Grupo 597747" clip-path="url(#clip-path-3)">
            <path id="Trazado_234734" data-name="Trazado 234734" d="M1299.928,2595.1a3.344,3.344,0,0,1,3.64,3.219,3.8,3.8,0,0,1-3.2,3.635c-1.292.079-3.963-.6-4.118-3a3.668,3.668,0,0,1,3.675-3.85" transform="translate(-1232.833 -2471.827)" fill="#ffd947"/>
            <path id="Trazado_234735" data-name="Trazado 234735" d="M2403.982,2586.867a2.643,2.643,0,0,1,2.876,2.544,3,3,0,0,1-2.527,2.873c-1.021.062-3.132-.472-3.254-2.374a2.9,2.9,0,0,1,2.9-3.043" transform="translate(-2283.612 -2463.985)" fill="#ffd947"/>
            <path id="Trazado_234736" data-name="Trazado 234736" d="M1350.933,2231.868a5.021,5.021,0,0,1,1.457-3.68c1.716-2.049,2.714-3.4,4.065-3.772s11.275-1.962,11.956-.949,1.692,7.31,1.692,7.31Z" transform="translate(-1284.833 -2117.535)" fill="#0e8282"/>
            <path id="Trazado_234737" data-name="Trazado 234737" d="M1356.621,2222.99c1.112-.189,9.557-1.358,11.751-1.14l.623,2.1-18.08,6.669a4.636,4.636,0,0,1,.753-2.694c1.472-2.268,3.791-4.763,4.953-4.935" transform="translate(-1284.823 -2116.286)" fill="#2ca5a5"/>
            <path id="Trazado_234738" data-name="Trazado 234738" d="M1769.3,2214.937c.308,1.214,1.483,7.142,1.483,7.142l21.532-.637s-6.949-5.887-12.193-6.714-11.015-.432-10.822.209" transform="translate(-1682.741 -2109.082)" fill="#0e8282"/>
            <path id="Trazado_234739" data-name="Trazado 234739" d="M1775.7,2209.381a37.037,37.037,0,0,0-10.267.172l.475,1.719a48.618,48.618,0,0,1,12.8-.854,9.78,9.78,0,0,0-3-1.038" transform="translate(-1679.071 -2104.167)" fill="#2ca5a5"/>
          </g>
        </g>
        <g id="Grupo_597750" data-name="Grupo 597750" transform="translate(77.58 121.683)">
          <g id="Grupo_597749" data-name="Grupo 597749" clip-path="url(#clip-path-26)">
            <path id="Trazado_234740" data-name="Trazado 234740" d="M1603.519,2374.849l-32.57,9.44-3.622-10.142,32.571-9.44Z" transform="translate(-1568.233 -2374.067)" fill="#e24542"/>
          </g>
        </g>
        <g id="Grupo_597757" data-name="Grupo 597757">
          <g id="Grupo_597756" data-name="Grupo 597756" clip-path="url(#clip-path-3)">
            <path id="Trazado_234742" data-name="Trazado 234742" d="M2543.075,2380.193s-3.518-1-4.3,1.7c-.743,2.573,7.148,3.063,7.148,3.063s-.681-3.773-2.85-4.764" transform="translate(-2414.535 -2266.962)" fill="#ffd947"/>
            <g id="Grupo_597755" data-name="Grupo 597755" transform="translate(15.599 56.362)" opacity="0.62">
              <g id="Grupo_597754" data-name="Grupo 597754">
                <g id="Grupo_597753" data-name="Grupo 597753" clip-path="url(#clip-path-28)">
                  <g id="Grupo_597752" data-name="Grupo 597752" transform="translate(0 0)">
                    <g id="Grupo_597751" data-name="Grupo 597751" clip-path="url(#clip-path-29)">
                      <path id="Trazado_234743" data-name="Trazado 234743" d="M-434.848,47.725l106.555-85.372,85.318,96.871L-349.53,144.6Z" transform="translate(397.977 -20.503)" fill="#ffd947"/>
                    </g>
                  </g>
                </g>
              </g>
            </g>
          </g>
        </g>
        <g id="Grupo_597759" data-name="Grupo 597759" transform="translate(69.656 33.463)">
          <g id="Grupo_597758" data-name="Grupo 597758" clip-path="url(#clip-path-30)">
            <path id="Trazado_234768" data-name="Trazado 234768" d="M0,0,39.322-.225l-.184,29.653-39.322.225Z" transform="translate(-3.302 37.042) rotate(-85.724)" fill="#0e8282"/>
          </g>
        </g>
        <g id="Grupo_597761" data-name="Grupo 597761">
          <g id="Grupo_597760" data-name="Grupo 597760" clip-path="url(#clip-path-3)">
            <path id="Trazado_234746" data-name="Trazado 234746" d="M1606.106,856.036a.1.1,0,0,1-.093-.063c-1.594-4.278-3.852-8.906-6.037-13.381-2.855-5.85-5.552-11.375-6.827-16.081a.1.1,0,0,1,.07-.117.1.1,0,0,1,.121.068c1.27,4.688,3.963,10.206,6.814,16.048,2.186,4.479,4.447,9.112,6.044,13.4a.1.1,0,0,1-.059.123.1.1,0,0,1-.034.006" transform="translate(-1515.21 -787.136)" fill="#fff"/>
            <path id="Trazado_234747" data-name="Trazado 234747" d="M1570.568,1048.058a.1.1,0,0,1-.042-.009,41.856,41.856,0,0,1-7.958-5.145.094.094,0,0,1-.012-.135.1.1,0,0,1,.139-.012,41.65,41.65,0,0,0,7.915,5.119.1.1,0,0,1,.047.128.1.1,0,0,1-.089.055" transform="translate(-1486.095 -993.204)" fill="#fff"/>
            <path id="Trazado_234748" data-name="Trazado 234748" d="M1691.215,941.642a.1.1,0,0,1-.027,0,.1.1,0,0,1-.068-.119,24.458,24.458,0,0,0,.915-6.525.1.1,0,0,1,.1-.1.1.1,0,0,1,.1.093,24.661,24.661,0,0,1-.922,6.584.1.1,0,0,1-.1.07" transform="translate(-1608.388 -890.488)" fill="#fff"/>
            <path id="Trazado_234749" data-name="Trazado 234749" d="M1635.82,1220.573a.1.1,0,0,1-.032-.005,38.854,38.854,0,0,1-8.36-4.178.094.094,0,0,1-.023-.134.1.1,0,0,1,.138-.023,38.65,38.65,0,0,0,8.311,4.153.1.1,0,0,1,.061.122.1.1,0,0,1-.093.064" transform="translate(-1547.775 -1158.445)" fill="#fff"/>
            <path id="Trazado_234750" data-name="Trazado 234750" d="M1786.544,1094.787h-.016a.1.1,0,0,1-.082-.11,45.135,45.135,0,0,0,.453-8.867.1.1,0,0,1,.092-.1.1.1,0,0,1,.105.09,45.333,45.333,0,0,1-.456,8.91.1.1,0,0,1-.1.081" transform="translate(-1699.053 -1034.135)" fill="#fff"/>
          </g>
        </g>
        <g id="Grupo_597763" data-name="Grupo 597763" transform="translate(85.586 44.986)">
          <g id="Grupo_597762" data-name="Grupo 597762" clip-path="url(#clip-path-32)">
            <path id="Trazado_234764" data-name="Trazado 234764" d="M0,0,30.985.453,31.424,30.6.439,30.144Z" transform="matrix(0.659, -0.753, 0.753, 0.659, -13.863, 14.936)" fill="#42acac"/>
          </g>
        </g>
        <g id="Grupo_597765" data-name="Grupo 597765">
          <g id="Grupo_597764" data-name="Grupo 597764" clip-path="url(#clip-path-3)">
            <path id="Trazado_234752" data-name="Trazado 234752" d="M1841.545,1080.575a.086.086,0,0,1-.029,0,.079.079,0,0,1-.049-.1,92.522,92.522,0,0,0,5.3-20.839.081.081,0,0,1,.092-.069.08.08,0,0,1,.071.089,92.63,92.63,0,0,1-5.31,20.874.082.082,0,0,1-.077.052" transform="translate(-1751.38 -1009.23)" fill="#fff"/>
            <path id="Trazado_234753" data-name="Trazado 234753" d="M1870.423,1164.024a.083.083,0,0,1-.075-.047,27.277,27.277,0,0,1-1.83-6.138.08.08,0,0,1,.067-.092.082.082,0,0,1,.095.065,27.093,27.093,0,0,0,1.817,6.1.079.079,0,0,1-.041.106.084.084,0,0,1-.034.007" transform="translate(-1777.111 -1102.753)" fill="#fff"/>
            <path id="Trazado_234754" data-name="Trazado 234754" d="M1922.343,1166.545a.082.082,0,0,1-.067-.033.078.078,0,0,1,.019-.112,18.86,18.86,0,0,0,3.288-3.012.084.084,0,0,1,.115-.013.078.078,0,0,1,.014.112,19.042,19.042,0,0,1-3.321,3.043.084.084,0,0,1-.048.015" transform="translate(-1828.226 -1108.099)" fill="#fff"/>
            <path id="Trazado_234755" data-name="Trazado 234755" d="M1818.1,1288.928a.083.083,0,0,1-.071-.039,34.819,34.819,0,0,1-2.8-6.194.079.079,0,0,1,.053-.1.082.082,0,0,1,.1.052,34.639,34.639,0,0,0,2.784,6.161.079.079,0,0,1-.029.109.081.081,0,0,1-.042.011" transform="translate(-1726.423 -1221.667)" fill="#fff"/>
            <path id="Trazado_234756" data-name="Trazado 234756" d="M1882.072,1286.93a.083.083,0,0,1-.062-.027.078.078,0,0,1,.009-.112,32.4,32.4,0,0,0,4.291-4.462.084.084,0,0,1,.115-.017.079.079,0,0,1,.017.112,32.532,32.532,0,0,1-4.316,4.488.083.083,0,0,1-.054.019" transform="translate(-1789.924 -1221.387)" fill="#fff"/>
          </g>
        </g>
      </g>
    </g>
  </g>
</svg>
