<svg xmlns="http://www.w3.org/2000/svg" xmlns:xlink="http://www.w3.org/1999/xlink" width="179" height="158" viewBox="0 0 179 158">
  <defs>
    <clipPath id="clip-path">
      <rect id="Rectángulo_297212" data-name="Rectángulo 297212" width="179" height="158" transform="translate(-2519 -8552)" fill="#fff"/>
    </clipPath>
    <clipPath id="clip-path-2">
      <rect id="Rectángulo_54435" data-name="Rectángulo 54435" width="173" height="136" fill="none"/>
    </clipPath>
  </defs>
  <g id="Enmascarar_grupo_700397" data-name="Enmascarar grupo 700397" transform="translate(2519 8552)" clip-path="url(#clip-path)">
    <g id="Grupo_877455" data-name="Grupo 877455" transform="translate(-2516.305 -8541)">
      <g id="Grupo_597684" data-name="Grupo 597684" transform="translate(0.305)">
        <g id="Grupo_597683" data-name="Grupo 597683" clip-path="url(#clip-path-2)">
          <path id="Trazado_234383" data-name="Trazado 234383" d="M110.783,222.355h-9.3l3.661-94.117h1.978Z" transform="translate(-61.518 -86.425)" fill="#6e9fc9"/>
          <path id="Trazado_234384" data-name="Trazado 234384" d="M111.889,125.883h-2.455a.511.511,0,0,1-.441-.555l0-.582a.508.508,0,0,1,.437-.56H111.9a.508.508,0,0,1,.437.56l0,.582a.511.511,0,0,1-.441.555" transform="translate(-66.048 -83.695)" fill="#a1c5eb"/>
          <path id="Trazado_234385" data-name="Trazado 234385" d="M92.617,257.347H84.99l3-77.187h1.622Z" transform="translate(-51.568 -121.418)" fill="#5089b9"/>
          <path id="Trazado_234386" data-name="Trazado 234386" d="M93.525,178.228H91.511a.419.419,0,0,1-.362-.455l0-.477a.417.417,0,0,1,.359-.459h2.026a.417.417,0,0,1,.359.459l0,.477a.419.419,0,0,1-.362.455" transform="translate(-55.282 -119.178)" fill="#a1c5eb"/>
          <path id="Trazado_234387" data-name="Trazado 234387" d="M280.131,224.282q-.2-.774-.393-1.553c-.089-.353-.175-.708-.262-1.063q-.26-1.071-.5-2.144-.156-.676-.3-1.357c-.072-.31-.139-.62-.205-.933-.064-.294-.129-.59-.19-.886q-.215-1-.415-2.012-.791-.1-1.583-.18c-.069-.331-.139-.662-.205-.993a74.507,74.507,0,0,0-18.378,0c-.067.332-.136.662-.206.993-.528.056-1.055.115-1.582.18q-.2,1.019-.42,2.032c-.062.3-.126.594-.19.889-.067.312-.136.622-.205.934-.1.453-.2.906-.307,1.359-.163.716-.334,1.432-.507,2.146q-.126.536-.26,1.065c-.128.52-.259,1.037-.393,1.555a208.616,208.616,0,0,1-22.688,54.115h71.9a208.578,208.578,0,0,1-22.7-54.15" transform="translate(-139.622 -143.276)" fill="#a1c5eb"/>
          <path id="Trazado_234394" data-name="Trazado 234394" d="M202.748,97.5a140.766,140.766,0,0,0-31.122.033c.086-.4.173-.794.256-1.19q.289-1.355.564-2.719a120.036,120.036,0,0,1,29.488,0q.269,1.347.558,2.691c.083.4.169.792.256,1.185" transform="translate(-103.84 -62.484)" fill="#619ac9"/>
          <path id="Trazado_234395" data-name="Trazado 234395" d="M180.814,201.44H65.452c16.409-27.737,28.682-56.528,36.4-86.479.214-.828.424-1.653.631-2.485q.214-.846.416-1.7c.278-1.141.551-2.286.813-3.43.167-.724.333-1.448.492-2.172.111-.5.222-.994.329-1.493.1-.473.206-.949.305-1.422q.345-1.619.674-3.248a143.4,143.4,0,0,1,35.227,0q.321,1.609.666,3.215c.1.473.2.946.305,1.415.107.5.214.994.329,1.49q.238,1.086.488,2.168.393,1.717.809,3.427c.139.567.278,1.135.42,1.7q.309,1.242.631,2.481c7.723,29.971,20,58.781,36.421,86.535" transform="translate(-39.78 -65.995)" fill="#cbe3f8"/>
          <path id="Trazado_234396" data-name="Trazado 234396" d="M201.17,103.64a168.139,168.139,0,0,0-37.178.039c.1-.473.206-.949.305-1.422q.345-1.619.674-3.248a143.4,143.4,0,0,1,35.227,0q.321,1.609.666,3.215c.1.473.2.946.305,1.415" transform="translate(-99.234 -65.995)" fill="#ffd947"/>
          <path id="Trazado_234397" data-name="Trazado 234397" d="M200.738,120.123a168.354,168.354,0,0,0-38.816.046c.167-.724.333-1.448.492-2.172a175.579,175.579,0,0,1,37.837-.042q.238,1.086.488,2.168" transform="translate(-97.985 -78.82)" fill="#ffd947"/>
          <path id="Trazado_234398" data-name="Trazado 234398" d="M62,184.9a.279.279,0,0,1-.3-.231L54.28,75.359H50.52L43.1,184.668a.275.275,0,0,1-.314.231.268.268,0,0,1-.28-.258L49.941,75.1a.279.279,0,0,1,.3-.231h4.323a.279.279,0,0,1,.3.231L62.3,184.641a.268.268,0,0,1-.28.258H62" transform="translate(-25.933 -50.458)" fill="#3a739b"/>
          <path id="Trazado_234399" data-name="Trazado 234399" d="M43.527,180.654a.306.306,0,0,1-.272-.144.23.23,0,0,1,.15-.323l17.663-6.5-16.645-8.6a.224.224,0,0,1,.006-.417l15.555-7.609-14.526-7.132a.224.224,0,0,1-.006-.417l13.571-6.986-12.617-6.7a.24.24,0,0,1-.136-.192.228.228,0,0,1,.109-.2L58.1,127.568l-10.659-7.39a.218.218,0,0,1,0-.373l9.679-6.825-8.77-6.2a.227.227,0,0,1-.1-.2.238.238,0,0,1,.126-.188l7.905-4.572-7.3-3.708a.241.241,0,0,1-.14-.194.229.229,0,0,1,.112-.206l6.8-4.422-6.21-3.871a.22.22,0,0,1-.006-.386l5.671-3.7-5.172-3.14A.236.236,0,0,1,49.913,82a.23.23,0,0,1,.111-.2l4.767-3.14-4.318-3.373a.215.215,0,0,1-.011-.346.344.344,0,0,1,.42-.008L55.448,78.5a.226.226,0,0,1,.092.188.234.234,0,0,1-.111.18L50.7,81.987l5.173,3.141a.234.234,0,0,1,.121.193.23.23,0,0,1-.112.2L50.2,89.223l6.211,3.871a.22.22,0,0,1,0,.387l-6.772,4.4L56.97,101.6a.242.242,0,0,1,.141.2.234.234,0,0,1-.126.207l-7.962,4.605,8.743,6.179a.218.218,0,0,1,0,.371l-9.677,6.824,10.666,7.395a.218.218,0,0,1,0,.376l-11.677,7.831,12.666,6.73a.223.223,0,0,1,0,.412l-13.555,6.978,14.537,7.137a.224.224,0,0,1,0,.42l-15.566,7.615,16.7,8.635a.235.235,0,0,1,.138.224.252.252,0,0,1-.175.206l-18.17,6.684a.349.349,0,0,1-.121.021" transform="translate(-26.372 -50.458)" fill="#3a739b"/>
          <path id="Trazado_234400" data-name="Trazado 234400" d="M62.842,180.654a.349.349,0,0,1-.121-.021l-18.17-6.684a.252.252,0,0,1-.175-.206.235.235,0,0,1,.138-.224l16.7-8.635-15.566-7.615a.224.224,0,0,1,0-.42l14.536-7.137-13.555-6.978a.223.223,0,0,1,0-.412l12.666-6.73L47.618,127.76a.218.218,0,0,1,0-.376l10.666-7.395L48.6,113.166a.218.218,0,0,1,0-.371l8.743-6.179-7.962-4.605a.233.233,0,0,1-.126-.207.24.24,0,0,1,.141-.2l7.323-3.719-6.772-4.4a.22.22,0,0,1,0-.387l6.211-3.871L50.49,85.516a.23.23,0,0,1-.112-.2.234.234,0,0,1,.121-.193l5.173-3.141L50.94,78.871a.232.232,0,0,1-.111-.18.224.224,0,0,1,.092-.187l4.565-3.566a.344.344,0,0,1,.42.008.215.215,0,0,1-.011.346l-4.318,3.373,4.767,3.14a.23.23,0,0,1,.111.2.236.236,0,0,1-.121.192l-5.172,3.14,5.671,3.7a.232.232,0,0,1,.113.194.234.234,0,0,1-.118.192l-6.21,3.871,6.8,4.422a.229.229,0,0,1,.112.206.241.241,0,0,1-.14.194l-7.3,3.708L58,106.4a.237.237,0,0,1,.126.188.226.226,0,0,1-.1.2l-8.77,6.2,9.679,6.825a.218.218,0,0,1,0,.373l-10.659,7.39,11.716,7.856a.228.228,0,0,1,.109.2.239.239,0,0,1-.136.192l-12.617,6.7,13.571,6.986a.224.224,0,0,1-.006.417l-14.526,7.132,15.555,7.609a.224.224,0,0,1,.006.417l-16.645,8.6,17.663,6.5a.23.23,0,0,1,.15.323.306.306,0,0,1-.272.144" transform="translate(-27.062 -50.458)" fill="#3a739b"/>
          <path id="Trazado_234401" data-name="Trazado 234401" d="M40.33,99.973a.348.348,0,0,1-.052,0L22.743,97.409a.264.264,0,0,1-.246-.241v-.949a.275.275,0,0,1,.3-.245H57.866a.275.275,0,0,1,.3.245v.949a.264.264,0,0,1-.246.241L40.382,99.969a.353.353,0,0,1-.052,0m-17.238-3.01L40.33,99.48l17.238-2.517v-.5H23.092Z" transform="translate(-13.863 -64.681)" fill="#3a739b"/>
          <path id="Trazado_234402" data-name="Trazado 234402" d="M22.794,101.384a.275.275,0,0,1-.3-.245V96.217A.242.242,0,0,1,22.655,96a.351.351,0,0,1,.306.014l2.159,1.2L27.991,96a.343.343,0,0,1,.37.066L30.127,97.9l3.624-1.892a.346.346,0,0,1,.375.038l3.581,3.1a.215.215,0,0,1-.011.346.344.344,0,0,1-.42-.009l-3.412-2.95-3.644,1.9a.342.342,0,0,1-.393-.055l-1.78-1.852-2.809,1.194a.353.353,0,0,1-.3-.015l-1.841-1.027v4.46a.275.275,0,0,1-.3.245" transform="translate(-13.863 -64.68)" fill="#3a739b"/>
          <path id="Trazado_234403" data-name="Trazado 234403" d="M88.858,101.384a.275.275,0,0,1-.3-.245v-4.46L86.72,97.706a.352.352,0,0,1-.3.015l-2.809-1.194-1.78,1.852a.343.343,0,0,1-.393.055l-3.644-1.9-3.413,2.95a.344.344,0,0,1-.42.009.215.215,0,0,1-.011-.346l3.581-3.1a.346.346,0,0,1,.375-.038L81.527,97.9l1.766-1.837a.343.343,0,0,1,.37-.066l2.87,1.22,2.159-1.2A.35.35,0,0,1,89,96a.242.242,0,0,1,.158.216v4.922a.275.275,0,0,1-.3.245" transform="translate(-44.855 -64.68)" fill="#3a739b"/>
          <path id="Trazado_234404" data-name="Trazado 234404" d="M56.961,205.524H18.415a.275.275,0,0,1-.3-.245v-1.044a.263.263,0,0,1,.246-.241l19.272-2.814a.351.351,0,0,1,.1,0L57.013,204a.263.263,0,0,1,.246.241v1.044a.275.275,0,0,1-.3.245m-38.248-.489h37.95v-.594l-18.975-2.77-18.975,2.77Z" transform="translate(-11.221 -135.582)" fill="#3a739b"/>
          <path id="Trazado_234405" data-name="Trazado 234405" d="M18.415,211.62a.275.275,0,0,1-.3-.244v-4.585a.241.241,0,0,1,.15-.212l2.781-1.309a.355.355,0,0,1,.3,0l2.551,1.21,2.284-2.064a.327.327,0,0,1,.207-.08.331.331,0,0,1,.214.064l2.713,2.041,3.143-2.939a.345.345,0,0,1,.42-.022.216.216,0,0,1,.027.345l-3.343,3.127a.327.327,0,0,1-.207.083.358.358,0,0,1-.217-.064l-2.717-2.044-2.245,2.028a.345.345,0,0,1-.369.047l-2.61-1.238-2.482,1.169v4.443a.275.275,0,0,1-.3.244" transform="translate(-11.221 -137.094)" fill="#3a739b"/>
          <path id="Trazado_234406" data-name="Trazado 234406" d="M93.894,211.62a.275.275,0,0,1-.3-.244v-4.443l-2.483-1.169L88.5,207a.345.345,0,0,1-.369-.047l-2.244-2.028-2.717,2.044a.364.364,0,0,1-.217.064.326.326,0,0,1-.207-.083l-3.343-3.127a.215.215,0,0,1,.027-.345.344.344,0,0,1,.42.022L83,206.442l2.714-2.041a.339.339,0,0,1,.214-.064.326.326,0,0,1,.206.08l2.285,2.064,2.551-1.21a.355.355,0,0,1,.3,0l2.78,1.309a.242.242,0,0,1,.15.212v4.585a.275.275,0,0,1-.3.244" transform="translate(-48.154 -137.094)" fill="#3a739b"/>
          <path id="Trazado_234407" data-name="Trazado 234407" d="M53.216,155.346H.3A.275.275,0,0,1,0,155.1v-1.433a.267.267,0,0,1,.259-.243l26.459-2.87a.347.347,0,0,1,.078,0l26.459,2.87a.267.267,0,0,1,.259.243V155.1a.275.275,0,0,1-.3.245M.595,154.856H52.918v-.974l-26.162-2.838L.595,153.883Z" transform="translate(-0.289 -101.465)" fill="#3a739b"/>
          <path id="Trazado_234408" data-name="Trazado 234408" d="M.3,159.99a.275.275,0,0,1-.3-.245v-5.21a.24.24,0,0,1,.147-.211.352.352,0,0,1,.3,0l2.974,1.356,3.326-2.056a.351.351,0,0,1,.353,0l3.434,2.037,3.908-2.858a.348.348,0,0,1,.4,0l3.879,2.826,3.955-3.7a.345.345,0,0,1,.42-.023.216.216,0,0,1,.027.345l-4.153,3.884a.327.327,0,0,1-.205.083.34.34,0,0,1-.216-.061l-3.905-2.844-3.889,2.844a.348.348,0,0,1-.372.015l-3.45-2.046-3.305,2.043a.353.353,0,0,1-.323.018l-2.7-1.232v4.8a.275.275,0,0,1-.3.245" transform="translate(-0.289 -102.332)" fill="#3a739b"/>
          <path id="Trazado_234409" data-name="Trazado 234409" d="M.3,157.211a.32.32,0,0,1-.242-.1.218.218,0,0,1,.068-.341l2.967-1.755A.351.351,0,0,1,3.414,155l3.475,1.661L9.824,154.3a.347.347,0,0,1,.368-.031l4.525,2.376,3.5-3.244a.328.328,0,0,1,.213-.082.335.335,0,0,1,.219.07l4.191,3.4a.215.215,0,0,1,0,.346.345.345,0,0,1-.42,0l-3.967-3.219-3.457,3.207a.345.345,0,0,1-.383.044l-4.54-2.384-2.927,2.353a.347.347,0,0,1-.357.037l-3.5-1.675-2.81,1.662a.341.341,0,0,1-.173.046" transform="translate(-0.29 -103.33)" fill="#3a739b"/>
          <path id="Trazado_234410" data-name="Trazado 234410" d="M99.344,159.99a.275.275,0,0,1-.3-.245v-4.8l-2.7,1.232a.353.353,0,0,1-.323-.018l-3.3-2.043-3.45,2.046a.35.35,0,0,1-.372-.015l-3.889-2.844L81.1,156.151a.337.337,0,0,1-.216.061.327.327,0,0,1-.2-.083l-4.153-3.884a.216.216,0,0,1,.027-.345.345.345,0,0,1,.42.023l3.955,3.7,3.879-2.826a.347.347,0,0,1,.4,0l3.908,2.858,3.434-2.037a.351.351,0,0,1,.353,0l3.326,2.056,2.974-1.356a.355.355,0,0,1,.3,0,.24.24,0,0,1,.147.211v5.21a.275.275,0,0,1-.3.245" transform="translate(-46.417 -102.332)" fill="#3a739b"/>
          <path id="Trazado_234411" data-name="Trazado 234411" d="M99.744,157.211a.341.341,0,0,1-.173-.046l-2.81-1.662-3.5,1.675a.348.348,0,0,1-.358-.037l-2.927-2.353-4.54,2.384a.346.346,0,0,1-.383-.044l-3.458-3.207-3.967,3.219a.344.344,0,0,1-.42,0,.215.215,0,0,1,0-.346l4.19-3.4a.334.334,0,0,1,.219-.07.327.327,0,0,1,.213.082l3.5,3.244,4.526-2.376a.346.346,0,0,1,.368.031l2.934,2.359L96.629,155a.352.352,0,0,1,.323.013l2.966,1.755a.218.218,0,0,1,.068.341.32.32,0,0,1-.242.1" transform="translate(-46.818 -103.33)" fill="#3a739b"/>
          <path id="Trazado_234412" data-name="Trazado 234412" d="M326.7,204.942h-7.621L321.831,122h2.121Z" transform="translate(-192.806 -82.221)" fill="#1b3f5e"/>
          <path id="Trazado_234413" data-name="Trazado 234413" d="M336.959,114.824l-7.4-1.416-.469-1.789,29.119-5.162.245.935-4.477,1.549Z" transform="translate(-198.844 -71.746)" fill="#5089b9"/>
          <path id="Trazado_234414" data-name="Trazado 234414" d="M391.169,108.941l-.435-1.657,4.666-.827.245.935Z" transform="translate(-236.039 -71.746)" fill="#ffd947"/>
          <path id="Trazado_234415" data-name="Trazado 234415" d="M294.99,80.009l2.209,5.978-1.65,1.229-20-18.148.862-.642,3.87,2.412Z" transform="translate(-166.543 -46.115)" fill="#5089b9"/>
          <path id="Trazado_234416" data-name="Trazado 234416" d="M280.284,70.837l-1.528,1.138-3.2-2.908.862-.642Z" transform="translate(-166.543 -46.114)" fill="#ffd947"/>
          <path id="Trazado_234417" data-name="Trazado 234417" d="M307.917,129.716l5.193-4.561,2.119.56-9.121,23.31L305,148.732l.606-3.962Z" transform="translate(-184.311 -84.347)" fill="#5089b9"/>
          <path id="Trazado_234418" data-name="Trazado 234418" d="M305.607,185.317l1.963.519-1.461,3.735L305,189.278Z" transform="translate(-184.311 -124.893)" fill="#ffd947"/>
          <path id="Trazado_234419" data-name="Trazado 234419" d="M326.093,123.348a1.957,1.957,0,0,1-2.286-1.213,1.611,1.611,0,0,1,1.475-1.879,1.957,1.957,0,0,1,2.286,1.212,1.611,1.611,0,0,1-1.475,1.879" transform="translate(-195.631 -81.022)" fill="#fff"/>
          <path id="Trazado_234420" data-name="Trazado 234420" d="M380.331,246.8h-5.647l2.038-62.691h1.572Z" transform="translate(-226.354 -124.079)" fill="#1b3f5e"/>
          <path id="Trazado_234421" data-name="Trazado 234421" d="M385.744,146.977l-4.005,3.254-1.55-.465,7.573-17.041.81.243-.588,2.918Z" transform="translate(-229.676 -89.449)" fill="#5089b9"/>
          <path id="Trazado_234422" data-name="Trazado 234422" d="M397.659,135.886l-1.435-.431,1.213-2.731.81.243Z" transform="translate(-239.35 -89.449)" fill="#ffd947"/>
          <path id="Trazado_234423" data-name="Trazado 234423" d="M342.307,180.581l5.431,1.224.284,1.336-21.74,3.129-.149-.7,3.369-1.041Z" transform="translate(-197.061 -121.701)" fill="#5089b9"/>
          <path id="Trazado_234424" data-name="Trazado 234424" d="M329.5,192.7l.263,1.237-3.483.5-.149-.7Z" transform="translate(-197.061 -129.867)" fill="#ffd947"/>
          <path id="Trazado_234425" data-name="Trazado 234425" d="M381.972,191.083l-1.425-4.478,1.264-.87,14.167,13.912-.661.455-2.781-1.878Z" transform="translate(-229.892 -125.175)" fill="#5089b9"/>
          <path id="Trazado_234426" data-name="Trazado 234426" d="M410.774,222.371l1.172-.806,2.27,2.229-.661.455Z" transform="translate(-248.129 -149.322)" fill="#ffd947"/>
          <path id="Trazado_234427" data-name="Trazado 234427" d="M380.917,184.364a1.528,1.528,0,0,1-1.828.7,1.127,1.127,0,0,1-.85-1.5,1.528,1.528,0,0,1,1.828-.7,1.127,1.127,0,0,1,.85,1.5" transform="translate(-228.447 -123.19)" fill="#fff"/>
          <path id="Trazado_234428" data-name="Trazado 234428" d="M193.206,148.15c0-15.014-14.934-27.161-33.258-26.952-18.039.206-32.6,12.546-32.32,27.374.165,8.843,5.512,16.653,13.654,21.469l.017.137a20.967,20.967,0,0,0,7.442,13.275h23.346a20.969,20.969,0,0,0,7.442-13.275l.017-.137c8.272-4.893,13.659-12.875,13.659-21.892" transform="translate(-77.292 -81.679)" fill="#fff"/>
          <path id="Trazado_234429" data-name="Trazado 234429" d="M202.373,263.8l-1.008-7.135h-.772l-1.008,7.135-4.73,2.211,1.3,8.742H205.8l1.3-8.742Z" transform="translate(-117.855 -172.981)" fill="#cbe3f8"/>
          <path id="Trazado_234430" data-name="Trazado 234430" d="M182.105,250.245,179.85,236l-9.79-14.734.348-.156,9.825,14.788,0,.03L182.5,250.2Z" transform="translate(-102.895 -149.015)" fill="#162a45"/>
          <path id="Trazado_234431" data-name="Trazado 234431" d="M203.145,301.511l-.422-4.322h3v.326h-2.573l.388,3.97Z" transform="translate(-122.601 -200.289)" fill="#162a45"/>
          <path id="Trazado_234432" data-name="Trazado 234432" d="M219.562,250.245l-.393-.042,2.265-14.307.018-.027,9.808-14.761.348.156L221.817,236Z" transform="translate(-132.524 -149.015)" fill="#162a45"/>
          <path id="Trazado_234433" data-name="Trazado 234433" d="M212.874,301.511l-.4-.026.388-3.97h-2.573v-.326h3Z" transform="translate(-127.17 -200.289)" fill="#162a45"/>
          <path id="Trazado_234434" data-name="Trazado 234434" d="M176.712,206.883a2.114,2.114,0,0,1-1.448-.58,3.089,3.089,0,0,1-.723-1.315,8.565,8.565,0,0,1-.475-5.349,4.008,4.008,0,0,1,.173-.438,4.988,4.988,0,0,0-.8-.6,3.888,3.888,0,0,0-2.6-.555,3.169,3.169,0,0,0-2.494,2.737,8.387,8.387,0,0,0,.926,3.966.475.475,0,0,1-.373.62.632.632,0,0,1-.754-.307,9,9,0,0,1-.983-4.372,4.192,4.192,0,0,1,3.428-3.6,5.227,5.227,0,0,1,3.552.723,6.064,6.064,0,0,1,.662.465,5.048,5.048,0,0,1,4.421-1.939,4.976,4.976,0,0,1,3.266,1.733,4.649,4.649,0,0,1,4.057-1.792,3.823,3.823,0,0,1,2.263,1.144,4.365,4.365,0,0,1,3.418-1.219,3.748,3.748,0,0,1,2.586,1.491,5.527,5.527,0,0,1,3.874-.853,3.881,3.881,0,0,1,3.132,3.646,8.657,8.657,0,0,1-1.383,4.187.65.65,0,0,1-.784.251.46.46,0,0,1-.305-.645,8.027,8.027,0,0,0,1.282-3.77,2.875,2.875,0,0,0-2.218-2.717,4.432,4.432,0,0,0-3.1.826,5.355,5.355,0,0,1,.291,1.931,9.151,9.151,0,0,1-1.27,4.482,1.765,1.765,0,0,1-1.855,1,1.444,1.444,0,0,1-1.135-1.292,6.837,6.837,0,0,1,2.56-6.392,2.571,2.571,0,0,0-1.833-1.179,3.254,3.254,0,0,0-2.584,1.108,5.448,5.448,0,0,1,.379.72,7.03,7.03,0,0,1-.408,6.4,1.51,1.51,0,0,1-1.614.845,1.325,1.325,0,0,1-.978-.968,7.728,7.728,0,0,1,.962-6.706c.073-.112.153-.223.237-.333a2.71,2.71,0,0,0-1.7-.99,3.633,3.633,0,0,0-3.215,1.8,7.626,7.626,0,0,1,.684,1.992,11.8,11.8,0,0,1,.136,4.132,1.4,1.4,0,0,1-1.189,1.357,1.57,1.57,0,0,1-1.709-1.251,7.925,7.925,0,0,1,.749-6.242,4.376,4.376,0,0,0-.274-.37,3.786,3.786,0,0,0-2.465-1.356,3.839,3.839,0,0,0-3.459,1.752,9.638,9.638,0,0,1,.748.963,11.725,11.725,0,0,1,1.916,4.625,1.71,1.71,0,0,1-1,2.14,1.79,1.79,0,0,1-.583.095m-1.586-6.679a8.425,8.425,0,0,0,.563,4.526,2.245,2.245,0,0,0,.484.941.742.742,0,0,0,.661.215c.329-.113.357-.663.28-1.1a10.865,10.865,0,0,0-1.775-4.284q-.107-.156-.214-.3m7.326.179a7.031,7.031,0,0,0-.221,4.657.868.868,0,0,0,.35.526c.04-.016.162-.165.211-.51a10.981,10.981,0,0,0-.126-3.85c-.062-.294-.133-.568-.215-.824m6.274-1.108a6.875,6.875,0,0,0-.706,5.744.864.864,0,0,0,.119.253.955.955,0,0,0,.252-.3,6.2,6.2,0,0,0,.36-5.645l-.024-.055m5.6.154a5.844,5.844,0,0,0-1.8,5.171c.062.342.192.479.241.488.065.015.3-.132.5-.478a8.306,8.306,0,0,0,1.153-4.069,5.29,5.29,0,0,0-.093-1.113" transform="translate(-101.131 -132.214)" fill="#ffb652"/>
          <path id="Trazado_234435" data-name="Trazado 234435" d="M206.053,370.951h-6.185a1.6,1.6,0,0,1-1.729-1.421v-1.206h9.642v1.206a1.6,1.6,0,0,1-1.728,1.421" transform="translate(-119.836 -248.23)" fill="#245472"/>
          <path id="Trazado_234436" data-name="Trazado 234436" d="M200.687,336.517H187.82c-2.271,0-4.112-1.513-4.112-3.38V319.18H204.8v13.957c0,1.867-1.841,3.38-4.112,3.38" transform="translate(-111.129 -215.11)" fill="#619ac9"/>
          <path id="Trazado_234437" data-name="Trazado 234437" d="M201.522,314.161H181.485a2.158,2.158,0,0,1-2.335-1.919V310.4h24.706v1.838a2.157,2.157,0,0,1-2.334,1.919" transform="translate(-108.379 -209.195)" fill="#245472"/>
          <path id="Trazado_234438" data-name="Trazado 234438" d="M203.179,344.037H182.814a1.1,1.1,0,0,1-1.189-.977v-.889a1.1,1.1,0,0,1,1.189-.978h20.364a1.1,1.1,0,0,1,1.189.978v.889a1.1,1.1,0,0,1-1.189.977" transform="translate(-109.872 -229.945)" fill="#1b3f5e"/>
          <path id="Trazado_234439" data-name="Trazado 234439" d="M203.179,331.067H182.814a1.1,1.1,0,0,1-1.189-.978V329.2a1.1,1.1,0,0,1,1.189-.978h20.364a1.1,1.1,0,0,1,1.189.978v.889a1.1,1.1,0,0,1-1.189.978" transform="translate(-109.872 -221.204)" fill="#1b3f5e"/>
          <path id="Trazado_234440" data-name="Trazado 234440" d="M203.179,357.006H182.814a1.1,1.1,0,0,1-1.189-.977v-.889a1.1,1.1,0,0,1,1.189-.978h20.364a1.1,1.1,0,0,1,1.189.978v.889a1.1,1.1,0,0,1-1.189.977" transform="translate(-109.872 -238.686)" fill="#8bb7e4"/>
          <path id="Trazado_234441" data-name="Trazado 234441" d="M306.9,362.947H242.822a.831.831,0,1,1,0-1.63H306.9a1.492,1.492,0,1,0,0-2.928H276.883a2.681,2.681,0,1,1,0-5.26h22.386c2.371,0,4.3-1.586,4.3-3.535s-1.93-3.535-4.3-3.535H287.761c-3.12,0-5.658-2.086-5.658-4.651v-3.848a1.011,1.011,0,0,1,1.983,0v3.848c0,1.666,1.648,3.021,3.675,3.021h11.508c3.465,0,6.284,2.317,6.284,5.165s-2.819,5.166-6.284,5.166H276.883a1.019,1.019,0,1,0,0,2H306.9c2.075,0,3.764,1.388,3.764,3.095s-1.689,3.094-3.764,3.094" transform="translate(-146.197 -226.947)" fill="#ffd947"/>
          <rect id="Rectángulo_54427" data-name="Rectángulo 54427" width="0.198" height="1.63" transform="translate(96.625 134.37)" fill="#a83027"/>
          <path id="Trazado_234442" data-name="Trazado 234442" d="M310.6,367.735h-.4v-1.63h.4Zm-1.98,0h-.4v-1.63h.4Zm-1.98,0h-.4v-1.63h.4Zm-1.98,0h-.4v-1.63h.4Zm-1.98,0h-.4v-1.63h.4Zm-1.98,0h-.4v-1.63h.4Zm-1.98,0h-.4v-1.63h.4Zm-1.98,0h-.4v-1.63h.4Zm-1.98,0h-.4v-1.63h.4Zm-1.98,0h-.4v-1.63h.4Zm-1.98,0h-.4v-1.63h.4Zm-1.98,0h-.4v-1.63h.4Zm-1.98,0h-.4v-1.63h.4Zm-1.98,0h-.4v-1.63h.4Zm-1.98,0h-.4v-1.63h.4Zm-1.98,0h-.4v-1.63h.4Zm-1.98,0h-.4v-1.63h.4Zm-1.98,0h-.4v-1.63h.4Zm-1.98,0h-.4v-1.63h.4Zm-1.98,0h-.4v-1.63h.4Zm-1.98,0h-.4v-1.63h.4Zm-1.98,0h-.4v-1.63h.4Zm-1.98,0h-.4v-1.63h.4Zm-1.98,0h-.4v-1.63h.4Zm-1.98,0h-.4v-1.63h.4Zm-1.98,0h-.4v-1.63h.4Zm-1.98,0h-.4v-1.63h.4Zm-1.98,0h-.4v-1.63h.4Zm-1.98,0h-.4v-1.63h.4Zm-1.98,0h-.4v-1.63h.4Zm-1.98,0h-.4v-1.63h.4Zm-1.98,0h-.4v-1.63h.4Zm63.306-.222L311.784,366a2.016,2.016,0,0,0,.228-.092l1,1.41a4.26,4.26,0,0,1-.483.194m1.945-1.455-1.763-.746a1.32,1.32,0,0,0,.1-.192l1.875.532a2.815,2.815,0,0,1-.211.406m-1.615-1.762a1.324,1.324,0,0,0-.078-.2l1.844-.6a2.79,2.79,0,0,1,.162.419Zm-.7-.848a1.823,1.823,0,0,0-.219-.11l.915-1.447a4.1,4.1,0,0,1,.456.23Zm-1.3-.271h-.4v-1.63h.4Zm-1.98,0h-.4v-1.63h.4Zm-1.98,0h-.4v-1.63h.4Zm-1.98,0h-.4v-1.63h.4Zm-1.98,0h-.4v-1.63h.4Zm-1.98,0h-.4v-1.63h.4Zm-1.98,0h-.4v-1.63h.4Zm-1.98,0h-.4v-1.63h.4Zm-1.98,0h-.4v-1.63h.4Zm-1.98,0h-.4v-1.63h.4Zm-1.98,0h-.4v-1.63h.4Zm-1.98,0h-.4v-1.63h.4Zm-1.98,0h-.4v-1.63h.4Zm-1.98,0h-.4v-1.63h.4Zm-1.98,0h-.4v-1.63h.4Zm-1.98,0H281.1a3.974,3.974,0,0,1-.485-.03l.3-1.612a1.455,1.455,0,0,0,.186.011h.059Zm-2.5-.934a2.725,2.725,0,0,1-.328-.385l1.719-.813a1.039,1.039,0,0,0,.126.148Zm1.252-1.889-1.945-.317a2.349,2.349,0,0,1,.16-.451l1.847.595a.9.9,0,0,0-.062.173m.633-.694-.915-1.446a3.619,3.619,0,0,1,.532-.179l.583,1.558a1.377,1.377,0,0,0-.2.067m21.677-.111h-.4v-1.63h.4Zm-1.98,0h-.4v-1.63h.4Zm-1.98,0h-.4v-1.63h.4Zm-1.98,0h-.4v-1.63h.4Zm-1.98,0h-.4v-1.63h.4Zm-1.98,0h-.4v-1.63h.4Zm-1.98,0h-.4v-1.63h.4Zm-1.98,0h-.4v-1.63h.4Zm-1.98,0h-.4v-1.63h.4Zm-1.98,0H284v-1.63h.4Zm-1.98,0h-.4v-1.63h.4Zm21.44-.009-.115-1.628c.108,0,.215-.014.32-.025l.263,1.616q-.232.026-.468.037m2.268-.468-.835-1.479c.1-.037.194-.078.288-.121l.965,1.424c-.136.062-.275.121-.418.175m1.9-1.118-1.434-1.126c.075-.065.147-.131.216-.2l1.528,1.04c-.1.1-.2.194-.309.286m1.274-1.609-1.835-.62c.04-.081.077-.163.11-.246l1.887.5c-.048.124-.1.245-.163.365m.469-1.883-1.983-.023v-.056c0-.07,0-.14-.007-.209l1.979-.1c.008.1.011.2.011.306Zm-2.255-1.319c-.038-.083-.08-.165-.125-.245l1.8-.683q.1.175.181.355Zm-.831-1.123c-.072-.066-.146-.129-.223-.19l1.37-1.179q.17.133.327.277Zm-1.272-.8c-.1-.04-.194-.076-.293-.11l.757-1.507c.144.049.287.1.426.159Zm-1.536-.359q-.161-.012-.325-.014l.035-1.63c.157,0,.312.009.466.021Zm-1.891-.014h-.4v-1.63h.4Zm-1.98,0h-.4v-1.63h.4Zm-1.98,0h-.4v-1.63h.4Zm-1.98,0h-.4v-1.63h.4Zm-1.98,0h-.4v-1.63h.4Zm-1.98,0h-.107c-.117,0-.233,0-.349-.009l.121-1.627c.075,0,.151.006.228.006h.107Zm-2.318-.369c-.148-.052-.292-.108-.432-.169l.927-1.441c.091.039.186.076.282.11Zm-1.947-1.127q-.162-.144-.31-.3l1.564-1c.064.067.132.133.2.2Zm-1.212-1.686a3.865,3.865,0,0,1-.132-.381l1.929-.378c.024.083.053.164.085.245Zm1.694-1.863h-1.983v-.325h1.983Zm0-1.627h-1.983v-.325h1.983Z" transform="translate(-150.416 -231.735)" fill="#a83027"/>
          <rect id="Rectángulo_54428" data-name="Rectángulo 54428" width="1.983" height="0.163" transform="translate(135.906 110.612)" fill="#a83027"/>
          <path id="Trazado_234443" data-name="Trazado 234443" d="M198.753,370.673H154.46V351.992c0-1.541,1.52-2.79,3.394-2.79h37.5c1.875,0,3.394,1.249,3.394,2.79Z" transform="translate(-93.483 -235.343)" fill="#5089b9"/>
          <path id="Trazado_234444" data-name="Trazado 234444" d="M196.612,409.672H144.1v-1.08a2.8,2.8,0,0,1,3.028-2.489h46.456a2.8,2.8,0,0,1,3.028,2.489Z" transform="translate(-87.232 -273.691)" fill="#3a739b"/>
          <rect id="Rectángulo_54429" data-name="Rectángulo 54429" width="44.293" height="2.408" transform="translate(60.977 118.32)" fill="#1b3f5e"/>
          <rect id="Rectángulo_54430" data-name="Rectángulo 54430" width="44.293" height="1.637" transform="translate(60.977 121.517)" fill="#1b3f5e"/>
          <rect id="Rectángulo_54431" data-name="Rectángulo 54431" width="18.556" height="6.647" transform="translate(73.404 124.323)" fill="#619ac9"/>
          <path id="Trazado_234458" data-name="Trazado 234458" d="M0,0H17.054V5.324H0Z" transform="translate(74.155 124.985)" fill="#ffd947"/>
          <rect id="Rectángulo_54433" data-name="Rectángulo 54433" width="8.527" height="5.324" transform="translate(82.683 124.985)" fill="#0e8282"/>
          <rect id="Rectángulo_54434" data-name="Rectángulo 54434" width="2.024" height="5.324" transform="translate(74.155 124.985)" fill="#a7860a"/>
        </g>
      </g>
      <text id="ON" transform="translate(85.248 127.443)" fill="#fff" font-size="1" font-family="Montserrat-Bold, Montserrat" font-weight="700"><tspan x="0" y="0">ON</tspan></text>
      <text id="OFF" transform="translate(77.069 127.443)" fill="#fff" font-size="1" font-family="Montserrat-Bold, Montserrat" font-weight="700"><tspan x="0" y="0">OFF</tspan></text>
      <g id="Grupo_597686" data-name="Grupo 597686" transform="translate(0.305)">
        <g id="Grupo_597685" data-name="Grupo 597685" clip-path="url(#clip-path-2)">
          <path id="Trazado_234445" data-name="Trazado 234445" d="M334.014,349.793H277.84V334.427h56.174Zm-53-2.608h49.827V337.035H281.013Z" transform="translate(-167.924 -225.386)" fill="#5089b9"/>
          <path id="Trazado_234446" data-name="Trazado 234446" d="M330.675,281.2h-69l11.354-27.688h46.292Z" transform="translate(-158.171 -170.851)" fill="#ffd947"/>
          <path id="Trazado_234447" data-name="Trazado 234447" d="M304.307,256.289l-.7,4.841a.586.586,0,0,1-.331.383,2.605,2.605,0,0,1-1.251.282H290.164a1.817,1.817,0,0,1-1.1-.282.324.324,0,0,1-.13-.383l1.832-4.841a.254.254,0,0,1,.036-.067,2.041,2.041,0,0,1,1.518-.487h10.728c.689,0,1.226.212,1.263.487a.179.179,0,0,1,0,.067" transform="translate(-174.601 -172.351)" fill="#619ac9"/>
          <path id="Trazado_234448" data-name="Trazado 234448" d="M298.572,277.219l-.882,6.132c-.042.291-.371.551-.839.7a3.129,3.129,0,0,1-.967.15h-13.44a2.44,2.44,0,0,1-.889-.15c-.389-.153-.582-.413-.472-.7l2.32-6.132a1.11,1.11,0,0,1,.7-.517,3.2,3.2,0,0,1,1.071-.178h12a2.451,2.451,0,0,1,.977.178c.29.126.456.311.426.517" transform="translate(-169.861 -186.361)" fill="#619ac9"/>
          <path id="Trazado_234449" data-name="Trazado 234449" d="M291.131,303.8l-1.153,8.019a.747.747,0,0,1-.076.231,2.309,2.309,0,0,1-2.029.9h-15.5c-.936,0-1.572-.39-1.558-.9a.68.68,0,0,1,.044-.231l3.035-8.019a.99.99,0,0,1,.4-.447,3.068,3.068,0,0,1,1.65-.45h13.613a2.01,2.01,0,0,1,1.415.45.521.521,0,0,1,.162.447" transform="translate(-163.685 -204.141)" fill="#619ac9"/>
          <path id="Trazado_234450" data-name="Trazado 234450" d="M344.256,256.289l.568,4.841a.418.418,0,0,1-.23.383,2.207,2.207,0,0,1-1.181.282H331.551a2.193,2.193,0,0,1-1.181-.282.419.419,0,0,1-.231-.383l.568-4.841a.2.2,0,0,1,.019-.067c.109-.276.7-.487,1.393-.487h10.725c.689,0,1.282.212,1.393.487a.2.2,0,0,1,.019.067" transform="translate(-199.477 -172.351)" fill="#619ac9"/>
          <path id="Trazado_234451" data-name="Trazado 234451" d="M343.6,277.219l.719,6.132c.034.291-.227.551-.656.7a2.793,2.793,0,0,1-.932.15H329.3a2.779,2.779,0,0,1-.932-.15c-.428-.153-.69-.413-.656-.7l.719-6.132c.024-.207.239-.391.561-.517a2.819,2.819,0,0,1,1.027-.178h12a2.832,2.832,0,0,1,1.027.178c.323.126.537.311.561.517" transform="translate(-198.011 -186.361)" fill="#619ac9"/>
          <path id="Trazado_234452" data-name="Trazado 234452" d="M342.726,303.8l.941,8.019a.642.642,0,0,1-.016.231c-.124.512-.862.9-1.8.9H326.359c-.94,0-1.677-.39-1.8-.9a.644.644,0,0,1-.015-.231l.941-8.019a.692.692,0,0,1,.278-.447,2.5,2.5,0,0,1,1.536-.45h13.61a2.5,2.5,0,0,1,1.533.45.7.7,0,0,1,.282.447" transform="translate(-196.101 -204.141)" fill="#619ac9"/>
          <path id="Trazado_234453" data-name="Trazado 234453" d="M383.116,256.289l1.832,4.841a.324.324,0,0,1-.13.383,1.822,1.822,0,0,1-1.108.282H371.848a2.627,2.627,0,0,1-1.255-.282.586.586,0,0,1-.331-.383l-.7-4.841a.171.171,0,0,1,0-.067c.04-.276.578-.487,1.266-.487h10.725a2.044,2.044,0,0,1,1.521.487.267.267,0,0,1,.036.067" transform="translate(-223.265 -172.351)" fill="#619ac9"/>
          <path id="Trazado_234454" data-name="Trazado 234454" d="M387.247,277.219l2.32,6.132c.11.291-.083.551-.472.7a2.446,2.446,0,0,1-.892.15H374.765a3.154,3.154,0,0,1-.971-.15c-.468-.153-.8-.413-.839-.7l-.881-6.132c-.03-.207.136-.391.426-.517a2.468,2.468,0,0,1,.981-.178h12a3.209,3.209,0,0,1,1.074.178,1.11,1.11,0,0,1,.7.517" transform="translate(-224.777 -186.361)" fill="#619ac9"/>
          <path id="Trazado_234455" data-name="Trazado 234455" d="M392.5,303.8l3.035,8.019a.671.671,0,0,1,.044.231c.013.512-.622.9-1.562.9H378.522a2.322,2.322,0,0,1-2.033-.9.759.759,0,0,1-.076-.231l-1.153-8.019a.525.525,0,0,1,.165-.447,2.005,2.005,0,0,1,1.416-.45h13.61a3.071,3.071,0,0,1,1.654.45.99.99,0,0,1,.4.447" transform="translate(-226.699 -204.141)" fill="#619ac9"/>
          <rect id="Rectángulo_54436" data-name="Rectángulo 54436" width="13.511" height="0.082" transform="translate(131.249 83.83)" fill="#cbe3f8"/>
          <rect id="Rectángulo_54437" data-name="Rectángulo 54437" width="13.512" height="0.082" transform="translate(146.303 83.83)" fill="#cbe3f8"/>
          <rect id="Rectángulo_54438" data-name="Rectángulo 54438" width="13.509" height="0.082" transform="translate(116.195 83.83)" fill="#cbe3f8"/>
          <rect id="Rectángulo_54439" data-name="Rectángulo 54439" width="13.648" height="0.082" transform="translate(131.181 84.318)" fill="#cbe3f8"/>
          <rect id="Rectángulo_54440" data-name="Rectángulo 54440" width="13.648" height="0.082" transform="translate(146.362 84.318)" fill="#cbe3f8"/>
          <rect id="Rectángulo_54441" data-name="Rectángulo 54441" width="13.645" height="0.082" transform="translate(116 84.318)" fill="#cbe3f8"/>
          <rect id="Rectángulo_54442" data-name="Rectángulo 54442" width="13.765" height="0.082" transform="translate(131.122 84.815)" fill="#cbe3f8"/>
          <rect id="Rectángulo_54443" data-name="Rectángulo 54443" width="13.765" height="0.082" transform="translate(146.434 84.815)" fill="#cbe3f8"/>
          <rect id="Rectángulo_54444" data-name="Rectángulo 54444" width="13.762" height="0.082" transform="translate(115.812 84.815)" fill="#cbe3f8"/>
          <rect id="Rectángulo_54445" data-name="Rectángulo 54445" width="13.883" height="0.082" transform="translate(131.063 85.322)" fill="#cbe3f8"/>
          <rect id="Rectángulo_54446" data-name="Rectángulo 54446" width="13.883" height="0.082" transform="translate(146.506 85.322)" fill="#cbe3f8"/>
          <rect id="Rectángulo_54447" data-name="Rectángulo 54447" width="13.88" height="0.082" transform="translate(115.62 85.322)" fill="#cbe3f8"/>
          <rect id="Rectángulo_54448" data-name="Rectángulo 54448" width="14.004" height="0.082" transform="translate(131.003 85.836)" fill="#cbe3f8"/>
          <rect id="Rectángulo_54449" data-name="Rectángulo 54449" width="14.004" height="0.082" transform="translate(146.58 85.836)" fill="#cbe3f8"/>
          <rect id="Rectángulo_54450" data-name="Rectángulo 54450" width="14.001" height="0.082" transform="translate(115.425 85.836)" fill="#cbe3f8"/>
          <rect id="Rectángulo_54451" data-name="Rectángulo 54451" width="14.127" height="0.082" transform="translate(130.941 86.36)" fill="#cbe3f8"/>
          <rect id="Rectángulo_54452" data-name="Rectángulo 54452" width="14.127" height="0.082" transform="translate(146.656 86.36)" fill="#cbe3f8"/>
          <rect id="Rectángulo_54453" data-name="Rectángulo 54453" width="14.124" height="0.082" transform="translate(115.227 86.36)" fill="#cbe3f8"/>
          <rect id="Rectángulo_54454" data-name="Rectángulo 54454" width="14.252" height="0.082" transform="translate(130.879 86.892)" fill="#cbe3f8"/>
          <rect id="Rectángulo_54455" data-name="Rectángulo 54455" width="14.252" height="0.082" transform="translate(146.732 86.892)" fill="#cbe3f8"/>
          <rect id="Rectángulo_54456" data-name="Rectángulo 54456" width="14.249" height="0.082" transform="translate(115.026 86.892)" fill="#cbe3f8"/>
          <rect id="Rectángulo_54457" data-name="Rectángulo 54457" width="14.379" height="0.082" transform="translate(130.815 87.435)" fill="#cbe3f8"/>
          <rect id="Rectángulo_54458" data-name="Rectángulo 54458" width="14.379" height="0.082" transform="translate(146.81 87.435)" fill="#cbe3f8"/>
          <rect id="Rectángulo_54459" data-name="Rectángulo 54459" width="14.377" height="0.082" transform="translate(114.821 87.435)" fill="#cbe3f8"/>
          <rect id="Rectángulo_54460" data-name="Rectángulo 54460" width="14.509" height="0.082" transform="translate(130.75 87.987)" fill="#cbe3f8"/>
          <rect id="Rectángulo_54461" data-name="Rectángulo 54461" width="14.509" height="0.082" transform="translate(146.889 87.987)" fill="#cbe3f8"/>
          <rect id="Rectángulo_54462" data-name="Rectángulo 54462" width="14.506" height="0.082" transform="translate(114.611 87.987)" fill="#cbe3f8"/>
          <rect id="Rectángulo_54463" data-name="Rectángulo 54463" width="14.641" height="0.082" transform="translate(130.685 88.55)" fill="#cbe3f8"/>
          <rect id="Rectángulo_54464" data-name="Rectángulo 54464" width="14.641" height="0.082" transform="translate(146.97 88.55)" fill="#cbe3f8"/>
          <rect id="Rectángulo_54465" data-name="Rectángulo 54465" width="14.638" height="0.082" transform="translate(114.398 88.55)" fill="#cbe3f8"/>
          <rect id="Rectángulo_54466" data-name="Rectángulo 54466" width="14.224" height="0.082" transform="translate(130.893 89.121)" fill="#cbe3f8"/>
          <rect id="Rectángulo_54467" data-name="Rectángulo 54467" width="14.224" height="0.082" transform="translate(147.328 89.121)" fill="#cbe3f8"/>
          <rect id="Rectángulo_54468" data-name="Rectángulo 54468" width="14.221" height="0.082" transform="translate(114.458 89.121)" fill="#cbe3f8"/>
          <rect id="Rectángulo_54469" data-name="Rectángulo 54469" width="14.051" height="0.082" transform="translate(130.98 90.299)" fill="#cbe3f8"/>
          <rect id="Rectángulo_54470" data-name="Rectángulo 54470" width="14.051" height="0.082" transform="translate(147.722 90.299)" fill="#cbe3f8"/>
          <rect id="Rectángulo_54471" data-name="Rectángulo 54471" width="14.047" height="0.082" transform="translate(114.237 90.299)" fill="#cbe3f8"/>
          <rect id="Rectángulo_54472" data-name="Rectángulo 54472" width="15.194" height="0.082" transform="translate(130.408 90.905)" fill="#cbe3f8"/>
          <rect id="Rectángulo_54473" data-name="Rectángulo 54473" width="15.194" height="0.082" transform="translate(147.309 90.905)" fill="#cbe3f8"/>
          <rect id="Rectángulo_54474" data-name="Rectángulo 54474" width="15.191" height="0.082" transform="translate(113.507 90.905)" fill="#cbe3f8"/>
          <rect id="Rectángulo_54475" data-name="Rectángulo 54475" width="15.338" height="0.082" transform="translate(130.336 91.522)" fill="#cbe3f8"/>
          <rect id="Rectángulo_54476" data-name="Rectángulo 54476" width="15.339" height="0.082" transform="translate(147.397 91.522)" fill="#cbe3f8"/>
          <rect id="Rectángulo_54477" data-name="Rectángulo 54477" width="15.336" height="0.082" transform="translate(113.274 91.522)" fill="#cbe3f8"/>
          <rect id="Rectángulo_54478" data-name="Rectángulo 54478" width="15.486" height="0.082" transform="translate(130.262 92.15)" fill="#cbe3f8"/>
          <rect id="Rectángulo_54479" data-name="Rectángulo 54479" width="15.486" height="0.082" transform="translate(147.488 92.15)" fill="#cbe3f8"/>
          <rect id="Rectángulo_54480" data-name="Rectángulo 54480" width="15.483" height="0.082" transform="translate(113.036 92.15)" fill="#cbe3f8"/>
          <rect id="Rectángulo_54481" data-name="Rectángulo 54481" width="15.636" height="0.082" transform="translate(130.187 92.791)" fill="#cbe3f8"/>
          <rect id="Rectángulo_54482" data-name="Rectángulo 54482" width="15.636" height="0.082" transform="translate(147.58 92.791)" fill="#cbe3f8"/>
          <rect id="Rectángulo_54483" data-name="Rectángulo 54483" width="15.633" height="0.082" transform="translate(112.794 92.791)" fill="#cbe3f8"/>
          <rect id="Rectángulo_54484" data-name="Rectángulo 54484" width="15.79" height="0.082" transform="translate(130.11 93.444)" fill="#cbe3f8"/>
          <rect id="Rectángulo_54485" data-name="Rectángulo 54485" width="15.79" height="0.082" transform="translate(147.674 93.444)" fill="#cbe3f8"/>
          <rect id="Rectángulo_54486" data-name="Rectángulo 54486" width="15.787" height="0.082" transform="translate(112.546 93.444)" fill="#cbe3f8"/>
          <rect id="Rectángulo_54487" data-name="Rectángulo 54487" width="15.946" height="0.082" transform="translate(130.032 94.111)" fill="#cbe3f8"/>
          <rect id="Rectángulo_54488" data-name="Rectángulo 54488" width="15.946" height="0.082" transform="translate(147.77 94.111)" fill="#cbe3f8"/>
          <rect id="Rectángulo_54489" data-name="Rectángulo 54489" width="15.943" height="0.082" transform="translate(112.294 94.111)" fill="#cbe3f8"/>
          <rect id="Rectángulo_54490" data-name="Rectángulo 54490" width="16.105" height="0.082" transform="translate(129.952 94.79)" fill="#cbe3f8"/>
          <rect id="Rectángulo_54491" data-name="Rectángulo 54491" width="16.106" height="0.082" transform="translate(147.867 94.79)" fill="#cbe3f8"/>
          <rect id="Rectángulo_54492" data-name="Rectángulo 54492" width="16.102" height="0.082" transform="translate(112.037 94.79)" fill="#cbe3f8"/>
          <rect id="Rectángulo_54493" data-name="Rectángulo 54493" width="16.269" height="0.082" transform="translate(129.871 95.483)" fill="#cbe3f8"/>
          <rect id="Rectángulo_54494" data-name="Rectángulo 54494" width="16.269" height="0.082" transform="translate(147.967 95.483)" fill="#cbe3f8"/>
          <rect id="Rectángulo_54495" data-name="Rectángulo 54495" width="16.265" height="0.082" transform="translate(111.775 95.483)" fill="#cbe3f8"/>
          <rect id="Rectángulo_54496" data-name="Rectángulo 54496" width="16.435" height="0.082" transform="translate(129.788 96.192)" fill="#cbe3f8"/>
          <rect id="Rectángulo_54497" data-name="Rectángulo 54497" width="16.435" height="0.082" transform="translate(148.069 96.192)" fill="#cbe3f8"/>
          <rect id="Rectángulo_54498" data-name="Rectángulo 54498" width="16.431" height="0.082" transform="translate(111.506 96.192)" fill="#cbe3f8"/>
          <rect id="Rectángulo_54499" data-name="Rectángulo 54499" width="16.604" height="0.082" transform="translate(129.703 96.914)" fill="#cbe3f8"/>
          <rect id="Rectángulo_54500" data-name="Rectángulo 54500" width="16.604" height="0.082" transform="translate(148.173 96.914)" fill="#cbe3f8"/>
          <rect id="Rectángulo_54501" data-name="Rectángulo 54501" width="16.601" height="0.082" transform="translate(111.233 96.914)" fill="#cbe3f8"/>
          <rect id="Rectángulo_54502" data-name="Rectángulo 54502" width="15.3" height="0.082" transform="translate(130.355 97.652)" fill="#cbe3f8"/>
          <rect id="Rectángulo_54503" data-name="Rectángulo 54503" width="15.3" height="0.082" transform="translate(149.017 97.652)" fill="#cbe3f8"/>
          <rect id="Rectángulo_54504" data-name="Rectángulo 54504" width="15.297" height="0.082" transform="translate(111.693 97.652)" fill="#cbe3f8"/>
          <rect id="Rectángulo_54505" data-name="Rectángulo 54505" width="16.679" height="0.082" transform="translate(129.664 99.173)" fill="#cbe3f8"/>
          <rect id="Rectángulo_54506" data-name="Rectángulo 54506" width="16.679" height="0.082" transform="translate(148.727 99.173)" fill="#cbe3f8"/>
          <rect id="Rectángulo_54507" data-name="Rectángulo 54507" width="16.679" height="0.082" transform="translate(110.604 99.173)" fill="#cbe3f8"/>
          <rect id="Rectángulo_54508" data-name="Rectángulo 54508" width="17.319" height="0.082" transform="translate(129.346 99.959)" fill="#cbe3f8"/>
          <rect id="Rectángulo_54509" data-name="Rectángulo 54509" width="17.319" height="0.082" transform="translate(148.61 99.959)" fill="#cbe3f8"/>
          <rect id="Rectángulo_54510" data-name="Rectángulo 54510" width="17.315" height="0.082" transform="translate(110.081 99.959)" fill="#cbe3f8"/>
          <rect id="Rectángulo_54511" data-name="Rectángulo 54511" width="17.507" height="0.082" transform="translate(129.251 100.761)" fill="#cbe3f8"/>
          <rect id="Rectángulo_54512" data-name="Rectángulo 54512" width="17.507" height="0.082" transform="translate(148.725 100.761)" fill="#cbe3f8"/>
          <rect id="Rectángulo_54513" data-name="Rectángulo 54513" width="17.503" height="0.082" transform="translate(109.777 100.761)" fill="#cbe3f8"/>
          <rect id="Rectángulo_54514" data-name="Rectángulo 54514" width="17.699" height="0.082" transform="translate(148.843 101.58)" fill="#cbe3f8"/>
          <rect id="Rectángulo_54515" data-name="Rectángulo 54515" width="17.699" height="0.082" transform="translate(129.155 101.58)" fill="#cbe3f8"/>
          <rect id="Rectángulo_54516" data-name="Rectángulo 54516" width="17.696" height="0.082" transform="translate(109.468 101.58)" fill="#cbe3f8"/>
          <rect id="Rectángulo_54517" data-name="Rectángulo 54517" width="17.897" height="0.082" transform="translate(129.057 102.419)" fill="#cbe3f8"/>
          <rect id="Rectángulo_54518" data-name="Rectángulo 54518" width="17.897" height="0.082" transform="translate(148.964 102.419)" fill="#cbe3f8"/>
          <rect id="Rectángulo_54519" data-name="Rectángulo 54519" width="17.893" height="0.082" transform="translate(109.15 102.419)" fill="#cbe3f8"/>
          <rect id="Rectángulo_54520" data-name="Rectángulo 54520" width="18.097" height="0.082" transform="translate(128.956 103.277)" fill="#cbe3f8"/>
          <rect id="Rectángulo_54521" data-name="Rectángulo 54521" width="18.097" height="0.082" transform="translate(149.087 103.277)" fill="#cbe3f8"/>
          <rect id="Rectángulo_54522" data-name="Rectángulo 54522" width="18.094" height="0.082" transform="translate(108.825 103.277)" fill="#cbe3f8"/>
          <rect id="Rectángulo_54523" data-name="Rectángulo 54523" width="18.303" height="0.082" transform="translate(128.853 104.154)" fill="#cbe3f8"/>
          <rect id="Rectángulo_54524" data-name="Rectángulo 54524" width="18.303" height="0.082" transform="translate(149.213 104.154)" fill="#cbe3f8"/>
          <rect id="Rectángulo_54525" data-name="Rectángulo 54525" width="18.3" height="0.082" transform="translate(108.494 104.154)" fill="#cbe3f8"/>
          <rect id="Rectángulo_54526" data-name="Rectángulo 54526" width="18.514" height="0.082" transform="translate(128.748 105.051)" fill="#cbe3f8"/>
          <rect id="Rectángulo_54527" data-name="Rectángulo 54527" width="18.514" height="0.082" transform="translate(149.342 105.051)" fill="#cbe3f8"/>
          <rect id="Rectángulo_54528" data-name="Rectángulo 54528" width="18.51" height="0.082" transform="translate(108.154 105.051)" fill="#cbe3f8"/>
          <rect id="Rectángulo_54529" data-name="Rectángulo 54529" width="18.729" height="0.082" transform="translate(128.64 105.967)" fill="#cbe3f8"/>
          <rect id="Rectángulo_54530" data-name="Rectángulo 54530" width="18.729" height="0.082" transform="translate(149.474 105.967)" fill="#cbe3f8"/>
          <rect id="Rectángulo_54531" data-name="Rectángulo 54531" width="18.725" height="0.082" transform="translate(107.807 105.967)" fill="#cbe3f8"/>
          <rect id="Rectángulo_54532" data-name="Rectángulo 54532" width="18.949" height="0.082" transform="translate(128.53 106.907)" fill="#cbe3f8"/>
          <rect id="Rectángulo_54533" data-name="Rectángulo 54533" width="18.949" height="0.082" transform="translate(149.609 106.907)" fill="#cbe3f8"/>
          <rect id="Rectángulo_54534" data-name="Rectángulo 54534" width="18.946" height="0.082" transform="translate(107.452 106.907)" fill="#cbe3f8"/>
          <rect id="Rectángulo_54535" data-name="Rectángulo 54535" width="19.09" height="0.082" transform="translate(128.46 107.869)" fill="#cbe3f8"/>
          <rect id="Rectángulo_54536" data-name="Rectángulo 54536" width="19.09" height="0.082" transform="translate(149.79 107.869)" fill="#cbe3f8"/>
          <rect id="Rectángulo_54537" data-name="Rectángulo 54537" width="19.086" height="0.082" transform="translate(107.13 107.869)" fill="#cbe3f8"/>
          <rect id="Rectángulo_54538" data-name="Rectángulo 54538" width="68.999" height="2.626" transform="translate(103.505 110.346)" fill="#1b3f5e"/>
          <rect id="Rectángulo_54539" data-name="Rectángulo 54539" width="15.203" height="4.232" transform="translate(31.047 85.383)" fill="#245472"/>
          <path id="Trazado_234456" data-name="Trazado 234456" d="M86.734,321.511H62.79c-1.885,0-3.414-1.256-3.414-2.806V279.623c0-1.55,1.528-2.806,3.414-2.806H86.734c1.885,0,3.414,1.256,3.414,2.806V318.7c0,1.55-1.528,2.806-3.414,2.806" transform="translate(-36.114 -186.56)" fill="#cbe3f8"/>
          <path id="Trazado_234457" data-name="Trazado 234457" d="M84.924,320.467H60.979c-2.538,0-4.6-1.7-4.6-3.784V277.6c0-2.087,2.065-3.784,4.6-3.784H84.924c2.538,0,4.6,1.7,4.6,3.784v39.082c0,2.086-2.065,3.784-4.6,3.784M60.979,275.773a2.057,2.057,0,0,0-2.223,1.828v39.082a2.057,2.057,0,0,0,2.223,1.828H84.924a2.057,2.057,0,0,0,2.223-1.828V277.6a2.057,2.057,0,0,0-2.223-1.828Z" transform="translate(-34.304 -184.538)" fill="#0e8282"/>
          <rect id="Rectángulo_54540" data-name="Rectángulo 54540" width="26.342" height="4.548" transform="translate(25.477 128.555)" fill="#deb209"/>
          <rect id="Rectángulo_54541" data-name="Rectángulo 54541" width="26.342" height="4.548" transform="translate(25.477 123.099)" fill="#ffd947"/>
          <rect id="Rectángulo_54542" data-name="Rectángulo 54542" width="26.342" height="4.548" transform="translate(25.477 117.643)" fill="#e8cc63"/>
          <rect id="Rectángulo_54543" data-name="Rectángulo 54543" width="26.342" height="4.548" transform="translate(25.477 112.188)" fill="#fce798"/>
        </g>
      </g>
    </g>
  </g>
</svg>
