<svg xmlns="http://www.w3.org/2000/svg" xmlns:xlink="http://www.w3.org/1999/xlink" width="179" height="158" viewBox="0 0 179 158">
  <defs>
    <clipPath id="clip-path">
      <rect id="Rectángulo_297215" data-name="Rectángulo 297215" width="179" height="158" transform="translate(-2461 -8284)" fill="#fff"/>
    </clipPath>
    <clipPath id="clip-path-2">
      <rect id="Rectángulo_54594" data-name="Rectángulo 54594" width="20.886" height="17.202" fill="none"/>
    </clipPath>
    <clipPath id="clip-path-3">
      <rect id="Rectángulo_54595" data-name="Rectángulo 54595" width="3.317" height="2.539" fill="none"/>
    </clipPath>
    <clipPath id="clip-path-5">
      <rect id="Rectángulo_54597" data-name="Rectángulo 54597" width="1.994" height="1.526" fill="none"/>
    </clipPath>
  </defs>
  <g id="Enmascarar_grupo_700400" data-name="Enmascarar grupo 700400" transform="translate(2461 8284)" clip-path="url(#clip-path)">
    <g id="Grupo_877458" data-name="Grupo 877458" transform="translate(-2451 -8272.524)">
      <g id="Grupo_599460" data-name="Grupo 599460" transform="translate(0 7.524)">
        <path id="Trazado_234769" data-name="Trazado 234769" d="M205.278,98.276c0,25.344-21.052,45.889-47.021,45.889s-47.021-20.545-47.021-45.889,21.052-45.889,47.021-45.889,47.021,20.545,47.021,45.889" transform="translate(-73.543 -43.4)" fill="#0e8282"/>
        <path id="Trazado_234770" data-name="Trazado 234770" d="M149.144,183.219a4.879,4.879,0,0,1,2.055,1.855,4.547,4.547,0,0,1,.27,1.773,34.1,34.1,0,0,0,9.4,22.415c1.954,2.045,4.164,3.855,5.99,6.008a13.332,13.332,0,0,0,2.185,2.3,9.982,9.982,0,0,0,3.192,1.358,29.091,29.091,0,0,0,9.738,1.4,12.932,12.932,0,0,0,8.806-3.833c1.327-1.467,2.166-3.29,3.37-4.856,2.173-2.825,5.414-4.669,7.922-7.216a18.618,18.618,0,0,0,5.244-14.626,19.83,19.83,0,0,1-.263-4.235c.344-2.849,2.508-5.119,4.56-7.172-3.538.991-6,4.079-9.188,5.869a20.437,20.437,0,0,1-6.117,2.056c-9.419,1.836-19.145.385-28.633-1.068l-9.571-1.466a16.367,16.367,0,0,1-4.811-1.248c-1.747-.862-3.106-2.314-4.728-3.384-1.2-.794-4.139-2.54-5.5-1.52.741,2.2,4.132,4.369,6.083,5.592" transform="translate(-94.584 -127.015)" fill="#2ca5a5"/>
        <path id="Trazado_234771" data-name="Trazado 234771" d="M186.244,288.814c-.106-.284-.424-.427-.632-.65a1.529,1.529,0,0,1,.176-1.949,10.245,10.245,0,0,0,.737-.84,1.018,1.018,0,0,0,.119-1.046,1.152,1.152,0,0,0-.455-.4c-1.951-1.081-4.742.166-6.5-1.193a10.154,10.154,0,0,1-1.711-2.382,5.244,5.244,0,0,0-2.141-1.733,6.517,6.517,0,0,1-1.364-.65c-1.065-.807-1.111-2.486-2.208-3.253-.763-.534-1.824-.466-2.638-.923-.957-.537-1.431-1.716-2.443-2.146a3.394,3.394,0,0,0-2.428.138,10.591,10.591,0,0,0-3.175,1.8,20.714,20.714,0,0,0-2.736,2.927,16.415,16.415,0,0,0-1.688,2.5q1.183,1.041,2.437,2a6.857,6.857,0,0,1,2.556,1.825,47.486,47.486,0,0,0,22.232,7.77c.388-.2.765-.43,1.134-.66.42-.263.9-.685.728-1.143" transform="translate(-103.903 -190.038)" fill="#2ca5a5"/>
        <path id="Trazado_234772" data-name="Trazado 234772" d="M123.842,162.8a8.25,8.25,0,0,0,1.977-.332,1.4,1.4,0,0,0,.965-1.528c-.06-.2-.187-.383-.249-.586-.3-.968.906-1.69,1.358-2.6a2.437,2.437,0,0,0-.312-2.437,5.332,5.332,0,0,0-2.046-1.583,3.677,3.677,0,0,1-1.213-.781,2.908,2.908,0,0,1-.385-2.327c.239-1.742.573-3.787-.711-5.02a10.811,10.811,0,0,1-1.178-1.019,3.408,3.408,0,0,1-.532-1.752,17.374,17.374,0,0,1,0-5.824c.38-1.651,1.233-3.16,1.75-4.776.7-2.19.81-4.638,2.191-6.495a20.953,20.953,0,0,1,2.893-2.71,4.922,4.922,0,0,0,1.876-3.348c.027-1.744-1.517-3.192-3.207-3.761a16.046,16.046,0,0,0-4.637-.528c-1.669-.056-1.88-.822-2.517-2.229-.114-.252-.219-.527-.32-.815a45,45,0,0,0,.89,53.333,2.243,2.243,0,0,0,.538-.209c-.092-1.416,1.425-2.469,2.863-2.675" transform="translate(-73.543 -83.535)" fill="#2ca5a5"/>
        <path id="Trazado_234773" data-name="Trazado 234773" d="M304.317,108.78a45.762,45.762,0,0,0-25.285-40.7c-2.672,4.436-6.342,7.054-11.3,9.1-2.165.895-4.594,1.7-5.83,3.656s-.891,4.437-.507,6.7c.9,5.269,1.806,10.586,3.831,15.548a6,6,0,0,0,1.692,2.6,2.409,2.409,0,0,0,2.933.139c1.424-1.231.2-3.93,1.609-5.173.921-.81,2.432-.442,3.4.317s1.639,1.828,2.618,2.571c3.32,2.519,9.263.782,11.458,4.282,1.84,2.933-.841,6.508-1.381,9.906-.486,3.057.842,6.143.62,9.229-.2,2.791-1.647,5.349-2.2,8.1-.686,3.42-.056,7.3-2.183,10.1-.557.733-1.313,1.421-1.385,2.331,0,.035,0,.068,0,.1a45.612,45.612,0,0,0,21.916-38.805" transform="translate(-172.582 -53.903)" fill="#2ca5a5"/>
        <path id="Trazado_234774" data-name="Trazado 234774" d="M285.715,71.838a5.265,5.265,0,0,0-4.195,2.36c-.306.478-.529,1.005-.863,1.464a7.488,7.488,0,0,1-1.479,1.4c-2.076,1.631-4.294,3.325-6.935,3.681-1.011.137-2.048.069-3.045.281a5.461,5.461,0,0,0-3.953,6.8c.363,1.06,1.066,1.988,1.394,3.059a12.049,12.049,0,0,1,.343,2.54,21.012,21.012,0,0,0,3.275,9.6,3.39,3.39,0,0,0,1.2,1.263,1.338,1.338,0,0,0,1.628-.229c.442-.57.109-1.374-.172-2.035a11.036,11.036,0,0,1-.88-4.132,3.734,3.734,0,0,1,.523-2.237,1.742,1.742,0,0,1,2.077-.672,3.778,3.778,0,0,1,.9.8,13.634,13.634,0,0,0,1.915,1.388c2.037,1.418,3.457,3.5,5.109,5.336s3.763,3.525,6.259,3.682c2.063.13,4.165-.811,6.156-.268a4.427,4.427,0,0,1,3.036,3.059,4.787,4.787,0,0,1-.937,4.2c-.62.765-1.451,1.34-2.118,2.066-2.5,2.724-2.222,6.881-1.477,10.466s1.785,7.408.363,10.792a9.884,9.884,0,0,0-.922,2.419c-.095.709.064,1.435-.046,2.142-.339,2.185-3.109,3.7-2.79,5.888a14.053,14.053,0,0,0,6.41-4.439c7.793-8.674,11.909-20.2,12.33-31.73a28.5,28.5,0,0,0-.764-8.528,38.125,38.125,0,0,0-1.4-3.973A63.67,63.67,0,0,0,301.884,88a64.485,64.485,0,0,0-4.509-6.145c-3.291-4.132-6.3-10.191-11.659-10.017" transform="translate(-175.204 -56.415)" fill="#caec58"/>
        <path id="Trazado_234775" data-name="Trazado 234775" d="M303.06,142.5c7.793-8.674,11.909-20.2,12.33-31.73a28.5,28.5,0,0,0-.764-8.528,38.18,38.18,0,0,0-1.4-3.973A63.671,63.671,0,0,0,308.446,88a64.462,64.462,0,0,0-4.509-6.144c-3.291-4.132-6.3-10.191-11.659-10.017a4.978,4.978,0,0,0-.654.065c-1.154,2.544-2.456,4.954-4.854,6.263a6.509,6.509,0,0,0-2.607,1.793c-.434.678-.485,1.545-.946,2.206-.853,1.226-2.654,1.251-4.172,1.227s-3.371.242-3.936,1.618a3.746,3.746,0,0,0-.178,1.521q.112,4.84.517,9.669c.076.9.464,2.076,1.388,2.019a5.9,5.9,0,0,1,2.973-4.9,1.385,1.385,0,0,1,1.162-.211c.559.229.629.972,1,1.438.963,1.2,3.085-.015,4.46.7,1.155.6,1.185,2.179,1.761,3.328.975,1.946,3.536,2.569,5.753,2.456s4.442-.732,6.626-.347,4.344,2.333,3.818,4.438c-.114.456-.345.937-.162,1.371.156.37.558.566.905.778a4.778,4.778,0,0,1,.773,7.268,28.072,28.072,0,0,1-2.752,1.868,3.161,3.161,0,0,0-1.529,2.745,6.7,6.7,0,0,0,1.249,2.325c1.513,2.545.462,5.782-.889,8.413a3.554,3.554,0,0,0-.593,2.159c.174.975,1.142,1.609,1.61,2.487.766,1.436.064,3.195-.828,4.56s-2.013,2.714-2.12,4.331a1.45,1.45,0,0,0,.427,1.272,1,1,0,0,0,.18.1,19.255,19.255,0,0,0,2.4-2.3" transform="translate(-181.766 -56.415)" fill="#b8d346"/>
        <path id="Trazado_234776" data-name="Trazado 234776" d="M318.077,175.309a.165.165,0,0,1-.018-.33c2.5-.269,5.038-.443,7.55-.516a.165.165,0,1,1,.01.331c-2.5.073-5.033.245-7.522.514h-.019" transform="translate(-210.183 -125.105)" fill="#f96778"/>
        <path id="Trazado_234777" data-name="Trazado 234777" d="M323.832,179.246a.165.165,0,0,1-.017-.33,84.16,84.16,0,0,1,9.03-.415.165.165,0,1,1,0,.331h0a83.5,83.5,0,0,0-8.993.413h-.018" transform="translate(-213.988 -127.806)" fill="#f96778"/>
        <path id="Trazado_234778" data-name="Trazado 234778" d="M330.362,183.041a.168.168,0,0,1-.168-.145.166.166,0,0,1,.147-.185,29.908,29.908,0,0,1,6.362-.1.165.165,0,1,1-.032.329,29.58,29.58,0,0,0-6.287.095h-.022" transform="translate(-218.305 -130.478)" fill="#f96778"/>
        <path id="Trazado_234779" data-name="Trazado 234779" d="M166.133,175.309a.165.165,0,0,0,.018-.33c-2.5-.269-5.038-.443-7.55-.516a.165.165,0,1,0-.01.331c2.5.073,5.033.245,7.522.514h.019" transform="translate(-104.744 -125.105)" fill="#f96778"/>
        <path id="Trazado_234780" data-name="Trazado 234780" d="M157.5,179.246a.165.165,0,0,0,.017-.33,84.158,84.158,0,0,0-9.03-.415.165.165,0,1,0,0,.331h0a83.5,83.5,0,0,1,8.993.413h.018" transform="translate(-98.06 -127.806)" fill="#f96778"/>
        <path id="Trazado_234781" data-name="Trazado 234781" d="M156.212,183.041a.168.168,0,0,0,.168-.145.166.166,0,0,0-.147-.185,29.912,29.912,0,0,0-6.362-.1.165.165,0,1,0,.032.329,29.584,29.584,0,0,1,6.288.095h.021" transform="translate(-98.985 -130.478)" fill="#f96778"/>
        <path id="Trazado_234782" data-name="Trazado 234782" d="M117.469,112.728c.447.792.773,1.794,1.645,2.1a5.246,5.246,0,0,0,2.228-.165c2.206-.224,3.979,1.829,4.707,3.874a2.664,2.664,0,0,1,.2,1.356c-.225,1.223-1.728,1.674-2.775,2.382-2.12,1.436-2.531,4.258-3.558,6.568-.5,1.113-1.163,2.145-1.711,3.234a16.35,16.35,0,0,0,.133,14.856,12.371,12.371,0,0,1,1.057,2.177c.627,2.058-.157,4.686,1.474,6.125.823.726,2.167,1.016,2.489,2.052.345,1.108-.76,2.1-1.739,2.752q-1.973,1.318-3.967,2.605a3.515,3.515,0,0,1-2.571.808,3.281,3.281,0,0,1-1.821-1.633,34.356,34.356,0,0,1-1.888-3.359c-2.6-5.292-3.774-11.141-4.45-16.971-.633-5.462-.837-11.061.531-16.394.553-2.155,7.222-17.309,10.014-12.366" transform="translate(-70.368 -83.126)" fill="#caec58"/>
        <path id="Trazado_234783" data-name="Trazado 234783" d="M117.521,165.777c1.047-1.2,2.1-3.037,1-4.194-.6-.63-1.673-.772-2.086-1.531-.639-1.174.861-2.452.835-3.781-.031-1.562-2.041-2.362-2.6-3.825-.463-1.2.156-2.515.314-3.79.4-3.193-2.119-6.5-.853-9.47.377-.885,1.062-1.626,1.382-2.532.644-1.827-.306-3.982.575-5.713.735-1.443,2.457-2.058,3.866-2.9s2.707-2.533,1.92-3.95a3.9,3.9,0,0,0-1.826-1.4,60.379,60.379,0,0,1-6.386-3.355c-.207-.134-.408-.274-.606-.414a46.237,46.237,0,0,0-5.6,10.977c-1.368,5.333-1.164,10.932-.531,16.394.676,5.83,1.854,11.679,4.45,16.971a34.355,34.355,0,0,0,1.888,3.359,3.413,3.413,0,0,0,1.723,1.6,16.891,16.891,0,0,0,2.536-2.445" transform="translate(-70.368 -87.929)" fill="#b8d346"/>
        <path id="Trazado_234784" data-name="Trazado 234784" d="M161.515,278.352a12.912,12.912,0,0,1,.955-1.319,4.083,4.083,0,0,1,4.42-.5,13.563,13.563,0,0,1,3.463,2.381l10.993,9.381a4.116,4.116,0,0,1,1.454,1.828,2.653,2.653,0,0,1-1.508,2.9,6.019,6.019,0,0,1-3.522.394,29.855,29.855,0,0,1-6.03-1.663l-6.674-2.355a22.3,22.3,0,0,1-5.279-2.4c-1.369-.939-3.384-2.74-2.742-4.551.629-1.773,3.351-2.606,4.469-4.094" transform="translate(-103.749 -193.144)" fill="#caec58"/>
        <path id="Trazado_234785" data-name="Trazado 234785" d="M180.364,291.357a26.818,26.818,0,0,1-3.879-1.82,4.877,4.877,0,0,1-1.565-1.957,3.209,3.209,0,0,0-.39-.765c-.434-.537-1.219-.616-1.873-.863-2.506-.949-3.247-4.514-5.833-5.23a4.04,4.04,0,0,0-3.516.879,7.991,7.991,0,0,0-2.127,3,2.4,2.4,0,0,1-.948,1.279,5.316,5.316,0,0,1-1.261.25,2.065,2.065,0,0,0-1.361,1.058A7.556,7.556,0,0,0,160.243,290a22.28,22.28,0,0,0,5.279,2.4l6.674,2.355a29.864,29.864,0,0,0,6.03,1.663,6.02,6.02,0,0,0,3.522-.394,3,3,0,0,0,.306-.183,3.188,3.188,0,0,0,.523-1.192c.239-1.384-.941-2.636-2.213-3.289" transform="translate(-104.204 -196.148)" fill="#b8d346"/>
        <path id="Trazado_234786" data-name="Trazado 234786" d="M222.995,180.109c-1.232-3.608-25.517-5.885-25.7-5.9h0c-.182.017-24.466,2.293-25.7,5.9s-2.2,15.426,0,18.243,8.109,7.512,11.958,12.609c3.83,5.073,13.649,5.758,13.74,5.764h0c.091-.006,9.91-.691,13.74-5.764,3.848-5.1,9.759-9.792,11.958-12.609s1.237-14.621,0-18.243" transform="translate(-112.58 -124.934)" fill="#fff"/>
        <path id="Trazado_234787" data-name="Trazado 234787" d="M223.615,224.836h0c.091-.006,9.91-.691,13.74-5.765,3.848-5.1,9.759-9.792,11.958-12.609s1.237-14.621,0-18.243c-.233-.681-1.288-1.315-2.846-1.895-.226,4.288-.071,8.488-1.12,12.718a13.684,13.684,0,0,1-2.054,4.833c-1.569,2.153-4.01,3.512-6.02,5.282-2.051,1.806-3.655,4.047-5.656,5.907a21.279,21.279,0,0,1-18.033,5.19,27.916,27.916,0,0,1-3.494-.912c3.971,4.824,13.43,5.487,13.52,5.493" transform="translate(-138.903 -133.044)" fill="#e6e7e8"/>
        <path id="Trazado_234788" data-name="Trazado 234788" d="M322.273,155.646s15.529-6.546,20.472-16.971c0,0,1.22.064,1.048,2.536,0,0-11.2,12.062-20.65,16.14,0,0-1.1-.1-.87-1.705" transform="translate(-213.049 -101.152)" fill="#fff"/>
        <path id="Trazado_234789" data-name="Trazado 234789" d="M133.408,155.309s-15.625-6.713-20.568-17.138c0,0-1.3.04-1.127,2.511,0,0,11.371,12.253,20.825,16.332,0,0,1.1-.1.87-1.705" transform="translate(-73.848 -100.815)" fill="#fff"/>
        <path id="Trazado_234790" data-name="Trazado 234790" d="M178.008,158.076a2.571,2.571,0,1,1-2.57-2.508,2.539,2.539,0,0,1,2.57,2.508" transform="translate(-114.291 -112.459)" fill="#383838"/>
        <path id="Trazado_234791" data-name="Trazado 234791" d="M317.1,158.076a2.57,2.57,0,1,1-2.57-2.508,2.539,2.539,0,0,1,2.57,2.508" transform="translate(-206.253 -112.459)" fill="#383838"/>
        <path id="Trazado_234792" data-name="Trazado 234792" d="M322.688,144.425a9.781,9.781,0,0,1-7.469-4.035,8.267,8.267,0,0,1-1.12-2.742.7.7,0,0,1,.549-.831.716.716,0,0,1,.861.588c.365,3.612,3.751,5.966,7.226,6.5a.263.263,0,0,1-.046.523" transform="translate(-207.654 -99.898)" fill="#383838"/>
        <path id="Trazado_234793" data-name="Trazado 234793" d="M158.069,143.9c2.578-.428,5.231-1.785,6.471-4.1a6.97,6.97,0,0,0,.753-2.383.713.713,0,0,1,.806-.606.7.7,0,0,1,.6.84,8.264,8.264,0,0,1-1.12,2.743,8.791,8.791,0,0,1-4.645,3.442,11.493,11.493,0,0,1-2.825.593.263.263,0,1,1-.046-.523" transform="translate(-104.345 -99.898)" fill="#383838"/>
        <path id="Trazado_234794" data-name="Trazado 234794" d="M234.288,214.98H206.115a1.158,1.158,0,1,1,0-2.315h28.173a1.158,1.158,0,1,1,0,2.315" transform="translate(-135.488 -150.674)" fill="#d1d3d4"/>
        <path id="Trazado_234795" data-name="Trazado 234795" d="M234.288,226.834H206.115a1.158,1.158,0,1,1,0-2.315h28.173a1.158,1.158,0,1,1,0,2.315" transform="translate(-135.488 -158.608)" fill="#d1d3d4"/>
        <path id="Trazado_234796" data-name="Trazado 234796" d="M234.288,238.689H206.115a1.158,1.158,0,1,1,0-2.315h28.173a1.158,1.158,0,1,1,0,2.315" transform="translate(-135.488 -166.542)" fill="#d1d3d4"/>
        <path id="Trazado_234797" data-name="Trazado 234797" d="M224.627,183.639c-1.158-3.39-23.974-5.529-24.145-5.545h0c-.17.016-22.987,2.155-24.145,5.545s-2.066,14.494,0,17.14,7.619,7.057,11.235,11.847c3.6,4.767,12.824,5.41,12.91,5.416h0c.086-.006,9.311-.65,12.91-5.416,3.616-4.789,9.169-9.2,11.235-11.847S225.79,187.042,224.627,183.639Z" transform="translate(-115.766 -127.535)" fill="none" stroke="#bcbec0" stroke-miterlimit="10" stroke-width="1"/>
        <path id="Trazado_234798" data-name="Trazado 234798" d="M361.011,111.914a8.4,8.4,0,0,1-2.122-3.608l9.973-4.176.9,1.527Z" transform="translate(-237.277 -78.03)" fill="#58595b"/>
        <path id="Trazado_234799" data-name="Trazado 234799" d="M387.952,104.536c-.056.031.087.376.32.77s.465.689.52.658-.088-.376-.32-.77-.465-.689-.52-.658" transform="translate(-256.484 -78.302)" fill="#231f20"/>
        <path id="Trazado_234800" data-name="Trazado 234800" d="M371.3,108.293a1.085,1.085,0,0,0,.277.272L363,114.7a10.488,10.488,0,0,1-1.105-1.36,44.982,44.982,0,0,0,9.406-5.047" transform="translate(-239.261 -80.817)" fill="#484849"/>
        <path id="Trazado_234801" data-name="Trazado 234801" d="M412.527,118.3a2.9,2.9,0,0,0,.837-2.262c-.015-.32.019-.759.344-.8a1.128,1.128,0,0,1,.356.065.974.974,0,0,0,1.039-.9,3.15,3.15,0,0,0-.333-1.472,1.692,1.692,0,0,1-.143-1.073c.048-.159.14-.3.2-.457.345-.849-.235-1.765-.787-2.5a2.058,2.058,0,0,0-.638-.631c-.306-.162-.682-.168-.979-.345-.6-.354-.714-1.287-1.384-1.475a3.83,3.83,0,0,1-.753-.134,2.982,2.982,0,0,1-.412-.354,1.174,1.174,0,0,0-1.2-.052,3.374,3.374,0,0,0-.958.8.551.551,0,0,0-.764-.189c-.1.071-.179.177-.287.241-.385.229-.915-.182-1.32.013-.253.121-.341.423-.447.678s-.334.529-.61.471c-.108-.022-.2-.095-.309-.113-.35-.06-.537.414-.867.542-.491.191-1.076-.448-1.52-.167-.138.087-.256.26-.416.223-.118-.028-.173-.157-.262-.237-.427-.383-1.084.541-1.6.29-.3-.147-.35-.626-.678-.71-.258-.065-.507.169-.773.153-.506-.031-.682-.894-1.185-.825-.2.027-.346.2-.542.222-.579.062-.514-1.037-1.068-1.214-.33-.105-.7.194-1.021.069s-.358-.6-.617-.84c-.362-.34-1.065-.151-1.361-.546-.1-.13-.126-.3-.218-.434a1.129,1.129,0,0,0-.352-.293c-.465-.29-1.112-.571-1.519-.207-.635-.613-1.314.058-1.47.6a3.688,3.688,0,0,0,.3.537,1.159,1.159,0,0,0,.582-.325c.077-.06.119-.129.223-.142a.374.374,0,0,1,.281.078,1.575,1.575,0,0,0,.134.121.261.261,0,0,0,.273,0,1.382,1.382,0,0,0,.123-.1.445.445,0,0,1,.339-.081c.445.068.608.638,1.083.672a3.333,3.333,0,0,1,.459-.011c.515.11.473,1.037.995,1.11a1.772,1.772,0,0,1,.388.019c.233.089.237.435.442.575a1.394,1.394,0,0,0,.452.113c.36.1.541.474.722.793s.5.653.863.562c.178-.045.336-.191.518-.165.332.049.346.58.658.7.167.065.359-.014.536.017.485.084.6.9,1.09.888.291,0,.518-.324.807-.287.4.051.416.656.764.848.262.144.6,0,.888.076.4.113.538.592.64.989s.349.867.769.847a1.291,1.291,0,0,0,.612,1.958,2.583,2.583,0,0,0-.794,2.432,2.645,2.645,0,0,0,1.746,1.9c1.225.4,2.535-.119,3.783-.441a1.937,1.937,0,0,1,1.023-.06,5.107,5.107,0,0,1,.975.6,2.076,2.076,0,0,0,2.342-.358" transform="translate(-256.861 -77.671)" fill="#939598"/>
        <path id="Trazado_234802" data-name="Trazado 234802" d="M437.679,111.971a.782.782,0,0,1,1.151-.346.825.825,0,0,1,.965-.027.37.37,0,0,0,.133.075c.152.031.24-.157.3-.3a1.068,1.068,0,0,1,1.864-.133.547.547,0,0,1,.742-.094,1.762,1.762,0,0,1,.535.695,1.414,1.414,0,0,0,1.839,1.166,2.1,2.1,0,0,1,.706.468,3.327,3.327,0,0,1,.948,1.515,3.436,3.436,0,0,1,.045.912c.014-.03.03-.06.043-.09.345-.849-.235-1.764-.787-2.5a2.058,2.058,0,0,0-.638-.631c-.306-.162-.682-.168-.979-.345-.6-.354-.714-1.287-1.384-1.475a3.833,3.833,0,0,1-.753-.134,2.987,2.987,0,0,1-.412-.354,1.174,1.174,0,0,0-1.2-.052,3.366,3.366,0,0,0-.958.8.551.551,0,0,0-.764-.189c-.1.071-.179.177-.287.241-.385.229-.915-.182-1.32.013a.851.851,0,0,0-.373.493.736.736,0,0,1,.582.292" transform="translate(-288.983 -82.083)" fill="#d1d3d4"/>
        <path id="Trazado_234803" data-name="Trazado 234803" d="M388.813,105.281a1.161,1.161,0,0,0,.582-.325c.077-.06.119-.129.223-.142a.375.375,0,0,1,.281.078,1.577,1.577,0,0,0,.134.121.261.261,0,0,0,.273,0,1.44,1.44,0,0,0,.122-.1.445.445,0,0,1,.338-.081c.445.068.608.638,1.083.672a3.328,3.328,0,0,1,.458-.011c.515.11.473,1.037.995,1.11a1.77,1.77,0,0,1,.388.019c.234.089.237.435.443.575a1.394,1.394,0,0,0,.451.113c.36.1.541.474.722.793s.5.653.863.562c.178-.045.336-.191.518-.165.332.049.346.58.658.7.167.065.359-.014.537.017.485.084.6.9,1.09.888.291,0,.518-.324.807-.287.4.051.417.656.764.848.262.144.6,0,.888.076.4.113.538.592.64.989s.349.867.769.847a1.291,1.291,0,0,0,.612,1.958,2.583,2.583,0,0,0-.794,2.432,2.645,2.645,0,0,0,1.746,1.9c1.225.4,2.535-.119,3.783-.441a1.935,1.935,0,0,1,1.023-.06,5.1,5.1,0,0,1,.975.6,2.076,2.076,0,0,0,2.342-.358,2.9,2.9,0,0,0,.836-2.262c-.015-.32.019-.759.345-.8a1.13,1.13,0,0,1,.356.065.974.974,0,0,0,1.039-.9,1.676,1.676,0,0,0-.018-.489,1.213,1.213,0,0,1-1.237.453c-.462-.129-.969-.5-1.354-.225-.338.244-.219.749-.235,1.16a1.543,1.543,0,0,1-3.046.232,1.51,1.51,0,0,1-1.873.733,1.447,1.447,0,0,1-.783-1.816,1.665,1.665,0,0,1-1.816-2.127,1.858,1.858,0,0,1-1.043-2.087c-.248.382-.867.156-1.189-.169s-.679-.755-1.135-.672c-.205.038-.394.183-.6.151-.361-.054-.471-.582-.828-.658a1.348,1.348,0,0,0-.6.133,1.8,1.8,0,0,1-1.323-.374q-3.629-2.188-7.182-4.492a1.675,1.675,0,0,0-.718-.318,7,7,0,0,1-.859.024.667.667,0,0,1-.259-.123,1.344,1.344,0,0,0-.493.691,3.66,3.66,0,0,0,.3.537" transform="translate(-256.861 -77.98)" fill="#7e7f7f"/>
        <path id="Trazado_234804" data-name="Trazado 234804" d="M451.687,120.723a1.153,1.153,0,0,0-1.341.123,1.5,1.5,0,0,0-.266-1.092,2.216,2.216,0,0,0-1.009-.892,1.484,1.484,0,0,0-1.327.078,2.138,2.138,0,0,1,1.635.76,2.029,2.029,0,0,1,.41,1.721,1.2,1.2,0,0,1,1.147-.376c.9.171,1,.916,1.528,1.422a1.693,1.693,0,0,0-.778-1.744" transform="translate(-296.023 -87.812)" fill="#d1d3d4"/>
        <path id="Trazado_234805" data-name="Trazado 234805" d="M441.522,121.155a1.1,1.1,0,0,1,.206,1.153,1.777,1.777,0,0,1,1.513.414,1.977,1.977,0,0,1,.709.937,2.774,2.774,0,0,1-.038,1.35,2.153,2.153,0,0,0-.819-1.6,2.263,2.263,0,0,0-1.781-.433c.28-.052.014-1.3-.038-1.434a2.828,2.828,0,0,0-.947-1.13c.469-.229.96.414,1.2.747" transform="translate(-291.12 -88.894)" fill="#d1d3d4"/>
        <path id="Trazado_234806" data-name="Trazado 234806" d="M113.065,114.3a11.222,11.222,0,0,1-1.976,3.687l-6.48-4.687.836-1.56Z" transform="translate(-69.162 -83.126)" fill="#58595b"/>
        <path id="Trazado_234807" data-name="Trazado 234807" d="M105.011,113.512a2.1,2.1,0,0,0,.467-.691,2.063,2.063,0,0,0,.315-.768,2.1,2.1,0,0,0-.467.691,2.06,2.06,0,0,0-.315.768" transform="translate(-69.422 -83.333)" fill="#231f20"/>
        <path id="Trazado_234808" data-name="Trazado 234808" d="M107.192,112.256a1.346,1.346,0,0,0,.109-.362l7.471,2.51a13.636,13.636,0,0,1-.642,1.61,24.681,24.681,0,0,0-6.939-3.758" transform="translate(-70.869 -83.228)" fill="#484849"/>
        <path id="Trazado_234809" data-name="Trazado 234809" d="M105.329,121.316A8.359,8.359,0,0,1,103.353,125l-8.971-5.959.836-1.56Z" transform="translate(-62.4 -86.969)" fill="#58595b"/>
        <path id="Trazado_234810" data-name="Trazado 234810" d="M94.888,119.313c.057.029.278-.274.494-.677s.345-.753.288-.782-.278.274-.493.677-.345.753-.288.782" transform="translate(-62.726 -87.215)" fill="#231f20"/>
        <path id="Trazado_234811" data-name="Trazado 234811" d="M97.178,118.084a1.051,1.051,0,0,0,.086-.374l9.914,3.757a10.285,10.285,0,0,1-.58,1.641,45.038,45.038,0,0,0-9.419-5.023" transform="translate(-64.249 -87.12)" fill="#484849"/>
        <path id="Trazado_234812" data-name="Trazado 234812" d="M111.051,242.2a11.258,11.258,0,0,1,2.008,3.67l-7.619,2.583-.85-1.553Z" transform="translate(-69.149 -170.439)" fill="#58595b"/>
        <path id="Trazado_234813" data-name="Trazado 234813" d="M105.773,257.826a2.072,2.072,0,0,0-.322-.766,2.1,2.1,0,0,0-.473-.687,2.071,2.071,0,0,0,.322.766,2.1,2.1,0,0,0,.473.687" transform="translate(-69.401 -179.927)" fill="#231f20"/>
        <path id="Trazado_234814" data-name="Trazado 234814" d="M105.207,247.1a1.392,1.392,0,0,0-.245-.292L111.3,242.2a13.872,13.872,0,0,1,1,1.424,24.706,24.706,0,0,0-7.091,3.477" transform="translate(-69.395 -170.439)" fill="#484849"/>
        <path id="Trazado_234815" data-name="Trazado 234815" d="M64.363,253.622a1.03,1.03,0,0,0-.854.733.477.477,0,0,1-.093.273.383.383,0,0,1-.289.063l-1.581-.083c-.452-.024-1,0-1.229.378-.112.184-.131.431-.307.56a.641.641,0,0,1-.324.1,2.532,2.532,0,0,1-2.022-.75c-.258-.269-.449-.592-.691-.875a1.531,1.531,0,0,0-.933-.58.755.755,0,0,0-.85.552,1.66,1.66,0,0,0-1.043-1.324,1.729,1.729,0,0,0-1.687.281,2.535,2.535,0,0,0-1.536-1.269,1.214,1.214,0,0,0-1.493.993,2.679,2.679,0,0,0-1.757-.354,1.241,1.241,0,0,0-1.036,1.272c.036.232.155.491.016.683a.63.63,0,0,1-.244.176,3.805,3.805,0,0,0-1.1.7,1.123,1.123,0,0,0-.3,1.184c.177.4.678.688.627,1.12-.031.26-.258.447-.431.647a2.434,2.434,0,0,0,.114,3.021,5.035,5.035,0,0,0,2.857,1.585,2.109,2.109,0,0,0,1.155.029,1.147,1.147,0,0,0,.695-1.421,6.492,6.492,0,0,0,1.767.582,2.19,2.19,0,0,0,1.749-.459,3.1,3.1,0,0,0,.732-2.089,3.679,3.679,0,0,0,1.367.118,1.216,1.216,0,0,0,1.013-.8,3.345,3.345,0,0,0,.01-.8.721.721,0,0,1,.344-.68.784.784,0,0,1,.783.214,2.349,2.349,0,0,0,.675.511c.6.216,1.233-.409,1.286-1.035a.593.593,0,0,1,.08-.326.452.452,0,0,1,.3-.138c.51-.071,1.122.09,1.478-.272.3-.3.329-.893.751-.952.249-.034.464.164.7.233a.726.726,0,0,0,.894-.652,2.018,2.018,0,0,0,1.3-.1c.266-.154.52-.629.28-.9-.221-.245-.9-.2-1.181-.148" transform="translate(-29.574 -176.767)" fill="#939598"/>
        <path id="Trazado_234816" data-name="Trazado 234816" d="M59.839,259.884a2.42,2.42,0,0,1-1.105.442c-.3.014-.592-.081-.888-.058-.316.025-.608.182-.923.217s-.7-.128-.719-.437c-.365.065-.536.465-.8.724a1.23,1.23,0,0,1-1.319.248,3.127,3.127,0,0,1-.474,1.346,1.294,1.294,0,0,1-1.265.558,1.472,1.472,0,0,1-1.024,1.107,1.52,1.52,0,0,1-1.475-.389,2.757,2.757,0,0,1-3.746.977,2.6,2.6,0,0,1-1.138-2.26,2.546,2.546,0,0,0,.355,2.664,5.033,5.033,0,0,0,2.857,1.585,2.109,2.109,0,0,0,1.155.029,1.146,1.146,0,0,0,.695-1.421,6.48,6.48,0,0,0,1.767.582,2.19,2.19,0,0,0,1.749-.459,3.1,3.1,0,0,0,.732-2.089,3.682,3.682,0,0,0,1.367.118,1.216,1.216,0,0,0,1.013-.8,3.348,3.348,0,0,0,.01-.8.722.722,0,0,1,.344-.68.785.785,0,0,1,.783.214,2.361,2.361,0,0,0,.675.511c.6.215,1.233-.409,1.286-1.035a.593.593,0,0,1,.08-.326.451.451,0,0,1,.3-.138c.51-.071,1.121.09,1.478-.273.3-.3.329-.893.751-.951.249-.034.464.163.7.233a.726.726,0,0,0,.894-.652,2.016,2.016,0,0,0,1.3-.1c.266-.154.52-.629.28-.9-.2-.219-.76-.206-1.077-.164q-.242.087-.489.158a.894.894,0,0,0-.47.592.478.478,0,0,1-.093.273.383.383,0,0,1-.289.063l-1.581-.083-.114,0c-.046.068-.092.137-.14.2a4.821,4.821,0,0,1-1.454,1.172" transform="translate(-29.576 -180.672)" fill="#7e7f7f"/>
        <path id="Trazado_234817" data-name="Trazado 234817" d="M51.528,257.677a1.561,1.561,0,0,1,1.8.043,1.782,1.782,0,0,1,1.8-.772,1.741,1.741,0,0,1,1.363,1.386c-.048-.3-.374-.457-.665-.554a2.509,2.509,0,0,0-1.392-.148,1.016,1.016,0,0,0-.82.99,1.417,1.417,0,0,0-1.581-.7c-.688.184-.827.741-1.052,1.288a1.393,1.393,0,0,1,.547-1.536" transform="translate(-33.657 -180.293)" fill="#d1d3d4"/>
        <path id="Trazado_234818" data-name="Trazado 234818" d="M54.689,262.618s1.017-2.593,3.883-.462c0,0-2.357-1.3-3.883.462" transform="translate(-36.157 -183.236)" fill="#d1d3d4"/>
        <path id="Trazado_234819" data-name="Trazado 234819" d="M184.057,312.491a11.7,11.7,0,0,1,3.684,2.095l-5.094,6.1-1.559-.886Z" transform="translate(-119.725 -217.487)" fill="#58595b"/>
        <path id="Trazado_234820" data-name="Trazado 234820" d="M182.868,335.177a2.145,2.145,0,0,0-.686-.487,2.175,2.175,0,0,0-.772-.342,2.152,2.152,0,0,0,.686.486,2.179,2.179,0,0,0,.772.342" transform="translate(-119.938 -232.112)" fill="#231f20"/>
        <path id="Trazado_234821" data-name="Trazado 234821" d="M181.625,319.784a1.413,1.413,0,0,0-.366-.123l2.911-7.17a14.4,14.4,0,0,1,1.618.7,23.8,23.8,0,0,0-4.163,6.594" transform="translate(-119.838 -217.487)" fill="#484849"/>
        <path id="Trazado_234822" data-name="Trazado 234822" d="M149.469,336.651a1.806,1.806,0,0,0-1.856,1.828,1.17,1.17,0,0,0-1.279,1.048,3.481,3.481,0,0,0-1.265.085,1.137,1.137,0,0,0-.822.865,4.335,4.335,0,0,0-1.67-.62,1.466,1.466,0,0,0-1.489.761c-.161.392-.093.9-.425,1.173a1.647,1.647,0,0,1-.659.234,2.212,2.212,0,0,0-1.013.576.74.74,0,0,1-.335.243.621.621,0,0,1-.383-.081,6.925,6.925,0,0,0-2.052-.812,2.385,2.385,0,0,0-1.673.448,1.534,1.534,0,0,0-.668,1.527.986.986,0,0,0,1.394.625,2.094,2.094,0,0,0-.724,2.085,1.519,1.519,0,0,0,1.84,1.031,2.986,2.986,0,0,0,.456,2.564,3.142,3.142,0,0,0,2.339,1.251,1.456,1.456,0,0,0,1.387-.59,2.568,2.568,0,0,0,1.64,1.77,2.66,2.66,0,0,0,2.414-.38,2.116,2.116,0,0,0,2.445.159,3.058,3.058,0,0,0,1.354-2.116,1.711,1.711,0,0,0-.151-1.217,2.3,2.3,0,0,0-1.718-.77,1.493,1.493,0,0,0,.119-1.495,1.563,1.563,0,0,0-1.27-.844,2.073,2.073,0,0,0-.144-1.549,6.285,6.285,0,0,0-.916-1.314,1.945,1.945,0,0,1,1.362-.625.769.769,0,0,0,.376-.063c.361-.216.046-.905.413-1.112a.8.8,0,0,0,1.212-.038,1.63,1.63,0,0,0,.249-1.315.854.854,0,0,0,.758-1.165,1.046,1.046,0,0,1-.186-.431c0-.25.282-.4.53-.465s.537-.115.667-.331c.187-.313-.057-.823.257-1.017a1.3,1.3,0,0,1,.486-.078.616.616,0,0,0,.5-.671.741.741,0,0,0-1.187-.387c-.125.1-.716,1.188-.311,1.212" transform="translate(-88.492 -232.74)" fill="#939598"/>
        <path id="Trazado_234823" data-name="Trazado 234823" d="M133.881,358.588a.987.987,0,0,0,1.394.625,2.094,2.094,0,0,0-.724,2.085,1.519,1.519,0,0,0,1.84,1.031,2.987,2.987,0,0,0,.456,2.564,3.142,3.142,0,0,0,2.339,1.251,1.455,1.455,0,0,0,1.386-.591,2.567,2.567,0,0,0,1.64,1.771,2.66,2.66,0,0,0,2.414-.38,2.115,2.115,0,0,0,2.446.159,3.058,3.058,0,0,0,1.354-2.116,1.708,1.708,0,0,0-.151-1.217,2.305,2.305,0,0,0-1.718-.77,1.493,1.493,0,0,0,.12-1.495,1.563,1.563,0,0,0-1.27-.844,2.072,2.072,0,0,0-.144-1.549,4.07,4.07,0,0,0-.4-.656,1.65,1.65,0,0,1-.741.253,5.194,5.194,0,0,1,1.149,2.368,1.371,1.371,0,0,1-.162.888.763.763,0,0,1-.8.352,2.179,2.179,0,0,1-.255,1.993,2.3,2.3,0,0,1-1.814.95,1.485,1.485,0,0,1-.969-.292.834.834,0,0,1-.286-.907,2.281,2.281,0,0,1-2.727.024,2.147,2.147,0,0,1-.593-2.6,1.479,1.479,0,0,1-1.412-.826,1.414,1.414,0,0,1,.31-1.578c-1.149-.225-2.077-.758-2.167-1.9a1.476,1.476,0,0,0-.519,1.4" transform="translate(-88.492 -247.402)" fill="#7e7f7f"/>
        <path id="Trazado_234824" data-name="Trazado 234824" d="M146.211,359.588a1.546,1.546,0,0,1,.727-.36,1.466,1.466,0,0,1,.806-.021.632.632,0,0,1,.466.588,1.715,1.715,0,0,1,1.441-.935c.606-.009,1.4.205,1.309,1.009.054-.121-.088-.235-.212-.288a2.047,2.047,0,0,0-1.469-.1,1.21,1.21,0,0,0-.836,1.111,1.8,1.8,0,0,0-1.227-1.064,1.315,1.315,0,0,0-1.193.442.582.582,0,0,1,.189-.379" transform="translate(-96.542 -248.521)" fill="#d1d3d4"/>
        <path id="Trazado_234825" data-name="Trazado 234825" d="M149.566,364.308s.765-1.622,2.663-.215c0,0-1.677-.962-2.663.215" transform="translate(-98.885 -251.64)" fill="#d1d3d4"/>
        <path id="Trazado_234826" data-name="Trazado 234826" d="M372.659,4.478a8.561,8.561,0,0,0-4.377.318,1.033,1.033,0,0,0-.588.294,2.471,2.471,0,0,0-.209.475,1.457,1.457,0,0,1-1.541.558A4.526,4.526,0,0,0,364.2,6c-.481.129-.875.5-1.366.585-.592.106-1.2-.219-1.791-.111A5.13,5.13,0,0,0,359.9,7c-1.533.7-3.26-.318-4.925-.609a.836.836,0,0,0-.825.179c-.335.449.382.93.938,1.049a16.148,16.148,0,0,0,5.372.534,7.891,7.891,0,0,1,3.185-.177c.283.083.55.213.836.28a3.95,3.95,0,0,0,1.623-.079l3.393-.643a9.687,9.687,0,0,1,4.415-.146c1.8.512,3.847-.617,3.026-2.8-1.053-2.8-3.047.236-4.282-.114" transform="translate(-233.71 2.22)" fill="#939598"/>
        <path id="Trazado_234829" data-name="Trazado 234829" d="M66.276,12.437A2.6,2.6,0,0,1,64.94,13l-1.744.383a9.7,9.7,0,0,1-4.947.213,2.084,2.084,0,0,0-1.008-.177c-.525.1-.919.688-1.447.6a2.506,2.506,0,0,1-.681-.344c-.8-.4-1.8.166-2.662-.087a9.414,9.414,0,0,1-.914-.43,4.171,4.171,0,0,0-1.44-.229l-4.246-.17a2.019,2.019,0,0,0-1.384.282c-.235.194-.368.491-.617.669-.875.626-2.022-.679-3.088-.479-.662.124-1.2.825-1.855.678-.395-.089-.691-.475-1.1-.482s-.739.384-1.15.391c-.6.011-.871-.731-1.353-1.083a2.506,2.506,0,0,0-1.905-.152,26.711,26.711,0,0,1-5.4.386,2.87,2.87,0,0,1-2.505-1,.983.983,0,0,1-.144-.461c0-.009,0-.016,0-.024,2.079.308,4.232.973,6.214.039a3.954,3.954,0,0,1,1.123-.48c.653-.084,1.283.369,1.937.3.638-.072,1.208-.635,1.829-.479.718.18,1,1.222,1.744,1.26.8.041,1.244-1.139,2.039-1.076a1.931,1.931,0,0,1,.771.35,2.876,2.876,0,0,0,2.428.188c.593-.229,1.309-.642,1.788-.231.178.152.264.39.451.531.665.5,1.477-.64,2.315-.591a3.264,3.264,0,0,1,1.1.5,3.516,3.516,0,0,0,1.146.247l4.158.418a2.638,2.638,0,0,0,.858-.008,4.857,4.857,0,0,1,.946-.276,1.93,1.93,0,0,1,.821.254,9.511,9.511,0,0,0,6.49.3A7.366,7.366,0,0,0,66.3,11.373l.048-.04a.289.289,0,0,1,.025.021.932.932,0,0,1-.095,1.082" transform="translate(-25.358 10.383)" fill="#7e7f7f"/>
        <path id="Trazado_234830" data-name="Trazado 234830" d="M286.909,106.686a1.235,1.235,0,0,0-.866,1.5c-.288.194-.6-.2-.886-.389a.836.836,0,0,0-1.22.531c-.561-.219-1.293-.4-1.7.035-.172.188-.249.466-.475.589-.337.184-.813-.083-1.124.14a1.237,1.237,0,0,0-.3.472c-.088.166-.266.326-.449.27a.755.755,0,0,1-.261-.212.772.772,0,0,0-1.114.126c-.107.161-.153.372-.316.479-.293.192-.659-.09-1-.17-.693-.161-1.479.531-2.074.148-.2-.129-.369-.375-.606-.336a1.321,1.321,0,0,0-.275.124c-.364.152-.782-.155-1.167-.065a.67.67,0,0,0-.415.888,1.02,1.02,0,0,0,.9.568,2.052,2.052,0,0,0,1.075-.3.945.945,0,0,0,1.092.687c.392-.088.734-.426,1.129-.357a2.391,2.391,0,0,1,.454.185,1.141,1.141,0,0,0,1.183-.226c.137.39.7.44,1.09.284a4.9,4.9,0,0,1,1.153-.493c.4-.049.829.128,1.2-.021a1.377,1.377,0,0,1,.441-.172c.241-.008.414.214.626.326.514.271,1.124-.143,1.506-.574a.682.682,0,0,1,1.072-.128,1.9,1.9,0,0,0,1.467.3,1.6,1.6,0,0,1,.581-.184,1.421,1.421,0,0,1,.4.128,1.2,1.2,0,0,0,1.391-.491,1.385,1.385,0,0,0,1.553.143,3.315,3.315,0,0,0,1.166-1.141,1.564,1.564,0,0,0,.323-.7c.075-.672-.6-.75-1.049-.46-.4.261-.708,1.153-1.2,1.208a.511.511,0,0,1-.436-.213,1.825,1.825,0,0,1-.225-.444c-.379-.908-1.461-2.385-2.646-2.06" transform="translate(-180.238 -79.711)" fill="#939598"/>
        <path id="Trazado_234831" data-name="Trazado 234831" d="M290.984,114.926a1.385,1.385,0,0,1-1.553-.143,1.194,1.194,0,0,1-1.391.491,1.431,1.431,0,0,0-.4-.128,1.6,1.6,0,0,0-.581.184,1.9,1.9,0,0,1-1.467-.3.682.682,0,0,0-1.072.128c-.382.431-.992.845-1.506.574-.212-.112-.385-.334-.626-.326a1.381,1.381,0,0,0-.441.172c-.375.149-.8-.028-1.2.021a4.9,4.9,0,0,0-1.153.493c-.391.156-.953.105-1.09-.284a1.141,1.141,0,0,1-1.183.226,2.384,2.384,0,0,0-.454-.185c-.4-.069-.738.269-1.129.357a.945.945,0,0,1-1.092-.687,2.052,2.052,0,0,1-1.075.3,1.02,1.02,0,0,1-.9-.568.641.641,0,0,1-.044-.245c.071.029.142.059.214.084a1.778,1.778,0,0,0,1.664-.282,3.105,3.105,0,0,0,1.918.653,11.69,11.69,0,0,0,1.916-.121l2.031-.241a4.432,4.432,0,0,1,.839-.046.415.415,0,0,0,.2-.015c.186-.081.147-.4.331-.479.23-.1.462.283.7.2.109-.04.16-.164.257-.228.292-.2.666.274,1,.169.218-.068.293-.339.485-.462.263-.167.6,0,.882.142s.688.215.851-.047c.047-.076.064-.173.133-.233.151-.133.386.022.508.182s.289.355.484.3c.255-.078.2-.481.414-.64.368-.275.881.487,1.277.252.162-.1.2-.318.341-.439a.584.584,0,0,1,.712.082c.2.162.342.388.555.533.976.669,1.363-.616,2.1-1.1a2.006,2.006,0,0,1-.284.519,3.317,3.317,0,0,1-1.166,1.14" transform="translate(-180.242 -84.147)" fill="#7e7f7f"/>
        <path id="Trazado_234832" data-name="Trazado 234832" d="M286.6,213.813a8.791,8.791,0,0,0-6.935,6.148,5.064,5.064,0,0,1-.763,1.984c-1.3,1.567-3.978.436-5.9,1.183a15.691,15.691,0,0,1-2.231,1.091c-1.5.322-2.825-.911-4.237-1.5a5.446,5.446,0,0,0-7.165,3.815l-6.415-1.226a3.976,3.976,0,0,0-1.219-.1c-1.165.142-1.917,1.225-2.635,2.131-1.5,1.89-3.927,3.5-6.268,2.8a22.221,22.221,0,0,1-2.188-1,6.138,6.138,0,0,0-5.224.271,2.156,2.156,0,0,0,.026,3.625c1.509.8,3.583-.326,5.031.577.792.494,1.2,1.5,2.083,1.816,1.5.531,2.852-1.313,4.449-1.368,1.321-.046,2.423,1.145,3.746,1.146.948,0,1.839-.618,2.779-.5a6.015,6.015,0,0,1,1.7.723,4.587,4.587,0,0,0,4.985-.826,2.307,2.307,0,0,1,1.088-.782,1.932,1.932,0,0,1,.911.143c1.705.55,3.676.9,5.219,0a8.614,8.614,0,0,1,2.194-1.332c1.664-.383,3.428,1.39,4.959.646.675-.328,1.085-1.084,1.805-1.3,1.457-.44,2.577,1.565,4.1,1.648s2.712-1.77,4.194-1.447a5.412,5.412,0,0,1,1.317.664,7.114,7.114,0,0,0,3.043.591c2.731.123,5.66.2,7.966-1.237a6.315,6.315,0,0,0,2.993-5.418,5.841,5.841,0,0,0-3.458-5.084,2.727,2.727,0,0,1-1.32-.811c-.614-.942.286-2.174,0-3.193a5,5,0,0,0-2.084-2.322,9.018,9.018,0,0,0-6.547-1.548" transform="translate(-155.004 -151.37)" fill="#939598"/>
        <path id="Trazado_234833" data-name="Trazado 234833" d="M235.452,239.059c1.509.8,3.583-.326,5.031.577.792.494,1.2,1.5,2.083,1.816,1.5.531,2.852-1.313,4.449-1.369,1.321-.046,2.423,1.145,3.746,1.147.948,0,1.839-.618,2.779-.5a6.008,6.008,0,0,1,1.7.723,4.588,4.588,0,0,0,4.985-.827,2.3,2.3,0,0,1,1.088-.782,1.924,1.924,0,0,1,.911.143c1.706.55,3.676.9,5.219,0a8.637,8.637,0,0,1,2.195-1.332c1.664-.383,3.428,1.39,4.959.646.675-.328,1.085-1.083,1.805-1.3,1.457-.44,2.577,1.565,4.1,1.648s2.712-1.769,4.194-1.447a5.425,5.425,0,0,1,1.317.664,7.12,7.12,0,0,0,3.043.591c2.732.123,5.66.2,7.966-1.237a6.314,6.314,0,0,0,2.993-5.418,5.84,5.84,0,0,0-3.458-5.084,2.729,2.729,0,0,1-1.32-.812c-.614-.942.286-2.174,0-3.193a2.733,2.733,0,0,0-.558-1,3.349,3.349,0,0,1-.223.773c-.347.807-1,1.573-.868,2.438a2.781,2.781,0,0,0,.634,1.2c1.333,1.732,2.9,3.541,2.917,5.706.024,2.528-2.262,4.693-4.8,5.192a10.428,10.428,0,0,1-7.367-1.738,3.052,3.052,0,0,0-1.672-.659,3.907,3.907,0,0,0-1.439.549,5.018,5.018,0,0,1-5.312-.722,3.2,3.2,0,0,1-3.529.874,3.707,3.707,0,0,0-.983-.349,2.65,2.65,0,0,0-1.356.406,10.146,10.146,0,0,1-6.675.72,3.813,3.813,0,0,0-2.092-.169,4.662,4.662,0,0,0-1.481,1.188,4.878,4.878,0,0,1-5.087.861c-.926-.4-1.848-1.107-2.83-.868-.953.231-1.475,1.263-2.366,1.664-2.013.907-3.961-1.793-6.178-1.763a8.029,8.029,0,0,0-2.6.815,2.6,2.6,0,0,1-2.6-.165c-.354-.317-.543-.79-.932-1.066-.9-.641-2.481.031-3.126-.859a1.013,1.013,0,0,1-.135-.269,2.148,2.148,0,0,0,.875,2.581" transform="translate(-155.006 -157.399)" fill="#7e7f7f"/>
        <path id="Trazado_234834" data-name="Trazado 234834" d="M251.859,230.807c1.835-.916,3.172-2.665,5.107-3.361,2.376-.854,4.994.084,7.34,1.013a6.712,6.712,0,0,1,4.834-3.748,6.85,6.85,0,0,1,5.9,1.773,5.514,5.514,0,0,1,1.883-1.665,1.936,1.936,0,0,1,2.318.437c.843-1.277,2.838-1.322,4.191-.573a1.145,1.145,0,0,0,.574.206c.383-.015.6-.416.762-.756a13.836,13.836,0,0,1,6.664-6.858,10.828,10.828,0,0,1,9.2.042,5.879,5.879,0,0,0-1.943-1.954,9.019,9.019,0,0,0-6.547-1.548,8.791,8.791,0,0,0-6.935,6.148,5.064,5.064,0,0,1-.763,1.984c-1.3,1.568-3.978.436-5.9,1.183a15.659,15.659,0,0,1-2.231,1.091c-1.5.323-2.825-.911-4.236-1.5a5.447,5.447,0,0,0-7.166,3.815L258.5,225.3a3.973,3.973,0,0,0-1.219-.1c-1.165.142-1.917,1.224-2.635,2.131-1.5,1.89-3.927,3.5-6.268,2.8a22.215,22.215,0,0,1-2.188-1,6.115,6.115,0,0,0-3.358-.369,18.619,18.619,0,0,1,2.493,1.656,6.709,6.709,0,0,0,6.53.384" transform="translate(-160.55 -151.37)" fill="#d1d3d4"/>
        <path id="Trazado_234836" data-name="Trazado 234836" d="M164.2,62.635c0-.062,0-.123,0-.184a47.132,47.132,0,0,0-17.35,11.87,13.049,13.049,0,0,0,4.547.814,12.657,12.657,0,0,0,12.808-12.5" transform="translate(-97.085 -50.135)" fill="#2ca5a5"/>
        <path id="Trazado_234837" data-name="Trazado 234837" d="M145.845,36.619A11.694,11.694,0,1,1,134.155,25.21a11.552,11.552,0,0,1,11.691,11.409" transform="translate(-80.966 -25.21)" fill="#d4dec4"/>
        <g id="Grupo_597773" data-name="Grupo 597773" transform="translate(43.993 5.617)" style="mix-blend-mode: multiply;isolation: isolate">
          <g id="Grupo_597772" data-name="Grupo 597772">
            <g id="Grupo_597771" data-name="Grupo 597771" clip-path="url(#clip-path-2)">
              <path id="Trazado_234838" data-name="Trazado 234838" d="M139.023,59.4a11.552,11.552,0,0,0,11.691-11.409,11.146,11.146,0,0,0-1.62-5.793,22.726,22.726,0,0,1-1.664,5.839,12.9,12.9,0,0,1-7.013,6.96,14.3,14.3,0,0,1-2.876.679,16.566,16.566,0,0,1-6.44-.224,10.426,10.426,0,0,1-1.274-.42,11.772,11.772,0,0,0,9.2,4.368" transform="translate(-129.828 -42.194)" fill="#d4dec4"/>
            </g>
          </g>
        </g>
        <path id="Trazado_234839" data-name="Trazado 234839" d="M155.073,47.293a3.959,3.959,0,0,0-1.715,2.409,4.411,4.411,0,0,1,3.654-.822" transform="translate(-101.392 -39.99)" fill="none" stroke="#000" stroke-linecap="round" stroke-linejoin="round" stroke-width="1"/>
        <path id="Trazado_234840" data-name="Trazado 234840" d="M128.935,56.032a4.124,4.124,0,0,1,2.871.868,4.373,4.373,0,0,0-3.4,1.548" transform="translate(-84.896 -45.807)" fill="none" stroke="#000" stroke-linecap="round" stroke-linejoin="round" stroke-width="1"/>
        <path id="Trazado_234841" data-name="Trazado 234841" d="M144.87,61.729l.819.605a1.58,1.58,0,0,1,.454.441.951.951,0,0,1-.17,1.086A1.858,1.858,0,0,1,143,63.324a1.756,1.756,0,0,1,.315-1.359c.414-.719.9-.72,1.556-.235" transform="translate(-94.512 -49.426)"/>
        <path id="Trazado_234842" data-name="Trazado 234842" d="M130.382,65.3a.815.815,0,0,0-.193-.02c-.131,0-1.015.488-.752.617a1.4,1.4,0,0,0-1.382.153,1.971,1.971,0,0,0-.744,1.193.561.561,0,0,0,.03.422.571.571,0,0,0,.3.2,2.181,2.181,0,0,0,1.1.1c-.5.182-.984.65-.851,1.154a1.209,1.209,0,0,0,.959.718,1.659,1.659,0,0,0,.865.023.742.742,0,0,0,.55-.6c-.1.065.049.2.168.212A1.881,1.881,0,0,0,131.6,69.3a1,1,0,0,0,.534-.972.712.712,0,0,0-.836-.578,1.083,1.083,0,0,0,1.07-.383.678.678,0,0,0-.364-.9,1.1,1.1,0,0,0-1.045.16,1.127,1.127,0,0,0,.07-.872.94.94,0,0,0-.648-.459" transform="translate(-84.154 -52.03)" fill="#939598"/>
        <g id="Grupo_597776" data-name="Grupo 597776" transform="translate(45.251 2.427)" style="mix-blend-mode: multiply;isolation: isolate">
          <g id="Grupo_597775" data-name="Grupo 597775">
            <g id="Grupo_597774" data-name="Grupo 597774" clip-path="url(#clip-path-3)">
              <path id="Trazado_234843" data-name="Trazado 234843" d="M135.7,34.542c-.873.577-1.805.721-2.082.322s.207-1.19,1.08-1.766,1.805-.721,2.082-.322-.207,1.19-1.08,1.766" transform="translate(-133.541 -32.55)" fill="#d4dec4"/>
            </g>
          </g>
        </g>
        <g id="Grupo_597779" data-name="Grupo 597779" transform="translate(59.398 15.34)" style="mix-blend-mode: multiply;isolation: isolate">
          <g id="Grupo_597778" data-name="Grupo 597778">
            <g id="Grupo_597777" data-name="Grupo 597777" clip-path="url(#clip-path-3)">
              <path id="Trazado_234844" data-name="Trazado 234844" d="M177.451,73.589c-.873.576-1.805.721-2.082.322s.207-1.19,1.08-1.766,1.805-.721,2.082-.322-.207,1.19-1.08,1.766" transform="translate(-175.291 -71.597)" fill="#d4dec4"/>
            </g>
          </g>
        </g>
        <g id="Grupo_597782" data-name="Grupo 597782" transform="translate(48.743 2.443)" style="mix-blend-mode: multiply;isolation: isolate">
          <g id="Grupo_597781" data-name="Grupo 597781">
            <g id="Grupo_597780" data-name="Grupo 597780" clip-path="url(#clip-path-5)">
              <path id="Trazado_234845" data-name="Trazado 234845" d="M145.144,33.8c-.525.347-1.085.433-1.251.193s.124-.715.649-1.062,1.085-.433,1.251-.193-.124.715-.649,1.062" transform="translate(-143.846 -32.598)" fill="#d4dec4"/>
            </g>
          </g>
        </g>
        <g id="Grupo_597785" data-name="Grupo 597785" transform="translate(56.96 16.61)" style="mix-blend-mode: multiply;isolation: isolate">
          <g id="Grupo_597784" data-name="Grupo 597784">
            <g id="Grupo_597783" data-name="Grupo 597783" clip-path="url(#clip-path-5)">
              <path id="Trazado_234846" data-name="Trazado 234846" d="M169.394,76.634c-.525.347-1.085.433-1.251.193s.124-.715.649-1.062,1.085-.433,1.251-.193-.124.715-.649,1.062" transform="translate(-168.096 -75.437)" fill="#d4dec4"/>
            </g>
          </g>
        </g>
        <g id="Grupo_597788" data-name="Grupo 597788" transform="translate(46.446 4.769)" style="mix-blend-mode: multiply;isolation: isolate">
          <g id="Grupo_597787" data-name="Grupo 597787">
            <g id="Grupo_597786" data-name="Grupo 597786" clip-path="url(#clip-path-5)">
              <path id="Trazado_234847" data-name="Trazado 234847" d="M138.365,40.828c-.525.347-1.085.433-1.251.193s.125-.715.649-1.062,1.085-.433,1.251-.193-.124.715-.649,1.062" transform="translate(-137.067 -39.631)" fill="#d4dec4"/>
            </g>
          </g>
        </g>
        <g id="Grupo_597791" data-name="Grupo 597791" transform="translate(60.636 13.454)" style="mix-blend-mode: multiply;isolation: isolate">
          <g id="Grupo_597790" data-name="Grupo 597790">
            <g id="Grupo_597789" data-name="Grupo 597789" clip-path="url(#clip-path-5)">
              <path id="Trazado_234848" data-name="Trazado 234848" d="M180.24,67.092c-.525.347-1.085.433-1.251.193s.125-.715.649-1.062,1.085-.433,1.251-.193-.124.715-.649,1.062" transform="translate(-178.942 -65.895)" fill="#d4dec4"/>
            </g>
          </g>
        </g>
      </g>
    </g>
  </g>
</svg>
