<svg xmlns="http://www.w3.org/2000/svg" xmlns:xlink="http://www.w3.org/1999/xlink" width="118" height="118" viewBox="0 0 118 118">
  <defs>
    <clipPath id="clip-path">
      <circle id="Elipse_7381" data-name="Elipse 7381" cx="52.262" cy="52.262" r="52.262" transform="translate(0 0)" fill="none" stroke="#707070" stroke-width="1"/>
    </clipPath>
  </defs>
  <g id="Grupo_877463" data-name="Grupo 877463" transform="translate(2634 7632)">
    <g id="Elipse_7429" data-name="Elipse 7429" transform="translate(-2634 -7632)" fill="#f4f4f4" stroke="#fff" stroke-width="4">
      <circle cx="59" cy="59" r="59" stroke="none"/>
      <circle cx="59" cy="59" r="57" fill="none"/>
    </g>
    <g id="Grupo_877036" data-name="Grupo 877036" transform="translate(-3234.832 -11405.832)">
      <g id="Enmascarar_grupo_700350" data-name="Enmascarar grupo 700350" transform="translate(606.832 3780.833)" clip-path="url(#clip-path)">
        <g id="Grupo_877040" data-name="Grupo 877040" transform="translate(872.703 543.016)">
          <path id="Trazado_238352" data-name="Trazado 238352" d="M-834.255-295.693q-9.186.027-18.372.058c-.748,0-1.127-.284-1.084-1.075a21.01,21.01,0,0,1,.126-2.965c.544-2.7,2.626-3.645,5.031-4.148,1.612.994,3.228,1.981,4.833,2.987a1.522,1.522,0,0,0,1.7-.011c.9-.509,1.805-.993,2.709-1.488,2.407.577,4.561,1.459,4.947,4.325C-834.262-297.246-834.288-296.465-834.255-295.693Z" transform="translate(0 -163.076)" fill="#fc4a58"/>
          <path id="Trazado_238353" data-name="Trazado 238353" d="M-662.034-291.262c-6.151.012-12.3.012-18.454.048-.894.005-1.209-.323-1.221-1.208-.028-2.011-.006-3.982,1.625-5.491l1.757-1.041,1.786-.4c1.581.961,3.166,1.915,4.741,2.886a1.592,1.592,0,0,0,1.818.078q1.416-.889,2.827-1.785a1.248,1.248,0,0,1,.2.019C-663.44-297.2-661.862-294.853-662.034-291.262Z" transform="translate(-127.421 -166.386)" fill="#23a6fd"/>
          <path id="Trazado_238354" data-name="Trazado 238354" d="M-754.743-434.693c-2.744-.024-5.489-.1-8.232-.047-1.147.021-1.477-.4-1.487-1.492-.039-4.105,1.744-6.335,5.373-6.6.78.511,1.536,1.065,2.344,1.527,3.6,2.059,2.634,2.288,6.441-.017l.3.029c2.025.379,3.883.989,4.693,3.181a11.2,11.2,0,0,1,.217,3.286l-7.5.111A6.438,6.438,0,0,0-754.743-434.693Z" transform="translate(-66.119 -60.094)" fill="#fcb441"/>
          <path id="Trazado_238355" data-name="Trazado 238355" d="M-748.016-486.054a9.392,9.392,0,0,1-4.681-9.629,2.861,2.861,0,0,0,2.829-1.177,2.039,2.039,0,0,1,2.427-.646,6.491,6.491,0,0,0,4.907.054,2.318,2.318,0,0,1,2.712.548l.276.494a9.357,9.357,0,0,1-7.787,10.372Z" transform="translate(-74.786 -19.466)" fill="#fde4c0"/>
          <path id="Trazado_238356" data-name="Trazado 238356" d="M-837.044-346.5a10.654,10.654,0,0,1-4.431-5.665,15.029,15.029,0,0,1-.187-3.974,3.322,3.322,0,0,0,2.52-1.143,2.48,2.48,0,0,1,3.022-.727,6.189,6.189,0,0,0,4.308.015,2.553,2.553,0,0,1,3.054.643q.021.1.032.209c-.005.343-.037.687-.011,1.028.268,3.5-1.291,6.075-4.036,8.073a13.432,13.432,0,0,1-3.743,1.534Z" transform="translate(-8.899 -122.764)" fill="#fde4c0"/>
          <path id="Trazado_238357" data-name="Trazado 238357" d="M-665.072-342.361c-2.227-1.549-4-3.421-4.556-6.208a17.563,17.563,0,0,1-.1-3.44,3.221,3.221,0,0,0,2.631-1.143c.452-.466.959-1.112,1.622-.894a12.521,12.521,0,0,0,7.207-.013,1.775,1.775,0,0,1,.636.086l.306.441c0,.949-.041,1.9.007,2.845a8.187,8.187,0,0,1-1.8,5.367c-1.169,1.62-2.862,2.41-4.43,3.432C-664.127-341.82-664.571-342.182-665.072-342.361Z" transform="translate(-136.275 -125.835)" fill="#fde4c0"/>
          <path id="Trazado_238358" data-name="Trazado 238358" d="M-745.221-362.431a6.823,6.823,0,0,1-2.77-1.191l-1.519-1.481a7.684,7.684,0,0,1,.418-9.477,7.586,7.586,0,0,1,4.18-2.412l.271.05c.365.215.728.434,1.1.645a5.729,5.729,0,0,1,3.02,3.474,1.294,1.294,0,0,0-1.693.464c-.5.65-1.082,1.233-1.548,1.9-.625.9-1.2,1.4-2.181.373a.88.88,0,0,0-1.369.148.956.956,0,0,0,.168,1.386c.438.413.93.769,1.361,1.188a1.278,1.278,0,0,0,2.173-.133c1.115-1.362,2.265-2.7,3.4-4.041.946,1.481.438,2.96-.056,4.409C-741.094-364.709-743.05-363.447-745.221-362.431Z" transform="translate(-76.139 -108.87)" fill="#81d262"/>
          <path id="Trazado_238359" data-name="Trazado 238359" d="M-828.674-376.963a2.553,2.553,0,0,0-3.054-.643,6.188,6.188,0,0,1-4.308-.015,2.48,2.48,0,0,0-3.022.727,3.322,3.322,0,0,1-2.52,1.143c-.185-4.637,2.518-8.152,6.816-8.873a5.957,5.957,0,0,1,3.252.384,1.085,1.085,0,0,0,.389.774A9.061,9.061,0,0,1-828.674-376.963Z" transform="translate(-8.984 -103.156)" fill="#6e81aa"/>
          <path id="Trazado_238360" data-name="Trazado 238360" d="M-739.627-516.369a2.317,2.317,0,0,0-2.712-.548,6.491,6.491,0,0,1-4.907-.054,2.039,2.039,0,0,0-2.427.646,2.861,2.861,0,0,1-2.829,1.177c.193-3.585,1.414-6.562,4.913-8.139a6.534,6.534,0,0,1,5.144-.244,4.412,4.412,0,0,0,.478.74A8.113,8.113,0,0,1-739.627-516.369Z" transform="translate(-74.981)" fill="#6e81aa"/>
          <path id="Trazado_238361" data-name="Trazado 238361" d="M-657.538-373.234a1.771,1.771,0,0,0-.637-.087,12.521,12.521,0,0,1-7.207.013c-.664-.217-1.17.429-1.622.894a3.221,3.221,0,0,1-2.631,1.143c0-4.917,2.938-8.508,7.211-8.818a1.506,1.506,0,0,1,.255.024c.357.226.723.44,1.07.68A7.322,7.322,0,0,1-657.538-373.234Z" transform="translate(-136.371 -106.575)" fill="#6e81aa"/>
          <path id="Trazado_238362" data-name="Trazado 238362" d="M-728.881-362.6c2.172-1.016,4.127-2.278,4.95-4.695.494-1.449,1-2.928.056-4.409a1.732,1.732,0,0,0-.311-1.286,5.729,5.729,0,0,0-3.02-3.474c-.367-.212-.731-.43-1.1-.645a7.9,7.9,0,0,1,2.049-.08c5.623,1.274,7.829,6.547,4.9,11.718l-1.612,1.683A7.008,7.008,0,0,1-728.881-362.6Z" transform="translate(-92.479 -108.698)" fill="#52c226"/>
          <path id="Trazado_238363" data-name="Trazado 238363" d="M-645.788-340.294c1.568-1.021,3.261-1.812,4.43-3.432a8.187,8.187,0,0,0,1.8-5.367c-.047-.946-.007-1.9-.007-2.845.916.745,1.765,1.624,3.092,1.549a9.156,9.156,0,0,1-4.123,9.256,2.242,2.242,0,0,0-.433.627c-.532-.136-.978.175-1.464.283A5.021,5.021,0,0,1-645.788-340.294Z" transform="translate(-154.037 -127.43)" fill="#fcd1a3"/>
          <path id="Trazado_238364" data-name="Trazado 238364" d="M-731.807-482.429A9.358,9.358,0,0,0-724.02-492.8a3.063,3.063,0,0,0,2.483.742,9.314,9.314,0,0,1-4.033,9.251,4.944,4.944,0,0,0-.619.641,25.7,25.7,0,0,1-2.573.631C-729.885-481.373-731.034-481.316-731.807-482.429Z" transform="translate(-90.312 -23.074)" fill="#fcd1a3"/>
          <path id="Trazado_238365" data-name="Trazado 238365" d="M-821.7-343.4a13.431,13.431,0,0,0,3.743-1.534c2.745-2,4.3-4.574,4.036-8.073-.026-.34.006-.685.011-1.028a4.06,4.06,0,0,0,2.527,1.012c.581,4.242-1.277,7.309-4.649,9.645-.318.113-.633.236-.955.337C-818.6-342.531-820.206-342.225-821.7-343.4Z" transform="translate(-23.719 -125.879)" fill="#fcd1a3"/>
          <path id="Trazado_238366" data-name="Trazado 238366" d="M-703.775-434.848a11.2,11.2,0,0,0-.217-3.286c-.809-2.192-2.667-2.8-4.693-3.181.491-.774,1.522-.83,2.057-1.546a5.273,5.273,0,0,1,5.294,5.34c.007.171,0,.343.006.515C-701.3-434.6-701.356-434.553-703.775-434.848Z" transform="translate(-107.441 -60.071)" fill="#fd9b06"/>
          <path id="Trazado_238367" data-name="Trazado 238367" d="M-793.087-295.693c-.033-.773-.007-1.553-.11-2.316-.386-2.866-2.54-3.748-4.947-4.325a1.876,1.876,0,0,0,.089-.235,8.045,8.045,0,0,0,2.127-1.253,8.966,8.966,0,0,1,3.307,1.3l1.327,1.512a9.876,9.876,0,0,1,.366,4.983l-.324.272A3.737,3.737,0,0,1-793.087-295.693Z" transform="translate(-41.168 -163.075)" fill="#e4222f"/>
          <path id="Trazado_238368" data-name="Trazado 238368" d="M-632.8-371.205c-1.327.075-2.175-.8-3.092-1.549l-.306-.441a7.322,7.322,0,0,0-3.56-6.149c-.347-.24-.713-.454-1.07-.68,4.227-.235,7.741,3.114,8.033,7.663C-632.768-371.978-632.794-371.591-632.8-371.205Z" transform="translate(-157.714 -106.613)" fill="#4e6b9d"/>
          <path id="Trazado_238369" data-name="Trazado 238369" d="M-706.043-330.209l1.612-1.683c.053.583.534.866.886,1.229,2.432,2.5,4.981,4.894,7.195,7.6l-1.757,1.041C-700.778-324.723-703.208-327.662-706.043-330.209Z" transform="translate(-109.398 -142.281)" fill="#cfc1bc"/>
          <path id="Trazado_238370" data-name="Trazado 238370" d="M-775.507-321.233l-1.327-1.512,8.139-8.376,1.519,1.481c-2.611,2.309-4.749,5.079-7.28,7.466C-774.8-321.852-775.156-321.547-775.507-321.233Z" transform="translate(-56.954 -142.852)" fill="#cfc1bc"/>
          <path id="Trazado_238371" data-name="Trazado 238371" d="M-619.843-291.475c.172-3.591-1.406-5.933-4.921-6.894l1.917-1.272a8.507,8.507,0,0,1,3.279,1.415c1.526,1.165,2.546,4.8,1.712,6.359C-618.292-291.05-619.163-291.541-619.843-291.475Z" transform="translate(-169.612 -166.173)" fill="#0483fb"/>
          <path id="Trazado_238372" data-name="Trazado 238372" d="M-725.37-402.824a7.9,7.9,0,0,0-2.05.08l-.27-.05c.01-2.343.009-4.686.036-7.028.007-.633.1-1.266.153-1.9a6.445,6.445,0,0,1,2.149-.021Z" transform="translate(-93.362 -83.067)" fill="#cfc1bc"/>
          <path id="Trazado_238373" data-name="Trazado 238373" d="M-727.387-450.257c-.534.716-1.566.772-2.057,1.546l-.3-.029c-.6-.95-1.314-1.537-2.544-1.038a1.963,1.963,0,0,1-1.272,0c-1.1-.382-2.572-.045-3.15-1.516a4.338,4.338,0,0,0,.587-1.555l.683.017c.773,1.113,1.922,1.056,3.044.893a25.717,25.717,0,0,0,2.573-.631C-729.554-451.222-728.47-450.741-727.387-450.257Z" transform="translate(-86.682 -52.675)" fill="#febc86"/>
          <path id="Trazado_238374" data-name="Trazado 238374" d="M-817.046-310.621a8.044,8.044,0,0,1-2.127,1.253c-.247-.05-.6-.014-.723-.165-.735-.9-1.578-.842-2.641-.661a4.348,4.348,0,0,1-4.113-1.234l.757-1.564.528-.008c1.49,1.173,3.1.866,4.713.359.322-.1.636-.224.955-.337A3.263,3.263,0,0,0-817.046-310.621Z" transform="translate(-20.048 -156.277)" fill="#febc86"/>
          <path id="Trazado_238375" data-name="Trazado 238375" d="M-644.471-306.451l-1.917,1.272a1.281,1.281,0,0,0-.2-.019,2.587,2.587,0,0,0-2.908-.7,4.115,4.115,0,0,1-4.455-1.46l.594-1.477c.5.179.945.541,1.522.472a5.021,5.021,0,0,0,3.293.07c.486-.108.932-.419,1.464-.282A2.97,2.97,0,0,0-644.471-306.451Z" transform="translate(-147.988 -159.363)" fill="#febc86"/>
          <path id="Trazado_238376" data-name="Trazado 238376" d="M-797.308-374.418a4.061,4.061,0,0,1-2.527-1.012q-.011-.105-.032-.209a9.061,9.061,0,0,0-2.446-6.5,1.085,1.085,0,0,1-.389-.774C-799.278-381.815-797.168-378.492-797.308-374.418Z" transform="translate(-37.79 -104.481)" fill="#4e6b9d"/>
          <path id="Trazado_238377" data-name="Trazado 238377" d="M-708.12-513.944a3.063,3.063,0,0,1-2.483-.742l-.276-.494a8.113,8.113,0,0,0-2.339-6.423,4.419,4.419,0,0,1-.478-.74C-710.227-521.216-708.336-518.368-708.12-513.944Z" transform="translate(-103.729 -1.189)" fill="#4e6b9d"/>
          <path id="Trazado_238378" data-name="Trazado 238378" d="M-659.734-303.136a4.115,4.115,0,0,0,4.455,1.46,2.586,2.586,0,0,1,2.908.7q-1.413.893-2.827,1.785a1.592,1.592,0,0,1-1.818-.078c-1.575-.971-3.16-1.925-4.741-2.886C-661.091-302.5-660.269-302.522-659.734-303.136Z" transform="translate(-142.208 -163.584)" fill="#fcd1a3"/>
          <path id="Trazado_238379" data-name="Trazado 238379" d="M-831.949-306.934a4.348,4.348,0,0,0,4.113,1.234c1.064-.181,1.906-.236,2.641.661.124.151.476.115.723.165a1.885,1.885,0,0,1-.089.235c-.9.495-1.814.979-2.709,1.488a1.522,1.522,0,0,1-1.7.011c-1.6-1.006-3.221-1.992-4.833-2.987C-833.217-306.471-832.468-306.439-831.949-306.934Z" transform="translate(-14.751 -160.77)" fill="#fcd1a3"/>
          <path id="Trazado_238380" data-name="Trazado 238380" d="M-741.908-446.846c.578,1.471,2.047,1.134,3.15,1.516a1.963,1.963,0,0,0,1.272,0c1.229-.5,1.944.089,2.544,1.038-3.807,2.3-2.838,2.075-6.441.017-.808-.462-1.564-1.015-2.344-1.526Z" transform="translate(-81.48 -57.119)" fill="#fcd1a3"/>
          <path id="Trazado_238381" data-name="Trazado 238381" d="M-771.551-273.472l.324-.272Z" transform="translate(-60.868 -185.358)" fill="#fc4a58"/>
          <path id="Trazado_238382" data-name="Trazado 238382" d="M-730.83-361.3a1.732,1.732,0,0,1,.311,1.286c-1.135,1.346-2.285,2.679-3.4,4.041a1.278,1.278,0,0,1-2.173.133c-.431-.419-.923-.775-1.361-1.188a.956.956,0,0,1-.168-1.386.88.88,0,0,1,1.369-.148c.978,1.023,1.556.523,2.181-.373.466-.669,1.052-1.252,1.548-1.9A1.294,1.294,0,0,1-730.83-361.3Z" transform="translate(-85.836 -120.39)" fill="#f3efeb"/>
        </g>
      </g>
    </g>
  </g>
</svg>
