<svg xmlns="http://www.w3.org/2000/svg" xmlns:xlink="http://www.w3.org/1999/xlink" width="118" height="118" viewBox="0 0 118 118">
  <defs>
    <clipPath id="clip-path">
      <circle id="Elipse_7381" data-name="Elipse 7381" cx="52.262" cy="52.262" r="52.262" transform="translate(0 0)" fill="none" stroke="#707070" stroke-width="1"/>
    </clipPath>
  </defs>
  <g id="Grupo_877464" data-name="Grupo 877464" transform="translate(2093 7946)">
    <g id="Elipse_7425" data-name="Elipse 7425" transform="translate(-2093 -7946)" fill="#f4f4f4" stroke="#fff" stroke-width="4">
      <circle cx="59" cy="59" r="59" stroke="none"/>
      <circle cx="59" cy="59" r="57" fill="none"/>
    </g>
    <g id="Grupo_877032" data-name="Grupo 877032" transform="translate(-2692.832 -11720.832)">
      <g id="Enmascarar_grupo_700350" data-name="Enmascarar grupo 700350" transform="translate(606.832 3780.833)" clip-path="url(#clip-path)">
        <g id="Grupo_877037" data-name="Grupo 877037" transform="translate(-441.484 489.532)">
          <path id="Trazado_238275" data-name="Trazado 238275" d="M541.406-468.431a8,8,0,0,1,2.952-.98c5.23-.048,10.464-.14,15.688.031a4.084,4.084,0,0,1,4.232,4.283c.028,1.422,0,2.845.007,4.267.006,1.095-.262,2.287,1,2.956-.748-.088-1.064.21-1.019.992a25.184,25.184,0,0,1-.006,2.762c-.046.846-.381,1.373-1.406,1.3-1.25-.09-2.52.079-3.765-.042-2.51-.245-4.636.32-6.179,2.455-.4.548-.748.642-1.223-.031a5.6,5.6,0,0,0-5.552-2.413,17.029,17.029,0,0,1-1.883.01c-1.739-.005-2.345-.6-2.347-2.3,0-4.019.007-8.038-.012-12.057C541.9-467.647,542.167-468.265,541.406-468.431Zm6.531,4.058c-2.335,2-2.525,3.954-.6,6.315a15.316,15.316,0,0,0,3.779,3.04,1.685,1.685,0,0,0,2.346-.107c1.508-1,3.089-1.867,4.131-3.488a4.31,4.31,0,0,0,.1-4.934c-1.11-1.5-3.442-1.371-4.851-.519-.373.226-.611.544-1.049.159A3.672,3.672,0,0,0,547.937-464.373Z" transform="translate(-58.474)" fill="#f7f5f5"/>
          <path id="Trazado_238276" data-name="Trazado 238276" d="M642.594-333.41a9.386,9.386,0,0,1,9.7,9.127c.144,4.892.008,9.792,0,14.688-2.06-1.608-4.567-2.247-6.929-3.2.052-1.38-.331-2.828.873-3.992a9,9,0,0,0,1.963-3.456c1.1-2.914.332-6.612-1.766-8.454-.99-.87-1.206-.83-1.717.363a8.388,8.388,0,0,1-5.173,4.75c-.907.325-2.294-.158-2.665,1.082-.319,1.065.4,2.095.723,3.121a3.722,3.722,0,0,0,.594,1.092c1.242,1.646,2.421,3.3,1.875,5.549l-4.74,1.755c-.008-4.65-.108-9.3.014-13.948a8.594,8.594,0,0,1,3.261-6.247A15.94,15.94,0,0,1,642.594-333.41Z" transform="translate(-128.74 -101.837)" fill="#865c52"/>
          <path id="Trazado_238277" data-name="Trazado 238277" d="M548.248-367.662a2.43,2.43,0,0,0,1.659-1.415,2.593,2.593,0,0,1,3.785-.916c.327.192.53.55,1.086.352,2.741-.977,3.819-.511,5.149,2.173a3.488,3.488,0,0,1,1.892-.75,2.571,2.571,0,0,1,2.763,2.728,1.5,1.5,0,0,0,.963,1.786,1.9,1.9,0,0,1,1.06,1.876,5.726,5.726,0,0,1-2.492,4.786c-.159-1.994-2.353-2.458-3.049-4.051-.009-.02-.079-.025-.119-.019a4.762,4.762,0,0,1-3.279-1.136c-1.105,1.934-2.6,3.034-4.818,2.9-.245-.015-.557-.071-.7.168-.6,1.017-1.719,1.281-2.6,1.884a5.419,5.419,0,0,1-1.3-4.017A1.716,1.716,0,0,0,548-362.5,4.06,4.06,0,0,1,548.248-367.662Z" transform="translate(-62.803 -74.132)" fill="#865c52"/>
          <path id="Trazado_238278" data-name="Trazado 238278" d="M474.374-423.141c.371-.406.861-.244,1.3-.245q7.143-.017,14.285-.007c0,.458.017.918,0,1.375-.07,1.686-.063,3.348,1.26,4.655-.506,1.244-.182,2.544-.236,3.816a3.61,3.61,0,0,1-.519,2.22c-1.46,0-2.925.071-4.379-.023a3.566,3.566,0,0,0-3.4,1.391c-.6.815-1.213.755-1.8-.021a3.333,3.333,0,0,0-3.286-1.36,13.948,13.948,0,0,1-1.626.01c-1.122,0-1.636-.464-1.615-1.673C474.413-416.382,474.374-419.762,474.374-423.141Zm4.5,4.256a2.324,2.324,0,0,0-.633,3.453,8.4,8.4,0,0,0,2.766,2.445,1.162,1.162,0,0,0,1.656-.115,6.646,6.646,0,0,0,2.972-2.938,2.333,2.333,0,0,0-1.065-3.066c-1.017-.388-1.91.287-2.791.33C480.871-418.731,479.907-419.581,478.874-418.885Z" transform="translate(-8.285 -34.477)" fill="#f7f5f5"/>
          <path id="Trazado_238279" data-name="Trazado 238279" d="M644.574-300.452c.545-2.246-.633-3.9-1.875-5.549a3.722,3.722,0,0,1-.594-1.092c-.322-1.027-1.043-2.057-.723-3.121.372-1.24,1.758-.757,2.665-1.082a8.388,8.388,0,0,0,5.173-4.75c.511-1.193.726-1.234,1.717-.363,2.1,1.842,2.864,5.54,1.766,8.454a9.006,9.006,0,0,1-1.963,3.456c-1.2,1.164-.82,2.612-.873,3.992,0,.459,0,.918.01,1.377.046,2.988-.406,5.82-2.54,8.127l-.109.017-.109-.018a8.939,8.939,0,0,1-2.149-4.011A20.947,20.947,0,0,1,644.574-300.452Z" transform="translate(-133.245 -114.122)" fill="#c28857"/>
          <path id="Trazado_238280" data-name="Trazado 238280" d="M570.305-325.884a11.647,11.647,0,0,1-3.526,8.264,1.723,1.723,0,0,0-.512,1.317c-.095,1.4.241,2.827-.221,4.209-1.518,1.193-3.124,1.847-5,.818,0-.75.042-1.5,0-2.248-.059-.942.343-1.23,1.2-.935a4.58,4.58,0,0,0,3.024-.357c.8-.261.591-1.018.524-1.614-.053-.473-.409-.279-.667-.161a5.787,5.787,0,0,1-5.588-.492,10.876,10.876,0,0,1-3.972-7.3c1.161-1.131,2.984-1.357,3.9-2.855.1-.157.544-.146.826-.137A3.977,3.977,0,0,0,563.6-328.8c.335-.391.728-.764,1.291-.53.958.4,2.009.445,2.748,1.5A10.086,10.086,0,0,0,570.305-325.884Z" transform="translate(-69.064 -104.846)" fill="#e2a76f"/>
          <path id="Trazado_238281" data-name="Trazado 238281" d="M635.59-423.32q6.274,0,12.548,0c1.931,0,2.539.611,2.54,2.522q0,4.768,0,9.536c-1.461,0-2.927.077-4.382-.017a3.571,3.571,0,0,0-3.4,1.393c-.605.817-1.216.75-1.8-.025a3.345,3.345,0,0,0-3.289-1.359,10.6,10.6,0,0,1-1.751-.006,1.61,1.61,0,0,1-1.719-1.924c.068-1.641-.1-3.239.8-4.826S635.523-421.54,635.59-423.32Zm7.527,10.048a16.434,16.434,0,0,0,1.486-.887c1.948-1.448,1.841-3.839-.2-4.986-.418-.6-.842-.586-1.27-.011a1.729,1.729,0,0,1-2.195.112,1.614,1.614,0,0,0-1.824-.014c-1.5,1.386-1.605,2.688-.346,4.212a10.542,10.542,0,0,0,2.092,1.752C641.689-412.5,642.426-412.423,643.117-413.272Z" transform="translate(-128.026 -34.548)" fill="#f7f5f5"/>
          <path id="Trazado_238282" data-name="Trazado 238282" d="M562.224-454.748c-.068,1.78.445,3.7-.459,5.294s-.732,3.185-.8,4.826a1.61,1.61,0,0,0,1.719,1.924,10.608,10.608,0,0,0,1.751.006,3.345,3.345,0,0,1,3.289,1.359c.587.775,1.2.842,1.8.025a3.571,3.571,0,0,1,3.4-1.393c1.455.094,2.921.019,4.382.017a2.4,2.4,0,0,1-2.682,1.525,4.9,4.9,0,0,0-5.043,2.037c-.588.79-1.3,1.1-1.991.054-.043-.065-.153-.084-.2-.148a5.023,5.023,0,0,0-5.061-1.995,2.721,2.721,0,0,1-2.873-2.907c0-1.256,0-2.512,0-3.768,0-.631-.216-1.07-.886-.663a5.288,5.288,0,0,1-3.719.554c-2.169-.364-3.641.671-5.063,2.032-1.521,1.457-1.911,1.347-3.145-.4a3.884,3.884,0,0,0-2.716-1.588,5.867,5.867,0,0,0-1-.007,10.836,10.836,0,0,1-5.338-.759c-1.323-1.307-1.33-2.969-1.26-4.655.019-.458,0-.917,0-1.375,0-1.967-.009-3.934.006-5.9.008-1.153-.2-2.343.5-3.4l0,0,.752-1.258c.761.166.491.784.493,1.228.019,4.019.009,8.038.012,12.057,0,1.707.607,2.3,2.347,2.3a17.028,17.028,0,0,0,1.883-.01,5.6,5.6,0,0,1,5.552,2.413c.475.673.827.579,1.223.031,1.543-2.134,3.669-2.7,6.179-2.455,1.244.121,2.515-.048,3.764.042,1.025.074,1.36-.454,1.406-1.3a25.139,25.139,0,0,0,.006-2.762c-.044-.783.271-1.081,1.019-.992Z" transform="translate(-54.659 -3.12)" fill="#e8e8e8"/>
          <path id="Trazado_238283" data-name="Trazado 238283" d="M474.536-323.956c-.463.373-.749.194-.929-.3-1.484-4.071-.941-9.67,5.5-10.612a3.22,3.22,0,0,1,3.711,1.665c.266.539.587.446,1.008.413,3.212-.247,5.311,1.982,4.916,5.2a10.228,10.228,0,0,1-.913,3.243c-.2.421-.418.741-.929.384a7.044,7.044,0,0,0-1.475-1.505c-1.186-1.013-2.728-1.631-3.44-3.171-.25-.541-.553-.119-.773.064a10.656,10.656,0,0,1-2.818,1.562A8.647,8.647,0,0,0,474.536-323.956Z" transform="translate(-7.214 -100.71)" fill="#8e868e"/>
          <path id="Trazado_238284" data-name="Trazado 238284" d="M566.1-259.765c1.881,1.029,3.487.375,5.005-.818a11.053,11.053,0,0,0,3.551,1.3,18.737,18.737,0,0,0-4.225,10.529h-5.133a20.554,20.554,0,0,0-2.988-9c.4-.654,1.142-.746,1.75-1.069.541-.287,1.357-.189,1.554-1.01Z" transform="translate(-74.118 -156.357)" fill="#f7f5f5"/>
          <path id="Trazado_238285" data-name="Trazado 238285" d="M594.6-244.874a18.738,18.738,0,0,1,4.225-10.529c1.364.143,2.466,1.075,3.815,1.266l1.9,1.821a8.266,8.266,0,0,1,.331,2.325c-.029,1.7,0,3.4.006,5.1Z" transform="translate(-98.287 -160.235)" fill="#caef9e"/>
          <path id="Trazado_238286" data-name="Trazado 238286" d="M540.607-253.948a20.55,20.55,0,0,1,2.988,9l-10.227.011q-.026-2.652-.052-5.305a4.067,4.067,0,0,1,2.91-4.076,18.631,18.631,0,0,1,3.151-1.183Z" transform="translate(-52.419 -160.164)" fill="#caef9e"/>
          <path id="Trazado_238287" data-name="Trazado 238287" d="M483.776-294.067a11.565,11.565,0,0,1-3.252-5.047,16.221,16.221,0,0,1,6.081-3.812,1.012,1.012,0,0,1,1.224.218c1.317,1.411,3.147,2.186,4.467,3.595a11.828,11.828,0,0,1-3.258,5.05A4.285,4.285,0,0,1,483.776-294.067Z" transform="translate(-12.904 -124.585)" fill="#f1d0a4"/>
          <path id="Trazado_238288" data-name="Trazado 238288" d="M665.295-241.894c2.133-2.307,2.586-5.139,2.54-8.127-.007-.459-.007-.918-.01-1.377,2.363.952,4.87,1.59,6.93,3.2.969,1.63.588,3.423.563,5.155-.012.813-.661,1.2-1.49,1.194Q669.561-241.877,665.295-241.894Z" transform="translate(-151.204 -163.232)" fill="#fdd063"/>
          <path id="Trazado_238289" data-name="Trazado 238289" d="M469.171-422.342c0,3.379.038,6.759-.021,10.137-.021,1.21.493,1.678,1.615,1.673a13.961,13.961,0,0,0,1.626-.01,3.333,3.333,0,0,1,3.286,1.36c.589.776,1.2.836,1.8.021a3.566,3.566,0,0,1,3.4-1.391c1.454.095,2.919.022,4.379.023a2.481,2.481,0,0,1-2.2,1.494c-.745.072-1.508-.041-2.254.029-.923.087-1.852.079-2.329,1.249-.235.577-1.012.952-1.582,1.367-.39.284-.755.028-.969-.288-1.427-2.109-3.437-2.634-5.856-2.374-1.145.123-2.648-1.466-2.656-2.618-.022-2.966-.03-5.933.005-8.9C467.437-421.656,467.893-422.437,469.171-422.342Z" transform="translate(-3.081 -35.276)" fill="#e8e8e8"/>
          <path id="Trazado_238290" data-name="Trazado 238290" d="M628.461-310.68l-1.9-1.821c.01-3.715-.006-7.43.035-11.145.06-5.544,4.264-9.842,9.47-9.73a15.941,15.941,0,0,0-3.991,2.232,8.6,8.6,0,0,0-3.261,6.247c-.122,4.647-.021,9.3-.014,13.948Z" transform="translate(-122.213 -101.87)" fill="#745046"/>
          <path id="Trazado_238291" data-name="Trazado 238291" d="M634.113-249.151l.34-.268,4.74-1.756a20.94,20.94,0,0,0,.4,5.436,8.938,8.938,0,0,0,2.149,4.011l-7.287.006c-.006-1.7-.035-3.4-.006-5.1A8.266,8.266,0,0,0,634.113-249.151Z" transform="translate(-127.865 -163.399)" fill="#fdd063"/>
          <path id="Trazado_238292" data-name="Trazado 238292" d="M466.586-240.984c1.183,1.606,2.373,3.207,3.541,4.824.158.219.485.427.348.747-.147.343-.513.2-.783.2-1.626.017-3.253.012-4.88.019-.762,0-1.4-.313-1.445-1.082a18.531,18.531,0,0,1,.051-3.988,2.692,2.692,0,0,1,1.927-2.256Z" transform="translate(0 -169.877)" fill="#bae5ee"/>
          <path id="Trazado_238293" data-name="Trazado 238293" d="M569.491-332.223a10.087,10.087,0,0,1-2.666-1.944c-.739-1.057-1.79-1.1-2.748-1.5-.563-.234-.956.139-1.291.53a3.977,3.977,0,0,1-3.322,1.424c-.282-.009-.73-.02-.826.137-.913,1.5-2.736,1.723-3.9,2.855l-.274-1.021.528-1.175c.884-.6,2.008-.868,2.6-1.884.14-.239.452-.183.7-.168,2.222.135,3.713-.966,4.818-2.9a4.762,4.762,0,0,0,3.279,1.136c.039-.005.11,0,.119.019.7,1.592,2.89,2.057,3.048,4.051Q569.525-332.445,569.491-332.223Z" transform="translate(-68.249 -98.507)" fill="#d3975b"/>
          <path id="Trazado_238294" data-name="Trazado 238294" d="M491.411-305.05c-1.32-1.408-3.15-2.184-4.467-3.595a1.012,1.012,0,0,0-1.224-.218,16.222,16.222,0,0,0-6.081,3.812l-.3-.966a8.644,8.644,0,0,1,3.854-3.054,10.656,10.656,0,0,0,2.818-1.562c.221-.183.523-.605.773-.064.712,1.54,2.254,2.158,3.44,3.171a7.045,7.045,0,0,1,1.475,1.505Z" transform="translate(-12.019 -118.649)" fill="#efb988"/>
          <path id="Trazado_238295" data-name="Trazado 238295" d="M545.13-349.034l-.528,1.175a3.834,3.834,0,0,1-2.246-3.745,5.488,5.488,0,0,0-.636-2.6,3.688,3.688,0,0,1,2.11-5.2,4.06,4.06,0,0,0-.244,5.161,1.716,1.716,0,0,1,.241,1.189A5.419,5.419,0,0,0,545.13-349.034Z" transform="translate(-58.385 -82.393)" fill="#745046"/>
          <path id="Trazado_238296" data-name="Trazado 238296" d="M572.72-274.612l-.486-.068-1.078-.951q.024-2.394.048-4.787a5.787,5.787,0,0,0,5.588.492c.259-.118.614-.312.668.161.067.6.271,1.353-.524,1.614a4.58,4.58,0,0,1-3.024.357c-.853-.295-1.255-.007-1.2.935C572.762-276.114,572.722-275.362,572.72-274.612Z" transform="translate(-80.742 -141.51)" fill="#d3975b"/>
          <path id="Trazado_238297" data-name="Trazado 238297" d="M493.366-267.391a4.285,4.285,0,0,0,5.262,0q0,1-.009,1.994a3.8,3.8,0,0,1-1.153.424,2.626,2.626,0,0,0-2.882,2.392c-.541-.068-.8-.581-1.247-.794Q493.351-265.381,493.366-267.391Z" transform="translate(-22.494 -151.262)" fill="#efb988"/>
          <path id="Trazado_238298" data-name="Trazado 238298" d="M520.2-234.588q.026,2.653.052,5.305-1.929.006-3.858.012c-.609,0-.817-.226-.338-.71C517.507-231.449,518.621-233.225,520.2-234.588Z" transform="translate(-39.298 -175.815)" fill="#bae5ee"/>
          <path id="Trazado_238299" data-name="Trazado 238299" d="M476.972-251.407c.449.213.706.726,1.247.794.015.074.026.149.034.224-1.431,1.065-3.208,1.381-4.758,2.194-.3.155-.63.216-.78.56l-1.242-1.537A35.406,35.406,0,0,1,476.972-251.407Z" transform="translate(-6.13 -163.226)" fill="#e8e8e8"/>
          <path id="Trazado_238300" data-name="Trazado 238300" d="M498.33-256.4c-.008-.075-.019-.15-.034-.224a2.626,2.626,0,0,1,2.882-2.392,3.8,3.8,0,0,0,1.153-.424C502.832-257.163,501.455-255.851,498.33-256.4Z" transform="translate(-26.206 -157.21)" fill="#f1d0a4"/>
          <path id="Trazado_238301" data-name="Trazado 238301" d="M560.872-261.384l1.078.951c-.2.821-1.013.723-1.554,1.01-.608.323-1.345.415-1.75,1.069l-1.23-1.55Z" transform="translate(-70.458 -155.758)" fill="#e8e8e8"/>
          <path id="Trazado_238302" data-name="Trazado 238302" d="M538.1-460.468l-.1-.058.106.055Z" transform="translate(-55.922 -6.701)" fill="#e8e8e8"/>
          <path id="Trazado_238303" data-name="Trazado 238303" d="M566.094-450.147a3.672,3.672,0,0,1,3.856.467c.438.385.676.067,1.049-.159,1.409-.852,3.741-.985,4.851.519a4.31,4.31,0,0,1-.1,4.934c-1.042,1.621-2.623,2.484-4.131,3.488-.5-.829-1.458-1.074-2.135-1.677-1.54-1.369-3.278-2.542-3.78-4.784C565.474-448.4,566.286-449.18,566.094-450.147Z" transform="translate(-76.631 -14.226)" fill="#de646e"/>
          <path id="Trazado_238304" data-name="Trazado 238304" d="M561.687-449.178c.192.966-.62,1.747-.387,2.788.5,2.242,2.24,3.415,3.78,4.784.678.6,1.636.847,2.135,1.677a1.684,1.684,0,0,1-2.345.107,15.316,15.316,0,0,1-3.779-3.04C559.161-445.224,559.352-447.178,561.687-449.178Z" transform="translate(-72.224 -15.195)" fill="#db4b57"/>
          <path id="Trazado_238305" data-name="Trazado 238305" d="M492.332-406.409c1.032-.7,2,.153,2.9.109.881-.043,1.774-.718,2.791-.33a2.333,2.333,0,0,1,1.065,3.066,6.646,6.646,0,0,1-2.972,2.938,4.131,4.131,0,0,0-1.053-1.038,7.431,7.431,0,0,1-2.594-3.121C492.28-405.364,492.958-405.938,492.332-406.409Z" transform="translate(-21.742 -46.952)" fill="#de646e"/>
          <path id="Trazado_238306" data-name="Trazado 238306" d="M488.94-405.395c.626.472-.052,1.046.142,1.624a7.43,7.43,0,0,0,2.594,3.121,4.131,4.131,0,0,1,1.053,1.038,1.162,1.162,0,0,1-1.656.115,8.4,8.4,0,0,1-2.766-2.445A2.324,2.324,0,0,1,488.94-405.395Z" transform="translate(-18.35 -47.966)" fill="#db4b57"/>
          <path id="Trazado_238307" data-name="Trazado 238307" d="M658.57-407.279c2.045,1.147,2.152,3.539.2,4.986a16.457,16.457,0,0,1-1.486.887c-2.261-1.288-4.26-2.757-4.006-5.786a1.614,1.614,0,0,1,1.824.014,1.729,1.729,0,0,0,2.195-.112Z" transform="translate(-142.196 -46.414)" fill="#de646e"/>
          <path id="Trazado_238308" data-name="Trazado 238308" d="M649.735-406.367c-.254,3.029,1.745,4.5,4.006,5.786-.692.849-1.428.775-2.26.178a10.546,10.546,0,0,1-2.092-1.752C648.13-403.679,648.24-404.981,649.735-406.367Z" transform="translate(-138.65 -47.239)" fill="#db4b57"/>
          <path id="Trazado_238309" data-name="Trazado 238309" d="M670.594-408.039l-1.27-.011C669.752-408.624,670.176-408.636,670.594-408.039Z" transform="translate(-154.22 -45.655)" fill="#e8e8e8"/>
        </g>
      </g>
    </g>
  </g>
</svg>
