<svg xmlns="http://www.w3.org/2000/svg" width="118" height="118" viewBox="0 0 118 118">
  <g id="Grupo_877471" data-name="Grupo 877471" transform="translate(4188 5962)">
    <g id="Elipse_7424" data-name="Elipse 7424" transform="translate(-4188 -5962)" fill="#f4f4f4" stroke="#fff" stroke-width="4">
      <circle cx="59" cy="59" r="59" stroke="none"/>
      <circle cx="59" cy="59" r="57" fill="none"/>
    </g>
    <g id="Grupo_877467" data-name="Grupo 877467" transform="translate(-3.429 116.606)">
      <g id="colaborar" transform="translate(-4164.571 -6058.606)">
        <g id="Grupo_599499" data-name="Grupo 599499" transform="translate(19.698 13.132)">
          <path id="Trazado_237194" data-name="Trazado 237194" d="M31,13h2.626V28.759H31Z" transform="translate(-12.615 -13)" fill="#a07657"/>
          <path id="Trazado_237195" data-name="Trazado 237195" d="M45,16h2.626V33.072H45Z" transform="translate(-8.23 -12.06)" fill="#a07657"/>
          <path id="Trazado_237196" data-name="Trazado 237196" d="M17,15h2.626V33.385H17Z" transform="translate(-17 -12.374)" fill="#a07657"/>
        </g>
        <g id="Grupo_599500" data-name="Grupo 599500" transform="translate(11.819 2.626)">
          <path id="Trazado_237197" data-name="Trazado 237197" d="M26.689,12.257a6.309,6.309,0,0,0,.07-.691,6.566,6.566,0,0,0-13.132,0,6.309,6.309,0,0,0,.07.691,5.236,5.236,0,0,0,2.557,9.815h7.879a5.236,5.236,0,0,0,2.557-9.815Z" transform="translate(-11 -5)" fill="#63bc94"/>
        </g>
        <g id="Grupo_599501" data-name="Grupo 599501" transform="translate(11.819 10.955)">
          <path id="Trazado_237198" data-name="Trazado 237198" d="M12.366,11.342A5.16,5.16,0,0,0,11,14.833a5.253,5.253,0,0,0,5.253,5.253h7.513a11.813,11.813,0,0,1-11.4-8.743Z" transform="translate(-11 -11.342)" fill="#5aab86"/>
        </g>
        <g id="Grupo_599502" data-name="Grupo 599502" transform="translate(30.204 0)">
          <path id="Trazado_237199" data-name="Trazado 237199" d="M40.689,10.257a6.309,6.309,0,0,0,.07-.691,6.566,6.566,0,0,0-13.132,0,6.309,6.309,0,0,0,.07.691,5.236,5.236,0,0,0,2.557,9.815h7.879a5.236,5.236,0,0,0,2.557-9.815Z" transform="translate(-25 -3)" fill="#63bc94"/>
        </g>
        <g id="Grupo_599503" data-name="Grupo 599503" transform="translate(30.204 8.328)">
          <path id="Trazado_237200" data-name="Trazado 237200" d="M26.366,9.342A5.16,5.16,0,0,0,25,12.833a5.253,5.253,0,0,0,5.253,5.253h7.513A11.813,11.813,0,0,1,26.366,9.342Z" transform="translate(-25 -9.342)" fill="#5aab86"/>
        </g>
        <g id="Grupo_599504" data-name="Grupo 599504" transform="translate(48.589 2.626)">
          <path id="Trazado_237201" data-name="Trazado 237201" d="M54.689,12.257a6.31,6.31,0,0,0,.07-.691,6.566,6.566,0,0,0-13.132,0,6.31,6.31,0,0,0,.07.691,5.236,5.236,0,0,0,2.557,9.815h7.879a5.236,5.236,0,0,0,2.557-9.815Z" transform="translate(-39 -5)" fill="#63bc94"/>
        </g>
        <g id="Grupo_599505" data-name="Grupo 599505" transform="translate(48.589 10.955)">
          <path id="Trazado_237202" data-name="Trazado 237202" d="M40.366,11.342A5.16,5.16,0,0,0,39,14.833a5.253,5.253,0,0,0,5.253,5.253h7.513A11.813,11.813,0,0,1,40.366,11.342Z" transform="translate(-39 -11.342)" fill="#5aab86"/>
        </g>
        <g id="Grupo_599506" data-name="Grupo 599506" transform="translate(13.132 23.638)">
          <path id="Trazado_237203" data-name="Trazado 237203" d="M38.264,21A26.264,26.264,0,0,0,12,47.264q0,1.33.13,2.626H64.4q.13-1.3.13-2.626A26.264,26.264,0,0,0,38.264,21Z" transform="translate(-12 -21)" fill="#a7dbfc"/>
        </g>
        <g id="Grupo_599507" data-name="Grupo 599507" transform="translate(13.132 35.618)">
          <path id="Trazado_237204" data-name="Trazado 237204" d="M15.94,33.9a26.343,26.343,0,0,1,.3-3.778A26.121,26.121,0,0,0,12,44.407q0,1.33.13,2.626h7.353A26.1,26.1,0,0,1,15.94,33.9Z" transform="translate(-12 -30.123)" fill="#a0d2f2"/>
        </g>
        <g id="Grupo_599508" data-name="Grupo 599508" transform="translate(13.476 35.457)">
          <path id="Trazado_237205" data-name="Trazado 237205" d="M12.262,40.391,19.8,37.879l5.253,2.626L30.3,37.879V31.313L25.05,32.626,22.424,30H16.258a26.086,26.086,0,0,0-4,10.391Z" transform="translate(-12.262 -30)" fill="#63bc94"/>
        </g>
        <g id="Grupo_599509" data-name="Grupo 599509" transform="translate(13.478 35.626)">
          <path id="Trazado_237206" data-name="Trazado 237206" d="M15.857,33.9a26.233,26.233,0,0,1,.3-3.77c-.412.634-.792,1.29-1.148,1.961-.1.188-.194.38-.29.569a26.241,26.241,0,0,0-2.458,7.692l4.1-1.366a26.041,26.041,0,0,1-.5-5.085Z" transform="translate(-12.263 -30.129)" fill="#5aab86"/>
        </g>
        <g id="Grupo_599510" data-name="Grupo 599510" transform="translate(39.397 27.295)">
          <path id="Trazado_237207" data-name="Trazado 237207" d="M45.321,23.785l-.189.282-3.94,3.94L35.94,29.32l-2.626,2.626L32,35.886l3.94,2.626,3.94-1.313,6.566-1.313L49.072,37.2l2.626,3.94,5.253-1.313.41-.164A26.269,26.269,0,0,0,45.321,23.785Z" transform="translate(-32 -23.785)" fill="#63bc94"/>
        </g>
        <g id="Grupo_599515" data-name="Grupo 599515" transform="translate(14.062 35.457)">
          <g id="Grupo_599511" data-name="Grupo 599511" transform="translate(0 7.59)">
            <path id="Trazado_237208" data-name="Trazado 237208" d="M12.713,35.78c0,.008,0,.014-.005.022S12.712,35.788,12.713,35.78Z" transform="translate(-12.708 -35.78)" fill="#63bc94"/>
          </g>
          <g id="Grupo_599512" data-name="Grupo 599512" transform="translate(3.409)">
            <path id="Trazado_237209" data-name="Trazado 237209" d="M15.305,30h0Z" transform="translate(-15.304 -30)" fill="#63bc94"/>
          </g>
          <g id="Grupo_599513" data-name="Grupo 599513" transform="translate(0.842 4.88)">
            <path id="Trazado_237210" data-name="Trazado 237210" d="M13.4,33.716c-.018.046-.034.093-.051.141C13.367,33.809,13.383,33.762,13.4,33.716Z" transform="translate(-13.349 -33.716)" fill="#63bc94"/>
          </g>
          <g id="Grupo_599514" data-name="Grupo 599514" transform="translate(1.941 2.336)">
            <path id="Trazado_237211" data-name="Trazado 237211" d="M14.287,31.779c-.035.068-.066.141-.1.21C14.221,31.92,14.252,31.847,14.287,31.779Z" transform="translate(-14.186 -31.779)" fill="#63bc94"/>
          </g>
        </g>
        <g id="Grupo_599516" data-name="Grupo 599516" transform="translate(31.517 48.589)">
          <path id="Trazado_237212" data-name="Trazado 237212" d="M36.187,41,33.879,43.43,31.572,41a3.153,3.153,0,0,0-4.616,0,3.554,3.554,0,0,0,0,4.851l6.923,7.277L40.8,45.856A3.554,3.554,0,0,0,40.8,41,3.153,3.153,0,0,0,36.187,41Z" transform="translate(-26 -40)" fill="#ff8088"/>
        </g>
        <g id="Grupo_599517" data-name="Grupo 599517" transform="translate(13.471 56.632)">
          <circle id="Elipse_4749" data-name="Elipse 4749" cx="5.212" cy="5.212" r="5.212" transform="translate(0 0)" fill="#ffdbac"/>
        </g>
        <g id="Grupo_599518" data-name="Grupo 599518" transform="translate(55.166 56.632)">
          <circle id="Elipse_4750" data-name="Elipse 4750" cx="5.212" cy="5.212" r="5.212" transform="translate(0 0)" fill="#ffdbac"/>
        </g>
        <g id="Grupo_599519" data-name="Grupo 599519" transform="translate(0 66.974)">
          <path id="Trazado_237213" data-name="Trazado 237213" d="M30.891,55.313,25.638,54H15.132L9.879,55.313H2v5.253H12.506v3.94H28.264v-3.94H41.4V55.313Z" transform="translate(-2 -54)" fill="#a0d2f2"/>
        </g>
        <g id="Grupo_599520" data-name="Grupo 599520" transform="translate(39.397 66.974)">
          <path id="Trazado_237214" data-name="Trazado 237214" d="M42.506,55.313,47.759,54H58.264l5.253,1.313H71.4v5.253H60.891v3.94H45.132v-3.94H32V55.313Z" transform="translate(-32 -54)" fill="#a7dbfc"/>
        </g>
      </g>
    </g>
  </g>
</svg>
