<svg xmlns="http://www.w3.org/2000/svg" xmlns:xlink="http://www.w3.org/1999/xlink" width="118" height="118" viewBox="0 0 118 118">
  <defs>
    <clipPath id="clip-path">
      <circle id="Elipse_7381" data-name="Elipse 7381" cx="52.262" cy="52.262" r="52.262" transform="translate(0 0)" fill="none" stroke="#707070" stroke-width="1"/>
    </clipPath>
  </defs>
  <g id="Grupo_877461" data-name="Grupo 877461" transform="translate(2634 7946)">
    <g id="Elipse_7424" data-name="Elipse 7424" transform="translate(-2634 -7946)" fill="#f4f4f4" stroke="#fff" stroke-width="4">
      <circle cx="59" cy="59" r="59" stroke="none"/>
      <circle cx="59" cy="59" r="57" fill="none"/>
    </g>
    <g id="Grupo_877030" data-name="Grupo 877030" transform="translate(-3234.832 -11720.832)">
      <g id="Enmascarar_grupo_700350" data-name="Enmascarar grupo 700350" transform="translate(606.832 3780.833)" clip-path="url(#clip-path)">
        <g id="Grupo_877031" data-name="Grupo 877031" transform="translate(29.095 475.575)">
          <path id="Trazado_238266" data-name="Trazado 238266" d="M29.666-366.607a2.539,2.539,0,0,0,.721-.374c3.3-3.464,6.691-1.6,9.878.028,4.516,2.305,6.466,6.448,7.173,11.264A97.667,97.667,0,0,1,48.489-341.2c0,1.321-.278,1.9-1.726,1.806-1.983-.127-3.979-.05-5.97-.06q.02-6.7.043-13.4c0-1.1-.419-1.815-1.611-1.85-1.273-.037-1.759.664-1.753,1.866.025,4.467.033,8.934.047,13.4H9.615c.014-4.35.016-8.7.051-13.051.01-1.238-.2-2.25-1.735-2.212-1.449.036-1.626,1.085-1.626,2.2,0,4.351.022,8.7.036,13.051-2.153.01-4.305.016-6.458.034-.66.006-1.214-.049-1.209-.934.04-6.6.026-13.239,2.172-19.581,1.69-4.992,5.561-7.573,10.565-8.706,1.839-.416,3.432-.4,4.734,1.231a2.057,2.057,0,0,0,1.4.817c1.363,2.273,3.7,3.545,5.521,5.344a.691.691,0,0,0,1.039-.018C25.94-363.066,28.231-364.391,29.666-366.607Z" transform="translate(-0.333 -61.873)" fill="#baebfe"/>
          <path id="Trazado_238267" data-name="Trazado 238267" d="M59.594-432.331c2.568,3.1,2.4,5-.726,7.645a1.772,1.772,0,0,0-.672.9A13.6,13.6,0,0,1,53.1-416.3c-2.492.922-5.067,1.566-7.624.543a1.822,1.822,0,0,0-2.265.453,2.551,2.551,0,0,0-1.114-2.36,9.592,9.592,0,0,1-3.288-5.416,2.409,2.409,0,0,0-1.04-1.763c-2.576-1.646-3.008-4.187-1.249-6.623a3.863,3.863,0,0,0,.331-.74,3.58,3.58,0,0,0,.364-.7,4.254,4.254,0,0,1,4.109-3.457,19.2,19.2,0,0,1,5.28.027,4.2,4.2,0,0,0,3.338-.575c1.824-1.28,1.908-1.271,3.429.393a15.248,15.248,0,0,0,1.315,1.491C56.139-433.812,57.451-432.3,59.594-432.331Z" transform="translate(-24.9 -15.865)" fill="#f3b9a6"/>
          <path id="Trazado_238268" data-name="Trazado 238268" d="M60.864-448.2c-2.143.027-3.455-1.482-4.907-2.7a15.241,15.241,0,0,1-1.315-1.491c-1.521-1.665-1.6-1.674-3.429-.393a4.2,4.2,0,0,1-3.338.575,19.2,19.2,0,0,0-5.28-.027,4.254,4.254,0,0,0-4.109,3.457,3.58,3.58,0,0,1-.364.7c-1.559-5.26-.832-7.819,3.188-10.448a18.408,18.408,0,0,1,13.433-2.787,3.531,3.531,0,0,1,3.127,2.338,3.882,3.882,0,0,0,1.446,1.759c3.207,2.491,3.59,3.952,2.047,7.615C61.171-449.139,61.03-448.662,60.864-448.2Z" transform="translate(-26.17)" fill="#7a4334"/>
          <path id="Trazado_238269" data-name="Trazado 238269" d="M56.584-372.016a1.822,1.822,0,0,1,2.265-.453c2.556,1.023,5.131.38,7.624-.543a10.69,10.69,0,0,0,1.132,3.684c-1.435,2.216-3.725,3.541-5.564,5.338a.691.691,0,0,1-1.039.018c-1.823-1.8-4.158-3.071-5.521-5.344A7.654,7.654,0,0,0,56.584-372.016Z" transform="translate(-38.272 -59.153)" fill="#eab39e"/>
          <path id="Trazado_238270" data-name="Trazado 238270" d="M61.53-265.27c.713,3.359,2.747,4.58,6.036,4.416-2.8,1.725-3.538,3.961-2.162,6.867-1.693-.228-2.533-1.553-3.807-1.58-1.3-.027-2.149,1.28-3.839,1.631,1.1-2.842.768-5.206-2.208-6.845C58.713-260.8,60.908-261.806,61.53-265.27Z" transform="translate(-38.318 -131.109)" fill="#f7e183"/>
          <path id="Trazado_238271" data-name="Trazado 238271" d="M-1.824-260.859c1.646-1.046,3.3-.132,4.243-1.145.829-.892,1.229-2.182,2.066-3.767.657,3.273,2.434,4.91,5.6,4.369a1.506,1.506,0,0,1-.8,1.29c-1.624,1.147-2.224,2.567-1.427,4.489.149.358.35.946-.126,1.175-.234.113-.751-.142-1.025-.369a3.316,3.316,0,0,0-4.736.017c-.29.241-.732.682-1.148.308-.3-.27-.088-.737.048-1.1.705-1.857.478-3.405-1.41-4.441C-.926-260.24-1.281-260.506-1.824-260.859Z" transform="translate(0 -130.775)" fill="#f7e283"/>
          <path id="Trazado_238272" data-name="Trazado 238272" d="M112.681-260.876c3.276.234,5.129-1.23,5.9-4.452.792,3.191,2.594,4.729,5.719,4.2a1.355,1.355,0,0,1-.824,1.374c-1.859,1.077-2.12,2.6-1.406,4.459.137.358.354.823.056,1.1-.417.384-.856-.066-1.144-.306-1.667-1.39-3.247-1.283-4.886.062-.37.3-1.482.815-1.041-.366C116.067-257.514,114.882-259.176,112.681-260.876Z" transform="translate(-76.473 -131.071)" fill="#f7e283"/>
          <path id="Trazado_238273" data-name="Trazado 238273" d="M115.533-310.824c-.014-4.467-.021-8.934-.046-13.4-.007-1.2.48-1.9,1.753-1.866,1.192.035,1.616.746,1.611,1.85q-.03,6.7-.043,13.4Z" transform="translate(-78.347 -90.489)" fill="#78bfd8"/>
          <path id="Trazado_238274" data-name="Trazado 238274" d="M21.685-310.834c-.014-4.35-.035-8.7-.036-13.051,0-1.111.177-2.16,1.626-2.2,1.539-.038,1.745.975,1.735,2.212-.035,4.35-.037,8.7-.051,13.051Z" transform="translate(-15.677 -90.495)" fill="#78bfd8"/>
        </g>
      </g>
    </g>
  </g>
</svg>
