<svg xmlns="http://www.w3.org/2000/svg" xmlns:xlink="http://www.w3.org/1999/xlink" width="118" height="118" viewBox="0 0 118 118">
  <defs>
    <clipPath id="clip-path">
      <circle id="Elipse_7381" data-name="Elipse 7381" cx="52.262" cy="52.262" r="52.262" transform="translate(0 0)" fill="none" stroke="#707070" stroke-width="1"/>
    </clipPath>
  </defs>
  <g id="Grupo_877465" data-name="Grupo 877465" transform="translate(2093 7786)">
    <g id="Elipse_7426" data-name="Elipse 7426" transform="translate(-2093 -7786)" fill="#f4f4f4" stroke="#fff" stroke-width="4">
      <circle cx="59" cy="59" r="59" stroke="none"/>
      <circle cx="59" cy="59" r="57" fill="none"/>
    </g>
    <g id="Enmascarar_grupo_700350" data-name="Enmascarar grupo 700350" transform="translate(-2086 -7779)" clip-path="url(#clip-path)">
      <g id="Grupo_877039" data-name="Grupo 877039" transform="translate(477.959 531.284)">
        <path id="Trazado_238316" data-name="Trazado 238316" d="M-389.878-364.3c-.107.723.7,1.42.061,2.157a3.849,3.849,0,0,1-3.67-.653,4.056,4.056,0,0,0-2.244-1.061c.26-1.035.5-2.066-.6-2.813a3.163,3.163,0,0,0-2.561-.86c.33-1.045.531-2.066-.54-2.845-.555-1.077-1.817-.53-2.582-1.125a2.041,2.041,0,0,0-.827-2.818c-.561-.817-1.434-.8-2.281-.857a2.608,2.608,0,0,0-.546-2.829,1.875,1.875,0,0,0-2.219-.775A6.694,6.694,0,0,0-410-377.723c-1.89,1.39-3.715,2.187-5.766.239a11.045,11.045,0,0,0-2.169-1.267c-.546-.315-1.29-.423-1.352-1.26l7.852-13.616c2.076,1.181,4.166,2.339,6.221,3.556.8.473,1.253.473,1.738-.455,1.258-2.407,2.5-2.71,4.893-1.338.479.274,1.07.385,1.4.9-.192.43-.668.488-.983.75-.928.77-2.289.906-2.968,2.033-1.457.238-2.489,1.264-3.685,1.986-.721.245-1.767.277-1.068,1.507a4.6,4.6,0,0,0,5.957,1.97c1.024-.461,1.986-1.06,2.972-1.605a1.4,1.4,0,0,1,1.563-.151c2.578,1.536,5.147,3.092,7.78,4.53A75.62,75.62,0,0,0-380.5-376a2.045,2.045,0,0,0,1.746.862c.692,1.019,1.9,1.866,1.119,3.373a6.331,6.331,0,0,1-4.233-1.195c-2.47-1.537-5.02-2.946-7.539-4.406-.489-.283-.916-.433-1.279.238a.818.818,0,0,0,.4,1.276c3.7,1.748,6.742,4.791,10.95,5.524-.478.307-.452.512.009.9a2.134,2.134,0,0,1,.611,2.771,6.32,6.32,0,0,1-4.115-1.2c-2.935-1.684-5.855-3.4-8.785-5.088-.439-.254-.867-.912-1.384-.075-.482.779-.061,1.223.566,1.594.324.191.663.356.989.545q4.066,2.359,8.129,4.724l.3.341-.009-.009c-.145.756.289,1.58-.265,2.288-.886-.718-2.031-.082-3.048-.751-2.5-1.645-5.176-3.028-7.772-4.532-.61-.353-1.148-.471-1.522.273-.355.706.122.989.657,1.292C-393.264-366.289-391.574-365.286-389.878-364.3Z" transform="translate(-28.823 -85.205)" fill="#fac3ad"/>
        <path id="Trazado_238317" data-name="Trazado 238317" d="M-367.824-388.2c.679-1.127,2.04-1.262,2.968-2.033.315-.262.791-.32.983-.75a7.226,7.226,0,0,0,2.16-1.018c2.077-1.177,3.492-.919,4.56,1.183.654,1.288,1.253,1.142,2.248.54,1.931-1.168,3.912-2.256,5.872-3.377l7.866,13.637c-.154.7-.784.9-1.291,1.2-1.566.946-3.147,1.867-4.722,2.8a75.721,75.721,0,0,1-7.124-3.945c-2.632-1.439-5.2-2.994-7.78-4.53a1.4,1.4,0,0,0-1.563.151c-.986.545-1.948,1.144-2.972,1.605a4.6,4.6,0,0,1-5.957-1.97c-.7-1.231.347-1.263,1.068-1.507,1.18,1.458,1.938,1.5,3.7.436C-366.351-386.66-367.547-387.4-367.824-388.2Z" transform="translate(-62.14 -85.185)" fill="#f1ad97"/>
        <path id="Trazado_238318" data-name="Trazado 238318" d="M-384.73-481.672c-4.968-3.675-7.428-8.848-8.739-14.692a44.777,44.777,0,0,1-.968-6.84,3.125,3.125,0,0,1,2-3.363c3.972-1.83,7.927-3.7,11.886-5.559a2.938,2.938,0,0,1,2.589-.132c2.851,1.33,5.688,2.687,8.531,4.034-.3.207-.156.46-.127.741a9.435,9.435,0,0,1-.179,4.01L-374-505.335c-1.228-.588-2.473-1.142-3.677-1.776a2.831,2.831,0,0,0-2.808-.007c-1.847.927-3.747,1.748-5.609,2.647-3.841,1.854-4.264,1.027-3.458,6.3.649,4.253,1.955,8.231,5.289,11.236a11.135,11.135,0,0,0,4.329,2.808c-.221.472-.693.618-1.11.81C-382.263-482.751-383.5-482.217-384.73-481.672Zm-8.225-17.868c.287,1.391.516,2.83.885,4.232a25.686,25.686,0,0,0,5.456,10.559c.348.4.834.879,1.316.482.629-.518-.092-.887-.395-1.235a24.044,24.044,0,0,1-4.193-6.813,46.461,46.461,0,0,1-1.927-7.336c-.084-.372-.108-.824-.615-.784C-392.914-500.4-392.935-499.96-392.954-499.539Zm.811-2.841c-.036-.344-.166-.644-.569-.623a.524.524,0,0,0-.484.568c0,.354.155.649.559.629C-392.32-501.821-392.187-502.077-392.143-502.381Z" transform="translate(-46.628)" fill="#feaa1e"/>
        <path id="Trazado_238319" data-name="Trazado 238319" d="M-450.46-404.694q4.168-7.284,8.33-14.573c.291-.512.541-.63,1.088-.3,2.168,1.315,4.366,2.581,6.552,3.865-.571.246-.785.817-1.057,1.284q-3.4,5.843-6.738,11.728c-.911,1.606-1.6,1.8-3.161.864C-447.1-402.811-448.787-403.74-450.46-404.694Z" transform="translate(-6.481 -66.48)" fill="#387de1"/>
        <path id="Trazado_238320" data-name="Trazado 238320" d="M-286.35-415.683c2.188-1.281,4.387-2.545,6.556-3.857.545-.33.8-.219,1.088.293q4.15,7.292,8.328,14.568c-1.707.981-3.424,1.946-5.119,2.949-1.293.765-2.182.577-2.928-.721-1.566-2.723-3.057-5.492-4.7-8.17C-284.164-412.327-284.877-414.251-286.35-415.683Z" transform="translate(-124.109 -66.497)" fill="#387de1"/>
        <path id="Trazado_238321" data-name="Trazado 238321" d="M-336.586-493.3c2.917,1.06,3.385,1.729,3.114,4.773-.567,6.372-2.022,12.437-6.257,17.5a19.741,19.741,0,0,1-5.893,4.745,5.917,5.917,0,0,1-6.511-.2,17.783,17.783,0,0,0,7.611-4,24.1,24.1,0,0,0,7.05-12.575C-336.717-486.41-335.789-489.794-336.586-493.3Z" transform="translate(-76.959 -13.761)" fill="#ef7a19"/>
        <path id="Trazado_238322" data-name="Trazado 238322" d="M-456.941-394.442c1.673.954,3.361,1.883,5.014,2.869,1.561.932,2.25.742,3.161-.864q3.338-5.882,6.738-11.728c.272-.467.486-1.039,1.057-1.284,1.437.862,1.255,2.067.711,3.348l-7.852,13.616a5.008,5.008,0,0,0-1.112,1.9c-1.362,1.477-2.088,1.606-3.8.627-1.921-1.1-3.812-2.246-5.754-3.3-.731-.4-.961-.7-.431-1.468C-458.391-391.917-457.692-393.2-456.941-394.442Z" transform="translate(0 -76.732)" fill="#2568d3"/>
        <path id="Trazado_238323" data-name="Trazado 238323" d="M-289.163-405.448c1.473,1.432,2.186,3.357,3.229,5.062,1.639,2.678,3.13,5.447,4.7,8.17.746,1.3,1.635,1.486,2.928.721,1.695-1,3.411-1.968,5.119-2.949.8,1.316,1.578,2.643,2.4,3.945.319.507.268.781-.28,1.088-2.164,1.211-4.288,2.494-6.455,3.7-1.338.744-2.165.487-3.4-.9a6.6,6.6,0,0,0-1.083-1.855l-7.866-13.637C-290.42-403.389-290.594-404.59-289.163-405.448Z" transform="translate(-121.296 -76.732)" fill="#2568d3"/>
        <path id="Trazado_238324" data-name="Trazado 238324" d="M-342.322-496.24c.8,3.509-.131,6.893-.885,10.251a24.1,24.1,0,0,1-7.05,12.575,17.783,17.783,0,0,1-7.611,4,7.369,7.369,0,0,1-2.267-1.43c1.231-.545,2.467-1.079,3.689-1.642.417-.192.888-.337,1.109-.81,2.383.236,4.149-1.041,5.769-2.494,4.179-3.751,5.367-8.777,5.869-14.087a2.486,2.486,0,0,0-1.446-2.769,9.435,9.435,0,0,0,.179-4.01c-.029-.281-.173-.535.127-.741A9.994,9.994,0,0,1-342.322-496.24Z" transform="translate(-71.223 -10.825)" fill="#feaa1e"/>
        <path id="Trazado_238325" data-name="Trazado 238325" d="M-423.214-343.65a5.008,5.008,0,0,1,1.112-1.9c.062.836.8.945,1.351,1.26a11.044,11.044,0,0,1,2.169,1.267c2.051,1.948,3.876,1.151,5.766-.239a6.694,6.694,0,0,1,2.121-1.052,1.875,1.875,0,0,1,2.219.775l-.308.588a1.791,1.791,0,0,0-2.3-.331c-.953.629-.2,1.311,0,1.974a2.825,2.825,0,0,1,.062.556,3.167,3.167,0,0,1-1.473,1.007c-2.079,1.008-3.816,2.969-6.473,2.444a2.108,2.108,0,0,1,.644-2.721c.489-.454.453-.695-.127-1C-420.051-341.883-421.628-342.774-423.214-343.65Z" transform="translate(-26.01 -119.661)" fill="#f1ae98"/>
        <path id="Trazado_238326" data-name="Trazado 238326" d="M-395.089-328.47c.847.055,1.72.04,2.281.857l-.021.583c-.162-.088-.33-.166-.484-.266a1.522,1.522,0,0,0-2.026.177c-.678.654-.1,1.259.22,1.851.13.239.24.489.36.734a45,45,0,0,0-4.762,2.614c-1.734.922-3.283,2.428-5.521,1.906a2.133,2.133,0,0,1,.7-2.817c.263-.2.55-.366.433-.771a3.215,3.215,0,0,0,1.088-.192c2.477-1.473,5.12-2.664,7.452-4.384l.293-.295Z" transform="translate(-38.852 -131.906)" fill="#f1ad97"/>
        <path id="Trazado_238327" data-name="Trazado 238327" d="M-380.5-315.495c.765.6,2.027.048,2.582,1.125a.672.672,0,0,0-.3.591,1.84,1.84,0,0,0-2.316-.324c-.961.63-.207,1.31,0,1.973a2.793,2.793,0,0,1,.06.557c-2.737,1.567-5.081,3.963-8.522,4.046-.564-.712-.1-1.542-.261-2.3l-.012.012.3-.351C-386.22-312.067-382.973-313.166-380.5-315.495Z" transform="translate(-50.331 -141.207)" fill="#f1ad97"/>
        <path id="Trazado_238328" data-name="Trazado 238328" d="M-317.3-315.056q-4.064-2.363-8.129-4.724c-.325-.189-.665-.353-.989-.545-.627-.371-1.047-.815-.566-1.594.517-.838.945-.179,1.384.075,2.93,1.693,5.85,3.4,8.785,5.088a6.32,6.32,0,0,0,4.115,1.2,2.347,2.347,0,0,1-3.138,1.268c-.393-.141-.781-.293-1.172-.44l.009.01Z" transform="translate(-94.834 -136.308)" fill="#f1ad97"/>
        <path id="Trazado_238329" data-name="Trazado 238329" d="M-307.341-329.775c-4.208-.732-7.253-3.775-10.95-5.524a.818.818,0,0,1-.4-1.276c.363-.671.79-.521,1.279-.238,2.518,1.46,5.069,2.869,7.539,4.406a6.331,6.331,0,0,0,4.233,1.195A1.925,1.925,0,0,1-307.341-329.775Z" transform="translate(-100.813 -125.755)" fill="#f1ad97"/>
        <path id="Trazado_238330" data-name="Trazado 238330" d="M-330.314-302.226c-1.7-.989-3.386-1.991-5.1-2.958-.535-.3-1.012-.587-.657-1.292.375-.744.913-.627,1.522-.273,2.6,1.5,5.27,2.887,7.772,4.532,1.017.668,2.163.033,3.048.751-.845,1.365-1.908,1.732-3.274,1.049C-328.123-300.98-329.21-301.621-330.314-302.226Z" transform="translate(-88.386 -147.277)" fill="#f1ae98"/>
        <path id="Trazado_238331" data-name="Trazado 238331" d="M-391.333-322.625c-2.472,2.329-5.719,3.428-8.461,5.328l-.3.351.012-.012a9.074,9.074,0,0,1-1.828.581,2.013,2.013,0,0,1-2.48-1.465c2.238.522,3.786-.985,5.521-1.907a44.965,44.965,0,0,1,4.762-2.613,1.11,1.11,0,0,0,1.622-.155c.726-.67.446-1.527.308-2.342l.021-.583A2.04,2.04,0,0,1-391.333-322.625Z" transform="translate(-39.5 -134.077)" fill="#e59177"/>
        <path id="Trazado_238332" data-name="Trazado 238332" d="M-377.485-310.933a.672.672,0,0,1,.3-.591c1.071.779.87,1.8.54,2.845l.012,0-.276.294c-1.432,1.2-3.228,1.793-4.732,2.872-1.057.62-2.1,1.272-3.175,1.854-1.415.763-2.547.406-3.444-1.02,3.441-.083,5.785-2.478,8.522-4.045.651.238,1.251.584,1.954-.022C-376.99-309.435-377.28-310.166-377.485-310.933Z" transform="translate(-51.062 -144.053)" fill="#e6937a"/>
        <path id="Trazado_238333" data-name="Trazado 238333" d="M-365.757-298.335c1.5-1.079,3.3-1.676,4.732-2.872l.276-.294-.012,0a3.163,3.163,0,0,1,2.561.86.645.645,0,0,0-.29.57,5.231,5.231,0,0,1-.491-.26,1.484,1.484,0,0,0-2.011.25c-.677.623.045,1.077.2,1.594a9.584,9.584,0,0,0,.37.9,4.8,4.8,0,0,0-1.609.822c-1.175.744-2.4,1.282-3.815.655C-366.454-296.877-365.777-297.593-365.757-298.335Z" transform="translate(-66.949 -151.234)" fill="#f1ae98"/>
        <path id="Trazado_238334" data-name="Trazado 238334" d="M-397.47-335.333c-2.331,1.72-4.974,2.911-7.452,4.384a3.215,3.215,0,0,1-1.088.192,1.971,1.971,0,0,1-2.219-1.46c2.657.525,4.394-1.437,6.473-2.444a3.168,3.168,0,0,0,1.473-1.007,1.4,1.4,0,0,0,1.911-.026,1.78,1.78,0,0,0,.328-2.174l.308-.588a2.608,2.608,0,0,1,.546,2.829h.013Z" transform="translate(-36.751 -124.75)" fill="#e59177"/>
        <path id="Trazado_238335" data-name="Trazado 238335" d="M-357.85-297.873a.645.645,0,0,1,.29-.57c1.1.747.857,1.778.6,2.813l-.874,1.111a22.229,22.229,0,0,0-3.684,1.963,2.382,2.382,0,0,1-3.682-1.359c1.416.627,2.641.09,3.815-.655a4.789,4.789,0,0,1,1.608-.821c.568.524,1.1.287,1.6-.105C-357.337-296.172-357.58-297.026-357.85-297.873Z" transform="translate(-67.59 -153.429)" fill="#e6937a"/>
        <path id="Trazado_238336" data-name="Trazado 238336" d="M-276.317-345.508a6.6,6.6,0,0,1,1.083,1.855l-5.35,3.007a2.044,2.044,0,0,1-1.746-.862c1.575-.93,3.156-1.851,4.722-2.8C-277.1-344.612-276.471-344.812-276.317-345.508Z" transform="translate(-126.99 -119.695)" fill="#e6937a"/>
        <path id="Trazado_238337" data-name="Trazado 238337" d="M-339.2-287.4l.874-1.111a4.056,4.056,0,0,1,2.244,1.061,3.849,3.849,0,0,0,3.67.653c-.725,1.672-1.947,2.241-3.459,1.453A16.641,16.641,0,0,1-339.2-287.4Z" transform="translate(-86.231 -160.549)" fill="#f1ae98"/>
        <path id="Trazado_238338" data-name="Trazado 238338" d="M-364.538-374.4c.277.8,1.473,1.541.011,2.423-1.758,1.06-2.515,1.022-3.7-.436C-367.027-373.135-366-374.161-364.538-374.4Z" transform="translate(-65.426 -98.987)" fill="#fccebc"/>
        <path id="Trazado_238339" data-name="Trazado 238339" d="M-292.267-296.648l.3.341Z" transform="translate(-119.868 -154.716)" fill="#f7f9fa"/>
        <path id="Trazado_238340" data-name="Trazado 238340" d="M-372.723-474.241c-3.335-3.005-4.64-6.983-5.289-11.236-.806-5.278-.383-4.451,3.458-6.3,1.862-.9,3.762-1.72,5.609-2.647a2.831,2.831,0,0,1,2.808.007c1.2.634,2.449,1.188,3.677,1.776a26.552,26.552,0,0,1-.282,4.727,3.868,3.868,0,0,0-1.2,1.171c-1.243,1.652-2.541,3.263-3.727,4.954-.537.766-.88.734-1.478.108a22.434,22.434,0,0,0-2.2-1.977,1.281,1.281,0,0,0-1.8.076,1.191,1.191,0,0,0-.2,1.768c1.656,1.568,3.09,3.416,5.221,4.427-.053.687-.59,1-1.055,1.37A12.442,12.442,0,0,1-372.723-474.241Z" transform="translate(-58.164 -12.691)" fill="#eff0ef"/>
        <path id="Trazado_238341" data-name="Trazado 238341" d="M-348.493-482.472a26.558,26.558,0,0,0,.282-4.727l4.258,1.862a2.486,2.486,0,0,1,1.446,2.769c-.5,5.31-1.69,10.336-5.869,14.087-1.62,1.453-3.385,2.731-5.769,2.494a11.133,11.133,0,0,1-4.328-2.808,12.444,12.444,0,0,0,3.551-1.779c.465-.371,1-.683,1.055-1.37a2.43,2.43,0,0,0,1.362-.936c1.751-2.331,3.536-4.635,5.274-6.974C-346.169-481.285-346.658-482.259-348.493-482.472Z" transform="translate(-72.413 -18.136)" fill="#e5e5e5"/>
        <path id="Trazado_238342" data-name="Trazado 238342" d="M-389.172-469.008c.02-.42.041-.858.527-.9.507-.039.532.412.615.784a46.461,46.461,0,0,0,1.927,7.336,24.044,24.044,0,0,0,4.193,6.813c.3.348,1.023.717.395,1.235-.482.4-.968-.083-1.316-.482a25.686,25.686,0,0,1-5.456-10.559C-388.657-466.178-388.885-467.617-389.172-469.008Z" transform="translate(-50.41 -30.531)" fill="#fec61c"/>
        <path id="Trazado_238343" data-name="Trazado 238343" d="M-388.974-478.346c-.044.3-.177.56-.495.575-.4.019-.563-.275-.559-.629a.524.524,0,0,1,.484-.568C-389.14-478.99-389.01-478.69-388.974-478.346Z" transform="translate(-49.797 -24.035)" fill="#fec61c"/>
        <path id="Trazado_238344" data-name="Trazado 238344" d="M-379.3-337.956a1.78,1.78,0,0,1-.328,2.174,1.4,1.4,0,0,1-1.911.025,2.825,2.825,0,0,0-.062-.556c-.208-.663-.957-1.346,0-1.974A1.791,1.791,0,0,1-379.3-337.956Z" transform="translate(-55.498 -124.661)" fill="#fccebc"/>
        <path id="Trazado_238345" data-name="Trazado 238345" d="M-368.426-324.825c.138.814.417,1.672-.308,2.342a1.11,1.11,0,0,1-1.622.156c-.119-.245-.23-.5-.36-.734-.321-.593-.9-1.2-.22-1.851a1.522,1.522,0,0,1,2.026-.177C-368.757-324.991-368.588-324.913-368.426-324.825Z" transform="translate(-63.254 -134.111)" fill="#fccebc"/>
        <path id="Trazado_238346" data-name="Trazado 238346" d="M-370.242-328.176l.293-.295Z" transform="translate(-63.978 -131.906)" fill="#fac3ad"/>
        <path id="Trazado_238347" data-name="Trazado 238347" d="M-357.279-310.985c.205.768.5,1.5-.3,2.185-.7.606-1.3.259-1.954.022a2.794,2.794,0,0,0-.06-.558c-.207-.663-.961-1.343,0-1.973A1.84,1.84,0,0,1-357.279-310.985Z" transform="translate(-71.268 -144.001)" fill="#fccebc"/>
        <path id="Trazado_238348" data-name="Trazado 238348" d="M-389.227-296.333l.3-.351Z" transform="translate(-50.371 -154.69)" fill="#f7f9fa"/>
        <path id="Trazado_238349" data-name="Trazado 238349" d="M-347.911-301.489l-.276.294Z" transform="translate(-79.787 -151.246)" fill="#fac3ad"/>
        <path id="Trazado_238350" data-name="Trazado 238350" d="M-346.294-297.816c.27.847.513,1.7-.334,2.377-.491.392-1.028.629-1.6.105-.125-.3-.276-.589-.37-.9-.158-.517-.879-.971-.2-1.594a1.484,1.484,0,0,1,2.011-.25A5.239,5.239,0,0,0-346.294-297.816Z" transform="translate(-79.145 -153.486)" fill="#fccebc"/>
        <path id="Trazado_238351" data-name="Trazado 238351" d="M-350.841-470.51c1.835.213,2.324,1.187,1.261,2.618-1.738,2.34-3.523,4.644-5.274,6.974a2.431,2.431,0,0,1-1.362.936c-2.131-1.011-3.565-2.858-5.221-4.427a1.191,1.191,0,0,1,.2-1.768,1.281,1.281,0,0,1,1.8-.076,22.434,22.434,0,0,1,2.2,1.977c.6.625.941.657,1.478-.108,1.186-1.691,2.484-3.3,3.727-4.954A3.868,3.868,0,0,1-350.841-470.51Z" transform="translate(-70.065 -30.098)" fill="#444345"/>
      </g>
    </g>
  </g>
</svg>
