<svg xmlns="http://www.w3.org/2000/svg" xmlns:xlink="http://www.w3.org/1999/xlink" width="118" height="118" viewBox="0 0 118 118">
  <defs>
    <clipPath id="clip-path">
      <circle id="Elipse_7381" data-name="Elipse 7381" cx="52.262" cy="52.262" r="52.262" transform="translate(0 0)" fill="none" stroke="#707070" stroke-width="1"/>
    </clipPath>
  </defs>
  <g id="Grupo_877462" data-name="Grupo 877462" transform="translate(2634 7786)">
    <g id="Elipse_7427" data-name="Elipse 7427" transform="translate(-2634 -7786)" fill="#f4f4f4" stroke="#fff" stroke-width="4">
      <circle cx="59" cy="59" r="59" stroke="none"/>
      <circle cx="59" cy="59" r="57" fill="none"/>
    </g>
    <g id="Grupo_877034" data-name="Grupo 877034" transform="translate(-3234.832 -11559.832)">
      <g id="Enmascarar_grupo_700350" data-name="Enmascarar grupo 700350" transform="translate(606.832 3780.833)" clip-path="url(#clip-path)">
        <g id="Grupo_877038" data-name="Grupo 877038" transform="translate(-894.669 466.187)">
          <path id="Trazado_238310" data-name="Trazado 238310" d="M947.052-376.64a3.449,3.449,0,0,1-1.578-.169c-10.079-3.468-18.6-8.98-24.109-18.423-3.523-6.037-5.094-12.654-5.787-19.534a150.124,150.124,0,0,1-.285-18.789,7.767,7.767,0,0,1,7.162-7.528c5.793-.46,11.316-1.72,16.257-4.95a37.387,37.387,0,0,0,4.678-3.705,4.7,4.7,0,0,1,3.663-1.484q0,9.3,0,18.608c-.772.078-1.549.125-2.317.238-7.615,1.117-12.924,5.266-15.388,12.523-2.4,7.085-.809,13.537,4.36,18.972,3.6,3.787,8.2,5.408,13.345,5.632Z" transform="translate(0 0)" fill="#01db7f"/>
          <path id="Trazado_238311" data-name="Trazado 238311" d="M1024.432-376.622l0-18.608-.024-.1c9.868.265,18.356-8.192,18.5-18.433.144-10.224-8.52-18.992-18.5-18.724l.024-.1q0-9.3,0-18.608a4.512,4.512,0,0,1,3.482,1.543,30.282,30.282,0,0,0,17.191,8.178c1.249.172,2.513.243,3.766.392a7.87,7.87,0,0,1,7.068,7.627c.247,7.918.394,15.833-.961,23.688-2.729,15.814-11.87,26.293-26.664,32.06C1027.064-377.228,1025.859-376.51,1024.432-376.622Z" transform="translate(-77.38 -0.018)" fill="#01a861"/>
          <path id="Trazado_238312" data-name="Trazado 238312" d="M978.874-350.055c-5.147-.224-9.744-1.845-13.345-5.632-5.169-5.435-6.765-11.888-4.36-18.972,2.464-7.258,7.773-11.407,15.388-12.523.768-.113,1.544-.16,2.317-.238l-.024.1q.042,8.892.084,17.784l-.365.791a11.968,11.968,0,0,0-2.218,2.075c-.6.611-1.076.7-1.683.02a9.822,9.822,0,0,0-1.789-1.694,2.1,2.1,0,0,0-2.905.2,1.928,1.928,0,0,0,.057,2.964c1.269,1.335,2.568,2.644,3.91,3.906a2.069,2.069,0,0,0,3.113.014c.62-.536,1.218-1.1,1.826-1.646l-.029,12.743Z" transform="translate(-31.819 -45.193)" fill="#fcfdfd"/>
          <path id="Trazado_238313" data-name="Trazado 238313" d="M1024.5-369.295q-.042-8.892-.084-17.784c9.98-.268,18.644,8.5,18.5,18.724-.144,10.241-8.632,18.7-18.5,18.433q.015-6.371.029-12.743v-.3c2.761-2.724,5.541-5.429,8.274-8.182a2.05,2.05,0,0,0,.122-3.013,2.015,2.015,0,0,0-2.874-.356,8.349,8.349,0,0,0-1.1.947C1027.4-372.148,1025.951-370.72,1024.5-369.295Z" transform="translate(-77.38 -45.431)" fill="#dfeaee"/>
          <path id="Trazado_238314" data-name="Trazado 238314" d="M1001.288-318.086v.3c-.608.55-1.206,1.11-1.826,1.646a2.069,2.069,0,0,1-3.113-.014c-1.342-1.261-2.641-2.571-3.91-3.906a1.928,1.928,0,0,1-.057-2.964,2.1,2.1,0,0,1,2.905-.2,9.822,9.822,0,0,1,1.789,1.694c.607.677,1.08.591,1.683-.02a11.968,11.968,0,0,1,2.218-2.075C1001.618-321.81,1001.082-319.927,1001.288-318.086Z" transform="translate(-54.226 -90.308)" fill="#b2d0d6"/>
          <path id="Trazado_238315" data-name="Trazado 238315" d="M1023.761-333.536c-.206-1.841.331-3.724-.311-5.541l.365-.791c1.455-1.425,2.906-2.853,4.368-4.272a8.355,8.355,0,0,1,1.1-.947,2.015,2.015,0,0,1,2.874.356,2.05,2.05,0,0,1-.122,3.013C1029.3-338.965,1026.522-336.26,1023.761-333.536Z" transform="translate(-76.699 -74.858)" fill="#71a4a9"/>
        </g>
      </g>
    </g>
  </g>
</svg>
