<svg xmlns="http://www.w3.org/2000/svg" width="400" height="346.356" viewBox="0 0 400 346.356">
  <g id="Grupo_877173" data-name="Grupo 877173" transform="translate(-3817.475 1456.714)">
    <g id="Grupo_877178" data-name="Grupo 877178" transform="translate(3817.475 -1456.714)">
      <path id="Trazado_238570" data-name="Trazado 238570" d="M3923.735-1197.172l134.02,31.221,135.646-31.221-119.5-25.178Z" transform="translate(-3854.372 1375.336)" fill="#af871e"/>
      <g id="Grupo_877174" data-name="Grupo 877174" transform="translate(291.526 6.492)">
        <path id="Trazado_238571" data-name="Trazado 238571" d="M4267.156-1321.9a187.669,187.669,0,0,1-1-61.749,74.431,74.431,0,0,1,3.97-16.262c7.476-19.014,26.293-31.165,39.644-46.858-1.568-.373,10.761,39.239,8.149,49.738-4.1,16.493-5.337,21-10.342,30.643-9.644,18.591-23.876,35.443-42.674,45.463" transform="translate(-4264.074 1446.768)" fill="#efa7ca"/>
        <path id="Trazado_238572" data-name="Trazado 238572" d="M4316.71-1428.9c-1.49,10.244-3,20.546-6.071,30.461a81.178,81.178,0,0,1-6.059,14.607c-2.484,4.6-5.253,9.031-7.011,13.982a61.916,61.916,0,0,0-3.2,17.168h.479q-.033-.52-.067-1.038c-.02-.307-.5-.309-.479,0q.034.519.067,1.038a.24.24,0,0,0,.479,0,63.076,63.076,0,0,1,2.707-15.627c1.64-5.121,4.353-9.677,6.935-14.357,4.976-9.019,7.91-18.854,9.887-28.923,1.117-5.7,1.959-11.44,2.795-17.184.044-.3-.418-.432-.462-.127Z" transform="translate(-4274.57 1440.623)" fill="#fff"/>
        <path id="Trazado_238573" data-name="Trazado 238573" d="M4305.431-1365.914a35.078,35.078,0,0,1-.513-24.577c.1-.291-.361-.416-.462-.127a35.493,35.493,0,0,0,.512,24.832c.113.283.577.159.463-.127Z" transform="translate(-4277.404 1427.328)" fill="#fff"/>
        <path id="Trazado_238574" data-name="Trazado 238574" d="M4318.281-1382.172a22.466,22.466,0,0,0,12.6-12.049c.119-.281-.294-.525-.414-.242a22,22,0,0,1-12.316,11.828c-.285.109-.161.574.127.463Z" transform="translate(-4282.797 1428.649)" fill="#fff"/>
      </g>
      <path id="Trazado_238575" data-name="Trazado 238575" d="M4293.935-1202.817c1.431-11.5,11.307-21.525,23.084-23.425,12.311-1.986,24.459,4.171,34.425,11.461s19.1,16.045,30.648,20.645c-5.545,6.336-11.453,12.926-19.486,15.813-12.131,4.361-25.638-.876-36.665-7.444s-21.636-14.738-34.381-16.9" transform="translate(-3982.093 1376.818)" fill="#b6a2ce"/>
      <path id="Trazado_238576" data-name="Trazado 238576" d="M4250.108-1243.112c-.659-35.167,19.234-70.025,50.3-88.14,11.5-6.709,24.265-11.2,37.274-14.4,5.627-1.385,12.227-3.3,14.06-8.643-1.659,2.856-3.89,11.271-3.6,15.62,1.379,20.537-4.336,37.535-15.739,54.887a100.762,100.762,0,0,1-48.386,38.493,63.142,63.142,0,0,1-14.733,3.836c-7.118.846-14.388.011-21.465,1.14-.991.158-1.967,1.677-.964,1.709" transform="translate(-3966.423 1421.15)" fill="#45398e"/>
      <path id="Trazado_238577" data-name="Trazado 238577" d="M4296.657-1267.924a61,61,0,0,0,26.095-15.6,116.479,116.479,0,0,0,10.653-13.26c1.739-2.387,3.465-4.789,5-7.316,1.445-2.385,2.7-4.877,3.981-7.349a64.586,64.586,0,0,1,4.651-7.916,33.532,33.532,0,0,1,6.732-6.957c.244-.189-.1-.526-.338-.339a38.706,38.706,0,0,0-10.113,12.429c-1.308,2.4-2.508,4.855-3.817,7.254a74.377,74.377,0,0,1-4.54,7.22,150.727,150.727,0,0,1-10.662,13.886,59.5,59.5,0,0,1-11.91,10.188,61.1,61.1,0,0,1-15.855,7.3.24.24,0,0,0,.127.462Z" transform="translate(-3983.76 1411.575)" fill="#fff"/>
      <path id="Trazado_238578" data-name="Trazado 238578" d="M4331.877-1273.077a131.4,131.4,0,0,1,1.054-16.966c.631-4.926,1.522-10.1,4.706-14.087.191-.238-.147-.579-.338-.339-3.065,3.842-4.077,8.711-4.72,13.471a131.717,131.717,0,0,0-1.18,17.921.24.24,0,0,0,.479,0Z" transform="translate(-3995.925 1403.878)" fill="#fff"/>
      <path id="Trazado_238579" data-name="Trazado 238579" d="M4331.666-1260.081a36.8,36.8,0,0,0,27.483-8.139c.237-.2-.1-.535-.339-.339a36.332,36.332,0,0,1-27.145,8c-.307-.035-.3.445,0,.48Z" transform="translate(-3995.939 1391.401)" fill="#fff"/>
      <path id="Trazado_238580" data-name="Trazado 238580" d="M4355.862-1297.106a83.3,83.3,0,0,1-.607-11.034c-.033-3.295.077-6.683,1.6-9.679.14-.275-.273-.518-.413-.242-1.521,2.989-1.7,6.347-1.67,9.64a84.582,84.582,0,0,0,.627,11.443c.043.3.506.175.462-.127Z" transform="translate(-4004.042 1408.611)" fill="#fff"/>
      <path id="Trazado_238581" data-name="Trazado 238581" d="M4356.357-1290.018a2.677,2.677,0,0,1,1.365.036,5.8,5.8,0,0,0,1.325-.007,9.877,9.877,0,0,0,2.1-.506,39.629,39.629,0,0,0,4.36-1.865,50.864,50.864,0,0,0,8.262-5.061c.2-.147.093-.543-.185-.438l-.9.34c-.286.108-.162.571.127.462l.9-.34-.184-.438a50.8,50.8,0,0,1-8.261,5.06,33.5,33.5,0,0,1-4.676,1.96,7.172,7.172,0,0,1-2.57.38c-.685-.044-1.257-.306-1.9,0-.279.133-.036.546.241.414Z" transform="translate(-4004.466 1401.561)" fill="#fff"/>
      <path id="Trazado_238582" data-name="Trazado 238582" d="M4315.242-1208.562c4.012-2.3,8.792-1.989,13.143-.985,2.212.51,4.405,1.148,6.577,1.808a28.1,28.1,0,0,1,6.111,2.538c6.492,3.8,10.743,10.4,17.156,14.318a25.045,25.045,0,0,0,13.532,3.6.24.24,0,0,0,0-.48,24.568,24.568,0,0,1-13.074-3.4,49.73,49.73,0,0,1-8.918-7.483,44.437,44.437,0,0,0-8.671-7.092,28.57,28.57,0,0,0-5.865-2.417c-2.169-.665-4.363-1.3-6.573-1.817-4.522-1.059-9.488-1.4-13.661,1a.24.24,0,0,0,.243.414Z" transform="translate(-3990.191 1371.319)" fill="#fff"/>
      <path id="Trazado_238583" data-name="Trazado 238583" d="M4349.731-1204.481c-.009,6.254,4.01,11.377,8.3,15.519.223.215.562-.124.339-.339-4.195-4.053-8.165-9.052-8.158-15.18a.24.24,0,0,0-.479,0Z" transform="translate(-4002.291 1369.211)" fill="#fff"/>
      <path id="Trazado_238584" data-name="Trazado 238584" d="M4350.038-1204.748a24.366,24.366,0,0,1,18.332,3.055c.262.165.5-.251.242-.414a24.857,24.857,0,0,0-18.7-3.1c-.3.07-.172.532.128.462Z" transform="translate(-4002.294 1369.604)" fill="#fff"/>
      <g id="Grupo_877175" data-name="Grupo 877175" transform="translate(10.604 155.986)">
        <path id="Trazado_238585" data-name="Trazado 238585" d="M3927.8-1199.015c-10.106-7.474-21.457-13.563-33.765-16.627s-25.628-2.973-37.479,1.479c-5.511,2.071-10.843,5.234-13.971,10.1a30.305,30.305,0,0,0-3.523,8.938,97.729,97.729,0,0,0-2.819,31.746c.289,3.813.527,8.307-2.526,10.723,7.136,4.773,17.19,2.627,24.34-2.125s12.439-11.66,18.859-17.31a67.691,67.691,0,0,1,53.43-15.764l-2.673-10.986" transform="translate(-3833.72 1217.753)" fill="#dd1c72"/>
        <path id="Trazado_238586" data-name="Trazado 238586" d="M3851.967-1154.259c8.437-5.679,5.679-17.535,10.433-25.356,5.292-8.7,16.395-11.071,25.841-10.9,6.424.118,12.832,1.052,19.21,1.765.306.034.3-.446,0-.48-5.754-.642-11.52-1.443-17.308-1.7a42.727,42.727,0,0,0-15.617,1.746,24.35,24.35,0,0,0-10.887,7.043c-3.235,3.828-4.191,8.593-5.051,13.395-.924,5.166-2.215,10.945-6.862,14.073-.255.172-.015.587.242.414Z" transform="translate(-3839.934 1208.464)" fill="#fff"/>
        <path id="Trazado_238587" data-name="Trazado 238587" d="M3894.335-1190.451c-1.982.069-3.339,1.778-4.458,3.225a23.974,23.974,0,0,0-3.11,5.328,24.128,24.128,0,0,0-1.68,6.081,23.473,23.473,0,0,0-.223,2.947c-.006.569.009,1.14.047,1.708.02.312-.01.6.243.8a.245.245,0,0,0,.29.038.32.32,0,0,0,.177-.335.249.249,0,0,0-.24-.24l-.055-.007c-.305-.039-.3.441,0,.48l.055.007-.24-.24.061-.079.291.038c-.219-.179-.138-1.137-.144-1.385q-.014-.657.007-1.315a23.033,23.033,0,0,1,.27-2.814,23.638,23.638,0,0,1,1.452-5.194,23.751,23.751,0,0,1,2.641-4.808c1.075-1.512,2.571-3.689,4.616-3.76.307-.01.308-.49,0-.479Z" transform="translate(-3851.479 1208.273)" fill="#fff"/>
        <path id="Trazado_238588" data-name="Trazado 238588" d="M3868.338-1184.179a15.353,15.353,0,0,0-17.924,5.727c-.173.256.242.5.414.242a14.874,14.874,0,0,1,17.383-5.506c.291.105.416-.358.127-.462Z" transform="translate(-3839.502 1206.416)" fill="#fff"/>
      </g>
      <path id="Trazado_238589" data-name="Trazado 238589" d="M3987.067-1312.87l-18.409-7.577a150.236,150.236,0,0,1-19.214-8.989,77.173,77.173,0,0,1-33-40.034,84.085,84.085,0,0,1-1.391-51.472c3.633-12.66,10.013-24.4,16.809-35.772,1.24,4.415,3.8,8.359,6.391,12.182,10.694,15.778,22.561,30.824,32.344,47.148s17.519,34.233,18.975,53.064c.918,11.879-.686,23.839-3.5,35.434-.084.35-.25.771-.618.808s-.388-.716-.056-.557" transform="translate(-3850.189 1456.714)" fill="#45398e"/>
      <g id="Grupo_877176" data-name="Grupo 877176" transform="translate(0 36.346)">
        <path id="Trazado_238590" data-name="Trazado 238590" d="M3944.532-1247.3c-4.516.526-9.082-.268-13.511-1.269a140.727,140.727,0,0,1-63.472-33,134.683,134.683,0,0,1-37.84-59.455c-5.429-17.625-9.815-59.753-12.234-60.009,2.752,4.276,4.54,8.26,8.6,10.881,9.445,6.1,20.218,9.914,30.468,14.634,25.947,11.948,49.33,30.547,62.744,55.193,6.134,11.27,10.068,23.521,13.969,35.691q5.77,18,11.538,35.993a1.5,1.5,0,0,1-.048,1.45c-.338.385-1.219-.012-.929-.433" transform="translate(-3817.475 1401.034)" fill="#b6a2ce"/>
        <path id="Trazado_238591" data-name="Trazado 238591" d="M3893.1-1282.193a161.806,161.806,0,0,0-20.771-48.376,164.414,164.414,0,0,0-15.81-20.884c-5.821-6.532-12.315-12.364-18.535-18.5-6.833-6.742-13.379-14.1-16.978-23.134-.113-.283-.576-.159-.462.128,6.393,16.042,21.219,26.432,32.684,38.621a163.67,163.67,0,0,1,29.581,44.019,159.545,159.545,0,0,1,9.83,28.253c.073.3.536.173.462-.127Z" transform="translate(-3818.534 1398.33)" fill="#fff"/>
        <path id="Trazado_238592" data-name="Trazado 238592" d="M3840.894-1326a160.689,160.689,0,0,0,30.126,10.6q4.494,1.093,9.046,1.924a.243.243,0,0,0,.3-.231,59.49,59.49,0,0,0-7.336-27.538,59.83,59.83,0,0,0-4.551-7.049c-.182-.244-.6-.005-.414.242a59.507,59.507,0,0,1,11.1,26.12,57.834,57.834,0,0,1,.717,8.224l.3-.231a160.936,160.936,0,0,1-30.521-8.774q-4.322-1.723-8.537-3.7c-.278-.13-.521.283-.242.414Z" transform="translate(-3825.564 1382.756)" fill="#fff"/>
        <path id="Trazado_238593" data-name="Trazado 238593" d="M3871.371-1265.038a34.151,34.151,0,0,0,11.641,5.917,140.528,140.528,0,0,0,14.3,3.656c1.412.289,2.832.538,4.261.729q1.094.146,2.193.242c.367.031.734.058,1.1.079.157.009.315.014.473.024,0,0,1.276.191.746.459-.275.14-.033.554.242.415a.667.667,0,0,0-.068-1.2,3.164,3.164,0,0,0-1.235-.166c-.735-.04-1.469-.1-2.2-.179a69.877,69.877,0,0,1-8.779-1.62,99.844,99.844,0,0,1-14.864-4.321,28.9,28.9,0,0,1-7.476-4.37c-.236-.2-.577.142-.339.339Z" transform="translate(-3836.161 1353.95)" fill="#fff"/>
        <path id="Trazado_238594" data-name="Trazado 238594" d="M3923.927-1269.188a83.054,83.054,0,0,0,1.089-30.668,83.173,83.173,0,0,0-1.82-8.729.24.24,0,0,0-.462.127,82.569,82.569,0,0,1,.731,39.142c-.068.3.395.429.462.128Z" transform="translate(-3854.021 1368.992)" fill="#fff"/>
      </g>
      <g id="Grupo_877177" data-name="Grupo 877177" transform="translate(69.083 3.498)">
        <path id="Trazado_238595" data-name="Trazado 238595" d="M4185.9-1326.449c0,68.983-58.792,124.908-131.3,124.908s-131.3-55.925-131.3-124.908,58.782-124.906,131.3-124.906S4185.9-1395.434,4185.9-1326.449Z" transform="translate(-3923.306 1451.355)" fill="#d6d8e6"/>
        <path id="Trazado_238596" data-name="Trazado 238596" d="M4093.283-1448.761c-2.941,8.376,11.732,1.992,14.666,2.79,4.186,1.2,5.032,5.979,9.225,6.78,5.867,1.2,5.867-3.191,9.641,2.4,1.255,1.591,3.345,7.973,4.187,10.362,1.679,5.585,1.25,4.785-4.607,7.182-2.94,1.191-8.807,1.593-11.747,3.987-2.513,1.992-1.246,8.771-7.533,4.383-4.613,4.388-2.939,18.343-11.746,10.767-1.675-1.994-5.862-7.977-6.7-9.966-2.1-5.583,2.1-5.583,2.512-10.371,0-1.592-2.1-2.792-2.512-4.383,0-.4.838-6.383,1.253-5.583-1.673-3.59-8.8-3.192-9.638-6.379-.421-1.2,3.353-9.175,4.2-9.973,2.089-1.593,6.7-1.193,8.374-.794" transform="translate(-3977.802 1450.454)" fill="#8d95ba"/>
        <path id="Trazado_238597" data-name="Trazado 238597" d="M3927.546-1348.722c-1.225,4.519-1.734,11.339-1.734,16.523-.412,6.38-2.266,16.448,2.52,17.15,5.028.793,3.36-3.99,4.193-6.383,4.615,2.394,1.675,4.786,2.514,7.976s2.512,5.187,5.035,7.577c5.446,5.98,9.217,5.181,16.762,7.177,6.7,1.6,7.96,6.775,13.835,9.574,7.54,3.184,10.054,2.79,8.8,11.161-2.1,9.169.839,17.946,8.386,24.724,4.194,3.588,9.22,1.993,12.579,4.385,4.6,2.793,2.925,6.782,4.186,11.169,2.927,8.371,10.061,16.345,14.246,23.922,3.775,7.575,12.573,13.957,21.38,15.551h0a39.073,39.073,0,0,1-9.22-9.172c-2.513-3.588-4.191-7.972-.84-11.562,2.094-1.6,5.866-.8,7.545-2.791,1.253-1.6,0-3.988.834-5.982,2.1-5.186,5.452-6.381,9.226-9.173,5.866-3.984,3.776-3.984,4.615-9.97,1.673-9.569,16.765-12.756,3.351-21.133-7.126-4.388-17.607-6.775-25.991-6.775-.84-12.364-12.986-9.97-22.633-13.56-4.612-1.993-9.218-3.592-13.831-5.583-6.707-2.389-10.061-5.58-12.994,2.392-3.767-1.192-8.8,2.8-11.314-1.593-2.1-3.188,2.929-7.178,0-10.369-3.772-3.987-5.872,1.6-7.97-4.781-1.261-3.2,2.512-9.569-3.769-9.175-.832,13.557-11.317,2-11.738-5.184-.416-6.378,3.772-5.184,7.958-6.778,2.1-.8,6.712-4.789,8.805-3.988.841.4,8.8,23.128,9.228,7.576,0-3.588-4.2-7.975-2.1-11.564s6.7-1.593,9.22-3.583c3.352-2.8,4.613-8.38,7.966-11.17,3.775-3.189,8.378-7.179,12.578-9.568,3.774-2.791,8.8-1.2,12.574-3.589,5.034-3.593,1.672-7.18,8.807-7.18,5.026.407,7.12,4.391,7.538-3.18a16.249,16.249,0,0,0-3.352-8.78c-3.362-3.583-6.293-7.172-9.219-10.765-4.614-5.186-5.875-.4-9.228-3.19-1.26-.8-6.707-9.967-2.086-9.568,2.507.395,2.926,4.783,5.439,4.783,2.1,0,2.1-2.792,2.934-3.191,2.1-.793,7.974-3.19,8.8-5.18,1.262-4.388-5.026-5.588-6.7-7.979-2.1-2.389-1.262-2.389-2.1-4.787-.833-1.593.421-2.392-.833-3.983s-6.287,1.2-5.872-1.995c.418-1.6,4.62-1.6,5.444-1.995,12.16-5.58-3.347-9.568-6.286-4.781C4005.034-1437.065,3947.2-1421.319,3927.546-1348.722Z" transform="translate(-3923.934 1447.135)" fill="#8d95ba"/>
        <path id="Trazado_238598" data-name="Trazado 238598" d="M4234.928-1404.118c0-7.98-30.318-11.081-21.1,4.87,3.36,5.182,3.36,2.79,2.514,7.572-.412,2-3.354.4-2.514,3.589,0,1.6,3.772,3.994,5.033,4.39,7.127,3.589,10.474.4,15.094,8.372h0l.412-.4v.4c-7.125.8-13.833,3.59-15.505,10.766-7.127,1.2-4.194-5.58-5.874-9.168-2.092-5.186-9.219-7.578-12.571-2-5.448,10.37,16.344,15.155,13.832,22.727-5.446-1.593-9.22-.792-9.22,4.788.422.8,2.517,3.188,2.928,4.782.427,2.4-1.667,3.987-.833,6.782,5.864,14.353,15.924-8.774,20.119-10.765,7.552-3.59,25.159,8.769,12.576,11.961-5.451,1.2-6.709-3.991-11.745-3.991-5.858,0-5.026,6.782-9.212,9.172-4.613,2.4-7.966-.394-11.738,4.787-2.513,3.59-2.935,7.977-5.866,11.568-2.933,3.981-7.548,6.775-7.969,11.957-.417,4.785,2.941,7.975,3.776,12.363.838,5.182-2.1,6.78,2.521,11.163,2.93,2.391,8.8,5.582,12.15,5.186,4.2-.4,7.541-3.189,12.156-3.189,2.931,0,10.9-2.393,12.159-1.6,4.19,1.6,2.512,5.581,1.672,8.375-1.259,4.383-2.515,7.573-2.927,12.356-.839,5.987,2.458,8.206-5.873,21.933-2.254,3.721-18.026,16.352-12.991,21.53,4.185,4.39,20.643-7.113,23.983-9.9,6.721-6.776,16.234-15.546,21.665-25.354,4.461-8.049,9.568-17.229,11.668-26,3.774-15.15,8.364-32.434,5.327-50.722-2.421-14.617-6.893-32.36-15.287-45.122-5.444-8.374-7.544-12.758-14.659-20.336-5.252-5.582-6.58-10.45-13.7-12.843" transform="translate(-4017.039 1437.228)" fill="#8d95ba"/>
      </g>
      <path id="Trazado_238599" data-name="Trazado 238599" d="M4176.4-1404.92c-1.021-3.573-.261-6.09,2.629-8.658s8.148-2.9,12-1.843a6.359,6.359,0,0,1,3.488-6.619,7.583,7.583,0,0,1,7.946.858c-.912-7.1,4.893-14.378,12.529-15.718s15.95,3.463,17.947,10.37a8.317,8.317,0,0,1,8.28,1.054,6.767,6.767,0,0,1,2.192,7.414,9.855,9.855,0,0,1,7.452,4.831,8.4,8.4,0,0,1-.237,8.379c-21.783.174-71.607.107-74.226-.069" transform="translate(-3941.957 1449.911)" fill="#fff"/>
      <path id="Trazado_238600" data-name="Trazado 238600" d="M3935.946-1336.363a5.923,5.923,0,0,1-.609-6.59,7.023,7.023,0,0,1,6.2-3.353c-3.025-4.89-1.057-11.844,4.176-14.759s12.851-1.3,16.166,3.428a5.231,5.231,0,0,1,4.825-3.99,5.366,5.366,0,0,1,5.313,3.428,16.483,16.483,0,0,1,5.851-2.3,18.849,18.849,0,0,1,16.491,4.862,15.452,15.452,0,0,1,3.875,15.516c.674-1.158,2.622-.824,3.757-.026,1.4.986,2.439,2.8,1.573,4.217,0,0-44.747-.6-67.294-.044" transform="translate(-3858.148 1424.008)" fill="#fff"/>
      <path id="Trazado_238601" data-name="Trazado 238601" d="M3922.9-1183.779l-1.567,129.921,136.175,38.271v-136.971Z" transform="translate(-3853.539 1361.942)" fill="#c5b077"/>
      <path id="Trazado_238602" data-name="Trazado 238602" d="M4264.691-1183.779l1.568,129.921-137.213,38.271v-136.971Z" transform="translate(-3925.662 1361.942)" fill="#ffe89f"/>
      <path id="Trazado_238603" data-name="Trazado 238603" d="M3863.637-1126.372l39.23-57.407,134.02,31.221-39.894,58.918Z" transform="translate(-3833.504 1361.942)" fill="#fff6dc"/>
      <path id="Trazado_238604" data-name="Trazado 238604" d="M4170.618-1093.64l-41.572-58.918,135.646-31.221,40.17,53.378Z" transform="translate(-3925.662 1361.942)" fill="#fff6dc"/>
    </g>
  </g>
</svg>
