<svg xmlns="http://www.w3.org/2000/svg" width="1240" height="352" viewBox="0 0 1240 352">
  <g id="Grupo_877445" data-name="Grupo 877445" transform="translate(-180 -3882)">
    <path id="Trazado_237628" data-name="Trazado 237628" d="M14,0H1226a14,14,0,0,1,14,14V338a14,14,0,0,1-14,14H14A14,14,0,0,1,0,338V14A14,14,0,0,1,14,0Z" transform="translate(180 3882)" fill="#c29fff" opacity="0.75"/>
    <path id="Trazado_237629" data-name="Trazado 237629" d="M13,0H763a13,13,0,0,1,13,13V263a13,13,0,0,1-13,13H13A13,13,0,0,1,0,263V13A13,13,0,0,1,13,0Z" transform="translate(197 3901)" fill="#ebe3f9" opacity="0.999"/>
    <path id="Trazado_237672" data-name="Trazado 237672" d="M-132.625,0V-11.375h3.211a5.169,5.169,0,0,1,2.625.656,4.438,4.438,0,0,1,1.762,1.867A6.078,6.078,0,0,1-124.4-6.07v.727a6.1,6.1,0,0,1-.621,2.82,4.369,4.369,0,0,1-1.773,1.859A5.5,5.5,0,0,1-129.477,0Zm1.5-10.148v8.922h1.578a3.434,3.434,0,0,0,2.7-1.079,4.458,4.458,0,0,0,.965-3.073v-.665a4.529,4.529,0,0,0-.91-3.014,3.239,3.239,0,0,0-2.582-1.091Zm12.273,10.3a3.693,3.693,0,0,1-2.8-1.129,4.19,4.19,0,0,1-1.078-3.02v-.266a5.073,5.073,0,0,1,.48-2.246A3.748,3.748,0,0,1-120.9-8.051a3.378,3.378,0,0,1,1.871-.559,3.166,3.166,0,0,1,2.563,1.086,4.7,4.7,0,0,1,.914,3.109v.6h-5.727a3,3,0,0,0,.73,2.02,2.3,2.3,0,0,0,1.777.77,2.517,2.517,0,0,0,1.3-.312,3.259,3.259,0,0,0,.93-.828l.883.688A3.55,3.55,0,0,1-118.852.156Zm-.18-7.578a1.928,1.928,0,0,0-1.469.637A3.1,3.1,0,0,0-121.234-5H-117v-.109a2.753,2.753,0,0,0-.594-1.707A1.815,1.815,0,0,0-119.031-7.422ZM-108.352,0H-109.8V-12h1.445Zm7.531,0a3.036,3.036,0,0,1-.2-.891A3.225,3.225,0,0,1-103.43.156a2.984,2.984,0,0,1-2.051-.707,2.288,2.288,0,0,1-.8-1.793,2.39,2.39,0,0,1,1-2.051,4.733,4.733,0,0,1,2.824-.73h1.406v-.664A1.623,1.623,0,0,0-101.5-7a1.821,1.821,0,0,0-1.336-.449,2.108,2.108,0,0,0-1.3.391,1.151,1.151,0,0,0-.523.945h-1.453a2,2,0,0,1,.449-1.223,3.066,3.066,0,0,1,1.219-.934,4.1,4.1,0,0,1,1.691-.344,3.342,3.342,0,0,1,2.289.73A2.635,2.635,0,0,1-99.6-5.867v3.891a4.757,4.757,0,0,0,.3,1.852V0Zm-2.4-1.1a2.54,2.54,0,0,0,1.289-.352,2.127,2.127,0,0,0,.883-.914V-4.1h-1.133q-2.656,0-2.656,1.555a1.316,1.316,0,0,0,.453,1.063A1.742,1.742,0,0,0-103.219-1.1Zm13.234.078a2.082,2.082,0,0,0,1.352-.469,1.649,1.649,0,0,0,.641-1.172h1.367a2.621,2.621,0,0,1-.5,1.383,3.293,3.293,0,0,1-1.23,1.047,3.55,3.55,0,0,1-1.629.391A3.482,3.482,0,0,1-92.73-1a4.59,4.59,0,0,1-1.02-3.152v-.242a5.089,5.089,0,0,1,.453-2.2A3.451,3.451,0,0,1-92-8.078a3.7,3.7,0,0,1,2-.531,3.39,3.39,0,0,1,2.363.852,3.043,3.043,0,0,1,1,2.211h-1.367a1.992,1.992,0,0,0-.621-1.348,1.932,1.932,0,0,0-1.379-.527,2.023,2.023,0,0,0-1.707.793A3.724,3.724,0,0,0-92.3-4.336v.273a3.65,3.65,0,0,0,.6,2.25A2.033,2.033,0,0,0-89.984-1.023Zm10.2.188a3.07,3.07,0,0,1-2.477.992,2.628,2.628,0,0,1-2.059-.785,3.4,3.4,0,0,1-.715-2.324v-5.5h1.445v5.461q0,1.922,1.563,1.922A2.163,2.163,0,0,0-79.82-2.3V-8.453h1.445V0H-79.75Zm4.969-7.617.047,1.063a3.08,3.08,0,0,1,2.531-1.219q2.68,0,2.7,3.023V0h-1.445V-5.594a1.946,1.946,0,0,0-.418-1.352,1.675,1.675,0,0,0-1.277-.437,2.086,2.086,0,0,0-1.234.375,2.546,2.546,0,0,0-.828.984V0H-76.18V-8.453ZM-62.133,0a3.036,3.036,0,0,1-.2-.891A3.225,3.225,0,0,1-64.742.156a2.984,2.984,0,0,1-2.051-.707,2.288,2.288,0,0,1-.8-1.793,2.39,2.39,0,0,1,1-2.051,4.733,4.733,0,0,1,2.824-.73h1.406v-.664A1.623,1.623,0,0,0-62.812-7a1.821,1.821,0,0,0-1.336-.449,2.108,2.108,0,0,0-1.3.391,1.151,1.151,0,0,0-.523.945h-1.453a2,2,0,0,1,.449-1.223,3.066,3.066,0,0,1,1.219-.934,4.1,4.1,0,0,1,1.691-.344,3.342,3.342,0,0,1,2.289.73,2.635,2.635,0,0,1,.859,2.012v3.891a4.757,4.757,0,0,0,.3,1.852V0Zm-2.4-1.1a2.54,2.54,0,0,0,1.289-.352,2.127,2.127,0,0,0,.883-.914V-4.1h-1.133q-2.656,0-2.656,1.555A1.316,1.316,0,0,0-65.7-1.484,1.742,1.742,0,0,0-64.531-1.1ZM-49.469,0a3.036,3.036,0,0,1-.2-.891A3.225,3.225,0,0,1-52.078.156a2.984,2.984,0,0,1-2.051-.707,2.287,2.287,0,0,1-.8-1.793,2.39,2.39,0,0,1,1-2.051,4.733,4.733,0,0,1,2.824-.73H-49.7v-.664A1.623,1.623,0,0,0-50.148-7a1.821,1.821,0,0,0-1.336-.449,2.107,2.107,0,0,0-1.3.391,1.151,1.151,0,0,0-.523.945h-1.453a2,2,0,0,1,.449-1.223,3.066,3.066,0,0,1,1.219-.934A4.1,4.1,0,0,1-51.4-8.609a3.342,3.342,0,0,1,2.289.73,2.635,2.635,0,0,1,.859,2.012v3.891a4.757,4.757,0,0,0,.3,1.852V0Zm-2.4-1.1a2.54,2.54,0,0,0,1.289-.352,2.127,2.127,0,0,0,.883-.914V-4.1h-1.133q-2.656,0-2.656,1.555a1.316,1.316,0,0,0,.453,1.063A1.742,1.742,0,0,0-51.867-1.1ZM-40.453,0H-41.9V-12h1.445Zm7.531,0a3.036,3.036,0,0,1-.2-.891A3.225,3.225,0,0,1-35.531.156a2.984,2.984,0,0,1-2.051-.707,2.287,2.287,0,0,1-.8-1.793,2.39,2.39,0,0,1,1-2.051,4.733,4.733,0,0,1,2.824-.73h1.406v-.664A1.623,1.623,0,0,0-33.6-7a1.821,1.821,0,0,0-1.336-.449,2.107,2.107,0,0,0-1.3.391,1.151,1.151,0,0,0-.523.945h-1.453a2,2,0,0,1,.449-1.223,3.066,3.066,0,0,1,1.219-.934,4.1,4.1,0,0,1,1.691-.344,3.342,3.342,0,0,1,2.289.73A2.635,2.635,0,0,1-31.7-5.867v3.891a4.757,4.757,0,0,0,.3,1.852V0Zm-2.4-1.1a2.54,2.54,0,0,0,1.289-.352,2.127,2.127,0,0,0,.883-.914V-4.1h-1.133q-2.656,0-2.656,1.555a1.316,1.316,0,0,0,.453,1.063A1.742,1.742,0,0,0-35.32-1.1Zm11.8-9.4v2.047h1.578v1.117h-1.578v5.249a1.173,1.173,0,0,0,.211.763.888.888,0,0,0,.719.254,3.5,3.5,0,0,0,.688-.094V0a4.215,4.215,0,0,1-1.109.155A1.8,1.8,0,0,1-24.469-.43a2.517,2.517,0,0,1-.492-1.664V-7.336H-26.5V-8.453h1.539V-10.5Zm8.484,9.664a3.07,3.07,0,0,1-2.477.992,2.628,2.628,0,0,1-2.059-.785,3.4,3.4,0,0,1-.715-2.324v-5.5h1.445v5.461q0,1.922,1.563,1.922A2.163,2.163,0,0,0-15.07-2.3V-8.453h1.445V0H-15Zm4.961-7.617.039.938A3.122,3.122,0,0,1-7.523-8.609,2.417,2.417,0,0,1-5.109-7.25a3.2,3.2,0,0,1,1.1-.984,3.242,3.242,0,0,1,1.6-.375q2.781,0,2.828,2.945V0H-1.031V-5.578a1.941,1.941,0,0,0-.414-1.355,1.823,1.823,0,0,0-1.391-.449,1.916,1.916,0,0,0-1.336.48,1.949,1.949,0,0,0-.617,1.293V0H-6.242V-5.539a1.613,1.613,0,0,0-1.8-1.844A1.934,1.934,0,0,0-9.992-6.172V0h-1.445V-8.453ZM9.75-4.133A5.026,5.026,0,0,1,8.859-1.02,2.846,2.846,0,0,1,6.469.156,2.947,2.947,0,0,1,3.992-.977L3.922,0H2.594V-12H4.039v4.477A2.93,2.93,0,0,1,6.453-8.609,2.863,2.863,0,0,1,8.871-7.445,5.177,5.177,0,0,1,9.75-4.258ZM8.3-4.3a3.906,3.906,0,0,0-.57-2.281,1.888,1.888,0,0,0-1.641-.8A2.122,2.122,0,0,0,4.039-6.055V-2.4A2.181,2.181,0,0,0,6.109-1.07a1.878,1.878,0,0,0,1.617-.8A4.153,4.153,0,0,0,8.3-4.3ZM16.789,0a3.036,3.036,0,0,1-.2-.891A3.225,3.225,0,0,1,14.18.156a2.984,2.984,0,0,1-2.051-.707,2.287,2.287,0,0,1-.8-1.793,2.39,2.39,0,0,1,1-2.051,4.733,4.733,0,0,1,2.824-.73h1.406v-.664A1.623,1.623,0,0,0,16.109-7a1.821,1.821,0,0,0-1.336-.449,2.107,2.107,0,0,0-1.3.391,1.151,1.151,0,0,0-.523.945H11.5a2,2,0,0,1,.449-1.223,3.066,3.066,0,0,1,1.219-.934,4.1,4.1,0,0,1,1.691-.344,3.342,3.342,0,0,1,2.289.73,2.635,2.635,0,0,1,.859,2.012v3.891a4.757,4.757,0,0,0,.3,1.852V0Zm-2.4-1.1a2.54,2.54,0,0,0,1.289-.352,2.127,2.127,0,0,0,.883-.914V-4.1H15.43q-2.656,0-2.656,1.555a1.316,1.316,0,0,0,.453,1.063A1.742,1.742,0,0,0,14.391-1.1Zm9.766-3.516a12.39,12.39,0,0,1,2-5.3,9.01,9.01,0,0,1,2.922-2.852l.047.008.141.9A8.512,8.512,0,0,0,27.121-9.18a13.754,13.754,0,0,0-1.457,4.547l-.016.1A11.837,11.837,0,0,0,25.621.063a6.05,6.05,0,0,0,1.3,2.711l-.414.844-.047-.008a5.675,5.675,0,0,1-1.992-2.9,10.142,10.142,0,0,1-.328-5.254Zm7.781,3.57a2.072,2.072,0,0,0,1.285-.474,1.793,1.793,0,0,0,.723-1.151H35.3l.016.047A2.965,2.965,0,0,1,34.094-.66,3.736,3.736,0,0,1,31.75.164a2.631,2.631,0,0,1-2.414-1.219,4.252,4.252,0,0,1-.469-3.008l.055-.328a5.586,5.586,0,0,1,1.387-3.043,3.709,3.709,0,0,1,2.84-1.176,2.639,2.639,0,0,1,2.105.879,2.444,2.444,0,0,1,.527,2.152l-.016.039H34.4a1.672,1.672,0,0,0-.266-1.336A1.382,1.382,0,0,0,32.961-7.4a1.985,1.985,0,0,0-1.7.882,4.884,4.884,0,0,0-.828,2.122l-.055.328a4.31,4.31,0,0,0,.109,2.181A1.371,1.371,0,0,0,31.938-1.047Zm9.727-6.047-.828-.047a1.66,1.66,0,0,0-.949.293,2.578,2.578,0,0,0-.754.824L37.93,0H36.422l1.688-8.453h1.352L39.367-7.32a3.383,3.383,0,0,1,.988-.953,2.233,2.233,0,0,1,1.184-.336,2.318,2.318,0,0,1,.34.027,1.507,1.507,0,0,1,.27.059ZM46.539,0q0-.383.016-.629t.055-.5a4.843,4.843,0,0,1-1.2.926,2.793,2.793,0,0,1-1.355.371,2.05,2.05,0,0,1-1.707-.691,2.136,2.136,0,0,1-.309-1.848,2.806,2.806,0,0,1,1.27-1.934,4.816,4.816,0,0,1,2.613-.645h1.445l.164-.836a1.423,1.423,0,0,0-.172-1.2,1.321,1.321,0,0,0-1.094-.41,1.97,1.97,0,0,0-1.187.387,1.474,1.474,0,0,0-.633.9h-1.43L43-6.156a2.65,2.65,0,0,1,1.172-1.715,4.007,4.007,0,0,1,2.422-.738,2.655,2.655,0,0,1,1.988.746,2.2,2.2,0,0,1,.465,2.09L48.234-1.7a7.878,7.878,0,0,0-.141.883,4.316,4.316,0,0,0,0,.82Zm-2-1.125a2.629,2.629,0,0,0,1.289-.367,3.064,3.064,0,0,0,1.016-.867l.313-1.555H45.664a2.217,2.217,0,0,0-1.391.477,1.814,1.814,0,0,0-.734,1.094,1.082,1.082,0,0,0,.117.91A1.067,1.067,0,0,0,44.539-1.125Zm5.984-3.1A7.091,7.091,0,0,1,51.9-7.508a3.076,3.076,0,0,1,2.441-1.1,2.546,2.546,0,0,1,1.176.27,2.294,2.294,0,0,1,.863.762l.922-4.609h1.508L56.375,0h-1.3l.055-.812a3.227,3.227,0,0,1-1.035.73,3.035,3.035,0,0,1-1.223.246,2.222,2.222,0,0,1-2.051-1.219,4.253,4.253,0,0,1-.332-3.008Zm1.484.164a3.518,3.518,0,0,0,.1,2.16,1.4,1.4,0,0,0,1.406.816,1.7,1.7,0,0,0,1-.309,3.1,3.1,0,0,0,.809-.879l.8-3.992a1.791,1.791,0,0,0-.613-.8,1.693,1.693,0,0,0-1.02-.3,1.847,1.847,0,0,0-1.551.848,5.767,5.767,0,0,0-.895,2.285ZM60.2,0H58.688l2.438-12.187h1.508Zm5.648.164a2.739,2.739,0,0,1-2.41-1.184,4.064,4.064,0,0,1-.52-3.043l.055-.344a5.286,5.286,0,0,1,1.48-3.039,3.6,3.6,0,0,1,2.559-1.164,2.448,2.448,0,0,1,2.227,1.041,3.859,3.859,0,0,1,.406,2.747l-.156.963H64.391a3.377,3.377,0,0,0,.238,2.051,1.461,1.461,0,0,0,1.4.761,3.59,3.59,0,0,0,1.289-.229,3.624,3.624,0,0,0,1.047-.6l.43,1a3.866,3.866,0,0,1-1.219.743A4.645,4.645,0,0,1,65.844.164ZM66.82-7.4a1.757,1.757,0,0,0-1.27.656,3.809,3.809,0,0,0-.879,1.625l.023.047h3.477l.031-.2a2.365,2.365,0,0,0-.18-1.535A1.254,1.254,0,0,0,66.82-7.4Zm11.492-3.094L77.9-8.453h1.461l-.227,1.141H77.672L76.648-2.18a1.119,1.119,0,0,0,.039.855.657.657,0,0,0,.555.223,3.236,3.236,0,0,0,.434-.035,3.588,3.588,0,0,0,.4-.074L78.07-.156a2.072,2.072,0,0,1-.645.23,3.914,3.914,0,0,1-.824.09A1.493,1.493,0,0,1,75.34-.414a2.162,2.162,0,0,1-.2-1.766l1.023-5.133H74.93l.227-1.141h1.234l.414-2.039ZM79.891-4.3a5.71,5.71,0,0,1,1.434-3.129,3.674,3.674,0,0,1,2.77-1.176,2.621,2.621,0,0,1,2.363,1.223A4.292,4.292,0,0,1,86.945-4.3l-.023.172A5.718,5.718,0,0,1,85.48-1,3.686,3.686,0,0,1,82.711.164a2.623,2.623,0,0,1-2.363-1.219,4.254,4.254,0,0,1-.48-3.078Zm1.484.168a4.086,4.086,0,0,0,.137,2.243,1.369,1.369,0,0,0,1.387.847,1.987,1.987,0,0,0,1.625-.886,4.85,4.85,0,0,0,.883-2.2l.023-.172a4.075,4.075,0,0,0-.148-2.232A1.363,1.363,0,0,0,83.906-7.4a1.981,1.981,0,0,0-1.629.89,4.9,4.9,0,0,0-.879,2.2Zm10.914-.09A7.005,7.005,0,0,1,93.684-7.5a3.117,3.117,0,0,1,2.457-1.105,2.509,2.509,0,0,1,1.242.3,2.349,2.349,0,0,1,.883.867l.328-1.016h1.281L98.211-.109A4.446,4.446,0,0,1,96.8,2.527a4.132,4.132,0,0,1-2.746.887,4.686,4.686,0,0,1-1.184-.172,3.687,3.687,0,0,1-1.082-.453l.617-1.2a2.594,2.594,0,0,0,.844.379,3.918,3.918,0,0,0,1.047.145,2.184,2.184,0,0,0,1.566-.59A3,3,0,0,0,96.7-.109l.117-.578a3.085,3.085,0,0,1-.984.637,3.094,3.094,0,0,1-1.156.215,2.255,2.255,0,0,1-2.066-1.223,4.19,4.19,0,0,1-.348-3Zm1.477.164a3.421,3.421,0,0,0,.117,2.156,1.434,1.434,0,0,0,1.422.82,1.7,1.7,0,0,0,1-.316,3.175,3.175,0,0,0,.824-.9l.789-3.937a1.88,1.88,0,0,0-.625-.812,1.68,1.68,0,0,0-1.023-.3,1.882,1.882,0,0,0-1.566.855,5.672,5.672,0,0,0-.91,2.277Zm11.781-3.031-.828-.047a1.66,1.66,0,0,0-.949.293,2.578,2.578,0,0,0-.754.824L101.813,0H100.3l1.688-8.453h1.352L103.25-7.32a3.383,3.383,0,0,1,.988-.953,2.233,2.233,0,0,1,1.184-.336,2.318,2.318,0,0,1,.34.027,1.506,1.506,0,0,1,.27.059ZM110.422,0q0-.383.016-.629t.055-.5a4.843,4.843,0,0,1-1.2.926,2.793,2.793,0,0,1-1.355.371,2.05,2.05,0,0,1-1.707-.691,2.136,2.136,0,0,1-.309-1.848,2.806,2.806,0,0,1,1.27-1.934,4.816,4.816,0,0,1,2.613-.645h1.445l.164-.836a1.423,1.423,0,0,0-.172-1.2,1.321,1.321,0,0,0-1.094-.41,1.97,1.97,0,0,0-1.187.387,1.474,1.474,0,0,0-.633.9H106.9l-.016-.047a2.65,2.65,0,0,1,1.172-1.715,4.007,4.007,0,0,1,2.422-.738,2.655,2.655,0,0,1,1.988.746,2.2,2.2,0,0,1,.465,2.09l-.812,4.07a7.877,7.877,0,0,0-.141.883,4.317,4.317,0,0,0,0,.82Zm-2-1.125a2.629,2.629,0,0,0,1.289-.367,3.064,3.064,0,0,0,1.016-.867l.313-1.555h-1.492a2.217,2.217,0,0,0-1.391.477,1.814,1.814,0,0,0-.734,1.094,1.082,1.082,0,0,0,.117.91A1.067,1.067,0,0,0,108.422-1.125Zm8.547-1.367.023.5.047.008.2-.508,2.719-5.961h1.539L117.258,0h-1.133l-1.57-8.453H116.1Zm7.7,2.656a2.739,2.739,0,0,1-2.41-1.184,4.064,4.064,0,0,1-.52-3.043l.055-.344a5.286,5.286,0,0,1,1.48-3.039,3.6,3.6,0,0,1,2.559-1.164,2.448,2.448,0,0,1,2.227,1.041,3.859,3.859,0,0,1,.406,2.747l-.156.963h-5.094a3.377,3.377,0,0,0,.238,2.051,1.461,1.461,0,0,0,1.4.761,3.59,3.59,0,0,0,1.289-.229,3.624,3.624,0,0,0,1.047-.6l.43,1a3.866,3.866,0,0,1-1.219.743A4.645,4.645,0,0,1,124.664.164Zm.977-7.562a1.757,1.757,0,0,0-1.27.656,3.809,3.809,0,0,0-.879,1.625l.023.047h3.477l.031-.2a2.365,2.365,0,0,0-.18-1.535A1.254,1.254,0,0,0,125.641-7.4Zm7.414,2.852a12.4,12.4,0,0,1-2.012,5.3,9.278,9.278,0,0,1-2.918,2.863l-.047-.008-.156-.836A8.478,8.478,0,0,0,130.063.066a14.226,14.226,0,0,0,1.484-4.6l.016-.1a11.667,11.667,0,0,0-.023-4.594,6.417,6.417,0,0,0-1.266-2.711l.43-.844.047.008a5.825,5.825,0,0,1,1.973,2.914,10.175,10.175,0,0,1,.348,5.242Z" transform="translate(1254 4209)" fill="#12263f"/>
    <path id="Trazado_237663" data-name="Trazado 237663" d="M-129.086,0V-11.375h3.211a5.169,5.169,0,0,1,2.625.656,4.438,4.438,0,0,1,1.762,1.867,6.078,6.078,0,0,1,.629,2.781v.727a6.1,6.1,0,0,1-.621,2.82,4.369,4.369,0,0,1-1.773,1.859A5.5,5.5,0,0,1-125.937,0Zm1.5-10.148v8.922h1.578a3.434,3.434,0,0,0,2.7-1.079,4.458,4.458,0,0,0,.965-3.073v-.665a4.529,4.529,0,0,0-.91-3.014,3.239,3.239,0,0,0-2.582-1.091Zm12.273,10.3a3.693,3.693,0,0,1-2.8-1.129,4.19,4.19,0,0,1-1.078-3.02v-.266a5.073,5.073,0,0,1,.48-2.246,3.748,3.748,0,0,1,1.344-1.547,3.378,3.378,0,0,1,1.871-.559,3.166,3.166,0,0,1,2.563,1.086,4.7,4.7,0,0,1,.914,3.109v.6h-5.727a3,3,0,0,0,.73,2.02,2.3,2.3,0,0,0,1.777.77,2.517,2.517,0,0,0,1.3-.312,3.259,3.259,0,0,0,.93-.828l.883.688A3.55,3.55,0,0,1-115.312.156Zm-.18-7.578a1.928,1.928,0,0,0-1.469.637A3.1,3.1,0,0,0-117.7-5h4.234v-.109a2.753,2.753,0,0,0-.594-1.707A1.815,1.815,0,0,0-115.492-7.422ZM-104.812,0h-1.445V-12h1.445Zm7.531,0a3.036,3.036,0,0,1-.2-.891A3.225,3.225,0,0,1-99.891.156a2.984,2.984,0,0,1-2.051-.707,2.288,2.288,0,0,1-.8-1.793,2.39,2.39,0,0,1,1-2.051,4.733,4.733,0,0,1,2.824-.73h1.406v-.664A1.623,1.623,0,0,0-97.961-7,1.821,1.821,0,0,0-99.3-7.445a2.108,2.108,0,0,0-1.3.391,1.151,1.151,0,0,0-.523.945h-1.453a2,2,0,0,1,.449-1.223,3.066,3.066,0,0,1,1.219-.934,4.1,4.1,0,0,1,1.691-.344,3.342,3.342,0,0,1,2.289.73,2.635,2.635,0,0,1,.859,2.012v3.891a4.757,4.757,0,0,0,.3,1.852V0Zm-2.4-1.1a2.54,2.54,0,0,0,1.289-.352,2.127,2.127,0,0,0,.883-.914V-4.1h-1.133q-2.656,0-2.656,1.555a1.316,1.316,0,0,0,.453,1.063A1.742,1.742,0,0,0-99.68-1.1Zm13.234.078a2.082,2.082,0,0,0,1.352-.469,1.649,1.649,0,0,0,.641-1.172h1.367a2.621,2.621,0,0,1-.5,1.383,3.293,3.293,0,0,1-1.23,1.047,3.55,3.55,0,0,1-1.629.391A3.482,3.482,0,0,1-89.191-1a4.59,4.59,0,0,1-1.02-3.152v-.242a5.089,5.089,0,0,1,.453-2.2,3.451,3.451,0,0,1,1.3-1.492,3.7,3.7,0,0,1,2-.531,3.39,3.39,0,0,1,2.363.852,3.043,3.043,0,0,1,1,2.211h-1.367a1.992,1.992,0,0,0-.621-1.348,1.932,1.932,0,0,0-1.379-.527,2.023,2.023,0,0,0-1.707.793,3.724,3.724,0,0,0-.605,2.293v.273a3.65,3.65,0,0,0,.6,2.25A2.033,2.033,0,0,0-86.445-1.023Zm10.2.188a3.07,3.07,0,0,1-2.477.992,2.628,2.628,0,0,1-2.059-.785,3.4,3.4,0,0,1-.715-2.324v-5.5h1.445v5.461q0,1.922,1.563,1.922a2.163,2.163,0,0,0,2.2-1.234V-8.453h1.445V0h-1.375Zm4.969-7.617.047,1.063A3.08,3.08,0,0,1-68.7-8.609q2.68,0,2.7,3.023V0h-1.445V-5.594a1.946,1.946,0,0,0-.418-1.352,1.675,1.675,0,0,0-1.277-.437,2.086,2.086,0,0,0-1.234.375,2.546,2.546,0,0,0-.828.984V0h-1.445V-8.453ZM-58.594,0a3.036,3.036,0,0,1-.2-.891A3.225,3.225,0,0,1-61.2.156a2.984,2.984,0,0,1-2.051-.707,2.287,2.287,0,0,1-.8-1.793,2.39,2.39,0,0,1,1-2.051,4.733,4.733,0,0,1,2.824-.73h1.406v-.664A1.623,1.623,0,0,0-59.273-7a1.821,1.821,0,0,0-1.336-.449,2.107,2.107,0,0,0-1.3.391,1.151,1.151,0,0,0-.523.945h-1.453a2,2,0,0,1,.449-1.223,3.066,3.066,0,0,1,1.219-.934,4.1,4.1,0,0,1,1.691-.344,3.342,3.342,0,0,1,2.289.73,2.635,2.635,0,0,1,.859,2.012v3.891a4.757,4.757,0,0,0,.3,1.852V0Zm-2.4-1.1A2.54,2.54,0,0,0-59.7-1.453a2.127,2.127,0,0,0,.883-.914V-4.1h-1.133q-2.656,0-2.656,1.555a1.316,1.316,0,0,0,.453,1.063A1.742,1.742,0,0,0-60.992-1.1ZM-45.93,0a3.036,3.036,0,0,1-.2-.891A3.225,3.225,0,0,1-48.539.156,2.984,2.984,0,0,1-50.59-.551a2.287,2.287,0,0,1-.8-1.793,2.39,2.39,0,0,1,1-2.051,4.733,4.733,0,0,1,2.824-.73h1.406v-.664A1.623,1.623,0,0,0-46.609-7a1.821,1.821,0,0,0-1.336-.449,2.107,2.107,0,0,0-1.3.391,1.151,1.151,0,0,0-.523.945h-1.453a2,2,0,0,1,.449-1.223,3.066,3.066,0,0,1,1.219-.934,4.1,4.1,0,0,1,1.691-.344,3.342,3.342,0,0,1,2.289.73,2.635,2.635,0,0,1,.859,2.012v3.891a4.757,4.757,0,0,0,.3,1.852V0Zm-2.4-1.1a2.54,2.54,0,0,0,1.289-.352,2.127,2.127,0,0,0,.883-.914V-4.1h-1.133q-2.656,0-2.656,1.555a1.316,1.316,0,0,0,.453,1.063A1.742,1.742,0,0,0-48.328-1.1ZM-36.914,0h-1.445V-12h1.445Zm7.531,0a3.036,3.036,0,0,1-.2-.891A3.225,3.225,0,0,1-31.992.156a2.984,2.984,0,0,1-2.051-.707,2.287,2.287,0,0,1-.8-1.793,2.39,2.39,0,0,1,1-2.051,4.733,4.733,0,0,1,2.824-.73h1.406v-.664A1.623,1.623,0,0,0-30.062-7,1.821,1.821,0,0,0-31.4-7.445a2.107,2.107,0,0,0-1.3.391,1.151,1.151,0,0,0-.523.945h-1.453a2,2,0,0,1,.449-1.223A3.066,3.066,0,0,1-33-8.266a4.1,4.1,0,0,1,1.691-.344,3.342,3.342,0,0,1,2.289.73,2.635,2.635,0,0,1,.859,2.012v3.891a4.757,4.757,0,0,0,.3,1.852V0Zm-2.4-1.1a2.54,2.54,0,0,0,1.289-.352,2.127,2.127,0,0,0,.883-.914V-4.1h-1.133Q-33.4-4.1-33.4-2.547a1.316,1.316,0,0,0,.453,1.063A1.742,1.742,0,0,0-31.781-1.1ZM-14.8-4.133a5.062,5.062,0,0,1-.883,3.109A2.829,2.829,0,0,1-18.07.156,3.1,3.1,0,0,1-20.492-.82V3.25h-1.445v-11.7h1.32l.07.938a2.977,2.977,0,0,1,2.453-1.094,2.882,2.882,0,0,1,2.41,1.148,5.117,5.117,0,0,1,.887,3.2ZM-16.242-4.3a3.735,3.735,0,0,0-.609-2.258,1.963,1.963,0,0,0-1.672-.828,2.125,2.125,0,0,0-1.969,1.164V-2.18a2.129,2.129,0,0,0,1.984,1.156,1.954,1.954,0,0,0,1.652-.824A4.077,4.077,0,0,0-16.242-4.3Zm8.5,3.461a3.07,3.07,0,0,1-2.477.992,2.628,2.628,0,0,1-2.059-.785,3.4,3.4,0,0,1-.715-2.324v-5.5h1.445v5.461q0,1.922,1.563,1.922A2.163,2.163,0,0,0-7.781-2.3V-8.453h1.445V0H-7.711ZM-.633.156A3.693,3.693,0,0,1-3.43-.973a4.19,4.19,0,0,1-1.078-3.02v-.266A5.073,5.073,0,0,1-4.027-6.5,3.748,3.748,0,0,1-2.684-8.051,3.378,3.378,0,0,1-.812-8.609,3.166,3.166,0,0,1,1.75-7.523a4.7,4.7,0,0,1,.914,3.109v.6H-3.062a3,3,0,0,0,.73,2.02,2.3,2.3,0,0,0,1.777.77,2.517,2.517,0,0,0,1.3-.312,3.259,3.259,0,0,0,.93-.828l.883.688A3.55,3.55,0,0,1-.633.156Zm-.18-7.578a1.928,1.928,0,0,0-1.469.637A3.1,3.1,0,0,0-3.016-5H1.219v-.109A2.753,2.753,0,0,0,.625-6.816,1.815,1.815,0,0,0-.812-7.422Zm9.234.266a4.331,4.331,0,0,0-.711-.055A1.9,1.9,0,0,0,5.781-6V0H4.336V-8.453H5.742l.023.977A2.251,2.251,0,0,1,7.781-8.609a1.477,1.477,0,0,1,.641.109ZM12.1-10.5v2.047H13.68v1.117H12.1v5.249a1.173,1.173,0,0,0,.211.763.888.888,0,0,0,.719.254,3.5,3.5,0,0,0,.688-.094V0a4.215,4.215,0,0,1-1.109.155A1.8,1.8,0,0,1,11.148-.43a2.517,2.517,0,0,1-.492-1.664V-7.336H9.117V-8.453h1.539V-10.5ZM20.586,0a3.036,3.036,0,0,1-.2-.891A3.225,3.225,0,0,1,17.977.156a2.984,2.984,0,0,1-2.051-.707,2.287,2.287,0,0,1-.8-1.793,2.39,2.39,0,0,1,1-2.051,4.733,4.733,0,0,1,2.824-.73h1.406v-.664A1.623,1.623,0,0,0,19.906-7a1.821,1.821,0,0,0-1.336-.449,2.108,2.108,0,0,0-1.3.391,1.151,1.151,0,0,0-.523.945H15.3a2,2,0,0,1,.449-1.223,3.066,3.066,0,0,1,1.219-.934,4.1,4.1,0,0,1,1.691-.344,3.342,3.342,0,0,1,2.289.73A2.635,2.635,0,0,1,21.8-5.867v3.891a4.757,4.757,0,0,0,.3,1.852V0Zm-2.4-1.1a2.54,2.54,0,0,0,1.289-.352,2.127,2.127,0,0,0,.883-.914V-4.1H19.227q-2.656,0-2.656,1.555a1.316,1.316,0,0,0,.453,1.063A1.742,1.742,0,0,0,18.188-1.1Zm9.766-3.516a12.39,12.39,0,0,1,2-5.3,9.01,9.01,0,0,1,2.922-2.852l.047.008.141.9A8.511,8.511,0,0,0,30.918-9.18a13.754,13.754,0,0,0-1.457,4.547l-.016.1A11.837,11.837,0,0,0,29.418.063a6.05,6.05,0,0,0,1.3,2.711l-.414.844-.047-.008a5.675,5.675,0,0,1-1.992-2.9,10.142,10.142,0,0,1-.328-5.254Zm7.781,3.57a2.072,2.072,0,0,0,1.285-.474,1.793,1.793,0,0,0,.723-1.151h1.352l.016.047A2.965,2.965,0,0,1,37.891-.66a3.736,3.736,0,0,1-2.344.824,2.631,2.631,0,0,1-2.414-1.219,4.252,4.252,0,0,1-.469-3.008l.055-.328a5.586,5.586,0,0,1,1.387-3.043,3.709,3.709,0,0,1,2.84-1.176,2.639,2.639,0,0,1,2.105.879,2.444,2.444,0,0,1,.527,2.152l-.016.039H38.2a1.672,1.672,0,0,0-.266-1.336A1.382,1.382,0,0,0,36.758-7.4a1.985,1.985,0,0,0-1.7.882,4.884,4.884,0,0,0-.828,2.122l-.055.328a4.31,4.31,0,0,0,.109,2.181A1.371,1.371,0,0,0,35.734-1.047Zm9.727-6.047-.828-.047a1.66,1.66,0,0,0-.949.293,2.578,2.578,0,0,0-.754.824L41.727,0H40.219l1.688-8.453h1.352L43.164-7.32a3.383,3.383,0,0,1,.988-.953,2.233,2.233,0,0,1,1.184-.336,2.318,2.318,0,0,1,.34.027,1.507,1.507,0,0,1,.27.059ZM50.336,0q0-.383.016-.629t.055-.5a4.843,4.843,0,0,1-1.2.926,2.793,2.793,0,0,1-1.355.371,2.05,2.05,0,0,1-1.707-.691,2.136,2.136,0,0,1-.309-1.848,2.806,2.806,0,0,1,1.27-1.934,4.816,4.816,0,0,1,2.613-.645h1.445l.164-.836a1.423,1.423,0,0,0-.172-1.2,1.321,1.321,0,0,0-1.094-.41,1.97,1.97,0,0,0-1.187.387,1.474,1.474,0,0,0-.633.9h-1.43L46.8-6.156a2.65,2.65,0,0,1,1.172-1.715,4.007,4.007,0,0,1,2.422-.738,2.655,2.655,0,0,1,1.988.746,2.2,2.2,0,0,1,.465,2.09L52.031-1.7a7.878,7.878,0,0,0-.141.883,4.316,4.316,0,0,0,0,.82Zm-2-1.125a2.629,2.629,0,0,0,1.289-.367,3.064,3.064,0,0,0,1.016-.867l.313-1.555H49.461a2.217,2.217,0,0,0-1.391.477,1.814,1.814,0,0,0-.734,1.094,1.082,1.082,0,0,0,.117.91A1.067,1.067,0,0,0,48.336-1.125Zm5.984-3.1A7.091,7.091,0,0,1,55.7-7.508a3.076,3.076,0,0,1,2.441-1.1,2.546,2.546,0,0,1,1.176.27,2.294,2.294,0,0,1,.863.762l.922-4.609h1.508L60.172,0h-1.3l.055-.812a3.227,3.227,0,0,1-1.035.73,3.035,3.035,0,0,1-1.223.246,2.222,2.222,0,0,1-2.051-1.219,4.253,4.253,0,0,1-.332-3.008Zm1.484.164a3.518,3.518,0,0,0,.1,2.16,1.4,1.4,0,0,0,1.406.816,1.7,1.7,0,0,0,1-.309,3.1,3.1,0,0,0,.809-.879l.8-3.992a1.791,1.791,0,0,0-.613-.8,1.693,1.693,0,0,0-1.02-.3,1.847,1.847,0,0,0-1.551.848,5.767,5.767,0,0,0-.895,2.285ZM63.992,0H62.484l2.438-12.187H66.43Zm5.648.164A2.739,2.739,0,0,1,67.23-1.02a4.064,4.064,0,0,1-.52-3.043l.055-.344a5.286,5.286,0,0,1,1.48-3.039A3.6,3.6,0,0,1,70.8-8.609a2.448,2.448,0,0,1,2.227,1.041,3.859,3.859,0,0,1,.406,2.747l-.156.963H68.188a3.377,3.377,0,0,0,.238,2.051,1.461,1.461,0,0,0,1.4.761,3.59,3.59,0,0,0,1.289-.229,3.624,3.624,0,0,0,1.047-.6l.43,1a3.866,3.866,0,0,1-1.219.743A4.645,4.645,0,0,1,69.641.164ZM70.617-7.4a1.757,1.757,0,0,0-1.27.656,3.809,3.809,0,0,0-.879,1.625l.023.047h3.477l.031-.2a2.365,2.365,0,0,0-.18-1.535A1.254,1.254,0,0,0,70.617-7.4Zm11.492-3.094L81.7-8.453h1.461L82.93-7.312H81.469L80.445-2.18a1.119,1.119,0,0,0,.039.855.657.657,0,0,0,.555.223,3.236,3.236,0,0,0,.434-.035,3.588,3.588,0,0,0,.4-.074L81.867-.156a2.072,2.072,0,0,1-.645.23,3.914,3.914,0,0,1-.824.09,1.493,1.493,0,0,1-1.262-.578,2.162,2.162,0,0,1-.2-1.766l1.023-5.133H78.727l.227-1.141h1.234l.414-2.039ZM83.688-4.3a5.71,5.71,0,0,1,1.434-3.129,3.674,3.674,0,0,1,2.77-1.176,2.621,2.621,0,0,1,2.363,1.223A4.292,4.292,0,0,1,90.742-4.3l-.023.172A5.718,5.718,0,0,1,89.277-1,3.686,3.686,0,0,1,86.508.164a2.623,2.623,0,0,1-2.363-1.219,4.254,4.254,0,0,1-.48-3.078Zm1.484.168a4.086,4.086,0,0,0,.137,2.243,1.369,1.369,0,0,0,1.387.847,1.987,1.987,0,0,0,1.625-.886,4.85,4.85,0,0,0,.883-2.2l.023-.172a4.075,4.075,0,0,0-.148-2.232A1.363,1.363,0,0,0,87.7-7.4a1.981,1.981,0,0,0-1.629.89,4.9,4.9,0,0,0-.879,2.2Zm10.914-.09A7.005,7.005,0,0,1,97.48-7.5a3.117,3.117,0,0,1,2.457-1.105,2.509,2.509,0,0,1,1.242.3,2.349,2.349,0,0,1,.883.867l.328-1.016h1.281L102.008-.109a4.446,4.446,0,0,1-1.41,2.637,4.132,4.132,0,0,1-2.746.887,4.686,4.686,0,0,1-1.184-.172,3.687,3.687,0,0,1-1.082-.453l.617-1.2a2.594,2.594,0,0,0,.844.379,3.918,3.918,0,0,0,1.047.145,2.184,2.184,0,0,0,1.566-.59,3,3,0,0,0,.832-1.637l.117-.578a3.085,3.085,0,0,1-.984.637,3.094,3.094,0,0,1-1.156.215A2.255,2.255,0,0,1,96.4-1.059a4.19,4.19,0,0,1-.348-3Zm1.477.164a3.421,3.421,0,0,0,.117,2.156,1.434,1.434,0,0,0,1.422.82,1.7,1.7,0,0,0,1-.316,3.175,3.175,0,0,0,.824-.9l.789-3.937a1.88,1.88,0,0,0-.625-.812,1.68,1.68,0,0,0-1.023-.3A1.882,1.882,0,0,0,98.5-6.5a5.672,5.672,0,0,0-.91,2.277ZM108.914,0q0-.383.016-.629t.055-.5a4.843,4.843,0,0,1-1.2.926,2.793,2.793,0,0,1-1.355.371,2.05,2.05,0,0,1-1.707-.691,2.136,2.136,0,0,1-.309-1.848,2.806,2.806,0,0,1,1.27-1.934,4.816,4.816,0,0,1,2.613-.645h1.445l.164-.836a1.423,1.423,0,0,0-.172-1.2,1.321,1.321,0,0,0-1.094-.41,1.97,1.97,0,0,0-1.187.387,1.474,1.474,0,0,0-.633.9h-1.43l-.016-.047a2.65,2.65,0,0,1,1.172-1.715,4.007,4.007,0,0,1,2.422-.738,2.655,2.655,0,0,1,1.988.746,2.2,2.2,0,0,1,.465,2.09l-.812,4.07a7.877,7.877,0,0,0-.141.883,4.317,4.317,0,0,0,0,.82Zm-2-1.125a2.629,2.629,0,0,0,1.289-.367,3.064,3.064,0,0,0,1.016-.867l.313-1.555h-1.492a2.217,2.217,0,0,0-1.391.477,1.814,1.814,0,0,0-.734,1.094,1.082,1.082,0,0,0,.117.91A1.067,1.067,0,0,0,106.914-1.125Zm9.57-9.367-.414,2.039h1.461L117.3-7.312h-1.461L114.82-2.18a1.119,1.119,0,0,0,.039.855.657.657,0,0,0,.555.223,3.236,3.236,0,0,0,.434-.035,3.588,3.588,0,0,0,.4-.074l-.008,1.055a2.072,2.072,0,0,1-.645.23,3.914,3.914,0,0,1-.824.09,1.493,1.493,0,0,1-1.262-.578,2.162,2.162,0,0,1-.2-1.766l1.023-5.133H113.1l.227-1.141h1.234l.414-2.039ZM121.125.164a2.739,2.739,0,0,1-2.41-1.184,4.064,4.064,0,0,1-.52-3.043l.055-.344a5.286,5.286,0,0,1,1.48-3.039,3.6,3.6,0,0,1,2.559-1.164,2.448,2.448,0,0,1,2.227,1.041,3.859,3.859,0,0,1,.406,2.747l-.156.963h-5.094a3.377,3.377,0,0,0,.238,2.051,1.461,1.461,0,0,0,1.4.761,3.59,3.59,0,0,0,1.289-.229,3.624,3.624,0,0,0,1.047-.6l.43,1a3.866,3.866,0,0,1-1.219.743A4.645,4.645,0,0,1,121.125.164ZM122.1-7.4a1.757,1.757,0,0,0-1.27.656,3.809,3.809,0,0,0-.879,1.625l.023.047h3.477l.031-.2a2.365,2.365,0,0,0-.18-1.535A1.254,1.254,0,0,0,122.1-7.4Zm7.414,2.852A12.4,12.4,0,0,1,127.5.754a9.278,9.278,0,0,1-2.918,2.863l-.047-.008-.156-.836A8.478,8.478,0,0,0,126.523.066a14.226,14.226,0,0,0,1.484-4.6l.016-.1A11.667,11.667,0,0,0,128-9.227a6.416,6.416,0,0,0-1.266-2.711l.43-.844.047.008a5.825,5.825,0,0,1,1.973,2.914,10.175,10.175,0,0,1,.348,5.242Z" transform="translate(824 4153)" fill="#12263f"/>
    <g id="Trazado_237652" data-name="Trazado 237652" transform="translate(860 3911)" fill="#cab3ed">
      <path d="M 99 191.5 L 10 191.5 C 4.761690616607666 191.5 0.5 187.2383117675781 0.5 182 L 0.5 10 C 0.5 4.761690616607666 4.761690616607666 0.5 10 0.5 L 99 0.5 C 104.2383117675781 0.5 108.5 4.761690616607666 108.5 10 L 108.5 182 C 108.5 187.2383117675781 104.2383117675781 191.5 99 191.5 Z" stroke="none"/>
      <path d="M 10 1 C 5.037376403808594 1 1 5.037368774414062 1 10 L 1 182 C 1 186.9626312255859 5.037376403808594 191 10 191 L 99 191 C 103.9626235961914 191 108 186.9626312255859 108 182 L 108 10 C 108 5.037368774414062 103.9626235961914 1 99 1 L 10 1 M 10 0 L 99 0 C 104.5228500366211 0 109 4.477157592773438 109 10 L 109 182 C 109 187.5228576660156 104.5228500366211 192 99 192 L 10 192 C 4.477149963378906 192 0 187.5228576660156 0 182 L 0 10 C 0 4.477157592773438 4.477149963378906 0 10 0 Z" stroke="none" fill="#f6f6f6"/>
    </g>
    <path id="Trazado_237632" data-name="Trazado 237632" d="M0,0H0" transform="translate(304 4037.73)" fill="none" stroke="#000" stroke-linecap="round" stroke-width="1"/>
    <path id="Trazado_237633" data-name="Trazado 237633" d="M0,0H481.012" transform="translate(307.992 4037.73)" fill="none" stroke="#000" stroke-linecap="round" stroke-width="1" stroke-dasharray="0 3.992"/>
    <path id="Trazado_237649" data-name="Trazado 237649" d="M0,0H0" transform="translate(791 4037.73)" fill="none" stroke="#000" stroke-linecap="round" stroke-width="1"/>
    <path id="Trazado_235397" data-name="Trazado 235397" d="M585.015,131.413a2.077,2.077,0,1,1-2.077-2.077,2.077,2.077,0,0,1,2.077,2.077" transform="translate(207 3982.239)" fill="#fff"/>
    <path id="Trazado_237636" data-name="Trazado 237636" d="M0,0H1.512V23.307H0Z" transform="translate(398.032 4080.343)" fill="#d2d2d2"/>
    <path id="Trazado_237639" data-name="Trazado 237639" d="M0,0H1.512V23.307H0Z" transform="translate(670.804 4080.343)" fill="#d2d2d2"/>
    <path id="Trazado_237651" data-name="Trazado 237651" d="M0,0H1.512V22.663H0Z" transform="translate(806.804 4080.987)" fill="#d2d2d2"/>
    <path id="Trazado_235398" data-name="Trazado 235398" d="M107.265,48.186a51.443,51.443,0,0,1-102.835,0H2.958a52.914,52.914,0,0,0,105.779,0Z" transform="translate(207 3982.239)" fill="#d2d2d2"/>
    <path id="Trazado_235399" data-name="Trazado 235399" d="M243.5,48.186a51.444,51.444,0,0,1-102.836,0H139.2a52.914,52.914,0,0,0,105.779,0Z" transform="translate(207 3982.239)" fill="#d2d2d2"/>
    <path id="Trazado_235400" data-name="Trazado 235400" d="M379.74,48.186a51.443,51.443,0,0,1-102.835,0h-1.472a52.914,52.914,0,0,0,105.779,0Z" transform="translate(207 3982.239)" fill="#d2d2d2"/>
    <path id="Trazado_235401" data-name="Trazado 235401" d="M515.978,48.186a51.443,51.443,0,0,1-102.835,0h-1.472a52.914,52.914,0,0,0,105.779,0Z" transform="translate(207 3982.239)" fill="#d2d2d2"/>
    <path id="Trazado_235402" data-name="Trazado 235402" d="M652.215,48.186a51.443,51.443,0,0,1-102.835,0h-1.472a52.914,52.914,0,0,0,105.779,0Z" transform="translate(207 3982.239)" fill="#d2d2d2"/>
    <path id="Trazado_235403" data-name="Trazado 235403" d="M108.737,48.186a15.229,15.229,0,0,1,30.459,0h1.466a16.7,16.7,0,1,0-33.391,0Z" transform="translate(207 3982.239)" fill="#d2d2d2"/>
    <path id="Trazado_235404" data-name="Trazado 235404" d="M244.975,48.186a15.229,15.229,0,0,1,30.459,0H276.9a16.7,16.7,0,1,0-33.391,0Z" transform="translate(207 3982.239)" fill="#d2d2d2"/>
    <path id="Trazado_235405" data-name="Trazado 235405" d="M381.212,48.186a15.229,15.229,0,0,1,30.459,0h1.466a16.7,16.7,0,1,0-33.392,0Z" transform="translate(207 3982.239)" fill="#d2d2d2"/>
    <path id="Trazado_235406" data-name="Trazado 235406" d="M517.45,48.186a15.229,15.229,0,0,1,30.459,0h1.466a16.7,16.7,0,1,0-33.391,0Z" transform="translate(207 3982.239)" fill="#d2d2d2"/>
    <path id="Trazado_237637" data-name="Trazado 237637" d="M0,0H1.512V23.307H0Z" transform="translate(262.076 4080.343)" fill="#d2d2d2"/>
    <path id="Trazado_237638" data-name="Trazado 237638" d="M0,0H1.512V23.307H0Z" transform="translate(534.567 4080.343)" fill="#d2d2d2"/>
    <path id="Trazado_235407" data-name="Trazado 235407" d="M5.439,48.186a1.757,1.757,0,1,1-1.757-1.757,1.757,1.757,0,0,1,1.757,1.757" transform="translate(207 3982.239)" fill="#d2d2d2"/>
    <path id="Trazado_235408" data-name="Trazado 235408" d="M646.553,48.186a1.757,1.757,0,1,1-1.757-1.757,1.757,1.757,0,0,1,1.757,1.757" transform="translate(207 3982.239)" fill="#d2d2d2"/>
    <path id="Trazado_235409" data-name="Trazado 235409" d="M102.392,46.544A46.544,46.544,0,1,1,55.848,0a46.544,46.544,0,0,1,46.544,46.544" transform="translate(207 3982.239)" fill="#f6f6f4"/>
    <path id="Trazado_235410" data-name="Trazado 235410" d="M94.655,46.544A38.807,38.807,0,1,1,55.847,7.736,38.807,38.807,0,0,1,94.655,46.544" transform="translate(207 3982.239)" fill="#e5e5e5"/>
    <path id="Trazado_235411" data-name="Trazado 235411" d="M238.63,46.544A46.545,46.545,0,1,1,192.085,0,46.545,46.545,0,0,1,238.63,46.544" transform="translate(207 3982.239)" fill="#f6f6f4"/>
    <path id="Trazado_235412" data-name="Trazado 235412" d="M230.893,46.544A38.808,38.808,0,1,1,192.086,7.736a38.807,38.807,0,0,1,38.807,38.808" transform="translate(207 3982.239)" fill="#e5e5e5"/>
    <path id="Trazado_235413" data-name="Trazado 235413" d="M374.867,46.544A46.544,46.544,0,1,1,328.323,0a46.544,46.544,0,0,1,46.544,46.544" transform="translate(207 3982.239)" fill="#f6f6f4"/>
    <path id="Trazado_235414" data-name="Trazado 235414" d="M367.13,46.544A38.807,38.807,0,1,1,328.323,7.736,38.807,38.807,0,0,1,367.13,46.544" transform="translate(207 3982.239)" fill="#e5e5e5"/>
    <path id="Trazado_235415" data-name="Trazado 235415" d="M511.105,46.544A46.545,46.545,0,1,1,464.561,0a46.544,46.544,0,0,1,46.544,46.544" transform="translate(207 3982.239)" fill="#f6f6f4"/>
    <path id="Trazado_235416" data-name="Trazado 235416" d="M503.368,46.544A38.808,38.808,0,1,1,464.56,7.736a38.807,38.807,0,0,1,38.808,38.808" transform="translate(207 3982.239)" fill="#e5e5e5"/>
    <path id="Trazado_235417" data-name="Trazado 235417" d="M647.342,46.544A46.544,46.544,0,1,1,600.8,0a46.544,46.544,0,0,1,46.544,46.544" transform="translate(207 3982.239)" fill="#f6f6f4"/>
    <path id="Trazado_235418" data-name="Trazado 235418" d="M639.6,46.544A38.807,38.807,0,1,1,600.8,7.736,38.807,38.807,0,0,1,639.6,46.544" transform="translate(207 3982.239)" fill="#e5e5e5"/>
    <path id="Trazado_235419" data-name="Trazado 235419" d="M672,131.411a10,10,0,0,1-10,10H10a10,10,0,0,1,0-20H662a10,10,0,0,1,10,10" transform="translate(207 3982.239)" fill="#e5e5e5"/>
    <path id="Trazado_235420" data-name="Trazado 235420" d="M123.97,121.411v20H10a10,10,0,0,1,0-20Z" transform="translate(207 3982.239)" fill="#fffdf3"/>
    <path id="Trazado_237641" data-name="Trazado 237641" d="M0,0H136.23V20H0Z" transform="translate(330.97 4103.65)" fill="#ffeeb0"/>
    <path id="Trazado_237642" data-name="Trazado 237642" d="M0,0H136.24V20H0Z" transform="translate(467.2 4103.65)" fill="#fff9e3"/>
    <path id="Trazado_237643" data-name="Trazado 237643" d="M0,0H136.24V20H0Z" transform="translate(603.44 4103.65)" fill="#ffd84a"/>
    <path id="Trazado_235421" data-name="Trazado 235421" d="M675.5,131.411a9.848,9.848,0,0,1-3,7.07,10.35,10.35,0,0,1-7.248,2.93H532.68v-20H665.253a10.132,10.132,0,0,1,10.252,10" transform="translate(203.496 3982.239)" fill="#fffdf3"/>
    <path id="Trazado_237630" data-name="Trazado 237630" d="M3.742-4.25H-3.773L-5.086,0h-5.859L-2.6-22.75H2.555L10.961,0H5.07Zm-6.2-4.234H2.43L-.023-16.375Z" transform="translate(262 4035)" fill="#12263f"/>
    <path id="Trazado_237634" data-name="Trazado 237634" d="M-8.6,0V-22.75H-.43q4.391,0,6.68,1.609a5.355,5.355,0,0,1,2.289,4.672,5.413,5.413,0,0,1-.812,3.016,4.735,4.735,0,0,1-2.391,1.844A4.8,4.8,0,0,1,8.07-9.859a5.088,5.088,0,0,1,.953,3.125A6.024,6.024,0,0,1,6.906-1.711Q4.789-.031.633,0Zm5.484-9.672v5.453H.477A3.418,3.418,0,0,0,2.758-4.9a2.379,2.379,0,0,0,.8-1.914A2.522,2.522,0,0,0,.727-9.672Zm0-3.594H-.258A4.062,4.062,0,0,0,2.3-13.924a2.335,2.335,0,0,0,.766-1.9A2.452,2.452,0,0,0,2.242-17.9,4.433,4.433,0,0,0-.43-18.531H-3.117Z" transform="translate(401 4035)" fill="#12263f"/>
    <path id="Trazado_237631" data-name="Trazado 237631" d="M0,0H672V141.411H0Z" transform="translate(207 3982.239)" fill="none"/>
    <path id="Trazado_237658" data-name="Trazado 237658" d="M0,0H0" transform="translate(954 4037.73)" fill="none" stroke="#000" stroke-linecap="round" stroke-width="1"/>
    <path id="Trazado_237659" data-name="Trazado 237659" d="M0,1.991,397.508,0" transform="translate(957.992 4035.739)" fill="none" stroke="#000" stroke-linecap="round" stroke-width="1" stroke-dasharray="0 3.992"/>
    <path id="Trazado_237664" data-name="Trazado 237664" d="M0,0H1.471V23.307H0Z" transform="translate(1042.837 4080.343)" fill="#d2d2d2"/>
    <path id="Trazado_237671" data-name="Trazado 237671" d="M0,0H1.471V23.307H0Z" transform="translate(1308.191 4080.343)" fill="#d2d2d2"/>
    <path id="Trazado_235423" data-name="Trazado 235423" d="M104.428,48.186C103.583,75.844,81.521,98,54.41,98S5.236,75.844,4.39,48.186H2.958C3.8,76.657,26.508,99.475,54.41,99.475s50.6-22.818,51.451-51.289Z" transform="translate(856.92 3982.239)" fill="#d2d2d2"/>
    <path id="Trazado_235424" data-name="Trazado 235424" d="M240.666,48.186C239.82,75.844,217.758,98,190.647,98s-49.174-22.159-50.02-49.817H139.2c.847,28.471,23.551,51.289,51.452,51.289s50.6-22.818,51.451-51.289Z" transform="translate(853.215 3982.239)" fill="#d2d2d2"/>
    <path id="Trazado_235425" data-name="Trazado 235425" d="M376.9,48.186C376.058,75.844,354,98,326.885,98s-49.174-22.159-50.02-49.817h-1.432c.846,28.471,23.55,51.289,51.452,51.289s50.6-22.818,51.451-51.289Z" transform="translate(849.51 3982.239)" fill="#d2d2d2"/>
    <path id="Trazado_235426" data-name="Trazado 235426" d="M513.141,48.186C512.3,75.844,490.234,98,463.123,98S413.948,75.844,413.1,48.186h-1.432c.846,28.471,23.55,51.289,51.452,51.289s50.6-22.818,51.451-51.289Z" transform="translate(845.805 3982.239)" fill="#d2d2d2"/>
    <path id="Trazado_235428" data-name="Trazado 235428" d="M108.7,48.186a14.821,14.821,0,1,1,29.631,0h1.426a16.248,16.248,0,1,0-32.483,0Z" transform="translate(854.083 3982.239)" fill="#d2d2d2"/>
    <path id="Trazado_235429" data-name="Trazado 235429" d="M244.935,48.186a14.821,14.821,0,1,1,29.631,0h1.425a16.248,16.248,0,1,0-32.483,0Z" transform="translate(850.378 3982.239)" fill="#d2d2d2"/>
    <path id="Trazado_235430" data-name="Trazado 235430" d="M381.172,48.186a14.821,14.821,0,1,1,29.631,0h1.426a16.248,16.248,0,1,0-32.484,0Z" transform="translate(846.673 3982.239)" fill="#d2d2d2"/>
    <path id="Trazado_237657" data-name="Trazado 237657" d="M0,0H1.471V23.307H0Z" transform="translate(910.578 4080.343)" fill="#d2d2d2"/>
    <path id="Trazado_237668" data-name="Trazado 237668" d="M0,0H1.471V23.307H0Z" transform="translate(1175.659 4080.343)" fill="#d2d2d2"/>
    <path id="Trazado_235432" data-name="Trazado 235432" d="M5.343,48.186a1.733,1.733,0,0,1-1.709,1.757,1.758,1.758,0,0,1,0-3.514,1.733,1.733,0,0,1,1.709,1.757" transform="translate(856.948 3982.239)" fill="#d2d2d2"/>
    <path id="Trazado_235434" data-name="Trazado 235434" d="M99.86,46.544c0,25.706-20.272,46.544-45.278,46.544S9.3,72.25,9.3,46.544,29.575,0,54.582,0,99.86,20.838,99.86,46.544" transform="translate(856.747 3982.239)" fill="#f6f6f4"/>
    <path id="Trazado_235435" data-name="Trazado 235435" d="M92.544,46.544c0,21.433-16.9,38.807-37.753,38.807S17.04,67.977,17.04,46.544,33.942,7.736,54.792,7.736,92.544,25.111,92.544,46.544" transform="translate(856.537 3982.239)" fill="#e5e5e5"/>
    <path id="Trazado_235436" data-name="Trazado 235436" d="M236.1,46.544c0,25.706-20.273,46.544-45.279,46.544S145.54,72.25,145.54,46.544,165.813,0,190.819,0,236.1,20.838,236.1,46.544" transform="translate(853.042 3982.239)" fill="#f6f6f4"/>
    <path id="Trazado_235437" data-name="Trazado 235437" d="M228.782,46.544c0,21.433-16.9,38.807-37.752,38.807s-37.753-17.374-37.753-38.807,16.9-38.808,37.753-38.808,37.752,17.375,37.752,38.808" transform="translate(852.832 3982.239)" fill="#e5e5e5"/>
    <path id="Trazado_235438" data-name="Trazado 235438" d="M372.335,46.544c0,25.706-20.272,46.544-45.278,46.544S281.778,72.25,281.778,46.544,302.05,0,327.057,0s45.278,20.838,45.278,46.544" transform="translate(849.337 3982.239)" fill="#f6f6f4"/>
    <path id="Trazado_235439" data-name="Trazado 235439" d="M365.019,46.544c0,21.433-16.9,38.807-37.752,38.807s-37.753-17.374-37.753-38.807,16.9-38.808,37.753-38.808,37.752,17.375,37.752,38.808" transform="translate(849.127 3982.239)" fill="#e5e5e5"/>
    <path id="Trazado_235440" data-name="Trazado 235440" d="M508.574,46.544c0,25.706-20.272,46.544-45.278,46.544S418.016,72.25,418.016,46.544,438.288,0,463.3,0s45.278,20.838,45.278,46.544" transform="translate(845.632 3982.239)" fill="#f6f6f4"/>
    <path id="Trazado_235441" data-name="Trazado 235441" d="M501.257,46.544c0,21.433-16.9,38.807-37.753,38.807s-37.752-17.374-37.752-38.807S442.655,7.736,463.5,7.736s37.753,17.375,37.753,38.808" transform="translate(845.422 3982.239)" fill="#e5e5e5"/>
    <path id="Trazado_235444" data-name="Trazado 235444" d="M506.505,131.411a11.8,11.8,0,0,1-2.208,7.07,6.741,6.741,0,0,1-5.329,2.93H7.537c-4.161,0-7.537-4.48-7.537-10a11.8,11.8,0,0,1,2.208-7.07,6.741,6.741,0,0,1,5.329-2.93H498.968c4.161,0,7.537,4.48,7.537,10" transform="translate(868.688 3982.239)" fill="#e5e5e5"/>
    <path id="Trazado_235445" data-name="Trazado 235445" d="M126.31,121.411v20l-115.279.2c-.038-.088-.038-20.259,0-20.247Z" transform="translate(851.288 3982.239)" fill="#ffeeb0"/>
    <path id="Trazado_237660" data-name="Trazado 237660" d="M0,0H158.124V20H0Z" transform="translate(969 4103.65)" fill="#fff9e3"/>
    <path id="Trazado_237665" data-name="Trazado 237665" d="M0,0H115.535V20H0Z" transform="translate(1127.124 4103.65)" fill="#ffd84a"/>
    <path id="Trazado_235447" data-name="Trazado 235447" d="M0,20Z" transform="translate(1242.659 4103.65)" fill="#145374"/>
    <path id="Trazado_235446" data-name="Trazado 235446" d="M668.211,131.411a10.441,10.441,0,0,1-2.4,7.428c-2.062,2.594-4.493,2.738-7.331,2.572H532.68v-20h125.8c4.66-.244,5.42.651,7.394,2.693a11.83,11.83,0,0,1,2.334,7.307" transform="translate(706.982 3982.239)" fill="#fffdf3"/>
    <path id="Trazado_237653" data-name="Trazado 237653" d="M0,0H531.725V141.411H0Z" transform="translate(859 3982.239)" fill="none"/>
    <path id="Trazado_237644" data-name="Trazado 237644" d="M5.492-4.6H2.82V0H1.313V-11.375H5.078a4.457,4.457,0,0,1,2.957.875A3.148,3.148,0,0,1,9.07-7.953,3.062,3.062,0,0,1,8.5-6.1a3.428,3.428,0,0,1-1.6,1.18L9.57-.094V0H7.961ZM2.82-5.828h2.3A2.6,2.6,0,0,0,6.9-6.407a1.959,1.959,0,0,0,.66-1.55,2.062,2.062,0,0,0-.629-1.62,2.663,2.663,0,0,0-1.816-.571H2.82ZM14.453.156a3.693,3.693,0,0,1-2.8-1.129,4.19,4.19,0,0,1-1.078-3.02v-.266a5.073,5.073,0,0,1,.48-2.246A3.748,3.748,0,0,1,12.4-8.051a3.378,3.378,0,0,1,1.871-.559,3.166,3.166,0,0,1,2.563,1.086,4.7,4.7,0,0,1,.914,3.109v.6H12.023a3,3,0,0,0,.73,2.02,2.3,2.3,0,0,0,1.777.77,2.517,2.517,0,0,0,1.3-.312,3.259,3.259,0,0,0,.93-.828l.883.688A3.55,3.55,0,0,1,14.453.156Zm-.18-7.578a1.928,1.928,0,0,0-1.469.637A3.1,3.1,0,0,0,12.07-5H16.3v-.109a2.753,2.753,0,0,0-.594-1.707A1.815,1.815,0,0,0,14.273-7.422Zm8.539,6.4a2.082,2.082,0,0,0,1.352-.469A1.649,1.649,0,0,0,24.8-2.664h1.367a2.621,2.621,0,0,1-.5,1.383,3.293,3.293,0,0,1-1.23,1.047,3.55,3.55,0,0,1-1.629.391A3.482,3.482,0,0,1,20.066-1a4.59,4.59,0,0,1-1.02-3.152v-.242a5.089,5.089,0,0,1,.453-2.2,3.451,3.451,0,0,1,1.3-1.492,3.7,3.7,0,0,1,2-.531,3.39,3.39,0,0,1,2.363.852,3.043,3.043,0,0,1,1,2.211H24.8a1.992,1.992,0,0,0-.621-1.348A1.932,1.932,0,0,0,22.8-7.422a2.023,2.023,0,0,0-1.707.793,3.724,3.724,0,0,0-.605,2.293v.273a3.65,3.65,0,0,0,.6,2.25A2.033,2.033,0,0,0,22.813-1.023Zm10.2.188a3.07,3.07,0,0,1-2.477.992A2.628,2.628,0,0,1,28.48-.629a3.4,3.4,0,0,1-.715-2.324v-5.5h1.445v5.461q0,1.922,1.563,1.922a2.163,2.163,0,0,0,2.2-1.234V-8.453h1.445V0H33.047ZM40.7-7.156a4.331,4.331,0,0,0-.711-.055A1.9,1.9,0,0,0,38.063-6V0H36.617V-8.453h1.406l.023.977a2.251,2.251,0,0,1,2.016-1.133A1.477,1.477,0,0,1,40.7-8.5Zm6.25,4.914a1.064,1.064,0,0,0-.441-.91,4.249,4.249,0,0,0-1.539-.559,7.277,7.277,0,0,1-1.742-.562,2.479,2.479,0,0,1-.953-.781,1.869,1.869,0,0,1-.309-1.078,2.193,2.193,0,0,1,.879-1.758,3.432,3.432,0,0,1,2.246-.719,3.532,3.532,0,0,1,2.332.742,2.357,2.357,0,0,1,.895,1.9H46.867a1.3,1.3,0,0,0-.5-1.023,1.888,1.888,0,0,0-1.27-.43,1.976,1.976,0,0,0-1.234.344,1.082,1.082,0,0,0-.445.9.877.877,0,0,0,.414.789,5.1,5.1,0,0,0,1.5.508,7.8,7.8,0,0,1,1.754.578,2.558,2.558,0,0,1,1,.809A1.988,1.988,0,0,1,48.4-2.344a2.163,2.163,0,0,1-.906,1.816,3.8,3.8,0,0,1-2.352.684,4.257,4.257,0,0,1-1.8-.359,2.922,2.922,0,0,1-1.223-1A2.42,2.42,0,0,1,41.68-2.6h1.445a1.5,1.5,0,0,0,.582,1.152,2.258,2.258,0,0,0,1.434.426,2.331,2.331,0,0,0,1.316-.332A1.02,1.02,0,0,0,46.953-2.242ZM49.9-4.3a4.993,4.993,0,0,1,.488-2.234A3.643,3.643,0,0,1,51.746-8.07a3.7,3.7,0,0,1,1.988-.539,3.565,3.565,0,0,1,2.793,1.2,4.6,4.6,0,0,1,1.066,3.18v.1a5.036,5.036,0,0,1-.473,2.215A3.589,3.589,0,0,1,55.77-.391a3.743,3.743,0,0,1-2.02.547,3.556,3.556,0,0,1-2.785-1.2A4.575,4.575,0,0,1,49.9-4.2Zm1.453.172A3.616,3.616,0,0,0,52-1.875a2.088,2.088,0,0,0,1.746.852,2.075,2.075,0,0,0,1.75-.863A3.955,3.955,0,0,0,56.148-4.3a3.61,3.61,0,0,0-.66-2.254,2.1,2.1,0,0,0-1.754-.863,2.075,2.075,0,0,0-1.727.852A3.925,3.925,0,0,0,51.352-4.133ZM64.328-2.242a1.064,1.064,0,0,0-.441-.91,4.249,4.249,0,0,0-1.539-.559,7.277,7.277,0,0,1-1.742-.562,2.479,2.479,0,0,1-.953-.781,1.869,1.869,0,0,1-.309-1.078,2.193,2.193,0,0,1,.879-1.758,3.432,3.432,0,0,1,2.246-.719,3.532,3.532,0,0,1,2.332.742,2.357,2.357,0,0,1,.895,1.9H64.242a1.3,1.3,0,0,0-.5-1.023,1.888,1.888,0,0,0-1.27-.43,1.976,1.976,0,0,0-1.234.344,1.082,1.082,0,0,0-.445.9.877.877,0,0,0,.414.789,5.1,5.1,0,0,0,1.5.508,7.8,7.8,0,0,1,1.754.578,2.558,2.558,0,0,1,1,.809,1.988,1.988,0,0,1,.324,1.152,2.163,2.163,0,0,1-.906,1.816,3.8,3.8,0,0,1-2.352.684,4.257,4.257,0,0,1-1.8-.359,2.922,2.922,0,0,1-1.223-1A2.42,2.42,0,0,1,59.055-2.6H60.5a1.5,1.5,0,0,0,.582,1.152,2.258,2.258,0,0,0,1.434.426,2.331,2.331,0,0,0,1.316-.332A1.02,1.02,0,0,0,64.328-2.242Z" transform="translate(232 4118.65)" fill="#12263f"/>
    <path id="Trazado_237645" data-name="Trazado 237645" d="M7.75-5.258H2.82v4.031H8.547V0H1.32V-11.375H8.469v1.227H2.82v3.664H7.75Zm5.273-.109L14.9-8.453h1.688L13.82-4.273,16.672,0H15L13.047-3.164,11.094,0H9.414l2.852-4.273L9.5-8.453h1.672ZM25.258-4.133a5.062,5.062,0,0,1-.883,3.109A2.829,2.829,0,0,1,21.984.156,3.1,3.1,0,0,1,19.563-.82V3.25H18.117v-11.7h1.32l.07.938a2.977,2.977,0,0,1,2.453-1.094,2.882,2.882,0,0,1,2.41,1.148,5.117,5.117,0,0,1,.887,3.2ZM23.813-4.3A3.735,3.735,0,0,0,23.2-6.555a1.963,1.963,0,0,0-1.672-.828,2.125,2.125,0,0,0-1.969,1.164V-2.18a2.129,2.129,0,0,0,1.984,1.156A1.954,1.954,0,0,0,23.2-1.848,4.077,4.077,0,0,0,23.813-4.3ZM28.664,0H27.219V-12h1.445Zm1.93-4.3a4.993,4.993,0,0,1,.488-2.234A3.643,3.643,0,0,1,32.441-8.07a3.7,3.7,0,0,1,1.988-.539,3.565,3.565,0,0,1,2.793,1.2,4.6,4.6,0,0,1,1.066,3.18v.1a5.036,5.036,0,0,1-.473,2.215A3.589,3.589,0,0,1,36.465-.391a3.743,3.743,0,0,1-2.02.547,3.556,3.556,0,0,1-2.785-1.2A4.575,4.575,0,0,1,30.594-4.2Zm1.453.172A3.616,3.616,0,0,0,32.7-1.875a2.088,2.088,0,0,0,1.746.852,2.075,2.075,0,0,0,1.75-.863A3.955,3.955,0,0,0,36.844-4.3a3.61,3.61,0,0,0-.66-2.254,2.1,2.1,0,0,0-1.754-.863A2.075,2.075,0,0,0,32.7-6.57,3.925,3.925,0,0,0,32.047-4.133ZM42.063-10.5v2.047h1.578v1.117H42.063v5.249a1.173,1.173,0,0,0,.211.763.888.888,0,0,0,.719.254,3.5,3.5,0,0,0,.688-.094V0A4.215,4.215,0,0,1,42.57.156,1.8,1.8,0,0,1,41.109-.43a2.517,2.517,0,0,1-.492-1.664V-7.336H39.078V-8.453h1.539V-10.5ZM50.547,0a3.036,3.036,0,0,1-.2-.891A3.225,3.225,0,0,1,47.938.156a2.984,2.984,0,0,1-2.051-.707,2.287,2.287,0,0,1-.8-1.793,2.39,2.39,0,0,1,1-2.051,4.733,4.733,0,0,1,2.824-.73H50.32v-.664A1.623,1.623,0,0,0,49.867-7a1.821,1.821,0,0,0-1.336-.449,2.107,2.107,0,0,0-1.3.391,1.151,1.151,0,0,0-.523.945H45.258a2,2,0,0,1,.449-1.223,3.066,3.066,0,0,1,1.219-.934,4.1,4.1,0,0,1,1.691-.344,3.342,3.342,0,0,1,2.289.73,2.635,2.635,0,0,1,.859,2.012v3.891a4.757,4.757,0,0,0,.3,1.852V0Zm-2.4-1.1a2.54,2.54,0,0,0,1.289-.352,2.127,2.127,0,0,0,.883-.914V-4.1H49.188q-2.656,0-2.656,1.555a1.316,1.316,0,0,0,.453,1.063A1.742,1.742,0,0,0,48.148-1.1Zm9.273.078a2.082,2.082,0,0,0,1.352-.469,1.649,1.649,0,0,0,.641-1.172h1.367a2.621,2.621,0,0,1-.5,1.383,3.293,3.293,0,0,1-1.23,1.047,3.55,3.55,0,0,1-1.629.391A3.482,3.482,0,0,1,54.676-1a4.59,4.59,0,0,1-1.02-3.152v-.242a5.089,5.089,0,0,1,.453-2.2,3.451,3.451,0,0,1,1.3-1.492,3.7,3.7,0,0,1,2-.531,3.39,3.39,0,0,1,2.363.852,3.043,3.043,0,0,1,1,2.211H59.414a1.992,1.992,0,0,0-.621-1.348,1.932,1.932,0,0,0-1.379-.527,2.023,2.023,0,0,0-1.707.793A3.724,3.724,0,0,0,55.1-4.336v.273a3.65,3.65,0,0,0,.6,2.25A2.033,2.033,0,0,0,57.422-1.023ZM63.977,0H62.531V-8.453h1.445ZM62.414-10.7a.863.863,0,0,1,.215-.594.807.807,0,0,1,.637-.242.819.819,0,0,1,.641.242.854.854,0,0,1,.219.594.826.826,0,0,1-.219.586.834.834,0,0,1-.641.234.821.821,0,0,1-.637-.234A.834.834,0,0,1,62.414-10.7ZM65.906-4.3a4.993,4.993,0,0,1,.488-2.234A3.643,3.643,0,0,1,67.754-8.07a3.7,3.7,0,0,1,1.988-.539,3.565,3.565,0,0,1,2.793,1.2A4.6,4.6,0,0,1,73.6-4.234v.1a5.036,5.036,0,0,1-.473,2.215A3.589,3.589,0,0,1,71.777-.391a3.743,3.743,0,0,1-2.02.547,3.556,3.556,0,0,1-2.785-1.2A4.575,4.575,0,0,1,65.906-4.2Zm1.453.172a3.616,3.616,0,0,0,.652,2.258,2.088,2.088,0,0,0,1.746.852,2.075,2.075,0,0,0,1.75-.863A3.955,3.955,0,0,0,72.156-4.3a3.61,3.61,0,0,0-.66-2.254,2.1,2.1,0,0,0-1.754-.863,2.075,2.075,0,0,0-1.727.852A3.925,3.925,0,0,0,67.359-4.133ZM70.4-11.984h1.75l-2.094,2.3-1.164,0Zm6.383,3.531.047,1.063a3.08,3.08,0,0,1,2.531-1.219q2.68,0,2.7,3.023V0H80.617V-5.594A1.946,1.946,0,0,0,80.2-6.945a1.675,1.675,0,0,0-1.277-.437,2.086,2.086,0,0,0-1.234.375,2.546,2.546,0,0,0-.828.984V0H75.414V-8.453Z" transform="translate(360.52 4118.65)" fill="#12263f"/>
    <path id="Trazado_237646" data-name="Trazado 237646" d="M-46.2,0h-1.453V-9.633l-2.914,1.07V-9.875l4.141-1.555h.227Zm8.117-5.508a3.174,3.174,0,0,1-.141-.562,2.02,2.02,0,0,1-1.594.672,2,2,0,0,1-1.437-.484,1.7,1.7,0,0,1-.508-1.289,1.547,1.547,0,0,1,.652-1.336,3.436,3.436,0,0,1,2-.469h.844v-.411q0-1.066-.969-1.066a1.463,1.463,0,0,0-.848.215.71.71,0,0,0-.309.621l-1.258-.094a1.574,1.574,0,0,1,.672-1.312,2.812,2.812,0,0,1,1.742-.508,2.316,2.316,0,0,1,1.641.559,2.083,2.083,0,0,1,.6,1.605V-6.9a4.53,4.53,0,0,0,.2,1.391Zm-1.43-.969a1.639,1.639,0,0,0,.68-.156A1.987,1.987,0,0,0-38.266-7V-8.1h-.875a1.755,1.755,0,0,0-1,.253.751.751,0,0,0-.348.641Q-40.484-6.477-39.508-6.477Zm8.453,2.18a4.952,4.952,0,0,1,.922-3.129,2.915,2.915,0,0,1,2.414-1.184,2.932,2.932,0,0,1,2.352,1.016V-12h1.445V0H-25.25l-.07-.906A2.943,2.943,0,0,1-27.734.156a2.887,2.887,0,0,1-2.395-1.2,5.008,5.008,0,0,1-.926-3.141Zm1.445.164a3.749,3.749,0,0,0,.594,2.25,1.92,1.92,0,0,0,1.641.813A2.108,2.108,0,0,0-25.367-2.3V-6.187a2.125,2.125,0,0,0-1.992-1.2,1.929,1.929,0,0,0-1.656.82A4.128,4.128,0,0,0-29.609-4.133ZM-20.109,0h-1.445V-8.453h1.445Zm-1.562-10.7a.863.863,0,0,1,.215-.594.807.807,0,0,1,.637-.242.819.819,0,0,1,.641.242.854.854,0,0,1,.219.594.826.826,0,0,1-.219.586.834.834,0,0,1-.641.234.821.821,0,0,1-.637-.234A.834.834,0,0,1-21.672-10.7Zm8.8,8.453a1.064,1.064,0,0,0-.441-.91,4.249,4.249,0,0,0-1.539-.559A7.277,7.277,0,0,1-16.6-4.273a2.479,2.479,0,0,1-.953-.781,1.869,1.869,0,0,1-.309-1.078,2.193,2.193,0,0,1,.879-1.758,3.432,3.432,0,0,1,2.246-.719,3.532,3.532,0,0,1,2.332.742,2.357,2.357,0,0,1,.895,1.9h-1.453a1.3,1.3,0,0,0-.5-1.023,1.888,1.888,0,0,0-1.27-.43,1.976,1.976,0,0,0-1.234.344,1.082,1.082,0,0,0-.445.9A.877.877,0,0,0-16-5.391a5.1,5.1,0,0,0,1.5.508A7.8,7.8,0,0,1-12.75-4.3a2.558,2.558,0,0,1,1,.809,1.988,1.988,0,0,1,.324,1.152,2.163,2.163,0,0,1-.906,1.816,3.8,3.8,0,0,1-2.352.684,4.257,4.257,0,0,1-1.8-.359,2.922,2.922,0,0,1-1.223-1A2.42,2.42,0,0,1-18.148-2.6H-16.7a1.5,1.5,0,0,0,.582,1.152,2.258,2.258,0,0,0,1.434.426,2.331,2.331,0,0,0,1.316-.332A1.02,1.02,0,0,0-12.875-2.242ZM-7.586-10.5v2.047h1.578v1.117H-7.586v5.249a1.173,1.173,0,0,0,.211.763.888.888,0,0,0,.719.254,3.5,3.5,0,0,0,.688-.094V0A4.215,4.215,0,0,1-7.078.156,1.8,1.8,0,0,1-8.539-.43a2.517,2.517,0,0,1-.492-1.664V-7.336H-10.57V-8.453h1.539V-10.5ZM-.234-7.156a4.331,4.331,0,0,0-.711-.055A1.9,1.9,0,0,0-2.875-6V0H-4.32V-8.453h1.406l.023.977A2.251,2.251,0,0,1-.875-8.609,1.477,1.477,0,0,1-.234-8.5ZM2.664,0H1.219V-8.453H2.664ZM1.1-10.7a.863.863,0,0,1,.215-.594.807.807,0,0,1,.637-.242.819.819,0,0,1,.641.242.854.854,0,0,1,.219.594.826.826,0,0,1-.219.586.834.834,0,0,1-.641.234.821.821,0,0,1-.637-.234A.834.834,0,0,1,1.1-10.7ZM12.133-4.133a5.026,5.026,0,0,1-.891,3.113A2.846,2.846,0,0,1,8.852.156,2.947,2.947,0,0,1,6.375-.977L6.3,0H4.977V-12H6.422v4.477A2.93,2.93,0,0,1,8.836-8.609a2.863,2.863,0,0,1,2.418,1.164,5.177,5.177,0,0,1,.879,3.188ZM10.688-4.3a3.906,3.906,0,0,0-.57-2.281,1.888,1.888,0,0,0-1.641-.8A2.122,2.122,0,0,0,6.422-6.055V-2.4A2.181,2.181,0,0,0,8.492-1.07a1.878,1.878,0,0,0,1.617-.8A4.153,4.153,0,0,0,10.688-4.3ZM19.172-.836A3.07,3.07,0,0,1,16.7.156a2.628,2.628,0,0,1-2.059-.785,3.4,3.4,0,0,1-.715-2.324v-5.5h1.445v5.461q0,1.922,1.563,1.922a2.163,2.163,0,0,0,2.2-1.234V-8.453h1.445V0H19.2Zm6.992-.187a2.082,2.082,0,0,0,1.352-.469,1.649,1.649,0,0,0,.641-1.172h1.367a2.621,2.621,0,0,1-.5,1.383,3.293,3.293,0,0,1-1.23,1.047,3.55,3.55,0,0,1-1.629.391A3.482,3.482,0,0,1,23.418-1,4.59,4.59,0,0,1,22.4-4.148v-.242a5.089,5.089,0,0,1,.453-2.2,3.451,3.451,0,0,1,1.3-1.492,3.7,3.7,0,0,1,2-.531,3.39,3.39,0,0,1,2.363.852,3.043,3.043,0,0,1,1,2.211H28.156a1.992,1.992,0,0,0-.621-1.348,1.932,1.932,0,0,0-1.379-.527,2.023,2.023,0,0,0-1.707.793,3.724,3.724,0,0,0-.605,2.293v.273a3.65,3.65,0,0,0,.6,2.25A2.033,2.033,0,0,0,26.164-1.023ZM32.719,0H31.273V-8.453h1.445ZM31.156-10.7a.863.863,0,0,1,.215-.594.807.807,0,0,1,.637-.242.819.819,0,0,1,.641.242.854.854,0,0,1,.219.594.826.826,0,0,1-.219.586.834.834,0,0,1-.641.234.821.821,0,0,1-.637-.234A.834.834,0,0,1,31.156-10.7ZM34.648-4.3a4.993,4.993,0,0,1,.488-2.234A3.643,3.643,0,0,1,36.5-8.07a3.7,3.7,0,0,1,1.988-.539,3.565,3.565,0,0,1,2.793,1.2,4.6,4.6,0,0,1,1.066,3.18v.1a5.036,5.036,0,0,1-.473,2.215A3.589,3.589,0,0,1,40.52-.391,3.743,3.743,0,0,1,38.5.156a3.556,3.556,0,0,1-2.785-1.2A4.575,4.575,0,0,1,34.648-4.2Zm1.453.172a3.616,3.616,0,0,0,.652,2.258,2.088,2.088,0,0,0,1.746.852,2.075,2.075,0,0,0,1.75-.863A3.955,3.955,0,0,0,40.9-4.3a3.61,3.61,0,0,0-.66-2.254,2.1,2.1,0,0,0-1.754-.863,2.075,2.075,0,0,0-1.727.852A3.925,3.925,0,0,0,36.1-4.133Zm3.039-7.852h1.75L38.8-9.687l-1.164,0Zm6.383,3.531.047,1.063A3.08,3.08,0,0,1,48.1-8.609q2.68,0,2.7,3.023V0H49.359V-5.594a1.946,1.946,0,0,0-.418-1.352,1.675,1.675,0,0,0-1.277-.437,2.086,2.086,0,0,0-1.234.375,2.546,2.546,0,0,0-.828.984V0H44.156V-8.453Z" transform="translate(534 4119.65)" fill="#12263f"/>
    <path id="Trazado_237647" data-name="Trazado 237647" d="M-47.258-10.148h-3.656V0h-1.492V-10.148h-3.648v-1.227h8.8ZM-42.3-7.156a4.331,4.331,0,0,0-.711-.055A1.9,1.9,0,0,0-44.937-6V0h-1.445V-8.453h1.406l.023.977a2.251,2.251,0,0,1,2.016-1.133A1.477,1.477,0,0,1-42.3-8.5ZM-36.062,0a3.036,3.036,0,0,1-.2-.891A3.225,3.225,0,0,1-38.672.156a2.984,2.984,0,0,1-2.051-.707,2.287,2.287,0,0,1-.8-1.793,2.39,2.39,0,0,1,1-2.051,4.733,4.733,0,0,1,2.824-.73h1.406v-.664A1.623,1.623,0,0,0-36.742-7a1.821,1.821,0,0,0-1.336-.449,2.107,2.107,0,0,0-1.3.391,1.151,1.151,0,0,0-.523.945h-1.453A2,2,0,0,1-40.9-7.332a3.066,3.066,0,0,1,1.219-.934,4.1,4.1,0,0,1,1.691-.344,3.342,3.342,0,0,1,2.289.73,2.635,2.635,0,0,1,.859,2.012v3.891a4.757,4.757,0,0,0,.3,1.852V0Zm-2.4-1.1a2.54,2.54,0,0,0,1.289-.352,2.127,2.127,0,0,0,.883-.914V-4.1h-1.133q-2.656,0-2.656,1.555a1.316,1.316,0,0,0,.453,1.063A1.742,1.742,0,0,0-38.461-1.1Zm7.25-7.352.047,1.063a3.08,3.08,0,0,1,2.531-1.219q2.68,0,2.7,3.023V0h-1.445V-5.594a1.946,1.946,0,0,0-.418-1.352,1.675,1.675,0,0,0-1.277-.437,2.086,2.086,0,0,0-1.234.375,2.546,2.546,0,0,0-.828.984V0h-1.445V-8.453Zm12.383,6.211a1.064,1.064,0,0,0-.441-.91,4.249,4.249,0,0,0-1.539-.559,7.277,7.277,0,0,1-1.742-.562,2.479,2.479,0,0,1-.953-.781,1.869,1.869,0,0,1-.309-1.078,2.193,2.193,0,0,1,.879-1.758,3.432,3.432,0,0,1,2.246-.719,3.532,3.532,0,0,1,2.332.742,2.357,2.357,0,0,1,.895,1.9h-1.453a1.3,1.3,0,0,0-.5-1.023,1.888,1.888,0,0,0-1.27-.43,1.976,1.976,0,0,0-1.234.344,1.082,1.082,0,0,0-.445.9.877.877,0,0,0,.414.789,5.1,5.1,0,0,0,1.5.508A7.8,7.8,0,0,1-18.7-4.3a2.558,2.558,0,0,1,1,.809,1.988,1.988,0,0,1,.324,1.152,2.163,2.163,0,0,1-.906,1.816,3.8,3.8,0,0,1-2.352.684,4.257,4.257,0,0,1-1.8-.359,2.922,2.922,0,0,1-1.223-1A2.42,2.42,0,0,1-24.1-2.6h1.445a1.5,1.5,0,0,0,.582,1.152,2.258,2.258,0,0,0,1.434.426,2.331,2.331,0,0,0,1.316-.332A1.02,1.02,0,0,0-18.828-2.242ZM-14.789,0V-7.336h-1.336V-8.453h1.336V-9.32a2.878,2.878,0,0,1,.727-2.1,2.745,2.745,0,0,1,2.055-.742,3.816,3.816,0,0,1,.992.132l-.078,1.165a4.151,4.151,0,0,0-.781-.07,1.41,1.41,0,0,0-1.086.411,1.669,1.669,0,0,0-.383,1.18v.893h1.8v1.117h-1.8V0Zm4.461-4.3A4.993,4.993,0,0,1-9.84-6.539,3.643,3.643,0,0,1-8.48-8.07a3.7,3.7,0,0,1,1.988-.539A3.565,3.565,0,0,1-3.7-7.414a4.6,4.6,0,0,1,1.066,3.18v.1a5.036,5.036,0,0,1-.473,2.215A3.589,3.589,0,0,1-4.457-.391a3.743,3.743,0,0,1-2.02.547,3.556,3.556,0,0,1-2.785-1.2A4.575,4.575,0,0,1-10.328-4.2Zm1.453.172a3.616,3.616,0,0,0,.652,2.258,2.088,2.088,0,0,0,1.746.852,2.075,2.075,0,0,0,1.75-.863A3.955,3.955,0,0,0-4.078-4.3a3.61,3.61,0,0,0-.66-2.254,2.1,2.1,0,0,0-1.754-.863,2.075,2.075,0,0,0-1.727.852A3.925,3.925,0,0,0-8.875-4.133ZM3.266-7.156a4.331,4.331,0,0,0-.711-.055A1.9,1.9,0,0,0,.625-6V0H-.82V-8.453H.586l.023.977A2.251,2.251,0,0,1,2.625-8.609a1.477,1.477,0,0,1,.641.109Zm2.688-1.3.039.938A3.122,3.122,0,0,1,8.5-8.609,2.417,2.417,0,0,1,10.914-7.25a3.2,3.2,0,0,1,1.1-.984,3.242,3.242,0,0,1,1.6-.375q2.781,0,2.828,2.945V0H14.992V-5.578a1.941,1.941,0,0,0-.414-1.355,1.823,1.823,0,0,0-1.391-.449,1.916,1.916,0,0,0-1.336.48,1.949,1.949,0,0,0-.617,1.293V0H9.781V-5.539a1.613,1.613,0,0,0-1.8-1.844A1.934,1.934,0,0,0,6.031-6.172V0H4.586V-8.453ZM23.836,0a3.036,3.036,0,0,1-.2-.891A3.225,3.225,0,0,1,21.227.156a2.984,2.984,0,0,1-2.051-.707,2.287,2.287,0,0,1-.8-1.793,2.39,2.39,0,0,1,1-2.051,4.733,4.733,0,0,1,2.824-.73h1.406v-.664A1.623,1.623,0,0,0,23.156-7a1.821,1.821,0,0,0-1.336-.449,2.108,2.108,0,0,0-1.3.391A1.151,1.151,0,0,0,20-6.109H18.547A2,2,0,0,1,19-7.332a3.066,3.066,0,0,1,1.219-.934,4.1,4.1,0,0,1,1.691-.344,3.342,3.342,0,0,1,2.289.73,2.635,2.635,0,0,1,.859,2.012v3.891a4.757,4.757,0,0,0,.3,1.852V0Zm-2.4-1.1a2.54,2.54,0,0,0,1.289-.352,2.127,2.127,0,0,0,.883-.914V-4.1H22.477q-2.656,0-2.656,1.555a1.316,1.316,0,0,0,.453,1.063A1.742,1.742,0,0,0,21.438-1.1Zm9.273.078a2.082,2.082,0,0,0,1.352-.469A1.649,1.649,0,0,0,32.7-2.664H34.07a2.621,2.621,0,0,1-.5,1.383A3.293,3.293,0,0,1,32.34-.234a3.55,3.55,0,0,1-1.629.391A3.482,3.482,0,0,1,27.965-1a4.59,4.59,0,0,1-1.02-3.152v-.242a5.089,5.089,0,0,1,.453-2.2,3.451,3.451,0,0,1,1.3-1.492,3.7,3.7,0,0,1,2-.531,3.39,3.39,0,0,1,2.363.852,3.043,3.043,0,0,1,1,2.211H32.7a1.992,1.992,0,0,0-.621-1.348A1.932,1.932,0,0,0,30.7-7.422,2.023,2.023,0,0,0,29-6.629a3.724,3.724,0,0,0-.605,2.293v.273a3.65,3.65,0,0,0,.6,2.25A2.033,2.033,0,0,0,30.711-1.023ZM37.266,0H35.82V-8.453h1.445ZM35.7-10.7a.863.863,0,0,1,.215-.594.807.807,0,0,1,.637-.242.819.819,0,0,1,.641.242.854.854,0,0,1,.219.594.826.826,0,0,1-.219.586.834.834,0,0,1-.641.234.821.821,0,0,1-.637-.234A.834.834,0,0,1,35.7-10.7ZM39.2-4.3a4.993,4.993,0,0,1,.488-2.234A3.643,3.643,0,0,1,41.043-8.07a3.7,3.7,0,0,1,1.988-.539,3.565,3.565,0,0,1,2.793,1.2,4.6,4.6,0,0,1,1.066,3.18v.1a5.036,5.036,0,0,1-.473,2.215A3.589,3.589,0,0,1,45.066-.391a3.743,3.743,0,0,1-2.02.547,3.556,3.556,0,0,1-2.785-1.2A4.575,4.575,0,0,1,39.2-4.2Zm1.453.172A3.616,3.616,0,0,0,41.3-1.875a2.088,2.088,0,0,0,1.746.852,2.075,2.075,0,0,0,1.75-.863A3.955,3.955,0,0,0,45.445-4.3a3.61,3.61,0,0,0-.66-2.254,2.1,2.1,0,0,0-1.754-.863A2.075,2.075,0,0,0,41.3-6.57,3.925,3.925,0,0,0,40.648-4.133Zm3.039-7.852h1.75l-2.094,2.3-1.164,0ZM50.07-8.453l.047,1.063a3.08,3.08,0,0,1,2.531-1.219q2.68,0,2.7,3.023V0H53.906V-5.594a1.946,1.946,0,0,0-.418-1.352,1.675,1.675,0,0,0-1.277-.437,2.086,2.086,0,0,0-1.234.375,2.546,2.546,0,0,0-.828.984V0H48.7V-8.453Z" transform="translate(670.52 4119.65)" fill="#12263f"/>
    <path id="Trazado_237648" data-name="Trazado 237648" d="M-49.516,0h-7.453V-1.039l3.938-4.375a9.355,9.355,0,0,0,1.207-1.613,2.693,2.693,0,0,0,.332-1.285,2.041,2.041,0,0,0-.539-1.461,1.885,1.885,0,0,0-1.437-.57,2.232,2.232,0,0,0-1.676.613,2.343,2.343,0,0,0-.6,1.707h-1.445a3.355,3.355,0,0,1,1.012-2.539,3.751,3.751,0,0,1,2.707-.969,3.6,3.6,0,0,1,2.508.832,2.838,2.838,0,0,1,.922,2.215q0,1.68-2.141,4l-3.047,3.3h5.711Zm1.328-4.3a4.952,4.952,0,0,1,.922-3.129,2.915,2.915,0,0,1,2.414-1.184A2.932,2.932,0,0,1-42.5-7.594V-12h1.445V0h-1.328l-.07-.906A2.943,2.943,0,0,1-44.867.156a2.887,2.887,0,0,1-2.395-1.2,5.008,5.008,0,0,1-.926-3.141Zm1.445.164a3.749,3.749,0,0,0,.594,2.25,1.92,1.92,0,0,0,1.641.813A2.108,2.108,0,0,0-42.5-2.3V-6.187a2.125,2.125,0,0,0-1.992-1.2,1.929,1.929,0,0,0-1.656.82A4.128,4.128,0,0,0-46.742-4.133ZM-33.594,0a3.036,3.036,0,0,1-.2-.891A3.225,3.225,0,0,1-36.2.156a2.984,2.984,0,0,1-2.051-.707,2.287,2.287,0,0,1-.8-1.793,2.39,2.39,0,0,1,1-2.051,4.733,4.733,0,0,1,2.824-.73h1.406v-.664A1.623,1.623,0,0,0-34.273-7a1.821,1.821,0,0,0-1.336-.449,2.107,2.107,0,0,0-1.3.391,1.151,1.151,0,0,0-.523.945h-1.453a2,2,0,0,1,.449-1.223,3.066,3.066,0,0,1,1.219-.934,4.1,4.1,0,0,1,1.691-.344,3.342,3.342,0,0,1,2.289.73,2.635,2.635,0,0,1,.859,2.012v3.891a4.757,4.757,0,0,0,.3,1.852V0Zm-2.4-1.1A2.54,2.54,0,0,0-34.7-1.453a2.127,2.127,0,0,0,.883-.914V-4.1h-1.133q-2.656,0-2.656,1.555a1.316,1.316,0,0,0,.453,1.063A1.742,1.742,0,0,0-35.992-1.1ZM-25.922,0V-11.375h3.211a5.169,5.169,0,0,1,2.625.656,4.438,4.438,0,0,1,1.762,1.867A6.078,6.078,0,0,1-17.7-6.07v.727a6.1,6.1,0,0,1-.621,2.82A4.369,4.369,0,0,1-20.09-.664,5.5,5.5,0,0,1-22.773,0Zm1.5-10.148v8.922h1.578a3.434,3.434,0,0,0,2.7-1.079,4.458,4.458,0,0,0,.965-3.073v-.665a4.529,4.529,0,0,0-.91-3.014,3.239,3.239,0,0,0-2.582-1.091ZM-14.086,0h-1.445V-8.453h1.445Zm-1.562-10.7a.863.863,0,0,1,.215-.594.807.807,0,0,1,.637-.242.819.819,0,0,1,.641.242.854.854,0,0,1,.219.594.826.826,0,0,1-.219.586.834.834,0,0,1-.641.234.821.821,0,0,1-.637-.234A.834.834,0,0,1-15.648-10.7Zm8.8,8.453a1.064,1.064,0,0,0-.441-.91,4.249,4.249,0,0,0-1.539-.559,7.277,7.277,0,0,1-1.742-.562,2.479,2.479,0,0,1-.953-.781,1.869,1.869,0,0,1-.309-1.078,2.193,2.193,0,0,1,.879-1.758,3.432,3.432,0,0,1,2.246-.719,3.532,3.532,0,0,1,2.332.742,2.357,2.357,0,0,1,.895,1.9H-6.937a1.3,1.3,0,0,0-.5-1.023,1.888,1.888,0,0,0-1.27-.43,1.976,1.976,0,0,0-1.234.344,1.082,1.082,0,0,0-.445.9.877.877,0,0,0,.414.789,5.1,5.1,0,0,0,1.5.508A7.8,7.8,0,0,1-6.727-4.3a2.558,2.558,0,0,1,1,.809,1.988,1.988,0,0,1,.324,1.152A2.163,2.163,0,0,1-6.312-.527,3.8,3.8,0,0,1-8.664.156a4.257,4.257,0,0,1-1.8-.359,2.922,2.922,0,0,1-1.223-1A2.42,2.42,0,0,1-12.125-2.6h1.445A1.5,1.5,0,0,0-10.1-1.449a2.258,2.258,0,0,0,1.434.426,2.331,2.331,0,0,0,1.316-.332A1.02,1.02,0,0,0-6.852-2.242ZM-1.562-10.5v2.047H.016v1.117H-1.562v5.249a1.173,1.173,0,0,0,.211.763.888.888,0,0,0,.719.254,3.5,3.5,0,0,0,.688-.094V0A4.215,4.215,0,0,1-1.055.156,1.8,1.8,0,0,1-2.516-.43a2.517,2.517,0,0,1-.492-1.664V-7.336H-4.547V-8.453h1.539V-10.5ZM5.789-7.156a4.331,4.331,0,0,0-.711-.055A1.9,1.9,0,0,0,3.148-6V0H1.7V-8.453H3.109l.023.977A2.251,2.251,0,0,1,5.148-8.609a1.477,1.477,0,0,1,.641.109ZM8.688,0H7.242V-8.453H8.688ZM7.125-10.7a.863.863,0,0,1,.215-.594.807.807,0,0,1,.637-.242.819.819,0,0,1,.641.242.854.854,0,0,1,.219.594.826.826,0,0,1-.219.586.834.834,0,0,1-.641.234.821.821,0,0,1-.637-.234A.834.834,0,0,1,7.125-10.7ZM18.156-4.133a5.026,5.026,0,0,1-.891,3.113A2.846,2.846,0,0,1,14.875.156,2.947,2.947,0,0,1,12.4-.977L12.328,0H11V-12h1.445v4.477a2.93,2.93,0,0,1,2.414-1.086,2.863,2.863,0,0,1,2.418,1.164,5.177,5.177,0,0,1,.879,3.188ZM16.711-4.3a3.906,3.906,0,0,0-.57-2.281,1.888,1.888,0,0,0-1.641-.8,2.122,2.122,0,0,0-2.055,1.328V-2.4a2.181,2.181,0,0,0,2.07,1.328,1.878,1.878,0,0,0,1.617-.8A4.153,4.153,0,0,0,16.711-4.3ZM25.2-.836a3.07,3.07,0,0,1-2.477.992A2.628,2.628,0,0,1,20.66-.629a3.4,3.4,0,0,1-.715-2.324v-5.5h1.445v5.461q0,1.922,1.563,1.922a2.163,2.163,0,0,0,2.2-1.234V-8.453H26.6V0H25.227Zm6.992-.187a2.082,2.082,0,0,0,1.352-.469,1.649,1.649,0,0,0,.641-1.172h1.367a2.621,2.621,0,0,1-.5,1.383,3.293,3.293,0,0,1-1.23,1.047,3.55,3.55,0,0,1-1.629.391A3.482,3.482,0,0,1,29.441-1a4.59,4.59,0,0,1-1.02-3.152v-.242a5.089,5.089,0,0,1,.453-2.2,3.451,3.451,0,0,1,1.3-1.492,3.7,3.7,0,0,1,2-.531,3.39,3.39,0,0,1,2.363.852,3.043,3.043,0,0,1,1,2.211H34.18a1.992,1.992,0,0,0-.621-1.348,1.932,1.932,0,0,0-1.379-.527,2.023,2.023,0,0,0-1.707.793,3.724,3.724,0,0,0-.605,2.293v.273a3.65,3.65,0,0,0,.6,2.25A2.033,2.033,0,0,0,32.188-1.023ZM38.742,0H37.3V-8.453h1.445ZM37.18-10.7a.863.863,0,0,1,.215-.594.807.807,0,0,1,.637-.242.819.819,0,0,1,.641.242.854.854,0,0,1,.219.594.826.826,0,0,1-.219.586.834.834,0,0,1-.641.234.821.821,0,0,1-.637-.234A.834.834,0,0,1,37.18-10.7ZM40.672-4.3a4.993,4.993,0,0,1,.488-2.234A3.643,3.643,0,0,1,42.52-8.07a3.7,3.7,0,0,1,1.988-.539,3.565,3.565,0,0,1,2.793,1.2,4.6,4.6,0,0,1,1.066,3.18v.1a5.036,5.036,0,0,1-.473,2.215A3.589,3.589,0,0,1,46.543-.391a3.743,3.743,0,0,1-2.02.547,3.556,3.556,0,0,1-2.785-1.2A4.575,4.575,0,0,1,40.672-4.2Zm1.453.172a3.616,3.616,0,0,0,.652,2.258,2.088,2.088,0,0,0,1.746.852,2.075,2.075,0,0,0,1.75-.863A3.955,3.955,0,0,0,46.922-4.3a3.61,3.61,0,0,0-.66-2.254,2.1,2.1,0,0,0-1.754-.863,2.075,2.075,0,0,0-1.727.852A3.925,3.925,0,0,0,42.125-4.133Zm3.039-7.852h1.75l-2.094,2.3-1.164,0Zm6.383,3.531.047,1.063a3.08,3.08,0,0,1,2.531-1.219q2.68,0,2.7,3.023V0H55.383V-5.594a1.946,1.946,0,0,0-.418-1.352,1.675,1.675,0,0,0-1.277-.437,2.086,2.086,0,0,0-1.234.375,2.546,2.546,0,0,0-.828.984V0H50.18V-8.453Z" transform="translate(800.52 4119.65)" fill="#12263f"/>
    <path id="Trazado_237654" data-name="Trazado 237654" d="M2.82-4.453V0H1.32V-11.375h4.2a4.215,4.215,0,0,1,2.926.953A3.231,3.231,0,0,1,9.5-7.9,3.189,3.189,0,0,1,8.465-5.348,4.4,4.4,0,0,1,5.5-4.453Zm0-1.227h2.7a2.7,2.7,0,0,0,1.844-.567A2.075,2.075,0,0,0,8-7.887a2.143,2.143,0,0,0-.641-1.628A2.525,2.525,0,0,0,5.6-10.148H2.82ZM15.273-7.156a4.331,4.331,0,0,0-.711-.055A1.9,1.9,0,0,0,12.633-6V0H11.188V-8.453h1.406l.023.977a2.251,2.251,0,0,1,2.016-1.133,1.477,1.477,0,0,1,.641.109ZM16.063-4.3a4.993,4.993,0,0,1,.488-2.234A3.643,3.643,0,0,1,17.91-8.07,3.7,3.7,0,0,1,19.9-8.609a3.565,3.565,0,0,1,2.793,1.2,4.6,4.6,0,0,1,1.066,3.18v.1a5.036,5.036,0,0,1-.473,2.215A3.589,3.589,0,0,1,21.934-.391a3.743,3.743,0,0,1-2.02.547,3.556,3.556,0,0,1-2.785-1.2A4.575,4.575,0,0,1,16.063-4.2Zm1.453.172a3.616,3.616,0,0,0,.652,2.258,2.088,2.088,0,0,0,1.746.852,2.075,2.075,0,0,0,1.75-.863A3.955,3.955,0,0,0,22.313-4.3a3.61,3.61,0,0,0-.66-2.254A2.1,2.1,0,0,0,19.9-7.422a2.075,2.075,0,0,0-1.727.852A3.925,3.925,0,0,0,17.516-4.133Zm7.7-.164a4.952,4.952,0,0,1,.922-3.129,2.915,2.915,0,0,1,2.414-1.184,2.932,2.932,0,0,1,2.352,1.016V-12h1.445V0H31.023l-.07-.906A2.943,2.943,0,0,1,28.539.156a2.887,2.887,0,0,1-2.395-1.2,5.008,5.008,0,0,1-.926-3.141Zm1.445.164a3.749,3.749,0,0,0,.594,2.25A1.92,1.92,0,0,0,28.9-1.07,2.108,2.108,0,0,0,30.906-2.3V-6.187a2.125,2.125,0,0,0-1.992-1.2,1.929,1.929,0,0,0-1.656.82A4.128,4.128,0,0,0,26.664-4.133Zm13.148,3.3a3.07,3.07,0,0,1-2.477.992,2.628,2.628,0,0,1-2.059-.785,3.4,3.4,0,0,1-.715-2.324v-5.5h1.445v5.461q0,1.922,1.563,1.922a2.163,2.163,0,0,0,2.2-1.234V-8.453h1.445V0H39.844ZM46.8-1.023a2.082,2.082,0,0,0,1.352-.469A1.649,1.649,0,0,0,48.8-2.664h1.367a2.621,2.621,0,0,1-.5,1.383,3.293,3.293,0,0,1-1.23,1.047A3.55,3.55,0,0,1,46.8.156,3.482,3.482,0,0,1,44.059-1a4.59,4.59,0,0,1-1.02-3.152v-.242a5.089,5.089,0,0,1,.453-2.2,3.451,3.451,0,0,1,1.3-1.492,3.7,3.7,0,0,1,2-.531,3.39,3.39,0,0,1,2.363.852,3.043,3.043,0,0,1,1,2.211H48.8a1.992,1.992,0,0,0-.621-1.348A1.932,1.932,0,0,0,46.8-7.422a2.023,2.023,0,0,0-1.707.793,3.724,3.724,0,0,0-.605,2.293v.273a3.65,3.65,0,0,0,.6,2.25A2.033,2.033,0,0,0,46.8-1.023Zm8.375,0a2.082,2.082,0,0,0,1.352-.469,1.649,1.649,0,0,0,.641-1.172h1.367a2.621,2.621,0,0,1-.5,1.383,3.293,3.293,0,0,1-1.23,1.047A3.55,3.55,0,0,1,55.18.156,3.482,3.482,0,0,1,52.434-1a4.59,4.59,0,0,1-1.02-3.152v-.242a5.089,5.089,0,0,1,.453-2.2,3.451,3.451,0,0,1,1.3-1.492,3.7,3.7,0,0,1,2-.531,3.39,3.39,0,0,1,2.363.852,3.043,3.043,0,0,1,1,2.211H57.172a1.992,1.992,0,0,0-.621-1.348,1.932,1.932,0,0,0-1.379-.527,2.023,2.023,0,0,0-1.707.793,3.724,3.724,0,0,0-.605,2.293v.273a3.65,3.65,0,0,0,.6,2.25A2.033,2.033,0,0,0,55.18-1.023ZM61.734,0H60.289V-8.453h1.445ZM60.172-10.7a.863.863,0,0,1,.215-.594.807.807,0,0,1,.637-.242.819.819,0,0,1,.641.242.854.854,0,0,1,.219.594.826.826,0,0,1-.219.586.834.834,0,0,1-.641.234.821.821,0,0,1-.637-.234A.834.834,0,0,1,60.172-10.7ZM63.664-4.3a4.993,4.993,0,0,1,.488-2.234A3.643,3.643,0,0,1,65.512-8.07,3.7,3.7,0,0,1,67.5-8.609a3.565,3.565,0,0,1,2.793,1.2,4.6,4.6,0,0,1,1.066,3.18v.1a5.036,5.036,0,0,1-.473,2.215A3.589,3.589,0,0,1,69.535-.391a3.743,3.743,0,0,1-2.02.547,3.556,3.556,0,0,1-2.785-1.2A4.575,4.575,0,0,1,63.664-4.2Zm1.453.172a3.616,3.616,0,0,0,.652,2.258,2.088,2.088,0,0,0,1.746.852,2.075,2.075,0,0,0,1.75-.863A3.955,3.955,0,0,0,69.914-4.3a3.61,3.61,0,0,0-.66-2.254A2.1,2.1,0,0,0,67.5-7.422a2.075,2.075,0,0,0-1.727.852A3.925,3.925,0,0,0,65.117-4.133Zm3.039-7.852h1.75l-2.094,2.3-1.164,0Zm6.383,3.531.047,1.063a3.08,3.08,0,0,1,2.531-1.219q2.68,0,2.7,3.023V0H78.375V-5.594a1.946,1.946,0,0,0-.418-1.352,1.675,1.675,0,0,0-1.277-.437,2.086,2.086,0,0,0-1.234.375,2.546,2.546,0,0,0-.828.984V0H73.172V-8.453Z" transform="translate(876 4119.65)" fill="#00334e"/>
    <path id="Trazado_237661" data-name="Trazado 237661" d="M-66.812,0V-11.375H-63.6a5.169,5.169,0,0,1,2.625.656,4.438,4.438,0,0,1,1.762,1.867,6.078,6.078,0,0,1,.629,2.781v.727a6.1,6.1,0,0,1-.621,2.82A4.369,4.369,0,0,1-60.98-.664,5.5,5.5,0,0,1-63.664,0Zm1.5-10.148v8.922h1.578a3.434,3.434,0,0,0,2.7-1.079,4.458,4.458,0,0,0,.965-3.073v-.665a4.529,4.529,0,0,0-.91-3.014,3.239,3.239,0,0,0-2.582-1.091ZM-54.977,0h-1.445V-8.453h1.445Zm-1.562-10.7a.863.863,0,0,1,.215-.594.807.807,0,0,1,.637-.242.819.819,0,0,1,.641.242.854.854,0,0,1,.219.594.826.826,0,0,1-.219.586.834.834,0,0,1-.641.234.821.821,0,0,1-.637-.234A.834.834,0,0,1-56.539-10.7Zm8.8,8.453a1.064,1.064,0,0,0-.441-.91,4.249,4.249,0,0,0-1.539-.559,7.277,7.277,0,0,1-1.742-.562,2.479,2.479,0,0,1-.953-.781,1.869,1.869,0,0,1-.309-1.078,2.193,2.193,0,0,1,.879-1.758A3.432,3.432,0,0,1-49.6-8.609a3.532,3.532,0,0,1,2.332.742,2.357,2.357,0,0,1,.895,1.9h-1.453a1.3,1.3,0,0,0-.5-1.023,1.888,1.888,0,0,0-1.27-.43,1.976,1.976,0,0,0-1.234.344,1.082,1.082,0,0,0-.445.9.877.877,0,0,0,.414.789,5.1,5.1,0,0,0,1.5.508,7.8,7.8,0,0,1,1.754.578,2.558,2.558,0,0,1,1,.809A1.988,1.988,0,0,1-46.3-2.344,2.163,2.163,0,0,1-47.2-.527a3.8,3.8,0,0,1-2.352.684,4.257,4.257,0,0,1-1.8-.359,2.922,2.922,0,0,1-1.223-1A2.42,2.42,0,0,1-53.016-2.6h1.445a1.5,1.5,0,0,0,.582,1.152,2.258,2.258,0,0,0,1.434.426,2.331,2.331,0,0,0,1.316-.332A1.02,1.02,0,0,0-47.742-2.242Zm5.289-8.258v2.047h1.578v1.117h-1.578v5.249a1.173,1.173,0,0,0,.211.763.888.888,0,0,0,.719.254,3.5,3.5,0,0,0,.688-.094V0a4.215,4.215,0,0,1-1.109.155A1.8,1.8,0,0,1-43.406-.43,2.517,2.517,0,0,1-43.9-2.094V-7.336h-1.539V-8.453H-43.9V-10.5ZM-35.1-7.156a4.331,4.331,0,0,0-.711-.055A1.9,1.9,0,0,0-37.742-6V0h-1.445V-8.453h1.406l.023.977a2.251,2.251,0,0,1,2.016-1.133A1.477,1.477,0,0,1-35.1-8.5ZM-32.2,0h-1.445V-8.453H-32.2Zm-1.562-10.7a.863.863,0,0,1,.215-.594.807.807,0,0,1,.637-.242.819.819,0,0,1,.641.242.854.854,0,0,1,.219.594.826.826,0,0,1-.219.586.834.834,0,0,1-.641.234.821.821,0,0,1-.637-.234A.834.834,0,0,1-33.766-10.7Zm11.031,6.563a5.026,5.026,0,0,1-.891,3.113A2.846,2.846,0,0,1-26.016.156,2.947,2.947,0,0,1-28.492-.977l-.07.977h-1.328V-12h1.445v4.477a2.93,2.93,0,0,1,2.414-1.086,2.863,2.863,0,0,1,2.418,1.164,5.177,5.177,0,0,1,.879,3.188ZM-24.18-4.3a3.906,3.906,0,0,0-.57-2.281,1.888,1.888,0,0,0-1.641-.8,2.122,2.122,0,0,0-2.055,1.328V-2.4a2.181,2.181,0,0,0,2.07,1.328,1.878,1.878,0,0,0,1.617-.8A4.153,4.153,0,0,0-24.18-4.3ZM-15.7-.836a3.07,3.07,0,0,1-2.477.992A2.628,2.628,0,0,1-20.23-.629a3.4,3.4,0,0,1-.715-2.324v-5.5H-19.5v5.461q0,1.922,1.563,1.922a2.163,2.163,0,0,0,2.2-1.234V-8.453h1.445V0h-1.375ZM-8.7-1.023a2.082,2.082,0,0,0,1.352-.469,1.649,1.649,0,0,0,.641-1.172h1.367a2.621,2.621,0,0,1-.5,1.383A3.293,3.293,0,0,1-7.074-.234,3.55,3.55,0,0,1-8.7.156,3.482,3.482,0,0,1-11.449-1a4.59,4.59,0,0,1-1.02-3.152v-.242a5.089,5.089,0,0,1,.453-2.2,3.451,3.451,0,0,1,1.3-1.492,3.7,3.7,0,0,1,2-.531,3.39,3.39,0,0,1,2.363.852,3.043,3.043,0,0,1,1,2.211H-6.711a1.992,1.992,0,0,0-.621-1.348,1.932,1.932,0,0,0-1.379-.527,2.023,2.023,0,0,0-1.707.793,3.724,3.724,0,0,0-.605,2.293v.273a3.65,3.65,0,0,0,.6,2.25A2.033,2.033,0,0,0-8.7-1.023ZM-2.148,0H-3.594V-8.453h1.445ZM-3.711-10.7a.863.863,0,0,1,.215-.594.807.807,0,0,1,.637-.242.819.819,0,0,1,.641.242A.854.854,0,0,1-2-10.7a.826.826,0,0,1-.219.586.834.834,0,0,1-.641.234.821.821,0,0,1-.637-.234A.834.834,0,0,1-3.711-10.7ZM-.219-4.3A4.993,4.993,0,0,1,.27-6.539,3.643,3.643,0,0,1,1.629-8.07a3.7,3.7,0,0,1,1.988-.539,3.565,3.565,0,0,1,2.793,1.2,4.6,4.6,0,0,1,1.066,3.18v.1A5.036,5.036,0,0,1,7-1.918,3.589,3.589,0,0,1,5.652-.391a3.743,3.743,0,0,1-2.02.547,3.556,3.556,0,0,1-2.785-1.2A4.575,4.575,0,0,1-.219-4.2Zm1.453.172a3.616,3.616,0,0,0,.652,2.258,2.088,2.088,0,0,0,1.746.852,2.075,2.075,0,0,0,1.75-.863A3.955,3.955,0,0,0,6.031-4.3a3.61,3.61,0,0,0-.66-2.254,2.1,2.1,0,0,0-1.754-.863,2.075,2.075,0,0,0-1.727.852A3.925,3.925,0,0,0,1.234-4.133Zm3.039-7.852h1.75L3.93-9.687l-1.164,0Zm6.383,3.531L10.7-7.391a3.08,3.08,0,0,1,2.531-1.219q2.68,0,2.7,3.023V0H14.492V-5.594a1.946,1.946,0,0,0-.418-1.352A1.675,1.675,0,0,0,12.8-7.383a2.086,2.086,0,0,0-1.234.375,2.546,2.546,0,0,0-.828.984V0H9.289V-8.453Zm14.813,7.43a2.082,2.082,0,0,0,1.352-.469,1.649,1.649,0,0,0,.641-1.172h1.367a2.621,2.621,0,0,1-.5,1.383A3.293,3.293,0,0,1,27.1-.234a3.55,3.55,0,0,1-1.629.391A3.482,3.482,0,0,1,22.723-1,4.59,4.59,0,0,1,21.7-4.148v-.242a5.089,5.089,0,0,1,.453-2.2,3.451,3.451,0,0,1,1.3-1.492,3.7,3.7,0,0,1,2-.531,3.39,3.39,0,0,1,2.363.852,3.043,3.043,0,0,1,1,2.211H27.461a1.992,1.992,0,0,0-.621-1.348,1.932,1.932,0,0,0-1.379-.527,2.023,2.023,0,0,0-1.707.793,3.724,3.724,0,0,0-.605,2.293v.273a3.65,3.65,0,0,0,.6,2.25A2.033,2.033,0,0,0,25.469-1.023ZM32.023,0H30.578V-12h1.445Zm3.883,0H34.461V-8.453h1.445ZM34.344-10.7a.863.863,0,0,1,.215-.594.807.807,0,0,1,.637-.242.819.819,0,0,1,.641.242.854.854,0,0,1,.219.594.826.826,0,0,1-.219.586.834.834,0,0,1-.641.234.821.821,0,0,1-.637-.234A.834.834,0,0,1,34.344-10.7ZM41.727.156a3.693,3.693,0,0,1-2.8-1.129,4.19,4.19,0,0,1-1.078-3.02v-.266a5.073,5.073,0,0,1,.48-2.246,3.748,3.748,0,0,1,1.344-1.547,3.378,3.378,0,0,1,1.871-.559,3.166,3.166,0,0,1,2.563,1.086,4.7,4.7,0,0,1,.914,3.109v.6H39.3a3,3,0,0,0,.73,2.02,2.3,2.3,0,0,0,1.777.77,2.517,2.517,0,0,0,1.3-.312,3.259,3.259,0,0,0,.93-.828l.883.688A3.55,3.55,0,0,1,41.727.156Zm-.18-7.578a1.928,1.928,0,0,0-1.469.637A3.1,3.1,0,0,0,39.344-5h4.234v-.109a2.753,2.753,0,0,0-.594-1.707A1.815,1.815,0,0,0,41.547-7.422Zm6.516-1.031.047,1.063a3.08,3.08,0,0,1,2.531-1.219q2.68,0,2.7,3.023V0H51.9V-5.594a1.946,1.946,0,0,0-.418-1.352A1.675,1.675,0,0,0,50.2-7.383a2.086,2.086,0,0,0-1.234.375,2.546,2.546,0,0,0-.828.984V0H46.7V-8.453ZM57.484-10.5v2.047h1.578v1.117H57.484v5.249a1.173,1.173,0,0,0,.211.763.888.888,0,0,0,.719.254,3.5,3.5,0,0,0,.688-.094V0a4.215,4.215,0,0,1-1.109.155A1.8,1.8,0,0,1,56.531-.43a2.517,2.517,0,0,1-.492-1.664V-7.336H54.5V-8.453h1.539V-10.5ZM64.258.156a3.693,3.693,0,0,1-2.8-1.129,4.19,4.19,0,0,1-1.078-3.02v-.266a5.073,5.073,0,0,1,.48-2.246,3.748,3.748,0,0,1,1.344-1.547,3.378,3.378,0,0,1,1.871-.559,3.166,3.166,0,0,1,2.563,1.086,4.7,4.7,0,0,1,.914,3.109v.6H61.828a3,3,0,0,0,.73,2.02,2.3,2.3,0,0,0,1.777.77,2.517,2.517,0,0,0,1.3-.312,3.259,3.259,0,0,0,.93-.828l.883.688A3.55,3.55,0,0,1,64.258.156Zm-.18-7.578a1.928,1.928,0,0,0-1.469.637A3.1,3.1,0,0,0,61.875-5h4.234v-.109a2.753,2.753,0,0,0-.594-1.707A1.815,1.815,0,0,0,64.078-7.422Z" transform="translate(1048.062 4119.762)" fill="#00334e"/>
    <path id="Trazado_237666" data-name="Trazado 237666" d="M9.328-11.375v7.734A3.628,3.628,0,0,1,8.316-1.008,4.077,4.077,0,0,1,5.594.141L5.2.156A4.258,4.258,0,0,1,2.219-.852,3.6,3.6,0,0,1,1.094-3.625v-7.75H2.578v7.7a2.6,2.6,0,0,0,.68,1.918A2.612,2.612,0,0,0,5.2-1.07a2.63,2.63,0,0,0,1.949-.68A2.6,2.6,0,0,0,7.82-3.664v-7.711Zm7.063,9.133a1.064,1.064,0,0,0-.441-.91,4.249,4.249,0,0,0-1.539-.559,7.277,7.277,0,0,1-1.742-.562,2.479,2.479,0,0,1-.953-.781,1.869,1.869,0,0,1-.309-1.078,2.193,2.193,0,0,1,.879-1.758,3.432,3.432,0,0,1,2.246-.719,3.532,3.532,0,0,1,2.332.742,2.357,2.357,0,0,1,.895,1.9H16.3a1.3,1.3,0,0,0-.5-1.023,1.888,1.888,0,0,0-1.27-.43,1.976,1.976,0,0,0-1.234.344,1.082,1.082,0,0,0-.445.9.877.877,0,0,0,.414.789,5.1,5.1,0,0,0,1.5.508,7.8,7.8,0,0,1,1.754.578,2.558,2.558,0,0,1,1,.809,1.988,1.988,0,0,1,.324,1.152A2.163,2.163,0,0,1,16.93-.527a3.8,3.8,0,0,1-2.352.684,4.257,4.257,0,0,1-1.8-.359,2.922,2.922,0,0,1-1.223-1A2.42,2.42,0,0,1,11.117-2.6h1.445a1.5,1.5,0,0,0,.582,1.152,2.258,2.258,0,0,0,1.434.426,2.331,2.331,0,0,0,1.316-.332A1.02,1.02,0,0,0,16.391-2.242ZM19.336-4.3a4.993,4.993,0,0,1,.488-2.234A3.643,3.643,0,0,1,21.184-8.07a3.7,3.7,0,0,1,1.988-.539,3.565,3.565,0,0,1,2.793,1.2,4.6,4.6,0,0,1,1.066,3.18v.1a5.036,5.036,0,0,1-.473,2.215A3.589,3.589,0,0,1,25.207-.391a3.743,3.743,0,0,1-2.02.547,3.556,3.556,0,0,1-2.785-1.2A4.575,4.575,0,0,1,19.336-4.2Zm1.453.172a3.616,3.616,0,0,0,.652,2.258,2.088,2.088,0,0,0,1.746.852,2.075,2.075,0,0,0,1.75-.863A3.955,3.955,0,0,0,25.586-4.3a3.61,3.61,0,0,0-.66-2.254,2.1,2.1,0,0,0-1.754-.863,2.075,2.075,0,0,0-1.727.852A3.925,3.925,0,0,0,20.789-4.133Z" transform="translate(1161.659 4119.762)" fill="#12263f"/>
    <path id="Trazado_237669" data-name="Trazado 237669" d="M-30.574-5.023h-4.773V0h-1.5V-11.375H-29.8v1.227h-5.547v3.9h4.773ZM-26.66,0h-1.445V-8.453h1.445Zm-1.562-10.7a.863.863,0,0,1,.215-.594.807.807,0,0,1,.637-.242.819.819,0,0,1,.641.242.854.854,0,0,1,.219.594.826.826,0,0,1-.219.586.834.834,0,0,1-.641.234.821.821,0,0,1-.637-.234A.834.834,0,0,1-28.223-10.7Zm5.242,2.242.047,1.063A3.08,3.08,0,0,1-20.4-8.609q2.68,0,2.7,3.023V0h-1.445V-5.594a1.946,1.946,0,0,0-.418-1.352,1.675,1.675,0,0,0-1.277-.437,2.086,2.086,0,0,0-1.234.375,2.546,2.546,0,0,0-.828.984V0h-1.445V-8.453ZM-11.91-4.3a4.952,4.952,0,0,1,.922-3.129A2.915,2.915,0,0,1-8.574-8.609,2.932,2.932,0,0,1-6.223-7.594V-12h1.445V0H-6.105l-.07-.906A2.943,2.943,0,0,1-8.59.156a2.887,2.887,0,0,1-2.395-1.2,5.008,5.008,0,0,1-.926-3.141Zm1.445.164a3.749,3.749,0,0,0,.594,2.25A1.92,1.92,0,0,0-8.23-1.07,2.108,2.108,0,0,0-6.223-2.3V-6.187a2.125,2.125,0,0,0-1.992-1.2,1.929,1.929,0,0,0-1.656.82A4.128,4.128,0,0,0-10.465-4.133ZM.973.156a3.693,3.693,0,0,1-2.8-1.129A4.19,4.19,0,0,1-2.9-3.992v-.266A5.073,5.073,0,0,1-2.422-6.5,3.748,3.748,0,0,1-1.078-8.051,3.378,3.378,0,0,1,.793-8.609,3.166,3.166,0,0,1,3.355-7.523,4.7,4.7,0,0,1,4.27-4.414v.6H-1.457a3,3,0,0,0,.73,2.02,2.3,2.3,0,0,0,1.777.77,2.517,2.517,0,0,0,1.3-.312,3.259,3.259,0,0,0,.93-.828l.883.688A3.55,3.55,0,0,1,.973.156ZM.793-7.422a1.928,1.928,0,0,0-1.469.637A3.1,3.1,0,0,0-1.41-5H2.824v-.109A2.753,2.753,0,0,0,2.23-6.816,1.815,1.815,0,0,0,.793-7.422Zm11.9,5.461,2.094-6.492h1.477L13.23,0h-1.1L9.066-8.453h1.477ZM19.223,0H17.777V-8.453h1.445ZM17.66-10.7a.863.863,0,0,1,.215-.594.807.807,0,0,1,.637-.242.819.819,0,0,1,.641.242.854.854,0,0,1,.219.594.826.826,0,0,1-.219.586.834.834,0,0,1-.641.234.821.821,0,0,1-.637-.234A.834.834,0,0,1,17.66-10.7Zm3.523,6.4a4.952,4.952,0,0,1,.922-3.129A2.915,2.915,0,0,1,24.52-8.609a2.932,2.932,0,0,1,2.352,1.016V-12h1.445V0H26.988l-.07-.906A2.943,2.943,0,0,1,24.5.156a2.887,2.887,0,0,1-2.395-1.2,5.008,5.008,0,0,1-.926-3.141Zm1.445.164a3.749,3.749,0,0,0,.594,2.25,1.92,1.92,0,0,0,1.641.813A2.108,2.108,0,0,0,26.871-2.3V-6.187a2.125,2.125,0,0,0-1.992-1.2,1.929,1.929,0,0,0-1.656.82A4.128,4.128,0,0,0,22.629-4.133ZM35.777,0a3.036,3.036,0,0,1-.2-.891A3.225,3.225,0,0,1,33.168.156a2.984,2.984,0,0,1-2.051-.707,2.287,2.287,0,0,1-.8-1.793,2.39,2.39,0,0,1,1-2.051,4.733,4.733,0,0,1,2.824-.73h1.406v-.664A1.623,1.623,0,0,0,35.1-7a1.821,1.821,0,0,0-1.336-.449,2.107,2.107,0,0,0-1.3.391,1.151,1.151,0,0,0-.523.945H30.488a2,2,0,0,1,.449-1.223,3.066,3.066,0,0,1,1.219-.934,4.1,4.1,0,0,1,1.691-.344,3.342,3.342,0,0,1,2.289.73A2.635,2.635,0,0,1,37-5.867v3.891a4.757,4.757,0,0,0,.3,1.852V0Zm-2.4-1.1a2.54,2.54,0,0,0,1.289-.352,2.127,2.127,0,0,0,.883-.914V-4.1H34.418q-2.656,0-2.656,1.555a1.316,1.316,0,0,0,.453,1.063A1.742,1.742,0,0,0,33.379-1.1Z" transform="translate(1308 4119.762)" fill="#12263f"/>
    <path id="Trazado_237655" data-name="Trazado 237655" d="M-43.4,0V-11.375h3.211a5.169,5.169,0,0,1,2.625.656A4.438,4.438,0,0,1-35.8-8.852a6.078,6.078,0,0,1,.629,2.781v.727a6.1,6.1,0,0,1-.621,2.82A4.369,4.369,0,0,1-37.57-.664,5.5,5.5,0,0,1-40.254,0Zm1.5-10.148v8.922h1.578a3.434,3.434,0,0,0,2.7-1.079,4.458,4.458,0,0,0,.965-3.073v-.665a4.529,4.529,0,0,0-.91-3.014,3.239,3.239,0,0,0-2.582-1.091ZM-29.629.156a3.693,3.693,0,0,1-2.8-1.129A4.19,4.19,0,0,1-33.5-3.992v-.266a5.073,5.073,0,0,1,.48-2.246A3.748,3.748,0,0,1-31.68-8.051a3.378,3.378,0,0,1,1.871-.559,3.166,3.166,0,0,1,2.563,1.086,4.7,4.7,0,0,1,.914,3.109v.6h-5.727a3,3,0,0,0,.73,2.02,2.3,2.3,0,0,0,1.777.77,2.517,2.517,0,0,0,1.3-.312,3.259,3.259,0,0,0,.93-.828l.883.688A3.55,3.55,0,0,1-29.629.156Zm-.18-7.578a1.928,1.928,0,0,0-1.469.637A3.1,3.1,0,0,0-32.012-5h4.234v-.109a2.753,2.753,0,0,0-.594-1.707A1.815,1.815,0,0,0-29.809-7.422ZM-19.129,0h-1.445V-12h1.445ZM-11.6,0a3.036,3.036,0,0,1-.2-.891A3.225,3.225,0,0,1-14.207.156a2.984,2.984,0,0,1-2.051-.707,2.287,2.287,0,0,1-.8-1.793,2.39,2.39,0,0,1,1-2.051,4.733,4.733,0,0,1,2.824-.73h1.406v-.664A1.623,1.623,0,0,0-12.277-7a1.821,1.821,0,0,0-1.336-.449,2.107,2.107,0,0,0-1.3.391,1.151,1.151,0,0,0-.523.945h-1.453a2,2,0,0,1,.449-1.223,3.066,3.066,0,0,1,1.219-.934,4.1,4.1,0,0,1,1.691-.344,3.342,3.342,0,0,1,2.289.73,2.635,2.635,0,0,1,.859,2.012v3.891a4.757,4.757,0,0,0,.3,1.852V0ZM-14-1.1a2.54,2.54,0,0,0,1.289-.352,2.127,2.127,0,0,0,.883-.914V-4.1h-1.133q-2.656,0-2.656,1.555a1.316,1.316,0,0,0,.453,1.063A1.742,1.742,0,0,0-14-1.1ZM2.988-4.133a5.062,5.062,0,0,1-.883,3.109A2.829,2.829,0,0,1-.285.156,3.1,3.1,0,0,1-2.707-.82V3.25H-4.152v-11.7h1.32l.07.938A2.977,2.977,0,0,1-.309-8.609,2.882,2.882,0,0,1,2.1-7.461a5.117,5.117,0,0,1,.887,3.2ZM1.543-4.3A3.735,3.735,0,0,0,.934-6.555,1.963,1.963,0,0,0-.738-7.383,2.125,2.125,0,0,0-2.707-6.219V-2.18A2.129,2.129,0,0,0-.723-1.023,1.954,1.954,0,0,0,.93-1.848,4.077,4.077,0,0,0,1.543-4.3Zm8.5,3.461A3.07,3.07,0,0,1,7.566.156,2.628,2.628,0,0,1,5.508-.629a3.4,3.4,0,0,1-.715-2.324v-5.5H6.238v5.461Q6.238-1.07,7.8-1.07A2.163,2.163,0,0,0,10-2.3V-8.453h1.445V0H10.074Zm7.109.992a3.693,3.693,0,0,1-2.8-1.129,4.19,4.19,0,0,1-1.078-3.02v-.266a5.073,5.073,0,0,1,.48-2.246A3.748,3.748,0,0,1,15.1-8.051a3.378,3.378,0,0,1,1.871-.559,3.166,3.166,0,0,1,2.563,1.086,4.7,4.7,0,0,1,.914,3.109v.6H14.723a3,3,0,0,0,.73,2.02,2.3,2.3,0,0,0,1.777.77,2.517,2.517,0,0,0,1.3-.312,3.259,3.259,0,0,0,.93-.828l.883.688A3.55,3.55,0,0,1,17.152.156Zm-.18-7.578a1.928,1.928,0,0,0-1.469.637A3.1,3.1,0,0,0,14.77-5H19v-.109a2.753,2.753,0,0,0-.594-1.707A1.815,1.815,0,0,0,16.973-7.422Zm9.234.266a4.331,4.331,0,0,0-.711-.055A1.9,1.9,0,0,0,23.566-6V0H22.121V-8.453h1.406l.023.977a2.251,2.251,0,0,1,2.016-1.133,1.477,1.477,0,0,1,.641.109Zm3.68-3.344v2.047h1.578v1.117H29.887v5.249a1.173,1.173,0,0,0,.211.763.888.888,0,0,0,.719.254,3.5,3.5,0,0,0,.688-.094V0a4.215,4.215,0,0,1-1.109.155A1.8,1.8,0,0,1,28.934-.43a2.517,2.517,0,0,1-.492-1.664V-7.336H26.9V-8.453h1.539V-10.5ZM38.371,0a3.036,3.036,0,0,1-.2-.891A3.225,3.225,0,0,1,35.762.156a2.984,2.984,0,0,1-2.051-.707,2.287,2.287,0,0,1-.8-1.793,2.39,2.39,0,0,1,1-2.051,4.733,4.733,0,0,1,2.824-.73h1.406v-.664A1.623,1.623,0,0,0,37.691-7a1.821,1.821,0,0,0-1.336-.449,2.107,2.107,0,0,0-1.3.391,1.151,1.151,0,0,0-.523.945H33.082a2,2,0,0,1,.449-1.223,3.066,3.066,0,0,1,1.219-.934,4.1,4.1,0,0,1,1.691-.344,3.342,3.342,0,0,1,2.289.73,2.635,2.635,0,0,1,.859,2.012v3.891a4.757,4.757,0,0,0,.3,1.852V0Zm-2.4-1.1a2.54,2.54,0,0,0,1.289-.352,2.127,2.127,0,0,0,.883-.914V-4.1H37.012q-2.656,0-2.656,1.555a1.316,1.316,0,0,0,.453,1.063A1.742,1.742,0,0,0,35.973-1.1ZM-31.3,19a3.036,3.036,0,0,1-.2-.891,3.225,3.225,0,0,1-2.406,1.047,2.984,2.984,0,0,1-2.051-.707,2.287,2.287,0,0,1-.8-1.793,2.39,2.39,0,0,1,1-2.051,4.733,4.733,0,0,1,2.824-.73h1.406v-.664A1.623,1.623,0,0,0-31.977,12a1.821,1.821,0,0,0-1.336-.449,2.107,2.107,0,0,0-1.3.391,1.151,1.151,0,0,0-.523.945h-1.453a2,2,0,0,1,.449-1.223,3.066,3.066,0,0,1,1.219-.934,4.1,4.1,0,0,1,1.691-.344,3.342,3.342,0,0,1,2.289.73,2.635,2.635,0,0,1,.859,2.012v3.891a4.757,4.757,0,0,0,.3,1.852V19Zm-2.4-1.1a2.54,2.54,0,0,0,1.289-.352,2.127,2.127,0,0,0,.883-.914V14.9h-1.133q-2.656,0-2.656,1.555a1.316,1.316,0,0,0,.453,1.063A1.742,1.742,0,0,0-33.7,17.9ZM-22.281,19h-1.445V7h1.445Zm7.531,0a3.036,3.036,0,0,1-.2-.891,3.225,3.225,0,0,1-2.406,1.047,2.984,2.984,0,0,1-2.051-.707,2.287,2.287,0,0,1-.8-1.793,2.39,2.39,0,0,1,1-2.051,4.733,4.733,0,0,1,2.824-.73h1.406v-.664A1.623,1.623,0,0,0-15.43,12a1.821,1.821,0,0,0-1.336-.449,2.107,2.107,0,0,0-1.3.391,1.151,1.151,0,0,0-.523.945h-1.453a2,2,0,0,1,.449-1.223,3.066,3.066,0,0,1,1.219-.934,4.1,4.1,0,0,1,1.691-.344,3.342,3.342,0,0,1,2.289.73,2.635,2.635,0,0,1,.859,2.012v3.891a4.757,4.757,0,0,0,.3,1.852V19Zm-2.4-1.1a2.54,2.54,0,0,0,1.289-.352,2.127,2.127,0,0,0,.883-.914V14.9h-1.133q-2.656,0-2.656,1.555a1.316,1.316,0,0,0,.453,1.063A1.742,1.742,0,0,0-17.148,17.9ZM-.164,14.867a5.062,5.062,0,0,1-.883,3.109,2.829,2.829,0,0,1-2.391,1.18,3.1,3.1,0,0,1-2.422-.977v4.07H-7.3v-11.7h1.32l.07.938a2.977,2.977,0,0,1,2.453-1.094,2.882,2.882,0,0,1,2.41,1.148,5.117,5.117,0,0,1,.887,3.2ZM-1.609,14.7a3.735,3.735,0,0,0-.609-2.258,1.963,1.963,0,0,0-1.672-.828,2.125,2.125,0,0,0-1.969,1.164V16.82a2.129,2.129,0,0,0,1.984,1.156,1.954,1.954,0,0,0,1.652-.824A4.077,4.077,0,0,0-1.609,14.7Zm8.5,3.461a3.07,3.07,0,0,1-2.477.992,2.628,2.628,0,0,1-2.059-.785,3.4,3.4,0,0,1-.715-2.324v-5.5H3.086v5.461q0,1.922,1.563,1.922a2.163,2.163,0,0,0,2.2-1.234V10.547H8.3V19H6.922ZM14,19.156a3.693,3.693,0,0,1-2.8-1.129,4.19,4.19,0,0,1-1.078-3.02v-.266a5.073,5.073,0,0,1,.48-2.246,3.748,3.748,0,0,1,1.344-1.547,3.378,3.378,0,0,1,1.871-.559,3.166,3.166,0,0,1,2.563,1.086,4.7,4.7,0,0,1,.914,3.109v.6H11.57a3,3,0,0,0,.73,2.02,2.3,2.3,0,0,0,1.777.77,2.517,2.517,0,0,0,1.3-.312,3.259,3.259,0,0,0,.93-.828l.883.688A3.55,3.55,0,0,1,14,19.156Zm-.18-7.578a1.928,1.928,0,0,0-1.469.637A3.1,3.1,0,0,0,11.617,14h4.234v-.109a2.753,2.753,0,0,0-.594-1.707A1.815,1.815,0,0,0,13.82,11.578Zm9.234.266a4.331,4.331,0,0,0-.711-.055A1.9,1.9,0,0,0,20.414,13v6H18.969V10.547h1.406l.023.977a2.251,2.251,0,0,1,2.016-1.133,1.477,1.477,0,0,1,.641.109ZM26.734,8.5v2.047h1.578v1.117H26.734v5.249a1.173,1.173,0,0,0,.211.763.888.888,0,0,0,.719.254,3.5,3.5,0,0,0,.688-.094V19a4.215,4.215,0,0,1-1.109.155,1.8,1.8,0,0,1-1.461-.586,2.517,2.517,0,0,1-.492-1.664V11.664H23.75V10.547h1.539V8.5ZM35.219,19a3.036,3.036,0,0,1-.2-.891,3.225,3.225,0,0,1-2.406,1.047,2.984,2.984,0,0,1-2.051-.707,2.287,2.287,0,0,1-.8-1.793,2.39,2.39,0,0,1,1-2.051,4.733,4.733,0,0,1,2.824-.73h1.406v-.664A1.623,1.623,0,0,0,34.539,12a1.821,1.821,0,0,0-1.336-.449,2.107,2.107,0,0,0-1.3.391,1.151,1.151,0,0,0-.523.945H29.93a2,2,0,0,1,.449-1.223,3.066,3.066,0,0,1,1.219-.934,4.1,4.1,0,0,1,1.691-.344,3.342,3.342,0,0,1,2.289.73,2.635,2.635,0,0,1,.859,2.012v3.891a4.757,4.757,0,0,0,.3,1.852V19Zm-2.4-1.1a2.54,2.54,0,0,0,1.289-.352,2.127,2.127,0,0,0,.883-.914V14.9H33.859q-2.656,0-2.656,1.555a1.316,1.316,0,0,0,.453,1.063A1.742,1.742,0,0,0,32.82,17.9ZM-44.711,33.383a12.39,12.39,0,0,1,2-5.3,9.01,9.01,0,0,1,2.922-2.852l.047.008.141.9a8.511,8.511,0,0,0-2.145,2.688A13.754,13.754,0,0,0-43.2,33.367l-.016.1a11.837,11.837,0,0,0-.027,4.594,6.05,6.05,0,0,0,1.3,2.711l-.414.844-.047-.008a5.675,5.675,0,0,1-1.992-2.9,10.142,10.142,0,0,1-.328-5.254Zm4.8.391A7,7,0,0,1-38.512,30.5a3.117,3.117,0,0,1,2.457-1.105,2.509,2.509,0,0,1,1.242.3,2.349,2.349,0,0,1,.883.867l.328-1.016h1.281l-1.664,8.344a4.446,4.446,0,0,1-1.41,2.637,4.132,4.132,0,0,1-2.746.887,4.686,4.686,0,0,1-1.184-.172,3.687,3.687,0,0,1-1.082-.453l.617-1.2a2.594,2.594,0,0,0,.844.379,3.918,3.918,0,0,0,1.047.145,2.184,2.184,0,0,0,1.566-.59,3,3,0,0,0,.832-1.637l.117-.578a3.085,3.085,0,0,1-.984.637,3.094,3.094,0,0,1-1.156.215,2.255,2.255,0,0,1-2.066-1.223,4.19,4.19,0,0,1-.348-3Zm1.477.164a3.421,3.421,0,0,0,.117,2.156,1.434,1.434,0,0,0,1.422.82,1.7,1.7,0,0,0,1-.316,3.175,3.175,0,0,0,.824-.9l.789-3.937a1.879,1.879,0,0,0-.625-.812,1.68,1.68,0,0,0-1.023-.3,1.882,1.882,0,0,0-1.566.855,5.673,5.673,0,0,0-.91,2.277ZM-27.078,38q0-.383.016-.629t.055-.5a4.843,4.843,0,0,1-1.2.926,2.793,2.793,0,0,1-1.355.371,2.05,2.05,0,0,1-1.707-.691,2.136,2.136,0,0,1-.309-1.848,2.806,2.806,0,0,1,1.27-1.934,4.816,4.816,0,0,1,2.613-.645h1.445l.164-.836a1.423,1.423,0,0,0-.172-1.2,1.321,1.321,0,0,0-1.094-.41,1.97,1.97,0,0,0-1.187.387,1.474,1.474,0,0,0-.633.9H-30.6l-.016-.047a2.65,2.65,0,0,1,1.172-1.715,4.007,4.007,0,0,1,2.422-.738,2.655,2.655,0,0,1,1.988.746,2.2,2.2,0,0,1,.465,2.09l-.812,4.07a7.878,7.878,0,0,0-.141.883,4.316,4.316,0,0,0,0,.82Zm-2-1.125a2.629,2.629,0,0,0,1.289-.367,3.064,3.064,0,0,0,1.016-.867l.313-1.555h-1.492a2.217,2.217,0,0,0-1.391.477,1.814,1.814,0,0,0-.734,1.094,1.082,1.082,0,0,0,.117.91A1.067,1.067,0,0,0-29.078,36.875Zm9.57-9.367-.414,2.039h1.461l-.227,1.141h-1.461l-1.023,5.133a1.119,1.119,0,0,0,.039.855.657.657,0,0,0,.555.223,3.236,3.236,0,0,0,.434-.035,3.588,3.588,0,0,0,.4-.074l-.008,1.055a2.072,2.072,0,0,1-.645.23,3.914,3.914,0,0,1-.824.09,1.493,1.493,0,0,1-1.262-.578,2.162,2.162,0,0,1-.2-1.766l1.023-5.133h-1.234l.227-1.141h1.234l.414-2.039Zm4.641,10.656a2.739,2.739,0,0,1-2.41-1.184,4.064,4.064,0,0,1-.52-3.043l.055-.344a5.286,5.286,0,0,1,1.48-3.039A3.6,3.6,0,0,1-13.7,29.391a2.448,2.448,0,0,1,2.227,1.041,3.859,3.859,0,0,1,.406,2.747l-.156.963H-16.32a3.377,3.377,0,0,0,.238,2.051,1.461,1.461,0,0,0,1.4.761,3.59,3.59,0,0,0,1.289-.229,3.624,3.624,0,0,0,1.047-.6l.43,1a3.866,3.866,0,0,1-1.219.743A4.645,4.645,0,0,1-14.867,38.164Zm.977-7.562a1.757,1.757,0,0,0-1.27.656,3.809,3.809,0,0,0-.879,1.625l.023.047h3.477l.031-.2a2.365,2.365,0,0,0-.18-1.535A1.254,1.254,0,0,0-13.891,30.6ZM-2.4,27.508l-.414,2.039h1.461l-.227,1.141H-3.039L-4.062,35.82a1.119,1.119,0,0,0,.039.855.657.657,0,0,0,.555.223,3.236,3.236,0,0,0,.434-.035,3.588,3.588,0,0,0,.4-.074l-.008,1.055a2.072,2.072,0,0,1-.645.23,3.914,3.914,0,0,1-.824.09,1.493,1.493,0,0,1-1.262-.578,2.162,2.162,0,0,1-.2-1.766l1.023-5.133H-5.781l.227-1.141H-4.32l.414-2.039ZM-.82,33.7A5.71,5.71,0,0,1,.613,30.566a3.674,3.674,0,0,1,2.77-1.176,2.621,2.621,0,0,1,2.363,1.223A4.292,4.292,0,0,1,6.234,33.7l-.023.172A5.718,5.718,0,0,1,4.77,37,3.686,3.686,0,0,1,2,38.164,2.623,2.623,0,0,1-.363,36.945a4.254,4.254,0,0,1-.48-3.078Zm1.484.168A4.086,4.086,0,0,0,.8,36.107a1.369,1.369,0,0,0,1.387.847,1.987,1.987,0,0,0,1.625-.886,4.85,4.85,0,0,0,.883-2.2l.023-.172A4.075,4.075,0,0,0,4.57,31.46,1.363,1.363,0,0,0,3.2,30.6a1.981,1.981,0,0,0-1.629.89,4.9,4.9,0,0,0-.879,2.2Zm10.914-.09A7,7,0,0,1,12.973,30.5a3.117,3.117,0,0,1,2.457-1.105,2.509,2.509,0,0,1,1.242.3,2.349,2.349,0,0,1,.883.867l.328-1.016h1.281L17.5,37.891a4.446,4.446,0,0,1-1.41,2.637,4.132,4.132,0,0,1-2.746.887,4.686,4.686,0,0,1-1.184-.172,3.687,3.687,0,0,1-1.082-.453l.617-1.2a2.594,2.594,0,0,0,.844.379,3.918,3.918,0,0,0,1.047.145,2.184,2.184,0,0,0,1.566-.59,3,3,0,0,0,.832-1.637l.117-.578a3.027,3.027,0,0,1-2.141.852,2.255,2.255,0,0,1-2.066-1.223,4.19,4.19,0,0,1-.348-3Zm1.477.164a3.421,3.421,0,0,0,.117,2.156,1.434,1.434,0,0,0,1.422.82,1.7,1.7,0,0,0,1-.316,3.175,3.175,0,0,0,.824-.9l.789-3.937a1.879,1.879,0,0,0-.625-.812,1.68,1.68,0,0,0-1.023-.3A1.882,1.882,0,0,0,14,31.5a5.673,5.673,0,0,0-.91,2.277ZM24.406,38q0-.383.016-.629t.055-.5a4.843,4.843,0,0,1-1.2.926,2.793,2.793,0,0,1-1.355.371,2.05,2.05,0,0,1-1.707-.691,2.136,2.136,0,0,1-.309-1.848,2.806,2.806,0,0,1,1.27-1.934,4.816,4.816,0,0,1,2.613-.645h1.445l.164-.836a1.423,1.423,0,0,0-.172-1.2,1.321,1.321,0,0,0-1.094-.41,1.97,1.97,0,0,0-1.187.387,1.474,1.474,0,0,0-.633.9h-1.43l-.016-.047a2.65,2.65,0,0,1,1.172-1.715,4.007,4.007,0,0,1,2.422-.738,2.655,2.655,0,0,1,1.988.746,2.2,2.2,0,0,1,.465,2.09L26.1,36.3a7.878,7.878,0,0,0-.141.883,4.316,4.316,0,0,0,0,.82Zm-2-1.125a2.629,2.629,0,0,0,1.289-.367,3.064,3.064,0,0,0,1.016-.867l.313-1.555H23.531a2.217,2.217,0,0,0-1.391.477,1.814,1.814,0,0,0-.734,1.094,1.082,1.082,0,0,0,.117.91A1.067,1.067,0,0,0,22.406,36.875Zm9.57-9.367-.414,2.039h1.461L32.8,30.688H31.336L30.313,35.82a1.119,1.119,0,0,0,.039.855.657.657,0,0,0,.555.223,3.236,3.236,0,0,0,.434-.035,3.588,3.588,0,0,0,.4-.074l-.008,1.055a2.072,2.072,0,0,1-.645.23,3.914,3.914,0,0,1-.824.09A1.493,1.493,0,0,1,29,37.586a2.162,2.162,0,0,1-.2-1.766l1.023-5.133H28.594l.227-1.141h1.234l.414-2.039Zm4.641,10.656a2.739,2.739,0,0,1-2.41-1.184,4.064,4.064,0,0,1-.52-3.043l.055-.344a5.286,5.286,0,0,1,1.48-3.039,3.6,3.6,0,0,1,2.559-1.164,2.448,2.448,0,0,1,2.227,1.041,3.859,3.859,0,0,1,.406,2.747l-.156.963H35.164a3.377,3.377,0,0,0,.238,2.051,1.461,1.461,0,0,0,1.4.761,3.656,3.656,0,0,0,2.336-.831l.43,1a3.866,3.866,0,0,1-1.219.743A4.645,4.645,0,0,1,36.617,38.164Zm.977-7.562a1.757,1.757,0,0,0-1.27.656,3.809,3.809,0,0,0-.879,1.625l.023.047h3.477l.031-.2a2.365,2.365,0,0,0-.18-1.535A1.254,1.254,0,0,0,37.594,30.6Zm7.414,2.852A12.4,12.4,0,0,1,43,38.754a9.278,9.278,0,0,1-2.918,2.863l-.047-.008-.156-.836a8.478,8.478,0,0,0,2.141-2.707,14.226,14.226,0,0,0,1.484-4.6l.016-.1a11.667,11.667,0,0,0-.023-4.594,6.417,6.417,0,0,0-1.266-2.711l.43-.844.047.008a5.825,5.825,0,0,1,1.973,2.914,10.175,10.175,0,0,1,.348,5.242Z" transform="translate(915 3933)" fill="#12263f"/>
    <path id="Trazado_237635" data-name="Trazado 237635" d="M9.625-7.7a8.308,8.308,0,0,1-1.281,4.2A7.733,7.733,0,0,1,5.055-.687a11.2,11.2,0,0,1-4.836,1A8.934,8.934,0,0,1-6.844-2.609q-2.578-2.922-2.578-8.25v-1.125a13.771,13.771,0,0,1,1.164-5.852,8.82,8.82,0,0,1,3.352-3.875A9.351,9.351,0,0,1,.156-23.078,9.806,9.806,0,0,1,6.813-20.9a8.612,8.612,0,0,1,2.859,6.008H4.2a4.075,4.075,0,0,0-1.047-2.984,4.306,4.306,0,0,0-3-.906,3.276,3.276,0,0,0-3,1.531,9.841,9.841,0,0,0-1,4.891v1.609a10.89,10.89,0,0,0,.914,5.2A3.345,3.345,0,0,0,.219-3.984a4.211,4.211,0,0,0,2.891-.891A3.78,3.78,0,0,0,4.172-7.7Z" transform="translate(536 4035)" fill="#12263f"/>
    <path id="Trazado_237640" data-name="Trazado 237640" d="M-8.625,0V-22.75H-1.3a10.78,10.78,0,0,1,5.422,1.367,9.61,9.61,0,0,1,3.758,3.859A11.652,11.652,0,0,1,9.25-11.937v1.047a11.72,11.72,0,0,1-1.32,5.6A9.652,9.652,0,0,1,4.211-1.414,10.543,10.543,0,0,1-1.141,0Zm5.484-18.516v14.3h1.906A4.266,4.266,0,0,0,2.391-5.9a8.231,8.231,0,0,0,1.266-4.992v-.984a8.164,8.164,0,0,0-1.266-4.969A4.341,4.341,0,0,0-1.3-18.516Z" transform="translate(674 4035)" fill="#12263f"/>
    <path id="Trazado_237650" data-name="Trazado 237650" d="M6.875-9.656H-1.75v5.438H8.438V0H-7.234V-22.75h15.7v4.234H-1.75v4.8H6.875Z" transform="translate(807 4035)" fill="#12263f"/>
    <path id="Trazado_237656" data-name="Trazado 237656" d="M7.3-9.062H-1.547V0H-7.031V-22.75H8.188v4.234H-1.547v5.234H7.3Z" transform="translate(913 4035)" fill="#12263f"/>
    <path id="Trazado_237662" data-name="Trazado 237662" d="M9.438-2.812a8.818,8.818,0,0,1-3.7,2.266A15.972,15.972,0,0,1,.391.313,9.528,9.528,0,0,1-6.75-2.422a11.069,11.069,0,0,1-2.859-7.609L-9.625-12a13.577,13.577,0,0,1,1.188-5.867,8.818,8.818,0,0,1,3.4-3.859A9.613,9.613,0,0,1,.078-23.078a10.078,10.078,0,0,1,6.6,1.945,8.243,8.243,0,0,1,2.742,5.8H4.141a4.313,4.313,0,0,0-1.219-2.719,3.932,3.932,0,0,0-2.656-.812,3.578,3.578,0,0,0-3.187,1.75,9.344,9.344,0,0,0-1.141,5v1.375A9.147,9.147,0,0,0-2.9-5.617,4.117,4.117,0,0,0,.766-3.906a4.608,4.608,0,0,0,3.188-.953V-8.391H.141v-3.766h9.3Z" transform="translate(1045 4035)" fill="#12263f"/>
    <path id="Trazado_237667" data-name="Trazado 237667" d="M9.492,0H4.039V-9.5H-4.039V0H-9.523V-22.75h5.484v9.031H4.039V-22.75H9.492Z" transform="translate(1176 4035)" fill="#12263f"/>
    <path id="Trazado_237670" data-name="Trazado 237670" d="M2.734,0H-2.734V-22.75H2.734Z" transform="translate(1310 4035)" fill="#12263f"/>
  </g>
</svg>
