<svg xmlns="http://www.w3.org/2000/svg" width="295" height="243.82" viewBox="0 0 295 243.82">
  <g id="Grupo_876465" data-name="Grupo 876465" transform="translate(-569.199 -233.621)">
    <g id="Grupo_876380" data-name="Grupo 876380" transform="translate(569.199 237.055)">
      <g id="Grupo_876379" data-name="Grupo 876379" transform="translate(0)">
        <path id="Trazado_218986" data-name="Trazado 218986" d="M721.631,255.239c-35.645,0-50.663,25.5-76.4,45.33-34.059,26.24-57.534,27.557-73.568,97.816-17.588,77.076,61.69,17.973,147.082,46.239s166.381,30.218,140.574-61.235S804.453,255.239,721.631,255.239Z" transform="translate(-569.199 -255.239)" fill="#f1f2f7" fill-rule="evenodd"/>
      </g>
    </g>
    <g id="Grupo_876382" data-name="Grupo 876382" transform="translate(764.243 272.719)">
      <g id="Grupo_876381" data-name="Grupo 876381" transform="translate(0 0)">
        <path id="Trazado_218987" data-name="Trazado 218987" d="M1847.135,496.4h-49.908a3.438,3.438,0,0,1,3.346-2.645c.077,0,.156,0,.233.009a5.289,5.289,0,0,1,7.552-2.575,7.651,7.651,0,0,1,9.343-5.149,10.635,10.635,0,0,1,20.09,2.166c.086,0,.171-.006.258-.006a6.428,6.428,0,0,1,6.376,5.614A3.444,3.444,0,0,1,1847.135,496.4Z" transform="translate(-1797.227 -479.788)" fill="#fff" fill-rule="evenodd"/>
      </g>
    </g>
    <g id="Grupo_876384" data-name="Grupo 876384" transform="translate(739.62 370.385)">
      <g id="Grupo_876383" data-name="Grupo 876383" transform="translate(0)">
        <path id="Trazado_218988" data-name="Trazado 218988" d="M1709.738,1117.189H1642.2a4.654,4.654,0,0,1,4.528-3.579c.105,0,.213,0,.317.013a7.157,7.157,0,0,1,10.221-3.484,10.349,10.349,0,0,1,12.643-6.969,14.393,14.393,0,0,1,27.188,2.932c.118,0,.233-.009.35-.009a8.7,8.7,0,0,1,8.628,7.6A4.661,4.661,0,0,1,1709.738,1117.189Z" transform="translate(-1642.196 -1094.711)" fill="#fff" fill-rule="evenodd"/>
      </g>
    </g>
    <g id="Grupo_876386" data-name="Grupo 876386" transform="translate(583.819 389.514)">
      <g id="Grupo_876385" data-name="Grupo 876385" transform="translate(0 0)">
        <path id="Trazado_218989" data-name="Trazado 218989" d="M721.5,1235.2H661.246a4.151,4.151,0,0,1,4.039-3.193c.095,0,.19,0,.283.01a6.387,6.387,0,0,1,9.119-3.109,9.236,9.236,0,0,1,11.279-6.217,12.841,12.841,0,0,1,24.257,2.616c.105,0,.208-.007.312-.007a7.76,7.76,0,0,1,7.7,6.778A4.156,4.156,0,0,1,721.5,1235.2Z" transform="translate(-661.246 -1215.147)" fill="#fff" fill-rule="evenodd"/>
      </g>
    </g>
    <g id="Grupo_876388" data-name="Grupo 876388" transform="translate(672.854 304.949)">
      <g id="Grupo_876387" data-name="Grupo 876387" transform="translate(0 0)">
        <path id="Trazado_218990" data-name="Trazado 218990" d="M1271.732,699.321h-49.908a3.439,3.439,0,0,1,3.346-2.644c.077,0,.157,0,.233.008a5.291,5.291,0,0,1,7.553-2.574,7.643,7.643,0,0,1,9.342-5.149,10.635,10.635,0,0,1,20.09,2.166c.086,0,.172-.006.259-.006a6.426,6.426,0,0,1,6.375,5.614A3.442,3.442,0,0,1,1271.732,699.321Z" transform="translate(-1221.824 -682.711)" fill="#fff" fill-rule="evenodd"/>
      </g>
    </g>
    <g id="Grupo_876390" data-name="Grupo 876390" transform="translate(691.4 239.066)">
      <g id="Grupo_876389" data-name="Grupo 876389">
        <rect id="Rectángulo_296936" data-name="Rectángulo 296936" width="16.303" height="5.632" fill="#dee0eb"/>
      </g>
    </g>
    <g id="Grupo_876392" data-name="Grupo 876392" transform="translate(679.208 247.828)">
      <g id="Grupo_876391" data-name="Grupo 876391" transform="translate(0 0)">
        <path id="Trazado_218991" data-name="Trazado 218991" d="M1274.171,323.074a2.684,2.684,0,0,0-1.631,2.58v.4c-.192,11.031-9.886,14.122-10.669,26.326a18.518,18.518,0,0,0,.02,2.681c1.518,9.255,10.315,15.469,20.2,15.469,11.263,0,21.115-8.069,20.393-19.512-.746-11.84-9.982-14.839-10.164-25.542a2.56,2.56,0,0,0-2.294-2.4Z" transform="translate(-1261.831 -323.07)" fill="#ccbe8c" fill-rule="evenodd"/>
      </g>
    </g>
    <g id="Grupo_876394" data-name="Grupo 876394" transform="translate(690.8 233.621)">
      <g id="Grupo_876393" data-name="Grupo 876393" transform="translate(0 0)">
        <path id="Trazado_218992" data-name="Trazado 218992" d="M1352.307,237.764a2.465,2.465,0,0,0-2.443-2.215h-1.88l-.733-1.195c-.419-.687-.667-.734-1.473-.734h-4.419c-.806,0-1.051.044-1.474.734l-.731,1.195h-1.881a2.466,2.466,0,0,0-2.438,2.167v.858a.64.64,0,0,0,.62.491h16.227a.641.641,0,0,0,.621-.5c.006-.027-.01-.08,0-.09v-.716Zm-16.623,5.647h15.769a.869.869,0,0,0,.866-.866V241.2a.869.869,0,0,0-.866-.867h-15.769a.87.87,0,0,0-.867.867v1.344a.87.87,0,0,0,.867.866Zm.035,4.421h15.7a.9.9,0,0,0,.9-.9v-1.4a.9.9,0,0,0-.9-.9h-15.7a.9.9,0,0,0-.9.9v1.4A.9.9,0,0,0,1335.719,247.833Z" transform="translate(-1334.818 -233.621)" fill="#a2a7c5" fill-rule="evenodd"/>
      </g>
    </g>
    <g id="Grupo_876396" data-name="Grupo 876396" transform="translate(689.177 247.833)">
      <g id="Grupo_876395" data-name="Grupo 876395">
        <path id="Trazado_218993" data-name="Trazado 218993" d="M1332.482,323.1l-1.669,20.192h-2.418a3.786,3.786,0,0,0-2.682,1.115h0a3.795,3.795,0,0,0,2.68,6.476,3.624,3.624,0,0,0,2.592-1.079,4.261,4.261,0,0,0,1.2-2.643l.188-2.164h7.4l.189,2.164a4.266,4.266,0,0,0,1.2,2.643,3.622,3.622,0,0,0,2.592,1.079,3.787,3.787,0,0,0,2.679-1.116h0a3.8,3.8,0,0,0-2.68-6.477h-2.419l-1.669-20.192h-1.7l1.661,20.192h-7.1l1.661-20.192Zm-1.817,21.9-.177,2.017a2.55,2.55,0,0,1-.707,1.585,1.938,1.938,0,0,1-1.386.579,2.09,2.09,0,0,1-1.48-3.566h0a2.088,2.088,0,0,1,1.477-.615Zm10.821,0h2.27a2.087,2.087,0,0,1,1.475,3.566v0a2.084,2.084,0,0,1-1.475.611,1.937,1.937,0,0,1-1.386-.58,2.55,2.55,0,0,1-.708-1.584Z" transform="translate(-1324.599 -323.099)" fill="#fff" fill-rule="evenodd"/>
      </g>
    </g>
    <g id="Grupo_876398" data-name="Grupo 876398" transform="translate(706.241 275.672)">
      <g id="Grupo_876397" data-name="Grupo 876397" transform="translate(0 0)">
        <path id="Trazado_218994" data-name="Trazado 218994" d="M1432.689,510.9a1.064,1.064,0,1,0,.826,1.961c.441-.187.861-.388,1.253-.6s.8-.455,1.189-.711a1.065,1.065,0,0,0-1.176-1.776q-.494.326-1.021.61c-.36.194-.719.366-1.071.515Zm4.684-3.4a1.067,1.067,0,0,0,1.609,1.4,14.507,14.507,0,0,0,2.642-4.419,14.277,14.277,0,0,0,.916-5.037,1.068,1.068,0,1,0-2.135,0,12.159,12.159,0,0,1-.774,4.286A12.4,12.4,0,0,1,1437.373,507.5Z" transform="translate(-1432.038 -498.38)" fill="#fff" fill-rule="evenodd"/>
      </g>
    </g>
    <g id="Grupo_876400" data-name="Grupo 876400" transform="translate(605.232 465.116)">
      <g id="Grupo_876399" data-name="Grupo 876399" transform="translate(0)">
        <path id="Trazado_218995" data-name="Trazado 218995" d="M858.628,1703.475c34.456,0,62.558-2.768,62.558-6.163s-28.1-6.162-62.558-6.162-62.559,2.768-62.559,6.162S824.171,1703.475,858.628,1703.475Z" transform="translate(-796.069 -1691.15)" fill="#f1f2f7" fill-rule="evenodd"/>
      </g>
    </g>
    <g id="Grupo_876402" data-name="Grupo 876402" transform="translate(577.998 262.854)">
      <g id="Grupo_876401" data-name="Grupo 876401" transform="translate(0 0)">
        <path id="Trazado_218996" data-name="Trazado 218996" d="M624.6,417.675h3.943l6.644,21.014h29.6l-6.644-21.014h3.944l6.643,21.014.843,2.669,6.527,20.648.844,2.669,6.527,20.648.844,2.669,6.527,20.648.844,2.669,6.527,20.648.843,2.669,6.527,20.648.844,2.669,6.527,20.648.843,2.669,6.528,20.648.844,2.669,7.031,22.244h-3.943l-7.032-22.244h-29.6l7.032,22.244h-3.944l-7.032-22.244-.843-2.669-6.529-20.648-.844-2.669-6.527-20.648-.843-2.669-6.527-20.648-.844-2.669L654.2,511.307l-.843-2.669-6.528-20.648-.844-2.669-6.528-20.648-.843-2.669-6.527-20.648-.845-2.669L624.6,417.675ZM716.386,601.9l-6.527-20.648h-29.6l6.527,20.648Zm-7.372-23.316-6.527-20.648h-29.6l6.527,20.648Zm-7.371-23.316-6.527-20.648h-29.6l6.527,20.648Zm-7.372-23.316-6.527-20.648h-29.6l6.527,20.648ZM686.9,508.638l-6.528-20.648h-29.6l6.527,20.648Zm-7.372-23.316L673,464.674H643.4l6.527,20.648Zm-7.371-23.316-6.528-20.648h-29.6l6.528,20.648Z" transform="translate(-624.599 -417.675)" fill="#998f69" fill-rule="evenodd"/>
      </g>
    </g>
    <g id="Grupo_876404" data-name="Grupo 876404" transform="translate(647.912 381.034)">
      <g id="Grupo_876403" data-name="Grupo 876403" transform="translate(0)">
        <path id="Trazado_218997" data-name="Trazado 218997" d="M1071.236,1161.755s-5.483,3.957-6.345,5.131c-1.243,1.7,9.284,4.873,8.136,2.885-.263-.453-1.02-2-1.056-2.143-.173-.813,2.058-2.988,2.058-2.988Z" transform="translate(-1064.789 -1161.755)" fill="#f9af79" fill-rule="evenodd"/>
      </g>
    </g>
    <g id="Grupo_876406" data-name="Grupo 876406" transform="translate(647.104 383.887)">
      <g id="Grupo_876405" data-name="Grupo 876405" transform="translate(0 0)">
        <path id="Trazado_218998" data-name="Trazado 218998" d="M1071.594,1188.212l-3.722-5.265a10.112,10.112,0,0,1-4.708-3.226,8.666,8.666,0,0,0-3.463,2.6,61.76,61.76,0,0,0,6.333,5.707,17.77,17.77,0,0,0,5.417,3.081C1074.6,1192.169,1071.594,1188.212,1071.594,1188.212Z" transform="translate(-1059.701 -1179.722)" fill="#616476" fill-rule="evenodd"/>
      </g>
    </g>
    <g id="Grupo_876408" data-name="Grupo 876408" transform="translate(672.052 261.115)">
      <g id="Grupo_876407" data-name="Grupo 876407" transform="translate(0 0)">
        <path id="Trazado_218999" data-name="Trazado 218999" d="M1219.172,408.49s.182.844.223,1.133c.044.341.1,1.37.1,1.37s-.024,3.6-.291,3.586a1.523,1.523,0,0,1-.954-.536c-.08-.216-.009-.71-.089-.927a.578.578,0,0,0-.66-.341c-.282.094-.311,1.309-.311,1.309a3.722,3.722,0,0,0,.318,1.576c1.163,2.03,1.468,1.751,1.607,2.009a47.224,47.224,0,0,1-.32,5.141s-1.916,14.188-2.013,14.951l-.006.009a3.9,3.9,0,0,0,1.743.412c1.852.567,2.255.124,4.106.567.131-2.267.467-18.175.483-19.8,0,0,.775-2.06,1.222-3.369a11.481,11.481,0,0,0,.361-3.1,11.821,11.821,0,0,0-.066-2.967c-.2-1.4-.66.041-.66.041s-.1,2.679-.311,2.648c-.164-.031-.022-1.494-.229-3.04-.05-.4-.1-.794-.154-1.154-.141-.947-.768-1.113-.783-.092a8.837,8.837,0,0,0,.063,1.381,8.382,8.382,0,0,1-.02,1.308,10.1,10.1,0,0,1-.028,1.34c-.041-.021-.153.134-.222-.279-.083-.515-.02-1.638-.2-2.37-.1-.412-.263-1.3-.263-1.3a8.06,8.06,0,0,0-.583-1.267c-.467.042-.382,1.02-.169,1.556a6.454,6.454,0,0,0,.152,1.349s-.028,1.969-.31,1.988a21.284,21.284,0,0,1-.563-2.359c-.291-1.071-.764-2.1-.989-2.06C1218.979,407.253,1219.172,408.49,1219.172,408.49Z" transform="translate(-1216.776 -406.728)" fill="#f9af79" fill-rule="evenodd"/>
      </g>
    </g>
    <g id="Grupo_876410" data-name="Grupo 876410" transform="translate(645.975 339.461)">
      <g id="Grupo_876409" data-name="Grupo 876409" transform="translate(0 0)">
        <path id="Trazado_219000" data-name="Trazado 219000" d="M1052.594,900.965l.865,4.286,21.8,19.823-15.6,15.8,4.209,4.3s23.043-16.918,23.872-19.133c1.282-3.41-16.515-26.026-16.515-26.026Z" transform="translate(-1052.594 -900.007)" fill="#531ea3" fill-rule="evenodd"/>
      </g>
    </g>
    <g id="Grupo_876412" data-name="Grupo 876412" transform="translate(624.256 392.439)">
      <g id="Grupo_876411" data-name="Grupo 876411" transform="translate(0)">
        <path id="Trazado_219001" data-name="Trazado 219001" d="M922.292,1233.565s-5.482,3.957-6.344,5.132c-1.243,1.7,9.283,4.873,8.136,2.885-.263-.454-1.021-1.988-1.056-2.143-.174-.815,2.058-2.989,2.058-2.989Z" transform="translate(-915.846 -1233.565)" fill="#f9af79" fill-rule="evenodd"/>
      </g>
    </g>
    <g id="Grupo_876414" data-name="Grupo 876414" transform="translate(623.455 395.417)">
      <g id="Grupo_876413" data-name="Grupo 876413" transform="translate(0 0)">
        <path id="Trazado_219002" data-name="Trazado 219002" d="M922.695,1260.7l-3.723-5.265a9.485,9.485,0,0,1-4.858-3.122,8,8,0,0,0-3.312,2.493,60.173,60.173,0,0,0,6.328,5.707,17.56,17.56,0,0,0,5.422,3.081C925.7,1264.659,922.695,1260.7,922.695,1260.7Z" transform="translate(-910.802 -1252.316)" fill="#616476" fill-rule="evenodd"/>
      </g>
    </g>
    <g id="Grupo_876416" data-name="Grupo 876416" transform="translate(629.273 340.718)">
      <g id="Grupo_876415" data-name="Grupo 876415" transform="translate(0 0)">
        <path id="Trazado_219003" data-name="Trazado 219003" d="M964.883,909.61l.979,27.056-18.427,22.594,4.318,3.978s21.4-18.36,23.742-23.471c1.458-3.183,6.36-31.846,6.36-31.846Z" transform="translate(-947.434 -907.921)" fill="#6826cc" fill-rule="evenodd"/>
      </g>
    </g>
    <g id="Grupo_876418" data-name="Grupo 876418" transform="translate(649.452 300.793)">
      <g id="Grupo_876417" data-name="Grupo 876417" transform="translate(0 0)">
        <path id="Trazado_219004" data-name="Trazado 219004" d="M1089.335,695.946c-1.772-4.008-1.57-32.683-8.469-39.4-2.426.4-4.158.639-4.562.742-.359,2.957-.756,13.8-1,23.728-.162,6.626.006,13.569-.808,17.227C1073.989,700.51,1090.952,699.593,1089.335,695.946Z" transform="translate(-1074.485 -656.546)" fill="#fff" fill-rule="evenodd"/>
      </g>
    </g>
    <g id="Grupo_876420" data-name="Grupo 876420" transform="translate(629.651 301.524)">
      <g id="Grupo_876419" data-name="Grupo 876419" transform="translate(0 0)">
        <path id="Trazado_219005" data-name="Trazado 219005" d="M965.789,662.645c-1.865.416-3.252,1.271-5.612,4.673-3.8,4.952-10.354,14.55-10.364,15.058-.011.65,1.991,16.748,1.991,16.748l5.222.1,1.037-13.548a88.158,88.158,0,0,0,6.008-7.631c.109-.143-.406,10.047-.406,11.664s-2.632,14.568-2.632,14.568,7.819,1.927,9.347-1.576c4.679-10.715,1.086-41.553,1.086-41.553S967.183,662.326,965.789,662.645Z" transform="translate(-949.812 -661.151)" fill="#ea3584" fill-rule="evenodd"/>
      </g>
    </g>
    <g id="Grupo_876422" data-name="Grupo 876422" transform="translate(657.435 276.437)">
      <g id="Grupo_876421" data-name="Grupo 876421" transform="translate(0 0)">
        <path id="Trazado_219006" data-name="Trazado 219006" d="M1124.745,529.222s3.17,8.479,5.476,7.335,14.879-14.857,15.009-15.5,1.025-16.835,1.025-16.835l-5.12-1.029-3.435,13.146s-8.985,9.18-10.907,10.077A3.555,3.555,0,0,0,1124.745,529.222Z" transform="translate(-1124.745 -503.196)" fill="#ea3584" fill-rule="evenodd"/>
      </g>
    </g>
    <g id="Grupo_876424" data-name="Grupo 876424" transform="translate(655.836 299.668)">
      <g id="Grupo_876423" data-name="Grupo 876423" transform="translate(0 0)">
        <path id="Trazado_219007" data-name="Trazado 219007" d="M1123.835,691.9a8.729,8.729,0,0,0,3.156-.526s-2.952-16.64-4.667-33.146c-.679-6.522-1.31-9.19-4-8.717-.776.134-2.881.938-3.646,1.072,6.758,19.112,6.779,33.836,7.737,38.1C1122.895,690.83,1123.313,691.911,1123.835,691.9Z" transform="translate(-1114.678 -649.461)" fill="#ea3584" fill-rule="evenodd"/>
      </g>
    </g>
    <g id="Grupo_876426" data-name="Grupo 876426" transform="translate(650.113 293.549)">
      <g id="Grupo_876425" data-name="Grupo 876425" transform="translate(0 0)">
        <path id="Trazado_219008" data-name="Trazado 219008" d="M1083.653,615.288l.707,2.9s.162,2.514-1.005,2.74c-1.408.268-3.5-1.834-3.5-1.834l-1.212-8.15Z" transform="translate(-1078.643 -610.939)" fill="#f7a390" fill-rule="evenodd"/>
      </g>
    </g>
    <g id="Grupo_876428" data-name="Grupo 876428" transform="translate(650.113 293.549)">
      <g id="Grupo_876427" data-name="Grupo 876427" transform="translate(0 0)">
        <path id="Trazado_219009" data-name="Trazado 219009" d="M1083.653,615.288l.707,2.9s.162,2.514-1.005,2.74c-1.408.268-3.5-1.834-3.5-1.834l-1.212-8.15Z" transform="translate(-1078.643 -610.939)" fill="#f9af79" fill-rule="evenodd"/>
      </g>
    </g>
    <g id="Grupo_876430" data-name="Grupo 876430" transform="translate(650.123 293.58)">
      <g id="Grupo_876429" data-name="Grupo 876429">
        <path id="Trazado_219010" data-name="Trazado 219010" d="M1078.708,611.135l5,4.317.527,2.164C1082.325,617.153,1079.6,615.05,1078.708,611.135Z" transform="translate(-1078.708 -611.135)" fill="#ed7d57" fill-rule="evenodd"/>
      </g>
    </g>
    <g id="Grupo_876432" data-name="Grupo 876432" transform="translate(649.729 286.091)">
      <g id="Grupo_876431" data-name="Grupo 876431" transform="translate(0 0)">
        <path id="Trazado_219011" data-name="Trazado 219011" d="M1081.637,563.978a2.955,2.955,0,0,1,2.721,2.04,25.744,25.744,0,0,1,1.09,4.182c.529,3.132-1.257,6-2.806,6.234s-5.251-.8-6.069-5.245c-.353-1.895-.811-4.4.751-5.707A7.007,7.007,0,0,1,1081.637,563.978Z" transform="translate(-1076.227 -563.978)" fill="#f9af79" fill-rule="evenodd"/>
      </g>
    </g>
    <g id="Grupo_876434" data-name="Grupo 876434" transform="translate(644.857 282.029)">
      <g id="Grupo_876433" data-name="Grupo 876433" transform="translate(0)">
        <path id="Trazado_219012" data-name="Trazado 219012" d="M1051.274,553.067s-5.473-4.883-5.711-8.695,3.279-5.843,6.288-5.956a21.24,21.24,0,0,1,3.681.2c3.015.381,4.968,1.711,4.28,4.183-.922,3.318-7.178.515-8.456,1.546-1.056.855.653,2.9-.371,3.668-.965.742-.473.494-.156,1.885A24.473,24.473,0,0,1,1051.274,553.067Z" transform="translate(-1045.552 -538.404)" fill="#20386f" fill-rule="evenodd"/>
      </g>
    </g>
    <g id="Grupo_876436" data-name="Grupo 876436" transform="translate(648.438 290.462)">
      <g id="Grupo_876435" data-name="Grupo 876435" transform="translate(0 0)">
        <path id="Trazado_219013" data-name="Trazado 219013" d="M1068.131,593.312c.136.907.694,1.586,1.25,1.5s.89-.886.754-1.8-.694-1.588-1.245-1.5S1068,592.4,1068.131,593.312Z" transform="translate(-1068.102 -591.502)" fill="#f9af79" fill-rule="evenodd"/>
      </g>
    </g>
    <g id="Grupo_876438" data-name="Grupo 876438" transform="translate(653.619 291.445)">
      <g id="Grupo_876437" data-name="Grupo 876437" transform="translate(0 0)">
        <path id="Trazado_219014" data-name="Trazado 219014" d="M1101.225,598.934c-.3.092-.881-1.011-.161-1.233C1101.451,597.584,1101.71,598.783,1101.225,598.934Z" transform="translate(-1100.719 -597.693)" fill="#20386f" fill-rule="evenodd"/>
      </g>
    </g>
    <g id="Grupo_876440" data-name="Grupo 876440" transform="translate(657.2 290.468)">
      <g id="Grupo_876439" data-name="Grupo 876439" transform="translate(0 0)">
        <path id="Trazado_219015" data-name="Trazado 219015" d="M1123.954,592.678c.3-.091.179-1.335-.543-1.113C1123.026,591.684,1123.465,592.83,1123.954,592.678Z" transform="translate(-1123.264 -591.539)" fill="#20386f" fill-rule="evenodd"/>
      </g>
    </g>
    <g id="Grupo_876442" data-name="Grupo 876442" transform="translate(652.306 290.313)">
      <g id="Grupo_876441" data-name="Grupo 876441" transform="translate(0)">
        <path id="Trazado_219016" data-name="Trazado 219016" d="M1094.049,590.589c.485-.131.589.271.272.484a11.047,11.047,0,0,1-1.87.9A2.564,2.564,0,0,1,1094.049,590.589Z" transform="translate(-1092.45 -590.563)" fill="#20386f" fill-rule="evenodd"/>
      </g>
    </g>
    <g id="Grupo_876444" data-name="Grupo 876444" transform="translate(656.237 289.385)">
      <g id="Grupo_876443" data-name="Grupo 876443" transform="translate(0)">
        <path id="Trazado_219017" data-name="Trazado 219017" d="M1117.518,584.811c-.482.142-.366.541.015.557.179.006,2.2-.1,2.034-.234A2.565,2.565,0,0,0,1117.518,584.811Z" transform="translate(-1117.2 -584.721)" fill="#20386f" fill-rule="evenodd"/>
      </g>
    </g>
    <g id="Grupo_876446" data-name="Grupo 876446" transform="translate(656.487 291.484)">
      <g id="Grupo_876445" data-name="Grupo 876445" transform="translate(0 0)">
        <path id="Trazado_219018" data-name="Trazado 219018" d="M1119.658,600.312c-1.042.5-1-.022-.681-.016,1.059.019-.027-.4-.171-2.207-.013-.189.2-.2.231-.048.022.106.057.5.089.618C1119.511,600.053,1119.991,600.149,1119.658,600.312Z" transform="translate(-1118.777 -597.935)" fill="#ed7d57" fill-rule="evenodd"/>
      </g>
    </g>
    <g id="Grupo_876448" data-name="Grupo 876448" transform="translate(655.222 294.458)">
      <g id="Grupo_876447" data-name="Grupo 876447" transform="translate(0 0)">
        <path id="Trazado_219019" data-name="Trazado 219019" d="M1113.376,616.821c-.942,2.989-2.917.809-2.506.661C1112.965,616.731,1113.493,616.457,1113.376,616.821Z" transform="translate(-1110.815 -616.662)" fill="#fff" fill-rule="evenodd"/>
      </g>
    </g>
    <g id="Grupo_876450" data-name="Grupo 876450" transform="translate(631.155 339.505)">
      <g id="Grupo_876449" data-name="Grupo 876449" transform="translate(0 0)">
        <path id="Trazado_219020" data-name="Trazado 219020" d="M959.611,907.237a2.878,2.878,0,0,1-.268-.88s.049-.562.06-.961a2.777,2.777,0,0,0,0-.31,5.3,5.3,0,0,1-.066-1.684c.095-.552.515-2.132.72-2.888a1.072,1.072,0,0,0,.055-.229l4.484.087a27.358,27.358,0,0,1,1.495,4.491,1.807,1.807,0,0,1-.021.2,6.66,6.66,0,0,1-.486,1.3c-.032.112-.413,1.2-.736,1.323a1.129,1.129,0,0,1-1.094-.094,2.7,2.7,0,0,1-1.481.057,1.676,1.676,0,0,1-1.466-.2S959.94,907.644,959.611,907.237Z" transform="translate(-959.285 -900.284)" fill="#f9af79" fill-rule="evenodd"/>
      </g>
    </g>
    <g id="Grupo_876452" data-name="Grupo 876452" transform="translate(620.864 330.847)">
      <g id="Grupo_876451" data-name="Grupo 876451" transform="translate(0 0)">
        <path id="Trazado_219021" data-name="Trazado 219021" d="M902.118,860.559l-2.524-14.787-5.108.871,2.525,14.788Z" transform="translate(-894.486 -845.773)" fill="#d0a382" fill-rule="evenodd"/>
      </g>
    </g>
    <g id="Grupo_876454" data-name="Grupo 876454" transform="translate(628.824 314.56)">
      <g id="Grupo_876453" data-name="Grupo 876453" transform="translate(0 0)">
        <path id="Trazado_219022" data-name="Trazado 219022" d="M947.1,773.677a2.471,2.471,0,0,0,2.593,1.08l.361-.061c10.035-1.533,14.341,6.781,25.53,5.6a17.145,17.145,0,0,0,2.428-.433c8.16-2.81,12.435-11.751,10.9-20.716-1.745-10.215-10.588-17.9-20.856-15.475-10.623,2.509-11.914,11.351-21.593,13.174a2.355,2.355,0,0,0-1.822,2.451Z" transform="translate(-944.607 -743.223)" fill="#ffeeb0" fill-rule="evenodd"/>
      </g>
    </g>
    <g id="Grupo_876456" data-name="Grupo 876456" transform="translate(616.779 329.946)">
      <g id="Grupo_876455" data-name="Grupo 876455" transform="translate(0)">
        <path id="Trazado_219023" data-name="Trazado 219023" d="M871.582,841.54a2.268,2.268,0,0,0-1.63,2.559l.291,1.705-.97.849c-.558.488-.561.719-.437,1.45l.684,4.008c.125.731.2.947.893,1.223l1.2.478.291,1.706a2.268,2.268,0,0,0,2.343,1.875l.78-.133a.588.588,0,0,0,.348-.638L872.86,841.9a.589.589,0,0,0-.547-.486c-.024,0-.07.022-.082.01l-.649.111Zm7.694,14.2a.8.8,0,0,1-.65.919l-1.219.208a.8.8,0,0,1-.92-.65l-2.441-14.3a.8.8,0,0,1,.652-.92l1.218-.208a.8.8,0,0,1,.92.652l2.441,14.3Zm4.005-.716-2.43-14.239a.834.834,0,0,0-.958-.678l-1.268.217a.832.832,0,0,0-.678.956l2.431,14.238a.834.834,0,0,0,.958.678l1.267-.216A.831.831,0,0,0,883.282,855.026Z" transform="translate(-868.769 -840.097)" fill="#a1775a" fill-rule="evenodd"/>
      </g>
    </g>
    <g id="Grupo_876458" data-name="Grupo 876458" transform="translate(629.349 322.584)">
      <g id="Grupo_876457" data-name="Grupo 876457" transform="translate(0 0)">
        <path id="Trazado_219024" data-name="Trazado 219024" d="M949.027,811.173l18.574-1.612.374,2.194a3.483,3.483,0,0,0,1.426,2.26v0a3.491,3.491,0,0,0,5.459-3.432,3.33,3.33,0,0,0-1.38-2.184,3.911,3.911,0,0,0-2.583-.679l-1.992.164-1.145-6.711,1.933-.507a3.92,3.92,0,0,0,2.211-1.5,3.332,3.332,0,0,0,.578-2.517,3.485,3.485,0,0,0-1.427-2.256v0a3.492,3.492,0,0,0-5.459,3.435l.374,2.194-18.057,4.64.265,1.545,18.057-4.633,1.1,6.441-18.573,1.62.263,1.543Zm20.143-1.74,1.857-.154a2.347,2.347,0,0,1,1.547.4,1.782,1.782,0,0,1,.741,1.168,1.923,1.923,0,0,1-3.006,1.895v0a1.918,1.918,0,0,1-.787-1.243l-.351-2.059Zm-1.675-9.815-.351-2.059a1.92,1.92,0,0,1,3.006-1.89h0a1.921,1.921,0,0,1,.783,1.244,1.787,1.787,0,0,1-.312,1.347,2.348,2.348,0,0,1-1.327.887Z" transform="translate(-947.914 -793.744)" fill="#fff" fill-rule="evenodd"/>
      </g>
    </g>
    <g id="Grupo_876460" data-name="Grupo 876460" transform="translate(652.817 317.497)">
      <g id="Grupo_876459" data-name="Grupo 876459" transform="translate(0 0)">
        <path id="Trazado_219025" data-name="Trazado 219025" d="M1108.4,769.07a.978.978,0,1,0,1.65-1.052c-.238-.372-.485-.721-.737-1.044s-.537-.658-.828-.968a.98.98,0,1,0-1.429,1.343c.247.263.485.542.712.832s.444.594.633.891Zm-3.808-3.722a.981.981,0,1,0,1.021-1.676,13.356,13.356,0,0,0-4.417-1.712,13.152,13.152,0,0,0-4.71-.052.983.983,0,0,0,.33,1.938,11.185,11.185,0,0,1,4.008.038A11.426,11.426,0,0,1,1104.592,765.347Z" transform="translate(-1095.669 -761.719)" fill="#fff" fill-rule="evenodd"/>
      </g>
    </g>
    <g id="Grupo_876462" data-name="Grupo 876462" transform="translate(629.651 304.33)">
      <g id="Grupo_876461" data-name="Grupo 876461" transform="translate(0 0)">
        <path id="Trazado_219026" data-name="Trazado 219026" d="M963.052,678.819a16.408,16.408,0,0,0-2.876,3.361c-3.8,4.952-10.354,14.55-10.364,15.058-.011.65,1.991,16.748,1.991,16.748l5.222.1,1.037-13.548a72.535,72.535,0,0,0,4.99-6.225Z" transform="translate(-949.812 -678.819)" fill="#ea3584" fill-rule="evenodd"/>
      </g>
    </g>
    <g id="Grupo_876464" data-name="Grupo 876464" transform="translate(631.155 339.505)">
      <g id="Grupo_876463" data-name="Grupo 876463" transform="translate(0 0)">
        <path id="Trazado_219027" data-name="Trazado 219027" d="M959.611,907.237a2.878,2.878,0,0,1-.268-.88s.049-.562.06-.961a2.777,2.777,0,0,0,0-.31,5.3,5.3,0,0,1-.066-1.684c.095-.552.515-2.132.72-2.888a1.072,1.072,0,0,0,.055-.229l4.484.087a27.358,27.358,0,0,1,1.495,4.491,1.807,1.807,0,0,1-.021.2,6.66,6.66,0,0,1-.486,1.3c-.032.112-.413,1.2-.736,1.323a1.129,1.129,0,0,1-1.094-.094,2.7,2.7,0,0,1-1.481.057,1.676,1.676,0,0,1-1.466-.2S959.94,907.644,959.611,907.237Z" transform="translate(-959.285 -900.284)" fill="#f9af79" fill-rule="evenodd"/>
      </g>
    </g>
  </g>
</svg>
