<svg xmlns="http://www.w3.org/2000/svg" width="295" height="279.919" viewBox="0 0 295 279.919">
  <g id="Grupo_876226" data-name="Grupo 876226" transform="translate(-29.529 -38.601)">
    <g id="Grupo_876226-2" data-name="Grupo 876226" transform="translate(29.529 38.601)">
      <path id="Trazado_218784" data-name="Trazado 218784" d="M292.649,166.452A102.725,102.725,0,1,1,103.884,195.32a.014.014,0,0,0,.006-.01V195.3c.027-.1.134-.5.262-1.121.562-2.707.838-8.115-2.735-11.635-4.518-4.458-6.886-3.916-7.672-6.874-1.347-5.072,7.215-7.069,9.232-.162,1.977,6.765,6.468,2.417,6.653,2.235v-.007a102.731,102.731,0,0,1,183.018-11.284Z" transform="translate(-49.931 -63.119)" fill="#fffae7"/>
      <path id="Trazado_218785" data-name="Trazado 218785" d="M145.862,162.991s.005-.01.016-.016l-.005.011A.018.018,0,0,1,145.862,162.991Z" transform="translate(-66.571 -78.204)" fill="#dbccb6"/>
      <path id="Trazado_218786" data-name="Trazado 218786" d="M146.678,161.751c-.425.472-.719.761-.792.834C146.148,162.307,146.41,162.029,146.678,161.751Z" transform="translate(-66.579 -77.814)" fill="#dbccb6"/>
      <path id="Trazado_218787" data-name="Trazado 218787" d="M368.708,61.786h-47.49s2.084-13.4,7.96-12.874c1.624.143,2.732,1.793,3.456,3.561a1.233,1.233,0,0,0,2.33-.119C336.518,46.91,339.7,38.6,344.621,38.6c5.094,0,5.263,9.507,4.894,15.3a.858.858,0,0,0,1.565.538c1.344-1.977,3.306-3.878,5.691-3.326,2.037.47,2.94,2.582,3.313,4.805a.663.663,0,0,0,1.275.121c1.24-3.3,3.441-8.093,5.778-8.193C370.706,47.689,368.708,61.786,368.708,61.786Z" transform="translate(-122.407 -38.601)" fill="#fffae7"/>
      <path id="Trazado_218788" data-name="Trazado 218788" d="M77.751,166.384H30.261s2.085-13.4,7.96-12.874c1.624.144,2.731,1.793,3.456,3.561a1.233,1.233,0,0,0,2.331-.119c1.553-5.444,4.732-13.753,9.657-13.753,5.094,0,5.263,9.507,4.894,15.3a.858.858,0,0,0,1.565.538c1.344-1.977,3.306-3.878,5.691-3.326,2.037.47,2.94,2.583,3.313,4.806a.663.663,0,0,0,1.275.121c1.24-3.3,3.441-8.093,5.778-8.193C79.75,152.287,77.751,166.384,77.751,166.384Z" transform="translate(-29.762 -71.907)" fill="#fffae7"/>
      <path id="Trazado_218789" data-name="Trazado 218789" d="M94.231,61.094S96.084,49.2,101.3,49.66c1.444.129,2.426,1.592,3.069,3.163a1.1,1.1,0,0,0,2.07-.106c1.38-4.834,4.2-12.214,8.578-12.214,4.525,0,4.674,8.443,4.346,13.585a.762.762,0,0,0,1.39.476c1.193-1.757,2.935-3.443,5.053-2.954,4.126.952,3.015,9.484,3.015,9.484Z" transform="translate(-50.131 -39.207)" fill="#fffae7"/>
      <path id="Trazado_218790" data-name="Trazado 218790" d="M29.529,271.823s1.853-11.9,7.069-11.434c1.444.128,2.426,1.591,3.069,3.163a1.1,1.1,0,0,0,2.07-.106c1.38-4.835,4.2-12.214,8.578-12.214,4.525,0,4.675,8.443,4.346,13.585a.762.762,0,0,0,1.39.476c1.193-1.756,2.935-3.443,5.053-2.954,4.126.952,3.015,9.484,3.015,9.484Z" transform="translate(-29.529 -106.306)" fill="#fffae7"/>
      <path id="Trazado_218791" data-name="Trazado 218791" d="M411.393,159.572s1.853-11.9,7.069-11.434c1.444.128,2.426,1.592,3.069,3.163a1.1,1.1,0,0,0,2.07-.106c1.38-4.835,4.2-12.214,8.578-12.214,4.525,0,4.674,8.443,4.346,13.585a.762.762,0,0,0,1.39.476c1.193-1.756,2.935-3.443,5.053-2.954,4.126.952,3.015,9.484,3.015,9.484Z" transform="translate(-151.12 -70.563)" fill="#fffae7"/>
      <path id="Trazado_218792" data-name="Trazado 218792" d="M243.474,95.616s-15.908.208-15.09,6.818,10.008-2.806,18.669-.512S257.017,95.037,243.474,95.616Z" transform="translate(-92.838 -56.747)" fill="#fffae7"/>
      <path id="Trazado_218793" data-name="Trazado 218793" d="M328.624,111.54a3.688,3.688,0,0,0-3.06-1.836c-2.5-.13-7.251.414-7.283,6.391C318.24,123.425,331.567,116.86,328.624,111.54Z" transform="translate(-121.472 -61.236)" fill="#fffae7"/>
      <path id="Trazado_218794" data-name="Trazado 218794" d="M277.347,102.76a1.764,1.764,0,0,0-1.052-1.341c-1.1-.485-3.306-1.054-4.341,1.608C270.684,106.29,277.751,105.637,277.347,102.76Z" transform="translate(-106.672 -58.472)" fill="#fffae7"/>
      <path id="Trazado_218795" data-name="Trazado 218795" d="M424.224,258.732s1.341,15.853-5.317,15.682,1.819-10.233-1.307-18.629S423.483,245.2,424.224,258.732Z" transform="translate(-152.676 -105.605)" fill="#fffae7"/>
      <path id="Trazado_218796" data-name="Trazado 218796" d="M416.816,233.421a1.763,1.763,0,0,1,1.438.917c.59,1.043,1.37,3.188-1.178,4.477C413.951,240.4,413.914,233.3,416.816,233.421Z" transform="translate(-152.168 -100.634)" fill="#fffae7"/>
      <path id="Trazado_218797" data-name="Trazado 218797" d="M353.708,397.41s14.1-7.368,10.385-12.9-7.662,7.022-16.425,8.887S341.885,404.043,353.708,397.41Z" transform="translate(-129.216 -148.3)" fill="#fffae7"/>
    </g>
    <g id="Grupo_876266" data-name="Grupo 876266" transform="translate(49.2 52.192)">
      <g id="Grupo_876233" data-name="Grupo 876233" transform="translate(8.211 101.557)">
        <g id="Grupo_876227" data-name="Grupo 876227">
          <path id="Trazado_218798" data-name="Trazado 218798" d="M142,224.018c.249.551.361.869.361.869s-.078.13-.23.371c-1.908,3-15.526,23.2-34.961,19.8-.293-.051-.59-.108-.885-.17q-.2-.042-.4-.087a60.768,60.768,0,0,1-16.2-6.184c-.366-.2-.727-.4-1.082-.607A77.076,77.076,0,0,1,71.336,224.5c-.592-.631-.9-.992-.9-.992l.357-.223c10.248-6.4,19.108-10.5,26.749-12.9q.641-.2,1.272-.388c8.672-2.561,15.731-2.909,21.44-1.991q.837.136,1.638.3A28.358,28.358,0,0,1,142,224.018Z" transform="translate(-70.436 -207.543)" fill="#6826cc"/>
        </g>
        <g id="Grupo_876228" data-name="Grupo 876228" transform="translate(0 15.413)">
          <path id="Trazado_218799" data-name="Trazado 218799" d="M142,231.218c.249.551.361.869.361.869s-.078.13-.23.371c-5.843-.491-13.527-.778-21.786-.93l-1.435-.025c-5.827-.095-11.9-.128-17.78-.121l-1.566,0c-11.325.026-21.792.19-28.232.315-.592-.631-.9-.992-.9-.992l.357-.223c7.923-.155,22.517-.383,37.251-.315.534,0,1.068.005,1.6.007h0c7,.044,13.972.156,20.225.378l1.48.055C135.283,230.762,138.9,230.961,142,231.218Z" transform="translate(-70.436 -230.157)" fill="#cab3ed"/>
        </g>
        <g id="Grupo_876229" data-name="Grupo 876229" transform="translate(18.166 15.639)">
          <path id="Trazado_218800" data-name="Trazado 218800" d="M109.808,231.25l-.188.237L98.17,245.925c-.366-.2-.727-.4-1.082-.607l10.966-13.829.8-1Z" transform="translate(-97.088 -230.488)" fill="#a6d406"/>
        </g>
        <g id="Grupo_876230" data-name="Grupo 876230" transform="translate(27.106 2.452)">
          <path id="Trazado_218801" data-name="Trazado 218801" d="M122.486,224.334l-.942.784-.837-1-10.5-12.585q.641-.2,1.272-.388l10.832,12.981h0Z" transform="translate(-110.205 -211.141)" fill="#cab3ed"/>
        </g>
        <g id="Grupo_876231" data-name="Grupo 876231" transform="translate(35.449 15.832)">
          <path id="Trazado_218802" data-name="Trazado 218802" d="M137.1,231.428l-.187.3-13.174,20.732c-.293-.051-.59-.108-.885-.17q-.2-.042-.4-.087l13.029-20.5.589-.927Z" transform="translate(-122.445 -230.771)" fill="#cab3ed"/>
        </g>
        <g id="Grupo_876232" data-name="Grupo 876232" transform="translate(49.818 0.462)">
          <path id="Trazado_218803" data-name="Trazado 218803" d="M145.165,208.525l9.461,15.1.066.106-1.039.65-.508-.81-9.619-15.349Q144.364,208.356,145.165,208.525Z" transform="translate(-143.527 -208.22)" fill="#a6d406"/>
        </g>
      </g>
      <g id="Grupo_876240" data-name="Grupo 876240" transform="translate(16.18 17.474)">
        <g id="Grupo_876234" data-name="Grupo 876234">
          <path id="Trazado_218804" data-name="Trazado 218804" d="M152.23,138.761c.091,1.176.147,2.293.181,3.32.109,3.287-.02,5.635-.028,5.824a.011.011,0,0,1,0,.007l-22.524,17.781a.012.012,0,0,1-.009,0c-.185-.036-2.5-.456-5.671-1.325-.991-.273-2.065-.586-3.187-.947-6.016-1.941-13.326-5.2-15.871-10.07A8.2,8.2,0,0,1,104,149.67a3.709,3.709,0,0,1,.238-1.344c1.311-3.337,7.656-2.965,8.75-4,1.477-1.4-7.377-7.3-15.514-10.017-7.608-2.545-15.411-7.811-13.19-13.683a6.87,6.87,0,0,1,.279-.63,6.137,6.137,0,0,1,.324-.585c3.888-6.35,11.579-.468,13.092-3.305,1.484-2.79-24.036-20.812-13.131-29.5.166-.136.352-.273.541-.407.174-.153.347-.3.521-.432,10.976-8.588,22.58,20.42,25.639,19.624,3.111-.813-.825-9.659,6.255-11.967a6.239,6.239,0,0,1,.644-.179,6.686,6.686,0,0,1,.678-.124c6.227-.8,9.537,8.015,10.25,16,.757,8.546,4.437,18.528,6.138,17.418,1.264-.825,2.373-7.081,5.923-7.581a3.718,3.718,0,0,1,1.362.081,8.2,8.2,0,0,1,3.323,1.941C150.264,124.591,151.738,132.46,152.23,138.761Z" transform="translate(-82.128 -84.178)" fill="#6826cc"/>
        </g>
        <g id="Grupo_876235" data-name="Grupo 876235" transform="translate(2.718 1.59)">
          <path id="Trazado_218805" data-name="Trazado 218805" d="M87.18,86.511l55.741,70.614-1.065.84L86.115,87.351c.168-.138.354-.273.543-.406C86.831,86.792,87,86.645,87.18,86.511Z" transform="translate(-86.115 -86.511)" fill="#cab3ed"/>
        </g>
        <g id="Grupo_876236" data-name="Grupo 876236" transform="translate(1.947 35.817)">
          <path id="Trazado_218806" data-name="Trazado 218806" d="M118.626,143.063l-.127.665-.13.667-.245-.048-33.139-6.333.207-.656c.082-.209.171-.417.28-.63l31.369,5.993,1.017.194Z" transform="translate(-84.985 -136.728)" fill="#cab3ed"/>
        </g>
        <g id="Grupo_876237" data-name="Grupo 876237" transform="translate(21.872 64.15)">
          <path id="Trazado_218807" data-name="Trazado 218807" d="M150.78,185.24l-.127.665-.13.667-.245-.048-36.06-6.887a3.626,3.626,0,0,1,.239-1.339l34.538,6.6,1.017.194Z" transform="translate(-114.218 -178.297)" fill="#a6d406"/>
        </g>
        <g id="Grupo_876238" data-name="Grupo 876238" transform="translate(34.783 8.894)">
          <path id="Trazado_218808" data-name="Trazado 218808" d="M136.059,97.227l-1.534,33.7-.011.256-.675-.031-.679-.029.037-.784.045-1.038L134.7,97.4c.232-.057.455-.094.678-.126Z" transform="translate(-133.16 -97.227)" fill="#cab3ed"/>
        </g>
        <g id="Grupo_876239" data-name="Grupo 876239" transform="translate(57.628 34.754)">
          <path id="Trazado_218809" data-name="Trazado 218809" d="M169.717,135.28l-1.673,36.667-.011.256-.675-.031-.679-.029.037-.785.045-1.037,1.6-35.121A3.624,3.624,0,0,1,169.717,135.28Z" transform="translate(-166.678 -135.169)" fill="#cab3ed"/>
        </g>
      </g>
      <g id="Grupo_876247" data-name="Grupo 876247" transform="translate(167.783 155.064)">
        <g id="Grupo_876241" data-name="Grupo 876241">
          <path id="Trazado_218810" data-name="Trazado 218810" d="M324.084,347.718c-1.164-.255-2.262-.528-3.266-.794-3.212-.854-5.447-1.665-5.628-1.728a.014.014,0,0,1-.007-.006L304.556,318.2a.013.013,0,0,1,0-.009c.089-.169,1.171-2.286,2.938-5.1.553-.879,1.171-1.827,1.848-2.807,3.636-5.254,8.927-11.377,14.381-12.418a8.29,8.29,0,0,1,3.89,0,3.754,3.754,0,0,1,1.232.622c2.846,2.244.633,8.274,1.316,9.636.922,1.838,9.215-5.008,14.225-12.088,4.685-6.619,12.061-12.633,17.094-8.767a6.852,6.852,0,0,1,.529.453,6.259,6.259,0,0,1,.472.485c5.01,5.617-2.929,11.342-.625,13.634,2.266,2.252,27.16-17.181,32.379-4.092.084.2.162.421.236.642.1.213.188.424.266.631,5.105,13.13-26.356,15.887-26.478,19.08-.123,3.248,9.589,2.024,9.753,9.548a6.119,6.119,0,0,1-.014.675c-.014.239-.042.466-.078.693-1.047,6.259-10.543,6.889-18.481,5.245-8.492-1.764-19.226-1.118-18.65.852.43,1.465,6.16,4.364,5.607,7.946a3.767,3.767,0,0,1-.476,1.3A8.3,8.3,0,0,1,343.071,347C338.371,349.955,330.326,349.083,324.084,347.718Z" transform="translate(-304.555 -286.046)" fill="#6826cc"/>
        </g>
        <g id="Grupo_876242" data-name="Grupo 876242" transform="translate(5.065 11.695)">
          <path id="Trazado_218811" data-name="Trazado 218811" d="M397.1,304.48,312.488,337.8l-.5-1.276L396.6,303.2c.085.2.162.423.234.645C396.934,304.061,397.027,304.27,397.1,304.48Z" transform="translate(-311.986 -303.204)" fill="#cab3ed"/>
        </g>
        <g id="Grupo_876243" data-name="Grupo 876243" transform="translate(40.425 0.822)">
          <path id="Trazado_218812" data-name="Trazado 218812" d="M365.08,318.333l-.606-.316-.608-.321.119-.223,15.809-30.221.573.393c.179.14.354.288.528.455l-14.963,28.607-.485.927Z" transform="translate(-363.866 -287.252)" fill="#cab3ed"/>
        </g>
        <g id="Grupo_876244" data-name="Grupo 876244" transform="translate(5.746 11.813)">
          <path id="Trazado_218813" data-name="Trazado 218813" d="M314.2,337.123l-.606-.317-.608-.32.119-.224,17.2-32.884a3.658,3.658,0,0,1,1.227.622l-16.477,31.5-.485.928Z" transform="translate(-312.985 -303.378)" fill="#a6d406"/>
        </g>
        <g id="Grupo_876245" data-name="Grupo 876245" transform="translate(40.806 30.938)">
          <path id="Trazado_218814" data-name="Trazado 218814" d="M396.831,344.142l-32.163-11.327-.245-.086.228-.644.226-.649.748.265.991.347,30.444,10.722c-.013.241-.042.468-.076.693Z" transform="translate(-364.424 -331.437)" fill="#cab3ed"/>
        </g>
        <g id="Grupo_876246" data-name="Grupo 876246" transform="translate(6.126 44.593)">
          <path id="Trazado_218815" data-name="Trazado 218815" d="M348.783,365.179l-35-12.329-.245-.085.228-.645.226-.649.748.266.991.346,33.522,11.8A3.67,3.67,0,0,1,348.783,365.179Z" transform="translate(-313.543 -351.471)" fill="#cab3ed"/>
        </g>
      </g>
      <g id="Grupo_876254" data-name="Grupo 876254" transform="translate(0 161.743)">
        <g id="Grupo_876248" data-name="Grupo 876248">
          <path id="Trazado_218816" data-name="Trazado 218816" d="M155.43,332.19c.118.849.144,1.326.144,1.326s-.158.146-.461.412c-3.794,3.319-30.384,25.309-55.432,12.911-.378-.187-.758-.382-1.136-.586q-.259-.138-.515-.279a86.051,86.051,0,0,1-19.538-14.889q-.625-.628-1.228-1.258a109.156,109.156,0,0,1-18.05-25.275c-.553-1.094-.825-1.708-.825-1.708l.574-.16c16.488-4.594,30.167-6.614,41.511-6.82q.953-.018,1.884-.018c12.81-.008,22.54,2.346,29.93,5.879q1.084.518,2.1,1.069A40.166,40.166,0,0,1,155.43,332.19Z" transform="translate(-58.389 -295.845)" fill="#6826cc"/>
        </g>
        <g id="Grupo_876249" data-name="Grupo 876249" transform="translate(0 6.838)">
          <path id="Trazado_218817" data-name="Trazado 218817" d="M155.43,335.384c.118.849.144,1.326.144,1.326s-.158.146-.461.412c-7.741-3.006-18.069-6.472-29.23-9.986l-1.94-.609c-7.879-2.462-16.116-4.938-24.111-7.282q-1.068-.315-2.129-.624c-15.4-4.5-29.688-8.465-38.488-10.875-.553-1.094-.825-1.708-.825-1.708l.574-.16c10.828,2.961,30.75,8.494,50.743,14.486l2.174.652h0c9.49,2.86,18.923,5.805,27.331,8.61q1.006.335,1.99.667C146.482,332.075,151.309,333.792,155.43,335.384Z" transform="translate(-58.389 -305.878)" fill="#cab3ed"/>
        </g>
        <g id="Grupo_876250" data-name="Grupo 876250" transform="translate(18.875 18.538)">
          <path id="Trazado_218818" data-name="Trazado 218818" d="M109,324.464l-.351.247L87.31,339.745q-.625-.628-1.228-1.258l20.438-14.4L108,323.044Z" transform="translate(-86.082 -323.044)" fill="#cab3ed"/>
        </g>
        <g id="Grupo_876251" data-name="Grupo 876251" transform="translate(42.085 0)">
          <path id="Trazado_218819" data-name="Trazado 218819" d="M131.7,318.179l-1.594.69-.736-1.7-9.232-21.306q.953-.018,1.884-.018l9.522,21.976h0Z" transform="translate(-120.135 -295.845)" fill="#cab3ed"/>
        </g>
        <g id="Grupo_876252" data-name="Grupo 876252" transform="translate(39.641 26.464)">
          <path id="Trazado_218820" data-name="Trazado 218820" d="M144.773,335.979l-.373.326-26.2,22.9c-.378-.187-.758-.382-1.136-.585q-.259-.138-.515-.279L142.461,335.7l1.172-1.024Z" transform="translate(-116.549 -334.672)" fill="#cab3ed"/>
        </g>
        <g id="Grupo_876253" data-name="Grupo 876253" transform="translate(73.899 5.879)">
          <path id="Trazado_218821" data-name="Trazado 218821" d="M168.914,305.54l6.812,24.3.047.17-1.671.467-.366-1.3-6.925-24.707Q167.895,304.989,168.914,305.54Z" transform="translate(-166.811 -304.471)" fill="#a6d406"/>
        </g>
      </g>
      <g id="Grupo_876261" data-name="Grupo 876261" transform="translate(172.911 18.393)">
        <g id="Grupo_876255" data-name="Grupo 876255">
          <path id="Trazado_218822" data-name="Trazado 218822" d="M377.413,117.03q-.17.819-.356,1.646a82.492,82.492,0,0,1-8.264,22.032l-.275.487q-.306.537-.624,1.054c-14,22.811-46.761,18.525-51.54,17.764-.382-.061-.585-.1-.585-.1s-.224-.4-.559-1.148A38.469,38.469,0,0,1,317.3,124.2q.545-.965,1.16-1.938c4.194-6.631,10.888-13.5,21.284-20.018q.757-.473,1.538-.945c9.308-5.611,21.432-10.941,37.148-15.614.181-.055.363-.108.547-.162,0,0,.09.637.2,1.806A104.556,104.556,0,0,1,377.413,117.03Z" transform="translate(-312.079 -85.526)" fill="#6826cc"/>
        </g>
        <g id="Grupo_876256" data-name="Grupo 876256" transform="translate(3.132)">
          <path id="Trazado_218823" data-name="Trazado 218823" d="M380.641,87.332c-5.911,6.438-15.48,16.933-25.679,28.427l-1.41,1.591c-5.29,5.975-10.71,12.179-15.847,18.189l-1.264,1.484c-7.263,8.535-13.875,16.606-18.623,22.99-.382-.061-.585-.1-.585-.1s-.224-.4-.559-1.148c2.53-3.391,5.571-7.243,8.946-11.377q.627-.771,1.274-1.556c5.391-6.558,11.543-13.753,17.785-20.907q.715-.82,1.433-1.639c13.166-15.045,26.51-29.682,33.783-37.6.181-.055.363-.108.547-.162C380.442,85.526,380.532,86.163,380.641,87.332Z" transform="translate(-316.674 -85.526)" fill="#cab3ed"/>
        </g>
        <g id="Grupo_876257" data-name="Grupo 876257" transform="translate(39.599 30.141)">
          <path id="Trazado_218824" data-name="Trazado 218824" d="M395.912,131.11q-.17.819-.356,1.646l-24.968-1.326-.411-.022.087-1.661,1.734.092Z" transform="translate(-370.177 -129.748)" fill="#cab3ed"/>
        </g>
        <g id="Grupo_876258" data-name="Grupo 876258" transform="translate(27.667 15.775)">
          <path id="Trazado_218825" data-name="Trazado 218825" d="M357.842,132.412l-1.644.253-.057-.37-3.47-22.678q.757-.473,1.538-.945l3.365,21.985Z" transform="translate(-352.671 -108.671)" fill="#cab3ed"/>
        </g>
        <g id="Grupo_876259" data-name="Grupo 876259" transform="translate(22.43 49.78)">
          <path id="Trazado_218826" data-name="Trazado 218826" d="M379.271,163.963l-.275.487q-.306.537-.624,1.054l-32.917-5.226-.469-.075.26-1.643,1.473.234Z" transform="translate(-344.987 -158.561)" fill="#cab3ed"/>
        </g>
        <g id="Grupo_876260" data-name="Grupo 876260" transform="translate(5.223 36.739)">
          <path id="Trazado_218827" data-name="Trazado 218827" d="M328.239,164.24l-1.595.472-.047-.16-6.855-23.185q.545-.965,1.16-1.938L327.871,163Z" transform="translate(-319.742 -139.428)" fill="#cab3ed"/>
        </g>
      </g>
      <g id="Grupo_876263" data-name="Grupo 876263" transform="translate(75.008)">
        <g id="Grupo_876262" data-name="Grupo 876262" transform="translate(8.883 7.82)">
          <path id="Trazado_218828" data-name="Trazado 218828" d="M210.332,124.854c-19.425-24.171-28.741-42.709-26.993-53.87a.831.831,0,1,0-1.641-.262c-1.08,6.9,1.7,16.272,8.268,27.869A216.278,216.278,0,0,0,210.332,127.5Z" transform="translate(-181.471 -70.014)" fill="#cab3ed"/>
        </g>
        <path id="Trazado_218829" data-name="Trazado 218829" d="M180.816,92.831s-5.634,4.092-12.378-6.183C168.438,86.649,178.823,82.852,180.816,92.831Z" transform="translate(-168.438 -67.265)" fill="#6826cc"/>
        <path id="Trazado_218830" data-name="Trazado 218830" d="M190.849,98.1s-4.364-5.447,5.43-12.814C196.279,85.289,200.614,95.539,190.849,98.1Z" transform="translate(-175.266 -67.058)" fill="#6826cc"/>
        <path id="Trazado_218831" data-name="Trazado 218831" d="M181.793,72.448s-5.914-3.668.885-13.907C182.678,58.541,190.152,66.746,181.793,72.448Z" transform="translate(-171.931 -58.541)" fill="#6826cc"/>
        <path id="Trazado_218832" data-name="Trazado 218832" d="M193.86,118.531s-3.93,5.774-13.722-1.594C180.138,116.937,188.637,109.82,193.86,118.531Z" transform="translate(-172.163 -76.263)" fill="#6826cc"/>
        <path id="Trazado_218833" data-name="Trazado 218833" d="M205.537,121.673s-5.231-4.6,3.151-13.568C208.688,108.1,214.715,117.444,205.537,121.673Z" transform="translate(-179.737 -74.323)" fill="#6826cc"/>
        <path id="Trazado_218834" data-name="Trazado 218834" d="M207.1,137.084s-3.821,5.849-13.75-1.33C193.355,135.753,201.72,128.475,207.1,137.084Z" transform="translate(-176.372 -82.211)" fill="#6826cc"/>
      </g>
      <g id="Grupo_876265" data-name="Grupo 876265" transform="translate(197.38 67.912)">
        <g id="Grupo_876264" data-name="Grupo 876264" transform="translate(0 6.845)">
          <path id="Trazado_218835" data-name="Trazado 218835" d="M402.251,168.3a.827.827,0,0,0-1.1.416c-4.659,10.359-22.751,20.738-52.507,30.189l-.666,1.966a212.617,212.617,0,0,0,32.583-12.78c11.807-6.04,19.243-12.324,22.1-18.682A.84.84,0,0,0,402.251,168.3Z" transform="translate(-347.979 -168.222)" fill="#cab3ed"/>
        </g>
        <path id="Trazado_218836" data-name="Trazado 218836" d="M410.574,186.854s2.473,6.545,13.708,1.709C424.282,188.562,417.681,179.627,410.574,186.854Z" transform="translate(-367.91 -166.411)" fill="#6826cc"/>
        <path id="Trazado_218837" data-name="Trazado 218837" d="M401.106,185.866s6.615-2.127,2.454-13.713C403.561,172.153,394.35,178.3,401.106,185.866Z" transform="translate(-364.107 -162.629)" fill="#6826cc"/>
        <path id="Trazado_218838" data-name="Trazado 218838" d="M422.591,170.283s6.939.22,6.845-12.1C429.436,158.179,418.72,160.881,422.591,170.283Z" transform="translate(-371.468 -158.179)" fill="#6826cc"/>
        <path id="Trazado_218839" data-name="Trazado 218839" d="M385.8,200.553s.132,7,12.327,6.286C398.123,206.839,394.907,196.178,385.8,200.553Z" transform="translate(-360.021 -171.336)" fill="#6826cc"/>
        <path id="Trazado_218840" data-name="Trazado 218840" d="M375.971,197.82s6.879-.941,4.768-13.08C380.739,184.74,370.613,189.193,375.971,197.82Z" transform="translate(-356.394 -166.636)" fill="#6826cc"/>
        <path id="Trazado_218841" data-name="Trazado 218841" d="M364.64,208.672s0,7,12.207,6.521C376.847,215.193,373.831,204.472,364.64,208.672Z" transform="translate(-353.284 -173.946)" fill="#6826cc"/>
      </g>
    </g>
    <g id="Grupo_876269" data-name="Grupo 876269" transform="translate(96.792 113.656)">
      <path id="Trazado_218842" data-name="Trazado 218842" d="M300.278,424.664c0,3.019-38.518,5.467-86.032,5.467s-86.031-2.448-86.031-5.467,38.518-5.468,86.031-5.468S300.278,421.644,300.278,424.664Z" transform="translate(-128.215 -234.843)" fill="#ededed"/>
      <g id="Grupo_876268" data-name="Grupo 876268" transform="translate(2.14)">
        <path id="Trazado_218843" data-name="Trazado 218843" d="M315.938,345.235h-21.03V169.706h48.443l-15.8,164.85A11.725,11.725,0,0,1,315.938,345.235Z" transform="translate(-183.433 -155.402)" fill="#616476"/>
        <rect id="Rect치ngulo_296904" data-name="Rect치ngulo 296904" width="167.85" height="14.302" rx="4.708" fill="#81859d"/>
        <path id="Trazado_218844" data-name="Trazado 218844" d="M277.688,169.705l-.4,4.456L262.083,345.235H168a11.868,11.868,0,0,1-11.821-10.816L142.867,184.656l-1.328-14.951Z" transform="translate(-134.598 -155.401)" fill="#a2a7c5"/>
        <path id="Trazado_218845" data-name="Trazado 218845" d="M277.688,169.7l-.61,5.955-134.536,4.462-1-10.417Z" transform="translate(-134.598 -155.401)" fill="#616476"/>
        <g id="Grupo_876267" data-name="Grupo 876267" transform="translate(36.384 64.18)">
          <path id="Trazado_218846" data-name="Trazado 218846" d="M189.809,286.737l-5.072-2.891,16.385-.254,8.471,14.508-5.073-2.739-6.783,11.958a20.436,20.436,0,0,0-2.7,9.593c0,.128,0,.258-.005.388L185.8,301.346S181.795,294.447,189.809,286.737Z" transform="translate(-184.737 -255.844)" fill="#ffeeb0"/>
          <path id="Trazado_218847" data-name="Trazado 218847" d="M254.868,334.84l-.1,5.838-8.1-14.244,8.647-14.4.037,5.764,13.747.2a20.444,20.444,0,0,0,9.708-2.249c.114-.059.228-.119.343-.182L269.6,331.329S265.482,338.16,254.868,334.84Z" transform="translate(-204.458 -264.9)" fill="#ffeeb0"/>
          <path id="Trazado_218848" data-name="Trazado 218848" d="M265.694,254.563l4.529-2.632-8.011,14.295-16.8.038,4.917-3.011-6.649-11.322s2.482-6.4,9.346-7.726C260.1,242.834,265.694,254.563,265.694,254.563Z" transform="translate(-203.506 -243.268)" fill="#ece4da"/>
          <path id="Trazado_218849" data-name="Trazado 218849" d="M226.542,320.245v16.967H211.7s-6.495-.15-7.533-7.532c-.862-6.132,2.587-9.435,2.587-9.435Z" transform="translate(-190.881 -267.516)" fill="#ece4da"/>
          <path id="Trazado_218850" data-name="Trazado 218850" d="M264.628,288.009l14.6-8.646,7.56,12.767a10.444,10.444,0,0,1-4.119,10.837c-4.854,3.675-7.96,2.065-7.96,2.065Z" transform="translate(-210.175 -254.498)" fill="#ece4da"/>
          <path id="Trazado_218851" data-name="Trazado 218851" d="M202.971,260.281l7.634-13.367s2.435-4.032,6.239-4.032h17.931a35.448,35.448,0,0,0-7.431,8.7c-3.794,5.989-9.587,17.019-9.587,17.019Z" transform="translate(-190.543 -242.882)" fill="#ffeeb0"/>
        </g>
      </g>
    </g>
    <g id="Grupo_876297" data-name="Grupo 876297" transform="translate(230.731 160.368)">
      <ellipse id="Elipse_7389" data-name="Elipse 7389" cx="36.565" cy="4.468" rx="36.565" ry="4.468" transform="translate(8.69 149.217)" fill="#ededed"/>
      <g id="Grupo_876296" data-name="Grupo 876296" transform="translate(0)">
        <g id="Grupo_876271" data-name="Grupo 876271" transform="translate(18.589 28.556)">
          <g id="Grupo_876270" data-name="Grupo 876270">
            <path id="Trazado_218852" data-name="Trazado 218852" d="M369.823,259.149s-7.6,7.427-11.1,9.9c0,0-2.18-.5-6.725-1.793v6.81a27.246,27.246,0,0,0,7.707,2.173,65.018,65.018,0,0,0,11.892-9.449Z" transform="translate(-352 -259.149)" fill="#ccbe8c"/>
          </g>
        </g>
        <g id="Grupo_876275" data-name="Grupo 876275" transform="translate(22.742 71.221)">
          <g id="Grupo_876274" data-name="Grupo 876274" transform="translate(6.358)">
            <g id="Grupo_876273" data-name="Grupo 876273">
              <g id="Grupo_876272" data-name="Grupo 876272">
                <path id="Trazado_218853" data-name="Trazado 218853" d="M375.909,399.705l-5.2,0-3.289-39.98,3.742-36.667,14.052-1.308-8.45,41.8C379.139,373.2,377.143,385.563,375.909,399.705Z" transform="translate(-367.421 -321.747)" fill="#bb2a69"/>
              </g>
            </g>
          </g>
          <path id="Trazado_218854" data-name="Trazado 218854" d="M373.09,435.53a2.43,2.43,0,0,1,.313,1.341c0,.9-.091,4.021-.091,4.021l-15.218-.008a4.521,4.521,0,0,1,1.874-3.634c1.929-1.264,4.89-.023,7.723-2.01C367.69,435.239,368.448,435.932,373.09,435.53Z" transform="translate(-358.093 -357.885)" fill="#616476"/>
        </g>
        <g id="Grupo_876278" data-name="Grupo 876278" transform="translate(43.603 70.658)">
          <g id="Grupo_876277" data-name="Grupo 876277">
            <g id="Grupo_876276" data-name="Grupo 876276">
              <path id="Trazado_218855" data-name="Trazado 218855" d="M411.161,399.157c-1-10.837-5.711-32.647-8.721-37.351l-.007-40.885L388.7,324.168l4.083,37.72L405.9,398.855C407.462,399.732,409.281,399.567,411.161,399.157Z" transform="translate(-388.699 -320.921)" fill="#ea3584"/>
            </g>
          </g>
          <path id="Trazado_218856" data-name="Trazado 218856" d="M414.711,435.565a2.386,2.386,0,0,1,.346,1.365c0,.9,0,3.985,0,3.985l-15.205-.009a4.521,4.521,0,0,1,1.874-3.634c1.928-1.264,4.89-.023,7.723-2.009C409.447,435.263,410.069,435.967,414.711,435.565Z" transform="translate(-392.25 -357.329)" fill="#616476"/>
        </g>
        <g id="Grupo_876281" data-name="Grupo 876281" transform="translate(31.211 26.441)">
          <g id="Grupo_876280" data-name="Grupo 876280">
            <g id="Grupo_876279" data-name="Grupo 876279">
              <path id="Trazado_218857" data-name="Trazado 218857" d="M370.519,303.437c.669,1.129,2.957,1.992,4.924,2.472.135.033.269.065.4.094.343.076.67.14.973.191a58.545,58.545,0,0,0,9.747.778,15.744,15.744,0,0,0,1.908-.126c.132-.016.267-.035.4-.054,3.4-.5,7.181-1.977,9.077-3.875l-2.76-12.379,5.28-30.776L393.4,257.34l-.379-.13-1.585-.543-1.807-.62-6.925,1.185-1.215.162-.429.057-5.346.713Z" transform="translate(-370.519 -256.047)" fill="#ffeeb0"/>
            </g>
          </g>
        </g>
        <g id="Grupo_876292" data-name="Grupo 876292" transform="translate(35.86)">
          <g id="Grupo_876282" data-name="Grupo 876282" transform="translate(0.896 5.707)">
            <path id="Trazado_218858" data-name="Trazado 218858" d="M380.329,225.626s-1.883.924-1.657,4.113,1.386,3.674,1.386,3.674S382.758,226.759,380.329,225.626Z" transform="translate(-378.653 -225.626)" fill="#002e49"/>
          </g>
          <g id="Grupo_876283" data-name="Grupo 876283" transform="translate(8.293 20.8)">
            <path id="Trazado_218859" data-name="Trazado 218859" d="M389.918,248.229l-.281,3.961-.13,2.375c2.052,1.965,6.03-.431,6.03-.431l1.138-5.78c-.958-.84-3.734-.6-5.415-.353C390.467,248.116,389.918,248.229,389.918,248.229Z" transform="translate(-389.507 -247.77)" fill="#fbb28f"/>
          </g>
          <g id="Grupo_876284" data-name="Grupo 876284" transform="translate(8.423 21.031)">
            <path id="Trazado_218860" data-name="Trazado 218860" d="M389.978,248.337,389.7,252.3c2.739-.275,5.437-3.678,5.437-3.678l-3.814-.512C390.527,248.224,389.978,248.337,389.978,248.337Z" transform="translate(-389.697 -248.109)" fill="#ed867a"/>
          </g>
          <g id="Grupo_876285" data-name="Grupo 876285">
            <path id="Trazado_218861" data-name="Trazado 218861" d="M380.059,224.589s-3.991-2.515-2.3-5.84,6.465-.193,11.3.684c7.3,1.322,8.931,4.33,8.237,8.288s-1.333,9.3-3.391,11.061-2.931-1.21-3.547-3.82S384.952,223.995,380.059,224.589Z" transform="translate(-377.339 -217.253)" fill="#002e49"/>
          </g>
          <g id="Grupo_876287" data-name="Grupo 876287" transform="translate(1.685 4.746)">
            <g id="Grupo_876286" data-name="Grupo 876286">
              <path id="Trazado_218862" data-name="Trazado 218862" d="M380.031,230.145c-.015.134-.03.272-.044.41a62.1,62.1,0,0,0-.089,8.037,4.707,4.707,0,0,0,5.041,4.492c3.186-.231,7.137-.695,9.03-1.62a1.9,1.9,0,0,0,1.076-.978,26.073,26.073,0,0,0,.72-3.393c.634-3.993.979-9.032.979-9.032-3.141-5.111-13.775-4.629-15.791-1.44A9.094,9.094,0,0,0,380.031,230.145Z" transform="translate(-379.812 -224.217)" fill="#fbb28f"/>
            </g>
          </g>
          <g id="Grupo_876288" data-name="Grupo 876288" transform="translate(2.106 3.248)">
            <path id="Trazado_218863" data-name="Trazado 218863" d="M396.448,232.721a2.235,2.235,0,0,0-3.17.459l-1.088-.139a10.5,10.5,0,0,0-.027-3.509c-.374-1.281-2.462-1.515-2.591-2.986,0,0-5.17,1.33-8.529-.44s7.966-6.3,12.7-2.789S397.724,229.015,396.448,232.721Z" transform="translate(-380.43 -222.018)" fill="#002e49"/>
          </g>
          <g id="Grupo_876289" data-name="Grupo 876289" transform="translate(14.629 17.622)">
            <path id="Trazado_218864" data-name="Trazado 218864" d="M400.016,247.478a1.9,1.9,0,0,0,1.076-.978,26.073,26.073,0,0,0,.72-3.393l-2.987,1.537A2.974,2.974,0,0,0,400.016,247.478Z" transform="translate(-398.802 -243.107)" fill="#002e49"/>
          </g>
          <g id="Grupo_876291" data-name="Grupo 876291" transform="translate(14.651 13.451)">
            <g id="Grupo_876290" data-name="Grupo 876290">
              <path id="Trazado_218865" data-name="Trazado 218865" d="M399.138,237.947s1.924-1.807,3.17-.459c1.372,1.485-.363,5.706-3.473,5.209Z" transform="translate(-398.835 -236.988)" fill="#fbb28f"/>
            </g>
          </g>
        </g>
        <g id="Grupo_876293" data-name="Grupo 876293" transform="translate(0 0.916)">
          <path id="Trazado_218866" data-name="Trazado 218866" d="M351.412,282.817,334.337,285.8a2.784,2.784,0,0,1-3.222-2.269l-2.371-13.781-.844-4.9-1.361-7.782-1.746-9.978a4.311,4.311,0,0,1,3.5-4.992l.149-.027a2.874,2.874,0,0,0,2.337-3.327l-2.666-15.229,8.2-1.435,2.666,15.23a2.874,2.874,0,0,0,3.327,2.335,4.313,4.313,0,0,1,4.993,3.505l1.716,9.809,1.392,7.953.907,5.188,2.358,13.5A2.784,2.784,0,0,1,351.412,282.817Z" transform="translate(-324.727 -219.704)" fill="#fffbf4"/>
          <path id="Trazado_218867" data-name="Trazado 218867" d="M352.117,280.109l-22.528,4.066-.844-4.9-1.361-7.783,22.481-4.11,1.392,7.953Z" transform="translate(-325.573 -234.13)" fill="#f8b8d4"/>
          <path id="Trazado_218868" data-name="Trazado 218868" d="M328.886,280.032l-1.08-6.175,22.5-4.209,1.069,6.321.551,3.241-22.486,4.044Z" transform="translate(-325.707 -234.853)" fill="#ea3584"/>
          <path id="Trazado_218869" data-name="Trazado 218869" d="M337.9,222.074l.625,3.572a35.1,35.1,0,0,1-8.2,1.453l-.628-3.59Z" transform="translate(-326.31 -219.704)" fill="#ece4da"/>
          <path id="Trazado_218870" data-name="Trazado 218870" d="M338.268,222.075A35.671,35.671,0,0,1,328.4,223.8l-.609-3.478,9.864-1.726Z" transform="translate(-325.704 -218.597)" fill="#ea3584"/>
        </g>
        <g id="Grupo_876295" data-name="Grupo 876295" transform="translate(9.104 30.157)">
          <g id="Grupo_876294" data-name="Grupo 876294" transform="translate(11.699)">
            <path id="Trazado_218871" data-name="Trazado 218871" d="M395.606,261.5a11.959,11.959,0,0,1,.425,10.622c-2.613,5.654-15.415,13.7-15.415,13.7l-24.35,2.72-1.018-4.31s7.891-2,10.409-2.505,8.547-2.134,12.821-2.668C378.478,279.052,389.982,265.447,395.606,261.5Z" transform="translate(-355.248 -261.498)" fill="#ccbe8c"/>
          </g>
          <path id="Trazado_218872" data-name="Trazado 218872" d="M349.783,293.925a9.2,9.2,0,0,0-2.78-1.77,11.819,11.819,0,0,0-3.949-.025c-1.294.048-.9,1.051.288,1.316s2.466.378,2.191.757-5.564,1.1-6.543,2.147,3.634.217,3.634.217-4.338,1.191-4.533,2.02,4.355-.463,4.355-.463-3.3.982-3.039,1.691c.189.508,2.88-.2,4.191-.582,0,0-3.23,1.05-2.761,1.471.6.536,6.643-.32,9.965-2.469A22.392,22.392,0,0,0,349.783,293.925Z" transform="translate(-338.084 -271.198)" fill="#fbb28f"/>
        </g>
      </g>
    </g>
    <g id="Grupo_876353" data-name="Grupo 876353" transform="translate(30.272 94.461)">
      <path id="Trazado_218873" data-name="Trazado 218873" d="M30.619,441.123c0,2.231,24.1,4.039,53.831,4.039s53.83-1.808,53.83-4.039-24.1-4.039-53.83-4.039S30.619,438.892,30.619,441.123Z" transform="translate(-30.619 -221.344)" fill="#ededed"/>
      <g id="Grupo_876330" data-name="Grupo 876330" transform="translate(32.418)">
        <g id="Grupo_876298" data-name="Grupo 876298" transform="translate(35.27 16.77)">
          <path id="Trazado_218874" data-name="Trazado 218874" d="M160.97,149.5l.149,26.4c.01,1.679-6.931,3.079-15.5,3.127s-15.53-1.274-15.539-2.953l-.149-26.4Z" transform="translate(-129.929 -146.542)" fill="#fffbf4"/>
          <path id="Trazado_218875" data-name="Trazado 218875" d="M160.97,148.116c.01,1.679-6.932,3.079-15.5,3.127s-15.529-1.273-15.538-2.952,6.932-3.079,15.5-3.128S160.961,146.437,160.97,148.116Z" transform="translate(-129.929 -145.162)" fill="#ece4da"/>
          <path id="Trazado_218876" data-name="Trazado 218876" d="M156.537,149.085c0,.59-3.217,1.086-7.193,1.108s-7.2-.438-7.205-1.027,3.217-1.086,7.193-1.108S156.533,148.5,156.537,149.085Z" transform="translate(-133.817 -146.084)" fill="#d2c3b3"/>
        </g>
        <g id="Grupo_876301" data-name="Grupo 876301" transform="translate(16.32 70.256)">
          <g id="Grupo_876300" data-name="Grupo 876300">
            <g id="Grupo_876299" data-name="Grupo 876299">
              <path id="Trazado_218877" data-name="Trazado 218877" d="M111.357,301.345h5.183l3.3-39.849-3.709-36.55-14.006-1.311,8.4,41.665C108.153,274.928,110.136,287.249,111.357,301.345Z" transform="translate(-102.126 -223.635)" fill="#998f69"/>
            </g>
          </g>
          <path id="Trazado_218878" data-name="Trazado 218878" d="M115.3,337.058a2.417,2.417,0,0,0-.313,1.337c0,.9.089,4.008.089,4.008h15.17a4.509,4.509,0,0,0-1.866-3.624c-1.921-1.261-4.875-.026-7.7-2.007C120.686,336.771,119.931,337.461,115.3,337.058Z" transform="translate(-106.222 -259.659)" fill="#616476"/>
        </g>
        <g id="Grupo_876304" data-name="Grupo 876304" transform="translate(0 69.688)">
          <g id="Grupo_876303" data-name="Grupo 876303" transform="translate(0.346)">
            <g id="Grupo_876302" data-name="Grupo 876302">
              <path id="Trazado_218879" data-name="Trazado 218879" d="M78.689,300.78c1-10.8,5.711-32.538,8.714-37.225l.029-40.753,13.688,3.244-4.09,37.595-13.094,36.84C82.375,301.355,80.562,301.189,78.689,300.78Z" transform="translate(-78.689 -222.802)" fill="#ccbe8c"/>
            </g>
          </g>
          <path id="Trazado_218880" data-name="Trazado 218880" d="M78.528,337.07a2.379,2.379,0,0,0-.346,1.36V342.4H93.338a4.509,4.509,0,0,0-1.866-3.624c-1.921-1.261-4.875-.026-7.7-2.007C83.774,336.771,83.155,337.472,78.528,337.07Z" transform="translate(-78.182 -259.091)" fill="#616476"/>
        </g>
        <g id="Grupo_876309" data-name="Grupo 876309" transform="translate(7.125 24.455)">
          <g id="Grupo_876306" data-name="Grupo 876306">
            <g id="Grupo_876305" data-name="Grupo 876305">
              <path id="Trazado_218881" data-name="Trazado 218881" d="M112.878,178.079l.108,28.239c-13.647,4.89-23.346-1.588-23.346-1.588l4.216-23.339-5.22-19.566,3.531-1.777.715-.361h0l1.552-.781,4.9-2.469,9.851,1.275,1.367.177.809.1,1.038.135c-.476,3.211-.137,7.12.265,11.081a13.091,13.091,0,0,1,1.371,4.917,5.1,5.1,0,0,1-1.05,3.294l0,0-.121.153Z" transform="translate(-88.635 -156.438)" fill="#ea3584"/>
            </g>
          </g>
          <g id="Grupo_876308" data-name="Grupo 876308" transform="translate(10.221 20.985)">
            <g id="Grupo_876307" data-name="Grupo 876307">
              <path id="Trazado_218882" data-name="Trazado 218882" d="M117.641,187.379l.012.5a31.143,31.143,0,0,1-7.972,1.018,29.755,29.755,0,0,1-5.808-.56.3.3,0,0,1,.117-.59,30.494,30.494,0,0,0,13.771-.524C117.72,187.278,117.68,187.328,117.641,187.379Z" transform="translate(-103.63 -187.226)" fill="#ea3584"/>
            </g>
          </g>
        </g>
        <g id="Grupo_876327" data-name="Grupo 876327" transform="translate(0.509)">
          <g id="Grupo_876311" data-name="Grupo 876311" transform="translate(27.305 5.327)">
            <g id="Grupo_876310" data-name="Grupo 876310">
              <path id="Trazado_218883" data-name="Trazado 218883" d="M118.989,128.374a6.533,6.533,0,0,1,1.9,3.542,5.98,5.98,0,0,1-.7,3.442Z" transform="translate(-118.989 -128.374)" fill="#002e49"/>
            </g>
          </g>
          <path id="Trazado_218884" data-name="Trazado 218884" d="M105.56,127.735c-3.314,1.752-9.631,1.347-9.631,1.347C91,130.419,93.316,141.47,93.316,141.47c-1.6-.247-2.7-1.523-3.463-3.1a26.232,26.232,0,0,1-1.761,7.258c-2.709,5.725-8.478,2.475-8.478,2.475,7.063.159,5.624-7.45,1.268-12.892s-.73-14.409,4.081-14.647a5.277,5.277,0,0,1,5.592,4.314v0a5.171,5.171,0,0,1,.344.989c1.542-1.838,9.255-5.124,12.762-4.3C107.084,122.367,108.3,126.285,105.56,127.735Z" transform="translate(-78.928 -120.558)" fill="#002e49"/>
          <g id="Grupo_876313" data-name="Grupo 876313" transform="translate(8.044 4.327)">
            <g id="Grupo_876312" data-name="Grupo 876312">
              <path id="Trazado_218885" data-name="Trazado 218885" d="M94.658,127.894a9.625,9.625,0,0,0-2.707,5.282,6.736,6.736,0,0,1-1.221.133c.146-1.084.859-5.053,3.582-6.4A5.139,5.139,0,0,1,94.658,127.894Z" transform="translate(-90.731 -126.906)" fill="#fff"/>
            </g>
          </g>
          <g id="Grupo_876315" data-name="Grupo 876315" transform="translate(15.695 20.485)">
            <g id="Grupo_876314" data-name="Grupo 876314">
              <path id="Trazado_218886" data-name="Trazado 218886" d="M108.138,151.6l.068,3.7.031,1.694c-2,1.726-5.611-.176-5.611-.176l-.671-5.906c.932-.734,3.4.106,4.948.414C107.633,151.465,108.138,151.6,108.138,151.6Z" transform="translate(-101.955 -150.612)" fill="#fbb28f"/>
            </g>
          </g>
          <g id="Grupo_876317" data-name="Grupo 876317" transform="translate(17.071 21.191)">
            <g id="Grupo_876316" data-name="Grupo 876316">
              <path id="Trazado_218887" data-name="Trazado 218887" d="M108.782,151.928l.068,3.7c-2.533-.39-4.875-3.685-4.875-3.685l3.571-.29C108.276,151.795,108.782,151.928,108.782,151.928Z" transform="translate(-103.975 -151.649)" fill="#ed867a"/>
            </g>
          </g>
          <g id="Grupo_876319" data-name="Grupo 876319" transform="translate(12.991 6.063)">
            <g id="Grupo_876318" data-name="Grupo 876318">
              <path id="Trazado_218888" data-name="Trazado 218888" d="M111,145.646c-4.334,2.355-9.805-.3-11.5-1.24-.339-.189-.529-.311-.529-.311s-.234-.888-.473-2.2a28.736,28.736,0,0,1-.511-5.033c.007-2.124.395-4.119,1.634-5.016l12.8-2.4s.044.156.117.439C113.134,132.222,115.641,143.127,111,145.646Z" transform="translate(-97.988 -129.453)" fill="#fbb28f"/>
            </g>
          </g>
          <g id="Grupo_876321" data-name="Grupo 876321" transform="translate(13.502 18.507)">
            <g id="Grupo_876320" data-name="Grupo 876320">
              <path id="Trazado_218889" data-name="Trazado 218889" d="M99.74,150.219c-.339-.189-.529-.311-.529-.311s-.234-.888-.473-2.2l1.054.344A1.828,1.828,0,0,1,99.74,150.219Z" transform="translate(-98.738 -147.711)" fill="#002e49"/>
            </g>
          </g>
          <g id="Grupo_876324" data-name="Grupo 876324" transform="translate(11.565 13.442)">
            <g id="Grupo_876323" data-name="Grupo 876323">
              <g id="Grupo_876322" data-name="Grupo 876322">
                <path id="Trazado_218890" data-name="Trazado 218890" d="M99.343,141.258s-1.716-1.888-2.959-.419c-1.369,1.618.259,6.043,3.494,5.38Z" transform="translate(-95.896 -140.279)" fill="#fbb28f"/>
              </g>
            </g>
          </g>
          <g id="Grupo_876326" data-name="Grupo 876326" transform="translate(12.991 6.063)">
            <g id="Grupo_876325" data-name="Grupo 876325">
              <path id="Trazado_218891" data-name="Trazado 218891" d="M112.538,129.893c-1.251.563-6.691,2.865-10.71,2.384,0,0,.046.329.1.84h0s0,.01,0,.027.005.046.01.081a34.864,34.864,0,0,1,.213,6.455c-.294,2.289.241,4.137,1.178,4.222,0,0-.738.379-1.486-.994a19.712,19.712,0,0,1-1.287-4.374c-.5-.62-1.3-1.856-2.568-1.694.006-2.123.394-4.094,1.634-4.991l12.8-2.4S112.466,129.608,112.538,129.893Z" transform="translate(-97.988 -129.453)" fill="#002e49"/>
            </g>
          </g>
        </g>
        <path id="Trazado_218892" data-name="Trazado 218892" d="M127.706,162.108a53.62,53.62,0,0,0-4.427-3.19,12.085,12.085,0,0,0-.136,6.443,15.416,15.416,0,0,0,4.563,3.553Z" transform="translate(-92.386 -132.772)" fill="#bb2a69"/>
        <g id="Grupo_876329" data-name="Grupo 876329" transform="translate(5.703 29.075)">
          <g id="Grupo_876328" data-name="Grupo 876328">
            <path id="Trazado_218893" data-name="Trazado 218893" d="M92,163.719c4.236,2.452,12.2,8.124,15.97,10.34,0,0,3.584-.641,7.39-1.241,3.691-.583,14.337-3.257,14.337-3.257l1.562,4.267s-18.568,8.513-26,7.306c-3.649-.593-7.036-3.807-9.865-5.43a30.411,30.411,0,0,1-7.949-6.617c-.233-.272-.387-.455-.4-.478A3.607,3.607,0,0,1,92,163.719Z" transform="translate(-86.549 -163.215)" fill="#bb2a69"/>
          </g>
          <path id="Trazado_218894" data-name="Trazado 218894" d="M149.849,169.837a10.121,10.121,0,0,1,1.1-2.914,11.8,11.8,0,0,1,3.011-2.556c1.022-.8,1.363.228.624,1.193s-1.647,1.874-1.193,1.988,4.974-2.728,6.394-2.558-2.645,2.5-2.645,2.5,4.09-1.874,4.771-1.363-3.635,2.443-3.635,2.443,3.163-1.37,3.416-.656c.181.511-2.337,1.7-3.587,2.246,0,0,3.15-1.27,3.061-.646-.114.795-5.83,4.1-9.756,4.59Z" transform="translate(-106.705 -163.491)" fill="#fbb28f"/>
        </g>
      </g>
      <g id="Grupo_876352" data-name="Grupo 876352" transform="translate(9.098 152.999)">
        <g id="Grupo_876340" data-name="Grupo 876340" transform="translate(0 2.032)">
          <g id="Grupo_876332" data-name="Grupo 876332" transform="translate(26.595)">
            <g id="Grupo_876331" data-name="Grupo 876331">
              <path id="Trazado_218895" data-name="Trazado 218895" d="M99.294,348.014,83.019,411.652a.76.76,0,0,0,.754,1.012,1.4,1.4,0,0,0,1.271-1.012l16.275-63.638Z" transform="translate(-82.986 -348.014)" fill="#ffeeb0"/>
            </g>
          </g>
          <g id="Grupo_876334" data-name="Grupo 876334">
            <g id="Grupo_876333" data-name="Grupo 876333">
              <path id="Trazado_218896" data-name="Trazado 218896" d="M60.275,348.014,44,411.652a.76.76,0,0,0,.754,1.012,1.4,1.4,0,0,0,1.271-1.012L62.3,348.014Z" transform="translate(-43.967 -348.014)" fill="#ffeeb0"/>
            </g>
          </g>
          <g id="Grupo_876339" data-name="Grupo 876339" transform="translate(3.066 12.667)">
            <g id="Grupo_876335" data-name="Grupo 876335" transform="translate(9.736)">
              <path id="Trazado_218897" data-name="Trazado 218897" d="M63.536,368.623h26.57a1.4,1.4,0,0,0,1.271-1.012.76.76,0,0,0-.754-1.013H64.054a1.394,1.394,0,0,0-1.271,1.013A.76.76,0,0,0,63.536,368.623Z" transform="translate(-62.75 -366.598)" fill="#ffeeb0"/>
            </g>
            <g id="Grupo_876336" data-name="Grupo 876336" transform="translate(6.491 12.69)">
              <path id="Trazado_218898" data-name="Trazado 218898" d="M58.775,387.241H85.343a1.4,1.4,0,0,0,1.272-1.012.761.761,0,0,0-.754-1.013H59.293a1.394,1.394,0,0,0-1.272,1.013A.76.76,0,0,0,58.775,387.241Z" transform="translate(-57.988 -385.216)" fill="#ffeeb0"/>
            </g>
            <g id="Grupo_876337" data-name="Grupo 876337" transform="translate(3.245 25.279)">
              <path id="Trazado_218899" data-name="Trazado 218899" d="M54.013,405.777H80.582a1.4,1.4,0,0,0,1.271-1.046.78.78,0,0,0-.753-1.046H54.531a1.4,1.4,0,0,0-1.271,1.046A.78.78,0,0,0,54.013,405.777Z" transform="translate(-53.227 -403.686)" fill="#ffeeb0"/>
            </g>
            <g id="Grupo_876338" data-name="Grupo 876338" transform="translate(0 38.069)">
              <path id="Trazado_218900" data-name="Trazado 218900" d="M49.252,424.477H75.82a1.394,1.394,0,0,0,1.272-1.013.76.76,0,0,0-.754-1.012H49.77a1.4,1.4,0,0,0-1.272,1.012A.76.76,0,0,0,49.252,424.477Z" transform="translate(-48.465 -422.452)" fill="#ffeeb0"/>
            </g>
          </g>
        </g>
        <g id="Grupo_876351" data-name="Grupo 876351" transform="translate(14.388)">
          <g id="Grupo_876342" data-name="Grupo 876342" transform="translate(26.989 2.032)">
            <g id="Grupo_876341" data-name="Grupo 876341">
              <path id="Trazado_218901" data-name="Trazado 218901" d="M106.7,348.014h-2.025l16.275,63.638a1.4,1.4,0,0,0,1.271,1.012.76.76,0,0,0,.754-1.012Z" transform="translate(-104.674 -348.014)" fill="#ccbe8c"/>
            </g>
          </g>
          <g id="Grupo_876345" data-name="Grupo 876345" transform="translate(53.584 2.032)">
            <g id="Grupo_876344" data-name="Grupo 876344">
              <g id="Grupo_876343" data-name="Grupo 876343">
                <path id="Trazado_218902" data-name="Trazado 218902" d="M161.993,411.652l-16.275-63.638h-2.025l16.275,63.638a1.4,1.4,0,0,0,1.271,1.012A.76.76,0,0,0,161.993,411.652Z" transform="translate(-143.693 -348.014)" fill="#ccbe8c"/>
              </g>
            </g>
          </g>
          <g id="Grupo_876350" data-name="Grupo 876350">
            <path id="Rect치ngulo_296905" data-name="Rect치ngulo 296905" d="M.855,0H55.947A.855.855,0,0,1,56.8.855V3.178a.855.855,0,0,1-.855.855H.856A.856.856,0,0,1,0,3.178V.855A.855.855,0,0,1,.855,0Z" fill="#ccbe8c"/>
            <g id="Grupo_876346" data-name="Grupo 876346" transform="translate(30.455 14.699)">
              <path id="Trazado_218903" data-name="Trazado 218903" d="M137.632,368.623h-26.57a1.4,1.4,0,0,1-1.271-1.012.76.76,0,0,1,.754-1.013h26.569a1.394,1.394,0,0,1,1.271,1.013A.76.76,0,0,1,137.632,368.623Z" transform="translate(-109.759 -366.598)" fill="#ccbe8c"/>
            </g>
            <g id="Grupo_876347" data-name="Grupo 876347" transform="translate(33.7 27.388)">
              <path id="Trazado_218904" data-name="Trazado 218904" d="M142.393,387.241H115.825a1.4,1.4,0,0,1-1.272-1.012.761.761,0,0,1,.754-1.013h26.569a1.394,1.394,0,0,1,1.272,1.013A.76.76,0,0,1,142.393,387.241Z" transform="translate(-114.52 -385.216)" fill="#ccbe8c"/>
            </g>
            <g id="Grupo_876348" data-name="Grupo 876348" transform="translate(36.946 39.977)">
              <path id="Trazado_218905" data-name="Trazado 218905" d="M147.155,405.777H120.586a1.4,1.4,0,0,1-1.271-1.046.78.78,0,0,1,.753-1.046h26.57a1.4,1.4,0,0,1,1.271,1.046A.78.78,0,0,1,147.155,405.777Z" transform="translate(-119.282 -403.686)" fill="#ccbe8c"/>
            </g>
            <g id="Grupo_876349" data-name="Grupo 876349" transform="translate(40.191 52.768)">
              <path id="Trazado_218906" data-name="Trazado 218906" d="M151.916,424.477H125.348a1.394,1.394,0,0,1-1.272-1.013.76.76,0,0,1,.754-1.012H151.4a1.4,1.4,0,0,1,1.272,1.012A.761.761,0,0,1,151.916,424.477Z" transform="translate(-124.043 -422.452)" fill="#ccbe8c"/>
            </g>
          </g>
        </g>
      </g>
    </g>
  </g>
</svg>
