<svg xmlns="http://www.w3.org/2000/svg" xmlns:xlink="http://www.w3.org/1999/xlink" width="124" height="124" viewBox="0 0 124 124">
  <defs>
    <clipPath id="clip-path">
      <rect id="Rectángulo_293131" data-name="Rectángulo 293131" width="124" height="124" transform="translate(528 1461)" fill="#fff" stroke="#707070" stroke-width="1"/>
    </clipPath>
  </defs>
  <g id="Enmascarar_grupo_700094" data-name="Enmascarar grupo 700094" transform="translate(-528 -1461)" clip-path="url(#clip-path)">
    <g id="Grupo_873866" data-name="Grupo 873866" transform="translate(-203.892 1926.321)">
      <path id="Trazado_218142" data-name="Trazado 218142" d="M755.419-332.5c-1.529-.129-3.062-.222-4.586-.394-4.9-.553-7.54-2.776-8.673-7.611-1.789-7.632-.651-15.119,1.549-22.48a39.917,39.917,0,0,1,7.239-14.393c.954-1.147,1.823-2.522,3.523-2.772,1.491,2.286,3.522,4.168,4.85,6.582a49.776,49.776,0,0,1,5.774,15.839c.1.576.253.971.883,1.027a30.706,30.706,0,0,0-.428,16.7c-1.338,2.878-2.943,5.508-6.171,6.626-.692-.657-.418-1.511-.422-2.283-.026-4.019.031-8.039-.029-12.057-.034-2.292-.13-4.449,2.059-6.078,1.007-.75,1.161-2.489-.377-2.734-1.95-.311-1.656-1.417-1.665-2.625a4.5,4.5,0,0,0-.319-2.141c-.322-.624-.7-1.123-1.479-1.086a1.641,1.641,0,0,0-1.6,1.274,7.827,7.827,0,0,0-.117,1.956c-.008,3.91,0,7.819,0,12.133-.7-.6-1.1-.883-1.434-1.231-.838-.87-1.735-1.48-2.806-.426-1.184,1.165-.514,2.211.506,2.935,3.262,2.318,4.318,5.432,3.764,9.3A28.426,28.426,0,0,0,755.419-332.5Z" transform="translate(-2.011 -37.4)" fill="#99d43c"/>
      <path id="Trazado_218143" data-name="Trazado 218143" d="M860.644-410.58c1.164-5.4,2.091-10.862,3.985-16.08.915-2.521,1.732-5.1,3.487-7.219,6.477,13.5,8.315,27.914,8.37,42.676-1.7.265-2.178,2.274-3.944,2.817,0-4.379-.009-8.61.006-12.842,0-1.125-.357-1.851-1.626-1.82-1.161.029-1.485.733-1.472,1.747.012.907,0,1.813,0,3.194-.97-.919-1.555-1.446-2.109-2-.857-.863-1.755-1.084-2.657-.123-.823.876-.572,1.72.212,2.5,1.2,1.188,2.362,2.406,3.582,3.567a2.946,2.946,0,0,1,.983,2.325c-.05,6.3-.056,12.6-.076,18.9a17.234,17.234,0,0,1-4.934-.853c-2.9-1.94-3.685-5.037-4.442-8.148-.346-3.49-.656-6.974-.7-10.492C859.228-398.53,860.064-404.542,860.644-410.58Z" transform="translate(-68.113 -7.311)" fill="#a2e240"/>
      <path id="Trazado_218144" data-name="Trazado 218144" d="M841.321-281.406c2.122.015,4.245.043,6.367.039,1.164,0,2.382.076,2.41,1.56.03,1.625-1.257,1.725-2.5,1.7-.293-.006-.586,0-.879,0q-52.811,0-105.623-.018c-1.349,0-3.4.588-3.41-1.61-.01-2.226,2.052-1.579,3.394-1.605,4.1-.081,8.195-.069,12.291-.092a5.781,5.781,0,0,0,3.345-.19,28.774,28.774,0,0,0,7.2.151,8.531,8.531,0,0,0,3.313-.024,22.913,22.913,0,0,0,5.342.009,8.594,8.594,0,0,0,3.333.054l4.1.085,3.531.01c2.048,0,4.1-.043,6.144.009,1.053.027,1.6-.172,1.568-1.426-.1-3.58-.085-7.163-.114-10.745l3.264-.015c.019,1.968.053,3.936.055,5.9.007,6.714,0,6.714,6.757,6.154a9.244,9.244,0,0,0,3.3.018c.363.031.731.037,1.089.1,2.111.353,2.9-.3,2.795-2.646-.224-4.96-.077-9.936-.083-14.906l3.169-2.242q.042,8.2.082,16.407c.012,3.424,0,3.424,3.53,3.328l3.451.14a13.753,13.753,0,0,0,4.2-.234,8.618,8.618,0,0,0,3.276.03l11.739.024Z" transform="translate(0 -81.655)" fill="#0b5c37"/>
      <path id="Trazado_218145" data-name="Trazado 218145" d="M890.815-378.322l-3.169,2.243-3.766.286-.106-3.295c.51,0,1.164.09,1.389-.415,1.311-2.942,2.784-5.874,1.662-9.258.685-.754,1.4-1.481,2.049-2.268,1.205-1.47.78-2.532-1.169-3.015-.055-14.762-1.893-29.174-8.37-42.676,1.958-2.885,3.607-2.979,5.636-.251.725.974,1.293,2.065,1.933,3.1a78.389,78.389,0,0,1,3.161,9.527c.762,3.391,1.628,6.759,2.449,10.137.054,1.022.037,2.054.172,3.065,1.29,9.667,1.917,19.327-.141,28.977Z" transform="translate(-79.332 -4.469)" fill="#99d43c"/>
      <path id="Trazado_218146" data-name="Trazado 218146" d="M774.559-418.454c-.005-5.263-.05-10.526-.006-15.788.053-6.379,3.531-10.774,9.657-12.334.049.956.936,1.006,1.512,1.37a11.631,11.631,0,0,1,5.555,8.4c.681,4.2.133,8.41.365,12.607-.836-.355-1.563-1.157-2.62-.486-1.29.818-1.27-.142-1.273-1-.008-2.633,0-5.266-.017-7.9,0-.907-.341-1.6-1.37-1.623a1.69,1.69,0,0,0-1.72,1.394c-.2.641.314,1.472-.477,1.962-1.2-.347-1.964-2.687-3.48-.933-1.474,1.706.483,2.512,1.312,3.565a4.161,4.161,0,0,0,.775.774,4.709,4.709,0,0,1,1.868,4.372c-.144,4.31-.058,8.628-.065,12.943-.918-1.215-1.769-2.488-2.769-3.633C779.9-416.953,777.805-418.859,774.559-418.454Z" transform="translate(-20.637 -0.199)" fill="#d1efa1"/>
      <path id="Trazado_218147" data-name="Trazado 218147" d="M936.292-400.988a13.079,13.079,0,0,1,6.087,6.47q.3.991.6,1.981c.268,7.546.247,15.092-.01,22.638-2.407,4.5-4.424,9.127-4.8,14.307a13.454,13.454,0,0,1-4.924,1.8q-.032-1.408-.065-2.817c3.322-2.1,4.217-5.474,4.286-9,.156-8.05.076-16.1.04-24.157-.025-5.7-3.019-9.8-8.484-11.749a3.155,3.155,0,0,1,.156-.324A15.961,15.961,0,0,1,936.292-400.988Z" transform="translate(-107.161 -25.219)" fill="#bbe974"/>
      <path id="Trazado_218148" data-name="Trazado 218148" d="M812.259-388.313l2.179-.306c.149.932,1.037,1.132,1.631,1.6,2.566,2.038,4.9,4.246,5.839,7.537a1.578,1.578,0,0,0-2.158.166c-.883.91-1.361.668-1.343-.578.017-1.128-.4-1.81-1.644-1.766-1.308.047-1.459.918-1.464,1.951-.013,2.463-.053,4.925-.082,7.387a30.927,30.927,0,0,0-2.751-3.014c-2.439-2.075-3.966-1.975-6.411.2-1.568,1.014-2.249,2.781-3.476,4.084-.864-2.033-2.168-3.906-2.267-6.218l1.924-4,3.817-3.988A27.213,27.213,0,0,1,812.259-388.313Z" transform="translate(-35.074 -32.659)" fill="#1da46e"/>
      <path id="Trazado_218149" data-name="Trazado 218149" d="M839.892-379.747c-.942-3.291-3.273-5.5-5.839-7.537-.594-.472-1.482-.672-1.631-1.6a17.381,17.381,0,0,1,13.167,3.387c-.579,6.038-1.416,12.049-1.336,18.145.047,3.518.356,7,.7,10.493-2.022.634-3.726,2.137-5.963,2.187l-1.367-7.879a15.228,15.228,0,0,0,2.722-15.4A3.184,3.184,0,0,0,839.892-379.747Z" transform="translate(-53.058 -32.39)" fill="#178f5d"/>
      <path id="Trazado_218150" data-name="Trazado 218150" d="M810.141-420.972a27.2,27.2,0,0,0-6.207,3.064q.014-2.395.028-4.79,0-.851,0-1.7c-.231-4.2.316-8.4-.365-12.607a11.631,11.631,0,0,0-5.555-8.4c-.577-.364-1.464-.414-1.512-1.37a11.807,11.807,0,0,1,13.634,12.67C809.879-429.745,810.13-425.351,810.141-420.972Z" transform="translate(-32.956 0)" fill="#bbe974"/>
      <path id="Trazado_218151" data-name="Trazado 218151" d="M770.545-303.257a5.78,5.78,0,0,1-3.345.19q.019-3.408.036-6.815a28.444,28.444,0,0,1,.039-3.942c.554-3.864-.5-6.979-3.764-9.3-1.02-.725-1.69-1.77-.506-2.935,1.071-1.055,1.969-.444,2.806.426.335.348.733.634,1.434,1.231,0-4.314,0-8.223,0-12.133a7.827,7.827,0,0,1,.117-1.956,1.641,1.641,0,0,1,1.6-1.274c.783-.037,1.157.461,1.479,1.086a4.5,4.5,0,0,1,.319,2.141c.008,1.208-.286,2.314,1.665,2.625,1.538.245,1.385,1.984.377,2.734-2.189,1.629-2.092,3.786-2.059,6.078.06,4.018,0,8.039.029,12.057,0,.772-.27,1.626.422,2.282q0,.344,0,.688c-.806.486-.533,1.289-.557,1.985C770.584-306.476,770.573-304.867,770.545-303.257Z" transform="translate(-13.828 -60.021)" fill="#89ba37"/>
      <path id="Trazado_218152" data-name="Trazado 218152" d="M910.987-417.52a3.155,3.155,0,0,0-.156.324c-4.563.892-7.177,3.881-8.68,8.065-.82-3.378-1.686-6.746-2.449-10.138a78.4,78.4,0,0,0-3.161-9.527c1.2-.391,2.266-1.209,3.619-1.087C906.264-428.407,910.84-423.182,910.987-417.52Z" transform="translate(-88.968 -9.542)" fill="#178f5d"/>
      <path id="Trazado_218153" data-name="Trazado 218153" d="M969.325-330.513A29.8,29.8,0,0,1,973.653-316a17.637,17.637,0,0,1-.332,3.692c-.681,3.489-2.064,4.5-6.424,4.893-.769-2.851-.171-5.233,2.3-7.053.617-.454,1.377-1.118.717-1.993-.5-.667-.973-1.785-2.227-.913-.828.575-.994-.04-1-.706-.021-1.523-.015-3.047-.02-4.572a13.517,13.517,0,0,0-4.448-8.849,4.1,4.1,0,0,1,3.505-2.043A11.621,11.621,0,0,1,969.325-330.513Z" transform="translate(-125.75 -63.504)" fill="#99d43c"/>
      <path id="Trazado_218154" data-name="Trazado 218154" d="M967.738-359.4a11.631,11.631,0,0,0-3.6-3.032c.2-.3.405-.605.6-.911,4.231-6.534,1.865-16.376-4.758-19.8l-.6-1.981a14.323,14.323,0,0,1,12.656,9.983C973.876-369.06,972.526-363.726,967.738-359.4Z" transform="translate(-124.164 -34.62)" fill="#127c51"/>
      <path id="Trazado_218155" data-name="Trazado 218155" d="M784.043-373.994c.1,2.312,1.4,4.185,2.268,6.217-1.258,3.172-3.048,6.148-3.538,9.6-.63-.056-.788-.451-.883-1.027a49.774,49.774,0,0,0-5.774-15.839c-1.328-2.414-3.358-4.3-4.85-6.582.006-1.007,1.065-.614,1.463-1.1,3.246-.406,5.341,1.5,7.249,3.686,1,1.145,1.85,2.418,2.769,3.633C782.816-374.6,783.157-374.045,784.043-373.994Z" transform="translate(-18.806 -35.93)" fill="#8cc537"/>
      <path id="Trazado_218156" data-name="Trazado 218156" d="M915.593-418.312c-.146-5.663-4.722-10.887-10.828-12.362,8.138-2.828,17.661,4.188,17.94,13.217A15.959,15.959,0,0,0,915.593-418.312Z" transform="translate(-93.575 -8.75)" fill="#127c51"/>
      <path id="Trazado_218157" data-name="Trazado 218157" d="M968.273-309.219c.005,1.524,0,3.048.021,4.571.009.666.176,1.281,1,.706,1.254-.872,1.724.246,2.227.913.66.875-.1,1.539-.717,1.993-2.47,1.82-3.069,4.2-2.3,7.053q.089,3.929.176,7.859l-3.566-.035q-.014-3.959-.027-7.919c.036-4.385.051-8.771.116-13.157C965.241-309.492,966.059-309.994,968.273-309.219Z" transform="translate(-127.361 -76.937)" fill="#89ba37"/>
      <path id="Trazado_218158" data-name="Trazado 218158" d="M795.672-344.277c.491-3.454,2.28-6.43,3.538-9.6,1.227-1.3,1.908-3.07,3.476-4.083a49.529,49.529,0,0,1,3.825,5.854c2.3,4.4,3.338,9.149,4.111,13.987-.58.649-1.138,1.32-1.753,1.935-.236.235-.644.524-.9.466-.538-.121-.406-.69-.409-1.1-.015-1.6-.011-3.208-.006-4.813,0-1.326.161-2.937-1.674-2.985-1.986-.053-1.385,1.7-1.4,2.8-.083,6.123-.1,12.247-.135,18.37l-4.476-.5a9.551,9.551,0,0,1-4.623-3.632A30.708,30.708,0,0,1,795.672-344.277Z" transform="translate(-31.706 -49.829)" fill="#a2e240"/>
      <path id="Trazado_218159" data-name="Trazado 218159" d="M788.595-288.894a9.548,9.548,0,0,0,4.622,3.632l-1,1.252-3.309,1.8-2.519.373c-.941-.558-1.864-.928-2.644.245l-1.322.017q0-.344,0-.688C785.652-283.386,787.256-286.016,788.595-288.894Z" transform="translate(-25.056 -88.511)" fill="#8cc537"/>
      <path id="Trazado_218160" data-name="Trazado 218160" d="M882.69-351.954c1.949.483,2.375,1.546,1.169,3.015-.645.787-1.363,1.514-2.049,2.268a5.949,5.949,0,0,0-3.088,6.4A22.371,22.371,0,0,1,878.76-337q.053,1.647.106,3.294l-.036,17.169a9.246,9.246,0,0,1-3.3-.018q.016-7.644.032-15.288.015-.926.031-1.851c.02-6.3.027-12.6.077-18.9a2.946,2.946,0,0,0-.983-2.325c-1.22-1.161-2.386-2.38-3.582-3.567-.784-.779-1.035-1.623-.212-2.5.9-.961,1.8-.74,2.657.123.554.557,1.139,1.084,2.109,2,0-1.381.009-2.287,0-3.194-.013-1.014.311-1.718,1.472-1.747,1.269-.031,1.63.695,1.626,1.82-.015,4.231-.006,8.463-.006,12.842C880.513-349.68,880.988-351.689,882.69-351.954Z" transform="translate(-74.318 -46.56)" fill="#87b931"/>
      <path id="Trazado_218161" data-name="Trazado 218161" d="M846.171-313.638c2.237-.05,3.941-1.553,5.963-2.187.756,3.11,1.537,6.208,4.44,8.148-3.437,2.277-7.117,3.7-11.335,3.246A33.652,33.652,0,0,0,846.171-313.638Z" transform="translate(-60.236 -73.428)" fill="#127c51"/>
      <path id="Trazado_218162" data-name="Trazado 218162" d="M844.714-294.058c4.219.457,7.9-.97,11.336-3.246a17.266,17.266,0,0,0,4.936.853q-.017.927-.03,1.853a27.826,27.826,0,0,1-6.846,3.23l-3.264.015a13.824,13.824,0,0,1-6.542-1.806Z" transform="translate(-59.712 -83.801)" fill="#106b45"/>
      <path id="Trazado_218163" data-name="Trazado 218163" d="M928.463-330.579q.032,1.408.064,2.817-.033,7.946-.066,15.892a8.618,8.618,0,0,1-3.276-.03c-.125-5.328.439-10.672-.361-15.986.678-.567.441-1.349.445-2.051.022-3.438-.171-6.887.057-10.31.271-4.076-.181-7.722-3.9-10.2a1.914,1.914,0,0,1-.306-.313,1.341,1.341,0,0,1-.012-2.111,1.577,1.577,0,0,1,2.179-.176c.579.377.854,1.215,1.824,1.179a4.544,4.544,0,0,0,.157-.817c.011-1.269-.061-2.83,1.673-2.729,1.669.1,1.491,1.678,1.489,2.926,0,2.685,0,5.371,0,8.209,1.258-.234,2.413-1.571,3.292-.071.824,1.406-.218,2.379-1.2,3.144a5.364,5.364,0,0,0-2.123,5.149C928.56-334.246,928.451-332.408,928.463-330.579Z" transform="translate(-102.442 -51.25)" fill="#a2e244"/>
      <path id="Trazado_218164" data-name="Trazado 218164" d="M817.046-306.468c.038-6.124.052-12.247.135-18.37.015-1.108-.586-2.857,1.4-2.8,1.835.048,1.679,1.659,1.674,2.985,0,1.6-.009,3.209.006,4.813,0,.414-.129.983.409,1.1.257.058.666-.231.9-.466.615-.615,1.173-1.286,1.753-1.935a1.509,1.509,0,0,1,2.294.361,1.661,1.661,0,0,1-.359,2.342c-.813.838-1.583,1.715-2.372,2.575-3.224,1.663-2.669,4.651-2.618,7.462q0,.913.007,1.827.016,5.148.034,10.3a8.593,8.593,0,0,1-3.333-.054Q817.012-301.4,817.046-306.468Z" transform="translate(-44.408 -66.809)" fill="#87b931"/>
      <path id="Trazado_218165" data-name="Trazado 218165" d="M917.091-298.159q0,8.575,0,17.149l-3.451-.14q.018-9.769.037-19.537C915.225-300.4,916.062-299.148,917.091-298.159Z" transform="translate(-98.545 -81.906)" fill="#127c51"/>
      <path id="Trazado_218166" data-name="Trazado 218166" d="M833.877-271.765c.323-3.593.112-7.193.116-10.79a12.258,12.258,0,0,0,3.182-1.471q.117,6.136.234,12.271Z" transform="translate(-53.873 -91.237)" fill="#127c51"/>
      <path id="Trazado_218167" data-name="Trazado 218167" d="M797.228-268.4q-.03-3.8-.061-7.6l3.309-1.8q.032,4.685.064,9.371A8.53,8.53,0,0,1,797.228-268.4Z" transform="translate(-33.313 -94.728)" fill="#a2e244"/>
      <path id="Trazado_218168" data-name="Trazado 218168" d="M914.657-354.357c-1.03-.989-1.866-2.239-3.415-2.528a9.667,9.667,0,0,0-1.918-4.038c2.058-9.65,1.432-19.31.141-28.977-.135-1.011-.118-2.043-.172-3.065,1.5-4.184,4.117-7.172,8.68-8.065,5.465,1.954,8.459,6.045,8.484,11.749.035,8.053.116,16.107-.04,24.157-.068,3.528-.964,6.905-4.286,9-.012-1.828.1-3.667-.068-5.482a5.364,5.364,0,0,1,2.123-5.149c.983-.765,2.025-1.738,1.2-3.144-.879-1.5-2.034-.163-3.292.071,0-2.838,0-5.524,0-8.209,0-1.249.18-2.83-1.489-2.926-1.734-.1-1.663,1.461-1.673,2.729a4.545,4.545,0,0,1-.157.817c-.97.036-1.245-.8-1.824-1.179a1.577,1.577,0,0,0-2.179.176,1.341,1.341,0,0,0,.012,2.111,1.917,1.917,0,0,0,.306.313c3.721,2.482,4.173,6.128,3.9,10.2-.227,3.422-.035,6.872-.057,10.31,0,.7.233,1.484-.445,2.051C917.079-353.179,916.026-354.419,914.657-354.357Z" transform="translate(-96.111 -25.708)" fill="#cfeea0"/>
      <path id="Trazado_218169" data-name="Trazado 218169" d="M889.261-315.192a22.379,22.379,0,0,0-.038-3.276,5.949,5.949,0,0,1,3.088-6.4c1.122,3.384-.35,6.316-1.662,9.258C890.425-315.1,889.771-315.189,889.261-315.192Z" transform="translate(-84.819 -68.365)" fill="#a2e240"/>
      <path id="Trazado_218170" data-name="Trazado 218170" d="M793.027-395.26c-.887-.051-1.227-.605-1.3-1.409.007-4.316-.08-8.634.065-12.944a4.709,4.709,0,0,0-1.868-4.372,4.165,4.165,0,0,1-.775-.774c-.83-1.053-2.786-1.859-1.312-3.565,1.516-1.754,2.285.586,3.48.933.791-.49.273-1.322.477-1.962a1.691,1.691,0,0,1,1.72-1.394c1.029.023,1.366.716,1.37,1.623.014,2.633.009,5.266.017,7.9,0,.862-.018,1.822,1.273,1,1.057-.671,1.784.131,2.62.486q0,.852,0,1.7a7.751,7.751,0,0,0-3.845,8.777Z" transform="translate(-27.79 -14.665)" fill="#a2e240"/>
      <path id="Trazado_218171" data-name="Trazado 218171" d="M956.534-305.052c-5.024-.451-6.377-1.879-6.6-6.97q-.062-1.411-.118-2.823c.373-5.182,2.39-9.811,4.8-14.309l.66.112a13.517,13.517,0,0,1,4.448,8.849c-2.214-.775-3.033-.273-3.066,1.985C956.585-313.824,956.57-309.437,956.534-305.052Z" transform="translate(-118.804 -65.962)" fill="#a2e244"/>
      <path id="Trazado_218172" data-name="Trazado 218172" d="M961.375-357.863l-.659-.112c.257-7.546.278-15.092.01-22.638,6.623,3.421,8.989,13.263,4.758,19.8-.2.305-.4.607-.6.911A4.1,4.1,0,0,0,961.375-357.863Z" transform="translate(-124.911 -37.143)" fill="#178f5d"/>
      <path id="Trazado_218173" data-name="Trazado 218173" d="M825.688-327.592a12.259,12.259,0,0,1-3.182,1.471l-4.252.409q0-.913-.007-1.826A7.593,7.593,0,0,0,820.865-335c.789-.86,1.56-1.738,2.373-2.575a1.661,1.661,0,0,0,.359-2.342,1.509,1.509,0,0,0-2.294-.361c-.773-4.837-1.807-9.588-4.111-13.986a49.533,49.533,0,0,0-3.825-5.854c2.445-2.174,3.971-2.274,6.41-.2a31.024,31.024,0,0,1,2.752,3.014q1.57,3.089,3.138,6.179l1.286,3.852q.684,3.94,1.368,7.879a33.647,33.647,0,0,1-.933,9.207l-.411.9Z" transform="translate(-42.386 -47.671)" fill="#99d43c"/>
      <path id="Trazado_218174" data-name="Trazado 218174" d="M837.332-357.275q-1.569-3.09-3.139-6.179c.029-2.462.069-4.925.081-7.387.005-1.033.156-1.9,1.464-1.951,1.241-.044,1.661.638,1.644,1.766-.018,1.246.46,1.488,1.343.578a1.578,1.578,0,0,1,2.158-.166,3.184,3.184,0,0,1,.456,1.794c-3.916,2.776-4.479,6.754-3.984,11.112A2.482,2.482,0,0,1,837.332-357.275Z" transform="translate(-54.05 -41.522)" fill="#127c51"/>
      <path id="Trazado_218175" data-name="Trazado 218175" d="M804.43-383.068a7.751,7.751,0,0,1,3.845-8.777q-.014,2.394-.028,4.789Z" transform="translate(-37.269 -30.852)" fill="#cfeea0"/>
      <path id="Trazado_218176" data-name="Trazado 218176" d="M841.165-352.217a2.494,2.494,0,0,0,.024-.434c-.495-4.358.068-8.335,3.984-11.112a15.227,15.227,0,0,1-2.722,15.4Q841.807-350.291,841.165-352.217Z" transform="translate(-57.883 -46.58)" fill="#1da46e"/>
      <path id="Trazado_218177" data-name="Trazado 218177" d="M788.075-273.537l-2.644.245C786.21-274.465,787.133-274.1,788.075-273.537Z" transform="translate(-26.74 -96.816)" fill="#99d43c"/>
      <path id="Trazado_218178" data-name="Trazado 218178" d="M826.992-300.866a7.593,7.593,0,0,1-2.618,7.462C824.323-296.215,823.768-299.2,826.992-300.866Z" transform="translate(-48.513 -81.806)" fill="#a2e240"/>
    </g>
  </g>
</svg>
