<svg xmlns="http://www.w3.org/2000/svg" width="90" height="90" viewBox="0 0 90 90">
  <g id="Grupo_877446" data-name="Grupo 877446" transform="translate(9611 4965)">
    <circle id="Elipse_7422" data-name="Elipse 7422" cx="45" cy="45" r="45" transform="translate(-9611 -4965)" fill="#fff"/>
    <g id="Grupo_876066" data-name="Grupo 876066" transform="translate(-9600.271 -4935.854)">
      <path id="Trazado_218179" data-name="Trazado 218179" d="M449.27-352.32c-.227,3.266-2.5,4.781-5.162,5.859a20.127,20.127,0,0,1-7.709,1.408q-18.932-.066-37.864,0a39.993,39.993,0,0,1-8.486-.88l1.662-8.508c.4.034.8.054,1.193.1,6.234.8,12.45,1.753,18.708,2.37a7.374,7.374,0,0,0,.773.17q5.656.649,11.314,1.286c2.224.192,4.443.444,6.671.564A53.787,53.787,0,0,0,449.27-352.32Z" transform="translate(-381.914 376.957)" fill="#cbe5f4"/>
      <path id="Trazado_218180" data-name="Trazado 218180" d="M468.974-397.83q-5.657-.641-11.314-1.286a7.339,7.339,0,0,1-.773-.17,4.61,4.61,0,0,0-1.46-3.065A30.385,30.385,0,0,0,452-405.113c1.663-1.858,3.332-3.71,4.986-5.575q3.762-4.243,7.507-8.5l2.1,1.318c-.48.515-.975,1.018-1.436,1.55a.988.988,0,0,0-.008,1.521,1,1,0,0,0,1.518-.074c.647-.587,1.119-1.374,1.959-1.743l1.273.8c-.387.428-.785.848-1.157,1.289-.42.5-.78,1.034-.177,1.64.571.574,1.162.364,1.67-.073.641-.552,1.226-1.168,1.836-1.757l1.269.855c-.389.429-.792.844-1.161,1.289-.427.515-.731,1.084-.087,1.638a1.14,1.14,0,0,0,1.677-.118c.614-.585,1.217-1.182,1.825-1.774l1.266.845-1.073,1.182c-.521.573-.885,1.2-.2,1.859.651.629,1.216.213,1.732-.275l1.838-1.739,4.665,2.069c.7,1.406.474,2-1.033,2.6a36.322,36.322,0,0,1-4.12.919c-4.261.651-7.262,3.1-9.477,6.655A2.968,2.968,0,0,0,468.974-397.83Z" transform="translate(-427.188 424.274)" fill="#fce172"/>
      <path id="Trazado_218181" data-name="Trazado 218181" d="M423.664-426.974q-3.753,4.251-7.507,8.5c-1.654,1.865-3.323,3.717-4.986,5.574-.443-.206-.892-.4-1.328-.618a67.949,67.949,0,0,0-13.7-5.168l-.012-.117.831-3.077.25-.046a6.949,6.949,0,0,0,7.878-.8c3.147,1.048,5.684-.359,8.154-2.027a31.075,31.075,0,0,0,5.83-5.094Zm-3.556,1.581a1.01,1.01,0,0,0-.892-1.183.972.972,0,0,0-1.176.985A.986.986,0,0,0,419-424.5,1,1,0,0,0,420.108-425.393Z" transform="translate(-386.359 432.059)" fill="#4894ba"/>
      <path id="Trazado_218182" data-name="Trazado 218182" d="M515.058-364.044a2.965,2.965,0,0,1,.217-.892c2.215-3.553,5.216-6,9.478-6.655.683,2.006,2.062,2.762,4.452,2.359,3.921-.66,7.495-2.379,11.19-3.727a4.977,4.977,0,0,1,.234,7.108,53.788,53.788,0,0,1-18.9,2.371C519.5-363.6,517.281-363.852,515.058-364.044Z" transform="translate(-473.272 390.488)" fill="#4895bb"/>
      <path id="Trazado_218183" data-name="Trazado 218183" d="M367.1-384.924a4.419,4.419,0,0,1-.43-2.709,23.568,23.568,0,0,1,1.941-6.987l5.956,1.559.012.117a23.952,23.952,0,0,0-.559,4.083c-.074,1.66.312,3.278.292,4.924Z" transform="translate(-364.792 406.318)" fill="#e93b4f"/>
      <path id="Trazado_218184" data-name="Trazado 218184" d="M362.133-358.6l7.212.987.28.132-1.663,8.508A22.966,22.966,0,0,1,360.408-352c-.638-.389-.71-.728-.413-1.395C360.756-355.107,361.426-356.862,362.133-358.6Z" transform="translate(-359.827 379.994)" fill="#9ecadf"/>
      <path id="Trazado_218185" data-name="Trazado 218185" d="M566.715-378.788c-3.695,1.348-7.268,3.067-11.19,3.727-2.391.4-3.77-.353-4.452-2.359a36.4,36.4,0,0,0,4.12-.919c1.506-.6,1.735-1.19,1.033-2.6a31.619,31.619,0,0,1,8.038.909A4.346,4.346,0,0,1,566.715-378.788Z" transform="translate(-499.592 396.317)" fill="#f76773"/>
      <path id="Trazado_218186" data-name="Trazado 218186" d="M384.691-422.773l-.25.045-5.443-1.8c.929-3,2.492-5.428,5.761-6.268,1.737-.446,2.29-.219,3.241,1.28.379.6.684,1.244,1.023,1.868C386.354-427.111,385.383-425.066,384.691-422.773Z" transform="translate(-373.837 432.908)" fill="#e93b50"/>
      <path id="Trazado_218187" data-name="Trazado 218187" d="M461.011-435.861a31.075,31.075,0,0,1-5.83,5.094c-.382-.543-.813-1.058-1.14-1.632a4.267,4.267,0,0,1,.779-5.125,2,2,0,0,1,1.845-.506A8.642,8.642,0,0,1,461.011-435.861Z" transform="translate(-428.295 438.079)" fill="#fbe275"/>
      <path id="Trazado_218188" data-name="Trazado 218188" d="M400.149-413.673c.692-2.293,1.663-4.338,4.331-4.878a11.131,11.131,0,0,0,3.547,4.081A6.948,6.948,0,0,1,400.149-413.673Z" transform="translate(-389.295 423.808)" fill="#f86673"/>
      <path id="Trazado_218189" data-name="Trazado 218189" d="M375.349-406.962l5.443,1.8q-.415,1.539-.831,3.077l-5.956-1.559A12.828,12.828,0,0,1,375.349-406.962Z" transform="translate(-370.189 415.338)" fill="#136f8d"/>
      <path id="Trazado_218190" data-name="Trazado 218190" d="M542.172-395.455l-1.838,1.739c-.516.489-1.081.9-1.732.275-.685-.662-.321-1.287.2-1.86l1.073-1.181c.37-.317.755-.616,1.1-.954.542-.527,1.132-.8,1.741-.187.556.556.333,1.128-.149,1.642A6.082,6.082,0,0,0,542.172-395.455Z" transform="translate(-490.204 408.768)" fill="#fa6974"/>
      <path id="Trazado_218191" data-name="Trazado 218191" d="M516.181-409.749c-.609.589-1.194,1.205-1.836,1.757-.507.437-1.1.647-1.669.073-.6-.606-.243-1.14.177-1.64.371-.442.77-.861,1.157-1.289.366-.313.75-.609,1.094-.945.515-.5,1.066-.886,1.711-.281.616.578.4,1.181-.113,1.731C516.521-410.152,516.354-409.948,516.181-409.749Z" transform="translate(-471.297 419.302)" fill="#fa6974"/>
      <path id="Trazado_218192" data-name="Trazado 218192" d="M529.136-402.644c-.608.592-1.211,1.189-1.825,1.774a1.14,1.14,0,0,1-1.677.118c-.643-.553-.34-1.123.087-1.638.369-.444.772-.86,1.161-1.289.365-.314.75-.608,1.089-.948.55-.554,1.137-.943,1.8-.251.592.614.3,1.2-.216,1.73C529.408-402.99,529.277-402.812,529.136-402.644Z" transform="translate(-480.731 414.086)" fill="#fa6e76"/>
      <path id="Trazado_218193" data-name="Trazado 218193" d="M503.366-416.877c-.841.369-1.312,1.156-1.959,1.743a1,1,0,0,1-1.518.074.988.988,0,0,1,.008-1.521c.46-.532.956-1.035,1.436-1.55.359-.32.724-.633,1.077-.961.514-.478,1.081-.665,1.629-.126s.383,1.106-.093,1.629C503.739-417.363,503.558-417.115,503.366-416.877Z" transform="translate(-461.927 424.534)" fill="#fa6974"/>
      <path id="Trazado_218194" data-name="Trazado 218194" d="M394.646-379.257l-.28-.132c.02-1.647-.366-3.264-.292-4.925a23.949,23.949,0,0,1,.559-4.083,67.943,67.943,0,0,1,13.7,5.168c.435.22.885.412,1.328.618a30.489,30.489,0,0,1,3.427,2.763,4.61,4.61,0,0,1,1.46,3.065c-6.258-.617-12.473-1.568-18.708-2.37C395.443-379.2,395.043-379.222,394.646-379.257Z" transform="translate(-384.848 401.77)" fill="#f96572"/>
      <path id="Trazado_218195" data-name="Trazado 218195" d="M479.576-416.57a1,1,0,0,1-1.106.892.986.986,0,0,1-.962-1.089.972.972,0,0,1,1.176-.985A1.01,1.01,0,0,1,479.576-416.57Z" transform="translate(-445.827 423.236)" fill="#1f2b2e"/>
    </g>
  </g>
</svg>
