<svg xmlns="http://www.w3.org/2000/svg" xmlns:xlink="http://www.w3.org/1999/xlink" width="400.001" height="412.826" viewBox="0 0 400.001 412.826">
  <defs>
    <clipPath id="clip-path">
      <rect id="Rectángulo_297184" data-name="Rectángulo 297184" width="400" height="399.582" fill="none"/>
    </clipPath>
    <clipPath id="clip-path-3">
      <rect id="Rectángulo_297180" data-name="Rectángulo 297180" width="233.757" height="86.69" fill="none"/>
    </clipPath>
  </defs>
  <g id="Grupo_877438" data-name="Grupo 877438" transform="translate(-915 -10723.572)">
    <path id="Trazado_238864" data-name="Trazado 238864" d="M332.966,19.732A22.029,22.029,0,0,0,313.834.1c-9.875-1-19.575,5.807-22.27,15.359a9,9,0,0,0-7.919-6.036c-3.526-.167-6.163,1.888-7.571,5.124a16.075,16.075,0,0,0-29.494,5.2Z" transform="translate(982.034 10775.128)" fill="#cce8ff"/>
    <path id="Trazado_238866" data-name="Trazado 238866" d="M52.1,114.294a8.184,8.184,0,0,0-5.75-8.59c-3.619-1-7.251,1.3-8.772,4.73a13.608,13.608,0,0,0-12.089-9.373,13.9,13.9,0,0,0-13.068,8.285,6.9,6.9,0,0,0-7.922-2.8c-2.855,1.007-4.84,4.747-4.455,7.751Z" transform="translate(915 10885.206)" fill="#cce8ff"/>
    <path id="Trazado_238867" data-name="Trazado 238867" d="M52.1,114.294a8.184,8.184,0,0,0-5.75-8.59c-3.619-1-7.251,1.3-8.772,4.73a13.608,13.608,0,0,0-12.089-9.373,13.9,13.9,0,0,0-13.068,8.285,6.9,6.9,0,0,0-7.922-2.8c-2.855,1.007-4.84,4.747-4.455,7.751Z" transform="translate(1038.922 10622.522)" fill="#cce8ff"/>
    <g id="Grupo_877397" data-name="Grupo 877397" transform="translate(13.076 -23.475)">
      <ellipse id="Elipse_7419" data-name="Elipse 7419" cx="186.774" cy="18.559" rx="186.774" ry="18.559" transform="translate(915.149 11122.754)" fill="#ededed"/>
      <g id="Grupo_877396" data-name="Grupo 877396" transform="translate(901.923 10760.291)">
        <g id="Grupo_877395" data-name="Grupo 877395" clip-path="url(#clip-path)">
          <g id="Grupo_877394" data-name="Grupo 877394">
            <g id="Grupo_877393" data-name="Grupo 877393" clip-path="url(#clip-path)">
              <path id="Trazado_238685" data-name="Trazado 238685" d="M62.844,139.283l4.7-4.52a80.367,80.367,0,0,0-5.856-9.293A80.2,80.2,0,0,0,39.6,104.551l-3.921,2.392,1.482-3.815q-2.1-1.17-4.231-2.1l-6.005,6.12,1.932-7.684A28.306,28.306,0,0,0,15.64,98.08,17.71,17.71,0,0,0,5.113,103.8a19.345,19.345,0,0,0-4.675,9.289,22.913,22.913,0,0,0-.428,5.2,29.133,29.133,0,0,0,.713,5.511c1.67,7.484,6.169,15.532,12.589,23.071l7.374-2.5L17.1,151.045c1.579,1.61,3.243,3.2,4.982,4.723l3.216-3.135-.813,5.177q1.044.859,2.117,1.69c12.888,9.941,24.705,13.521,33.332,14.579s14.047-.379,14.047-.379,4.923-14.744-4.559-35.176Z" transform="translate(0 -5.569)" fill="#ea3584"/>
              <rect id="Rectángulo_297178" data-name="Rectángulo 297178" width="1.06" height="73.994" transform="translate(15.312 112.296) rotate(-46.947)" fill="#fff"/>
              <path id="Trazado_238686" data-name="Trazado 238686" d="M35.135,136.035c-2.821-4.357-5.275-15.288-5.379-15.752l1.035-.23c.025.111,2.518,11.208,5.234,15.406Z" transform="translate(-1.694 -6.836)" fill="#fff"/>
              <path id="Trazado_238687" data-name="Trazado 238687" d="M31.079,145.556l-.4-.981c4.229-1.725,12.39-.6,12.735-.549l-.147,1.049c-.083-.011-8.223-1.135-12.187.481" transform="translate(-1.747 -8.178)" fill="#fff"/>
              <path id="Trazado_238688" data-name="Trazado 238688" d="M57.864,157.114c-2.416-5.6-1.01-14.334-.95-14.7l1.046.173c-.015.088-1.415,8.8.877,14.111Z" transform="translate(-3.215 -8.109)" fill="#fff"/>
              <path id="Trazado_238689" data-name="Trazado 238689" d="M102.127,192.893S90.65,161,92.085,130.083,84.433,75.951,69.609,77.756,41.874,135.509,98.3,196.24Z" transform="translate(-3.24 -4.422)" fill="#ffd03b"/>
              <path id="Trazado_238690" data-name="Trazado 238690" d="M98.284,194.333l1.153-.725c-.209-.331-20.834-33.569-21.633-70.234l-1.363.029c.807,37.052,21.63,70.6,21.842,70.93" transform="translate(-4.353 -7.025)" fill="#fff"/>
              <path id="Trazado_238691" data-name="Trazado 238691" d="M97.563,201.52s-20.577-10.726-41.682-12.6-36.017-10.182-33.427-20.073,41.737-13.489,77.731,30.39Z" transform="translate(-1.262 -9.255)" fill="#e2b127"/>
              <path id="Trazado_238692" data-name="Trazado 238692" d="M98.234,199.773l.872-1.046c-.207-.174-21.089-17.431-46.207-21.4l-.212,1.345c24.737,3.913,45.34,20.932,45.547,21.1" transform="translate(-3 -10.097)" fill="#fff"/>
              <path id="Trazado_238693" data-name="Trazado 238693" d="M356.764,139.283l-4.7-4.52a83.1,83.1,0,0,1,27.943-30.212l3.921,2.392-1.482-3.815q2.1-1.17,4.231-2.1l6.005,6.12-1.932-7.684a28.307,28.307,0,0,1,13.213-1.382A17.71,17.71,0,0,1,414.5,103.8a19.345,19.345,0,0,1,4.675,9.289,22.909,22.909,0,0,1,.428,5.2,29.13,29.13,0,0,1-.713,5.511c-1.67,7.484-6.169,15.532-12.589,23.071l-7.374-2.5,3.586,6.667c-1.579,1.61-3.243,3.2-4.982,4.723l-3.216-3.135.813,5.177q-1.044.859-2.117,1.69c-12.888,9.941-24.705,13.521-33.332,14.579s-14.047-.379-14.047-.379-4.923-14.744,4.559-35.176Z" transform="translate(-19.608 -5.569)" fill="#ea3584"/>
              <rect id="Rectángulo_297179" data-name="Rectángulo 297179" width="73.993" height="1.06" transform="translate(329.897 162.036) rotate(-43.054)" fill="#fff"/>
              <path id="Trazado_238694" data-name="Trazado 238694" d="M388.639,136.035c2.821-4.357,5.276-15.288,5.379-15.752l-1.035-.23c-.025.111-2.518,11.208-5.234,15.406Z" transform="translate(-22.08 -6.836)" fill="#fff"/>
              <path id="Trazado_238695" data-name="Trazado 238695" d="M392.305,145.556l.4-.981c-4.229-1.725-12.39-.6-12.735-.549l.148,1.049c.082-.011,8.223-1.135,12.187.481" transform="translate(-21.637 -8.178)" fill="#fff"/>
              <path id="Trazado_238696" data-name="Trazado 238696" d="M366.145,157.114c2.416-5.6,1.01-14.334.95-14.7l-1.046.173c.015.088,1.415,8.8-.877,14.111Z" transform="translate(-20.794 -8.109)" fill="#fff"/>
              <path id="Trazado_238697" data-name="Trazado 238697" d="M319.294,192.893S330.771,161,329.336,130.083s7.652-54.132,22.476-52.327,27.735,57.753-28.692,118.484Z" transform="translate(-18.182 -4.422)" fill="#ffd03b"/>
              <path id="Trazado_238698" data-name="Trazado 238698" d="M324.48,194.333l-1.153-.725c.208-.331,20.833-33.569,21.632-70.234l1.363.029c-.806,37.052-21.63,70.6-21.841,70.93" transform="translate(-18.411 -7.025)" fill="#fff"/>
              <path id="Trazado_238699" data-name="Trazado 238699" d="M321.879,201.52s20.577-10.726,41.682-12.6,36.017-10.182,33.427-20.073-41.737-13.489-77.732,30.39Z" transform="translate(-18.179 -9.255)" fill="#e2b127"/>
              <path id="Trazado_238700" data-name="Trazado 238700" d="M323.116,199.773l-.873-1.046c.208-.174,21.09-17.431,46.208-21.4l.212,1.345c-24.737,3.913-45.34,20.932-45.547,21.1" transform="translate(-18.35 -10.097)" fill="#fff"/>
              <path id="Trazado_238701" data-name="Trazado 238701" d="M225.368,395.849l12.309-51.9H183.184l13.3,52.251h.171c.828,1.328,6.915,2.36,14.313,2.36s13.484-1.032,14.313-2.36h.008l0-.016a.575.575,0,0,0,.092-.293c0-.015-.011-.029-.012-.043" transform="translate(-10.431 -19.586)" fill="#ff9a5c"/>
              <path id="Trazado_238702" data-name="Trazado 238702" d="M183.185,343.951l13.3,52.251h.17c.829,1.328,6.916,2.36,14.314,2.36,1.111,0,2.187-.025,3.226-.07l-10.5-54.541Z" transform="translate(-10.431 -19.586)" fill="#e87c3c"/>
              <path id="Trazado_238703" data-name="Trazado 238703" d="M237.678,343.8c0,2.907-12.2,5.263-27.246,5.263s-27.247-2.356-27.247-5.263,12.2-5.263,27.247-5.263,27.246,2.357,27.246,5.263" transform="translate(-10.431 -19.278)" fill="#753519"/>
              <path id="Trazado_238704" data-name="Trazado 238704" d="M326.8,139.331A122.1,122.1,0,1,1,204.7,17.23a122.1,122.1,0,0,1,122.1,122.1" transform="translate(-4.704 -0.981)" fill="#a2a7c5"/>
              <path id="Trazado_238705" data-name="Trazado 238705" d="M229.266,225.035a109.157,109.157,0,0,1-54.025-204A122.113,122.113,0,1,0,322.053,173.379a109.069,109.069,0,0,1-92.786,51.656" transform="translate(-4.704 -1.198)" fill="#81859d"/>
              <path id="Trazado_238706" data-name="Trazado 238706" d="M232.192,50.246c-4.861-1.508-8.379-1.981-11.229-3.588s-5.7-2.794-7.876-2.7-6.7-1.1-9.385,0-5.52,6.619-9.631,7.629-14.433-1.169-17.316-3.013-3.7-5.531-2.873-7.374a15.546,15.546,0,0,0,1-6.337c-.168-1.2,4.19-3.569,5.7-5.152s2.935-6.741-.635-9.32a121.558,121.558,0,0,0-46.395,21.455,7.489,7.489,0,0,0,1.109,2.874c1.006,1.676-.606,2.681-.555,3.184s.95.445.166,1.4.013.783-.72,1.453a21.283,21.283,0,0,1-1.907,1.676c-.5.336-.336,1.341-1.341,2.514s-2.849,2.178-2.849,4.022-2.849,4.357-3.185,5.363-3.184,4.86-3.352,7.374a44.113,44.113,0,0,0,0,6.7,15.776,15.776,0,0,1-.125,5.028,39.135,39.135,0,0,0-.88,6.871c-.168,3.352,1.173,4.86,4.357,5.866s9.209,3.854,10.722,6.033,2.351,4.861,3.524,5.2,2.178,3.855,6.033,6.536,11.061,3.021,14.246,6.454,9.05,11.8,10.558,16.416,4.022,6.315,6.7,8.565,6.034,4.765,8.547,4.932,3.539-.886,3.446-1.783-3.278-3.58-3.781-4.249-1.509-5.2-3.017-8.38-1.676-3.315-1.173-4.842,1.508-4.874,3.017-5.714,2.681-.227,3.686-1.707,1.361-2.313,1.267-3.238-1.6-1.5-3.11-1.63-2.012-1.473-4.022-1.808-4.861-1.173-5.531-2.346a3.164,3.164,0,0,0-3.184-1.341c-1.006.168-4.022.671-6.034-1.34s-2.178-5.866-2.514-7.877-.671-2.681-.167-4.19.5-2.691,2.849-3.775,6.2-1.932,8.547,0,7.039.423,8.044-.75,3.854-4.693,6.2-4.86,6.2,0,7.709-1.341,7.207-4.167,8.212-6.441,4.861-8.869,4.861-11.018,7.038-6.339,9.05-5.669,4.693-2.514,5.7-2.514,4.022.5,5.7-1.508,3.017-3.362,4.358-5.284,2.346-4.94-2.514-6.448" transform="translate(-6.827 -1.161)" fill="#dbdde8"/>
              <path id="Trazado_238707" data-name="Trazado 238707" d="M226.6,215.85a88.829,88.829,0,0,0-10.453-5.559c-4.8-2.022-8.339-9.175-9.6-10.653s-2.274-14.364,0-16.638,4.564-6.065,6.451-9.1,2.646-5.054,1.888-6.318-.758-8.438,0-9.652,4.548-3.487,6.317-3.235,7.328-1.3,9.6-.02,10.866,5.825,14.656,6.081,7.58,3.541,10.613,1.772,7.482.253,10.059,4.043,5.608,7.647,9.9,10.141,3.922,4.769,6.384,5.274,7.958,2.006,10.937,4.044,2,4.548-.457,7.58-5.518,7.834-7.527,10.866-1.277,7.581,0,8.845.266,6.569-1.5,8.086-5.559,4.043-7.076,6.823-1.37,4.841-4.855,6.085-11.318,4.781-16.119,5.918-8.844,1.406-12.13,4.178-3.748,10.3-6.839,11.589-12.365,7.095-15.9,6.719-3.533-1.083-1.514-3.635,7.129-7.047,10.007-11.144-.913-8.055,1.615-9.713,2.969-6.585,3.758-8.039.577-9.523-8.215-14.34" transform="translate(-11.684 -8.779)" fill="#dbdde8"/>
              <path id="Trazado_238708" data-name="Trazado 238708" d="M303.758,96.76c.505,1.03,3.2,2.21,5.223,3.22s3.92-.543,4.74-3.22,4.357-3.182,6.21-2.171a8.076,8.076,0,0,0,5.223,1.18c1.33-.333,3.911-1.324,3.977-1.35a122.445,122.445,0,0,0-35.273-47.67,26.325,26.325,0,0,1-3.576,4.048,12.641,12.641,0,0,0-3.3,4.709c-.571,1.179-2.256,6.234-1.582,8.423s.393,3.706,2.892,5.559,4.721,2.482,3.61,5.873-.27,7.015-1.449,8.825a6.078,6.078,0,0,0,1.449,7.707c2.763,2.359,6.3,1.853,7.143,2.022s4.212,1.814,4.717,2.844" transform="translate(-16.242 -2.662)" fill="#dbdde8"/>
              <path id="Trazado_238709" data-name="Trazado 238709" d="M216.563,128.961a5.637,5.637,0,0,1-1.684,3.832c-1.685,1.516-3.37,4.212-1.685,4.548s5.223.835,6.065,1.344,5.223,2.868,6.4,2.026,2.022-2.864,3.2-3.032,1.516-3.155,2.527-4.105,4.548-4.318,4.885-7.014.674-6.739,0-7.749-5.391-1.685-5.9-3.033-3.509-2.359-5.8-1.011-3.3,4.38-3.635,6.57-4.549,3.792-4.38,7.624" transform="translate(-12.1 -6.499)" fill="#dbdde8"/>
              <path id="Trazado_238710" data-name="Trazado 238710" d="M240.229,133.481a26.468,26.468,0,0,0-3.38,3.784c-1.392,1.982,2.386.988,3.38,1.187s1.193,1.634,3.181,1.116a11.237,11.237,0,0,0,1.989-.52,15.157,15.157,0,0,1,4.176-.6c1.789-.2,1.436-1.5,2.409-2.639s1.017-2.133,0-3.127-1.614,1.988-3.6,0-1.922-3.7-3.744-2.842-1.35,1.154-2.183,1.9-2.225,1.739-2.225,1.739" transform="translate(-13.47 -7.381)" fill="#dbdde8"/>
              <g id="Grupo_877392" data-name="Grupo 877392" transform="translate(83.122 173.762)" opacity="0.13" style="mix-blend-mode: multiply;isolation: isolate">
                <g id="Grupo_877391" data-name="Grupo 877391">
                  <g id="Grupo_877390" data-name="Grupo 877390" clip-path="url(#clip-path-3)">
                    <path id="Trazado_238711" data-name="Trazado 238711" d="M276.434,198.848c-34.271-.7-67.3,25.3-71.415,52.308-4.112-27.01-37.144-53.007-71.415-52.308-25.732.525-42.275-11.966-45.464-14.594a122.135,122.135,0,0,0,233.757,0c-3.188,2.627-19.732,15.119-45.464,14.594" transform="translate(-88.141 -184.254)" fill="#19614f"/>
                  </g>
                </g>
              </g>
              <path id="Trazado_238712" data-name="Trazado 238712" d="M276.4,210.761c-34.271-.7-67.3,25.3-71.415,52.308-4.112-27.01-37.144-53.007-71.415-52.308-28.745.587-46.038-15.081-46.038-15.081,10.125,76.441,55.118,87.232,86.385,85.019a25.906,25.906,0,0,1,27.731,25.847v30.866h6.675V306.547A25.906,25.906,0,0,1,236.052,280.7c31.267,2.212,76.26-8.578,86.385-85.019,0,0-17.293,15.668-46.038,15.081" transform="translate(-4.984 -11.143)" fill="#ffd03b"/>
              <path id="Trazado_238713" data-name="Trazado 238713" d="M236.4,282.664c26.124,1.878,61.887-5.306,78.866-52.336a73.263,73.263,0,0,1-38.4,9.777c-34.271-.7-67.3,25.3-71.415,52.307C201.333,265.4,168.3,239.4,134.03,240.1a73.273,73.273,0,0,1-38.4-9.776c16.979,47.029,52.742,54.213,78.866,52.335a25.924,25.924,0,0,1,27.613,25.957v30.765a7.027,7.027,0,0,0,6.4.133l.275-.133V308.621A25.924,25.924,0,0,1,236.4,282.664" transform="translate(-5.445 -13.116)" fill="#e2b127"/>
              <path id="Trazado_238714" data-name="Trazado 238714" d="M376.754,35.222A31.934,31.934,0,1,1,344.82,3.288a31.934,31.934,0,0,1,31.934,31.934" transform="translate(-17.817 -0.187)" fill="#ea3584"/>
              <path id="Trazado_238715" data-name="Trazado 238715" d="M342.489,45.837v.013c.021-.006.025-.01,0-.013" transform="translate(-19.502 -2.61)" fill="#fff"/>
              <path id="Trazado_238716" data-name="Trazado 238716" d="M341.528,44.837l-.031,0-.058.008-.05.007-.075.008-.075.008-.09.008-.091.008-.111.008-.11.008-.117.008-.137.008-.125.008-.155.008-.131.008-.177.008-.137.006-.185.007-.153.006-.2,0-.15,0-.235,0-.133,0h-.379c-.261,0-.528,0-.8-.011l-.077,0-.321-.011c-.048,0-.1,0-.145-.007-.087,0-.174-.008-.26-.013l-.155-.009-.249-.017-.159-.013c-.08-.007-.16-.013-.24-.022-.057,0-.111-.011-.167-.017l-.225-.025-.167-.022-.218-.029-.163-.025-.209-.035-.159-.029-.2-.041-.153-.034-.187-.046-.145-.039c-.059-.017-.118-.035-.174-.053l-.136-.043c-.056-.019-.109-.039-.162-.058l-.124-.049c-.051-.022-.1-.044-.146-.066l-.112-.054c-.046-.025-.09-.05-.133-.075s-.065-.038-.1-.058-.081-.058-.119-.087-.054-.039-.077-.059a1.439,1.439,0,0,1-.108-.106c-.017-.019-.037-.036-.053-.054a1.123,1.123,0,0,1-.123-.174,1.087,1.087,0,0,1-.114-.332,1.761,1.761,0,0,1-.015-.228c-.1-2.029,2.961-6.489,3.669-7.834l3.33,1.524L337.091,27.9,327.9,30.61l3.087,1.677L327.5,38.433a8.015,8.015,0,0,0,6.8,12.1l.219,0,6.988.083.068-5.791h0l0,0-.037.007" transform="translate(-18.584 -1.589)" fill="#fff"/>
              <path id="Trazado_238717" data-name="Trazado 238717" d="M341.544,26.852c0-.009.007-.024.011-.037l.009-.028.021-.056.018-.047.029-.073.026-.065.035-.086q.018-.044.04-.091c.011-.027.024-.057.037-.086s.034-.078.052-.12.027-.062.042-.094.039-.088.059-.133l.049-.108c.022-.048.045-.1.069-.149l.051-.11c.027-.058.056-.118.085-.177.016-.034.031-.068.048-.1.031-.065.064-.132.1-.2.016-.035.033-.069.05-.1l.11-.223c.016-.03.03-.06.046-.091l.134-.262c.011-.022.022-.043.034-.066.174-.338.364-.689.565-1.044l.022-.038c.059-.1.119-.207.179-.311.018-.03.036-.059.053-.09.051-.086.1-.172.154-.257l.071-.114.142-.229c.025-.041.053-.082.079-.124l.139-.214.086-.127c.044-.066.09-.132.135-.2.03-.045.061-.088.092-.132.043-.061.088-.124.132-.184l.1-.128c.043-.058.088-.116.132-.173l.1-.122L345,20.7l.1-.116c.043-.05.087-.1.13-.146s.067-.073.1-.108.087-.09.13-.132l.1-.1c.043-.041.087-.079.13-.118l.1-.085c.043-.036.087-.068.13-.1s.065-.05.1-.073.088-.057.131-.083.062-.04.093-.057.091-.045.135-.065c.029-.013.058-.028.087-.04a1.26,1.26,0,0,1,.147-.046c.023-.007.046-.016.07-.022a1.166,1.166,0,0,1,.211-.026,1.086,1.086,0,0,1,.347.055,1.883,1.883,0,0,1,.207.093c1.837.866,4.345,5.658,5.2,6.914l-2.906,2.227,8.852,2.159,1.915-9.387-2.928,1.941-3.792-5.965a8.014,8.014,0,0,0-13.877.33l-.1.192-3.349,6.134,5.084,2.776v-.006" transform="translate(-19.159 -0.773)" fill="#fff"/>
              <path id="Trazado_238718" data-name="Trazado 238718" d="M341.861,27.666l-.011-.007c0,.022,0,.027.011.007" transform="translate(-19.466 -1.575)" fill="#fff"/>
              <path id="Trazado_238719" data-name="Trazado 238719" d="M366.47,39.276l-3.511-6.294L357.9,35.8h0l0,0a1.245,1.245,0,0,1,.093.117l.013.017c.043.059.1.137.163.227.007.011.014.022.022.033.065.093.139.2.219.322l.035.054q.123.184.263.4l.04.061q.143.226.3.479l.039.063q.16.262.327.547l.028.048c.115.2.232.4.348.61l.006.01c.117.209.232.424.346.642l.028.054c.108.208.214.42.316.631.014.028.028.057.042.085.1.207.192.412.282.618.013.032.028.064.042.1q.13.3.24.6l.037.1q.107.294.19.574c.009.03.017.06.026.091.053.187.1.368.129.541,0,.026.009.051.013.076a3.741,3.741,0,0,1,.057.5c0,.018,0,.036,0,.055a2.162,2.162,0,0,1-.032.445l-.007.027a1.249,1.249,0,0,1-.141.38,1.1,1.1,0,0,1-.231.264,1.782,1.782,0,0,1-.194.129c-1.716,1.089-7.1.656-8.618.711l-.335-3.647-6.545,6.34,6.921,6.624-.081-3.512,7.068-.028a8.015,8.015,0,0,0,7.117-11.917" transform="translate(-19.671 -1.878)" fill="#fff"/>
              <path id="Trazado_238720" data-name="Trazado 238720" d="M358.64,35.98l.012-.007c-.016-.015-.023-.017-.012.007" transform="translate(-20.422 -2.048)" fill="#fff"/>
              <path id="Trazado_238721" data-name="Trazado 238721" d="M101.856,31.782A31.934,31.934,0,1,1,69.922,0a31.858,31.858,0,0,1,31.934,31.782" transform="translate(-2.163)" fill="#ea3584"/>
              <path id="Trazado_238722" data-name="Trazado 238722" d="M79.292,53.206h-16.4V41.577H51.264V25.18H62.895V13.55h16.4V25.18h11.63v16.4H79.292ZM65.73,50.371H76.455V38.741h11.63V28.016H76.455V16.387H65.73V28.016H54.1V38.741H65.73Z" transform="translate(-2.919 -0.772)" fill="#fff"/>
              <path id="Trazado_238723" data-name="Trazado 238723" d="M81.022,238.8a31.854,31.854,0,1,1-31.855-31.7,31.779,31.779,0,0,1,31.855,31.7" transform="translate(-0.986 -11.793)" fill="#ea3584"/>
              <rect id="Rectángulo_297181" data-name="Rectángulo 297181" width="12.412" height="1.692" transform="translate(40.746 243.035)" fill="#fff"/>
              <rect id="Rectángulo_297182" data-name="Rectángulo 297182" width="12.412" height="1.692" transform="translate(40.746 240.113)" fill="#fff"/>
              <path id="Trazado_238724" data-name="Trazado 238724" d="M43.321,260.808a2.639,2.639,0,0,0,2.54,1.938h7.115a2.64,2.64,0,0,0,2.54-1.938Z" transform="translate(-2.467 -14.851)" fill="#fff"/>
              <path id="Trazado_238725" data-name="Trazado 238725" d="M48.348,218.062a13.918,13.918,0,0,0-10.316,5.423c1.105,2.037,3.286,4.567,7.532,7.252,7.574,4.789,4.909,13.243,4.909,13.243s-.543-3.676-8.448-4.68a12.4,12.4,0,0,1-5.9-2.088,13.892,13.892,0,0,0,2.588,4.1,10.7,10.7,0,0,1,2.919,7.175v.068a5.991,5.991,0,0,0,.664,2.741H55.723a5.991,5.991,0,0,0,.664-2.741v-.011a10.044,10.044,0,0,1,2.678-6.973,13.908,13.908,0,0,0-10.718-23.512" transform="translate(-2.057 -12.416)" fill="#fff"/>
              <path id="Trazado_238726" data-name="Trazado 238726" d="M32.419,219.679a19.488,19.488,0,0,0,2.161,6.232,16.2,16.2,0,0,0,4.036,4.885,22.091,22.091,0,0,0,2.637,1.83,29.922,29.922,0,0,1,2.819,1.954,19.605,19.605,0,0,1,2.575,2.321,10.718,10.718,0,0,1,1.1,1.372,3.281,3.281,0,0,1,.66,1.634,4.129,4.129,0,0,0-1.172-1.158c-.438-.334-.9-.632-1.362-.936l-1.4-.879-1.425-.852-2.863-1.7a20.126,20.126,0,0,1-2.869-2.069,14.619,14.619,0,0,1-4.045-5.8,13.727,13.727,0,0,1-.848-6.835" transform="translate(-1.839 -12.509)" fill="#fff"/>
              <path id="Trazado_238727" data-name="Trazado 238727" d="M397.428,238.711a31.934,31.934,0,1,1-31.934-31.782,31.857,31.857,0,0,1,31.934,31.782" transform="translate(-18.994 -11.783)" fill="#ea3584"/>
              <path id="Trazado_238728" data-name="Trazado 238728" d="M366.2,262.48l-.831-.6a62.822,62.822,0,0,1-9.524-8.961c-6.322-7.3-9.746-14.866-9.9-21.867l-.016-.748,11.123-7.945h18.3l11.124,7.945-.017.748c-.156,7-3.579,14.563-9.9,21.867a62.754,62.754,0,0,1-9.525,8.961Zm-17.4-30.754c.764,13.154,13.93,24.459,17.4,27.219,3.47-2.76,16.636-14.066,17.4-27.219l-9.155-6.54H357.955Z" transform="translate(-19.698 -12.662)" fill="#fff"/>
              <path id="Trazado_238729" data-name="Trazado 238729" d="M366.582,255.015c-4.367-3.834-12.5-12.076-13.918-21.349l6.732-4.808h14.372l6.732,4.808c-1.423,9.273-9.55,17.514-13.918,21.349" transform="translate(-20.082 -13.032)" fill="#fff"/>
              <path id="Trazado_238730" data-name="Trazado 238730" d="M318.579,407.148a19.423,19.423,0,0,1,3.654,5.476c1.42,3.266,2.894,7.825,4.039,8.946s3.3.219,3.664-1.638,1.862-15.941,1.383-19.736-.785-4.966-1.294-5.175a94.37,94.37,0,0,0-9.912-.2c-1.929.108-5.972,7.112-1.534,12.326" transform="translate(-18.027 -22.48)" fill="#ffd03b"/>
              <path id="Trazado_238731" data-name="Trazado 238731" d="M255.986,317.474s6.716,21.157,6.129,22.051c-1.459,2.221-13.144,14.718-13.144,14.718l5.744,3.489s17.154-13.55,16.394-20.514L262.9,315.55Z" transform="translate(-14.177 -17.968)" fill="#ff9a5c"/>
              <path id="Trazado_238732" data-name="Trazado 238732" d="M285.984,360.227s-29.534-20.059-38.566-17.335-9.155,8.342-7.631,11.879,29.753,44.748,29.753,44.748l9.341-1.423-11.53-20.938a2.631,2.631,0,0,1,3.71-2.826l2.89,1.354,15.894-5.06Z" transform="translate(-13.612 -19.511)" fill="#0e1a34"/>
              <path id="Trazado_238733" data-name="Trazado 238733" d="M303.06,268.474A13.548,13.548,0,0,0,294.3,260.2a10.012,10.012,0,0,0-18.212-5.778,13.782,13.782,0,0,0-3.437.3,13.851,13.851,0,1,0-9.3,20.166c3.113,5.732,9.377,10.061,15.718,8.107,3.534,4.556,10.245,5.02,15.943,2.919a13.585,13.585,0,0,0,8.044-17.447" transform="translate(-14.044 -14.093)" fill="#753519"/>
              <path id="Trazado_238734" data-name="Trazado 238734" d="M314.518,350.463s3.146,17.826-7.69,23.767S271.6,388.971,271.6,388.971l43.555,2.749-2,13.4s-63.306-1.176-69.947-9.913,35.361-38.441,35.361-38.441Z" transform="translate(-13.809 -19.956)" fill="#0e1a34"/>
              <path id="Trazado_238735" data-name="Trazado 238735" d="M273.3,281.627s-11.139.511-14.318,10.046c-4.218,12.657.17,27.748,13.722,41.611,3.052,3.122,6.8,15.191,6.723,19.557,0,0,31.7-.471,35.941-6.3,0,0-10.337-56.821-42.068-64.916" transform="translate(-14.659 -16.037)" fill="#ffeeb0"/>
              <path id="Trazado_238736" data-name="Trazado 238736" d="M261.089,288.215s-8.273,7.369-7.561,31.243c0,0,7.4-1.035,8.1-4.53Z" transform="translate(-14.434 -16.412)" fill="#ffeeb0"/>
              <path id="Trazado_238737" data-name="Trazado 238737" d="M296.966,312.423l-12.116,1.632s6.293,11.593,6.759,13.224-27.729,28.428-27.729,28.428-2.7,2.272-3.146,2.7v0a7.247,7.247,0,0,0-1.289,1.554,10.685,10.685,0,0,0-1.547,3.647c-.222,1.105.387,1.547.884,1.547s1.161-.884,1.161-.884a3.6,3.6,0,0,0,0,1.6c.221.608,1.852-.388,2.265-1.382,0,0,.008,2.158.473,2.211s1.295-.554,1.461-1.99a13.665,13.665,0,0,0,4-2.873l.6-1.683c4.825-3.615,27.734-20.911,31.483-26.119,4.194-5.825-3.264-21.613-3.264-21.613" transform="translate(-14.683 -17.79)" fill="#ff9a5c"/>
              <path id="Trazado_238738" data-name="Trazado 238738" d="M252.906,272.121a17.545,17.545,0,0,1-.77-9.365c1.124-4.57,7.55-6.087,12.3-2.129a19.013,19.013,0,0,1,5.4,6.642,1.965,1.965,0,0,1,2.34-1c2.354.391,1.635,5.944-1.436,6.464a10.425,10.425,0,0,1-1.024,3.843c1.606,3.469,1.326,4.723,1.326,4.723-1.115,4.242-2.691,8.653-5.309,8.245s-1.083-3.387-.909-4.763a1.23,1.23,0,0,0-.933-1.541c-6.375,1.979-10.98-11.119-10.98-11.119" transform="translate(-14.337 -14.711)" fill="#ff9a5c"/>
              <path id="Trazado_238739" data-name="Trazado 238739" d="M252.768,258.424s9.7,8.272,13.3,6.252c0,0-6.18-15.1-13.3-6.252" transform="translate(-14.393 -14.557)" fill="#753519"/>
              <path id="Trazado_238740" data-name="Trazado 238740" d="M275.5,364.349s-21.258,11.962-23.681,14.748" transform="translate(-14.339 -20.747)" fill="none" stroke="#fff" stroke-miterlimit="10" stroke-width="0.96"/>
              <path id="Trazado_238741" data-name="Trazado 238741" d="M274.258,281.627s19.115,4.273,26.455,26.642a19.1,19.1,0,0,1-18.176,4.894s-5.127-19.635-8.279-31.536" transform="translate(-15.617 -16.037)" fill="#ffeeb0"/>
              <path id="Trazado_238742" data-name="Trazado 238742" d="M253.65,257.271s-1.9,12.6-5.945,13.436c0,0-5.232-15.457,5.945-13.436" transform="translate(-14.035 -14.639)" fill="#753519"/>
              <path id="Trazado_238743" data-name="Trazado 238743" d="M131.389,196.987c-8.865,9.695-22.872.593-16.406-10.842a6.808,6.808,0,0,1,.524-.874c8-10.207,5.827,1.06,14.362-7.8s28.819,1.485,19.8,12.992-15.861,3.881-15.861,3.881Z" transform="translate(-6.453 -9.916)" fill="#0e1a34"/>
              <path id="Trazado_238744" data-name="Trazado 238744" d="M155.246,303.271l-.253-5.1,40.088-.77.172,3.464Z" transform="translate(-8.826 -16.935)" fill="#ea3584"/>
              <path id="Trazado_238745" data-name="Trazado 238745" d="M194.074,300.345l-.137-2.767,7.049-4.482.545,11.015Z" transform="translate(-11.043 -16.69)" fill="#ea3584"/>
              <path id="Trazado_238746" data-name="Trazado 238746" d="M201.844,304.114c-.518.025-1.059-2.419-1.21-5.461s.147-5.527.665-5.554,1.06,2.42,1.21,5.461-.147,5.528-.665,5.554" transform="translate(-11.422 -16.69)" fill="#c4206e"/>
              <path id="Trazado_238747" data-name="Trazado 238747" d="M142.937,284.738c-3.98-6.239-2.783-14.6,2.664-18.636s13.115-2.244,17.095,4l-1.647,1.22c-3.451-5.408-9.952-7.078-14.491-3.715s-5.424,10.5-1.974,15.913Z" transform="translate(-8.005 -15.03)" fill="#c4206e"/>
              <path id="Trazado_238748" data-name="Trazado 238748" d="M164.44,312.157a.568.568,0,0,0,.074-.06.641.641,0,0,0,.143-.292l18.655-30.4-18.127-16.42-28.411,21.563a.639.639,0,0,0-.277.172.5.5,0,0,0-.053.079l-.06.045.02.017c-.76,1.6,4.451,8.146,11.942,14.931s14.516,11.325,16.037,10.411l.019.017Z" transform="translate(-7.763 -15.089)" fill="#ea3584"/>
              <path id="Trazado_238749" data-name="Trazado 238749" d="M184.986,281.48c-.772.853-5.46-2.135-10.471-6.673s-8.447-8.909-7.675-9.762,5.461,2.135,10.472,6.673,8.446,8.909,7.674,9.762" transform="translate(-9.494 -15.084)" fill="#c4206e"/>
              <path id="Trazado_238750" data-name="Trazado 238750" d="M164.513,313.436a.641.641,0,0,0,.143-.292l12.548-20.45a31.471,31.471,0,0,1-39.14-2.473c-.606-.549-1.178-1.122-1.732-1.707-.1,2.017,4.935,8.208,12.012,14.618,7.492,6.785,14.516,11.325,16.037,10.411l.019.017.04-.064a.568.568,0,0,0,.074-.06" transform="translate(-7.763 -16.429)" fill="#c4206e"/>
              <path id="Trazado_238751" data-name="Trazado 238751" d="M161.045,276.617l4.7-3.735a.962.962,0,0,0,.048-1.513,1.43,1.43,0,0,0-1.782-.058l-4.4,3.5a1.154,1.154,0,0,0,1.436,1.807" transform="translate(-9.064 -15.433)" fill="#fff"/>
              <path id="Trazado_238752" data-name="Trazado 238752" d="M153.909,278.966l-12.194,9.693a1.2,1.2,0,0,0-.342,1.5,1.156,1.156,0,0,0,1.731.347l12.242-9.731a1.154,1.154,0,0,0-1.436-1.807" transform="translate(-8.042 -15.871)" fill="#fff"/>
              <path id="Trazado_238753" data-name="Trazado 238753" d="M130.859,396.211a13.411,13.411,0,0,0,3.033,3.4c1.941,1.519,4.738,3.3,5.291,4.261s-.426,2.245-1.734,2.169-11-1.523-13.459-2.5-3.19-1.388-3.241-1.765a65.117,65.117,0,0,1,1.589-6.674c.408-1.274,5.8-2.765,8.522,1.114" transform="translate(-6.876 -22.42)" fill="#6826cc"/>
              <path id="Trazado_238754" data-name="Trazado 238754" d="M84.979,382.787a13.433,13.433,0,0,0,2.172,4c1.54,1.924,3.854,4.3,4.171,5.361s-.93,2.088-2.185,1.713-10.359-4.006-12.527-5.525-2.786-2.083-2.749-2.462a65.033,65.033,0,0,1,3.079-6.131c.688-1.146,6.28-1.359,8.039,3.04" transform="translate(-4.206 -21.584)" fill="#6826cc"/>
              <path id="Trazado_238755" data-name="Trazado 238755" d="M100.578,286s-3.314,15.033,1.168,22.215,22.562,34.007,23.6,38.383-5.546,42.187-5.546,42.187l10.916.568s13.849-42.9,13.179-47.571c-2.343-16.332-11.4-41.538-8.862-56.539Z" transform="translate(-5.66 -16.242)" fill="#0e1a34"/>
              <path id="Trazado_238756" data-name="Trazado 238756" d="M117.543,210.8s6.138.605,7.622,1.838c11.5,9.551,13.408,39.629,11.289,71.971l-37.671-2.825s4.447-58.3,18.76-70.984" transform="translate(-5.625 -12.004)" fill="#6826cc"/>
              <path id="Trazado_238757" data-name="Trazado 238757" d="M101.814,311.9s3.255,15.844-4.731,30.367S76.1,376.308,76.1,376.308l9.318,1.916s26.311-29.283,31.753-42.565Z" transform="translate(-4.334 -17.761)" fill="#0e1a34"/>
              <path id="Trazado_238758" data-name="Trazado 238758" d="M137,195.248c-.031.523-1.081,7.053-4.084,10.342s-5.536,1.476-6.394,1.865-1.271,2.859-1.192,4.607-2.638,3.621-5.345,1.818-1.714-10.779-1.714-10.779a10.788,10.788,0,0,1-.689-6.973s-1.489-3.259-.634-5.225,2.277-1.5,3.04-.138c0,0,3.042-6.267,7.983-5.44s9.428,3.25,9.03,9.922" transform="translate(-6.644 -10.549)" fill="#ff9a5c"/>
              <path id="Trazado_238759" data-name="Trazado 238759" d="M138.83,266.638s-25.305-1.683-34.83-5.724-8.883-8.588-7.971-11.9,4.077-10.509,4.077-10.509l9.469,5.377-.016,1.987-1.144,3.588s3.066,1.52,7.657,3.473,23.1,8.2,23.1,8.2,4.663,3.089-.339,5.516" transform="translate(-5.441 -13.581)" fill="#ff9a5c"/>
              <path id="Trazado_238760" data-name="Trazado 238760" d="M142.466,267.2a16.046,16.046,0,0,0,5.031,2.866c.37,1.659,1.414,2.268,1.951,2.147s.282-2.642.282-2.642c.605,1.111,2.634,2.074,2.818,1.336a4.235,4.235,0,0,0-.2-1.873s.884.952,1.466.89,1.237-.652.843-1.916a12.562,12.562,0,0,0-2.256-4.073c-.884-.953-1.444-1.938-3.164-2.149s-2.275.108-4.232.118a36.97,36.97,0,0,0-4.844.508Z" transform="translate(-7.981 -14.903)" fill="#ff9a5c"/>
              <path id="Trazado_238761" data-name="Trazado 238761" d="M142.86,263.028l-.109-1.042s4.568-1.926,5.54-1.695,1.994,1.457,2.563,1.9-7.994.839-7.994.839" transform="translate(-8.129 -14.821)" fill="#ff9a5c"/>
              <path id="Trazado_238762" data-name="Trazado 238762" d="M116.689,210.306c-2.2-.088-14.118,2.526-19.47,27.823L111.9,242.1s2.089-16.159,5.175-31.452c.036-.179-.184-.334-.383-.341" transform="translate(-5.536 -11.975)" fill="#6826cc"/>
              <path id="Trazado_238763" data-name="Trazado 238763" d="M132.748,184.88a7.613,7.613,0,1,1-4.449-9.8,7.614,7.614,0,0,1,4.449,9.8" transform="translate(-6.72 -9.942)" fill="#0e1a34"/>
              <path id="Trazado_238764" data-name="Trazado 238764" d="M146.431,189.5a7.613,7.613,0,1,1-4.45-9.8,7.614,7.614,0,0,1,4.45,9.8" transform="translate(-7.499 -10.204)" fill="#0e1a34"/>
              <path id="Trazado_238765" data-name="Trazado 238765" d="M107.239,312.3s11.1,24.748,13.594,27.474" transform="translate(-6.107 -17.783)" fill="none" stroke="#fff" stroke-miterlimit="10" stroke-width="0.96"/>
              <path id="Trazado_238766" data-name="Trazado 238766" d="M211.757,306.183c1.6,2.178,1.158,3.431.07,4.229s-2.416.84-4.013-1.337-1.77-6.549-1.77-6.549,4.116,1.48,5.713,3.657" transform="translate(-11.733 -17.227)" fill="#108f6e"/>
              <path id="Trazado_238767" data-name="Trazado 238767" d="M209.054,320.785c.275,2.041-.476,2.72-1.5,2.857s-1.924-.319-2.2-2.359,1.2-5.031,1.2-5.031,2.217,2.492,2.492,4.533" transform="translate(-11.692 -18.008)" fill="#108f6e"/>
              <path id="Trazado_238768" data-name="Trazado 238768" d="M213.541,338.732c.274,2.041-.476,2.72-1.5,2.857s-1.924-.319-2.2-2.36,1.2-5.031,1.2-5.031,2.217,2.492,2.492,4.533" transform="translate(-11.947 -19.03)" fill="#108f6e"/>
              <path id="Trazado_238769" data-name="Trazado 238769" d="M220.3,326.643c.426,3.164-.737,4.216-2.319,4.43s-2.983-.494-3.409-3.658,1.865-7.8,1.865-7.8,3.437,3.863,3.863,7.027" transform="translate(-12.216 -18.2)" fill="#108f6e"/>
              <path id="Trazado_238770" data-name="Trazado 238770" d="M194.333,366.617l.027,0a1.348,1.348,0,0,0,1.153-1.633l-2.112-9.419a1.362,1.362,0,0,0-2.658.6l2.112,9.416a1.347,1.347,0,0,0,1.478,1.043" transform="translate(-10.86 -20.186)" fill="#fff"/>
              <path id="Trazado_238771" data-name="Trazado 238771" d="M195.93,372.381l-.027,0a1.349,1.349,0,0,0-1.153,1.634l4.329,19.315a1.363,1.363,0,0,0,2.659-.6l-4.33-19.312a1.348,1.348,0,0,0-1.478-1.044" transform="translate(-11.088 -21.204)" fill="#fff"/>
            </g>
          </g>
        </g>
      </g>
    </g>
  </g>
</svg>
