<svg id="Grupo_877437" data-name="Grupo 877437" xmlns="http://www.w3.org/2000/svg" xmlns:xlink="http://www.w3.org/1999/xlink" width="505" height="474.923" viewBox="0 0 505 474.923">
  <defs>
    <clipPath id="clip-path">
      <rect id="Rectángulo_297198" data-name="Rectángulo 297198" width="505" height="474.923" fill="none"/>
    </clipPath>
    <clipPath id="clip-path-3">
      <rect id="Rectángulo_297185" data-name="Rectángulo 297185" width="127.59" height="130.635" fill="none"/>
    </clipPath>
    <clipPath id="clip-path-4">
      <rect id="Rectángulo_297186" data-name="Rectángulo 297186" width="48.649" height="101.245" fill="none"/>
    </clipPath>
    <clipPath id="clip-path-5">
      <rect id="Rectángulo_297187" data-name="Rectángulo 297187" width="28.092" height="52.407" fill="none"/>
    </clipPath>
    <clipPath id="clip-path-6">
      <rect id="Rectángulo_297188" data-name="Rectángulo 297188" width="235.638" height="134.625" fill="none"/>
    </clipPath>
    <clipPath id="clip-path-7">
      <rect id="Rectángulo_297189" data-name="Rectángulo 297189" width="68.631" height="58.625" fill="none"/>
    </clipPath>
    <clipPath id="clip-path-8">
      <rect id="Rectángulo_297190" data-name="Rectángulo 297190" width="46.1" height="77.843" fill="none"/>
    </clipPath>
    <clipPath id="clip-path-9">
      <rect id="Rectángulo_297191" data-name="Rectángulo 297191" width="52.213" height="50.593" fill="none"/>
    </clipPath>
    <clipPath id="clip-path-10">
      <rect id="Rectángulo_297192" data-name="Rectángulo 297192" width="26.025" height="18.518" fill="none"/>
    </clipPath>
    <clipPath id="clip-path-11">
      <rect id="Rectángulo_297193" data-name="Rectángulo 297193" width="18.137" height="17.188" fill="none"/>
    </clipPath>
    <clipPath id="clip-path-12">
      <rect id="Rectángulo_297194" data-name="Rectángulo 297194" width="7.439" height="3.713" fill="none"/>
    </clipPath>
    <clipPath id="clip-path-13">
      <rect id="Rectángulo_297195" data-name="Rectángulo 297195" width="11.161" height="48.102" fill="none"/>
    </clipPath>
    <clipPath id="clip-path-14">
      <rect id="Rectángulo_297196" data-name="Rectángulo 297196" width="3.517" height="8.636" fill="none"/>
    </clipPath>
  </defs>
  <g id="Grupo_877436" data-name="Grupo 877436" clip-path="url(#clip-path)">
    <g id="Grupo_877435" data-name="Grupo 877435">
      <g id="Grupo_877434" data-name="Grupo 877434" clip-path="url(#clip-path)">
        <path id="Trazado_238772" data-name="Trazado 238772" d="M132.535,358.853A185.985,185.985,0,0,0,51.97,224.583l.6-.876A187.043,187.043,0,0,1,133.588,358.74Z" transform="translate(3.057 13.16)" fill="#ea3584"/>
        <path id="Trazado_238773" data-name="Trazado 238773" d="M62.861,231.17S44.219,201.314,8.779,202.615c0,0,20.273,27.168,54.082,28.554" transform="translate(0.516 11.917)" fill="#ea3584"/>
        <path id="Trazado_238774" data-name="Trazado 238774" d="M81.59,250.177s-.389-29.494-28.629-49.852c0,0-4.256,21.1,28.629,49.852" transform="translate(3.105 11.784)" fill="#ea3584"/>
        <path id="Trazado_238775" data-name="Trazado 238775" d="M91.428,257.737s-31.215,1.592-59.752-24c0,0,27.915-4.7,59.752,24" transform="translate(1.863 13.733)" fill="#ea3584"/>
        <path id="Trazado_238776" data-name="Trazado 238776" d="M100.861,274.8s4.978-23.314-16.733-48.273c0,0-2.845,25.685,16.733,48.273" transform="translate(4.94 13.326)" fill="#ea3584"/>
        <path id="Trazado_238777" data-name="Trazado 238777" d="M112.441,290.427s-25.381.119-47.918-28.857c0,0,24.289-1.745,47.918,28.857" transform="translate(3.796 15.386)" fill="#ea3584"/>
        <path id="Trazado_238778" data-name="Trazado 238778" d="M118.041,308.988s9.7-28.173-4.423-50.826c0,0-10.678,23.081,4.423,50.826" transform="translate(6.468 15.187)" fill="#ea3584"/>
        <path id="Trazado_238779" data-name="Trazado 238779" d="M125.174,323.765s-21.225-4.431-41.864-34.24c0,0,23.878,5.368,41.864,34.24" transform="translate(4.901 17.032)" fill="#ea3584"/>
        <path id="Trazado_238780" data-name="Trazado 238780" d="M156.656,377.525c-14.6,13.765-44.721,22.519-79.255,21.195S13.5,386.358,0,371.517C14.6,357.753,44.721,349,79.256,350.322s63.9,12.361,77.4,27.2" transform="translate(0 20.601)" fill="#ffd03b"/>
        <path id="Trazado_238781" data-name="Trazado 238781" d="M77.233,373.1,55.851,357.382l17.841,15.606c-4.783-.154-9.568-.3-14.352-.4l-.416-.008-.072-.167-.331.16q-5.1-.108-10.19-.192l.056-.1L29.024,362.179l16.237,10.157c-5.954-.086-11.909-.134-17.868-.1,6.644.547,13.291.992,19.941,1.4l.208.13.065-.113q3.867.235,7.735.454l-19.264,9.259L59.742,374.5l-.067-.154c10.372.575,20.751.962,31.125,1.45L70.848,386.469l24.439-10.524c7.537.241,15.071.5,22.609.7L96.751,388.4l25.421-11.534-.055-.11c.326.007.653.018.98.024l9.194.17.249.228.178-.219,6.348.118c1.2,0,2.4.015,3.595.024l-15.213,8.578,18.607-7.893-.326-.665c3.1.024,6.209.042,9.316.012-3.221-.28-6.445-.507-9.669-.728l-.321-.652-.994.56c-1.651-.113-3.3-.224-4.951-.346l-5.334-.311.194-.238-15.185-10.836,11.9,10.894-7.516-.437c-.654-.036-1.31-.066-1.964-.1l-.049-.1-.155.086q-6.752-.359-13.505-.652L87.444,356.886l16.78,17.242q-6.482-.283-12.962-.577c-4.677-.137-9.354-.3-14.029-.45" transform="translate(1.611 20.994)" fill="#ffeeb0"/>
        <path id="Trazado_238782" data-name="Trazado 238782" d="M149.789,380.738c-20.02,1.3-48.812-11.159-74.575-34.195s-41.354-50.259-42.293-70.3c20.02-1.3,48.811,11.158,74.575,34.194s41.354,50.259,42.293,70.3" transform="translate(1.937 16.245)" fill="#ffeeb0"/>
        <path id="Trazado_238783" data-name="Trazado 238783" d="M91.227,327.323l-6.454-25.741,3.8,23.4q-5.381-4.75-10.806-9.455l-.316-.271.052-.175-.357-.089q-3.856-3.331-7.729-6.643l.106-.039-8.476-20.131,6.035,18.177q-6.8-5.792-13.7-11.467,7.153,6.985,14.472,13.788l.077.232.122-.046q2.83,2.646,5.67,5.28l-20.746-5.146,23.883,8.259.048-.161c7.624,7.055,15.374,13.969,23.056,20.96l-22.175-4.5,25.538,7.472c5.653,4.989,11.291,9.994,16.972,14.954l-23.782-4.427,26.939,7.319.028-.12c.248.215.492.431.74.645l6.974,5.992.047.334.277-.055,4.817,4.137c.92.767,1.836,1.54,2.754,2.31l-17.19-3.089,19.367,5.78.173-.72c2.376,2,4.757,3.991,7.17,5.947-2.3-2.269-4.643-4.5-6.986-6.726l.169-.707-1.123-.2q-1.8-1.709-3.594-3.423l-3.912-3.64.3-.06-4.791-18.029,2.22,15.979-5.511-5.128c-.481-.446-.967-.886-1.448-1.33l.023-.106-.174-.032q-4.973-4.581-9.99-9.112l-4.363-26.175,1.938,23.981q-4.812-4.35-9.619-8.708-5.273-4.631-10.522-9.29" transform="translate(3.116 16.952)" fill="#ffd03b"/>
        <path id="Trazado_238784" data-name="Trazado 238784" d="M272.143,31.26H259.908A132.626,132.626,0,0,0,127.283,163.885V422.491H404.769V163.885A132.625,132.625,0,0,0,272.143,31.26" transform="translate(7.488 1.839)" fill="#895cf7"/>
        <path id="Trazado_238785" data-name="Trazado 238785" d="M332.973,321.155c5.667-1.294,9.57,3.6,10.921,8.995s1.122,11.635,3.2,16.59,7.8,8.208,13.126,4.664c4.343-2.891,6.3-9.029,5.683-13.664s-3.15-8.184-5.4-11.792c-3.273-5.25-6.126-11.482-4.728-18.776s8.893-15.191,14.935-13.77c4.051.952,5.856,5.462,6.607,9.917s.868,9.359,3.047,12.893a7.3,7.3,0,0,0,11.282,1.414,11.379,11.379,0,0,0,3.235-9.391c-.374-3.09-1.851-5.593-3.228-8.083-3.08-5.568-5.845-11.986-4.372-19.427s9.036-15.5,15.235-14.145c4.06.886,6.009,5.27,6.735,9.716s.608,9.328,2.171,13.309,5.546,6.89,10,5.012c6.311-2.661,8.221-11.551,11.913-18.023a24.976,24.976,0,0,1,6.054-7.039c10.278-8.255,25.077,2.584,20.309,14.873a24.985,24.985,0,0,1-4.884,7.9c-5.057,5.474-12.956,9.977-13.587,16.8-.446,4.815,3.53,7.736,7.8,8.023s8.885-1.3,13.343-1.947,9.227-.114,11.3,3.489c3.162,5.5-2.238,15.144-8.888,18.794s-13.6,2.951-19.841,1.7c-2.79-.561-5.621-1.214-8.68-.638a11.38,11.38,0,0,0-7.976,5.917,7.3,7.3,0,0,0,4.752,10.33c4.027,1.011,8.737-.358,13.211-.986s9.319-.268,11.45,3.307c3.178,5.33-2.09,14.857-8.622,18.394s-13.334,2.695-19.327,1.159c-4.12-1.056-8.267-2.4-12.872-1.589s-9.867,4.528-11.312,9.541c-1.771,6.146,3.059,10.623,8.408,11.106s11.227-1.617,16.78-1.959,11.4,1.9,11.872,7.7c.311,3.785-1.86,8.14-4.821,11.308a36.007,36.007,0,0,1-10.236,7.184c-18.966,9.683-39.43,12.209-56.348,6.956,0,0-14.853-3.215-24.129-10.007s-16.823-19.983-16.823-19.983c-10.114-14.545-13.88-34.816-10.372-55.821a35.991,35.991,0,0,1,3.76-11.926c2.126-3.779,5.622-7.164,9.325-8.009" transform="translate(18.743 15.673)" fill="#763ce5"/>
        <g id="Grupo_877400" data-name="Grupo 877400" transform="translate(352.128 291.944)" opacity="0.4" style="mix-blend-mode: multiply;isolation: isolate">
          <g id="Grupo_877399" data-name="Grupo 877399">
            <g id="Grupo_877398" data-name="Grupo 877398" clip-path="url(#clip-path-3)">
              <path id="Trazado_238786" data-name="Trazado 238786" d="M376.985,373.328q5.888-8.2,11.836-16.362l-5.654-12.059c-1.947-4.183-3.94-8.344-5.846-12.546l-5.769-12.582c-1.882-4.214-3.8-8.409-5.649-12.639,2.1,4.11,4.129,8.254,6.2,12.38l6.079,12.435c2.043,4.138,4,8.316,6,12.473l5.458,11.415q5.559-7.641,11.113-15.284,6.655-8.991,13.283-18c-1.551-3.613-3.053-7.247-4.582-10.868-1.578-3.783-3.193-7.549-4.739-11.345l-4.651-11.383c-1.509-3.812-3.055-7.608-4.527-11.435,1.736,3.715,3.4,7.462,5.1,11.193l4.974,11.245c1.662,3.747,3.256,7.523,4.887,11.283,1.455,3.4,2.933,6.782,4.373,10.184q4.962-6.72,9.955-13.415l12.144-16.195c4.1-5.363,8.146-10.759,12.281-16.093-3.837,5.552-7.759,11.043-11.637,16.565l-11.775,16.465q-4.847,6.76-9.745,13.484c7.133.368,14.27.681,21.4,1.117l11.334.686c3.777.268,7.554.5,11.328.8-3.786-.039-7.57-.152-11.355-.229l-11.349-.347c-7.4-.222-14.8-.579-22.2-.866q-6.585,9.061-13.172,18.122-5.618,7.592-11.213,15.2l12.369,1.657c4.517.613,9.039,1.189,13.551,1.849l13.539,1.93c4.507.687,9.02,1.333,13.523,2.056-4.538-.45-9.067-.978-13.6-1.465l-13.583-1.591c-4.531-.515-9.05-1.112-13.573-1.673l-13.053-1.641q-6,8.129-12.03,16.225l-12.144,16.194q-2.8,3.661-5.575,7.332l14.89,1.794c5.167.629,10.337,1.226,15.5,1.9l15.49,1.982c5.159.7,10.321,1.367,15.475,2.107-5.185-.469-10.362-1.013-15.544-1.518l-15.529-1.643c-5.178-.533-10.347-1.143-15.519-1.724l-15.516-1.758-.106-.012q-2.91,3.825-5.847,7.63,2.732-3.955,5.511-7.878l-.041-.09-6.714-14.517c-2.225-4.845-4.5-9.668-6.682-14.531l-6.6-14.568c-2.16-4.876-4.358-9.733-6.483-14.624,2.381,4.772,4.688,9.578,7.035,14.366l6.915,14.423c2.321,4.8,4.555,9.642,6.836,14.46l6.548,13.928q2.659-3.767,5.313-7.536Z" transform="translate(-332.564 -275.724)" fill="#36a66c"/>
            </g>
          </g>
        </g>
        <path id="Trazado_238787" data-name="Trazado 238787" d="M372.04,187.8s37.882-24.681,44.338-12.777S372.04,187.8,372.04,187.8" transform="translate(21.886 10.105)" fill="#ffd03b"/>
        <path id="Trazado_238788" data-name="Trazado 238788" d="M363.253,198.607s-.965-42.187,13.989-42.424-13.989,42.424-13.989,42.424" transform="translate(21.368 9.188)" fill="#ffd03b"/>
        <path id="Trazado_238789" data-name="Trazado 238789" d="M353.6,209.863s37.514-28,43.159-15.421c6.286,14.005-43.159,15.421-43.159,15.421" transform="translate(20.801 11.247)" fill="#ffd03b"/>
        <path id="Trazado_238790" data-name="Trazado 238790" d="M347.74,221s-13.86-41.449,3.092-41.134S347.74,221,347.74,221" transform="translate(20.142 10.581)" fill="#ffd03b"/>
        <path id="Trazado_238791" data-name="Trazado 238791" d="M340.745,231.933s32.968-28.862,40.246-15.783-40.246,15.783-40.246,15.783" transform="translate(20.045 12.515)" fill="#ffd03b"/>
        <path id="Trazado_238792" data-name="Trazado 238792" d="M334.317,244.774s-20.082-37.739-2.189-39.484c14.928-1.456,2.189,39.484,2.189,39.484" transform="translate(19.101 12.074)" fill="#ffd03b"/>
        <path id="Trazado_238793" data-name="Trazado 238793" d="M323.717,261.078l-.724-.773c8.907-8.337,14.9-19.352,20.693-30.005,2.225-4.089,4.524-8.318,6.961-12.344a150.393,150.393,0,0,1,58.64-55.238l.492.937A149.337,149.337,0,0,0,351.552,218.5c-2.423,4-4.717,8.223-6.936,12.3-5.833,10.726-11.867,21.818-20.9,30.272" transform="translate(19.001 9.572)" fill="#ffd03b"/>
        <path id="Trazado_238794" data-name="Trazado 238794" d="M389.352,174.116s34.312-38.089,43.289-25.133-43.289,25.133-43.289,25.133" transform="translate(22.904 8.606)" fill="#ffd03b"/>
        <path id="Trazado_238795" data-name="Trazado 238795" d="M175.161,245.682a174.3,174.3,0,0,1-45.344-168.4" transform="translate(7.288 4.546)" fill="none" stroke="#0c351f" stroke-miterlimit="10" stroke-width="1"/>
        <line id="Línea_254" data-name="Línea 254" y1="26.029" x2="14.042" transform="translate(131.333 108.039)" fill="none" stroke="#0c351f" stroke-miterlimit="10" stroke-width="1"/>
        <line id="Línea_255" data-name="Línea 255" x1="16.598" y1="30.178" transform="translate(115.837 117.427)" fill="none" stroke="#0c351f" stroke-miterlimit="10" stroke-width="1"/>
        <line id="Línea_256" data-name="Línea 256" y1="24.133" x2="14.601" transform="translate(134.264 135.23)" fill="none" stroke="#0c351f" stroke-miterlimit="10" stroke-width="1"/>
        <line id="Línea_257" data-name="Línea 257" x1="22.404" y1="29.987" transform="translate(117.295 150.498)" fill="none" stroke="#0c351f" stroke-miterlimit="10" stroke-width="1"/>
        <line id="Línea_258" data-name="Línea 258" x1="11.651" y1="28.263" transform="translate(119.703 90.925)" fill="none" stroke="#0c351f" stroke-miterlimit="10" stroke-width="1"/>
        <line id="Línea_259" data-name="Línea 259" y1="25.727" x2="10.083" transform="translate(143.959 166.449)" fill="none" stroke="#0c351f" stroke-miterlimit="10" stroke-width="1"/>
        <line id="Línea_260" data-name="Línea 260" x1="29.325" y1="24.748" transform="translate(123.175 185.456)" fill="none" stroke="#0c351f" stroke-miterlimit="10" stroke-width="1"/>
        <line id="Línea_261" data-name="Línea 261" y1="28.365" x2="7.56" transform="translate(160.092 194.468)" fill="none" stroke="#0c351f" stroke-miterlimit="10" stroke-width="1"/>
        <line id="Línea_262" data-name="Línea 262" x1="31.338" y1="16.041" transform="translate(139.428 221.285)" fill="none" stroke="#0c351f" stroke-miterlimit="10" stroke-width="1"/>
        <path id="Trazado_238796" data-name="Trazado 238796" d="M129.14,81.213a9.926,9.926,0,1,1,12.147-7.035,9.926,9.926,0,0,1-12.147,7.035" transform="translate(7.163 3.629)" fill="#ea3584"/>
        <path id="Trazado_238797" data-name="Trazado 238797" d="M135.294,112.179a9.926,9.926,0,1,1,12.147-7.035,9.925,9.925,0,0,1-12.147,7.035" transform="translate(7.525 5.451)" fill="#ea3584"/>
        <path id="Trazado_238798" data-name="Trazado 238798" d="M107.112,122.113a9.926,9.926,0,1,1,12.147-7.035,9.926,9.926,0,0,1-12.147,7.035" transform="translate(5.867 6.035)" fill="#ea3584"/>
        <path id="Trazado_238799" data-name="Trazado 238799" d="M108.774,152.278a9.926,9.926,0,1,1,12.147-7.035,9.926,9.926,0,0,1-12.147,7.035" transform="translate(5.965 7.81)" fill="#ea3584"/>
        <path id="Trazado_238800" data-name="Trazado 238800" d="M138.59,137.858a9.926,9.926,0,1,1,12.147-7.035,9.925,9.925,0,0,1-12.147,7.035" transform="translate(7.719 6.962)" fill="#ea3584"/>
        <path id="Trazado_238801" data-name="Trazado 238801" d="M111.048,96.015a9.926,9.926,0,1,1,12.147-7.035,9.925,9.925,0,0,1-12.147,7.035" transform="translate(6.099 4.5)" fill="#ea3584"/>
        <path id="Trazado_238802" data-name="Trazado 238802" d="M143.48,167.343a9.926,9.926,0,1,1,12.147-7.035,9.926,9.926,0,0,1-12.147,7.035" transform="translate(8.007 8.696)" fill="#ea3584"/>
        <path id="Trazado_238803" data-name="Trazado 238803" d="M113.159,186.325a9.926,9.926,0,1,1,12.147-7.035,9.925,9.925,0,0,1-12.147,7.035" transform="translate(6.223 9.813)" fill="#ea3584"/>
        <path id="Trazado_238804" data-name="Trazado 238804" d="M156.333,193.806a9.926,9.926,0,1,1,12.147-7.035,9.926,9.926,0,0,1-12.147,7.035" transform="translate(8.763 10.253)" fill="#ea3584"/>
        <path id="Trazado_238805" data-name="Trazado 238805" d="M129.677,219.132a9.926,9.926,0,1,1,12.147-7.035,9.926,9.926,0,0,1-12.147,7.035" transform="translate(7.195 11.743)" fill="#ea3584"/>
        <path id="Trazado_238806" data-name="Trazado 238806" d="M184.277,138.34c-3.244-5.875-6.925-11.657-12.052-15.988s-11.931-7.081-18.563-6.053c-12.127,1.882-19.043,14.919-21.87,26.861a104.4,104.4,0,0,0,10.051,73.659,159.124,159.124,0,0,0-35.059-48.5c-5.854-5.511-12.432-10.729-20.265-12.545s-17.165.677-21.163,7.653c-2.257,3.939-2.556,8.688-2.386,13.224,1.145,30.436,22.485,53.307,47.354,70.891,15.687,11.091,33.071,19.543,51.037,26.153,11.9,4.377,25.221,16.327,33.5,2.685,14.451-23.816,12.022-63.636,6.907-89.679a166.55,166.55,0,0,0-17.49-48.361" transform="translate(3.702 6.829)" fill="#ffd03b"/>
        <path id="Trazado_238807" data-name="Trazado 238807" d="M173.411,254.982l.3.122,14.333-36.937L173.192,253.29q-.662-5.211-1.4-10.413l.025-.025-.034-.034q-.756-5.346-1.567-10.687c-.055-.367-.116-.733-.174-1.1l13.532-38.48-13.9,36.154c-1.2-7.635-2.518-15.252-3.873-22.861L178.887,164l-13.509,39.471q-.265-1.49-.532-2.98-2.025-10.557-4.172-21.088l9.635-37.754-10.147,35.281c-.543-2.635-1.067-5.275-1.634-7.905l-2.71-12.228.128.025,4.416-25.635-5.087,23.166-.22-.994c-1.234-5.2-2.431-10.417-3.741-15.6l3.54,18.52-.07.32.137.026,1.306,6.834L136.8,141.232l19.866,24.515.672,3.517q1.787,9.35,3.57,18.7l-27.144-29.21,27.544,31.358c.67,3.554,1.347,7.107,1.986,10.666q1.5,7.8,2.9,15.629l-27.268-28.824,27.643,30.926q1.237,6.909,2.458,13.82l1.61,9.362L143.19,214.7l27.786,28.984,0,0,1.815,10.552-.18.426.273.11,1.578,9.174q-.489-4.485-1.054-8.961" transform="translate(7.869 7.717)" fill="#ffeeb0"/>
        <path id="Trazado_238808" data-name="Trazado 238808" d="M160.227,258.263l.2-.057-9.055-29.519,7.484,28.212q-6.177-6.177-12.288-12.413-4.363-4.471-8.691-8.976l-3.754-25.851,2.448,24.5q-6.439-6.7-12.754-13.515c-2.455-2.6-4.864-5.253-7.283-7.891l-2.886-26.816,1.636,25.462q-6.869-7.52-13.633-15.136c-2.525-2.838-5.011-5.711-7.5-8.579l-.744-23.2-.411,21.875c-.726-.839-1.466-1.666-2.192-2.505l-10.749-12.5c3.312,4.391,6.734,8.694,10.156,13,.91,1.119,1.844,2.217,2.759,3.332v.064h.054c2.558,3.114,5.116,6.228,7.714,9.311,1.194,1.409,2.431,2.78,3.639,4.178l-23.179-8.622,24.792,10.475q8.211,9.428,16.678,18.629c.842.893,1.7,1.77,2.544,2.66L95.18,217.294l31.511,8.639c6.244,6.565,12.544,13.077,19.023,19.408,1.054,1.03,2.118,2.05,3.178,3.075l-27.873-6.69,29.544,8.309q4.282,4.115,8.635,8.152l.091.344.216-.061q5.119,4.741,10.346,9.363-4.822-4.777-9.623-9.57" transform="translate(4.709 9.676)" fill="#ffeeb0"/>
        <path id="Trazado_238809" data-name="Trazado 238809" d="M348.485,143.986s-.359-53.923-16.45-52.517,16.45,52.517,16.45,52.517" transform="translate(19.27 5.379)" fill="#fff"/>
        <path id="Trazado_238810" data-name="Trazado 238810" d="M343.812,158.417s42.607-26.786,33.008-41.82-33.008,41.82-33.008,41.82" transform="translate(20.225 6.71)" fill="#fff"/>
        <path id="Trazado_238811" data-name="Trazado 238811" d="M338.685,176.78s3.179-55.737-13.044-53.082c-18.068,2.956,13.044,53.082,13.044,53.082" transform="translate(18.825 7.271)" fill="#fff"/>
        <path id="Trazado_238812" data-name="Trazado 238812" d="M331.862,188.328s50.355-13.473,38.893-30.13-38.893,30.13-38.893,30.13" transform="translate(19.522 9.095)" fill="#fff"/>
        <path id="Trazado_238813" data-name="Trazado 238813" d="M325.1,203.916s7.032-51.783-10.767-50.422S325.1,203.916,325.1,203.916" transform="translate(18.147 9.028)" fill="#fff"/>
        <path id="Trazado_238814" data-name="Trazado 238814" d="M317.1,217.272s50.755-4.843,40.722-23.792c-8.37-15.81-40.722,23.792-40.722,23.792" transform="translate(18.654 11.163)" fill="#fff"/>
        <path id="Trazado_238815" data-name="Trazado 238815" d="M311.918,242.887l-1.044-.178c2.469-14.53,9.534-27.822,16.365-40.675,2.6-4.891,5.286-9.947,7.676-14.992A178.227,178.227,0,0,0,351.2,92.982l1.052-.1a179.269,179.269,0,0,1-16.38,94.62c-2.4,5.068-5.1,10.134-7.7,15.034-6.792,12.78-13.817,25.994-16.256,40.356" transform="translate(18.288 5.464)" fill="#fff"/>
        <path id="Trazado_238816" data-name="Trazado 238816" d="M350.816,117.721s15.329-59.189-3.466-59.6,3.466,59.6,3.466,59.6" transform="translate(19.99 3.419)" fill="#fff"/>
        <path id="Trazado_238817" data-name="Trazado 238817" d="M366.94,20.893c-.781-10.48-9.8-19.738-20.257-20.79S325.956,6.251,323.1,16.365a9.525,9.525,0,0,0-8.385-6.391c-3.733-.177-6.526,2-8.016,5.425a17.021,17.021,0,0,0-31.229,5.506Z" transform="translate(16.205 0)" fill="#cce8ff"/>
        <path id="Trazado_238818" data-name="Trazado 238818" d="M123.684,43.905c1.066-14.3,13.377-26.939,27.648-28.375s28.288,8.392,32.183,22.2A13,13,0,0,1,194.959,29c5.1-.241,8.906,2.728,10.94,7.405a23.229,23.229,0,0,1,42.622,7.513Z" transform="translate(7.276 0.905)" fill="#cce8ff"/>
        <path id="Trazado_238819" data-name="Trazado 238819" d="M455.732,186.775a17.884,17.884,0,0,0-11.847,26.494,17.884,17.884,0,0,0,11.847-26.494" transform="translate(25.97 10.987)" fill="#cce8ff"/>
        <path id="Trazado_238820" data-name="Trazado 238820" d="M477.765,226.588A9.273,9.273,0,0,0,463,223.7a9.273,9.273,0,0,0,14.769,2.883" transform="translate(27.237 13.012)" fill="#cce8ff"/>
        <path id="Trazado_238821" data-name="Trazado 238821" d="M84.061,115.073a8.665,8.665,0,0,0-6.088-9.1c-3.832-1.059-7.678,1.374-9.288,5.008a14.41,14.41,0,0,0-12.8-9.924,14.712,14.712,0,0,0-13.837,8.772,7.3,7.3,0,0,0-8.388-2.968c-3.023,1.066-5.125,5.026-4.718,8.207Z" transform="translate(1.7 5.944)" fill="#cce8ff"/>
        <path id="Trazado_238822" data-name="Trazado 238822" d="M140.2,247.356a33.517,33.517,0,0,1,31.9-46.132,18.1,18.1,0,0,1-3.512-20.362,17.829,17.829,0,0,1,18.259-9.309c-4.812-20.684-3.122-44.379,7.721-62.638a84.289,84.289,0,0,1,49.391-37.757c12.514-3.469,26.389-3.845,38.064,1.842s20.415,18.369,18.877,31.264c14.806,4.128,26.44,18.974,28.712,34.176s-2.2,30.7-8.841,44.556a29.187,29.187,0,0,1,12.975,17.616,31.718,31.718,0,0,1-2.669,22.686c15.606,4.338,23.605,24.257,20.685,40.189s-15.511,28.851-30.161,35.762-31.191,8.623-47.384,9.014c-25.387.612-51.138-1.851-75.008-10.517s-49.446-26.865-59.013-50.39" transform="translate(8.107 4.037)" fill="#0c351f"/>
        <path id="Trazado_238823" data-name="Trazado 238823" d="M217.248,143.357l-14.47,45.633s-34.9,15.574-68.265,38.123c-18.658,12.609-22.761,68.822-20.532,116.478,1.767,37.8,2.487,64.8,2.487,64.8l169.995,4.7V267.938a73.829,73.829,0,0,0-49.4-69.757q-.55-.192-1.108-.382l5.98-46.869Z" transform="translate(6.673 8.433)" fill="#ffeeb0"/>
        <g id="Grupo_877403" data-name="Grupo 877403" transform="translate(166.253 301.154)" opacity="0.7" style="mix-blend-mode: multiply;isolation: isolate">
          <g id="Grupo_877402" data-name="Grupo 877402">
            <g id="Grupo_877401" data-name="Grupo 877401" clip-path="url(#clip-path-4)">
              <path id="Trazado_238824" data-name="Trazado 238824" d="M158.394,335.045l-1.378-50.623s15.727,78.178,48.649,101.245l-45.958-2.521Z" transform="translate(-157.016 -284.422)" fill="#f3d658"/>
            </g>
          </g>
        </g>
        <path id="Trazado_238825" data-name="Trazado 238825" d="M160.687,323.167H113.61c.09,3.311.21,6.6.362,9.848.086,1.835.168,3.636.249,5.418H161.1Z" transform="translate(6.683 19.011)" fill="#ffd03b"/>
        <path id="Trazado_238826" data-name="Trazado 238826" d="M267.322,223.331a73.425,73.425,0,0,0-34.464-25.151q-.55-.191-1.108-.382l5.98-46.869-24.683-7.572-14.47,45.632s-5.309,2.372-13.745,6.589c21.686,20.659,52.749,30.97,82.489,27.753" transform="translate(10.873 8.433)" fill="#ff8e80"/>
        <path id="Trazado_238827" data-name="Trazado 238827" d="M230.987,197.8s-.452,11.1-18.7,6.713c-11.168-2.682-14.47-15.521-14.47-15.521l14.47-45.633,24.683,7.573Z" transform="translate(11.637 8.433)" fill="#ff8e80"/>
        <g id="Grupo_877406" data-name="Grupo 877406" transform="translate(219.948 153.825)" opacity="0.7" style="mix-blend-mode: multiply;isolation: isolate">
          <g id="Grupo_877405" data-name="Grupo 877405">
            <g id="Grupo_877404" data-name="Grupo 877404" clip-path="url(#clip-path-5)">
              <path id="Trazado_238828" data-name="Trazado 238828" d="M234.216,150.151l-15.88-4.872-9.536,7.115s-8.356,39.342,21.605,45.29l5.415-42.44Z" transform="translate(-207.728 -145.279)" fill="#ff8e80"/>
            </g>
          </g>
        </g>
        <path id="Trazado_238829" data-name="Trazado 238829" d="M290.373,134.4s-22.217,73.845-57.866,58.648a38.248,38.248,0,0,1-19.685-49.6l8.352-21.672s25.512,8.75,38.146-7.709c0,0,7.113,22.175,31.052,20.332" transform="translate(12.347 6.71)" fill="#ffaaa4"/>
        <path id="Trazado_238830" data-name="Trazado 238830" d="M260.939,418.6l11.976,5.821a118.078,118.078,0,0,1-31.259-5.821Z" transform="translate(14.216 24.625)" fill="#007d7a"/>
        <path id="Trazado_238831" data-name="Trazado 238831" d="M283.447,199.971a118.311,118.311,0,0,0-54.761,13.344c-.067.033-.149.084-.217.116-.132.067-.25.133-.366.2a118.771,118.771,0,0,0,18.082,217.827h19.282l11.976,5.821q2.976.149,6,.15a118.73,118.73,0,0,0,0-237.46" transform="translate(9.69 11.764)" fill="#007d7a"/>
        <path id="Trazado_238832" data-name="Trazado 238832" d="M363.14,235.38c-2.04-.633-3.543-.325-3.914,1.644-.213,1.131.381,2.582-.532,3.284-1.328,1.022-3.113-1.475-4.687-.9a2.839,2.839,0,0,0-1.228,1.218,20.906,20.906,0,0,1-7.571,6.755,8.005,8.005,0,0,1-4.8,1.132,3.668,3.668,0,0,1-3.243-3.274l5.448-.11c.793-3.785-3.906-6.149-7.653-7.1-2.581-.658-5.4-1.3-7.831-.219-5.92,2.628-5.868,13.492-12.325,14.014a3.985,3.985,0,0,0-2.17.429A2.769,2.769,0,0,0,311.8,254c-.421,2.163-.636,4.614.694,6.371s4.755,1.742,5.275-.4a9.14,9.14,0,0,1,1.085,7.747l-4.2-1.054a5.29,5.29,0,0,1-2.515,6.264,11.068,11.068,0,0,0-2.249,1.12c-1.439,1.206-1.443,3.753-3.145,4.548-1.12.524-2.609.049-3.562.837-1.083.9-.6,2.7.329,3.763s2.21,1.868,2.738,3.171a8.793,8.793,0,0,1-9.7,3.079c-2.85,2.5-1.922,7.955,1.6,9.371L285.676,315.2c-2.173,2.854-4.423,6.71-2.531,9.757.6.958,1.542,1.673,2.058,2.676,1.043,2.021.054,4.448.029,6.723-.055,4.942,5.563,9.038,10.252,7.474-1.246,1.7,1.759,3.655,3.71,2.856s3.274-2.767,5.273-3.437a4.771,4.771,0,0,1,5.974,4.583,15.806,15.806,0,0,0,6.986-.408c-1.413,2.18-.631,5.125.7,7.358s3.168,4.208,3.966,6.68c1.717,5.314-1.831,11.3,0,16.579.48,1.388,1.31,2.632,1.829,4.006a19.256,19.256,0,0,1,.9,4.168q.689,4.933,1.378,9.865a6.139,6.139,0,0,0,.836,2.738c1.613,2.293,5.274,1.34,7.491-.376s4.355-4.087,7.16-4.051c1.265.017,2.74.486,3.657-.386,1.226-1.168.034-3.248.41-4.9.466-2.054,3.039-2.681,5.133-2.906,2.347-2.406-1.882-6.462-.662-9.593,1.067-2.738,5.452-2.724,6.726-5.372,1-2.077-.485-4.414-1.083-6.641-.916-3.405.37-7.1,2.543-9.88s5.147-4.8,8.087-6.746a10.469,10.469,0,0,0,2.843-2.413c1.952-2.7.907-6.426,1.123-9.753l-7.449,1.919a3.267,3.267,0,0,1-2.429-.013,3.445,3.445,0,0,1-1.258-2.31,33.7,33.7,0,0,0-6.96-13.524c-2.261-2.662-5.152-5.661-4.362-9.064l12.235,17.69a5.171,5.171,0,0,0,1.491,1.606c1.373.816,3.183.187,4.414-.829s2.149-2.38,3.428-3.335c2.1-1.571,4.871-1.832,7.361-2.664s5.055-2.792,4.929-5.414a8.38,8.38,0,0,0-10.912.618,39.545,39.545,0,0,1-3.273-11.237c3.854,5.179,11.076,6.178,17.506,6.755,3.3.3,6.982.434,10.039-.578A118.288,118.288,0,0,0,363.14,235.38" transform="translate(16.615 13.829)" fill="#44cc83"/>
        <path id="Trazado_238833" data-name="Trazado 238833" d="M210.252,354.765c1.96,1.279,4.524,2.332,4.992,4.625.2.983-.052,2.028.232,2.99.572,1.933,2.878,2.608,4.642,3.584,3.863,2.139,5.784,6.636,6.655,10.963s.979,8.841,2.509,12.982c1.79,4.847,5.442,8.939,6.6,13.973.371,1.607.492,3.323,1.339,4.738,1.069,1.788,3.078,2.751,4.643,4.127,2.416,2.123,3.748,5.213,5.875,7.625s5.828,4.106,8.518,2.344a23.088,23.088,0,0,1-9.253-23.315,5.91,5.91,0,0,1,.847-2.216c.833-1.174,2.381-1.789,2.939-3.117.789-1.876-.826-4.108-.1-6.011.653-1.717,2.849-2.289,3.9-3.793,1.1-1.561.709-3.662.655-5.568s.684-4.253,2.568-4.547c.844-.131,1.712.21,2.551.051,2.172-.413,2.384-3.521,1.536-5.563s-2.233-4.233-1.405-6.283c1.1-2.717,5.646-3.8,5.125-6.678a3.861,3.861,0,0,0-1.024-1.807c-3.137-3.516-7.983-4.814-12.387-6.492s-9.043-4.4-10.2-8.971a4.529,4.529,0,0,0-1.137-2.633,3.452,3.452,0,0,0-1.833-.556,58.267,58.267,0,0,0-9.922-.142,5.861,5.861,0,0,0-2.928-5.288,17.265,17.265,0,0,0-6-2.021l-7.8-1.594c2.645.541-6.283,13.27-6.833,14.384-2.4,4.866.3,11.345,4.7,14.208" transform="translate(12.039 19.188)" fill="#44cc83"/>
        <path id="Trazado_238834" data-name="Trazado 238834" d="M164.76,313.867c1.951,2.454,6.025,3.691,7.858,1.2a7.856,7.856,0,0,1-2.966-11.005c3.251,1.465,3.71,5.778,4.035,9.329s1.878,7.932,5.439,8.119c1.091.057,2.334-.29,3.178.4,1.1.9.57,2.773,1.363,3.954,1.119,1.663,3.806.851,5.563,1.817,1.5.826,1.968,2.715,2.865,4.176,1.994,3.251,6.942,4.756,10.613,4.191,1.552-.239,3.858.277,3.418-2.042-.512-2.7-4.6-1.095-5.273-1.979a5.789,5.789,0,0,1,1-7.782c-1.187-1.821-5.614-.4-5.322-2.55.241-1.777,4.1-1.44,3.776-3.2a7.653,7.653,0,0,0-9.01,4.28,8.473,8.473,0,0,1,2.554-15.373,16.986,16.986,0,0,1,4.6-.263,19.211,19.211,0,0,1,7.069,1.132c2.2.957,4.11,2.989,4.188,5.388,1.9.413,3.088-2.122,2.892-4.053s-.972-4.019-.013-5.707c1.465-2.575,5.94-2.294,7.043-5.044.5-1.256.074-2.743.6-3.99,1.021-2.426,4.492-2.2,6.844-3.384,2.042-1.023,3.227-3.16,4.729-4.881s3.935-3.157,5.986-2.152a7.157,7.157,0,0,0-2,3.686,6.175,6.175,0,0,0,6.367-6.013l-3.57-.861c-.7-1.858,1.114-3.832,3.048-4.287s3.95.044,5.937.053,4.266-.733,4.94-2.6c1.21-3.355-3.635-6.134-3.617-9.7.007-1.4.782-2.674,1.11-4.036s-.056-3.153-1.408-3.523a4.129,4.129,0,0,1-5.291,2.7,8.554,8.554,0,0,0-.02-5.371c-.709-1.679-2.664-2.942-4.378-2.322-2.485.9-2.433,4.323-2.911,6.923-.833,4.54-4.458,7.973-7.885,11.066a3.5,3.5,0,0,1-1.448.923,2.418,2.418,0,0,1-2.634-2.1,7.024,7.024,0,0,1,.676-3.662c-2.824.352-5.164-2.748-4.942-5.585s2.24-5.216,4.469-6.985,4.772-3.161,6.753-5.2a12.694,12.694,0,0,1,2.708-2.506,24.079,24.079,0,0,1,2.683-1,7.054,7.054,0,0,0,4.232-7.052,2.866,2.866,0,1,1-3.331-4.468,2.473,2.473,0,0,0-3.052-1.4c.552,2.9-1.371,5.843-3.944,7.285s-5.649,1.661-8.6,1.568c-2.318-.073-5.147-.726-5.757-2.964-.266-.975-.022-2.077-.492-2.972-.55-1.049-1.847-1.412-3-1.673l-8.781-1.972c-.412-.093-.826-.185-1.242-.27a118.388,118.388,0,0,0-37.641,83.744" transform="translate(9.692 13.537)" fill="#44cc83"/>
        <path id="Trazado_238835" data-name="Trazado 238835" d="M259.641,223.658c1.459,1.58.149,4.238.942,6.238.559,1.409,2.074,2.248,2.7,3.629,1.347,2.967-2,6.05-2.034,9.309a8.677,8.677,0,0,1-.032,2.038,6.714,6.714,0,0,1-1.375,2.162c-2.944,4.006-.922,9.614,1.181,14.118,2.318-.186,3.9-2.4,4.893-4.5s1.846-4.477,3.816-5.712c2.838-1.78,7.058-.569,9.46-2.9,1.314-1.277,1.728-3.351,3.235-4.392s3.5-.688,5.284-1.04,3.583-2.382,2.453-3.8c-.457-.576-1.247-.8-1.73-1.352a2.186,2.186,0,0,1,.529-3.061,3.322,3.322,0,0,1,3.332-.092,7.377,7.377,0,0,1-.1-4.046c.469-1.285,2-2.28,3.228-1.668a4.882,4.882,0,0,1,.123-7.468c.892-.643,1.992-.957,2.861-1.631s1.453-1.968.822-2.869l3.744-2.088c-1.856-1.65-4.7-1.19-7.135-.728s-5.394.646-6.958-1.282a1.135,1.135,0,0,1-.275-.541c-.211-1.552,3.571-.19,3.721-1.748-1.047-1.128-2.877-1-4.328-.484s-2.864,1.321-4.4,1.274c-1.295-.04-2.561-.7-3.838-.473-1.191.208-2.143,1.142-3.318,1.429-1.637.4-3.264-.518-4.841-1.112s-3.707-.7-4.6.725c-.487.779-.452,1.829-1.04,2.535-1.821,2.185-5.846-.473-8.058,1.782-3.011,3.07-.222,5.63,1.742,7.756" transform="translate(15.093 12.316)" fill="#44cc83"/>
        <path id="Trazado_238836" data-name="Trazado 238836" d="M215.726,232.847c.563.845,1.574,1.428,1.8,2.419s-.427,2.211.226,3.007a1.612,1.612,0,0,0,1.751.354,6.806,6.806,0,0,0,1.619-.984,10.28,10.28,0,0,1,3.745-1.621,1.069,1.069,0,0,0,.66-.3,1.3,1.3,0,0,0,.164-.705c.074-.824.576-1.555.692-2.375s-.487-1.86-1.288-1.654a4.7,4.7,0,0,1-.269-4.339,3.607,3.607,0,0,0,.4-1.049c.1-.845-.638-1.552-1.382-1.965a7.093,7.093,0,0,0-8.338,1.276,7.128,7.128,0,0,1-2.047,1.9c-.343.15-.719.218-1.051.39a1.685,1.685,0,0,0-.922,1.534c.115,2.018,2.711.857,3.715.832a5.085,5.085,0,0,0,.528,3.284" transform="translate(12.441 13.107)" fill="#44cc83"/>
        <path id="Trazado_238837" data-name="Trazado 238837" d="M260.641,209.064c1.261-.563,2.236-1.872,3.617-1.907a4.358,4.358,0,0,1-4.086,5.281,15.594,15.594,0,0,0-2.82-.206c-1.822.3-2.811,2.276-3.335,4.047s-1.013,3.784-2.6,4.739c-.755.456-1.856.868-1.766,1.747l-1.489-.072a3.842,3.842,0,0,1,.6-4.5,14.663,14.663,0,0,0,1.475-1.35,1.4,1.4,0,0,0,.038-1.822,1.55,1.55,0,0,0-.746-.319,4.986,4.986,0,0,0-3.939,1.07c-2.756-2.842,1.133-4.856,3.415-5.731a14.669,14.669,0,0,1,5.473-1.176c2.047.026,4.158,1.095,6.161.2" transform="translate(14.391 12.186)" fill="#44cc83"/>
        <path id="Trazado_238838" data-name="Trazado 238838" d="M251.765,240.728a17.014,17.014,0,0,1,.4,6.253c-1.524.193-2.54-1.484-3.136-2.9-1.286.449-1.536,2.173-1.306,3.515s.7,2.8.076,4.007a3.114,3.114,0,0,1-3.56,1.332,5.7,5.7,0,0,1-3.109-2.552,3.582,3.582,0,0,1-.627-1.532c-.273-2.629,4-4.124,3.589-6.734-.262-1.646-1.932-2.024-2.786-3.2-.942-1.3-.737-2.829-1.628-3.925-1.425-1.751-5.356-2.124-1.074-4.035,2.73-1.218,4.2-.339,5.424,1.716,1.426,2.4,1.072,2.224,3.711,3.52a7.179,7.179,0,0,1,4.026,4.535" transform="translate(13.922 13.554)" fill="#44cc83"/>
        <path id="Trazado_238839" data-name="Trazado 238839" d="M230.7,217.973a2.017,2.017,0,0,0,.635,1.025,1.507,1.507,0,0,0,1.572-.16c.18-.111.391-.242.586-.162a.6.6,0,0,1,.271.32,8.3,8.3,0,0,1,.824,3.168,1.1,1.1,0,0,0-1.134.721l-1.918-.9a2.7,2.7,0,0,0-1.472-.371c-.853.118-1.531,1.033-2.381.887a2.054,2.054,0,0,1-1.028-.677l-.64-.64a.563.563,0,0,1-.167-.241c-.065-.251.223-.449.478-.5s.55-.057.714-.257c.267-.325-.083-.82-.478-.965a11.383,11.383,0,0,0-1.294-.226c-.427-.1-.867-.424-.858-.862s.445-.733.83-.946c.77-.425,2.551-1.973,3.432-1.948,1.114.031,1.62,1.912,2.028,2.728" transform="translate(13.201 12.662)" fill="#44cc83"/>
        <path id="Trazado_238840" data-name="Trazado 238840" d="M241.59,222.405a1.275,1.275,0,0,0,.641.355,11.913,11.913,0,0,0,2.185.456,2.269,2.269,0,0,1,1,.255c.418.271.6.817,1.034,1.065.25.144.552.172.8.309s.443.483.266.709a.689.689,0,0,1-.289.184c-1.012.414-2.221.817-3.144.227-.294-.187-.525-.462-.813-.662a2.988,2.988,0,0,0-3,.093,5.081,5.081,0,0,1-1.537.671,9.069,9.069,0,0,0-1.676.075c-.458.156-.794.561-1.244.743-.557.223-1.2-.141-.973-.743.151-.407,1.2-.6,1.526-.906.895-.842,1.018-2.24,1.3-3.361.205-.82.327-1.63,1.276-1.8,1.728-.3,1.9,1.412,2.65,2.324" transform="translate(13.812 12.945)" fill="#44cc83"/>
        <path id="Trazado_238841" data-name="Trazado 238841" d="M237.794,213.457a.974.974,0,0,1,.421.18c.148.124.224.317.362.452a1.343,1.343,0,0,0,.468.259,2.523,2.523,0,0,0,1.589.246c.258-.076.488-.235.752-.291a2.036,2.036,0,0,1,1.043.146,2.181,2.181,0,0,1,.871.438c.9.876-.131,2.669.749,3.566a5.226,5.226,0,0,1-1.486.216,1.754,1.754,0,0,1-1.324-.613c-.336-.438-.462-1.14-1-1.256a1.11,1.11,0,0,0-.54.057,4.864,4.864,0,0,0-1.68.9,4.385,4.385,0,0,1-1.113.81.94.94,0,0,1-1.2-.357c-.186-.425.1-.969-.141-1.363-.508-.82-1.771-.9-1.025-2.269.557-1.021,2.222-1.351,3.254-1.119" transform="translate(13.784 12.553)" fill="#44cc83"/>
        <path id="Trazado_238842" data-name="Trazado 238842" d="M300.495,268.618a.97.97,0,0,1,.277.53.911.911,0,0,1-.172.482l-1.32,2.235c-.418.708-.839,1.61-.395,2.3a1.772,1.772,0,0,0,2.326.245c.749-.426,1.33-1.114,2.106-1.488.881-.425,2.035-.471,2.582-1.282.608-.9.036-2.138-.719-2.92a7.622,7.622,0,0,1-2.082-2.465,10.171,10.171,0,0,1-.162-2.705,4.893,4.893,0,0,0-3.044-4.147c-1.295,2.825-1.461,6.657.6,9.212" transform="translate(17.571 15.26)" fill="#44cc83"/>
        <path id="Trazado_238843" data-name="Trazado 238843" d="M293.965,269.519a6.806,6.806,0,0,1,.473,1.391c.01.165,0,.357.119.468a.509.509,0,0,0,.328.094c.27.013.541.016.812.012a1.029,1.029,0,0,0,.421-.069,1.072,1.072,0,0,0,.4-.406,3.393,3.393,0,0,0,.755-1.973q.086-.718.173-1.435a3.015,3.015,0,0,0,.019-.894,1.024,1.024,0,0,0-.468-.731,1.358,1.358,0,0,0-.847-.088c-.578.078-1.039,1.014-1.454,1.448a2.232,2.232,0,0,0-.727,2.18" transform="translate(17.289 15.64)" fill="#44cc83"/>
        <path id="Trazado_238844" data-name="Trazado 238844" d="M285.78,252.313c.8.609,1.993.184,2.9.609a1.855,1.855,0,0,0,.776.3,1.194,1.194,0,0,0,.563-.215,3.889,3.889,0,0,0,1.987-1.991,4.785,4.785,0,0,1,.3-1.115,2.834,2.834,0,0,1,.885-.771,1.245,1.245,0,0,0,.625-.95,1.1,1.1,0,0,0-.325-.685,2.335,2.335,0,0,0-1.988-.733c-1.3.166-2.195,1.366-3.367,1.951a7.6,7.6,0,0,0-1.825-.613,1.622,1.622,0,0,0-1.216.886,3.618,3.618,0,0,0,.685,3.325" transform="translate(16.763 14.515)" fill="#44cc83"/>
        <g id="Grupo_877409" data-name="Grupo 877409" transform="translate(174.414 314.565)" opacity="0.3" style="mix-blend-mode: multiply;isolation: isolate">
          <g id="Grupo_877408" data-name="Grupo 877408">
            <g id="Grupo_877407" data-name="Grupo 877407" clip-path="url(#clip-path-6)">
              <path id="Trazado_238845" data-name="Trazado 238845" d="M292.348,389.026a133.068,133.068,0,0,1-126.533-91.938,118.71,118.71,0,0,0,234.547,36.519,132.827,132.827,0,0,1-108.014,55.419" transform="translate(-164.724 -297.088)" fill="#007d7a"/>
            </g>
          </g>
        </g>
        <g id="Grupo_877412" data-name="Grupo 877412" transform="translate(312.579 225.969)" opacity="0.4" style="mix-blend-mode: screen;isolation: isolate">
          <g id="Grupo_877411" data-name="Grupo 877411">
            <g id="Grupo_877410" data-name="Grupo 877410" clip-path="url(#clip-path-7)">
              <path id="Trazado_238846" data-name="Trazado 238846" d="M342.509,225.158c17.538,12.958,25.945,31.328,18.776,41.031s-27.2,7.064-44.735-5.892-25.946-31.328-18.777-41.031,27.2-7.066,44.736,5.892" transform="translate(-295.213 -213.415)" fill="#007d7a"/>
            </g>
          </g>
        </g>
        <path id="Trazado_238847" data-name="Trazado 238847" d="M321.209,417.234s24.473,34.737,44.154,6c14.764-21.556,25.541-51.381,30.005-64.939a25.354,25.354,0,0,0,.676-13.337c-1.428-6.553-2.92-17.192-.239-25.906l-.263-23.093s-3.412-13.384-1.574-17.582c0,0-9.972,1.575-7.086,17.844l-2.1,12.334L367.2,283.365s-25.873-17.41-27.571-14.145c-3.084,5.934,2.026,5.837,17.959,20.18l6.726,11.284-8.923-9.447s-30.61-19.018-32.531-15.979c-3.749,5.929,3.741,6.478,25.184,23.064l9.972,9.972-9.96-7.873s-22.027-14.764-23.765-11.954c-3.773,6.1,6.433,10.281,30.838,32.423l-1.968,1.443s-22.024-15.38-23.637-13.025c-3.659,5.343,2.758,6.2,17.733,20.466l19.419,26.805.007.185a34.727,34.727,0,0,1-10.4,26.112Z" transform="translate(18.896 15.813)" fill="#ffaaa4"/>
        <path id="Trazado_238848" data-name="Trazado 238848" d="M385.282,312.04A141.683,141.683,0,0,0,386.63,295.8c0-5.994-2.225-9.256-.809-15.3-2.137,2.425-3.918,6.887-2.471,15.035l-2.1,12.334Z" transform="translate(22.428 16.501)" fill="#dd7b6e"/>
        <g id="Grupo_877415" data-name="Grupo 877415" transform="translate(340.105 372.579)" opacity="0.4" style="mix-blend-mode: multiply;isolation: isolate">
          <g id="Grupo_877414" data-name="Grupo 877414">
            <g id="Grupo_877413" data-name="Grupo 877413" clip-path="url(#clip-path-8)">
              <path id="Trazado_238849" data-name="Trazado 238849" d="M366.682,351.879a34.727,34.727,0,0,1-10.4,26.112l-35.072,34.357s22.658,32.152,41.9,8.981c-4.217-4.894-15.856-20.3-4.193-38.406s7.762-31.044,7.762-31.044" transform="translate(-321.209 -351.879)" fill="#dd7b6e"/>
            </g>
          </g>
        </g>
        <path id="Trazado_238850" data-name="Trazado 238850" d="M348.919,427.658c.575.51,15.577,14.1,2.152-13.027l-4.64-3.491-17.109-12.9c2.839,1.949,15.08,12.275,21.431,5.666a1.35,1.35,0,0,0-.276-2.056,50.01,50.01,0,0,1-11.45-9.973,9.135,9.135,0,0,0-4.106-2.967L319.7,383.54a24.939,24.939,0,0,0-11.237-1.245l-34.88,4.146-111.34-6.107-1.312-48.1-46.977.249.628,16.441,1.86,48.357a25.457,25.457,0,0,0,26.779,24.443l128.859-6.8,38.447,29.219s.51.288,1.387.766c6.052,3.339,27.748,12.965,29,9.86,1.976-4.907-3.359-4.355-20.151-17.737l18.495,7.973s14.964,6.746,16.3,1.587c.367-1.419-1.124-2.332-4.485-4.744,3.636,2.064,6.118,4.873,8.351,2.74,2.411-2.3-1-5.656-10.5-16.932" transform="translate(6.703 19.544)" fill="#ffaaa4"/>
        <g id="Grupo_877418" data-name="Grupo 877418" transform="translate(314.659 424.329)" opacity="0.2" style="mix-blend-mode: multiply;isolation: isolate">
          <g id="Grupo_877417" data-name="Grupo 877417">
            <g id="Grupo_877416" data-name="Grupo 877416" clip-path="url(#clip-path-9)">
              <path id="Trazado_238851" data-name="Trazado 238851" d="M338.148,423.631c.266.238,3.7,3.347,5.9,3.794,2.486.5,3.374-2.42-3.754-16.822l-4.636-3.489-8.444-6.36c.024,6.7-4.888,7.919-4.888,7.919a8.03,8.03,0,0,1-1.6,6.765,7.621,7.621,0,0,1-6.041,3.038,9.465,9.465,0,0,1-1.358,7.221,9.146,9.146,0,0,1-6.072,3.9,6.948,6.948,0,0,1-6.785,7.547l-3.291,1.017,2.552,1.94.02.01s.318.181.872.488l.511.281c6.053,3.337,27.749,12.964,29,9.859,1.975-4.9-3.355-4.356-20.134-17.724l-.015-.008.008,0-.011-.008,10.728,4.624,7.76,3.343s1.094.47,2.733,1.117c4.377,1.667,12.6,4.243,13.575.475.219-.847-.239-1.518-1.348-2.431a34.3,34.3,0,0,1-3.056-2.254l-.08-.058.032.019-.026-.021c1.132.644,2.442,1.532,3.746,2.4,1.765,1.1,3.229,1.65,4.6.343,2.411-2.3-1-5.657-10.5-16.932l.02.018-.013-.015" transform="translate(-297.177 -400.754)" fill="#ff8e80"/>
            </g>
          </g>
        </g>
        <g id="Grupo_877421" data-name="Grupo 877421" transform="translate(334.437 444.925)" opacity="0.5" style="mix-blend-mode: multiply;isolation: isolate">
          <g id="Grupo_877420" data-name="Grupo 877420">
            <g id="Grupo_877419" data-name="Grupo 877419" clip-path="url(#clip-path-10)">
              <path id="Trazado_238852" data-name="Trazado 238852" d="M341.881,438.724q-3.016-1.8-5.906-3.781c-1.927-1.321-3.82-2.684-5.67-4.137l.058.043c-2.518-1.624-5.014-3.283-7.435-5.052s-4.8-3.6-7.073-5.592c2.705,1.347,5.309,2.843,7.853,4.429s5.034,3.254,7.49,4.97l.039.028.02.016,5.342,4.473c1.781,1.5,3.546,3.031,5.281,4.6" transform="translate(-315.856 -420.206)" fill="#ff8e80"/>
            </g>
          </g>
        </g>
        <g id="Grupo_877424" data-name="Grupo 877424" transform="translate(342.325 435.97)" opacity="0.5" style="mix-blend-mode: multiply;isolation: isolate">
          <g id="Grupo_877423" data-name="Grupo 877423">
            <g id="Grupo_877422" data-name="Grupo 877422" clip-path="url(#clip-path-11)">
              <path id="Trazado_238853" data-name="Trazado 238853" d="M341.443,428.936a81.564,81.564,0,0,1-7.284-7.745l.124.122c-1.939-1.454-3.818-2.984-5.667-4.554-.914-.8-1.827-1.6-2.714-2.43s-1.762-1.68-2.6-2.58c1.076.592,2.1,1.249,3.131,1.9s2.018,1.353,3.013,2.048c1.968,1.415,3.907,2.87,5.785,4.4l.079.065.044.057a81.573,81.573,0,0,1,6.083,8.72" transform="translate(-323.306 -411.748)" fill="#ff8e80"/>
            </g>
          </g>
        </g>
        <path id="Trazado_238854" data-name="Trazado 238854" d="M228.717,131.769a14.848,14.848,0,0,1,21.581.406" transform="translate(13.455 7.49)" fill="none" stroke="#0c351f" stroke-miterlimit="10" stroke-width="1"/>
        <path id="Trazado_238855" data-name="Trazado 238855" d="M264.274,137.013a10.754,10.754,0,0,1,14.005,8.5" transform="translate(15.546 8.029)" fill="none" stroke="#0c351f" stroke-miterlimit="10" stroke-width="1"/>
        <path id="Trazado_238856" data-name="Trazado 238856" d="M251.516,145.964a10.89,10.89,0,0,0,8.032,11.147l-7.777,4.876" transform="translate(14.794 8.587)" fill="none" stroke="#0c351f" stroke-miterlimit="10" stroke-width="1"/>
        <path id="Trazado_238857" data-name="Trazado 238857" d="M229.144,143.8a20.542,20.542,0,0,1,4.3-4.636c1.912-1.508,4.358-2.711,6.724-2.127a6.766,6.766,0,0,1,4.208,3.745,20.056,20.056,0,0,1,1.5,5.6" transform="translate(13.48 8.053)" fill="none" stroke="#0c351f" stroke-miterlimit="10" stroke-width="1"/>
        <path id="Trazado_238858" data-name="Trazado 238858" d="M259.365,148.983a5.46,5.46,0,0,1,10.2,3.828" transform="translate(15.258 8.579)" fill="none" stroke="#0c351f" stroke-miterlimit="10" stroke-width="1"/>
        <path id="Trazado_238859" data-name="Trazado 238859" d="M233.525,161.925a36.544,36.544,0,0,0,20.927,9.817" transform="translate(13.738 9.526)" fill="none" stroke="#0c351f" stroke-miterlimit="10" stroke-width="1"/>
        <g id="Grupo_877427" data-name="Grupo 877427" transform="translate(252.295 180.7)" opacity="0.7" style="mix-blend-mode: multiply;isolation: isolate">
          <g id="Grupo_877426" data-name="Grupo 877426">
            <g id="Grupo_877425" data-name="Grupo 877425" clip-path="url(#clip-path-12)">
              <path id="Trazado_238860" data-name="Trazado 238860" d="M245.717,173.2a4.8,4.8,0,0,1-4.954.812,4.475,4.475,0,0,1-2.275-2.089c-.5-1.154-.062-1.586.937-1.019,2.053,1.165,3.861,2.164,6.293,2.3" transform="translate(-238.278 -170.661)" fill="#ff8e80"/>
            </g>
          </g>
        </g>
        <path id="Trazado_238861" data-name="Trazado 238861" d="M220.639,143.447a9.6,9.6,0,1,1-9.6-9.6,9.6,9.6,0,0,1,9.6,9.6" transform="translate(11.85 7.874)" fill="#ff8e80"/>
        <g id="Grupo_877430" data-name="Grupo 877430" transform="translate(157.782 351.776)" opacity="0.5" style="mix-blend-mode: multiply;isolation: isolate">
          <g id="Grupo_877429" data-name="Grupo 877429">
            <g id="Grupo_877428" data-name="Grupo 877428" clip-path="url(#clip-path-13)">
              <path id="Trazado_238862" data-name="Trazado 238862" d="M158.864,332.232l1.313,48.1H155.5a6.48,6.48,0,0,1-6.48-6.48v-41.57Z" transform="translate(-149.016 -332.232)" fill="#ff8e80"/>
            </g>
          </g>
        </g>
        <g id="Grupo_877433" data-name="Grupo 877433" transform="translate(219.948 147.003)" opacity="0.7" style="mix-blend-mode: multiply;isolation: isolate">
          <g id="Grupo_877432" data-name="Grupo 877432">
            <g id="Grupo_877431" data-name="Grupo 877431" clip-path="url(#clip-path-14)">
              <path id="Trazado_238863" data-name="Trazado 238863" d="M207.952,138.836a10.7,10.7,0,0,1,3.236,8.636s-4.5-2.023-3.236-8.636" transform="translate(-207.728 -138.836)" fill="#ff8e80"/>
            </g>
          </g>
        </g>
      </g>
    </g>
  </g>
</svg>
