<svg xmlns="http://www.w3.org/2000/svg" xmlns:xlink="http://www.w3.org/1999/xlink" width="75" height="75" viewBox="0 0 75 75">
  <defs>
    <clipPath id="clip-path">
      <rect id="Rect치ngulo_297087" data-name="Rect치ngulo 297087" width="55.182" height="47.421" fill="#6826cc"/>
    </clipPath>
  </defs>
  <g id="Grupo_877321" data-name="Grupo 877321" transform="translate(-448 -13289.25)">
    <rect id="Rect치ngulo_297072" data-name="Rect치ngulo 297072" width="75" height="75" transform="translate(448 13289.25)" fill="none"/>
    <g id="Grupo_877318" data-name="Grupo 877318" transform="translate(457.909 13303.039)">
      <g id="Grupo_877317" data-name="Grupo 877317" clip-path="url(#clip-path)">
        <path id="Trazado_238625" data-name="Trazado 238625" d="M53,45.262V41.028c-.822-.092-1.623-.144-2.409-.28a7.1,7.1,0,0,1-3.022-1.341.491.491,0,0,0-.7-.023,7.9,7.9,0,0,1-9.486-.019.446.446,0,0,0-.611,0,7.944,7.944,0,0,1-9.541.013.588.588,0,0,0-.541,0,8.385,8.385,0,0,1-5.14,1.6A21.169,21.169,0,0,1,9.838,37.958,20.524,20.524,0,0,1,2.517,30.3c-.085-.152-.171-.3-.318-.563V45.262H21.644a5.274,5.274,0,0,1,.538.008,1.073,1.073,0,0,1,.023,2.137,3.969,3.969,0,0,1-.484.011H1.464c-1.113,0-1.458-.34-1.458-1.436,0-8.474-.016-16.949,0-25.422A20.417,20.417,0,0,1,16.587.4,20.019,20.019,0,0,1,31.406,3.172a1.119,1.119,0,0,1,.262,1.952,10.771,10.771,0,0,1-4.809,3.043l-.349.11a19.275,19.275,0,0,1-.393,2.655A5.9,5.9,0,0,1,20.445,15.1,5.354,5.354,0,0,0,15.3,19.016a5.285,5.285,0,0,0,4.135,6.721,6.68,6.68,0,0,0,6.707-1.723,1.034,1.034,0,0,1,1.613.008,5.849,5.849,0,0,0,8.507,0,1.055,1.055,0,0,1,1.653.02,5.8,5.8,0,0,0,8.461-.012,1.067,1.067,0,0,1,1.656,0A5.888,5.888,0,0,0,53.7,25.7,1.1,1.1,0,0,1,55.179,26.9q.006,9.641,0,19.282c0,.838-.417,1.239-1.275,1.239q-10.937,0-21.874,0c-.821,0-1.32-.424-1.309-1.1s.5-1.059,1.345-1.059H53ZM29.254,4.454A18.259,18.259,0,0,0,8.367,34.138c.01-.015.031-.035.027-.045a1.776,1.776,0,0,0-.1-.243,13.987,13.987,0,0,1-1.811-7.535,12.28,12.28,0,0,1,2.793-7.848,14.276,14.276,0,0,1,6.217-4.1,23.711,23.711,0,0,1,5.01-1.372c2.635-.316,4.293-2.456,3.557-5-.271-.936.07-1.464,1.051-1.632a8.6,8.6,0,0,0,4.146-1.911m23.74,23.613a.457.457,0,0,0-.125-.044,8.368,8.368,0,0,1-5.457-1.634.566.566,0,0,0-.5.059,7.987,7.987,0,0,1-9.55,0,.594.594,0,0,0-.542-.017,8.047,8.047,0,0,1-9.6.011.586.586,0,0,0-.541.007,9.175,9.175,0,0,1-7.954,1.336A7.4,7.4,0,0,1,13.055,19.2c.093-.595.3-1.171.481-1.855A11.714,11.714,0,0,0,8.668,27.477a4.391,4.391,0,0,0,3.026,4.132,4.094,4.094,0,0,0,4.754-1.123c.528-.554,1.1-.506,1.687.069a5.283,5.283,0,0,0,7.921,0,1.1,1.1,0,0,1,1.772-.007,5.808,5.808,0,0,0,8.347.021,1.106,1.106,0,0,1,1.808.006,5.821,5.821,0,0,0,8.31.007c.645-.644,1.153-.6,1.855.007a8.814,8.814,0,0,0,1.811,1.227,4.939,4.939,0,0,0,3.035.453ZM53,34.475a8.136,8.136,0,0,1-5.382-1.5.583.583,0,0,0-.829,0,7.946,7.946,0,0,1-9.309-.007.581.581,0,0,0-.828.014,7.943,7.943,0,0,1-9.266.01.6.6,0,0,0-.87.017,7.36,7.36,0,0,1-8.868-.02.581.581,0,0,0-.828,0,5.97,5.97,0,0,1-4.661.979c-.478-.088-.945-.234-1.5-.374a11.952,11.952,0,0,0,4.844,4.117,13.988,13.988,0,0,0,6.246,1.1,5.749,5.749,0,0,0,4.292-1.774,1.1,1.1,0,0,1,1.806,0,5.816,5.816,0,0,0,8.309.015A1.116,1.116,0,0,1,38,37.063a5.831,5.831,0,0,0,8.271,0,1.111,1.111,0,0,1,1.843-.015,5.579,5.579,0,0,0,2.933,1.6,16.729,16.729,0,0,0,1.95.173Z" transform="translate(0 0)" fill="#6826cc"/>
        <path id="Trazado_238626" data-name="Trazado 238626" d="M93.418,28.684c.761.065,1.608.082,2.436.218a4.166,4.166,0,0,1,3.476,4.725,4.313,4.313,0,0,1-4.471,3.737A4.1,4.1,0,0,1,91.9,35.921a26.822,26.822,0,0,1-3.533-5.255,1.067,1.067,0,0,1,.945-1.619c1.337-.145,2.679-.24,4.105-.364m-2.24,2.334-.151.189c.9,1.171,1.77,2.372,2.724,3.5a1.918,1.918,0,0,0,2.293.263,2.121,2.121,0,0,0,1.141-2.188,1.989,1.989,0,0,0-1.472-1.729,16.924,16.924,0,0,0-4.534-.036" transform="translate(-57.731 -18.773)" fill="#6826cc"/>
        <path id="Trazado_238627" data-name="Trazado 238627" d="M77.024,47.919A1.075,1.075,0,1,1,76,46.822a1.087,1.087,0,0,1,1.025,1.1" transform="translate(-49.003 -30.642)" fill="#6826cc"/>
        <path id="Trazado_238628" data-name="Trazado 238628" d="M77.024,132.061A1.075,1.075,0,1,1,75.96,131a1.084,1.084,0,0,1,1.064,1.058" transform="translate(-49.003 -85.737)" fill="#6826cc"/>
      </g>
    </g>
  </g>
</svg>
