<svg xmlns="http://www.w3.org/2000/svg" xmlns:xlink="http://www.w3.org/1999/xlink" width="75" height="75" viewBox="0 0 75 75">
  <defs>
    <clipPath id="clip-path">
      <rect id="Rect치ngulo_297091" data-name="Rect치ngulo 297091" width="56.857" height="56.845" fill="#d8b537"/>
    </clipPath>
  </defs>
  <g id="Grupo_877328" data-name="Grupo 877328" transform="translate(-448 -13289.25)">
    <rect id="Rect치ngulo_297072" data-name="Rect치ngulo 297072" width="75" height="75" transform="translate(448 13289.25)" fill="none"/>
    <g id="Grupo_877333" data-name="Grupo 877333" transform="translate(457.072 13298.327)">
      <g id="Grupo_877332" data-name="Grupo 877332" clip-path="url(#clip-path)">
        <path id="Trazado_238644" data-name="Trazado 238644" d="M32.18,31.911v-3.5c-1.3,0-2.568.018-3.839,0a5.651,5.651,0,0,1-5.414-4.286,6.184,6.184,0,0,1-.161-1.536,1.7,1.7,0,0,1,1.483-1.69,38.064,38.064,0,0,1,5.2.089,11.161,11.161,0,0,1,2.723,1.038V18.95c-.876,0-1.739,0-2.6,0a5.708,5.708,0,0,1-4.755-2.305,5.579,5.579,0,0,1-1.133-3.3,1.758,1.758,0,0,1,1.557-1.916,24.439,24.439,0,0,1,4.363.113,10.969,10.969,0,0,1,2.564,1.027V9.445c-.746,0-1.464.025-2.18,0a5.654,5.654,0,0,1-5.348-5.657,1.838,1.838,0,0,1,1.688-1.873,21.929,21.929,0,0,1,2.715.036,5.353,5.353,0,0,1,3.161,1.386c0-.743,0-1.375,0-2.008a2.691,2.691,0,0,1,.041-.606A.94.94,0,0,1,33.241,0a.916.916,0,0,1,.853.927c.02.755.005,1.511.005,2.287.089-.013.155,0,.187-.03a5.881,5.881,0,0,1,4.078-1.3c.481.006.963-.008,1.443.009a1.877,1.877,0,0,1,1.872,1.93,5.645,5.645,0,0,1-5.386,5.621c-.7.028-1.4,0-2.145,0v3.139a10.291,10.291,0,0,1,2.477-1.022,25.545,25.545,0,0,1,4.417-.143A1.761,1.761,0,0,1,42.635,13.3a5.718,5.718,0,0,1-5.79,5.643c-.886.016-1.773,0-2.7,0v3.226A2.764,2.764,0,0,0,34.453,22a5.635,5.635,0,0,1,3.458-1.161c1.24,0,2.48-.011,3.719,0a1.865,1.865,0,0,1,1.94,2.07,5.667,5.667,0,0,1-5.7,5.493c-1.235.014-2.47,0-3.737,0v4.263c.615-.133,1.23-.309,1.857-.395a7.282,7.282,0,0,1,5.957,1.815.812.812,0,0,0,.83.218,7.456,7.456,0,0,1,8.061,3.208.517.517,0,0,0,.753.249,4.115,4.115,0,0,1,2.329-.328,3.551,3.551,0,0,1,2.872,2.875,3.5,3.5,0,0,1-1.619,3.621c-2.213,1.376-4.446,2.72-6.672,4.075-3.6,2.191-7.207,4.369-10.8,6.577a8.573,8.573,0,0,1-4.629,1.293c-7.585-.016-15.171-.006-22.756-.011a1.9,1.9,0,0,0-1.012.314,4.076,4.076,0,0,1-1.732.611c-1.568.083-3.144.041-4.717.024A2.812,2.812,0,0,1,.007,53.967q-.015-9.932,0-19.865a2.763,2.763,0,0,1,2.747-2.83c1.627-.04,3.256-.028,4.884-.005A2.693,2.693,0,0,1,10.1,32.8a.486.486,0,0,0,.544.324,13.139,13.139,0,0,1,4.283.447,1.067,1.067,0,0,0,.756-.091,7.77,7.77,0,0,1,6.057-1.069.816.816,0,0,0,.623-.134,7.582,7.582,0,0,1,9.573-.522c.058.04.119.075.249.157M10.46,53.951c.192.009.321.021.45.021q11.209,0,22.419,0a6.106,6.106,0,0,0,3.258-.929q5.582-3.411,11.173-6.806,3.078-1.873,6.156-3.748a1.729,1.729,0,0,0,.994-1.815,1.676,1.676,0,0,0-2.387-1.224c-5.1,1.7-10.205,3.372-15.288,5.114a14.382,14.382,0,0,1-5.251.921c-1.958-.072-3.921.016-5.881-.03a8.644,8.644,0,0,0-5.573,1.654.942.942,0,0,1-1.412-.182.959.959,0,0,1,.314-1.353,9.411,9.411,0,0,1,5.381-1.97c1.922-.058,3.847-.046,5.77-.031a.728.728,0,0,0,.791-.521,2.46,2.46,0,0,0-.116-2.143A3.672,3.672,0,0,0,28,38.851c-1.367-.05-2.739-.058-4.106-.006a10.633,10.633,0,0,1-7.316-2.368c-1.79-1.433-3.927-1.532-6.121-1.392ZM1.9,44.061q0,4.855,0,9.71c0,.807.346,1.155,1.146,1.158q2.164.01,4.329,0c.8,0,1.161-.348,1.161-1.148q.006-9.738,0-19.475c0-.809-.34-1.143-1.151-1.147-1.388-.007-2.775,0-4.163,0-1.042,0-1.324.279-1.324,1.3q0,4.8,0,9.6M24.01,33.422a.992.992,0,0,1-.032,1.334,1,1,0,0,1-1.367.033,3.208,3.208,0,0,0-.448-.218,5.693,5.693,0,0,0-4.753.115,8.394,8.394,0,0,0,5.621,2.257c1.72-.009,3.442-.028,5.161.013a5.518,5.518,0,0,1,5.145,4.224,12.382,12.382,0,0,1,.023,2.346c.7.1,14.6-4.3,15.813-5.033a5.351,5.351,0,0,0-5.557-2.364,5.05,5.05,0,0,1,.217.5.937.937,0,0,1-1.646.85,2.668,2.668,0,0,1-.2-.331,5.678,5.678,0,0,0-8.853-1.582c-.561.48-1.07.525-1.472.131-.384-.377-.361-.857.066-1.436.017-.023,0-.068,0-.106a5.581,5.581,0,0,0-7.719-.736m.66-10.662a3.593,3.593,0,0,0,2.949,3.63,33.61,33.61,0,0,0,3.869.127c.231.006.462,0,.689,0a3.669,3.669,0,0,0-3.262-3.737c-1.394-.1-2.8-.02-4.245-.02m9.479,3.655a39.108,39.108,0,0,0,4.578-.037,3.471,3.471,0,0,0,2.9-3.587,37.856,37.856,0,0,0-4.411.035,3.553,3.553,0,0,0-3.063,3.589m.006-9.389c.2.009.362.026.526.023.923-.015,1.851.022,2.768-.064A3.669,3.669,0,0,0,40.6,14.257a9.54,9.54,0,0,0,.152-.943c-1.213,0-2.346-.087-3.46.02a3.633,3.633,0,0,0-3.137,3.693m-8.5-3.849a3.552,3.552,0,0,0,2.833,3.728,28.223,28.223,0,0,0,3.667.191,3.5,3.5,0,0,0-2.573-3.62,28.038,28.038,0,0,0-3.927-.3m.87-9.44A3.856,3.856,0,0,0,28.33,7c1.209.784,2.542.528,3.851.547A3.666,3.666,0,0,0,29.23,3.9a24.152,24.152,0,0,0-2.705-.16M34.133,7.51c3.351.445,5.9-1.248,5.582-3.673-3.2-.507-5.55,1.03-5.582,3.673" transform="translate(0 0)" fill="#d8b537"/>
        <path id="Trazado_238645" data-name="Trazado 238645" d="M84.751,87.187A3.253,3.253,0,0,1,82.76,89.06a.924.924,0,0,1-.813-1.276,2.4,2.4,0,0,1,1.529-1.5.951.951,0,0,1,1.275.9" transform="translate(-46.815 -49.301)" fill="#d8b537"/>
      </g>
    </g>
  </g>
</svg>
