<svg xmlns="http://www.w3.org/2000/svg" xmlns:xlink="http://www.w3.org/1999/xlink" width="505" height="317.149" viewBox="0 0 505 317.149">
  <defs>
    <linearGradient id="linear-gradient" x1="0.5" y1="1" x2="0.5" gradientUnits="objectBoundingBox">
      <stop offset="0" stop-color="#d6d6d6"/>
      <stop offset="0.993" stop-color="#f7f7f7"/>
    </linearGradient>
  </defs>
  <g id="Grupo_876849" data-name="Grupo 876849" transform="translate(-1691.251 -46.059)">
    <path id="Trazado_237774" data-name="Trazado 237774" d="M1691.251,681.335c0,8,112.068,14.492,250.312,14.492V666.843C1803.319,666.843,1691.251,673.332,1691.251,681.335Z" transform="translate(0 -332.618)" fill="#faedb2"/>
    <g id="Grupo_876793" data-name="Grupo 876793" transform="translate(1751.855 70.339)">
      <path id="Trazado_237775" data-name="Trazado 237775" d="M1833.85,120.262a12.026,12.026,0,0,1,3.741.6,10.435,10.435,0,0,1,15.318-13.042,15.028,15.028,0,0,1,28.7,2.671,17.462,17.462,0,1,1,6,33.859H1833.85a12.042,12.042,0,1,1,0-24.083Z" transform="translate(-1821.808 -98.365)" fill="#f4e0ec"/>
      <path id="Trazado_237776" data-name="Trazado 237776" d="M1882.176,153.27a17.456,17.456,0,0,0,15.158-26.119,17.458,17.458,0,0,1-8.66,32.618h-53.762a12.044,12.044,0,0,1-11.121-7.419,12,12,0,0,0,4.622.921Z" transform="translate(-1822.871 -113.789)" fill="#e7b7d2"/>
    </g>
    <path id="Trazado_237777" data-name="Trazado 237777" d="M1711.5,672.86c0,7.7,107.859,13.948,240.911,13.948V658.913C1819.362,658.913,1711.5,665.157,1711.5,672.86Z" transform="translate(-10.851 -328.369)" fill="#fdf9e3"/>
    <path id="Trazado_237778" data-name="Trazado 237778" d="M2480.8,681.335c0,8-112.069,14.492-250.312,14.492V666.843C2368.73,666.843,2480.8,673.332,2480.8,681.335Z" transform="translate(-288.924 -332.618)" fill="#dedfea"/>
    <path id="Trazado_237779" data-name="Trazado 237779" d="M2471.4,672.86c0,7.7-107.859,13.948-240.911,13.948V658.913C2363.539,658.913,2471.4,665.157,2471.4,672.86Z" transform="translate(-288.924 -328.369)" fill="#f1f2f7"/>
    <g id="Grupo_876794" data-name="Grupo 876794" transform="translate(1747.85 227.634)">
      <path id="Trazado_237780" data-name="Trazado 237780" d="M1818.675,488.031c.191-1.606-.953-3.028-2.02-4.012s-2.3-2.128-2.425-3.771a3.631,3.631,0,0,1,1.841-3.356,24.6,24.6,0,0,1,3.314-1.15,3.779,3.779,0,0,0,2.45-2.755,5.117,5.117,0,0,0-1.652-4.416,17.327,17.327,0,0,0-3.658-2.211,6.31,6.31,0,0,1-3.053-3.288,5.858,5.858,0,0,1,1.839-6.291c1.629-1.225,3.667-1.278,5.608-1.122,1.52.122,3.407.1,4-1.652a4.709,4.709,0,0,0-.47-3.423c-.514-1.037-1.212-1.915-1.719-2.957a8.808,8.808,0,0,1,.445-8.376,4.6,4.6,0,0,1,6.918-.833,8.718,8.718,0,0,1,2.107,8.742c-.6,1.72-1.808,3.279-1.519,5.2.3,1.992,2.026,3.061,3.517,3.767s3.22,1.717,3.579,3.7c.363,2-.916,3.7-2.154,4.851s-2.67,2.438-2.778,4.45c-.116,2.177,1.394,4.024,2.852,5.273,1.483,1.269,3.067,2.333,4.491,3.715a11.551,11.551,0,0,1,3.27,5.31c.558,2.154.231,4.723-1.108,6.026a8.061,8.061,0,0,1-3,1.455,3.722,3.722,0,0,0-2.457,2.412,12.643,12.643,0,0,0-.108,3.028,6.8,6.8,0,0,1-2.091,4.992c-1.449,1.242-2.725.736-4.351.784-1.65.05-2.913.584-4.608-.2a14.693,14.693,0,0,1-2.524-1.645l-4.739-3.565c-1.16-.873-2.495-2.141-2.392-3.811C1816.209,490.839,1818.433,490.055,1818.675,488.031Z" transform="translate(-1813.18 -437.218)" fill="#c2b1ea"/>
      <path id="Trazado_237781" data-name="Trazado 237781" d="M1831.564,540.476l.374-.432,6.565,4.437-1.635-14.558.878-.106,1.022,7.9,5.283-5.825.466.331L1838.933,539l4.471,34.964-1.546.186-3.209-28.38Z" transform="translate(-1823.03 -486.833)" fill="#391c77"/>
    </g>
    <g id="Grupo_876795" data-name="Grupo 876795" transform="translate(1754.749 167.379)">
      <path id="Trazado_237782" data-name="Trazado 237782" d="M1846.984,419.485c-3.952-2.88-7.147-9.268-6.4-15.8.651-5.728,4.114-10.663,3.423-16.382-.584-4.841-3.883-7.688-6.924-9.445s-6.454-3.416-8.124-7.64c-1.937-4.9-.593-11.583,2.156-15.492s6.544-5.608,10.241-6.757,7.513-1.9,10.906-4.4a17.172,17.172,0,0,0,6.618-12.9c.169-3.925-.963-7.833-.589-11.726a13.324,13.324,0,0,1,4.9-9.325,12.512,12.512,0,0,1,7.994-2.194,17.431,17.431,0,0,1,13.172,5.842c3.723,4.221,6.135,11.528,5.136,18.4-.791,5.443-3.574,10.565-2.641,15.959.814,4.7,4.112,7.277,7.147,8.892s6.413,3.143,8.172,7.216c1.991,4.61,1.063,11.055-1.245,15.31s-5.7,6.781-9.029,9a14.2,14.2,0,0,0-4.719,4.329,9.364,9.364,0,0,0-.915,7.708c1.322,3.3,4.622,3.2,6.468,5.866,2.318,3.35,1.169,9.711-1.426,12.556s-6,3.16-9.206,3.372c-6.476.428-12.953.946-19.43,1.284-2.424.126-4.845-.463-7.279-.732a20.791,20.791,0,0,1-4.431-.9C1849.813,421.126,1848.081,419.484,1846.984,419.485Z" transform="translate(-1828.042 -307.414)" fill="#5b2ac7"/>
      <path id="Trazado_237783" data-name="Trazado 237783" d="M1916.6,495.692l-.653-.5-9.239,6.806-.2-19.191h-1.365l-.1,10.435-9.178-6.743-.653.5,9.818,7.938-.367,46.176,2.4,0-.346-37.415Z" transform="translate(-1864.032 -401.388)" fill="#391c77"/>
    </g>
    <g id="Grupo_876796" data-name="Grupo 876796" transform="translate(1802.055 207.957)">
      <path id="Trazado_237784" data-name="Trazado 237784" d="M1940.323,468.4a8.544,8.544,0,0,0,.884-2.943,3.524,3.524,0,0,0-2.358-2.784c-1.182-.5-2.484-.644-3.69-1.084a7.931,7.931,0,0,1-1.351-14.256c1.6-.954,3.468-1.318,5.179-2.046s3.389-2.019,3.708-3.85c.33-1.9-.905-3.726-2.349-5s-3.167-2.257-4.363-3.767a7.782,7.782,0,0,1,2.306-11.183c1.833-.986,3.984-1.162,5.956-1.828s3.961-2.136,4.112-4.213c.161-2.22-1.767-3.944-2.964-5.821a9.676,9.676,0,1,1,17-1.264c-.78,1.749-2.058,3.227-2.976,4.907s-1.456,3.765-.633,5.493c1.963,4.122,9.136,2.541,11.645,6.355,1.441,2.19.573,5.218-1.032,7.291s-3.837,3.578-5.54,5.571-2.852,4.855-1.74,7.229c.809,1.727,2.581,2.743,4.061,3.945s2.831,3.051,2.281,4.877c-.978,3.251-6.575,2.872-7.761,6.054-.708,1.9.619,3.907.893,5.917C1963.246,478.192,1936.959,478.77,1940.323,468.4Z" transform="translate(-1929.951 -394.829)" fill="#e4ddf7"/>
      <path id="Trazado_237785" data-name="Trazado 237785" d="M1972.151,527.054l-.47-.4-7.608,4.075,1.161-13.467-1.055-.1-.792,7.307-6.635-5.418-.539.3,7.047,6.3-3.442,32.339,1.859.18,2.291-26.252Z" transform="translate(-1944.023 -460.373)" fill="#391c77"/>
    </g>
    <g id="Grupo_876799" data-name="Grupo 876799" transform="translate(1738.001 276.871)">
      <path id="Trazado_237786" data-name="Trazado 237786" d="M1806.465,552.326c5.411-5.62,12.987-9.629,20.739-8.967,6.186.528,11.868,3.976,16.119,8.531s7.219,10.161,9.752,15.865a139.774,139.774,0,0,1,7.274,20.582c.762,2.846,2.046,8.148.29,10.506-1.507,2.023-4.225,2.613-6.707,3.01-12.308,1.967-25.5.722-37.955.227-6.157-.245-12.726-.956-17.482-4.9C1784.109,585.253,1796.561,562.615,1806.465,552.326Z" transform="translate(-1791.964 -543.287)" fill="#e7b7d2"/>
      <g id="Grupo_876798" data-name="Grupo 876798" transform="translate(0 8.813)">
        <g id="Grupo_876797" data-name="Grupo 876797">
          <path id="Trazado_237787" data-name="Trazado 237787" d="M1852.767,609.993a92.591,92.591,0,0,1-39.662-6.865c-3.472-1.432-7.008-3.2-9.174-6.269a15.043,15.043,0,0,1-2.42-8.908,44.853,44.853,0,0,1,1.437-9.257l3.739-16.421c-.074.075-.149.15-.222.226-9.9,10.289-22.357,32.927-7.972,44.854,4.756,3.943,11.326,4.655,17.482,4.9,12.454.495,25.647,1.74,37.955-.227a15.853,15.853,0,0,0,4.526-1.249,5.419,5.419,0,0,0-1.385-.583A14.113,14.113,0,0,0,1852.767,609.993Z" transform="translate(-1791.964 -562.273)" fill="#ca3881"/>
        </g>
      </g>
    </g>
    <g id="Grupo_876802" data-name="Grupo 876802" transform="translate(1795.489 268.878)">
      <path id="Trazado_237788" data-name="Trazado 237788" d="M1922.679,559.733c3.475-10.617,8.485-20.341,15.29-26.213a31.326,31.326,0,0,1,18-7.289c5.672-.529,11.539.116,16.846,3.52,6.557,4.207,11.81,12.386,15.487,21.63s5.915,19.561,7.816,29.882c.554,3.008,1.067,6.336.172,9.076-1.36,4.165-5.082,4.715-8.2,4.729q-19.978.089-39.962-.093-9.885-.09-19.772-.247c-3.278-.052-6.734.357-10-.174-2.479-.4-2.821-2.5-2.392-5.973A168.229,168.229,0,0,1,1922.679,559.733Z" transform="translate(-1915.806 -526.068)" fill="#e7b7d2"/>
      <path id="Trazado_237789" data-name="Trazado 237789" d="M1984.387,610.111a5.883,5.883,0,0,0-2.929-.628,51.6,51.6,0,0,1-35.906-17.374,50.4,50.4,0,0,1-7.468-11.377,52.233,52.233,0,0,1-3.93-11.456c-.829-3.811-.691-7.658-1.324-11.464a6.475,6.475,0,0,0-.6-1.955,73.227,73.227,0,0,0-9.55,19.837,168.271,168.271,0,0,0-6.716,28.847c-.429,3.47-.088,5.57,2.392,5.973,3.269.531,6.725.122,10,.174q9.887.157,19.772.247,18.531.169,37.055.1A2.233,2.233,0,0,0,1984.387,610.111Z" transform="translate(-1915.805 -542.029)" fill="#ca3881"/>
      <g id="Grupo_876801" data-name="Grupo 876801" transform="translate(4.182 33.198)">
        <g id="Grupo_876800" data-name="Grupo 876800">
          <path id="Trazado_237790" data-name="Trazado 237790" d="M1926.917,664.572a.369.369,0,0,0,.03.737A.369.369,0,0,0,1926.917,664.572Z" transform="translate(-1925.758 -633.476)" fill="#78244f"/>
          <path id="Trazado_237791" data-name="Trazado 237791" d="M1928.231,656.148a.719.719,0,0,0,.058,1.435A.719.719,0,0,0,1928.231,656.148Z" transform="translate(-1926.289 -628.963)" fill="#78244f"/>
          <path id="Trazado_237792" data-name="Trazado 237792" d="M1932.051,660.732a.638.638,0,0,0,.051,1.274A.638.638,0,0,0,1932.051,660.732Z" transform="translate(-1928.375 -631.419)" fill="#78244f"/>
          <path id="Trazado_237793" data-name="Trazado 237793" d="M1939.794,663.315a.82.82,0,0,0,.066,1.637A.82.82,0,0,0,1939.794,663.315Z" transform="translate(-1932.434 -632.803)" fill="#78244f"/>
          <path id="Trazado_237794" data-name="Trazado 237794" d="M1929.354,666.4a.531.531,0,0,0,.043,1.06A.531.531,0,0,0,1929.354,666.4Z" transform="translate(-1926.984 -634.456)" fill="#78244f"/>
          <path id="Trazado_237795" data-name="Trazado 237795" d="M1932.154,655.428a.578.578,0,0,0-.047-1.154A.578.578,0,0,0,1932.154,655.428Z" transform="translate(-1928.436 -627.959)" fill="#78244f"/>
          <path id="Trazado_237796" data-name="Trazado 237796" d="M1929.822,645.913a.5.5,0,0,0,.04,1.006A.5.5,0,0,0,1929.822,645.913Z" transform="translate(-1927.248 -623.479)" fill="#78244f"/>
          <path id="Trazado_237797" data-name="Trazado 237797" d="M1928.554,640.881a.551.551,0,0,0-.044-1.1A.551.551,0,0,0,1928.554,640.881Z" transform="translate(-1926.522 -620.194)" fill="#78244f"/>
          <path id="Trazado_237798" data-name="Trazado 237798" d="M1933.543,634.583a.625.625,0,0,0-.05-1.248A.625.625,0,0,0,1933.543,634.583Z" transform="translate(-1929.154 -616.74)" fill="#78244f"/>
          <path id="Trazado_237799" data-name="Trazado 237799" d="M1937.889,641.073a.6.6,0,0,0,.048,1.193A.6.6,0,0,0,1937.889,641.073Z" transform="translate(-1931.523 -620.886)" fill="#78244f"/>
          <path id="Trazado_237800" data-name="Trazado 237800" d="M1935.868,651.234a.739.739,0,0,0,.06,1.476A.739.739,0,0,0,1935.868,651.234Z" transform="translate(-1930.37 -626.33)" fill="#78244f"/>
          <path id="Trazado_237801" data-name="Trazado 237801" d="M1948.8,656.166a.678.678,0,0,0,.055,1.355A.678.678,0,0,0,1948.8,656.166Z" transform="translate(-1937.33 -628.973)" fill="#78244f"/>
          <path id="Trazado_237802" data-name="Trazado 237802" d="M1946.4,664.475a.632.632,0,0,0,.051,1.261A.632.632,0,0,0,1946.4,664.475Z" transform="translate(-1936.067 -633.425)" fill="#78244f"/>
          <path id="Trazado_237803" data-name="Trazado 237803" d="M1941.229,652.747a.759.759,0,0,0,.061,1.516A.759.759,0,0,0,1941.229,652.747Z" transform="translate(-1933.233 -627.141)" fill="#78244f"/>
          <path id="Trazado_237804" data-name="Trazado 237804" d="M1946.8,647.39a.557.557,0,0,0,.045,1.113A.557.557,0,0,0,1946.8,647.39Z" transform="translate(-1936.319 -624.27)" fill="#78244f"/>
          <path id="Trazado_237805" data-name="Trazado 237805" d="M1958.015,656.463a.6.6,0,0,0,.049,1.207A.6.6,0,0,0,1958.015,656.463Z" transform="translate(-1942.304 -629.132)" fill="#78244f"/>
          <path id="Trazado_237806" data-name="Trazado 237806" d="M1958.363,664.364a.578.578,0,0,0,.046,1.154A.578.578,0,0,0,1958.363,664.364Z" transform="translate(-1942.504 -633.365)" fill="#78244f"/>
          <path id="Trazado_237807" data-name="Trazado 237807" d="M1952.113,664.525a.5.5,0,0,0,.041,1.006A.5.5,0,0,0,1952.113,664.525Z" transform="translate(-1939.191 -633.452)" fill="#78244f"/>
          <path id="Trazado_237808" data-name="Trazado 237808" d="M1971.191,660.883a.773.773,0,0,0,.062,1.543A.773.773,0,0,0,1971.191,660.883Z" transform="translate(-1949.281 -631.5)" fill="#78244f"/>
          <path id="Trazado_237809" data-name="Trazado 237809" d="M1983.132,664.721a.652.652,0,0,0,.052,1.3A.652.652,0,0,0,1983.132,664.721Z" transform="translate(-1955.738 -633.556)" fill="#78244f"/>
          <path id="Trazado_237810" data-name="Trazado 237810" d="M1994.093,667.256a.45.45,0,0,0,.036.9A.45.45,0,0,0,1994.093,667.256Z" transform="translate(-1961.711 -634.915)" fill="#78244f"/>
          <path id="Trazado_237811" data-name="Trazado 237811" d="M1964.4,665.687a.672.672,0,0,0,.055,1.341A.672.672,0,0,0,1964.4,665.687Z" transform="translate(-1945.69 -634.074)" fill="#78244f"/>
          <path id="Trazado_237812" data-name="Trazado 237812" d="M1964.115,656.738a.6.6,0,0,0,.048,1.194A.6.6,0,0,0,1964.115,656.738Z" transform="translate(-1945.575 -629.279)" fill="#78244f"/>
          <path id="Trazado_237813" data-name="Trazado 237813" d="M1984.431,658.927a.4.4,0,0,0-.032-.8A.4.4,0,0,0,1984.431,658.927Z" transform="translate(-1956.54 -630.02)" fill="#78244f"/>
          <path id="Trazado_237814" data-name="Trazado 237814" d="M1976.045,667.121a.5.5,0,0,0,.04.992A.5.5,0,0,0,1976.045,667.121Z" transform="translate(-1952.017 -634.843)" fill="#78244f"/>
          <path id="Trazado_237815" data-name="Trazado 237815" d="M1955.958,648.749a.578.578,0,0,0,.047,1.154A.578.578,0,0,0,1955.958,648.749Z" transform="translate(-1941.215 -624.999)" fill="#78244f"/>
          <path id="Trazado_237816" data-name="Trazado 237816" d="M1944.663,633.659a.618.618,0,0,0,.05,1.234A.618.618,0,0,0,1944.663,633.659Z" transform="translate(-1935.143 -616.913)" fill="#78244f"/>
          <path id="Trazado_237817" data-name="Trazado 237817" d="M1936.732,627.85a.705.705,0,0,0-.057-1.408A.705.705,0,0,0,1936.732,627.85Z" transform="translate(-1930.82 -613.046)" fill="#78244f"/>
          <path id="Trazado_237818" data-name="Trazado 237818" d="M1941.054,614.92a.678.678,0,0,0,.054,1.355A.678.678,0,0,0,1941.054,614.92Z" transform="translate(-1933.179 -606.873)" fill="#78244f"/>
          <path id="Trazado_237819" data-name="Trazado 237819" d="M1935.865,614.488a.537.537,0,0,0-.043-1.073A.537.537,0,0,0,1935.865,614.488Z" transform="translate(-1930.446 -606.066)" fill="#78244f"/>
          <path id="Trazado_237820" data-name="Trazado 237820" d="M1933.4,623.951a.6.6,0,0,0-.048-1.194A.6.6,0,0,0,1933.4,623.951Z" transform="translate(-1929.09 -611.072)" fill="#78244f"/>
          <path id="Trazado_237821" data-name="Trazado 237821" d="M1942.938,604.092a.4.4,0,0,0-.033-.8A.4.4,0,0,0,1942.938,604.092Z" transform="translate(-1934.308 -600.64)" fill="#78244f"/>
          <path id="Trazado_237822" data-name="Trazado 237822" d="M1946.143,598.618a.517.517,0,0,0-.042-1.033A.517.517,0,0,0,1946.143,598.618Z" transform="translate(-1935.964 -597.585)" fill="#78244f"/>
          <path id="Trazado_237823" data-name="Trazado 237823" d="M1948.393,623.862a.551.551,0,0,0-.045-1.1A.551.551,0,0,0,1948.393,623.862Z" transform="translate(-1937.151 -611.074)" fill="#78244f"/>
          <path id="Trazado_237824" data-name="Trazado 237824" d="M1952.682,633.039a.678.678,0,0,0-.055-1.355A.678.678,0,0,0,1952.682,633.039Z" transform="translate(-1939.38 -615.855)" fill="#78244f"/>
          <path id="Trazado_237825" data-name="Trazado 237825" d="M1965.365,637.667a.6.6,0,0,0,.049,1.207A.6.6,0,0,0,1965.365,637.667Z" transform="translate(-1946.242 -619.061)" fill="#78244f"/>
          <path id="Trazado_237826" data-name="Trazado 237826" d="M1966.864,646.488a.484.484,0,0,0,.039.966A.484.484,0,0,0,1966.864,646.488Z" transform="translate(-1947.105 -623.787)" fill="#78244f"/>
          <path id="Trazado_237827" data-name="Trazado 237827" d="M1952.808,641.908a.658.658,0,0,0-.053-1.315A.658.658,0,0,0,1952.808,641.908Z" transform="translate(-1939.459 -620.629)" fill="#78244f"/>
          <path id="Trazado_237828" data-name="Trazado 237828" d="M1946.79,639.4a.5.5,0,0,0,.041,1.006A.5.5,0,0,0,1946.79,639.4Z" transform="translate(-1936.339 -619.989)" fill="#78244f"/>
          <path id="Trazado_237829" data-name="Trazado 237829" d="M1942.264,642.207a.578.578,0,0,0,.046,1.154A.578.578,0,0,0,1942.264,642.207Z" transform="translate(-1933.877 -621.493)" fill="#78244f"/>
          <path id="Trazado_237830" data-name="Trazado 237830" d="M1941.02,649.24a.584.584,0,0,0-.047-1.167A.584.584,0,0,0,1941.02,649.24Z" transform="translate(-1933.182 -624.636)" fill="#78244f"/>
          <path id="Trazado_237831" data-name="Trazado 237831" d="M1934.495,647.2a.685.685,0,0,0-.055-1.368A.685.685,0,0,0,1934.495,647.2Z" transform="translate(-1929.632 -623.437)" fill="#78244f"/>
          <path id="Trazado_237832" data-name="Trazado 237832" d="M1925.281,652.685a.5.5,0,0,0,.04,1.006A.5.5,0,0,0,1925.281,652.685Z" transform="translate(-1924.815 -627.108)" fill="#78244f"/>
          <path id="Trazado_237833" data-name="Trazado 237833" d="M1939.806,659.155a.672.672,0,0,0-.054-1.341A.672.672,0,0,0,1939.806,659.155Z" transform="translate(-1932.485 -629.855)" fill="#78244f"/>
          <path id="Trazado_237834" data-name="Trazado 237834" d="M1926,659.842a.578.578,0,0,0,.047,1.154A.578.578,0,0,0,1926,659.842Z" transform="translate(-1925.162 -630.942)" fill="#78244f"/>
          <path id="Trazado_237835" data-name="Trazado 237835" d="M1935.007,666.945a.7.7,0,0,0,.056,1.395A.7.7,0,0,0,1935.007,666.945Z" transform="translate(-1929.929 -634.748)" fill="#78244f"/>
          <path id="Trazado_237836" data-name="Trazado 237836" d="M1946.943,660.534A.685.685,0,0,0,1947,661.9.685.685,0,0,0,1946.943,660.534Z" transform="translate(-1936.332 -631.313)" fill="#78244f"/>
          <path id="Trazado_237837" data-name="Trazado 237837" d="M1949.938,651.155a.611.611,0,0,0-.05-1.221A.611.611,0,0,0,1949.938,651.155Z" transform="translate(-1937.946 -625.633)" fill="#78244f"/>
          <path id="Trazado_237838" data-name="Trazado 237838" d="M1954.693,660.994a.564.564,0,0,0,.046,1.127A.564.564,0,0,0,1954.693,660.994Z" transform="translate(-1940.544 -631.56)" fill="#78244f"/>
          <path id="Trazado_237839" data-name="Trazado 237839" d="M1944.358,629.355a.5.5,0,0,0-.041-1.006A.5.5,0,0,0,1944.358,629.355Z" transform="translate(-1935.014 -614.068)" fill="#78244f"/>
          <path id="Trazado_237840" data-name="Trazado 237840" d="M1938.609,634.883a.638.638,0,0,0-.051-1.274A.638.638,0,0,0,1938.609,634.883Z" transform="translate(-1931.861 -616.886)" fill="#78244f"/>
          <path id="Trazado_237841" data-name="Trazado 237841" d="M1930.623,628.686a.289.289,0,0,0-.023-.577A.289.289,0,0,0,1930.623,628.686Z" transform="translate(-1927.771 -613.94)" fill="#78244f"/>
          <path id="Trazado_237842" data-name="Trazado 237842" d="M1940.643,622.133a.625.625,0,0,0-.051-1.248A.625.625,0,0,0,1940.643,622.133Z" transform="translate(-1932.959 -610.069)" fill="#78244f"/>
          <path id="Trazado_237843" data-name="Trazado 237843" d="M1957.939,641.321a.578.578,0,0,0,.046,1.154A.578.578,0,0,0,1957.939,641.321Z" transform="translate(-1942.276 -621.019)" fill="#78244f"/>
          <path id="Trazado_237844" data-name="Trazado 237844" d="M1962.154,648.487a.7.7,0,0,0,.056,1.395A.7.7,0,0,0,1962.154,648.487Z" transform="translate(-1944.475 -624.858)" fill="#78244f"/>
          <path id="Trazado_237845" data-name="Trazado 237845" d="M1976.114,655.151a.692.692,0,0,0-.055-1.381A.692.692,0,0,0,1976.114,655.151Z" transform="translate(-1951.928 -627.688)" fill="#78244f"/>
          <path id="Trazado_237846" data-name="Trazado 237846" d="M1964.267,661.217a.625.625,0,0,0-.051-1.248A.625.625,0,0,0,1964.267,661.217Z" transform="translate(-1945.617 -631.01)" fill="#78244f"/>
          <path id="Trazado_237847" data-name="Trazado 237847" d="M1977.421,658.814a.793.793,0,0,0,.064,1.583A.793.793,0,0,0,1977.421,658.814Z" transform="translate(-1952.609 -630.391)" fill="#78244f"/>
          <path id="Trazado_237848" data-name="Trazado 237848" d="M1968.966,650.3a.557.557,0,0,0,.044,1.113A.557.557,0,0,0,1968.966,650.3Z" transform="translate(-1948.195 -625.828)" fill="#78244f"/>
          <path id="Trazado_237849" data-name="Trazado 237849" d="M1971.966,666.277a.725.725,0,0,0,.058,1.449A.725.725,0,0,0,1971.966,666.277Z" transform="translate(-1949.719 -634.39)" fill="#78244f"/>
          <path id="Trazado_237850" data-name="Trazado 237850" d="M1986.376,667.006a.705.705,0,0,0,.057,1.409A.705.705,0,0,0,1986.376,667.006Z" transform="translate(-1957.45 -634.781)" fill="#78244f"/>
          <path id="Trazado_237851" data-name="Trazado 237851" d="M1988.769,661.573a.712.712,0,0,0,.058,1.422A.712.712,0,0,0,1988.769,661.573Z" transform="translate(-1958.728 -631.87)" fill="#78244f"/>
        </g>
      </g>
    </g>
    <g id="Grupo_876804" data-name="Grupo 876804" transform="translate(1722.665 301.978)">
      <path id="Trazado_237852" data-name="Trazado 237852" d="M1773.512,599.058c5.89-3.382,12.879-1.444,18.34,3.8s9.492,13.468,12.141,22.35a18.938,18.938,0,0,1,.887,4.331,6.716,6.716,0,0,1-.9,4.1,3.987,3.987,0,0,1-2.343,1.458c-9.783,2.721-19.272,3.422-30.288,2.963-3.488-.145-7.193-1.277-9.763-4.923a16.545,16.545,0,0,1-2.663-9.346c.043-5.56,3.1-10.06,5.311-14.024C1766.758,605.243,1769.788,601.195,1773.512,599.058Z" transform="translate(-1758.926 -597.374)" fill="#f4e0ec"/>
      <g id="Grupo_876803" data-name="Grupo 876803" transform="translate(0 6.48)">
        <path id="Trazado_237853" data-name="Trazado 237853" d="M1801.265,641.489a6.985,6.985,0,0,0-2.417.056,38.157,38.157,0,0,1-16.027-.782c-5.162-1.551-9.948-4.852-12.477-9.612a20.794,20.794,0,0,1-2.207-8,47.663,47.663,0,0,1,.117-7.594,13.519,13.519,0,0,0-.1-4.229,41.7,41.7,0,0,0-3.915,5.914c-2.209,3.964-5.268,8.464-5.311,14.024a16.545,16.545,0,0,0,2.663,9.346c2.57,3.647,6.275,4.778,9.763,4.923,11.015.459,20.5-.242,30.288-2.963a6.356,6.356,0,0,0,.961-.342A2.562,2.562,0,0,0,1801.265,641.489Z" transform="translate(-1758.926 -611.333)" fill="#e7b7d2"/>
      </g>
    </g>
    <g id="Grupo_876805" data-name="Grupo 876805" transform="translate(1693.361 270.323)">
      <path id="Trazado_237854" data-name="Trazado 237854" d="M1723.488,570.961c-.42-1.327.641-2.635,1.674-3.567s2.225-2.016,2.148-3.406a3.265,3.265,0,0,0-2.447-2.627,34.191,34.191,0,0,0-3.762-.629,3.984,3.984,0,0,1-3.031-2.062,3.629,3.629,0,0,1,1.221-3.869,19.184,19.184,0,0,1,3.7-2.222,5.672,5.672,0,0,0,2.894-3.065c.6-2.033-.893-4.226-2.829-5.088a11.176,11.176,0,0,0-6.257-.374c-1.641.256-3.7.428-4.58-.98a3.128,3.128,0,0,1,.063-2.917c.424-.921,1.07-1.727,1.485-2.653a5.932,5.932,0,0,0-9.231-6.975,6.014,6.014,0,0,0-1.148,7.54c.877,1.382,2.4,2.566,2.337,4.2-.066,1.7-1.806,2.771-3.337,3.513s-3.283,1.764-3.415,3.461c-.133,1.713,1.484,3.008,2.983,3.849s3.23,1.774,3.611,3.45c.412,1.813-.99,3.514-2.415,4.707-1.449,1.214-3.035,2.265-4.406,3.567a8.971,8.971,0,0,0-2.866,4.78,4.8,4.8,0,0,0,2,4.939,10.711,10.711,0,0,0,3.461.916,4.107,4.107,0,0,1,2.993,1.774,8.436,8.436,0,0,1,.514,2.527,5.649,5.649,0,0,0,2.934,3.974c1.742.895,3.066.341,4.844.218,1.8-.125,3.251.2,4.994-.637a15.916,15.916,0,0,0,2.534-1.634l4.695-3.467c1.149-.849,2.437-2.047,2.107-3.436C1726.543,573.066,1724.017,572.633,1723.488,570.961Z" transform="translate(-1695.796 -529.182)" fill="#5b2ac7"/>
      <path id="Trazado_237855" data-name="Trazado 237855" d="M1731.579,615.364l-.464-.325-6.57,4.382-.13-12.368h-.97l-.077,6.725-6.52-4.349-.464.325,6.974,5.12-.282,29.758h1.708l-.229-24.112Z" transform="translate(-1706.827 -570.906)" fill="#391c77"/>
    </g>
    <g id="Grupo_876806" data-name="Grupo 876806" transform="translate(1706.513 246.153)">
      <path id="Trazado_237856" data-name="Trazado 237856" d="M1735.849,551.61a8.542,8.542,0,0,0,.6-3.012,3.521,3.521,0,0,0-2.613-2.542c-1.224-.383-2.533-.4-3.775-.723a7.925,7.925,0,0,1-2.716-14.049c1.5-1.1,3.323-1.645,4.954-2.534s3.176-2.334,3.317-4.186c.146-1.919-1.259-3.619-2.817-4.747s-3.367-1.94-4.7-3.326a7.776,7.776,0,0,1,1.217-11.344c1.728-1.158,3.85-1.54,5.748-2.392s3.734-2.506,3.684-4.586c-.054-2.223-2.138-3.753-3.509-5.5a9.669,9.669,0,1,1,16.782-2.894c-.607,1.814-1.736,3.407-2.488,5.167s-1.085,3.884-.1,5.524c2.349,3.91,9.331,1.647,12.194,5.2,1.644,2.04,1.073,5.135-.325,7.35s-3.471,3.929-4.974,6.074-2.369,5.1-1.035,7.358c.971,1.64,2.831,2.48,4.419,3.533s3.109,2.762,2.739,4.631c-.66,3.328-6.264,3.49-7.137,6.768-.521,1.958.992,3.826,1.458,5.8C1759.59,559.143,1733.5,562.249,1735.849,551.61Z" transform="translate(-1724.13 -477.112)" fill="#c2b1ea"/>
      <path id="Trazado_237857" data-name="Trazado 237857" d="M1766.838,608.683l-.507-.355-7.174,4.785-.142-13.505h-1.059l-.084,7.344-7.12-4.749-.507.355,7.616,5.591-.308,32.5h1.865l-.25-26.33Z" transform="translate(-1738.123 -542.746)" fill="#391c77"/>
    </g>
    <g id="Grupo_876810" data-name="Grupo 876810" transform="translate(1815.285 70.339)">
      <g id="Grupo_876807" data-name="Grupo 876807" transform="translate(0 0)">
        <circle id="Elipse_7397" data-name="Elipse 7397" cx="45.98" cy="45.98" r="45.98" fill="#fdf9e3"/>
        <circle id="Elipse_7398" data-name="Elipse 7398" cx="36.573" cy="36.573" r="36.573" transform="translate(9.408 9.408)" fill="#faedb2"/>
        <circle id="Elipse_7399" data-name="Elipse 7399" cx="31.789" cy="31.789" r="31.789" transform="translate(9.51 19.694) rotate(-9.217)" fill="#958e6b"/>
        <circle id="Elipse_7400" data-name="Elipse 7400" cx="26.147" cy="26.147" r="26.147" transform="translate(11.817 60.131) rotate(-67.5)" fill="#faedb2"/>
      </g>
      <g id="Grupo_876809" data-name="Grupo 876809" transform="translate(24.636 24.636)">
        <g id="Grupo_876808" data-name="Grupo 876808">
          <path id="Trazado_237858" data-name="Trazado 237858" d="M2047.962,151.437a26.14,26.14,0,0,1-36.438,36.438,26.143,26.143,0,1,0,36.438-36.438Z" transform="translate(-2011.524 -151.437)" fill="#c7bd8d"/>
        </g>
      </g>
    </g>
    <g id="Grupo_876811" data-name="Grupo 876811" transform="translate(1864.818 137.005)">
      <path id="Trazado_237859" data-name="Trazado 237859" d="M2074.708,259.347a9.535,9.535,0,0,1,2.968.473,8.277,8.277,0,0,1,12.15-10.345,11.919,11.919,0,0,1,22.762,2.118,13.85,13.85,0,1,1,4.762,26.856h-42.642a9.551,9.551,0,0,1,0-19.1Z" transform="translate(-2065.158 -241.979)" fill="#f4e0ec"/>
      <path id="Trazado_237860" data-name="Trazado 237860" d="M2113.039,285.528a13.846,13.846,0,0,0,12.023-20.717,13.847,13.847,0,0,1-6.869,25.872h-42.642a9.554,9.554,0,0,1-8.821-5.885,9.515,9.515,0,0,0,3.667.731Z" transform="translate(-2066.001 -254.212)" fill="#e7b7d2"/>
    </g>
    <g id="Grupo_876812" data-name="Grupo 876812" transform="translate(1883.64 46.059)">
      <path id="Trazado_237861" data-name="Trazado 237861" d="M2112.534,58.475a6.82,6.82,0,0,1,2.121.338,5.917,5.917,0,0,1,8.686-7.4,8.521,8.521,0,0,1,16.272,1.514,9.9,9.9,0,1,1,3.4,19.2h-30.484a6.828,6.828,0,1,1,0-13.656Z" transform="translate(-2105.706 -46.059)" fill="#f4e0ec"/>
      <path id="Trazado_237862" data-name="Trazado 237862" d="M2139.936,77.191a9.9,9.9,0,0,0,8.595-14.81,9.9,9.9,0,0,1-4.91,18.5h-30.484a6.829,6.829,0,0,1-6.305-4.207,6.8,6.8,0,0,0,2.621.522Z" transform="translate(-2106.309 -54.804)" fill="#e7b7d2"/>
    </g>
    <g id="Grupo_876831" data-name="Grupo 876831" transform="translate(1887.18 213.983)">
      <g id="Grupo_876818" data-name="Grupo 876818" transform="translate(20.101 37.624)">
        <g id="Grupo_876816" data-name="Grupo 876816">
          <path id="Trazado_237863" data-name="Trazado 237863" d="M2188.035,532.623H2187l-.724,60.743h2.455Z" transform="translate(-2172.515 -512.309)" fill="#fff"/>
          <path id="Trazado_237864" data-name="Trazado 237864" d="M2185.471,522.684,2184,525.117a.867.867,0,0,0,.742,1.317h2.948a.867.867,0,0,0,.742-1.317l-1.475-2.433A.867.867,0,0,0,2185.471,522.684Z" transform="translate(-2171.227 -506.759)" fill="#e0e0e0"/>
          <g id="Grupo_876813" data-name="Grupo 876813" transform="translate(0 19.359)">
            <path id="Trazado_237865" data-name="Trazado 237865" d="M2163.78,532.973l5.321-2.408-12.169,8.511a.187.187,0,0,1-.226-.3Z" transform="translate(-2156.634 -530.565)" fill="#fff"/>
            <path id="Trazado_237866" data-name="Trazado 237866" d="M2165.261,534.737l4.087-4.172-12.169,8.511a.187.187,0,0,0,.2.314Z" transform="translate(-2156.882 -530.565)" fill="#f2f2f2"/>
          </g>
          <g id="Grupo_876814" data-name="Grupo 876814" transform="translate(17.506 19.359)">
            <path id="Trazado_237867" data-name="Trazado 237867" d="M2199.667,532.973l-5.321-2.408,12.169,8.511a.187.187,0,0,0,.226-.3Z" transform="translate(-2194.347 -530.565)" fill="#f2f2f2"/>
            <path id="Trazado_237868" data-name="Trazado 237868" d="M2198.434,534.737l-4.087-4.172,12.169,8.511a.187.187,0,0,1-.2.314Z" transform="translate(-2194.347 -530.565)" fill="#fff"/>
          </g>
          <g id="Grupo_876815" data-name="Grupo 876815" transform="translate(13.91)">
            <path id="Trazado_237869" data-name="Trazado 237869" d="M2190,498.158l-1.076,5.74v-14.85a.187.187,0,0,1,.374-.014Z" transform="translate(-2187.844 -488.861)" fill="#fff"/>
            <path id="Trazado_237870" data-name="Trazado 237870" d="M2186.6,498.158l1.076,5.74v-14.85a.187.187,0,0,0-.373-.014Z" transform="translate(-2186.601 -488.861)" fill="#f2f2f2"/>
          </g>
        </g>
        <g id="Grupo_876817" data-name="Grupo 876817" transform="translate(12.642 15.507)">
          <path id="Trazado_237871" data-name="Trazado 237871" d="M2185.364,525.092a2.729,2.729,0,0,0,1.538-.864,2.135,2.135,0,0,0,.489-1.08l-.281-.464a.867.867,0,0,0-1.484,0l-1.468,2.421A3.278,3.278,0,0,0,2185.364,525.092Z" transform="translate(-2184.024 -522.266)" fill="none"/>
          <path id="Trazado_237872" data-name="Trazado 237872" d="M2185.209,526.11a3.281,3.281,0,0,1-1.206.013l-.007.012a.867.867,0,0,0,.742,1.317h2.948a.867.867,0,0,0,.742-1.317l-1.193-1.969a2.135,2.135,0,0,1-.489,1.08A2.73,2.73,0,0,1,2185.209,526.11Z" transform="translate(-2183.869 -523.284)" fill="#d6d6d6"/>
        </g>
      </g>
      <g id="Grupo_876824" data-name="Grupo 876824">
        <g id="Grupo_876822" data-name="Grupo 876822">
          <path id="Trazado_237873" data-name="Trazado 237873" d="M2162.92,476.672h-1.572l-1.1,86.715h3.722Z" transform="translate(-2138.471 -444.707)" fill="#fff"/>
          <path id="Trazado_237874" data-name="Trazado 237874" d="M2159.033,461.6l-2.236,3.689a1.316,1.316,0,0,0,1.125,2h4.472a1.316,1.316,0,0,0,1.125-2l-2.236-3.689A1.316,1.316,0,0,0,2159.033,461.6Z" transform="translate(-2136.518 -436.292)" fill="#e0e0e0"/>
          <g id="Grupo_876819" data-name="Grupo 876819" transform="translate(0 30.517)">
            <path id="Trazado_237875" data-name="Trazado 237875" d="M2125.083,477.2l8.068-3.651-19.443,13.6a.237.237,0,0,1-.287-.377Z" transform="translate(-2113.332 -473.551)" fill="#fff"/>
            <path id="Trazado_237876" data-name="Trazado 237876" d="M2127.269,479.877l6.2-6.326-19.443,13.6a.237.237,0,0,0,.257.4Z" transform="translate(-2113.646 -473.551)" fill="#f2f2f2"/>
          </g>
          <g id="Grupo_876820" data-name="Grupo 876820" transform="translate(27.461 30.517)">
            <path id="Trazado_237877" data-name="Trazado 237877" d="M2180.559,477.2l-8.068-3.651,19.443,13.6a.237.237,0,0,0,.286-.377Z" transform="translate(-2172.491 -473.551)" fill="#f2f2f2"/>
            <path id="Trazado_237878" data-name="Trazado 237878" d="M2178.688,479.877l-6.2-6.326,19.443,13.6a.237.237,0,0,1-.257.4Z" transform="translate(-2172.491 -473.551)" fill="#fff"/>
          </g>
          <g id="Grupo_876821" data-name="Grupo 876821" transform="translate(22.01)">
            <path id="Trazado_237879" data-name="Trazado 237879" d="M2165.9,423.07l-1.632,8.7V408.047a.237.237,0,0,1,.474-.018Z" transform="translate(-2162.631 -407.81)" fill="#fff"/>
            <path id="Trazado_237880" data-name="Trazado 237880" d="M2160.747,423.07l1.632,8.7V408.047a.237.237,0,0,0-.473-.018Z" transform="translate(-2160.747 -407.81)" fill="#f2f2f2"/>
          </g>
        </g>
        <g id="Grupo_876823" data-name="Grupo 876823" transform="translate(20.087 24.675)">
          <path id="Trazado_237881" data-name="Trazado 237881" d="M2158.87,465.252a4.137,4.137,0,0,0,2.332-1.31,3.24,3.24,0,0,0,.741-1.638l-.427-.7a1.316,1.316,0,0,0-2.25,0l-2.225,3.671A4.971,4.971,0,0,0,2158.87,465.252Z" transform="translate(-2156.839 -460.967)" fill="none"/>
          <path id="Trazado_237882" data-name="Trazado 237882" d="M2158.636,466.8a4.971,4.971,0,0,1-1.828.02l-.01.018a1.316,1.316,0,0,0,1.125,2h4.472a1.316,1.316,0,0,0,1.125-2l-1.809-2.985a3.242,3.242,0,0,1-.741,1.638A4.136,4.136,0,0,1,2158.636,466.8Z" transform="translate(-2156.605 -462.511)" fill="#d6d6d6"/>
        </g>
      </g>
      <g id="Grupo_876830" data-name="Grupo 876830" transform="translate(1.569 57.243)">
        <g id="Grupo_876828" data-name="Grupo 876828">
          <path id="Trazado_237883" data-name="Trazado 237883" d="M2137.374,560.265h-.772l-.539,47.912h1.829Z" transform="translate(-2127.081 -546.738)" fill="#fff"/>
          <path id="Trazado_237884" data-name="Trazado 237884" d="M2135.465,552.86l-1.1,1.812a.646.646,0,0,0,.553.981h2.2a.646.646,0,0,0,.552-.981l-1.1-1.812A.646.646,0,0,0,2135.465,552.86Z" transform="translate(-2126.121 -542.604)" fill="#e0e0e0"/>
          <g id="Grupo_876825" data-name="Grupo 876825" transform="translate(0 12.815)">
            <path id="Trazado_237885" data-name="Trazado 237885" d="M2120.768,560.525l3.964-1.794-7.7,5.383a.2.2,0,0,1-.246-.324Z" transform="translate(-2116.712 -558.731)" fill="#fff"/>
            <path id="Trazado_237886" data-name="Trazado 237886" d="M2121.958,561.839l3.044-3.108-7.7,5.383a.2.2,0,0,0,.22.342Z" transform="translate(-2116.983 -558.731)" fill="#f2f2f2"/>
          </g>
          <g id="Grupo_876826" data-name="Grupo 876826" transform="translate(11.774 12.815)">
            <path id="Trazado_237887" data-name="Trazado 237887" d="M2146.04,560.525l-3.964-1.794,7.7,5.383a.2.2,0,0,0,.246-.324Z" transform="translate(-2142.076 -558.731)" fill="#f2f2f2"/>
            <path id="Trazado_237888" data-name="Trazado 237888" d="M2145.12,561.839l-3.044-3.108,7.7,5.383a.2.2,0,0,1-.22.342Z" transform="translate(-2142.076 -558.731)" fill="#fff"/>
          </g>
          <g id="Grupo_876827" data-name="Grupo 876827" transform="translate(9.096)">
            <path id="Trazado_237889" data-name="Trazado 237889" d="M2138.835,536.444l-.8,4.276v-9.392a.2.2,0,0,1,.406-.016Z" transform="translate(-2137.232 -531.125)" fill="#fff"/>
            <path id="Trazado_237890" data-name="Trazado 237890" d="M2136.307,536.444l.8,4.276v-9.392a.2.2,0,0,0-.407-.016Z" transform="translate(-2136.307 -531.125)" fill="#f2f2f2"/>
          </g>
        </g>
        <g id="Grupo_876829" data-name="Grupo 876829" transform="translate(8.151 9.945)">
          <path id="Trazado_237891" data-name="Trazado 237891" d="M2135.385,554.654a2.033,2.033,0,0,0,1.146-.644,1.586,1.586,0,0,0,.364-.8l-.21-.346a.646.646,0,0,0-1.105,0l-1.093,1.8A2.447,2.447,0,0,0,2135.385,554.654Z" transform="translate(-2134.387 -552.548)" fill="none"/>
          <path id="Trazado_237892" data-name="Trazado 237892" d="M2135.27,555.412a2.444,2.444,0,0,1-.9.01l-.005.008a.646.646,0,0,0,.553.981h2.2a.646.646,0,0,0,.552-.981l-.889-1.466a1.585,1.585,0,0,1-.364.8A2.032,2.032,0,0,1,2135.27,555.412Z" transform="translate(-2134.272 -553.307)" fill="#d6d6d6"/>
        </g>
      </g>
    </g>
    <g id="Grupo_876834" data-name="Grupo 876834" transform="translate(1871.962 301.962)">
      <path id="Trazado_237893" data-name="Trazado 237893" d="M2112.427,611.418a38.84,38.84,0,0,0-5.484-9.04,13.738,13.738,0,0,0-7.351-4.876c-4.094-.817-8.24,1.53-11.354,5.479s-5.281,9.373-6.807,15.087a23.216,23.216,0,0,0-.863,4.716,9.9,9.9,0,0,0,.77,4.722,5.531,5.531,0,0,0,4.74,3.281,186.547,186.547,0,0,0,27.2-.49,6.162,6.162,0,0,0,3.662-1.8c1.251-1.209.255-3.283-.217-5.052A75.687,75.687,0,0,0,2112.427,611.418Z" transform="translate(-2080.548 -597.34)" fill="#f4e0ec"/>
      <g id="Grupo_876833" data-name="Grupo 876833" transform="translate(3.976 5.136)">
        <g id="Grupo_876832" data-name="Grupo 876832">
          <path id="Trazado_237894" data-name="Trazado 237894" d="M2113.125,612.127a19.97,19.97,0,0,1,.814,8.331,14.848,14.848,0,0,1-1.337,4.557c-1.993,4.118-5.92,7.053-10.175,8.733-4.224,1.667-8.792,2.23-13.314,2.654a5.29,5.29,0,0,0,1.554.312,186.539,186.539,0,0,0,27.2-.49,6.163,6.163,0,0,0,3.662-1.8c1.251-1.209.254-3.283-.218-5.052a75.687,75.687,0,0,0-4.294-12.026,39.11,39.11,0,0,0-5.4-8.943,16.208,16.208,0,0,0,.795,1.692Q2112.81,611.1,2113.125,612.127Z" transform="translate(-2089.113 -608.403)" fill="#e7b7d2"/>
        </g>
      </g>
    </g>
    <g id="Grupo_876835" data-name="Grupo 876835" transform="translate(1870.194 288.796)">
      <path id="Trazado_237895" data-name="Trazado 237895" d="M2095.408,597.164c-.281-.9.436-1.775,1.134-2.4s1.5-1.356,1.452-2.293a2.2,2.2,0,0,0-1.646-1.774,22.959,22.959,0,0,0-2.535-.43,2.684,2.684,0,0,1-2.041-1.394,2.446,2.446,0,0,1,.829-2.607,12.916,12.916,0,0,1,2.495-1.493,3.825,3.825,0,0,0,1.956-2.062,3.086,3.086,0,0,0-1.9-3.434,7.537,7.537,0,0,0-4.218-.261c-1.106.17-2.494.284-3.086-.667a2.109,2.109,0,0,1,.046-1.966c.287-.62.724-1.163,1.005-1.786a4,4,0,0,0-6.214-4.715,4.055,4.055,0,0,0-.785,5.081c.59.933,1.615,1.733,1.57,2.836-.048,1.146-1.222,1.866-2.255,2.363s-2.216,1.185-2.307,2.328,1,2.03,2.006,2.6,2.175,1.2,2.429,2.331c.275,1.223-.673,2.367-1.635,3.17-.979.817-2.05,1.523-2.975,2.4a6.044,6.044,0,0,0-1.939,3.219,3.235,3.235,0,0,0,1.34,3.333,7.225,7.225,0,0,0,2.332.622,2.769,2.769,0,0,1,2.015,1.2,5.687,5.687,0,0,1,.344,1.7,3.808,3.808,0,0,0,1.972,2.683c1.174.606,2.067.235,3.265.154,1.217-.082,2.192.136,3.368-.422a10.744,10.744,0,0,0,1.711-1.1l3.169-2.33c.776-.57,1.646-1.376,1.426-2.314C2097.464,598.588,2095.762,598.292,2095.408,597.164Z" transform="translate(-2076.74 -568.977)" fill="#5b2ac7"/>
      <path id="Trazado_237896" data-name="Trazado 237896" d="M2100.863,627.1l-.312-.22-4.436,2.945-.07-8.338h-.654l-.061,4.534-4.39-2.941-.313.218,4.695,3.462-.233,20.062,1.152,0-.12-16.256Z" transform="translate(-2084.181 -597.112)" fill="#391c77"/>
    </g>
    <g id="Grupo_876836" data-name="Grupo 876836" transform="translate(1863.455 296.46)">
      <path id="Trazado_237897" data-name="Trazado 237897" d="M2067.371,617.352a3.638,3.638,0,0,0,.222-1.291,1.5,1.5,0,0,0-1.142-1.057c-.526-.15-1.085-.144-1.618-.268a3.382,3.382,0,0,1-1.308-5.966,17.467,17.467,0,0,1,2.087-1.134,2.439,2.439,0,0,0,1.371-1.821,2.467,2.467,0,0,0-1.253-2,13.966,13.966,0,0,1-2.042-1.369,3.318,3.318,0,0,1,.4-4.853,15.862,15.862,0,0,1,2.427-1.082,2.332,2.332,0,0,0,1.523-2c-.046-.948-.951-1.579-1.555-2.311a4.127,4.127,0,1,1,7.13-1.413c-.24.781-.7,1.472-1.007,2.231a2.643,2.643,0,0,0,.016,2.358c1.044,1.643,4,.6,5.258,2.089a2.783,2.783,0,0,1-.06,3.14c-.573.961-1.44,1.713-2.058,2.645a3,3,0,0,0-.364,3.15,5.462,5.462,0,0,0,1.923,1.46,2.126,2.126,0,0,1,1.218,1.947c-.246,1.427-2.635,1.555-2.973,2.963-.2.842.464,1.622.683,2.459C2077.581,620.314,2066.482,621.917,2067.371,617.352Z" transform="translate(-2062.222 -585.487)" fill="#c2b1ea"/>
      <path id="Trazado_237898" data-name="Trazado 237898" d="M2080.495,641.5l-.22-.146-3.01,2.118-.2-5.761-.452.011.042,3.134-3.089-1.951-.212.157,3.309,2.3.213,13.869.8-.02-.386-11.232Z" transform="translate(-2068.184 -613.469)" fill="#391c77"/>
    </g>
    <g id="Grupo_876837" data-name="Grupo 876837" transform="translate(1775.477 307.754)">
      <rect id="Rectángulo_296971" data-name="Rectángulo 296971" width="34.16" height="24.321" transform="translate(0)" fill="#fff"/>
      <path id="Trazado_237899" data-name="Trazado 237899" d="M1872.7,634.138h34.16V609.817Z" transform="translate(-1872.696 -609.817)" fill="#f7f7f7"/>
      <path id="Trazado_237900" data-name="Trazado 237900" d="M1905.85,609.817H1872.7V617.7h0v.7h0v7.161h0v.7h0v7.882h34.16V609.817Zm-6,1.007V617.7H1893.6v-6.875Zm6,14.734h-5.3V618.4h5.3Zm-6,0H1893.6V618.4h6.248Zm-13.195-7.161h6.249v7.161h-6.249Zm-.7,7.161h-6.248V618.4h6.248Zm6.947-14.734V617.7h-6.249v-6.875Zm-6.947,0V617.7h-6.248v-6.875Zm-12.251,0h5.3V617.7h-5.3Zm0,7.573h5.3v7.161h-5.3Zm0,14.734v-6.875h5.3v6.875Zm6,0v-6.875h6.248v6.875Zm6.946,0v-6.875h6.249v6.875Zm6.947,0v-6.875h6.248v6.875Zm6.947,0v-6.875h5.3v6.875Zm5.3-15.433h-5.3v-6.875h5.3Z" transform="translate(-1872.696 -609.817)" fill="url(#linear-gradient)"/>
      <path id="Trazado_237901" data-name="Trazado 237901" d="M1906.5,679.474h-3.832a2.339,2.339,0,0,0-2.339,2.339h8.51A2.339,2.339,0,0,0,1906.5,679.474Z" transform="translate(-1887.5 -647.139)" fill="#d6d6d6"/>
      <rect id="Rectángulo_296972" data-name="Rectángulo 296972" width="1.177" height="8.994" transform="translate(16.492 23.818)" fill="#d6d6d6"/>
    </g>
    <path id="Trazado_237902" data-name="Trazado 237902" d="M2368.377,284.249a22.807,22.807,0,0,0-9.671-2.133c-3.758-.116-7.525.24-11.273.463q-6.343.379-12.69.67c-8.377.385-16.757.635-25.14.818-7.607.166-15.28.4-22.744,2.008a47.991,47.991,0,0,0-10.591,3.486c-2.789,1.332-5.59,3.715-5.37,7.115.2,3.041,3.011,4.574,5.7,5.1,3.318.651,6.752.6,10.1,1.005a24.615,24.615,0,0,1,5.225,1.148c1.495.527,3.463,1.351,4.388,2.71,1.337,1.967-1.909,2.515-3.187,2.771a42.536,42.536,0,0,1-5.4.672c-6.675.469-14.573-.11-20.379,3.856-2.388,1.632-4.572,4.386-3.9,7.451s3.922,4.523,6.688,5.19c3.791.914,7.724.831,11.595.79a53.391,53.391,0,0,1,5.859.112c1.238.124,3.1.473,3.555,1.835.613,1.817-1.691,3.319-3.034,3.967a27.324,27.324,0,0,1-4.881,1.63c-3.031.807-6.64,1.627-8.818,4.075a4.545,4.545,0,0,0-1.3,3.951,4.187,4.187,0,0,0,2.721,2.692,11.838,11.838,0,0,1,1.946.866c1.07.708.97,1.395.291,2.37a11.658,11.658,0,0,0-1.966,4.681,6.979,6.979,0,0,0,.327,4.481,2.088,2.088,0,0,0,2.916,1.061.988.988,0,0,0,.106-1.621c.077-3.388,4.286-5.534,7-6.689a47.365,47.365,0,0,1,10.216-2.82c3.505-.633,7.045-1.073,10.538-1.771a36.953,36.953,0,0,0,9.762-3c2.385-1.238,5.006-3.486,4.895-6.431-.116-3.056-2.872-4.694-5.308-5.92a9.024,9.024,0,0,1-3.887-2.952c-1.052-1.717.02-3.3,1.407-4.4,2.465-1.957,5.637-2.61,8.7-2.911,3.1-.306,6.23-.319,9.322-.76,2.908-.415,6.269-1.212,8.353-3.443a4.337,4.337,0,0,0-.163-6.495,22.064,22.064,0,0,0-2.8-1.932c-.808-.524-1.8-1.156-2.076-2.144-.478-1.733,1.51-3.1,2.823-3.753a14.912,14.912,0,0,1,5.01-1.3c3.712-.422,7.429-.59,11.124-1.186a84.933,84.933,0,0,0,11.753-2.763c2.886-.9,6.227-2.263,6.995-5.545S2370.98,285.57,2368.377,284.249Z" transform="translate(-306.517 -126.468)" fill="#f1f2f7"/>
    <path id="Trazado_237903" data-name="Trazado 237903" d="M2296.5,543.062h-33.178l7.782-105.649h17.613Z" transform="translate(-306.517 -209.689)" fill="#f1f2f7"/>
    <g id="Grupo_876838" data-name="Grupo 876838" transform="translate(1956.805 227.724)">
      <path id="Trazado_237904" data-name="Trazado 237904" d="M2263.323,543.062l7.782-105.649h8.807V543.062Z" transform="translate(-2263.323 -437.413)" fill="#dedfea"/>
    </g>
    <rect id="Rectángulo_296973" data-name="Rectángulo 296973" width="20.57" height="2.272" transform="translate(1983.909 238.885) rotate(180)" fill="#626475"/>
    <rect id="Rectángulo_296974" data-name="Rectángulo 296974" width="21.452" height="2.272" transform="translate(1984.35 245.412) rotate(180)" fill="#626475"/>
    <path id="Trazado_237905" data-name="Trazado 237905" d="M2669.564,358.255a19.919,19.919,0,0,0-5.657-.876,7.6,7.6,0,0,1-3.978-1.236,3.148,3.148,0,0,1-1.145-3.718c1.088-2.169,5.215-3.62,6.295-5.793.678-1.363-.314-4.122-1.6-4.943a9.432,9.432,0,0,0-4.386-1.092c-15.136-1.24-30.546-.026-45.728-.328a29.057,29.057,0,0,0-12.735,2.342,9.213,9.213,0,0,0-3.563,2.488,4.035,4.035,0,0,0-.688,4.107c.583,1.223,1.968,2.073,2.095,3.422.185,1.952-2.268,2.975-4.221,3.149-2.222.2-4.471.117-6.671.488a9.188,9.188,0,0,0-5.8,3.02c-1.38,1.753-1.645,4.495-.158,6.159,1.347,1.509,3.61,1.734,5.63,1.623s4.127-.44,6,.318,3.268,3.158,2.147,4.842c-1.144,1.719-4.109,1.682-4.875,3.6a2.943,2.943,0,0,0,1.534,3.413,8.58,8.58,0,0,0,3.97.771l28.435.923c6.482.21,13.14.4,19.252-1.771,1.886-.668,4.042-2.3,3.38-4.187-.819-2.334-5.076-2.073-5.522-4.505a2.648,2.648,0,0,1,1.939-2.729,8.365,8.365,0,0,1,3.619-.081,66.834,66.834,0,0,0,19.505-.626c2.687-.486,5.912-1.755,6.124-4.477C2672.919,360.649,2671.343,358.966,2669.564,358.255Z" transform="translate(-476.529 -157.509)" fill="#f1f2f7"/>
    <path id="Trazado_237906" data-name="Trazado 237906" d="M2374.457,130.519a4.656,4.656,0,0,0-3.157-3.662,13.693,13.693,0,0,0-5.035-.571l-27.552.317c-2.284.026-5.105-.285-5.956-2.4-.838-2.088,1.066-4.376,3.192-5.11s4.46-.509,6.664-.961,4.522-2.017,4.541-4.266a4.385,4.385,0,0,0-2.879-3.79,12.873,12.873,0,0,0-4.97-.675l-18.957-.073-34.6-.134c-2.629-.01-5.33.156-7.948-.093-1.494-.143-3.23-.9-4.732-.675-3.465.511-5.48,5.3-2.437,7.7,1.778,1.4,4.314,1.1,6.548.722l10.129-1.71c2.079-.351,4.663-.5,5.821,1.264a3.437,3.437,0,0,1-.334,3.871,6.112,6.112,0,0,1-3.523,2.029c-2.93.674-6.029.026-8.98.6s-5.965,3.281-5.085,6.156c.655,2.141,3.154,3.179,5.393,3.2s4.435-.667,6.674-.687c1.722-.015,3.841.807,3.912,2.527.073,1.782-2.038,2.725-3.762,3.179l-14.429,3.8a10.4,10.4,0,0,0-3.853,1.6,3.546,3.546,0,0,0-1.42,3.68c.648,2.026,3.28,2.447,5.406,2.509l64.99,1.907a11.965,11.965,0,0,0,5.837-.807c1.769-.9,3.056-3.084,2.273-4.909-.911-2.121-3.733-2.44-6.041-2.44l-20.665,0c-1.836,0-4.188-.391-4.572-2.186a2.782,2.782,0,0,1,1.647-2.859,8.149,8.149,0,0,1,3.47-.6l46.024-1.227a13.706,13.706,0,0,0,5.449-.893A4.67,4.67,0,0,0,2374.457,130.519Z" transform="translate(-308.806 -33.392)" fill="#f1f2f7"/>
    <path id="Trazado_237907" data-name="Trazado 237907" d="M2653.622,63.339c1.907.028,3.809.618,5.7.35s3.829-1.913,3.412-3.774c-.4-1.784-2.538-2.468-4.336-2.8-10.169-1.9-20.2-.981-30.458-1.544a190.477,190.477,0,0,0-28.009.18c-1.949.143-3.965-.135-5.671.817s-3.015,2.914-2.574,4.817c.666,2.871,4.358,3.592,7.3,3.728l13.421.62a11.049,11.049,0,0,1,4.273.77,3.344,3.344,0,0,1-.377,6.47,11.477,11.477,0,0,1-4.3.313,222.213,222.213,0,0,0-32.4.739,12.268,12.268,0,0,0-5.157,1.3,4.344,4.344,0,0,0-2.274,4.461c.635,2.651,4.041,3.319,6.765,3.442,24.765,1.118,49.659,1.1,74.251-2.029a12.889,12.889,0,0,0,5.327-1.5,4.527,4.527,0,0,0,2.25-4.7c-.461-1.741-2.235-2.8-3.965-3.3s-3.58-.631-5.2-1.414-3-2.531-2.563-4.277C2649.509,64.148,2651.715,63.311,2653.622,63.339Z" transform="translate(-471.956 -4.865)" fill="#dedfea"/>
    <g id="Grupo_876841" data-name="Grupo 876841" transform="translate(2118.021 281.878)">
      <path id="Trazado_237908" data-name="Trazado 237908" d="M2670.2,565.306c-4.75-6.189-11.833-11.018-19.609-11.225-6.206-.165-12.237,2.628-16.97,6.679s-8.307,9.293-11.461,14.678a139.824,139.824,0,0,0-9.524,19.642c-1.075,2.744-2.942,7.869-1.46,10.408,1.272,2.179,3.907,3.069,6.329,3.74,12.012,3.328,25.262,3.562,37.693,4.459,6.146.444,12.753.47,17.92-2.919C2688.74,600.522,2678.891,576.635,2670.2,565.306Z" transform="translate(-2610.623 -554.074)" fill="#a2a5c3"/>
      <g id="Grupo_876840" data-name="Grupo 876840" transform="translate(2.521 10.983)">
        <g id="Grupo_876839" data-name="Grupo 876839">
          <path id="Trazado_237909" data-name="Trazado 237909" d="M2621.795,620.016a92.6,92.6,0,0,0,40.181-2.4c3.61-1.036,7.32-2.4,9.815-5.206a15.042,15.042,0,0,0,3.4-8.582,44.791,44.791,0,0,0-.4-9.36q-.943-8.368-1.884-16.736c.065.083.131.165.2.249,8.694,11.33,18.543,35.216,2.918,45.463-5.167,3.389-11.774,3.363-17.92,2.919-12.432-.9-25.681-1.131-37.693-4.459a15.846,15.846,0,0,1-4.359-1.746,5.41,5.41,0,0,1,1.442-.425A14.1,14.1,0,0,1,2621.795,620.016Z" transform="translate(-2616.053 -577.734)" fill="#81849b"/>
        </g>
      </g>
    </g>
    <g id="Grupo_876844" data-name="Grupo 876844" transform="translate(2056.075 273.38)">
      <path id="Trazado_237910" data-name="Trazado 237910" d="M2551.276,569.431c-3.475-10.616-8.485-20.342-15.29-26.213a31.325,31.325,0,0,0-18-7.289c-5.672-.529-11.539.115-16.846,3.52-6.557,4.207-11.81,12.386-15.488,21.631s-5.915,19.561-7.816,29.881c-.554,3.008-1.067,6.336-.172,9.076,1.36,4.166,5.083,4.715,8.2,4.729q19.978.089,39.961-.093,9.885-.09,19.772-.247c3.278-.052,6.734.358,10-.174,2.48-.4,2.821-2.5,2.392-5.973A168.27,168.27,0,0,0,2551.276,569.431Z" transform="translate(-2477.177 -535.766)" fill="#a2a5c3"/>
      <path id="Trazado_237911" data-name="Trazado 237911" d="M2502.948,619.809a5.88,5.88,0,0,1,2.929-.628,51.6,51.6,0,0,0,35.906-17.373,50.443,50.443,0,0,0,7.468-11.377,52.22,52.22,0,0,0,3.929-11.455c.83-3.811.691-7.659,1.324-11.464a6.483,6.483,0,0,1,.6-1.955,73.227,73.227,0,0,1,9.55,19.837,168.34,168.34,0,0,1,6.717,28.848c.429,3.47.088,5.57-2.392,5.973-3.269.532-6.725.122-10,.174q-9.887.157-19.772.247-18.53.17-37.055.1A2.237,2.237,0,0,1,2502.948,619.809Z" transform="translate(-2490.558 -551.727)" fill="#81849b"/>
      <g id="Grupo_876843" data-name="Grupo 876843" transform="translate(43.956 33.198)">
        <g id="Grupo_876842" data-name="Grupo 876842">
          <path id="Trazado_237912" data-name="Trazado 237912" d="M2639.677,674.27a.369.369,0,0,1-.03.738A.369.369,0,0,1,2639.677,674.27Z" transform="translate(-2608.001 -643.174)" fill="#626475"/>
          <path id="Trazado_237913" data-name="Trazado 237913" d="M2637.584,665.846a.719.719,0,0,1-.058,1.435A.719.719,0,0,1,2637.584,665.846Z" transform="translate(-2606.692 -638.661)" fill="#626475"/>
          <path id="Trazado_237914" data-name="Trazado 237914" d="M2633.945,670.43a.638.638,0,0,1-.052,1.275A.638.638,0,0,1,2633.945,670.43Z" transform="translate(-2604.785 -641.117)" fill="#626475"/>
          <path id="Trazado_237915" data-name="Trazado 237915" d="M2625.8,673.013a.82.82,0,0,1-.066,1.637A.82.82,0,0,1,2625.8,673.013Z" transform="translate(-2600.322 -642.501)" fill="#626475"/>
          <path id="Trazado_237916" data-name="Trazado 237916" d="M2636.882,676.1a.531.531,0,0,1-.043,1.06A.531.531,0,0,1,2636.882,676.1Z" transform="translate(-2606.417 -644.154)" fill="#626475"/>
          <path id="Trazado_237917" data-name="Trazado 237917" d="M2633.976,665.126a.578.578,0,0,1,.046-1.154A.578.578,0,0,1,2633.976,665.126Z" transform="translate(-2604.859 -637.657)" fill="#626475"/>
          <path id="Trazado_237918" data-name="Trazado 237918" d="M2636.473,655.611a.5.5,0,0,1-.041,1.006A.5.5,0,0,1,2636.473,655.611Z" transform="translate(-2606.212 -633.177)" fill="#626475"/>
          <path id="Trazado_237919" data-name="Trazado 237919" d="M2637.636,650.579a.551.551,0,0,1,.044-1.1A.551.551,0,0,1,2637.636,650.579Z" transform="translate(-2606.834 -629.892)" fill="#626475"/>
          <path id="Trazado_237920" data-name="Trazado 237920" d="M2632.482,644.281a.625.625,0,0,1,.051-1.248A.625.625,0,0,1,2632.482,644.281Z" transform="translate(-2604.036 -626.438)" fill="#626475"/>
          <path id="Trazado_237921" data-name="Trazado 237921" d="M2628.2,650.771a.6.6,0,0,1-.048,1.194A.6.6,0,0,1,2628.2,650.771Z" transform="translate(-2601.727 -630.584)" fill="#626475"/>
          <path id="Trazado_237922" data-name="Trazado 237922" d="M2629.9,660.932a.739.739,0,0,1-.06,1.476A.739.739,0,0,1,2629.9,660.932Z" transform="translate(-2602.566 -636.028)" fill="#626475"/>
          <path id="Trazado_237923" data-name="Trazado 237923" d="M2617.1,665.864a.679.679,0,0,1-.054,1.355A.679.679,0,0,1,2617.1,665.864Z" transform="translate(-2595.74 -638.671)" fill="#626475"/>
          <path id="Trazado_237924" data-name="Trazado 237924" d="M2619.611,674.173a.632.632,0,0,1-.051,1.261A.632.632,0,0,1,2619.611,674.173Z" transform="translate(-2597.109 -643.123)" fill="#626475"/>
          <path id="Trazado_237925" data-name="Trazado 237925" d="M2624.5,662.445a.759.759,0,0,1-.061,1.516A.759.759,0,0,1,2624.5,662.445Z" transform="translate(-2599.659 -636.839)" fill="#626475"/>
          <path id="Trazado_237926" data-name="Trazado 237926" d="M2619.373,657.088a.557.557,0,0,1-.045,1.113A.557.557,0,0,1,2619.373,657.088Z" transform="translate(-2597.021 -633.969)" fill="#626475"/>
          <path id="Trazado_237927" data-name="Trazado 237927" d="M2608.055,666.161a.6.6,0,0,1-.049,1.207A.6.6,0,0,1,2608.055,666.161Z" transform="translate(-2590.932 -638.83)" fill="#626475"/>
          <path id="Trazado_237928" data-name="Trazado 237928" d="M2607.767,674.062a.578.578,0,0,1-.046,1.154A.578.578,0,0,1,2607.767,674.062Z" transform="translate(-2590.792 -643.063)" fill="#626475"/>
          <path id="Trazado_237929" data-name="Trazado 237929" d="M2614.182,674.223a.5.5,0,0,1-.041,1.006A.5.5,0,0,1,2614.182,674.223Z" transform="translate(-2594.269 -643.15)" fill="#626475"/>
          <path id="Trazado_237930" data-name="Trazado 237930" d="M2594.5,670.582a.772.772,0,0,1-.063,1.543A.772.772,0,0,1,2594.5,670.582Z" transform="translate(-2583.581 -641.198)" fill="#626475"/>
          <path id="Trazado_237931" data-name="Trazado 237931" d="M2582.833,674.419a.652.652,0,0,1-.052,1.3A.652.652,0,0,1,2582.833,674.419Z" transform="translate(-2577.392 -643.254)" fill="#626475"/>
          <path id="Trazado_237932" data-name="Trazado 237932" d="M2572.321,676.954a.45.45,0,0,1-.036.9A.45.45,0,0,1,2572.321,676.954Z" transform="translate(-2571.869 -644.613)" fill="#626475"/>
          <path id="Trazado_237933" data-name="Trazado 237933" d="M2601.523,675.385a.672.672,0,0,1-.055,1.342A.672.672,0,0,1,2601.523,675.385Z" transform="translate(-2587.395 -643.772)" fill="#626475"/>
          <path id="Trazado_237934" data-name="Trazado 237934" d="M2601.97,666.436a.6.6,0,0,1-.048,1.194A.6.6,0,0,1,2601.97,666.436Z" transform="translate(-2587.675 -638.977)" fill="#626475"/>
          <path id="Trazado_237935" data-name="Trazado 237935" d="M2582.089,668.625a.4.4,0,0,1,.032-.8A.4.4,0,0,1,2582.089,668.625Z" transform="translate(-2577.145 -639.718)" fill="#626475"/>
          <path id="Trazado_237936" data-name="Trazado 237936" d="M2590.264,676.819a.5.5,0,0,1-.04.993A.5.5,0,0,1,2590.264,676.819Z" transform="translate(-2581.458 -644.54)" fill="#626475"/>
          <path id="Trazado_237937" data-name="Trazado 237937" d="M2610.172,658.448a.578.578,0,0,1-.047,1.154A.578.578,0,0,1,2610.172,658.448Z" transform="translate(-2592.08 -634.697)" fill="#626475"/>
          <path id="Trazado_237938" data-name="Trazado 237938" d="M2621.377,643.357a.618.618,0,0,1-.05,1.234A.618.618,0,0,1,2621.377,643.357Z" transform="translate(-2598.063 -626.611)" fill="#626475"/>
          <path id="Trazado_237939" data-name="Trazado 237939" d="M2629.113,637.548a.705.705,0,0,1,.057-1.408A.705.705,0,0,1,2629.113,637.548Z" transform="translate(-2602.191 -622.744)" fill="#626475"/>
          <path id="Trazado_237940" data-name="Trazado 237940" d="M2624.851,624.618a.678.678,0,0,1-.054,1.355A.678.678,0,0,1,2624.851,624.618Z" transform="translate(-2599.892 -616.571)" fill="#626475"/>
          <path id="Trazado_237941" data-name="Trazado 237941" d="M2630.354,624.186a.537.537,0,0,1,.044-1.073A.537.537,0,0,1,2630.354,624.186Z" transform="translate(-2602.939 -615.764)" fill="#626475"/>
          <path id="Trazado_237942" data-name="Trazado 237942" d="M2632.689,633.649a.6.6,0,0,1,.048-1.194A.6.6,0,0,1,2632.689,633.649Z" transform="translate(-2604.16 -620.77)" fill="#626475"/>
          <path id="Trazado_237943" data-name="Trazado 237943" d="M2623.581,613.79a.4.4,0,0,1,.032-.8A.4.4,0,0,1,2623.581,613.79Z" transform="translate(-2599.376 -610.338)" fill="#626475"/>
          <path id="Trazado_237944" data-name="Trazado 237944" d="M2620.122,608.317a.517.517,0,0,1,.042-1.033A.517.517,0,0,1,2620.122,608.317Z" transform="translate(-2597.467 -607.283)" fill="#626475"/>
          <path id="Trazado_237945" data-name="Trazado 237945" d="M2617.8,633.56a.551.551,0,0,1,.044-1.1A.551.551,0,0,1,2617.8,633.56Z" transform="translate(-2596.204 -620.772)" fill="#626475"/>
          <path id="Trazado_237946" data-name="Trazado 237946" d="M2613.223,642.737a.678.678,0,0,1,.055-1.355A.678.678,0,0,1,2613.223,642.737Z" transform="translate(-2593.691 -625.553)" fill="#626475"/>
          <path id="Trazado_237947" data-name="Trazado 237947" d="M2600.705,647.366a.6.6,0,0,1-.049,1.207A.6.6,0,0,1,2600.705,647.366Z" transform="translate(-2586.993 -628.759)" fill="#626475"/>
          <path id="Trazado_237948" data-name="Trazado 237948" d="M2599.475,656.187a.483.483,0,0,1-.039.966A.483.483,0,0,1,2599.475,656.187Z" transform="translate(-2586.4 -633.486)" fill="#626475"/>
          <path id="Trazado_237949" data-name="Trazado 237949" d="M2613.142,651.606a.658.658,0,0,1,.053-1.315A.658.658,0,0,1,2613.142,651.606Z" transform="translate(-2593.657 -630.327)" fill="#626475"/>
          <path id="Trazado_237950" data-name="Trazado 237950" d="M2619.5,649.1a.5.5,0,0,1-.041,1.006A.5.5,0,0,1,2619.5,649.1Z" transform="translate(-2597.12 -629.687)" fill="#626475"/>
          <path id="Trazado_237951" data-name="Trazado 237951" d="M2623.867,651.905a.578.578,0,0,1-.046,1.154A.578.578,0,0,1,2623.867,651.905Z" transform="translate(-2599.418 -631.191)" fill="#626475"/>
          <path id="Trazado_237952" data-name="Trazado 237952" d="M2625.095,658.938a.584.584,0,0,1,.047-1.167A.584.584,0,0,1,2625.095,658.938Z" transform="translate(-2600.098 -634.334)" fill="#626475"/>
          <path id="Trazado_237953" data-name="Trazado 237953" d="M2631.4,656.9a.685.685,0,0,1,.056-1.368A.685.685,0,0,1,2631.4,656.9Z" transform="translate(-2603.424 -633.135)" fill="#626475"/>
          <path id="Trazado_237954" data-name="Trazado 237954" d="M2641.014,662.383a.5.5,0,0,1-.04,1.006A.5.5,0,0,1,2641.014,662.383Z" transform="translate(-2608.646 -636.806)" fill="#626475"/>
          <path id="Trazado_237955" data-name="Trazado 237955" d="M2626.114,668.853a.672.672,0,0,1,.054-1.341A.672.672,0,0,1,2626.114,668.853Z" transform="translate(-2600.601 -639.553)" fill="#626475"/>
          <path id="Trazado_237956" data-name="Trazado 237956" d="M2640.133,669.54a.578.578,0,0,1-.046,1.154A.578.578,0,0,1,2640.133,669.54Z" transform="translate(-2608.134 -640.64)" fill="#626475"/>
          <path id="Trazado_237957" data-name="Trazado 237957" d="M2630.854,676.643a.7.7,0,0,1-.057,1.395A.7.7,0,0,1,2630.854,676.643Z" transform="translate(-2603.097 -644.446)" fill="#626475"/>
          <path id="Trazado_237958" data-name="Trazado 237958" d="M2618.948,670.232a.685.685,0,0,1-.055,1.369A.685.685,0,0,1,2618.948,670.232Z" transform="translate(-2596.725 -641.011)" fill="#626475"/>
          <path id="Trazado_237959" data-name="Trazado 237959" d="M2616.117,660.854a.611.611,0,0,1,.049-1.22A.611.611,0,0,1,2616.117,660.854Z" transform="translate(-2595.274 -635.332)" fill="#626475"/>
          <path id="Trazado_237960" data-name="Trazado 237960" d="M2611.467,670.692a.564.564,0,0,1-.045,1.127A.564.564,0,0,1,2611.467,670.692Z" transform="translate(-2592.781 -641.258)" fill="#626475"/>
          <path id="Trazado_237961" data-name="Trazado 237961" d="M2621.937,639.054a.5.5,0,0,1,.041-1.006A.5.5,0,0,1,2621.937,639.054Z" transform="translate(-2598.446 -623.766)" fill="#626475"/>
          <path id="Trazado_237962" data-name="Trazado 237962" d="M2627.387,644.581a.638.638,0,0,1,.051-1.275A.638.638,0,0,1,2627.387,644.581Z" transform="translate(-2601.299 -626.584)" fill="#626475"/>
          <path id="Trazado_237963" data-name="Trazado 237963" d="M2636.151,638.384a.289.289,0,0,1,.023-.577A.289.289,0,0,1,2636.151,638.384Z" transform="translate(-2606.169 -623.638)" fill="#626475"/>
          <path id="Trazado_237964" data-name="Trazado 237964" d="M2625.383,631.831a.625.625,0,0,1,.051-1.248A.625.625,0,0,1,2625.383,631.831Z" transform="translate(-2600.232 -619.767)" fill="#626475"/>
          <path id="Trazado_237965" data-name="Trazado 237965" d="M2608.191,651.019a.578.578,0,0,1-.047,1.154A.578.578,0,0,1,2608.191,651.019Z" transform="translate(-2591.019 -630.717)" fill="#626475"/>
          <path id="Trazado_237966" data-name="Trazado 237966" d="M2603.707,658.185a.7.7,0,0,1-.056,1.395A.7.7,0,0,1,2603.707,658.185Z" transform="translate(-2588.551 -634.556)" fill="#626475"/>
          <path id="Trazado_237967" data-name="Trazado 237967" d="M2589.761,664.849a.692.692,0,0,1,.056-1.381A.692.692,0,0,1,2589.761,664.849Z" transform="translate(-2581.113 -637.386)" fill="#626475"/>
          <path id="Trazado_237968" data-name="Trazado 237968" d="M2601.758,670.915a.625.625,0,0,1,.051-1.248A.625.625,0,0,1,2601.758,670.915Z" transform="translate(-2587.574 -640.708)" fill="#626475"/>
          <path id="Trazado_237969" data-name="Trazado 237969" d="M2588.229,668.512a.792.792,0,0,1-.064,1.583A.792.792,0,0,1,2588.229,668.512Z" transform="translate(-2580.208 -640.089)" fill="#626475"/>
          <path id="Trazado_237970" data-name="Trazado 237970" d="M2597.208,659.994a.558.558,0,0,1-.045,1.114A.558.558,0,0,1,2597.208,659.994Z" transform="translate(-2585.146 -635.526)" fill="#626475"/>
          <path id="Trazado_237971" data-name="Trazado 237971" d="M2593.835,675.975a.725.725,0,0,1-.059,1.449A.725.725,0,0,1,2593.835,675.975Z" transform="translate(-2583.247 -644.088)" fill="#626475"/>
          <path id="Trazado_237972" data-name="Trazado 237972" d="M2579.47,676.705a.705.705,0,0,1-.057,1.408A.705.705,0,0,1,2579.47,676.705Z" transform="translate(-2575.562 -644.479)" fill="#626475"/>
          <path id="Trazado_237973" data-name="Trazado 237973" d="M2577.061,671.271a.712.712,0,0,1-.057,1.422A.712.712,0,0,1,2577.061,671.271Z" transform="translate(-2574.268 -641.568)" fill="#626475"/>
        </g>
      </g>
    </g>
    <g id="Grupo_876846" data-name="Grupo 876846" transform="translate(2023.577 304.328)">
      <path id="Trazado_237974" data-name="Trazado 237974" d="M2412.286,616.515a38.834,38.834,0,0,1,5.484-9.04,13.744,13.744,0,0,1,7.351-4.876c4.095-.817,8.24,1.53,11.355,5.479s5.281,9.372,6.807,15.087a23.252,23.252,0,0,1,.862,4.716,9.9,9.9,0,0,1-.77,4.722,5.532,5.532,0,0,1-4.74,3.281,186.544,186.544,0,0,1-27.2-.49,6.163,6.163,0,0,1-3.662-1.8c-1.251-1.209-.254-3.283.218-5.052A75.633,75.633,0,0,1,2412.286,616.515Z" transform="translate(-2407.167 -602.437)" fill="#81849b"/>
      <g id="Grupo_876845" data-name="Grupo 876845" transform="translate(0 5.136)">
        <path id="Trazado_237975" data-name="Trazado 237975" d="M2416.177,617.224a19.97,19.97,0,0,0-.814,8.33,14.841,14.841,0,0,0,1.337,4.557c1.992,4.118,5.919,7.053,10.175,8.733,4.224,1.667,8.792,2.23,13.314,2.654a5.293,5.293,0,0,1-1.555.312,186.562,186.562,0,0,1-27.2-.49,6.164,6.164,0,0,1-3.662-1.8c-1.251-1.209-.254-3.283.218-5.052a75.635,75.635,0,0,1,4.294-12.026,39.089,39.089,0,0,1,5.4-8.943,16.227,16.227,0,0,1-.795,1.693Q2416.491,616.192,2416.177,617.224Z" transform="translate(-2407.167 -613.5)" fill="#626475"/>
      </g>
    </g>
    <path id="Trazado_237976" data-name="Trazado 237976" d="M2492.318,150.542c-4.872-2.471-10.357-3.31-15.767-3.477-6.127-.189-12.268.39-18.379.755q-10.34.618-20.687,1.093c-13.657.628-27.32,1.035-40.987,1.333-12.4.27-24.911.655-37.08,3.274a78.258,78.258,0,0,0-17.267,5.683c-4.545,2.172-9.113,6.058-8.756,11.6.321,4.959,4.909,7.457,9.285,8.316,5.409,1.062,11.007.974,16.47,1.639a40.172,40.172,0,0,1,8.52,1.872c2.436.86,5.646,2.2,7.153,4.419,2.181,3.207-3.113,4.1-5.2,4.518a69.319,69.319,0,0,1-8.8,1.1c-10.882.765-23.759-.18-33.224,6.286-3.893,2.66-7.453,7.151-6.354,12.147,1.105,5.019,6.394,7.374,10.9,8.462,6.181,1.491,12.592,1.355,18.9,1.288a87.076,87.076,0,0,1,9.552.183c2.017.2,5.047.77,5.8,2.99,1,2.963-2.756,5.412-4.946,6.468a44.489,44.489,0,0,1-7.958,2.658c-4.94,1.316-10.825,2.652-14.376,6.645-1.521,1.711-2.7,4.1-2.123,6.442.555,2.247,2.424,3.531,4.436,4.389a19.228,19.228,0,0,1,3.172,1.413c1.744,1.154,1.582,2.273.475,3.864a19,19,0,0,0-3.2,7.631c-.4,2.33-.671,5.165.532,7.306.986,1.755,2.873,2.843,4.754,1.731a1.612,1.612,0,0,0,.173-2.643c.125-5.524,6.987-9.022,11.406-10.9a77.28,77.28,0,0,1,16.656-4.6c5.714-1.031,11.485-1.748,17.18-2.888,5.369-1.074,11.023-2.352,15.916-4.892,3.889-2.019,8.161-5.683,7.979-10.485-.19-4.982-4.683-7.653-8.654-9.651-2.338-1.177-4.923-2.5-6.338-4.813-1.713-2.8.033-5.38,2.3-7.174,4.019-3.19,9.189-4.256,14.181-4.747,5.061-.5,10.157-.52,15.2-1.239,4.742-.676,10.221-1.977,13.618-5.614,3.021-3.235,3.069-7.609-.266-10.588a36.082,36.082,0,0,0-4.558-3.15c-1.318-.854-2.94-1.885-3.385-3.495-.78-2.826,2.461-5.047,4.6-6.119a24.32,24.32,0,0,1,8.168-2.115c6.052-.688,12.111-.962,18.136-1.934a138.487,138.487,0,0,0,19.161-4.5c4.7-1.467,10.151-3.69,11.4-9.041C2501.284,156.63,2496.561,152.694,2492.318,150.542Z" transform="translate(-337.446 -54.099)" fill="#dedfea"/>
    <path id="Trazado_237977" data-name="Trazado 237977" d="M2372.7,531.9h-52.44l12.3-124.627H2360.4Z" transform="translate(-337.027 -193.541)" fill="#f1f2f7"/>
    <g id="Grupo_876848" data-name="Grupo 876848" transform="translate(1983.237 213.735)">
      <g id="Grupo_876847" data-name="Grupo 876847">
        <path id="Trazado_237978" data-name="Trazado 237978" d="M2320.263,531.9l12.3-124.628h13.919V531.9Z" transform="translate(-2320.263 -407.276)" fill="#dedfea"/>
      </g>
    </g>
    <rect id="Rectángulo_296975" data-name="Rectángulo 296975" width="32.512" height="2.272" transform="translate(2026.076 224.896) rotate(180)" fill="#626475"/>
    <rect id="Rectángulo_296976" data-name="Rectángulo 296976" width="33.905" height="2.272" transform="translate(2026.773 231.423) rotate(180)" fill="#626475"/>
    <path id="Trazado_237979" data-name="Trazado 237979" d="M2449.278,561.951l-.654-.5-9.239,6.806-.2-19.191h-1.365l-.1,10.435-9.178-6.743-.653.5,9.818,7.938-.367,46.176,2.4,0-.346-37.415Z" transform="translate(-394.695 -269.511)" fill="#626475"/>
    <path id="Trazado_237980" data-name="Trazado 237980" d="M2416.9,589.266l-.523-.4-7.4,5.453-.157-15.376h-1.093l-.081,8.361-7.354-5.4-.523.4,7.866,6.36-.294,37h1.926l-.277-29.977Z" transform="translate(-379.625 -285.519)" fill="#626475"/>
    <path id="Trazado_237981" data-name="Trazado 237981" d="M2299.346,607.149l-.368-.284-5.21,3.838-.11-10.823h-.77l-.057,5.885-5.176-3.8-.368.284,5.537,4.477-.207,26.042h1.356l-.2-21.1Z" transform="translate(-319.357 -296.739)" fill="#626475"/>
    <path id="Trazado_237982" data-name="Trazado 237982" d="M2277.209,580.223l-.516-.4-7.29,5.37-.154-15.142h-1.077l-.08,8.234-7.242-5.32-.515.4,7.746,6.263-.29,36.434h1.9l-.273-29.521Z" transform="translate(-304.918 -280.758)" fill="#626475"/>
  </g>
</svg>
