<svg xmlns="http://www.w3.org/2000/svg" width="52.873" height="47.516" viewBox="0 0 52.873 47.516">
  <g id="Grupo_877440" data-name="Grupo 877440" transform="translate(11939.035 11827.4)">
    <g id="Grupo_877240" data-name="Grupo 877240" transform="translate(-11939.035 -11827.4)">
      <path id="Trazado_217955" data-name="Trazado 217955" d="M1074.855,721.927l-22.273,16.758,4.985,28.425,11.879-24.607,3.182,9.97,18.561-32.879-15.167,15.061Z" transform="translate(-1038.317 -719.594)" fill="#ea3584"/>
      <path id="Trazado_217956" data-name="Trazado 217956" d="M1065.9,757.429l5.409-11.2,3.182,9.97Z" transform="translate(-1040.178 -723.315)" fill="#b51067"/>
      <path id="Trazado_217957" data-name="Trazado 217957" d="M1037.749,770.2,1036,741.725l14.266.053,4.985,28.425Z" transform="translate(-1035.999 -722.687)" fill="#b51067"/>
      <path id="Trazado_217958" data-name="Trazado 217958" d="M1084.312,722.6l-5.3,4.387.7,7.669,15.167-15.061Z" transform="translate(-1042.011 -719.594)" fill="#ff8dc9"/>
      <path id="Trazado_217959" data-name="Trazado 217959" d="M1061.984,725.435,1036,739.011l14.266.053,22.273-16.758Z" transform="translate(-1035.999 -719.973)" fill="#ff8dc9"/>
    </g>
  </g>
</svg>
