<svg xmlns="http://www.w3.org/2000/svg" width="84.823" height="76.23" viewBox="0 0 84.823 76.23">
  <g id="Grupo_877439" data-name="Grupo 877439" transform="translate(11858.66 11856.115)">
    <g id="Grupo_877239" data-name="Grupo 877239" transform="translate(-11858.66 -11856.115)">
      <path id="Trazado_217950" data-name="Trazado 217950" d="M1399.948,488.748l35.733-26.885-8-45.6-19.058,39.476-5.1-15.995-29.777,52.749,24.333-24.162Z" transform="translate(-1373.744 -416.261)" fill="#6827c9"/>
      <path id="Trazado_217951" data-name="Trazado 217951" d="M1422.142,441.256l-8.678,17.975-5.1-15.995Z" transform="translate(-1378.582 -419.754)" fill="#824fe4"/>
      <path id="Trazado_217952" data-name="Trazado 217952" d="M1464.523,416.261l2.807,45.687-22.886-.085-8-45.6Z" transform="translate(-1382.508 -416.261)" fill="#824fe4"/>
      <path id="Trazado_217953" data-name="Trazado 217953" d="M1390.7,496.13l8.5-7.038-1.128-12.3-24.333,24.162Z" transform="translate(-1373.744 -424.721)" fill="#3d1091"/>
      <path id="Trazado_217954" data-name="Trazado 217954" d="M1421.136,491.137l41.688-21.78-22.886-.085-35.733,26.885Z" transform="translate(-1378.001 -423.67)" fill="#3d1091"/>
    </g>
  </g>
</svg>
