<svg xmlns="http://www.w3.org/2000/svg" xmlns:xlink="http://www.w3.org/1999/xlink" width="124" height="124" viewBox="0 0 124 124">
  <defs>
    <clipPath id="clip-path">
      <rect id="Rectángulo_293130" data-name="Rectángulo 293130" width="124" height="124" transform="translate(528 1461)" fill="#fff" stroke="#707070" stroke-width="1"/>
    </clipPath>
  </defs>
  <g id="Enmascarar_grupo_700093" data-name="Enmascarar grupo 700093" transform="translate(-528 -1461)" clip-path="url(#clip-path)">
    <g id="Grupo_873863" data-name="Grupo 873863" transform="translate(-551.243 1927.704)">
      <path id="Trazado_218022" data-name="Trazado 218022" d="M1092.54-344.22a16.6,16.6,0,0,1-.175-1.727q-.015-23.082,0-46.163a16.12,16.12,0,0,1,.182-1.725l36.385-.035q.086,5.43.172,10.859,0,1.611,0,3.222,0,2.2,0,4.4-.052,15.592-.1,31.183l-7.464-.109c1.672-2.131.833-4.553.726-6.866-.03-.653-.724-1.046-1.47-1.04-.73,0-1.44.34-1.491,1.015-.178,2.319-.923,4.724.673,6.877l-4.269.09q-.032-2.928-.062-5.856c-.01-1.112-.263-2.114-1.615-2.091-1.3.022-1.629.963-1.633,2.1-.007,1.951-.044,3.9-.069,5.854l-3.294.019c-.035-1.956-.089-3.912-.1-5.869-.006-1.139-.288-2.1-1.614-2.115-1.349-.016-1.609.965-1.623,2.094-.024,1.955-.082,3.91-.126,5.865l-4.243-.081c1.671-2.131.833-4.553.725-6.866-.03-.653-.724-1.046-1.469-1.04s-1.44.34-1.492,1.015c-.178,2.319-.924,4.724.673,6.877Zm23.183-15.919a21.947,21.947,0,0,0-.023-2.622,1.53,1.53,0,0,0-1.628-1.462,1.507,1.507,0,0,0-1.606,1.479c-.073,1.675-.08,3.358.008,5.031a1.513,1.513,0,0,0,1.619,1.468,1.556,1.556,0,0,0,1.609-1.492A19.152,19.152,0,0,0,1115.723-360.14Zm6.75,0c0-.8.033-1.607-.008-2.408a1.586,1.586,0,0,0-1.656-1.675,1.58,1.58,0,0,0-1.65,1.688c-.066,1.53-.067,3.067.008,4.6a1.591,1.591,0,0,0,1.657,1.688,1.612,1.612,0,0,0,1.642-1.7C1122.51-358.673,1122.474-359.406,1122.473-360.136Zm-20.242-.147h.02c0-.8.049-1.609-.013-2.407a1.557,1.557,0,0,0-1.567-1.534,1.471,1.471,0,0,0-1.661,1.407,45.233,45.233,0,0,0,.025,5.24,1.446,1.446,0,0,0,1.509,1.333,1.537,1.537,0,0,0,1.664-1.417A21.074,21.074,0,0,0,1102.231-360.283Zm.059-23.916c0-.728.017-1.458,0-2.185-.032-1.1-.54-1.835-1.714-1.814a1.584,1.584,0,0,0-1.608,1.72c-.062,1.527-.071,3.061.017,4.585a1.544,1.544,0,0,0,1.7,1.61,1.6,1.6,0,0,0,1.6-1.731C1102.313-382.741,1102.286-383.471,1102.291-384.2Zm20.132,12.1h.016c0-.874.059-1.753-.017-2.62a1.568,1.568,0,0,0-1.558-1.54,1.488,1.488,0,0,0-1.678,1.391,39.1,39.1,0,0,0,.029,5.229,1.453,1.453,0,0,0,1.725,1.308,1.469,1.469,0,0,0,1.463-1.369A20.678,20.678,0,0,0,1122.423-372.094Zm-20.19-.09h.01c0-.8.045-1.605-.011-2.4a1.6,1.6,0,0,0-1.665-1.664,1.508,1.508,0,0,0-1.61,1.475,42.877,42.877,0,0,0,.011,5.018,1.485,1.485,0,0,0,1.634,1.432,1.508,1.508,0,0,0,1.61-1.457A21.134,21.134,0,0,0,1102.232-372.184Zm20.268-12c0-.729.016-1.458,0-2.186-.029-1.1-.528-1.839-1.7-1.827a1.578,1.578,0,0,0-1.617,1.709c-.064,1.526-.071,3.06.013,4.585a1.547,1.547,0,0,0,1.692,1.622,1.6,1.6,0,0,0,1.606-1.719C1122.523-382.729,1122.494-383.459,1122.5-384.187Zm-10.1,11.869c0,.728-.013,1.456,0,2.184.022.993.448,1.728,1.5,1.8a1.59,1.59,0,0,0,1.814-1.723c.057-1.525.064-3.059-.025-4.581a1.551,1.551,0,0,0-1.7-1.613,1.621,1.621,0,0,0-1.583,1.749C1112.376-373.774,1112.4-373.045,1112.4-372.317Zm.035-12.315c0,.935-.008,1.663,0,2.391.013,1.076.446,1.912,1.6,1.952,1.3.045,1.731-.866,1.763-2.018a17.986,17.986,0,0,0,0-2.183c-.133-1.4.646-3.578-1.61-3.625C1111.661-388.171,1112.7-385.836,1112.432-384.633Zm-6.654.123h-.008c0,.876-.042,1.756.011,2.629a1.5,1.5,0,0,0,1.7,1.581,1.465,1.465,0,0,0,1.464-1.6c.03-1.607.042-3.215-.019-4.82a1.429,1.429,0,0,0-1.569-1.477,1.475,1.475,0,0,0-1.57,1.492C1105.732-385.974,1105.778-385.24,1105.778-384.51Zm3.138,12.215h.012c0-.729.013-1.458,0-2.187a1.567,1.567,0,0,0-1.569-1.744,1.525,1.525,0,0,0-1.622,1.679q-.047,2.3.006,4.592a1.47,1.47,0,0,0,1.658,1.606,1.456,1.456,0,0,0,1.509-1.54C1108.945-370.689,1108.916-371.493,1108.916-372.294Zm0,12.133h.015c0-.8.028-1.6-.007-2.405a1.475,1.475,0,0,0-1.682-1.581,1.444,1.444,0,0,0-1.485,1.562c-.027,1.6-.036,3.208.015,4.81a1.477,1.477,0,0,0,1.558,1.512,1.486,1.486,0,0,0,1.575-1.493C1108.963-358.556,1108.92-359.36,1108.92-360.162Z" transform="translate(-4.102 -28.39)" fill="#fd5c3b"/>
      <path id="Trazado_218023" data-name="Trazado 218023" d="M1175.7-320.641q.052-15.591.1-31.183h69.058a15.4,15.4,0,0,1,.192,4.335q.039,12.1,0,24.209c0,.863-.131,1.726-.2,2.588l-4.688.018q-.1-5.281-.2-10.562a.672.672,0,0,0,.034-.432,26.977,26.977,0,0,0,.161-6.091,1.974,1.974,0,0,0-2.229-2.134c-2.552.006-5.105-.016-7.658.013-1.376.015-2.2.664-2.175,2.144q.053,3.059.1,6.119-.077,5.465-.153,10.931l-3.718.04q-.1-5.487-.2-10.974c.027-2.039.051-4.078.083-6.116a1.879,1.879,0,0,0-2.137-2.153c-2.551,0-5.1-.018-7.654.011-1.527.017-2.225.819-2.168,2.367.073,1.964.069,3.932.1,5.9q-.073,5.468-.146,10.937l-3.755.018-.173-10.959c.027-2.04.048-4.079.083-6.118.022-1.315-.573-2.12-1.917-2.138-2.7-.037-5.4-.044-8.092.018a1.821,1.821,0,0,0-1.933,2.13c.053,2.039.059,4.079.086,6.119q-.072,5.47-.145,10.939h-3.787l-.146-10.942c.027-1.967.013-3.935.093-5.9.069-1.709-.794-2.382-2.381-2.382q-3.719,0-7.438,0a1.876,1.876,0,0,0-2.133,2.154c.035,2.04.056,4.079.084,6.119q-.085,5.478-.17,10.957l-4.694-.026Zm58.413-22.454q1.964,0,3.927,0c1.066,0,1.9-.347,1.963-1.55a1.6,1.6,0,0,0-1.748-1.794c-2.762-.052-5.527-.06-8.288.008-1.036.025-1.886.6-1.786,1.771.1,1.113.917,1.571,2,1.566C1231.5-343.1,1232.807-343.1,1234.116-343.094Zm-15.869,0c1.382,0,2.764.017,4.146-.006.993-.016,1.715-.454,1.769-1.523a1.6,1.6,0,0,0-1.737-1.811c-2.762-.057-5.529-.062-8.291.005-1.029.025-1.89.575-1.8,1.757.084,1.131.9,1.578,1.986,1.578Zm-15.959,0c1.391,0,2.782.027,4.172-.008,1.094-.028,1.854-.555,1.843-1.724a1.575,1.575,0,0,0-1.732-1.608c-2.78-.046-5.562-.048-8.341.019a1.587,1.587,0,0,0-1.749,1.6c0,1.161.756,1.691,1.854,1.716C1199.652-343.075,1200.971-343.1,1202.288-343.1Zm-15.815,0c1.318,0,2.635,0,3.953,0,1.081,0,1.923-.407,2.026-1.555.108-1.2-.755-1.75-1.791-1.776-2.779-.07-5.562-.063-8.342-.007a1.555,1.555,0,0,0-1.688,1.646c.022,1.166.8,1.664,1.89,1.684C1183.837-343.079,1185.156-343.1,1186.473-343.095Z" transform="translate(-50.813 -51.954)" fill="#fbc63e"/>
      <path id="Trazado_218024" data-name="Trazado 218024" d="M1194.255-271.184c.511.025,1.024.027,1.532.082.993.107,1.674.612,1.668,1.668s-.74,1.537-1.706,1.648a15.438,15.438,0,0,1-1.754.036H1088.421l-.878,0c-1.247,0-2.517-.149-2.5-1.748.019-1.447,1.174-1.658,2.37-1.624a8.389,8.389,0,0,0,.875-.064h13.236l3.324-.005,3.444,0,3.266,0,13.415,0,4.784-.007,11.934,0,3.933,0,11.933,0,3.907,0,11.964.008,3.869-.01,11.982.006Z" transform="translate(-0.005 -97.139)" fill="#435864"/>
      <path id="Trazado_218025" data-name="Trazado 218025" d="M1245-357.434H1175.94l0-4.4,69.454.027Q1245.2-359.622,1245-357.434Z" transform="translate(-50.946 -46.343)" fill="#658da1"/>
      <path id="Trazado_218026" data-name="Trazado 218026" d="M1245.4-366.051l-69.455-.027q0-1.611,0-3.222l12.542-.1q7.124.324,14.246,0a20.736,20.736,0,0,0,4.922,0,27.99,27.99,0,0,0,5.434,0q7.123.324,14.245,0a20.735,20.735,0,0,0,4.922,0c4.361.037,8.722.065,13.083.116,1.269.014,2.967-.328,3,1.582S1246.683-366.1,1245.4-366.051Z" transform="translate(-50.951 -42.101)" fill="#364c59"/>
      <path id="Trazado_218027" data-name="Trazado 218027" d="M1211.91-413.709c.434-7.66.954-15.317.869-23l6.576,0c.5,7.66.884,15.324.891,23Z" transform="translate(-71.105 -4.383)" fill="#d3eefd"/>
      <path id="Trazado_218028" data-name="Trazado 218028" d="M1267.879-413.709c.434-7.66.954-15.317.869-23l6.576,0c.5,7.66.884,15.324.891,23Z" transform="translate(-102.473 -4.382)" fill="#d3eefd"/>
      <path id="Trazado_218029" data-name="Trazado 218029" d="M1128.657-399.431l-36.385.035q-.2-2.2-.406-4.4l37,.027Q1128.761-401.6,1128.657-399.431Z" transform="translate(-3.827 -22.828)" fill="#658da1"/>
      <path id="Trazado_218030" data-name="Trazado 218030" d="M1125.039-407.911l-37-.027a12.658,12.658,0,0,1-1.531-.056,1.532,1.532,0,0,1-1.47-1.612,1.5,1.5,0,0,1,1.521-1.546c.507-.049,1.021-.034,1.533-.035q18.526,0,37.052,0c.438,0,.878-.007,1.315.02,1.026.062,1.667.574,1.639,1.644a1.516,1.516,0,0,1-1.526,1.551C1126.064-407.917,1125.55-407.929,1125.039-407.911Z" transform="translate(0 -18.683)" fill="#364c59"/>
      <path id="Trazado_218031" data-name="Trazado 218031" d="M1229.737-413.725c-.007-7.679-.4-15.343-.891-23l4.427-.023c-.167,7.682.274,15.341.86,22.994l-2.644.2Z" transform="translate(-80.597 -4.357)" fill="#bbd2df"/>
      <path id="Trazado_218032" data-name="Trazado 218032" d="M1285.706-413.725c-.007-7.679-.4-15.343-.891-23l4.427-.023c-.167,7.682.273,15.341.86,22.994l-2.643.2Z" transform="translate(-111.964 -4.357)" fill="#bbd2df"/>
      <path id="Trazado_218033" data-name="Trazado 218033" d="M1216.087-384.378l1.752.171a2.594,2.594,0,0,1,.912,2.291c-.073,1.369-.016,2.745-.014,4.119q-7.123.317-14.246,0c.011-1.023.03-2.047.032-3.069.008-3.225.006-3.225,3.229-3.518Z" transform="translate(-66.947 -33.704)" fill="#f9593a"/>
      <path id="Trazado_218034" data-name="Trazado 218034" d="M1272.057-384.378l1.752.171a2.594,2.594,0,0,1,.912,2.291c-.073,1.369-.016,2.745-.015,4.119q-7.123.317-14.246,0c.011-1.023.029-2.047.032-3.069.009-3.225.006-3.225,3.229-3.518Z" transform="translate(-98.315 -33.704)" fill="#f9593a"/>
      <path id="Trazado_218035" data-name="Trazado 218035" d="M1105.666-276.771H1092.43q.075-2.142.151-4.283l7.217-.107,1.563.014,4.243.081.175.021Q1105.723-278.908,1105.666-276.771Z" transform="translate(-4.143 -91.557)" fill="#fd2727"/>
      <path id="Trazado_218036" data-name="Trazado 218036" d="M1222.46-441.108l-4.427.023-6.576,0c-1.107-.169-2.029-.607-1.891-1.913s1.162-1.522,2.255-1.523q5.119,0,10.237,0c1.008,0,1.962.228,2.15,1.393C1224.416-441.847,1223.605-441.3,1222.46-441.108Z" transform="translate(-69.784)" fill="#435864"/>
      <path id="Trazado_218037" data-name="Trazado 218037" d="M1278.43-441.108l-4.427.023-6.576,0c-1.109-.167-2.028-.607-1.891-1.911s1.161-1.523,2.254-1.524q5.118,0,10.237,0c1.007,0,1.962.229,2.151,1.393C1280.385-441.848,1279.576-441.3,1278.43-441.108Z" transform="translate(-101.152)" fill="#435864"/>
      <path id="Trazado_218038" data-name="Trazado 218038" d="M1235.756-377.827c0-1.373-.058-2.749.015-4.119a2.594,2.594,0,0,0-.912-2.291l2.644-.2c3.11.239,3.161.292,3.169,3.336q0,1.637.006,3.272A20.762,20.762,0,0,1,1235.756-377.827Z" transform="translate(-83.966 -33.676)" fill="#fd2727"/>
      <path id="Trazado_218039" data-name="Trazado 218039" d="M1291.726-377.827c0-1.373-.058-2.749.015-4.119a2.594,2.594,0,0,0-.912-2.291l2.643-.2c3.11.239,3.161.292,3.17,3.336q0,1.637.007,3.272A20.765,20.765,0,0,1,1291.726-377.827Z" transform="translate(-115.334 -33.676)" fill="#fd2727"/>
      <path id="Trazado_218040" data-name="Trazado 218040" d="M1327.019-276.673l-4.971-.011q-.056-2.139-.111-4.278l.191-.015,4.688-.018C1327.237-279.57,1326.937-278.112,1327.019-276.673Z" transform="translate(-132.769 -91.651)" fill="#faa743"/>
      <path id="Trazado_218041" data-name="Trazado 218041" d="M1158.657-276.771l-13.416,0q-.051-2.123-.1-4.247l.139-.048,4.269-.09,1.563.014,7.464.109.088-.044Q1158.66-278.926,1158.657-276.771Z" transform="translate(-33.684 -91.557)" fill="#fd2727"/>
      <path id="Trazado_218042" data-name="Trazado 218042" d="M1141.291-322.34a19.106,19.106,0,0,1-.022,2.4,1.555,1.555,0,0,1-1.609,1.492,1.513,1.513,0,0,1-1.619-1.468c-.088-1.673-.081-3.356-.008-5.031a1.507,1.507,0,0,1,1.606-1.479,1.53,1.53,0,0,1,1.628,1.462A22,22,0,0,1,1141.291-322.34Z" transform="translate(-29.67 -66.19)" fill="#d5e4ef"/>
      <path id="Trazado_218043" data-name="Trazado 218043" d="M1156.583-322.33c0,.73.037,1.462-.008,2.189a1.611,1.611,0,0,1-1.642,1.7,1.591,1.591,0,0,1-1.656-1.687c-.075-1.529-.074-3.066-.008-4.6a1.58,1.58,0,0,1,1.65-1.688,1.586,1.586,0,0,1,1.656,1.675C1156.616-323.938,1156.583-323.133,1156.583-322.33Z" transform="translate(-38.212 -66.196)" fill="#d5e4ef"/>
      <path id="Trazado_218044" data-name="Trazado 218044" d="M1110.632-322.486a21.073,21.073,0,0,1-.024,2.622,1.537,1.537,0,0,1-1.664,1.417,1.446,1.446,0,0,1-1.509-1.333,45.232,45.232,0,0,1-.025-5.24,1.471,1.471,0,0,1,1.662-1.407,1.556,1.556,0,0,1,1.567,1.534c.062.8.013,1.6.013,2.407Z" transform="translate(-12.503 -66.186)" fill="#d5e4ef"/>
      <path id="Trazado_218045" data-name="Trazado 218045" d="M1110.652-376.968c0,.728.025,1.458-.009,2.185a1.6,1.6,0,0,1-1.6,1.731,1.544,1.544,0,0,1-1.7-1.61c-.088-1.524-.078-3.058-.017-4.585a1.584,1.584,0,0,1,1.608-1.72c1.174-.021,1.682.711,1.714,1.814C1110.672-378.426,1110.654-377.7,1110.652-376.968Z" transform="translate(-12.466 -35.621)" fill="#d5e4ef"/>
      <path id="Trazado_218046" data-name="Trazado 218046" d="M1156.536-349.638a20.678,20.678,0,0,1-.02,2.4,1.469,1.469,0,0,1-1.463,1.369,1.453,1.453,0,0,1-1.725-1.308,39.06,39.06,0,0,1-.029-5.229,1.488,1.488,0,0,1,1.678-1.391,1.568,1.568,0,0,1,1.558,1.54c.076.867.017,1.746.017,2.62Z" transform="translate(-38.215 -50.846)" fill="#d5e4ef"/>
      <path id="Trazado_218047" data-name="Trazado 218047" d="M1110.561-349.72a21.134,21.134,0,0,1-.019,2.4,1.509,1.509,0,0,1-1.61,1.457,1.485,1.485,0,0,1-1.634-1.432,42.849,42.849,0,0,1-.011-5.018,1.508,1.508,0,0,1,1.61-1.475,1.6,1.6,0,0,1,1.665,1.664c.057.8.011,1.6.011,2.4Z" transform="translate(-12.431 -50.854)" fill="#d5e4ef"/>
      <path id="Trazado_218048" data-name="Trazado 218048" d="M1156.63-376.956c0,.728.026,1.458-.01,2.185a1.6,1.6,0,0,1-1.606,1.719,1.547,1.547,0,0,1-1.692-1.622c-.084-1.524-.076-3.058-.013-4.585a1.578,1.578,0,0,1,1.617-1.709c1.175-.012,1.674.725,1.7,1.827C1156.649-378.414,1156.633-377.685,1156.63-376.956Z" transform="translate(-38.235 -35.62)" fill="#d5e4ef"/>
      <path id="Trazado_218049" data-name="Trazado 218049" d="M1155.453-291.209l-1.563-.014c-1.6-2.153-.85-4.559-.672-6.877.052-.676.761-1.011,1.492-1.015.746-.005,1.439.388,1.47,1.04C1156.286-295.763,1157.124-293.341,1155.453-291.209Z" transform="translate(-38.027 -81.494)" fill="#d5e4ef"/>
      <path id="Trazado_218050" data-name="Trazado 218050" d="M1137.942-349.856c0-.728-.023-1.457.007-2.184a1.62,1.62,0,0,1,1.583-1.749,1.551,1.551,0,0,1,1.7,1.613c.089,1.523.083,3.056.025,4.581a1.59,1.59,0,0,1-1.814,1.723c-1.056-.072-1.483-.807-1.5-1.8C1137.927-348.4,1137.94-349.128,1137.942-349.856Z" transform="translate(-29.646 -50.851)" fill="#d5e4ef"/>
      <path id="Trazado_218051" data-name="Trazado 218051" d="M1109.478-291.209l-1.563-.014c-1.6-2.153-.851-4.559-.673-6.877.052-.676.761-1.011,1.492-1.015s1.439.388,1.469,1.04C1110.311-295.763,1111.15-293.341,1109.478-291.209Z" transform="translate(-12.26 -81.494)" fill="#d5e4ef"/>
      <path id="Trazado_218052" data-name="Trazado 218052" d="M1138.024-377.3c.263-1.2-.771-3.538,1.754-3.484,2.256.048,1.477,2.223,1.61,3.625a17.986,17.986,0,0,1,0,2.183c-.032,1.152-.463,2.063-1.763,2.018-1.156-.04-1.589-.876-1.6-1.952C1138.017-375.635,1138.024-376.364,1138.024-377.3Z" transform="translate(-29.695 -35.724)" fill="#d5e4ef"/>
      <path id="Trazado_218053" data-name="Trazado 218053" d="M1122.4-291.093c.044-1.955.1-3.91.126-5.865.014-1.13.273-2.111,1.623-2.095,1.327.016,1.608.976,1.614,2.115.01,1.956.063,3.913.1,5.869l-.156-.044-3.131.041Z" transform="translate(-20.94 -81.53)" fill="#d2edfc"/>
      <path id="Trazado_218054" data-name="Trazado 218054" d="M1122.858-377.271c0-.731-.046-1.464.011-2.19a1.475,1.475,0,0,1,1.57-1.492,1.429,1.429,0,0,1,1.569,1.477c.061,1.6.048,3.214.019,4.82a1.465,1.465,0,0,1-1.464,1.6,1.5,1.5,0,0,1-1.7-1.581c-.053-.873-.011-1.753-.011-2.629Z" transform="translate(-21.183 -35.629)" fill="#d2edfc"/>
      <path id="Trazado_218055" data-name="Trazado 218055" d="M1137.769-291.077c.025-1.951.062-3.9.069-5.854,0-1.141.332-2.081,1.633-2.1,1.352-.023,1.6.978,1.615,2.091q.026,2.928.062,5.856l-.139.048-3.109-.083Z" transform="translate(-29.553 -81.54)" fill="#d2edfc"/>
      <path id="Trazado_218056" data-name="Trazado 218056" d="M1125.945-349.8c0,.8.03,1.605-.008,2.405a1.456,1.456,0,0,1-1.509,1.54,1.47,1.47,0,0,1-1.658-1.606q-.05-2.3-.006-4.592a1.526,1.526,0,0,1,1.621-1.679,1.567,1.567,0,0,1,1.569,1.744c.016.729,0,1.458,0,2.187Z" transform="translate(-21.132 -50.886)" fill="#d2edfc"/>
      <path id="Trazado_218057" data-name="Trazado 218057" d="M1125.984-322.269c0,.8.042,1.606-.011,2.4a1.486,1.486,0,0,1-1.575,1.493,1.477,1.477,0,0,1-1.558-1.512c-.051-1.6-.042-3.206-.015-4.81a1.445,1.445,0,0,1,1.485-1.562,1.474,1.474,0,0,1,1.682,1.581c.035.8.007,1.6.007,2.405Z" transform="translate(-21.165 -66.283)" fill="#d2edfc"/>
      <path id="Trazado_218058" data-name="Trazado 218058" d="M1133.446-276.71l-3.443,0q-.041-2.155-.081-4.309l.156.044,3.294-.019.13-.046Q1133.474-278.873,1133.446-276.71Z" transform="translate(-25.155 -91.627)" fill="#fd2727"/>
      <path id="Trazado_218059" data-name="Trazado 218059" d="M1186.583-294.892q.085-5.478.17-10.957l11.776.008q.073,5.47.146,10.942l-.147-.041-11.774.012Z" transform="translate(-56.911 -77.721)" fill="#d2edfc"/>
      <path id="Trazado_218060" data-name="Trazado 218060" d="M1222.707-294.9q.073-5.47.145-10.94l11.774-.01q.086,5.48.173,10.96l-.174-.035-11.773-.017Z" transform="translate(-77.156 -77.718)" fill="#d2edfc"/>
      <path id="Trazado_218061" data-name="Trazado 218061" d="M1270.683-305.857q.1,5.487.2,10.974l-.2-.028-11.778-.044-.147.041q.073-5.469.146-10.937Z" transform="translate(-97.361 -77.716)" fill="#d2edfc"/>
      <path id="Trazado_218062" data-name="Trazado 218062" d="M1294.8-294.919q.077-5.465.153-10.931l11.283.055.487.327q.1,5.281.2,10.562l-.192.015-11.772-.072Z" transform="translate(-117.56 -77.72)" fill="#d3eefd"/>
      <path id="Trazado_218063" data-name="Trazado 218063" d="M1306.306-316.35l-11.283-.055q-.048-3.059-.1-6.119c-.026-1.479.8-2.128,2.175-2.144,2.553-.029,5.105-.007,7.658-.013a1.974,1.974,0,0,1,2.229,2.134,26.97,26.97,0,0,1-.16,6.091Z" transform="translate(-117.63 -67.166)" fill="#688fa0"/>
      <path id="Trazado_218064" data-name="Trazado 218064" d="M1270.741-316.409l-11.778.006c-.028-1.966-.024-3.933-.1-5.9-.057-1.548.641-2.35,2.168-2.367,2.551-.029,5.1-.013,7.654-.011a1.879,1.879,0,0,1,2.137,2.153C1270.792-320.487,1270.768-318.448,1270.741-316.409Z" transform="translate(-97.419 -67.164)" fill="#688fa0"/>
      <path id="Trazado_218065" data-name="Trazado 218065" d="M1234.7-316.415l-11.774.011c-.026-2.039-.033-4.079-.086-6.118a1.821,1.821,0,0,1,1.933-2.13c2.7-.062,5.4-.055,8.092-.018,1.345.018,1.939.823,1.917,2.138C1234.748-320.494,1234.727-318.455,1234.7-316.415Z" transform="translate(-77.23 -67.156)" fill="#688fa0"/>
      <path id="Trazado_218066" data-name="Trazado 218066" d="M1198.638-316.392l-11.776-.008c-.027-2.04-.048-4.079-.084-6.119a1.876,1.876,0,0,1,2.133-2.154q3.719-.007,7.438,0c1.588,0,2.451.673,2.381,2.382C1198.651-320.328,1198.665-318.359,1198.638-316.392Z" transform="translate(-57.02 -67.169)" fill="#688fa0"/>
      <path id="Trazado_218067" data-name="Trazado 218067" d="M1301.021-336.281c-1.309,0-2.618-.005-3.927,0-1.087.005-1.909-.452-2-1.566-.1-1.167.749-1.746,1.786-1.771,2.761-.068,5.526-.06,8.288-.008a1.6,1.6,0,0,1,1.748,1.794c-.061,1.2-.9,1.552-1.963,1.55Q1302.984-336.282,1301.021-336.281Z" transform="translate(-117.718 -58.768)" fill="#d5ebf0"/>
      <path id="Trazado_218068" data-name="Trazado 218068" d="M1264.943-336.283h-3.928c-1.083,0-1.9-.447-1.986-1.578-.088-1.182.773-1.732,1.8-1.757,2.762-.068,5.528-.062,8.291-.005a1.6,1.6,0,0,1,1.737,1.811c-.053,1.069-.776,1.507-1.769,1.523C1267.708-336.268,1266.325-336.284,1264.943-336.283Z" transform="translate(-97.509 -58.767)" fill="#d5ebf0"/>
      <path id="Trazado_218069" data-name="Trazado 218069" d="M1228.781-336.274c-1.317,0-2.635.023-3.953-.007-1.1-.025-1.855-.555-1.854-1.716a1.587,1.587,0,0,1,1.749-1.6c2.779-.067,5.562-.065,8.342-.019a1.575,1.575,0,0,1,1.732,1.608c.01,1.169-.75,1.7-1.844,1.724C1231.563-336.247,1230.172-336.274,1228.781-336.274Z" transform="translate(-77.306 -58.778)" fill="#d5ebf0"/>
      <path id="Trazado_218070" data-name="Trazado 218070" d="M1192.756-336.277c-1.317,0-2.636.017-3.953-.007-1.093-.019-1.867-.518-1.89-1.683a1.555,1.555,0,0,1,1.688-1.646c2.78-.056,5.563-.063,8.342.007,1.036.026,1.9.575,1.791,1.776-.1,1.148-.945,1.559-2.026,1.555C1195.391-336.279,1194.073-336.276,1192.756-336.277Z" transform="translate(-57.096 -58.773)" fill="#d5ebf0"/>
      <path id="Trazado_218071" data-name="Trazado 218071" d="M1175.891-276.684q0-2.155.006-4.311l4.693.026.171-.036q-.044,2.157-.087,4.314Z" transform="translate(-50.918 -91.644)" fill="#faa743"/>
      <path id="Trazado_218072" data-name="Trazado 218072" d="M1253.815-276.723l-3.908,0q-.044-2.156-.089-4.312l.174.035,3.755-.019.147-.041Q1253.856-278.889,1253.815-276.723Z" transform="translate(-92.351 -91.616)" fill="#faa743"/>
      <path id="Trazado_218073" data-name="Trazado 218073" d="M1289.865-276.74l-3.87.01q-.053-2.148-.1-4.3l.2.028,3.718-.04.156-.045Q1289.914-278.912,1289.865-276.74Z" transform="translate(-112.567 -91.6)" fill="#faa743"/>
      <path id="Trazado_218074" data-name="Trazado 218074" d="M1217.764-276.713l-3.934,0q-.036-2.162-.073-4.323l.147.041h3.787l.144-.042Q1217.8-278.875,1217.764-276.713Z" transform="translate(-72.14 -91.626)" fill="#faa743"/>
      <path id="Trazado_218075" data-name="Trazado 218075" d="M1320.816-305.86l.522-.105a.67.67,0,0,1-.034.432Z" transform="translate(-132.141 -77.656)" fill="#bbd2df"/>
      <path id="Trazado_218076" data-name="Trazado 218076" d="M1222.873-276.713q.036-2.162.072-4.324l11.773.017q.044,2.156.089,4.312Z" transform="translate(-77.249 -91.626)" fill="#b6d2e0"/>
      <path id="Trazado_218077" data-name="Trazado 218077" d="M1198.635-281.032q.037,2.161.073,4.323l-11.934,0q.043-2.157.087-4.314Z" transform="translate(-57.018 -91.629)" fill="#b6d2e0"/>
      <path id="Trazado_218078" data-name="Trazado 218078" d="M1270.77-281.011q.052,2.149.1,4.3l-11.963-.008q.04-2.167.08-4.333Z" transform="translate(-97.447 -91.616)" fill="#b6d2e0"/>
      <path id="Trazado_218079" data-name="Trazado 218079" d="M1294.932-276.74q.049-2.173.1-4.344l11.771.072q.056,2.139.112,4.278Z" transform="translate(-117.635 -91.6)" fill="#bbd2df"/>
      <path id="Trazado_218080" data-name="Trazado 218080" d="M1125.786-280.989q.04,2.155.081,4.309l-3.324,0q.056-2.137.113-4.273Z" transform="translate(-21.02 -91.653)" fill="#b6d2e0"/>
      <path id="Trazado_218081" data-name="Trazado 218081" d="M1137.94-276.71q.028-2.163.055-4.326l3.109.083q.051,2.124.1,4.247Z" transform="translate(-29.649 -91.627)" fill="#b6d2e0"/>
    </g>
  </g>
</svg>
