<svg xmlns="http://www.w3.org/2000/svg" width="295" height="261.062" viewBox="0 0 295 261.062">
  <g id="Grupo_876072" data-name="Grupo 876072" transform="translate(-25.709 -50.522)">
    <g id="Grupo_876073" data-name="Grupo 876073" transform="translate(267.832 190.245)">
      <g id="Grupo_876072-2" data-name="Grupo 876072">
        <path id="Trazado_218233" data-name="Trazado 218233" d="M392.334,263.363l-.09-1.284s.572-.039,1.532-.037,2.336.034,3.977.157a60.26,60.26,0,0,1,11.845,2.115,55.66,55.66,0,0,1,11.16,4.507,37.823,37.823,0,0,1,3.432,2l1.26.83-.721,1.065-1.229-.809a36.553,36.553,0,0,0-3.348-1.956,54.37,54.37,0,0,0-10.9-4.4,58.973,58.973,0,0,0-11.591-2.07c-1.6-.121-2.942-.165-3.873-.154S392.334,263.363,392.334,263.363Z" transform="translate(-392.244 -262.041)" fill="#ccbe8c"/>
      </g>
      <path id="Trazado_218234" data-name="Trazado 218234" d="M443.527,283.1a4.844,4.844,0,0,1-1.778-2.909,4.041,4.041,0,0,1,.54-3.136,3.527,3.527,0,0,1,2.864-1.5,5.832,5.832,0,0,1,3.624,1.331,5.61,5.61,0,0,1,1.9,3.367,3.444,3.444,0,0,1-.963,3.038,4.138,4.138,0,0,1-3.039,1.093A5.04,5.04,0,0,1,443.527,283.1Z" transform="translate(-409.015 -266.629)" fill="#ffeeb0"/>
      <path id="Trazado_218235" data-name="Trazado 218235" d="M443.354,279.78a9.16,9.16,0,0,0,1.246.485,6.4,6.4,0,0,0,2.447.423,4.892,4.892,0,0,0-.735-2.456,9.32,9.32,0,0,0-.816-1.134,7.912,7.912,0,0,0,2.9-1.422,5.982,5.982,0,0,0,1.005-.964,10.26,10.26,0,0,0-3.911-1.189,6.529,6.529,0,0,0-2.859.458,6.072,6.072,0,0,0-2.286,1.512,7.566,7.566,0,0,0-.539,2.662,9.411,9.411,0,0,0,.332,2.662,8.328,8.328,0,0,0,1.514,3.068,6.8,6.8,0,0,0,.795-1.13A6.7,6.7,0,0,0,443.354,279.78Z" transform="translate(-408.384 -265.932)" fill="#ccbe8c"/>
    </g>
    <ellipse id="Elipse_7382" data-name="Elipse 7382" cx="132.197" cy="11.091" rx="132.197" ry="11.091" transform="translate(43.605 289.402)" fill="#ededed"/>
    <g id="Grupo_876075" data-name="Grupo 876075" transform="translate(37.944 179.5)">
      <g id="Grupo_876074" data-name="Grupo 876074" transform="translate(10.866 4.47)">
        <path id="Trazado_218236" data-name="Trazado 218236" d="M97.76,257.28l-.47,1.3s-.528-.19-1.495-.489-2.349-.708-4.03-1.135a99.8,99.8,0,0,0-12.5-2.359,92.291,92.291,0,0,0-12.689-.661c-1.729.088-3.176.1-4.18.208l-1.579.157-.138-1.376,1.61-.16c1.024-.112,2.495-.124,4.256-.211a93.563,93.563,0,0,1,12.888.671,101.319,101.319,0,0,1,12.674,2.391c1.707.434,3.117.846,4.1,1.155S97.76,257.28,97.76,257.28Z" transform="translate(-60.68 -252.542)" fill="#ccbe8c"/>
      </g>
      <path id="Trazado_218237" data-name="Trazado 218237" d="M48.646,248.824a6.126,6.126,0,0,1,4.051.635,3.952,3.952,0,0,1,1.92,2.915,4.132,4.132,0,0,1-1.123,3.217,5.358,5.358,0,0,1-3.235,1.828,7.3,7.3,0,0,1-1.922.054,5.158,5.158,0,0,1-1.734-.551,4.391,4.391,0,0,1-2.24-2.645,3.744,3.744,0,0,1,.736-3.353,5.6,5.6,0,0,1,1.494-1.319A5.389,5.389,0,0,1,48.646,248.824Z" transform="translate(-44.231 -246.777)" fill="#ffeeb0"/>
      <path id="Trazado_218238" data-name="Trazado 218238" d="M52.2,250.056a10.025,10.025,0,0,0-1.354.644,5.108,5.108,0,0,0-2,1.881,7.136,7.136,0,0,0,2.518.927,9.747,9.747,0,0,0,1.428.188,7.373,7.373,0,0,0-.729,3.288,7.245,7.245,0,0,0,.142,1.48,9.329,9.329,0,0,0,3.093-2.12,8.491,8.491,0,0,0,1.72-2.333,7.961,7.961,0,0,0,.848-2.806,6.614,6.614,0,0,0-1.388-2.585,7.9,7.9,0,0,0-2.431-1.922,10.746,10.746,0,0,0-4.224-.924,6.49,6.49,0,0,0,.427,1.433A8.33,8.33,0,0,0,52.2,250.056Z" transform="translate(-45.799 -245.774)" fill="#ccbe8c"/>
    </g>
    <path id="Trazado_218239" data-name="Trazado 218239" d="M245.57,112.907s-10.709-5.3-12.582-16.945S249.7,79.9,257.407,99.175c0,0-1.4-20.881,11.319-23.156s10.663,23.13,6.8,27.159c0,0,5.341-3.869,10.579-.657s3.547,15.794-13.343,19.141S245.57,112.907,245.57,112.907Z" transform="translate(-70.311 -8.605)" fill="#ea3584"/>
    <path id="Trazado_218240" data-name="Trazado 218240" d="M265.443,129.7a82.727,82.727,0,0,0-8.414-13.649l.295-.227a83.18,83.18,0,0,1,8.457,13.723Z" transform="translate(-78.516 -22.164)" fill="#fff"/>
    <rect id="Rectángulo_296847" data-name="Rectángulo 296847" width="26.06" height="0.371" transform="matrix(0.17, -0.985, 0.985, 0.17, 195.761, 106.401)" fill="#fff"/>
    <path id="Trazado_218241" data-name="Trazado 218241" d="M129.034,161.778s-4.412-9.675-13.51-9.673-10.416,9.611-5.095,16.742a37.754,37.754,0,0,0-21.289-5.578c-12.556.485-21.835,9.765-19.106,20.136s16.74,12.737,20.743,11.645c0,0-13.829,9.826-8.37,18.742s22.563,0,22.563,0Z" transform="translate(-14.883 -34.48)" fill="#6826cc"/>
    <path id="Trazado_218242" data-name="Trazado 218242" d="M119.7,200.793c-.156-.065-15.639-6.448-23.554-7.235l.073-.739c8.024.8,23.608,7.223,23.765,7.287Z" transform="translate(-23.908 -48.299)" fill="#fff"/>
    <path id="Trazado_218243" data-name="Trazado 218243" d="M96.308,202.124l-.439-.6c3.107-2.278,9.239-4.559,9.5-4.655l.257.7C105.562,197.589,99.331,199.907,96.308,202.124Z" transform="translate(-23.814 -49.674)" fill="#fff"/>
    <path id="Trazado_218244" data-name="Trazado 218244" d="M119.819,196.3c-.087-.24-2.133-5.89-2.313-8.187l.74-.058c.172,2.2,2.25,7.934,2.27,7.992Z" transform="translate(-31.158 -46.682)" fill="#fff"/>
    <path id="Trazado_218245" data-name="Trazado 218245" d="M100.811,236.031l-.375-.641a42.934,42.934,0,0,1,13.885-5.417l.105.735A42.182,42.182,0,0,0,100.811,236.031Z" transform="translate(-25.364 -60.91)" fill="#fff"/>
    <path id="Trazado_218246" data-name="Trazado 218246" d="M147.31,175.968c-.244-.264-6-6.542-7.568-11.647l.71-.218c1.52,4.943,7.345,11.3,7.4,11.363Z" transform="translate(-38.706 -38.552)" fill="#fff"/>
    <g id="Grupo_876076" data-name="Grupo 876076" transform="translate(25.709 190.926)">
      <path id="Trazado_218247" data-name="Trazado 218247" d="M69.929,268.134l-.61-4.524a58.235,58.235,0,0,0-28.639,3.28l-.271,3.206-1.542-2.417q-1.532.706-2.94,1.521l.972,5.926-3.541-4.272a19.821,19.821,0,0,0-6.251,6.894,12.41,12.41,0,0,0-1.125,8.317,13.556,13.556,0,0,0,3.313,6.487,16.083,16.083,0,0,0,2.764,2.4,20.371,20.371,0,0,0,3.409,1.879c4.919,2.155,11.33,2.945,18.248,2.439l1.64-5.2,2.282,4.786c1.564-.225,3.151-.507,4.732-.859l-.44-3.115,2.589,2.6q.917-.234,1.831-.5c10.952-3.166,17.867-8.361,22.037-12.8a28.349,28.349,0,0,0,5.6-8.094s-6.292-8.885-21.762-11.987Z" transform="translate(-25.709 -263.071)" fill="#ea3584"/>
    </g>
    <rect id="Rectángulo_296848" data-name="Rectángulo 296848" width="51.829" height="0.742" transform="translate(38.01 213.24) rotate(-10.695)" fill="#fff"/>
    <path id="Trazado_218248" data-name="Trazado 218248" d="M64.643,290.917c-3.63-.211-10.823-3.348-11.127-3.482l.3-.68c.074.032,7.375,3.218,10.872,3.421Z" transform="translate(-9.438 -80.184)" fill="#fff"/>
    <path id="Trazado_218249" data-name="Trazado 218249" d="M74.412,297.79l-.72-.18c.776-3.1,4.791-7.248,4.962-7.423l.531.518C79.145,290.747,75.139,294.882,74.412,297.79Z" transform="translate(-16.287 -81.349)" fill="#fff"/>
    <path id="Trazado_218250" data-name="Trazado 218250" d="M96.123,284.209c-4.165-.954-8.517-5.363-8.7-5.551l.531-.519c.043.044,4.384,4.44,8.336,5.346Z" transform="translate(-20.947 -77.26)" fill="#fff"/>
    <g id="Grupo_876496" data-name="Grupo 876496">
      <g id="Grupo_876077" data-name="Grupo 876077" transform="translate(254.953 214.51)">
        <path id="Trazado_218251" data-name="Trazado 218251" d="M392.061,324.114l-.975,4.346a56.782,56.782,0,0,0,27.314,6.7l1.335-2.841.592,2.733q1.641-.126,3.205-.4l1.119-5.752,1.793,5.11a19.34,19.34,0,0,0,8.054-4.189,12.1,12.1,0,0,0,3.847-7.228,13.214,13.214,0,0,0-.834-7.058,15.636,15.636,0,0,0-1.716-3.129,19.866,19.866,0,0,0-2.482-2.874c-3.771-3.639-9.368-6.533-15.869-8.414l-3.263,4.2-.466-5.152c-1.507-.324-3.054-.6-4.621-.816l-.653,3-1.486-3.259q-.918-.1-1.844-.166c-11.093-.815-19.18,1.6-24.5,4.242a27.661,27.661,0,0,0-7.867,5.508s2.746,10.261,15.849,18.341Z" transform="translate(-372.747 -298.773)" fill="#ea3584"/>
      </g>
      <rect id="Rectángulo_296849" data-name="Rectángulo 296849" width="0.743" height="50.567" transform="translate(259.46 226.425) rotate(-80.349)" fill="#fff"/>
      <path id="Trazado_218252" data-name="Trazado 218252" d="M438.282,331.746c-.055-.054-5.656-5.442-8.784-6.811l.3-.68c3.251,1.422,8.77,6.733,9,6.958Z" transform="translate(-137.057 -92.912)" fill="#fff"/>
      <path id="Trazado_218253" data-name="Trazado 218253" d="M418.892,320.386l-.319-.67c.052-.024,5.114-2.449,6.764-4.862l.613.419C424.187,317.852,419.107,320.285,418.892,320.386Z" transform="translate(-133.349 -89.721)" fill="#fff"/>
      <path id="Trazado_218254" data-name="Trazado 218254" d="M405.544,327.584c-.025-.055-2.506-5.546-5.813-7.712l.408-.621c3.49,2.286,5.979,7.8,6.083,8.03Z" transform="translate(-126.953 -91.214)" fill="#fff"/>
    </g>
    <g id="Grupo_876078" data-name="Grupo 876078" transform="translate(228.598 273.394)">
      <rect id="Rectángulo_296850" data-name="Rectángulo 296850" width="27.249" height="1.564" transform="translate(0 25.43) rotate(-68.946)" fill="#998f69"/>
    </g>
    <g id="Grupo_876079" data-name="Grupo 876079" transform="translate(238.387 273.394)">
      <rect id="Rectángulo_296851" data-name="Rectángulo 296851" width="1.564" height="27.249" transform="translate(0 0.562) rotate(-21.054)" fill="#998f69"/>
    </g>
    <g id="Grupo_876080" data-name="Grupo 876080" transform="translate(235.035 283.495)">
      <rect id="Rectángulo_296852" data-name="Rectángulo 296852" width="8.459" height="1.563" fill="#998f69"/>
    </g>
    <g id="Grupo_876081" data-name="Grupo 876081" transform="translate(233.091 289.085)">
      <rect id="Rectángulo_296853" data-name="Rectángulo 296853" width="12.259" height="1.563" fill="#998f69"/>
    </g>
    <path id="Trazado_218255" data-name="Trazado 218255" d="M87.326,425.973a5.944,5.944,0,0,0,.883,1.815,15.267,15.267,0,0,1,1.74,2.455c.119.477-.453.906-1,.715a40.632,40.632,0,0,1-5.435-2.693c-.93-.715-1.192-.978-1.169-1.145a28.956,28.956,0,0,1,1.484-2.653C84.156,423.974,86.635,423.991,87.326,425.973Z" transform="translate(-19.223 -126.836)" fill="#616476"/>
    <path id="Trazado_218256" data-name="Trazado 218256" d="M103.5,418.539a5.943,5.943,0,0,0,1.642,1.173,15.246,15.246,0,0,1,2.7,1.325c.332.361.035,1.012-.538,1.106a40.7,40.7,0,0,1-6.061.232c-1.159-.184-1.514-.289-1.573-.447a28.78,28.78,0,0,1,.036-3.04C99.763,418.3,101.948,417.128,103.5,418.539Z" transform="translate(-25.097 -124.688)" fill="#616476"/>
    <path id="Trazado_218257" data-name="Trazado 218257" d="M103.684,366.052s1.911,12.793,1.99,16.142-1.99,18.847-1.99,18.847H99.647s.394-7.552.394-8.734-.394-11.492-.394-11.492l.394-14.352S102.4,365.014,103.684,366.052Z" transform="translate(-25.097 -106.972)" fill="#3e167a"/>
    <path id="Trazado_218258" data-name="Trazado 218258" d="M88.91,366.552s-1.263,3.282-.869,10.045a78.836,78.836,0,0,0,.718,8.34s-4.527,17.6-5.118,19.7a9.631,9.631,0,0,0,4.4,1.642s4.794-11.82,6.5-16.023a26.482,26.482,0,0,0,2.216-10.835c.017-3.677.411-13.593.411-13.593Z" transform="translate(-19.664 -107.023)" fill="#3e167a"/>
    <path id="Trazado_218259" data-name="Trazado 218259" d="M100.806,394.013l-.355-.108a49.306,49.306,0,0,0,1.922-14.305l.371,0A49.662,49.662,0,0,1,100.806,394.013Z" transform="translate(-25.37 -111.698)" fill="#fff"/>
    <path id="Trazado_218260" data-name="Trazado 218260" d="M103.432,357.974s-8.321-1.437-11.335-3.107-2.643-3.153-2.225-4.219,1.715-3.339,1.715-3.339l2.949,2.11-.075.657-.5,1.149s.962.61,2.414,1.416,7.364,3.518,7.364,3.518S105.172,357.345,103.432,357.974Z" transform="translate(-21.684 -100.738)" fill="#ff9a5c"/>
    <path id="Trazado_218261" data-name="Trazado 218261" d="M109.9,362.477a5.343,5.343,0,0,0,1.566,1.124c.065.562.39.8.571.779s.186-.865.186-.865c.162.389.8.778.886.54a1.41,1.41,0,0,0,0-.627s.26.345.454.345.432-.172.345-.605a4.172,4.172,0,0,0-.605-1.427c-.26-.345-.411-.692-.973-.822a9.308,9.308,0,0,0-1.406-.108,12.339,12.339,0,0,0-1.622,0Z" transform="translate(-28.374 -105.311)" fill="#ff9a5c"/>
    <path id="Trazado_218262" data-name="Trazado 218262" d="M92.836,322.552s-1.107-2.41-4.234-1.5-2.15,3.843-4.169,5.081-5.016,1.889-5.8,5.341,1.628,3.713,0,5.8-2.215,3.582-.456,5.732,4.856,1.5,6.793.456,10.4-5.016,10.4-5.016a3.148,3.148,0,0,0,0-4.3c-1.964-2.218-1.433-5.6-1.433-5.6s.716-.13.977-2.085S94.558,321.961,92.836,322.552Z" transform="translate(-17.446 -91.756)" fill="#753519"/>
    <path id="Trazado_218263" data-name="Trazado 218263" d="M331.866,75.275l1.091-.79a33.4,33.4,0,0,0,9.866,7.659c6.124,3.087,8.224,4.265,8.781,4.366s3.189.556,4.1,1.72,1.012,1.823.809,1.873-1.214-1.417-1.214-1.417,1.013,1.306.911,1.793-.67-.345-.873-.548-.711-.792-.711-.792a8.027,8.027,0,0,1,1.116,1.827c.041.427-.67-.122-1.218-.731s-1.157-.894-1.3-.711-.2.934-.426.792-.264-.711-.366-1.117c-.361-.008-2.011-.6-4.983-1.2s-14.856-5.81-17.563-9.178S331.866,75.275,331.866,75.275Z" transform="translate(-102.961 -8.134)" fill="#ff9a5c"/>
    <g id="Grupo_876082" data-name="Grupo 876082" transform="translate(274.064 164.077)">
      <path id="Trazado_218264" data-name="Trazado 218264" d="M431.8,247.436h0a7.806,7.806,0,0,0,1.881-4,7.156,7.156,0,0,0-.95-4.189l.869.925c.514.561,1.233,1.281,1.9,2.049l2.523,3.184a9.13,9.13,0,0,0-2.029,4.053,7.525,7.525,0,0,0,.331,4.3h0a7.472,7.472,0,0,0,2.3-3.694,6.939,6.939,0,0,0,.188-2.129,5.93,5.93,0,0,0-.523-2.2l.439.555c.25.343.551.822.866,1.292l1.249,1.888a8.535,8.535,0,0,0,.339,2.287,7.791,7.791,0,0,0,.776,2.05,8.1,8.1,0,0,0,3.284,3.111h0a7.886,7.886,0,0,0-.855-4.485,7.039,7.039,0,0,0-1.346-1.8,8.591,8.591,0,0,0-2.02-1.278l-.781-1.181-.8-1.211-.452-.682-.523-.665-2.815-3.554a8.461,8.461,0,0,0,8.558.995h0a8.145,8.145,0,0,0-4.36-2.2,6.994,6.994,0,0,0-4.477.874l-2.79-2.97a25.77,25.77,0,0,0-2.024-1.935l-.945-.854a8.92,8.92,0,0,0,2.147.8,11.35,11.35,0,0,0,2.178.253,8.412,8.412,0,0,0,4.3-1.207h0a9.64,9.64,0,0,0-2.254-1.247,6.552,6.552,0,0,0-2.339-.4,7.22,7.22,0,0,0-4.352,1.507l-.945-.853-2.216-1.715a27.97,27.97,0,0,0-2.26-1.653l-1.064-.7a9.01,9.01,0,0,0,2.251.468,8.272,8.272,0,0,0,2.169-.022,8.636,8.636,0,0,0,4.117-1.824h0a8.023,8.023,0,0,0-4.792-.99,7.275,7.275,0,0,0-4.105,2.13l-1.064-.7c-.641-.415-1.548-.885-2.431-1.392l-1.305-.732-1.178-.563-1.149-.55a9.589,9.589,0,0,0,4.439-.2,8.644,8.644,0,0,0,3.811-2.4h0a9.844,9.844,0,0,0-2.549-.532,7.52,7.52,0,0,0-1.2.013,7.4,7.4,0,0,0-1.155.244,7.162,7.162,0,0,0-3.74,2.685l-.537-.256-1.454-.591c-1.192-.518-2.829-1.085-4.476-1.618-1.659-.5-3.337-.931-4.615-1.17-1.272-.264-2.142-.347-2.142-.347l-.02.211s.6.064,1.5.227,2.089.427,3.271.727c1.172.335,2.349.656,3.207.976l1.442.493a9.19,9.19,0,0,0,.449,4.526,8.291,8.291,0,0,0,2.5,3.44h0a7.505,7.505,0,0,0,.046-4.365,6.725,6.725,0,0,0-2.591-3.451l1.176.478c.7.291,1.656.645,2.562,1.107.912.444,1.838.863,2.512,1.219l1.106.621a8.805,8.805,0,0,0-.21,4.51,7.7,7.7,0,0,0,1.971,3.786h0a7.417,7.417,0,0,0,.67-4.294,6.889,6.889,0,0,0-.667-2.033,7.539,7.539,0,0,0-1.389-1.758l1.107.622c.68.346,1.505.943,2.36,1.49a36.454,36.454,0,0,1,3.313,2.345,8.762,8.762,0,0,0-.858,4.432,8.072,8.072,0,0,0,1.406,4.048h0a7.52,7.52,0,0,0,1.285-4.172,6.519,6.519,0,0,0-.367-2.111,7.868,7.868,0,0,0-1.126-1.935l1.005.775a25.33,25.33,0,0,1,2.122,1.812l2.072,1.872a8.7,8.7,0,0,1,.646.654l.239.254a8.934,8.934,0,0,0-1.5,4.3,7.143,7.143,0,0,0,.174,2.1A9.241,9.241,0,0,0,431.8,247.436Z" transform="translate(-401.679 -222.425)" fill="#6826cc"/>
    </g>
    <g id="Grupo_876083" data-name="Grupo 876083" transform="translate(56.665 83.784)">
      <path id="Trazado_218265" data-name="Trazado 218265" d="M88.082,113.407h0a9.249,9.249,0,0,0-2.635,4.527,8.406,8.406,0,0,0,.472,5.156l-.891-1.223c-.547-.725-1.231-1.723-1.9-2.732l-1.858-2.761c-.259-.373-.455-.7-.592-.923l-.217-.355a10.12,10.12,0,0,0,2.784-4.662,8.646,8.646,0,0,0,.268-2.559,9.9,9.9,0,0,0-.386-2.659h0a9.284,9.284,0,0,0-3.036,4.286,8.707,8.707,0,0,0,.1,5.157s-.7-1.151-1.407-2.3c-.347-.578-.713-1.145-.957-1.588l-.4-.74a9.759,9.759,0,0,0-1.063-5.231,9.566,9.566,0,0,0-3.669-3.923h0a9.467,9.467,0,0,0,.7,5.41,9.091,9.091,0,0,0,3.816,3.868l.221.408c.138.261.34.631.611,1.058l1.935,3.165c.683,1.164,1.451,2.273,2.015,3.113l.941,1.4a10.147,10.147,0,0,0-4.694-2.38,9.833,9.833,0,0,0-5.287.39h0a11.061,11.061,0,0,0,2.274,1.924,8.475,8.475,0,0,0,2.558,1.023,8.988,8.988,0,0,0,5.437-.53l.849,1.255,1.963,2.7c1.4,1.979,2.918,3.871,2.918,3.871A10.335,10.335,0,0,0,86.6,126.17a9,9,0,0,0-2.473-.7,9.86,9.86,0,0,0-5.253.793h0a9.563,9.563,0,0,0,4.987,2.575,9.169,9.169,0,0,0,5.4-.888l.931,1.2c.548.725,1.324,1.657,2.1,2.591l2.122,2.57.992,1.145a9.5,9.5,0,0,0-10.113-.717h0A9.739,9.739,0,0,0,90.4,137a9.138,9.138,0,0,0,5.341-1.159l.992,1.144c.591.692,1.391,1.6,2.212,2.494l2.24,2.468,1.038,1.1A9.458,9.458,0,0,0,92.1,142.8h0a8.936,8.936,0,0,0,10.474.626l1.768,1.87c1.082,1.1,2.5,2.591,3.975,4.033,1.455,1.457,2.943,2.881,4.068,3.939s1.892,1.748,1.892,1.748l.168-.189s-2.155-1.951-4.233-3.987c-1.048-1.007-2.068-2.045-2.845-2.81l-1.273-1.3a9.713,9.713,0,0,0,1.687-5.156,9.413,9.413,0,0,0-1.414-5.16h0a8.767,8.767,0,0,0-.631,9.948s-1.7-1.728-3.346-3.5c-.836-.875-1.653-1.769-2.259-2.445l-1.016-1.122a9.349,9.349,0,0,0,.721-10.284h0a8.746,8.746,0,0,0-1.065,9.9l-1.011-1.127-2.181-2.515c-.8-.907-1.573-1.84-2.148-2.543l-.962-1.168a9.813,9.813,0,0,0,2.139-4.977,9.253,9.253,0,0,0-.91-5.238h0a9.248,9.248,0,0,0-2.323,4.688,8.649,8.649,0,0,0,.767,5.131L91.183,130l-2.048-2.624c-1.513-1.891-2.914-3.866-2.914-3.866a9.83,9.83,0,0,0,2.418-4.844A9.671,9.671,0,0,0,88.082,113.407Z" transform="translate(-72.572 -100.875)" fill="#cab3ed"/>
    </g>
    <path id="Trazado_218266" data-name="Trazado 218266" d="M281.89,83.994a3.86,3.86,0,0,1-.939-.757,2.6,2.6,0,0,0-.582-.771,2.055,2.055,0,0,0-.921-.4,4.24,4.24,0,0,0,.751,1.516.373.373,0,0,0,.517-.053,5.022,5.022,0,0,0,.705,1.192S282.5,84.354,281.89,83.994Z" transform="translate(-86.126 -10.708)" fill="#ff9a5c"/>
    <path id="Trazado_218372" data-name="Trazado 218372" d="M94.424,0A94.424,94.424,0,1,1,0,94.424,94.424,94.424,0,0,1,94.424,0Z" transform="translate(81.682 104.132)" fill="#a2a7c5"/>
    <path id="Trazado_218267" data-name="Trazado 218267" d="M223.861,293.637a84.414,84.414,0,0,1-41.779-157.759A94.434,94.434,0,1,0,295.616,253.69,84.347,84.347,0,0,1,223.861,293.637Z" transform="translate(-28.761 -28.972)" fill="#81859d"/>
    <path id="Trazado_218268" data-name="Trazado 218268" d="M294.285,84.958s-2.255,2.029-3.009,2.029-8.264-2.249-9.681-2.547-1.342.149-1.9.522,1.2,1.5,1.2,1.5,6.705,3.42,10.173,4.24,6.239-1.99,6.239-1.99A2.9,2.9,0,0,0,294.285,84.958Z" transform="translate(-86.172 -11.479)" fill="#ff9a5c"/>
    <path id="Trazado_218269" data-name="Trazado 218269" d="M260.948,88.211a30.845,30.845,0,0,0,8.914-.35s2.257,3.787,3.109,5.185l-.371,1.806a12.208,12.208,0,0,1-8.507,4.137S260.133,93.513,260.948,88.211Z" transform="translate(-79.809 -12.674)" fill="#998f69"/>
    <g id="Grupo_876084" data-name="Grupo 876084" transform="translate(182.776 68.968)">
      <path id="Trazado_218270" data-name="Trazado 218270" d="M270.12,91.41a4.357,4.357,0,0,1-1.935-.458l.374-.686a3.465,3.465,0,0,0,2.757.12c1.229-.529,2.151-1.9,2.739-4.074.668-2.474.334-4.451-.966-5.715a5.909,5.909,0,0,0-5.652-1.093c-3.523,1.063-3.165,6.011-3.161,6.061l-.779.064c0-.056-.416-5.627,3.714-6.873a6.663,6.663,0,0,1,6.422,1.28c1.058,1.028,2.12,2.986,1.176,6.48-.655,2.422-1.73,3.967-3.195,4.592A3.788,3.788,0,0,1,270.12,91.41Z" transform="translate(-263.483 -78.445)" fill="#998f69"/>
    </g>
    <path id="Trazado_218271" data-name="Trazado 218271" d="M279.218,83.564s-.678-.262-.949.2c-.281.479.851.855,1.807.761S280.176,83.733,279.218,83.564Z" transform="translate(-85.711 -11.19)" fill="#ff9a5c"/>
    <path id="Trazado_218272" data-name="Trazado 218272" d="M279.079,84.6a1.294,1.294,0,0,0-1.126.182c-.457.392,1.011.947,2.132.846S280.2,84.777,279.079,84.6Z" transform="translate(-85.589 -11.546)" fill="#ff9a5c"/>
    <path id="Trazado_218273" data-name="Trazado 218273" d="M310.513,167.9a6.668,6.668,0,0,1-.987,2.032,17.037,17.037,0,0,0-1.948,2.747c-.133.534.507,1.014,1.121.8a45.5,45.5,0,0,0,6.083-3.015c1.04-.8,1.334-1.094,1.307-1.28a32.276,32.276,0,0,0-1.661-2.969C314.061,165.668,311.286,165.685,310.513,167.9Z" transform="translate(-95.668 -39.168)" fill="#8c1f4f"/>
    <path id="Trazado_218274" data-name="Trazado 218274" d="M278.954,85.568a1.009,1.009,0,0,0-1,.217c-.407.419.894.99,1.892.883S280.375,85.639,278.954,85.568Z" transform="translate(-85.594 -11.879)" fill="#ff9a5c"/>
    <path id="Trazado_218275" data-name="Trazado 218275" d="M252.469,95.022s-14.525-3.28-15.061-3.283-2.344-.339-3.215.867a1.736,1.736,0,0,0,.937,1.139c.8.4,1.876-.4,1.876-.4l17.549,6.185A3.573,3.573,0,0,0,252.469,95.022Z" transform="translate(-70.765 -13.975)" fill="#998f69"/>
    <path id="Trazado_218276" data-name="Trazado 218276" d="M235.527,94.4h0a1.31,1.31,0,0,1-.59-.133,1.917,1.917,0,0,1-1.038-1.272l-.033-.182.181-.034a3.21,3.21,0,0,1,.55-.041,3.8,3.8,0,0,1,2.416.822l.185.15-.191.143A2.872,2.872,0,0,1,235.527,94.4Zm-1.2-1.28a1.6,1.6,0,0,0,.777.814.942.942,0,0,0,.424.094,2.236,2.236,0,0,0,1.044-.335,3.482,3.482,0,0,0-1.974-.583C234.492,93.108,234.4,93.113,234.326,93.118Z" transform="translate(-70.654 -14.329)" fill="#108f6e"/>
    <path id="Trazado_218277" data-name="Trazado 218277" d="M363.843,385.725h-26.17l4.416-5.088h26.17Z" transform="translate(-105.889 -112.05)" fill="#ffeeb0"/>
    <path id="Trazado_218278" data-name="Trazado 218278" d="M229.538,93.054s-10.3,10.294-8.933,22.6h12.473S230,100.437,232.352,93.8A3.521,3.521,0,0,0,229.538,93.054Z" transform="translate(-66.111 -14.422)" fill="#e8def8" opacity="0.79"/>
    <path id="Trazado_218279" data-name="Trazado 218279" d="M304.658,105.647s-10.078,7.969-11.23,10.724,4.548,8.649,4.548,8.649,5.382,19.156,7.24,22.359a23.479,23.479,0,0,0,4.549-1.729s-1.794-17.3-2.627-19.6c0,0,13.073-12.227,15.313-15.851S306.214,104.388,304.658,105.647Z" transform="translate(-90.819 -18.589)" fill="#3e167a"/>
    <path id="Trazado_218280" data-name="Trazado 218280" d="M320.362,151.844a6.654,6.654,0,0,1,.03,2.259,17.024,17.024,0,0,0-.508,3.329.8.8,0,0,0,1.361.213,45.465,45.465,0,0,0,4.083-5.423c.571-1.182.7-1.575.594-1.731a32.269,32.269,0,0,0-2.817-1.908C322.529,148.253,320.058,149.514,320.362,151.844Z" transform="translate(-99.844 -33.267)" fill="#8c1f4f"/>
    <path id="Trazado_218281" data-name="Trazado 218281" d="M300.111,129.3c-.13-4.262,6.993-11.125,7.3-11.415l.257.268c-.073.07-7.307,7.038-7.182,11.136Z" transform="translate(-93.139 -22.865)" fill="#fff"/>
    <path id="Trazado_218282" data-name="Trazado 218282" d="M301.564,135.015l12.419,11.311a27.559,27.559,0,0,0,2.715-3.354s-4.524-8.815-6.4-10.609S301.564,135.015,301.564,135.015Z" transform="translate(-93.633 -27.634)" fill="#3e167a"/>
    <path id="Trazado_218283" data-name="Trazado 218283" d="M356.31,377.562a6.666,6.666,0,0,1-1.755,1.422,17.09,17.09,0,0,0-2.928,1.664c-.347.427.03,1.133.676,1.2a45.522,45.522,0,0,0,6.787-.154c1.282-.284,1.672-.426,1.727-.606a32.43,32.43,0,0,0-.247-3.393C360.472,377.039,357.95,375.88,356.31,377.562Z" transform="translate(-110.581 -110.711)" fill="#616476"/>
    <g id="Grupo_876086" data-name="Grupo 876086" transform="translate(147.869 80.07)">
      <g id="Grupo_876085" data-name="Grupo 876085" transform="translate(4.368 4.784)">
        <path id="Trazado_218284" data-name="Trazado 218284" d="M225.911,121.09l-.753.022s-.007-.294-.075-.838-.184-1.313-.375-2.233a33.626,33.626,0,0,0-2.186-6.536,36.976,36.976,0,0,0-3.4-6.011c-.509-.8-1.018-1.4-1.346-1.84l-.527-.686.587-.473.537.7c.335.45.851,1.064,1.371,1.873a37.8,37.8,0,0,1,3.463,6.13,34.4,34.4,0,0,1,2.235,6.686c.2.945.326,1.741.386,2.305S225.911,121.09,225.911,121.09Z" transform="translate(-217.252 -102.496)" fill="#ccbe8c"/>
      </g>
      <path id="Trazado_218285" data-name="Trazado 218285" d="M214.986,96.272c1.109,1.249,1.158,2.945.131,3.765a2.908,2.908,0,0,1-3.876-4.16C212.136,94.911,213.814,95.086,214.986,96.272Z" transform="translate(-210.639 -95.253)" fill="#ffeeb0"/>
      <path id="Trazado_218286" data-name="Trazado 218286" d="M214.548,97.962a4.876,4.876,0,0,0-.685-.435,3.224,3.224,0,0,0-1.455-.363,3.213,3.213,0,0,0,.316,1.424,6.046,6.046,0,0,0,.329.718,4.146,4.146,0,0,0-2.366,1.116,5.025,5.025,0,0,0,3.488.914,4.207,4.207,0,0,0,1.522-.441,3.706,3.706,0,0,0,.776-1.412,4.756,4.756,0,0,0-.641-3.859A4.476,4.476,0,0,0,214.548,97.962Z" transform="translate(-210.655 -95.379)" fill="#ccbe8c"/>
    </g>
    <path id="Trazado_218287" data-name="Trazado 218287" d="M379.381,361.2a6.664,6.664,0,0,1-.308,2.237,17.067,17.067,0,0,0-1,3.216.8.8,0,0,0,1.313.413,45.516,45.516,0,0,0,4.849-4.751c.741-1.083.929-1.453.846-1.622a32.431,32.431,0,0,0-2.5-2.308C382.061,357.969,379.429,358.846,379.381,361.2Z" transform="translate(-119.601 -104.462)" fill="#616476"/>
    <g id="Grupo_876087" data-name="Grupo 876087" transform="translate(140.357 89.794)">
      <path id="Trazado_218288" data-name="Trazado 218288" d="M199.267,110.2a18.28,18.28,0,0,0,7.177,12.688c6.884,5.3,13.359,3.136,13.359,3.136s.446-6.813-6.439-12.118A18.278,18.278,0,0,0,199.267,110.2Z" transform="translate(-199.267 -109.973)" fill="#cab3ed"/>
      <rect id="Rectángulo_296854" data-name="Rectángulo 296854" width="0.372" height="22.285" transform="translate(2.77 2.596) rotate(-52.384)" fill="#fff"/>
      <rect id="Rectángulo_296855" data-name="Rectángulo 296855" width="4.176" height="0.371" transform="matrix(1, -0.031, 0.031, 1, 5.049, 7.283)" fill="#fff"/>
      <rect id="Rectángulo_296856" data-name="Rectángulo 296856" width="0.371" height="4.176" transform="translate(6.835 2.325) rotate(-12.947)" fill="#fff"/>
      <rect id="Rectángulo_296857" data-name="Rectángulo 296857" width="4.175" height="0.371" transform="translate(9.591 10.783) rotate(-1.794)" fill="#fff"/>
      <rect id="Rectángulo_296858" data-name="Rectángulo 296858" width="0.371" height="4.175" transform="translate(11.377 5.825) rotate(-12.942)" fill="#fff"/>
      <rect id="Rectángulo_296859" data-name="Rectángulo 296859" width="4.176" height="0.371" transform="translate(14.133 14.282) rotate(-1.784)" fill="#fff"/>
      <rect id="Rectángulo_296860" data-name="Rectángulo 296860" width="0.371" height="4.175" transform="matrix(0.975, -0.224, 0.224, 0.975, 15.918, 9.325)" fill="#fff"/>
    </g>
    <path id="Trazado_218289" data-name="Trazado 218289" d="M240.836,110.07a14.558,14.558,0,0,0-10.1,5.717c-4.225,5.483-2.5,10.639-2.5,10.639s5.427.355,9.652-5.127A14.562,14.562,0,0,0,240.836,110.07Z" transform="translate(-68.624 -20.212)" fill="#6826cc"/>
    <g id="Grupo_876090" data-name="Grupo 876090" transform="translate(86.718 51.985)">
      <g id="Grupo_876088" data-name="Grupo 876088" transform="translate(0 0)">
        <path id="Trazado_218290" data-name="Trazado 218290" d="M158.49,103.423l3.887-6.24a68.972,68.972,0,0,0-6.835-17.407,55.467,55.467,0,0,0-9.383-12.229l-5.249,3.689s.69-1.5,1.429-2.979l1.467-2.946a70.3,70.3,0,0,0-11.983-8.561c-1.9-1.044-3.559-1.92-5.1-2.6a24.206,24.206,0,0,0-3.947-1.415,22.155,22.155,0,0,0-2.81,5.946,33.208,33.208,0,0,0-1.124,4.477,44.056,44.056,0,0,0-.677,5.31l3.282,1.326,3.259,1.274-3.31.127-3.325.094a50.69,50.69,0,0,0,7.04,26.1,52.476,52.476,0,0,0,2.971,4.518c1.031,1.416,2.081,2.755,3.169,3.991l4.631-.285,4.616-.318-5.817,4.245a61.062,61.062,0,0,0,12.983,9.689c1.764.982,3.232,1.669,4.262,2.122s1.627.672,1.627.672l5.443-3.771,5.443-3.771s.033-.343.035-1.021-.008-1.654-.075-2.9a72.038,72.038,0,0,0-1.288-10.107Z" transform="translate(-118.066 -52.737)" fill="#cab3ed"/>
      </g>
      <g id="Grupo_876089" data-name="Grupo 876089" transform="translate(9.216 10.96)">
        <path id="Trazado_218291" data-name="Trazado 218291" d="M165.418,122.715c-2.052-3-7.108-10.44-13.3-20.058-6.2-9.619-13.559-21.411-20.1-33.329a243.2,243.2,0,0,0,17.117,35.154c5.771,9.983,10.8,17.491,12.907,20.571l1.688-1.169Z" transform="translate(-132.018 -69.328)" fill="#fff"/>
      </g>
    </g>
    <g id="Grupo_876093" data-name="Grupo 876093" transform="translate(117.333 69.358)">
      <g id="Grupo_876091" data-name="Grupo 876091" transform="translate(0 0)">
        <path id="Trazado_218292" data-name="Trazado 218292" d="M181.9,118.642l4.065-2.443a44.269,44.269,0,0,0,1.167-12.038,35.806,35.806,0,0,0-1.849-9.82l-4.1.612,1.688-1.311,1.693-1.287a43.6,43.6,0,0,0-4.489-8.44,24.054,24.054,0,0,0-4.14-4.878c-1.739.935-4.652,3.592-7.1,7.8l1.522,1.692,1.523,1.661-1.951-.87-1.951-.89a32.9,32.9,0,0,0-3.494,16.985,37.728,37.728,0,0,0,1.04,6.665l5.488,2.358-4.586.731a39.745,39.745,0,0,0,4.6,9.362c.723,1.081,1.363,1.908,1.819,2.47s.735.863.735.863l4.234-.556,4.234-.556a23.113,23.113,0,0,0,1.132-2.264,46.131,46.131,0,0,0,2.235-6.188Z" transform="translate(-164.413 -79.036)" fill="#6826cc"/>
      </g>
      <g id="Grupo_876092" data-name="Grupo 876092" transform="translate(10.423 7.63)">
        <path id="Trazado_218293" data-name="Trazado 218293" d="M184.486,131.052c-.293-2.329-1-8.086-1.735-15.428s-1.529-16.278-1.921-25.038a171.545,171.545,0,0,0-.33,25.211c.393,7.424,1.059,13.211,1.36,15.6l1.313-.172Z" transform="translate(-180.192 -90.587)" fill="#fff"/>
      </g>
    </g>
    <g id="Grupo_876499" data-name="Grupo 876499">
      <path id="Trazado_218294" data-name="Trazado 218294" d="M365.108,162.373s6.254-17.377,5.471-34.223,4.169-29.5,12.246-28.512,15.112,31.468-15.633,64.558Z" transform="translate(-115.201 -16.653)" fill="#6826cc"/>
      <path id="Trazado_218295" data-name="Trazado 218295" d="M368.874,173.81l-.629-.4c.114-.181,11.352-18.291,11.787-38.269l.742.017C380.335,155.35,368.989,173.628,368.874,173.81Z" transform="translate(-116.266 -28.724)" fill="#fff"/>
    </g>
    <g id="Grupo_876500" data-name="Grupo 876500">
      <path id="Trazado_218296" data-name="Trazado 218296" d="M366.507,186.849s11.211-5.845,22.711-6.868,19.625-5.547,18.213-10.936-22.741-7.35-42.353,16.559Z" transform="translate(-115.191 -39.062)" fill="#cab3ed"/>
      <path id="Trazado_218297" data-name="Trazado 218297" d="M367.878,189.344l-.476-.57c.113-.094,11.491-9.5,25.177-11.662l.116.733C379.216,179.977,367.99,189.251,367.878,189.344Z" transform="translate(-115.98 -42.968)" fill="#fff"/>
    </g>
    <g id="Grupo_876094" data-name="Grupo 876094" transform="translate(264.094 144.292)">
      <path id="Trazado_218298" data-name="Trazado 218298" d="M424.566,193.072a83.62,83.62,0,0,0-11.9-.556,38.916,38.916,0,0,0-14.58,3.315,18.818,18.818,0,0,0-9.525,10.017,25.494,25.494,0,0,0-1.915,6.67,20.9,20.9,0,0,0,6.176,3.3,18.193,18.193,0,0,0,14.484-.9,33.137,33.137,0,0,0,12.1-10.666A37.242,37.242,0,0,0,424.566,193.072Z" transform="translate(-386.608 -192.475)" fill="#6826cc"/>
      <path id="Trazado_218299" data-name="Trazado 218299" d="M386.671,214.865l-.085-.214s2.059-.822,5.113-2.144,7.1-3.14,11.095-5.074,7.93-3.983,10.837-5.6c1.46-.8,2.657-1.5,3.493-1.988l1.317-.768.118.2-1.318.77c-.837.493-2.036,1.193-3.5,1.991-2.911,1.618-6.848,3.676-10.848,5.6s-8.046,3.758-11.1,5.078S386.671,214.865,386.671,214.865Z" transform="translate(-386.586 -194.716)" fill="#6826cc"/>
      <path id="Trazado_218300" data-name="Trazado 218300" d="M420.016,204.189a5.489,5.489,0,0,1,.053-1.743,13.54,13.54,0,0,1,1.7-4.518l.2.116a13.351,13.351,0,0,0-1.658,4.434,7.1,7.1,0,0,0-.093,1.227,3.1,3.1,0,0,0,.032.439Z" transform="translate(-397.919 -194.326)" fill="#6826cc"/>
      <path id="Trazado_218301" data-name="Trazado 218301" d="M411.341,211.789l.17-.157a3.572,3.572,0,0,0,.4.345,7.869,7.869,0,0,0,1.246.771,14.2,14.2,0,0,0,5.571,1.383l-.019.231a14.436,14.436,0,0,1-5.663-1.4A6.137,6.137,0,0,1,411.341,211.789Z" transform="translate(-394.989 -198.977)" fill="#6826cc"/>
      <path id="Trazado_218302" data-name="Trazado 218302" d="M395.175,219.209l.177-.147a4.106,4.106,0,0,0,.439.414,9.019,9.019,0,0,0,1.391.943,16.394,16.394,0,0,0,6.313,1.85l-.028.231a16.635,16.635,0,0,1-6.4-1.866A7,7,0,0,1,395.175,219.209Z" transform="translate(-389.501 -201.499)" fill="#6826cc"/>
      <path id="Trazado_218303" data-name="Trazado 218303" d="M402.092,211.375a8.169,8.169,0,0,1,.208-2.587,20.552,20.552,0,0,1,2.852-6.594l.19.126a20.306,20.306,0,0,0-2.807,6.528,10.572,10.572,0,0,0-.232,1.832,4.792,4.792,0,0,0,.017.663Z" transform="translate(-391.84 -195.774)" fill="#6826cc"/>
      <path id="Trazado_218304" data-name="Trazado 218304" d="M426.079,204.225l.163-.164a3.708,3.708,0,0,0,1,.607,8.672,8.672,0,0,0,3.312.67l-.008.233a8.94,8.94,0,0,1-3.413-.692A3.7,3.7,0,0,1,426.079,204.225Z" transform="translate(-399.991 -196.408)" fill="#6826cc"/>
    </g>
    <g id="Grupo_876095" data-name="Grupo 876095" transform="translate(263.987 164.612)">
      <path id="Trazado_218305" data-name="Trazado 218305" d="M414.837,246.287c-1.235-5.391-3.7-13.607-11.281-19.743s-16.982-1.861-16.982-1.861-1.688,10.172,6.286,15.925S409.376,246.56,414.837,246.287Z" transform="translate(-386.424 -223.235)" fill="#cab3ed"/>
      <path id="Trazado_218306" data-name="Trazado 218306" d="M386.561,225.463l.117-.152,23.511,17.972-.115.153Z" transform="translate(-386.471 -223.94)" fill="#fff"/>
      <path id="Trazado_218307" data-name="Trazado 218307" d="M411.033,243.545a4.4,4.4,0,0,1,1.33-.579,10.685,10.685,0,0,1,4.037-.258l-.02.192a10.482,10.482,0,0,0-3.958.257,5.612,5.612,0,0,0-.956.361,2.553,2.553,0,0,0-.319.182Z" transform="translate(-394.777 -229.819)" fill="#fff"/>
      <path id="Trazado_218308" data-name="Trazado 218308" d="M404.388,239.131l.18.069a3.074,3.074,0,0,0-.108.426,6.781,6.781,0,0,0-.11,1.217,12.619,12.619,0,0,0,.97,4.656l-.178.07a12.81,12.81,0,0,1-.992-4.728A5.28,5.28,0,0,1,404.388,239.131Z" transform="translate(-392.44 -228.631)" fill="#fff"/>
      <path id="Trazado_218309" data-name="Trazado 218309" d="M392.591,230.129l.179.069a3.429,3.429,0,0,0-.125.487,7.653,7.653,0,0,0-.131,1.394,14.369,14.369,0,0,0,1.1,5.331l-.179.07a14.571,14.571,0,0,1-1.125-5.4A5.952,5.952,0,0,1,392.591,230.129Z" transform="translate(-388.423 -225.575)" fill="#fff"/>
      <path id="Trazado_218310" data-name="Trazado 218310" d="M397.837,233.235a6.578,6.578,0,0,1,1.986-.856A16.054,16.054,0,0,1,405.85,232l-.02.191a15.853,15.853,0,0,0-5.958.38,8.565,8.565,0,0,0-1.44.541,3.751,3.751,0,0,0-.481.273Z" transform="translate(-390.298 -226.173)" fill="#fff"/>
      <path id="Trazado_218311" data-name="Trazado 218311" d="M415.406,247.514l.179.069a3.173,3.173,0,0,0-.125.969,7.479,7.479,0,0,0,.576,2.744l-.178.07a7.68,7.68,0,0,1-.595-2.827A3.179,3.179,0,0,1,415.406,247.514Z" transform="translate(-396.213 -231.476)" fill="#fff"/>
    </g>
    <path id="Trazado_218312" data-name="Trazado 218312" d="M92.459,339.162s-.267-.375-1.789.307-5.05,5.33-6.092,7.815a25.632,25.632,0,0,0,3.527,2.685,18.162,18.162,0,0,1,2.032-1.482,43.334,43.334,0,0,1-.509,7.213,42.628,42.628,0,0,1-1.109,4.329,19.1,19.1,0,0,0,10.848,1s.081-6.452.281-8.938,1.363-5.25.721-7.575-3.382-3.193-5.6-5.464Z" transform="translate(-19.982 -97.936)" fill="#ffeeb0"/>
    <path id="Trazado_218313" data-name="Trazado 218313" d="M99.277,328.268a6.442,6.442,0,0,0-1.187-3.237c-1.079-1.349-3.453-.863-4.425,1.187a6.983,6.983,0,0,0-.774,3.045.72.72,0,0,0-.933.028c-.723.493.372,2.231,1.475,1.931a3.817,3.817,0,0,0,.933,1.122,3.31,3.31,0,0,0,.287,1.778c1.025,1.241,2.231,2.467,3.04,1.927s-.162-1.295-.432-1.726a.452.452,0,0,1,.073-.657C99.762,333.341,99.277,328.268,99.277,328.268Z" transform="translate(-22.408 -92.918)" fill="#ff9a5c"/>
    <path id="Trazado_218314" data-name="Trazado 218314" d="M97.894,325.773s-.631,2.365-2.039,2.885a2.872,2.872,0,0,0,.515-.681s-1.8,1.683-2.805,1.523c0,0-.641-.28-.842-2.525s2.164-3.527,2.164-3.527h2.685l1.884,2.164.194,1.523A2.025,2.025,0,0,1,97.894,325.773Z" transform="translate(-22.743 -92.638)" fill="#753519"/>
    <path id="Trazado_218315" data-name="Trazado 218315" d="M96.387,362.052s-8.322-1.437-11.335-3.107-2.643-3.153-2.225-4.219,1.716-3.339,1.716-3.339l2.948,2.11-.074.657-.5,1.149s.962.61,2.414,1.416,7.363,3.518,7.363,3.518S98.127,361.423,96.387,362.052Z" transform="translate(-19.293 -102.122)" fill="#ff9a5c"/>
    <g id="Grupo_876096" data-name="Grupo 876096" transform="translate(78.515 258.651)">
      <path id="Trazado_218316" data-name="Trazado 218316" d="M118.622,382.084l-1.684-9.151a2.186,2.186,0,0,0-1.249-1.6l-10.039-4.532.546-1.211,10.04,4.532a3.512,3.512,0,0,1,2.009,2.566l1.684,9.15Z" transform="translate(-105.649 -365.595)" fill="#998f69"/>
    </g>
    <path id="Trazado_218317" data-name="Trazado 218317" d="M131.944,381.532a11.473,11.473,0,0,1,3.064-1.538c1.021-.146,1.313.955,2.042.769a3.225,3.225,0,0,0,1.313-.782l1.459.776s.146-.4,1.167,0,.437-.033,1.021.4a2.456,2.456,0,0,0,1.459.371,2.919,2.919,0,0,1,1.459,0c.729.213,1.819-.356,3.5,0s3.209-.359,4.084,0,1.313,1.632,2.042,1.287a13.171,13.171,0,0,0,1.9-1.287l1.167,2.042s.438-.942,1.021,0a4.892,4.892,0,0,0,1.9,1.525,2.9,2.9,0,0,1,.729.894,11.334,11.334,0,0,1,.789,2.675v.875l-21.942-.875-9.191-5.094Z" transform="translate(-35.713 -111.827)" fill="#8c1f4f"/>
    <g id="Grupo_876097" data-name="Grupo 876097" transform="translate(81.69 255.475)">
      <path id="Trazado_218318" data-name="Trazado 218318" d="M123.428,377.278l-1.684-9.152a2.182,2.182,0,0,0-1.248-1.595L110.455,362l.546-1.211,10.041,4.533a3.512,3.512,0,0,1,2.009,2.564l1.684,9.152Z" transform="translate(-110.455 -360.788)" fill="#998f69"/>
    </g>
    <path id="Trazado_218319" data-name="Trazado 218319" d="M126.214,382.329s-1.856,5.765-2.345,6.742,1.173,4.495,1.173,4.495l17.49,8.6,17.1-11.822Z" transform="translate(-33.288 -112.624)" fill="#998f69"/>
    <path id="Trazado_218320" data-name="Trazado 218320" d="M121.294,413.964a2.347,2.347,0,0,1-1.323-.349c-.883-.577-1.2-1.806-1.015-3.983.356-4.273,3.324-16.133,3.45-16.636l.72.181c-.03.122-3.08,12.3-3.431,16.516-.154,1.847.063,2.9.682,3.3.932.609,3.1-.02,6.64-1.93,6.642-3.585,11.6-6.855,11.649-6.887l.41.619c-.05.033-5.034,3.319-11.707,6.921C124.552,413.239,122.618,413.964,121.294,413.964Z" transform="translate(-31.634 -116.245)" fill="#998f69"/>
    <path id="Trazado_218321" data-name="Trazado 218321" d="M177.5,400.259a4.89,4.89,0,0,0-1.107,1.9c-.06.73,1.107,0,1.107,0s.583.795,1.167.324,0-1.036,0-1.036l.259-1.185Z" transform="translate(-51.147 -118.71)" fill="#8c1f4f"/>
    <g id="Grupo_876099" data-name="Grupo 876099" transform="translate(152.573 259.435)">
      <g id="Grupo_876098" data-name="Grupo 876098" transform="translate(6.656 9.421)">
        <path id="Trazado_218322" data-name="Trazado 218322" d="M245.209,410.365l-.992.767-.877-1.18c-.546-.754-1.322-1.831-2.211-3.152-1.79-2.633-4.064-6.22-6.133-9.928s-3.932-7.531-5.209-10.454l-1.457-3.57-.494-1.378,1.179-.427s.176.493.486,1.356l1.437,3.521c1.26,2.886,3.09,6.672,5.152,10.338s4.3,7.229,6.077,9.837c.88,1.309,1.647,2.374,2.186,3.117Z" transform="translate(-227.837 -381.043)" fill="#ccbe8c"/>
      </g>
      <path id="Trazado_218323" data-name="Trazado 218323" d="M228.022,370.36a5.161,5.161,0,0,1-.173,3.387,3.76,3.76,0,0,1-2.194,2.2,3.569,3.569,0,0,1-3.121-.414,5.257,5.257,0,0,1-2.14-3.01,6.245,6.245,0,0,1-.209-.988,5.82,5.82,0,0,1,0-.978,5.073,5.073,0,0,1,.464-1.742,3.418,3.418,0,0,1,2.419-1.964,3.949,3.949,0,0,1,3.051.735,4.684,4.684,0,0,1,1.15,1.187,4.937,4.937,0,0,1,.414.751A5,5,0,0,1,228.022,370.36Z" transform="translate(-218.577 -366.782)" fill="#ffeeb0"/>
      <path id="Trazado_218324" data-name="Trazado 218324" d="M225.379,373.65a8.812,8.812,0,0,0-.719-1.091,8.146,8.146,0,0,0-.809-.908,4.046,4.046,0,0,0-.976-.758,4.009,4.009,0,0,0-.526,1.159,6.752,6.752,0,0,0-.18,1.215,9.168,9.168,0,0,0,.011,1.357,7.449,7.449,0,0,0-3.086-.428,5.868,5.868,0,0,0-1.334.233,7.686,7.686,0,0,0,4.942,4.236,6.046,6.046,0,0,0,2.65.124,7.142,7.142,0,0,0,1.968-1.8,8.7,8.7,0,0,0,1.7-5.75,6.458,6.458,0,0,0-1.26.484A6.777,6.777,0,0,0,225.379,373.65Z" transform="translate(-217.761 -368.177)" fill="#ccbe8c"/>
    </g>
    <path id="Trazado_218325" data-name="Trazado 218325" d="M182.549,403.846s-.875,1.715-.729,2.153.729,0,.729,0,.875.389,1.313.195a5.124,5.124,0,0,0,1.167-1.147h-1.613Z" transform="translate(-52.983 -119.928)" fill="#8c1f4f"/>
    <path id="Trazado_218326" data-name="Trazado 218326" d="M185.233,417.467s-3.664-.392-3.655,0,0,1.509,0,1.509a1.014,1.014,0,0,0-1.613,0,4.846,4.846,0,0,0-1.037,2.383,1.51,1.51,0,0,1-1.268,1.02,1.507,1.507,0,0,0-1.266,1.023,23.962,23.962,0,0,0,3.571.875,12,12,0,0,0,2.5,0,11.428,11.428,0,0,1,2.772.065c1.313.227,2.772.519,4.084.665s3.647-1.021,3.647-1.021a41.172,41.172,0,0,1,5.69.146,6.887,6.887,0,0,0,3.355-.437l.584-1.315a3.62,3.62,0,0,1-1.9-1.223c-.729-.964-1.6-3.5-2.188-3.689a13.2,13.2,0,0,1-2.188-1.513,11.6,11.6,0,0,1-1.605-3.675c-.145-1.422-2.042-2.335-2.042-2.335a2.59,2.59,0,0,0-1.459,1.449,1.478,1.478,0,0,1-1.72.886s-.76.126-1.2,1.394a13.8,13.8,0,0,0-.584,2.28s-1.751-.593-2.626,0S185.233,417.467,185.233,417.467Z" transform="translate(-51.147 -121.997)" fill="#8c1f4f"/>
    <rect id="Rectángulo_296861" data-name="Rectángulo 296861" width="1.484" height="6.092" transform="matrix(0.843, -0.538, 0.538, 0.843, 108.512, 289.332)" fill="#998f69"/>
    <g id="Grupo_876100" data-name="Grupo 876100" transform="translate(244.62 273.394)">
      <rect id="Rectángulo_296862" data-name="Rectángulo 296862" width="27.249" height="1.564" transform="translate(0 25.43) rotate(-68.947)" fill="#ccbe8c"/>
    </g>
    <g id="Grupo_876101" data-name="Grupo 876101" transform="translate(254.41 273.394)">
      <rect id="Rectángulo_296863" data-name="Rectángulo 296863" width="1.564" height="27.249" transform="translate(0 0.562) rotate(-21.054)" fill="#ccbe8c"/>
    </g>
    <g id="Grupo_876102" data-name="Grupo 876102" transform="translate(251.058 283.495)">
      <rect id="Rectángulo_296864" data-name="Rectángulo 296864" width="8.459" height="1.563" fill="#ccbe8c"/>
    </g>
    <g id="Grupo_876103" data-name="Grupo 876103" transform="translate(249.113 289.085)">
      <rect id="Rectángulo_296865" data-name="Rectángulo 296865" width="12.259" height="1.563" fill="#ccbe8c"/>
    </g>
    <path id="Trazado_218327" data-name="Trazado 218327" d="M356.768,265.923a12.388,12.388,0,0,0-2.768,4.2,3.468,3.468,0,0,0,2.358,4.664,20.255,20.255,0,0,1,.41,3.126,8.536,8.536,0,0,0,2.358.308,6.415,6.415,0,0,0,1.537-.41v-3.28a8.544,8.544,0,0,0,2-2.665c.461-1.281.871-4.407-.615-5.944S357.587,265.016,356.768,265.923Z" transform="translate(-111.356 -72.797)" fill="#ff9a5c"/>
    <path id="Trazado_218328" data-name="Trazado 218328" d="M322.077,251.329s-.055.23-1.237.6-2.025.028-2.363.985.338,2.813-.394,3.207a3.327,3.327,0,0,0-.956.675s1.855,2.363,2.474,3.376a3.645,3.645,0,0,0,1.126-1.857c.281-1.181,2.2-.614,2.644-1.013a8.833,8.833,0,0,0,.91-1.013S323.651,252.169,322.077,251.329Z" transform="translate(-98.915 -68.159)" fill="#ffeeb0"/>
    <path id="Trazado_218329" data-name="Trazado 218329" d="M361.149,266.83a8.11,8.11,0,0,1-2.541-2.781c-.48-1.342.1-2.582,1.271-2.441a11.334,11.334,0,0,1,1.8.332s1.095-1.391,2.992.384a5.569,5.569,0,0,1,1.659,4.267,2.086,2.086,0,0,1,1.438,2.924,5.693,5.693,0,0,1-3.1,2.985s-.307,1.461-1.122,1.539a5.217,5.217,0,0,0-1.3.271l.151-2.734a1.432,1.432,0,0,0,1.2-.911c.431-.911-.911-.767-.911-.767s-.768-1.391-.432-1.918C362.252,267.98,361.053,267.5,361.149,266.83Z" transform="translate(-112.938 -71.585)" fill="#753519"/>
    <path id="Trazado_218330" data-name="Trazado 218330" d="M339.287,268.347a49.259,49.259,0,0,1-6.819-6.741c-3.134-3.844-5.053-6.6-5.053-6.6a7.82,7.82,0,0,0-.64-2.943,4.42,4.42,0,0,0-1.087-1.6c-.384-.512-.382.415.1,1.319l.485.9s-1.256-2-1.718-1.938.088.727.33,1.079a2.767,2.767,0,0,1,.33.969s-.9-1.388-1.211-1.145.33,1.079.837,1.74a13.635,13.635,0,0,1,.9,2.247s4.358,11.312,10.572,16.171S339.287,268.347,339.287,268.347Z" transform="translate(-101.223 -67.818)" fill="#ff9a5c"/>
    <path id="Trazado_218331" data-name="Trazado 218331" d="M328.824,256.365a6.911,6.911,0,0,1,.189-.813c.053-.081.223-.69.351-1.073s-.057-.752-.27-.567a2.323,2.323,0,0,0-.68,1.277A4.019,4.019,0,0,0,328.824,256.365Z" transform="translate(-102.746 -69.019)" fill="#ff9a5c"/>
    <path id="Trazado_218332" data-name="Trazado 218332" d="M372.9,289.922s2.782,3.374,3.845,3.905,3.87-1.805,5.318-4.491a40.594,40.594,0,0,0,2.2-4.724,8.417,8.417,0,0,0,2.412-2.663s.193-.581,0-.711-.747.814-1.04,1.173c0,0,.846-1.466.716-1.792s-1.335,1.368-1.335,1.368.945-1.726.619-1.759-1.238,1.531-1.238,1.531-.032-1.075-.358-1.01-.229,1.27-.229,1.27-.326,1.5-.521,1.987-4.3,5.178-4.82,5.308c0,0-1.661-2.345-3.192-2.8S372.9,289.922,372.9,289.922Z" transform="translate(-117.847 -77.968)" fill="#ff9a5c"/>
    <path id="Trazado_218333" data-name="Trazado 218333" d="M351.359,310.123s3.852,40.827,4.526,44.265c0,0,3.651.441,4.895,0,0,0-.274-24.859,0-27.415s2.478-15.6,1.684-17.366S351.359,310.123,351.359,310.123Z" transform="translate(-110.535 -87.713)" fill="#3e167a"/>
    <path id="Trazado_218334" data-name="Trazado 218334" d="M366.014,309.539s1.371,16.331,2.052,18.832,8.062,13.066,8.062,13.066l-3.239,3.274s-6.7-6.787-8.638-9.256-5.289-12.781-5.289-12.781S360.9,306.983,366.014,309.539Z" transform="translate(-113.115 -87.822)" fill="#3e167a"/>
    <path id="Trazado_218335" data-name="Trazado 218335" d="M238.457,158.254c-3.759-1.167-6.48-1.533-8.683-2.775s-4.407-2.161-6.092-2.091-5.184-.848-7.258,0-4.269,5.119-7.448,5.9-11.162-.9-13.392-2.33-2.863-4.277-2.222-5.7a12.02,12.02,0,0,0,.77-4.9c-.129-.931,3.24-2.759,4.407-3.983s2.269-5.213-.491-7.208a94.021,94.021,0,0,0-35.878,16.591,5.785,5.785,0,0,0,.858,2.223c.777,1.3-.47,2.074-.429,2.462s.735.344.128,1.079.011.606-.557,1.124a16.729,16.729,0,0,1-1.475,1.3c-.389.259-.259,1.036-1.037,1.944s-2.2,1.684-2.2,3.11-2.2,3.37-2.463,4.148-2.462,3.758-2.592,5.7a34.208,34.208,0,0,0,0,5.184,12.18,12.18,0,0,1-.1,3.888,30.265,30.265,0,0,0-.68,5.314c-.129,2.592.908,3.759,3.37,4.536s7.122,2.981,8.292,4.666,1.818,3.759,2.725,4.018,1.685,2.981,4.666,5.054,8.554,2.336,11.016,4.991,7,9.126,8.165,12.695,3.11,4.884,5.184,6.624,4.666,3.684,6.61,3.813,2.737-.686,2.664-1.379-2.535-2.768-2.924-3.286-1.167-4.018-2.332-6.48-1.3-2.563-.908-3.744,1.167-3.769,2.333-4.419,2.074-.176,2.851-1.32a3.772,3.772,0,0,0,.98-2.5c-.072-.714-1.239-1.157-2.405-1.26s-1.555-1.139-3.111-1.4-3.758-.908-4.277-1.815a2.447,2.447,0,0,0-2.463-1.036c-.777.129-3.111.518-4.666-1.037s-1.685-4.536-1.944-6.091-.519-2.074-.129-3.24.388-2.081,2.2-2.92,4.8-1.495,6.61,0,5.443.328,6.221-.58,2.98-3.629,4.8-3.758,4.8,0,5.962-1.037,5.573-3.223,6.351-4.981,3.759-6.858,3.759-8.52,5.443-4.9,7-4.384,3.629-1.944,4.407-1.944,3.111.388,4.407-1.167,2.332-2.6,3.37-4.086S242.215,159.421,238.457,158.254Z" transform="translate(-42.735 -28.729)" fill="#616476"/>
    <path id="Trazado_218336" data-name="Trazado 218336" d="M262.34,330.561a68.7,68.7,0,0,0-8.083-4.3c-3.712-1.563-6.448-7.1-7.425-8.237s-1.758-11.109,0-12.867a42.615,42.615,0,0,0,4.989-7.035c1.459-2.345,2.046-3.908,1.459-4.886s-.586-6.525,0-7.464,3.518-2.7,4.886-2.5,5.667-1.007,7.425-.015,8.4,4.5,11.334,4.7,5.863,2.738,8.208,1.37,5.787.2,7.779,3.126,4.337,5.914,7.659,7.842,3.033,3.687,4.936,4.078,6.155,1.55,8.458,3.126,1.548,3.518-.354,5.863-4.267,6.057-5.82,8.4-.988,5.863,0,6.84.205,5.081-1.163,6.254-4.3,3.127-5.472,5.276-1.06,3.744-3.754,4.705-8.753,3.7-12.466,4.577-6.84,1.087-9.379,3.23-2.9,7.964-5.289,8.962-9.562,5.487-12.3,5.2-2.731-.837-1.171-2.811,5.513-5.449,7.739-8.618-.706-6.229,1.248-7.511,2.3-5.093,2.906-6.217S269.14,334.286,262.34,330.561Z" transform="translate(-74.7 -78.861)" fill="#616476"/>
    <path id="Trazado_218337" data-name="Trazado 218337" d="M348.48,202.943c.391.8,2.475,1.708,4.039,2.49s3.032-.421,3.665-2.49,3.37-2.46,4.8-1.678a6.243,6.243,0,0,0,4.039.912c1.028-.257,3.024-1.024,3.076-1.044a94.682,94.682,0,0,0-27.278-36.863,20.324,20.324,0,0,1-2.764,3.129,9.779,9.779,0,0,0-2.555,3.642c-.441.912-1.745,4.82-1.223,6.514s.3,2.866,2.237,4.3,3.652,1.92,2.792,4.543-.208,5.425-1.12,6.824a4.7,4.7,0,0,0,1.12,5.96c2.137,1.824,4.873,1.433,5.524,1.564S348.089,202.146,348.48,202.943Z" transform="translate(-104.696 -38.609)" fill="#616476"/>
    <path id="Trazado_218338" data-name="Trazado 218338" d="M256.994,250.127a4.359,4.359,0,0,1-1.3,2.963c-1.3,1.172-2.605,3.257-1.3,3.518a28.246,28.246,0,0,1,4.69,1.039c.651.394,4.039,2.218,4.95,1.567s1.564-2.215,2.475-2.345,1.173-2.44,1.955-3.174,3.518-3.34,3.778-5.425.521-5.211,0-5.993-4.169-1.3-4.56-2.345-2.714-1.824-4.483-.781-2.551,3.387-2.812,5.081S256.864,247.164,256.994,250.127Z" transform="translate(-77.437 -63.859)" fill="#616476"/>
    <g id="Grupo_876105" data-name="Grupo 876105" transform="translate(234.499 86.307)">
      <g id="Grupo_876104" data-name="Grupo 876104" transform="translate(0 10.477)">
        <path id="Trazado_218339" data-name="Trazado 218339" d="M342.857,154.733l-1.073-.807s.32-.423.846-1.249,1.251-2.012,2.053-3.487a82.92,82.92,0,0,0,4.989-11.269,98.28,98.28,0,0,0,3.437-11.859c.412-1.635.617-3.027.816-3.99l.287-1.519,1.323.227-.291,1.537c-.2.974-.41,2.383-.826,4.04a99.655,99.655,0,0,1-3.483,12.018,84.245,84.245,0,0,1-5.073,11.456c-.818,1.5-1.556,2.731-2.105,3.574S342.857,154.733,342.857,154.733Z" transform="translate(-341.784 -120.555)" fill="#ccbe8c"/>
      </g>
      <path id="Trazado_218340" data-name="Trazado 218340" d="M364.85,110.254c-.4,2.893-2.626,4.907-4.93,4.5s-3.864-2.875-3.494-5.524c.265-2.666,2.379-4.694,4.717-4.53S365.143,107.351,364.85,110.254Z" transform="translate(-346.735 -104.694)" fill="#ffeeb0"/>
      <path id="Trazado_218341" data-name="Trazado 218341" d="M361.209,112.916a8.636,8.636,0,0,0-.207-1.424,5.754,5.754,0,0,0-1.153-2.4,5.74,5.74,0,0,0-1.6,2.061,10.9,10.9,0,0,0-.589,1.284,7.465,7.465,0,0,0-4.245-1.956,8.843,8.843,0,0,0,2.811,5.869,7.326,7.326,0,0,0,2.388,1.517,6.736,6.736,0,0,0,2.794-.627,8.541,8.541,0,0,0,4.445-5.252A7.874,7.874,0,0,0,361.209,112.916Z" transform="translate(-345.732 -106.188)" fill="#ccbe8c"/>
    </g>
    <path id="Trazado_218342" data-name="Trazado 218342" d="M311.223,71.724a13.282,13.282,0,0,0-3.324,1.512c-2.2,1.27-7.133,6.156-7.133,6.156a18.967,18.967,0,0,0,4.1,5.032,36.76,36.76,0,0,0,3.371-1.71s1.368,6.6-1.368,10.65a7.306,7.306,0,0,0,4.153,2.247c2.589.391,5.325.342,7.572,1.955s5.911,1.465,7.474,0a21.5,21.5,0,0,0,0-9.82,25.066,25.066,0,0,0-3.224-7.377l.831.635s2.833-3.078,2.98-5.472a32.041,32.041,0,0,0-5.618-4.641,7.828,7.828,0,0,0-6.851,0A8.628,8.628,0,0,1,311.223,71.724Z" transform="translate(-93.362 -6.643)" fill="#f8b8d4"/>
    <path id="Trazado_218343" data-name="Trazado 218343" d="M308.869,61.193a9.339,9.339,0,0,0,1.887,4.209c1.306,1.306,2.322.508,2.685.653s.581,1.161.581,1.887a1.346,1.346,0,0,0,2.249.653c1.089-.8.508-4.5.508-4.5a4.475,4.475,0,0,0,.155-2.9,3.378,3.378,0,0,0,.164-2.177c-.392-.8-.972-.581-1.262,0,0,0-1.379-2.539-3.411-2.1S308.579,58.435,308.869,61.193Z" transform="translate(-96.102 -2.152)" fill="#ff9a5c"/>
    <path id="Trazado_218344" data-name="Trazado 218344" d="M315.787,57.518c-.653-.871-.218-3.12-1.066-4.426a2.574,2.574,0,0,0-2.635-.871s-.435-1.959-2.1-1.669-3.193,2.539-3.193,2.539a5.436,5.436,0,0,0-2.467,0c-1.6.291-3.41,1.379-2.757,2.975s3.121,1.506,3.121,1.506-.653,3.138,1.638,2.267c.067-.026.125-.061.188-.092a7.187,7.187,0,0,1-.158-.706,3.4,3.4,0,0,1,1.942-3.736h0a6.8,6.8,0,0,1,1.613-.545c2.032-.435,3.411,2.1,3.411,2.1.291-.581.871-.8,1.262,0a3.378,3.378,0,0,1-.164,2.177,4.689,4.689,0,0,1,.059,2.21,1.452,1.452,0,0,0,.244.039C316.849,61.291,316.44,58.388,315.787,57.518Z" transform="translate(-93.587)" fill="#753519"/>
    <path id="Trazado_218345" data-name="Trazado 218345" d="M308.578,60.959s2.5-1.056,2.677-4.8c0,0,.769,2.332,4.131,1.914,0,0-.264-3.115-3.034-3.9s-4.8,3.837-4.8,3.837A3.223,3.223,0,0,0,308.578,60.959Z" transform="translate(-95.652 -1.211)" fill="#753519"/>
    <path id="Trazado_218346" data-name="Trazado 218346" d="M315.387,145.556c-.524-4.4-1.392-8.784-1.4-8.829l.364-.073c.009.044.88,4.446,1.406,8.857Z" transform="translate(-97.849 -29.236)" fill="#fff"/>
    <path id="Trazado_218347" data-name="Trazado 218347" d="M110.776,360.631a10.555,10.555,0,0,1,1.206.09c.431.075.708.686.83.931s-.415.22-.684-.122-.325-.427-.325-.427a1.489,1.489,0,0,0-.639,0c-.233.085-.515-.189-.562-.381S110.776,360.631,110.776,360.631Z" transform="translate(-28.812 -105.25)" fill="#ff9a5c"/>
    <path id="Trazado_218348" data-name="Trazado 218348" d="M102.854,366.554a5.341,5.341,0,0,0,1.566,1.124c.065.562.389.8.571.779s.186-.865.186-.865c.162.389.8.778.886.54a1.411,1.411,0,0,0,0-.627s.26.345.454.345.433-.172.346-.605a4.187,4.187,0,0,0-.606-1.428c-.259-.346-.411-.692-.973-.822a9.309,9.309,0,0,0-1.406-.108,12.213,12.213,0,0,0-1.622,0Z" transform="translate(-25.983 -106.695)" fill="#ff9a5c"/>
    <path id="Trazado_218349" data-name="Trazado 218349" d="M103.5,365.012v-.349a7.319,7.319,0,0,1,1.894-.369c.314.111.61.552.783.718A14.459,14.459,0,0,1,103.5,365.012Z" transform="translate(-26.404 -106.497)" fill="#ff9a5c"/>
    <circle id="Elipse_7384" data-name="Elipse 7384" cx="6.801" cy="6.801" r="6.801" transform="translate(108.417 292.98)" fill="#616476"/>
    <path id="Trazado_218350" data-name="Trazado 218350" d="M159.649,429.336a3.038,3.038,0,1,1,3.039-3.039A3.041,3.041,0,0,1,159.649,429.336Zm0-5.7a2.667,2.667,0,1,0,2.667,2.666A2.669,2.669,0,0,0,159.649,423.631Z" transform="translate(-44.432 -126.517)" fill="#fff"/>
    <path id="Trazado_218351" data-name="Trazado 218351" d="M283.248,258.744a20.512,20.512,0,0,0-2.614,2.926c-1.077,1.533,1.845.765,2.614.918s.922,1.264,2.46.863a8.659,8.659,0,0,0,1.538-.4,11.694,11.694,0,0,1,3.229-.462c1.384-.153,1.112-1.159,1.863-2.04a1.556,1.556,0,0,0,0-2.419c-.786-.769-1.248,1.538-2.786,0s-1.486-2.858-2.9-2.2-1.044.893-1.688,1.469S283.248,258.744,283.248,258.744Z" transform="translate(-86.449 -69.662)" fill="#616476"/>
    <path id="Trazado_218352" data-name="Trazado 218352" d="M354.176,280.487a11.452,11.452,0,0,1-8.276-3.536,18.111,18.111,0,0,0-3.946,4.715,21.466,21.466,0,0,0,5.894,4.715s-1.416,11.911-.667,16.041c0,0,4.971.923,8.046,1.128a26.118,26.118,0,0,0,6.867-.768l-.871-14.71.871,1.025s3.177-2.921,3.228-4.51c0,0-4.531-4.254-6.493-4.92S356.086,280.64,354.176,280.487Z" transform="translate(-107.342 -76.856)" fill="#ffeeb0"/>
    <path id="Trazado_218353" data-name="Trazado 218353" d="M365.528,337.174l-.371-.006c.006-.335.137-8.2.371-9.291.227-1.067,1.595-8.493,1.608-8.568l.365.067c-.014.075-1.383,7.507-1.612,8.579C365.664,329,365.53,337.092,365.528,337.174Z" transform="translate(-115.218 -91.233)" fill="#fff"/>
    <path id="Trazado_218354" data-name="Trazado 218354" d="M271.891,416.01h-7.585s-4.155-27.8,0-33.673S277.168,378.464,271.891,416.01Z" transform="translate(-80.36 -111.779)" fill="#ea3584"/>
    <path id="Trazado_218355" data-name="Trazado 218355" d="M250.576,425.651h-6.771s-8.881-2.77-13.135-9.54,2.056-9.642,6.672-6.744S250.576,425.651,250.576,425.651Z" transform="translate(-69.092 -121.42)" fill="#ea3584"/>
    <path id="Trazado_218356" data-name="Trazado 218356" d="M257.37,419.834h-4.155s-9.848-9.724-11.079-21.481,8.155-7.939,12.31,2.386a66.127,66.127,0,0,1,4.616,19.1Z" transform="translate(-73.424 -115.603)" fill="#cab3ed"/>
    <path id="Trazado_218357" data-name="Trazado 218357" d="M280.464,425.651h6.771s8.881-2.77,13.135-9.54-2.056-9.642-6.672-6.744S280.464,425.651,280.464,425.651Z" transform="translate(-86.471 -121.42)" fill="#ea3584"/>
    <path id="Trazado_218358" data-name="Trazado 218358" d="M275.867,419.834h4.155s9.848-9.724,11.079-21.481-8.155-7.939-12.31,2.386a66.128,66.128,0,0,0-4.616,19.1Z" transform="translate(-84.336 -115.603)" fill="#cab3ed"/>
    <path id="Trazado_218359" data-name="Trazado 218359" d="M311.664,247.417l.4-.821.523.75.821.4-.75.523-.4.821-.523-.75-.821-.4Z" transform="translate(-96.807 -66.553)" fill="#fff"/>
    <path id="Trazado_218360" data-name="Trazado 218360" d="M333.627,252.727l.245-.5.318.456.5.245-.456.318-.245.5-.318-.456-.5-.245Z" transform="translate(-104.361 -68.464)" fill="#fff"/>
    <path id="Trazado_218361" data-name="Trazado 218361" d="M337.145,242.548l.245-.5.318.456.5.245-.456.318-.245.5-.318-.456-.5-.245Z" transform="translate(-105.555 -65.009)" fill="#fff"/>
    <path id="Trazado_218362" data-name="Trazado 218362" d="M306.554,238.748l.245-.5.318.456.5.245-.456.318-.245.5-.318-.456-.5-.245Z" transform="translate(-95.172 -63.719)" fill="#fff"/>
    <path id="Trazado_218363" data-name="Trazado 218363" d="M311.12,266.645l.245-.5.318.456.5.245-.456.318-.245.5-.318-.456-.5-.245Z" transform="translate(-96.721 -73.188)" fill="#fff"/>
    <g id="Grupo_876106" data-name="Grupo 876106" transform="translate(157.997 80.258)">
      <path id="Trazado_218364" data-name="Trazado 218364" d="M233.883,95.961l-.151-.108c.147-.206.231-.316.231-.316l.148.112S234.027,95.759,233.883,95.961Z" transform="translate(-228.606 -95.538)" fill="#fff"/>
      <path id="Trazado_218365" data-name="Trazado 218365" d="M226.4,107.1l-.181-.04c.012-.055.024-.11.037-.164l.18.042C226.422,106.989,226.41,107.043,226.4,107.1Zm.225-.909-.179-.049q.1-.377.215-.746l.178.054Q226.724,105.815,226.623,106.188Zm.451-1.475-.176-.059c.083-.248.171-.491.261-.733l.174.065Q227.2,104.346,227.074,104.713Zm.538-1.447-.172-.069q.147-.365.3-.717l.17.074Q227.76,102.9,227.613,103.267Zm.614-1.418-.168-.078q.165-.359.335-.7l.166.081C228.448,101.379,228.337,101.611,228.227,101.849Zm.682-1.387-.164-.086q.184-.354.366-.685l.163.089C229.153,100,229.031,100.228,228.909,100.462Zm.742-1.355-.161-.092q.2-.352.4-.669l.159.1C229.917,98.652,229.785,98.873,229.651,99.107Zm.8-1.322-.157-.1c.153-.241.3-.459.424-.651l.155.1C230.745,97.329,230.6,97.545,230.451,97.785Z" transform="translate(-226.055 -96.046)" fill="#fff"/>
      <path id="Trazado_218366" data-name="Trazado 218366" d="M226.154,113.238l-.182-.034c.024-.129.048-.258.075-.386l.182.038Q226.19,113.047,226.154,113.238Z" transform="translate(-225.972 -101.404)" fill="#fff"/>
    </g>
    <g id="Grupo_876107" data-name="Grupo 876107" transform="translate(163.658 80.733)">
      <path id="Trazado_218367" data-name="Trazado 218367" d="M235.938,96.673l-.183-.034c.047-.248.075-.382.075-.382l.182.038S235.984,96.428,235.938,96.673Z" transform="translate(-234.954 -96.256)" fill="#fff"/>
      <path id="Trazado_218368" data-name="Trazado 218368" d="M234.557,106.552q-.012-.389-.015-.777h.186q0,.384.014.772Zm.174-1.55-.186,0q.006-.39.02-.776l.186.007Q234.737,104.611,234.731,105Zm.055-1.544-.186-.01q.022-.393.05-.774l.184.013Q234.807,103.066,234.786,103.457Zm.11-1.542-.185-.016c.023-.264.048-.522.074-.773l.185.019Q234.931,101.519,234.9,101.914Zm.161-1.538-.184-.022q.048-.4.1-.77l.184.024Q235.1,99.975,235.057,100.377Zm.207-1.532-.184-.028c.043-.283.084-.539.122-.767l.182.03C235.347,98.308,235.306,98.563,235.263,98.845Z" transform="translate(-234.542 -96.865)" fill="#fff"/>
      <path id="Trazado_218369" data-name="Trazado 218369" d="M234.7,113.233c-.012-.129-.022-.26-.032-.39l.185-.014c.01.129.02.259.032.388Z" transform="translate(-234.584 -101.881)" fill="#fff"/>
    </g>
    <path id="Trazado_218370" data-name="Trazado 218370" d="M230.2,110.525c-.009-.128-.017-.254-.023-.382l.186-.009c.006.126.014.252.022.377Zm-.046-1.127c0-.1,0-.2,0-.3,0-.15,0-.3,0-.447l.186,0q0,.221,0,.444,0,.148,0,.3Zm.216-1.48-.186-.009c.013-.251.03-.5.052-.744l.185.016Q230.388,107.546,230.369,107.918Zm.125-1.474-.184-.022q.044-.374.1-.739l.184.026Q230.537,106.073,230.493,106.444Zm.214-1.464-.183-.033c.044-.248.091-.491.139-.732l.182.037Q230.772,104.61,230.708,104.98Zm.295-1.451-.18-.042q.085-.37.177-.724l.18.047C231.118,103.044,231.059,103.285,231,103.529Zm.371-1.434-.178-.05q.1-.368.213-.714l.177.055C231.513,101.615,231.442,101.852,231.373,102.095Zm.44-1.414-.176-.059c.083-.245.166-.48.248-.7l.174.064Q231.937,100.315,231.813,100.681Zm.509-1.391-.173-.068c.1-.25.194-.481.283-.69l.171.073C232.514,98.812,232.42,99.04,232.322,99.289Zm.58-1.362-.168-.078c.2-.431.323-.665.328-.674l.164.087S233.1,97.5,232.9,97.927Z" transform="translate(-69.393 -15.835)" fill="#fff"/>
    <path id="Trazado_218371" data-name="Trazado 218371" d="M90.033,351.115c-.08-.049-.163-.092-.242-.142a29.12,29.12,0,0,0-3.974-2.412,1.711,1.711,0,0,1-.162-.091,15.272,15.272,0,0,0-1.077,2.009,25.637,25.637,0,0,0,3.527,2.685s.888-.738,1.61-1.221A6.787,6.787,0,0,1,90.033,351.115Z" transform="translate(-19.982 -101.132)" fill="#ffeeb0"/>
  </g>
</svg>
