<svg xmlns="http://www.w3.org/2000/svg" width="90" height="90" viewBox="0 0 90 90">
  <g id="Grupo_877447" data-name="Grupo 877447" transform="translate(9479 4965)">
    <circle id="Elipse_7423" data-name="Elipse 7423" cx="45" cy="45" r="45" transform="translate(-9479 -4965)" fill="#fff"/>
    <g id="Grupo_877445" data-name="Grupo 877445" transform="translate(-9473 -4959)">
      <g id="Grupo_877335" data-name="Grupo 877335" transform="translate(140.576 507.851)">
        <path id="Trazado_238646" data-name="Trazado 238646" d="M-122.966-371.678a56.95,56.95,0,0,1,.361-5.93c1.275-.341,2.545-.7,3.825-1.02,2.163-.544,4.278-1.277,6.486-1.64q.008,2.328.017,4.656c0,1.145,0,1.145,1.075.888.153-.037.307-.072.46-.112l8.963-2.383a58.608,58.608,0,0,1,.369,5.912,6.085,6.085,0,0,0-1.944.37q-4.438,1.173-8.879,2.337c-.014-1.648-.049-3.3-.033-4.945.006-.691-.167-.9-.89-.678-1.387.433-2.794.807-4.206,1.15C-119.234-372.619-121.052-371.954-122.966-371.678Z" transform="translate(-2.342 -91.353)" fill="#ec3c94"/>
        <path id="Trazado_238647" data-name="Trazado 238647" d="M33.6-315.593c.073,1.011.187,2.022.211,3.034a3.386,3.386,0,0,1-3.577,3.775c-.571.02-1.142.022-1.713.033l-5.933-.028c-.014-.044-.03-.088-.045-.132.006-.95-.013-1.9.027-2.85.032-.741-.236-.871-.908-.643-.775.263-1.587.419-2.378.636q-3.514.961-7.026,1.933a2.542,2.542,0,0,1-1.079-2.343c0-1.128.122-2.257.192-3.385,1.338-.364,2.671-.749,4.016-1.087,2.384-.6,4.723-1.37,7.14-1.842.015,1.648.056,3.3.034,4.944-.01.71.171.855.88.66C26.824-313.822,30.217-314.7,33.6-315.593Z" transform="translate(-110.913 -141.348)" fill="#feb656"/>
        <path id="Trazado_238648" data-name="Trazado 238648" d="M-103.428-315.419c.073,1.076.184,2.15.21,3.227a3.264,3.264,0,0,1-2.83,3.489,3.213,3.213,0,0,0-2.536.033c-2.012.035-4.026-.111-6.035.077q-.007-.063-.016-.127c.005-.979,0-1.959.019-2.938.01-.516-.084-.779-.7-.575-.805.265-1.646.422-2.463.655-2.328.663-4.7,1.153-7,1.947a2.651,2.651,0,0,1-1.078-2.377c.019-1.129.132-2.257.2-3.385,1.515-.415,3.021-.867,4.546-1.237,2.165-.525,4.278-1.253,6.478-1.639,0,1.674.02,3.349,0,5.023-.006.61.188.768.8.6C-110.366-313.586-106.9-314.5-103.428-315.419Z" transform="translate(0 -141.53)" fill="#ec3d94"/>
        <path id="Trazado_238649" data-name="Trazado 238649" d="M-99.7-439.035l.376,5.924a4.016,4.016,0,0,0-1.211.121c-3,.809-6,1.592-9,2.384-.011-1.612-.048-3.224-.023-4.835.012-.747-.12-1.017-.966-.776-2.726.775-5.478,1.459-8.216,2.194-.315.084-.6.209-.881-.053l.343-5.7c1.578-.437,3.147-.909,4.735-1.3a39.117,39.117,0,0,1,4.945-1.206c.009,1.649.04,3.3.018,4.947-.01.722.212.9.9.649.65-.238,1.338-.375,2.011-.549Q-103.185-438.136-99.7-439.035Z" transform="translate(-5.046 -41.166)" fill="#ec3c94"/>
        <path id="Trazado_238650" data-name="Trazado 238650" d="M-55.765-327.586c-3.468.922-6.938,1.832-10.4,2.775-.61.166-.8.008-.8-.6.015-1.674,0-3.349,0-5.023a1.208,1.208,0,0,1,.053-.155q4.44-1.168,8.879-2.337a6.086,6.086,0,0,1,1.944-.37Q-55.928-330.442-55.765-327.586Z" transform="translate(-47.663 -129.362)" fill="#c3136a"/>
        <path id="Trazado_238651" data-name="Trazado 238651" d="M23.348-343.278c-2.416.472-4.756,1.243-7.14,1.842-1.345.338-2.678.723-4.016,1.087q.174-3.062.348-6.124a3.949,3.949,0,0,0,.659-.063c2.354-.626,4.7-1.287,7.059-1.884a10.433,10.433,0,0,1,3.129-.693q0,2.843,0,5.686A1.449,1.449,0,0,0,23.348-343.278Z" transform="translate(-111.728 -116.563)" fill="#fee69b"/>
        <path id="Trazado_238652" data-name="Trazado 238652" d="M70.7-330.466a1.4,1.4,0,0,1,.035-.148c1.859-.479,3.708-1,5.579-1.425a37.026,37.026,0,0,1,5.13-1.247c.212,1.9.277,3.811.327,5.721-3.388.9-6.781,1.771-10.159,2.7-.708.2-.889.051-.88-.66C70.753-327.169,70.712-328.818,70.7-330.466Z" transform="translate(-159.077 -129.376)" fill="#fe8859"/>
        <path id="Trazado_238653" data-name="Trazado 238653" d="M-113.705-343.319a1.209,1.209,0,0,0-.053.155c-2.2.386-4.313,1.114-6.478,1.639-1.526.37-3.032.822-4.547,1.237q.173-3.054.346-6.108c1.914-.276,3.732-.941,5.6-1.4,1.412-.343,2.819-.717,4.206-1.15.723-.226.9-.013.89.678C-113.754-346.616-113.719-344.967-113.705-343.319Z" transform="translate(-0.872 -116.635)" fill="#f27ab5"/>
        <path id="Trazado_238654" data-name="Trazado 238654" d="M24.862-374.485a10.432,10.432,0,0,0-3.129.693c-2.361.6-4.706,1.258-7.059,1.884a3.955,3.955,0,0,1-.659.063c.1-1.972.117-3.948.37-5.91,1.248-.337,2.492-.693,3.745-1.008,2.231-.561,4.417-1.3,6.689-1.705l.054,5.77C24.869-374.627,24.866-374.556,24.862-374.485Z" transform="translate(-113.203 -91.191)" fill="#feb656"/>
        <path id="Trazado_238655" data-name="Trazado 238655" d="M70.885-361.387q.006-.106.011-.213c.185-.031.375-.047.555-.094q4.919-1.291,9.837-2.59.151,2.956.3,5.911a37.038,37.038,0,0,0-5.13,1.247c-1.87.428-3.72.946-5.579,1.425Q70.883-358.544,70.885-361.387Z" transform="translate(-159.227 -104.289)" fill="#feb555"/>
        <path id="Trazado_238656" data-name="Trazado 238656" d="M-66.949-391.7c3-.791,6.007-1.575,9-2.384a4.019,4.019,0,0,1,1.211-.121c.071,1.9.32,3.8.247,5.7l-8.963,2.383c-.152.04-.306.076-.46.112-1.071.257-1.071.257-1.075-.888q-.008-2.328-.017-4.656A.96.96,0,0,1-66.949-391.7Z" transform="translate(-47.637 -80.067)" fill="#c3136a"/>
        <path id="Trazado_238657" data-name="Trazado 238657" d="M26.389-405.236c-2.271.4-4.457,1.144-6.689,1.705-1.254.315-2.5.671-3.745,1.008q.134-3.066.268-6.132a49.965,49.965,0,0,0,5.424-1.31c1.6-.345,3.114-1.069,4.786-1.106l-.007,5.688A1.117,1.117,0,0,0,26.389-405.236Z" transform="translate(-114.773 -66.424)" fill="#fee69b"/>
        <path id="Trazado_238658" data-name="Trazado 238658" d="M70.674-392.358a1.086,1.086,0,0,1,.038-.147l10.074-2.654q.167,2.944.334,5.888-4.919,1.3-9.837,2.59c-.181.047-.37.063-.555.094Q70.7-389.473,70.674-392.358Z" transform="translate(-159.058 -79.302)" fill="#fe8859"/>
        <path id="Trazado_238659" data-name="Trazado 238659" d="M-110.71-405.238a.961.961,0,0,0-.051.15c-2.208.364-4.323,1.1-6.486,1.64-1.28.322-2.55.679-3.825,1.02q.138-3.141.276-6.282c.28.262.566.138.881.053,2.738-.735,5.49-1.419,8.216-2.194.846-.241.978.03.966.776C-110.758-408.462-110.721-406.85-110.71-405.238Z" transform="translate(-3.875 -66.533)" fill="#f27ab5"/>
        <path id="Trazado_238660" data-name="Trazado 238660" d="M27.572-437.137c-1.672.037-3.185.762-4.786,1.106a49.951,49.951,0,0,1-5.424,1.31q.17-2.926.34-5.851l9.857-2.706.024,5.927Z" transform="translate(-115.912 -40.358)" fill="#feb656"/>
        <path id="Trazado_238661" data-name="Trazado 238661" d="M70.879-422.558l.011-.214q1.51-.39,3.02-.779l6.688-1.713c.239,1.906.256,3.826.349,5.741l-10.074,2.654Q70.875-419.713,70.879-422.558Z" transform="translate(-159.218 -54.937)" fill="#feb555"/>
        <path id="Trazado_238662" data-name="Trazado 238662" d="M-57.154-449.712q-3.485.9-6.97,1.8c-.673.175-1.361.311-2.011.549-.691.253-.912.072-.9-.649.022-1.649-.008-3.3-.017-4.947q.023-.072.05-.143L-58-455.473a2.368,2.368,0,0,1,.649,1.53A39.567,39.567,0,0,1-57.154-449.712Z" transform="translate(-47.592 -30.489)" fill="#c3136a"/>
        <path id="Trazado_238663" data-name="Trazado 238663" d="M80.572-449.478l-6.688,1.713q-1.511.388-3.02.779-.012-2.964-.024-5.927l.005,0c.849-.223,1.693-.473,2.549-.665,2.143-.481,4.2-1.287,6.386-1.609.884,1.008.571,2.281.734,3.442A18.937,18.937,0,0,1,80.572-449.478Z" transform="translate(-159.193 -30.723)" fill="#fe8859"/>
        <path id="Trazado_238664" data-name="Trazado 238664" d="M29-459.312l-9.857,2.706c.059-1.164.061-2.335.191-3.492a3.5,3.5,0,0,1,3.608-2.981c.506-.021,1.012-.006,1.519-.008,1.5.287,3.022-.026,4.525.166q.01,1.806.019,3.612Z" transform="translate(-117.357 -24.324)" fill="#fee69b"/>
        <path id="Trazado_238665" data-name="Trazado 238665" d="M-108.094-459.246q-.027.071-.05.143a39.1,39.1,0,0,0-4.946,1.206c-1.589.392-3.158.864-4.735,1.3.061-1.2.067-2.4.2-3.59a3.422,3.422,0,0,1,3.5-2.854c.536-.029,1.074-.019,1.612-.027a18.7,18.7,0,0,0,4.421.038l.012.09Z" transform="translate(-6.503 -24.343)" fill="#f27bb6"/>
        <path id="Trazado_238666" data-name="Trazado 238666" d="M-66.913-267.94c2.01-.187,4.024-.041,6.036-.077a.188.188,0,0,0,.067.129c.056,1.326.133,2.652.163,3.978.027,1.2-.51,1.731-1.716,1.731-1.517,0-3.033-.021-4.55-.033Q-66.913-265.076-66.913-267.94Z" transform="translate(-47.707 -182.183)" fill="#485a5a"/>
        <path id="Trazado_238667" data-name="Trazado 238667" d="M44.324-268.242c.015.044.031.088.045.132q0,2.872,0,5.745c-1.55.008-3.1.032-4.652.02a1.443,1.443,0,0,1-1.622-1.649c.027-1.36.107-2.719.164-4.079a1.864,1.864,0,0,1,1.024-.113C40.961-268.211,42.642-268.224,44.324-268.242Z" transform="translate(-132.688 -182.017)" fill="#647a81"/>
        <path id="Trazado_238668" data-name="Trazado 238668" d="M-92.827-268.064q0,2.864,0,5.728c-1.522.012-3.045.045-4.567.028a1.422,1.422,0,0,1-1.538-1.638c.03-1.363.107-2.725.163-4.088l5.926-.158Q-92.834-268.128-92.827-268.064Z" transform="translate(-21.793 -182.059)" fill="#607882"/>
        <path id="Trazado_238669" data-name="Trazado 238669" d="M70.993-261.8q0-2.872,0-5.745l5.933.028c.054,1.353.125,2.706.156,4.059.026,1.142-.507,1.676-1.653,1.679C73.953-261.778,72.473-261.8,70.993-261.8Z" transform="translate(-159.316 -182.579)" fill="#485a5a"/>
        <path id="Trazado_238670" data-name="Trazado 238670" d="M51.561-487.243c-1.5-.191-3.025.121-4.525-.166.06-1.359.115-2.718.181-4.076.056-1.156.563-1.646,1.731-1.656.885-.008,1.771.014,2.656.022q0,2.871,0,5.742A.462.462,0,0,1,51.561-487.243Z" transform="translate(-139.928 -0.002)" fill="#627982"/>
        <path id="Trazado_238671" data-name="Trazado 238671" d="M-66.911-493.1c.978-.011,1.957-.049,2.935-.027a1.34,1.34,0,0,1,1.42,1.353c.1,1.385.12,2.775.174,4.162l-.134.23-4.358.111-.012-.09Z" transform="translate(-47.709 -0.005)" fill="#485a5a"/>
        <path id="Trazado_238672" data-name="Trazado 238672" d="M-85.568-493.109l.025,5.739a18.728,18.728,0,0,1-4.421-.039c.059-1.4.11-2.792.18-4.187a1.431,1.431,0,0,1,1.55-1.543C-87.345-493.156-86.457-493.121-85.568-493.109Z" transform="translate(-29.051 -0.001)" fill="#657883"/>
        <path id="Trazado_238673" data-name="Trazado 238673" d="M27.127-283.5c-1.681.018-3.363.031-5.045.056a1.864,1.864,0,0,0-1.024.113,10.416,10.416,0,0,1-2.737-.185c-.569-.176-1.175-.3-1.48-.909q3.513-.967,7.026-1.933c.792-.217,1.6-.372,2.378-.636.672-.228.94-.1.908.643C27.114-285.4,27.133-284.45,27.127-283.5Z" transform="translate(-115.491 -166.76)" fill="#fee69b"/>
        <path id="Trazado_238674" data-name="Trazado 238674" d="M71-487.379q0-2.871,0-5.742c.889-.008,1.778-.034,2.667-.02a1.392,1.392,0,0,1,1.532,1.451c.084,1.426.125,2.855.183,4.283Z" transform="translate(-159.315 0)" fill="#485a5a"/>
        <path id="Trazado_238675" data-name="Trazado 238675" d="M-110.056-283.4l-5.926.158a14.689,14.689,0,0,1-2.632-.161,2.383,2.383,0,0,1-1.588-.908c2.292-.793,4.668-1.283,7-1.946.817-.233,1.658-.39,2.463-.655.621-.2.715.059.7.575C-110.055-285.355-110.05-284.375-110.056-283.4Z" transform="translate(-4.58 -166.854)" fill="#f27bb6"/>
        <path id="Trazado_238676" data-name="Trazado 238676" d="M-66.78-462.935l4.358-.111.091,0,.089-.019c.567.016,1.135.026,1.7.051a3.21,3.21,0,0,1,2.752,1.4l-9.006,2.372Q-66.787-461.088-66.78-462.935Z" transform="translate(-47.802 -24.347)" fill="#ec3d94"/>
        <path id="Trazado_238677" data-name="Trazado 238677" d="M70.815-463.022l4.377-.028c.758.031,1.521.016,2.272.106a2.929,2.929,0,0,1,2.257,1.394c-2.182.322-4.243,1.128-6.386,1.609-.856.192-1.7.442-2.549.665q-.009-1.806-.019-3.612A.473.473,0,0,0,70.815-463.022Z" transform="translate(-159.134 -24.356)" fill="#feb656"/>
        <path id="Trazado_238678" data-name="Trazado 238678" d="M-35.193-268.974a.188.188,0,0,1-.067-.129,3.214,3.214,0,0,1,2.536-.032A10.938,10.938,0,0,1-35.193-268.974Z" transform="translate(-73.324 -181.096)" fill="#f27ab5"/>
        <path id="Trazado_238679" data-name="Trazado 238679" d="M-43.685-463.965l-.089.019-.091,0,.135-.229Z" transform="translate(-66.36 -23.443)" fill="#657883"/>
      </g>
    </g>
  </g>
</svg>
