<svg xmlns="http://www.w3.org/2000/svg" xmlns:xlink="http://www.w3.org/1999/xlink" width="75" height="75" viewBox="0 0 75 75">
  <defs>
    <clipPath id="clip-path">
      <rect id="Rect치ngulo_297088" data-name="Rect치ngulo 297088" width="57.5" height="44.727" fill="#d8b537"/>
    </clipPath>
  </defs>
  <g id="Grupo_877327" data-name="Grupo 877327" transform="translate(-448 -13289.25)">
    <rect id="Rect치ngulo_297072" data-name="Rect치ngulo 297072" width="75" height="75" transform="translate(448 13289.25)" fill="none"/>
    <g id="Grupo_877329" data-name="Grupo 877329" transform="translate(456.75 13304.387)">
      <g id="Grupo_877319" data-name="Grupo 877319" clip-path="url(#clip-path)">
        <path id="Trazado_238629" data-name="Trazado 238629" d="M9.239,14.023c1.9.366,3.023,1.7,4.163,3.171.025-.226.052-.357.053-.487,0-1.834.015-3.668-.013-5.5a1.3,1.3,0,0,0-.333-.767c-.512-.57-1.08-1.089-1.615-1.64a.843.843,0,0,1-.1-1.247.859.859,0,0,1,1.288.058,8.63,8.63,0,0,1,.6.719l.181-.112c0-.327-.007-.655,0-.982.014-.6.3-.932.8-.947a.839.839,0,0,1,.876.944c.014,1.366,0,2.732.005,4.1v.844c.2-.17.328-.287.464-.389a.806.806,0,0,1,1.158.069.786.786,0,0,1,0,1.118A7.4,7.4,0,0,1,15.7,14.045a1.677,1.677,0,0,0-.525,1.785c.666-.539,1.285-1.1,1.97-1.573a10.714,10.714,0,0,1,1.782-.935.566.566,0,0,0,.4-.621c-.013-2.1.016-4.192-.013-6.287A4.936,4.936,0,0,0,16.209,1.7c-.068-.031-.139-.057-.205-.091A.848.848,0,0,1,15.528.5.846.846,0,0,1,16.662.07a6.525,6.525,0,0,1,3.2,2.534A6.46,6.46,0,0,1,21.01,6.241c.007,1.946,0,3.892,0,5.838,0,.184,0,.369,0,.634a10.028,10.028,0,0,1,6.43,1.205c.329-1.43.616-2.829.975-4.21a23.146,23.146,0,0,1,2.348-6.217,7.075,7.075,0,0,1,1.352-1.622,1.718,1.718,0,0,1,2.36-.013A9.4,9.4,0,0,1,35.81,3.426c.184.25.3.336.623.231a8.349,8.349,0,0,1,11.1,6.6.883.883,0,0,0,.358.51A7.375,7.375,0,0,1,50.18,13.2a.923.923,0,0,0,.547.384,8.384,8.384,0,0,1,4.7,13.732.605.605,0,0,0-.078.817,14.837,14.837,0,0,1,1.7,7.9,7.3,7.3,0,0,1-.174,1.162,3.283,3.283,0,0,1-3.373,2.788c-.578.019-.734.2-.7.753.048.741.012,1.488.012,2.3,1.156,0,2.254,0,3.352,0a2.48,2.48,0,0,1,.613.039.776.776,0,0,1,.636.866.766.766,0,0,1-.747.767,4.979,4.979,0,0,1-.561.013H1.314c-.112,0-.225,0-.337,0C.369,44.7,0,44.382,0,43.88s.376-.837.989-.84c2.227-.008,4.455,0,6.682,0,.111,0,.222-.012.373-.021V40.578c-.706-.045-1.428-.076-2.147-.14a5.5,5.5,0,0,1-4.642-2.607A9.179,9.179,0,0,1,.126,33.645,27.09,27.09,0,0,1,3.794,18.272a9.727,9.727,0,0,1,3.54-3.827c.136-.077.206-.372.207-.567.014-2.451,0-4.9.012-7.354A6.713,6.713,0,0,1,11.765.144a1.313,1.313,0,0,1,.991.043c.571.324.426,1.1-.2,1.437a9.411,9.411,0,0,0-1.529.919,4.67,4.67,0,0,0-1.763,3.62c-.046,2.413-.019,4.827-.022,7.241v.619m10.3,23.039c.4,0,.721.014,1.037,0a2.786,2.786,0,0,0,3.011-2.64,14.909,14.909,0,0,0-.242-6.014A15.906,15.906,0,0,0,20.4,21.691c-1.324-1.642-2.135-1.615-3.451.035a14.58,14.58,0,0,0-2.267,4.356c-.221.629-.648.877-1.138.7-.507-.187-.688-.628-.446-1.255.323-.835.709-1.646,1.027-2.483a1.119,1.119,0,0,0,.028-.775,24.029,24.029,0,0,0-1.6-3.2,15.025,15.025,0,0,0-2.288-2.734,1.734,1.734,0,0,0-2.7.01,13.328,13.328,0,0,0-2.128,2.508A23.508,23.508,0,0,0,2.32,26.785a21.035,21.035,0,0,0-.292,8.3A4.18,4.18,0,0,0,3.6,37.965c1.358.945,2.921.835,4.488.885,0-1.267.013-2.446-.012-3.624a.953.953,0,0,0-.276-.563c-.62-.65-1.271-1.269-1.9-1.916A.843.843,0,0,1,5.844,31.5a.826.826,0,0,1,1.245.061c.3.29.574.613.859.921l.138-.085v-.542q0-3.116,0-6.231c0-.706.3-1.1.826-1.117.546-.013.857.4.859,1.137,0,.627,0,1.253,0,1.9.717-.3,1.133-.247,1.4.158.275.421.179.769-.366,1.315-.224.225-.434.469-.679.67a1.017,1.017,0,0,0-.361.88c.014,2.564.007,5.127.009,7.691,0,.181.017.362.029.588a8.635,8.635,0,0,0,4.168-.692,11.849,11.849,0,0,1-1.378-2.016,8.283,8.283,0,0,1-.6-2.6,29.891,29.891,0,0,1,.065-3.638.808.808,0,0,1,.892-.812.819.819,0,0,1,.769.921c-.008.317-.051.634-.074.951a10.629,10.629,0,0,0,.39,4.326,2.256,2.256,0,0,0,1.2,1.415,5.307,5.307,0,0,0,2.613.343v-.643q0-4.07,0-8.14c0-.7.312-1.09.848-1.083s.835.4.838,1.1c0,.973,0,1.946,0,2.919v.8a10.33,10.33,0,0,0,1.376-1.241c.5-.5.981-.544,1.363-.139.349.371.29.862-.174,1.331-.751.758-1.512,1.505-2.257,2.269a.909.909,0,0,0-.294.5c-.032.762-.014,1.526-.014,2.333M36.8,5.365a6.873,6.873,0,0,1,.458,1.359,1.15,1.15,0,0,1-.315.91,1.1,1.1,0,0,1-.913.01c-.193-.075-.309-.394-.423-.623-.549-1.1-1.023-2.242-1.646-3.3-.485-.821-.854-.822-1.333.014A19.765,19.765,0,0,0,30.918,7.31a53.93,53.93,0,0,0-2.591,20.234,12.1,12.1,0,0,0,.868,4.264,2.776,2.776,0,0,0,3.231,1.74,1.356,1.356,0,0,0,.03-.206c0-2.993.007-5.987-.009-8.98a.94.94,0,0,0-.266-.57c-.619-.65-1.266-1.275-1.9-1.912-.521-.524-.587-1.031-.191-1.41s.854-.316,1.365.2c.3.3.577.616.865.925l.139-.075c0-.515-.014-1.031,0-1.545a.829.829,0,0,1,1.036-.866.87.87,0,0,1,.649.982c-.007,2.058,0,4.116,0,6.174,0,.176.017.352.036.712.517-.55.915-.992,1.333-1.414.482-.487,1-.537,1.369-.156s.306.857-.16,1.331a21.065,21.065,0,0,1-1.677,1.655,2.378,2.378,0,0,0-.92,2.234c.078.979.017,1.968.017,2.946,1.869.123,2.817-.483,3.427-2.152a7.092,7.092,0,0,0,.283-.967,35.923,35.923,0,0,0,.384-10,58.389,58.389,0,0,0-1.394-9.192c-.157-.674.092-1.125.622-1.231.488-.1.881.23,1.03.87.113.485.216.972.344,1.551a6.912,6.912,0,0,1,6.846-2.6A6.6,6.6,0,0,0,36.8,5.365m8.33,28.93c.273-.067.472-.111.666-.166a1.545,1.545,0,0,0,1.316-1.457,13.54,13.54,0,0,1,1.975-5.383,1.559,1.559,0,0,0,.216-.778c.014-3.294.011-6.587.007-9.881a5.66,5.66,0,0,0-.058-.95,5.017,5.017,0,0,0-4.461-4.229,5.207,5.207,0,0,0-5.326,3.472,1.769,1.769,0,0,0-.056.71c.2,2.178.464,4.352.609,6.533a29.336,29.336,0,0,1-.353,7.717,2.893,2.893,0,0,0,.663,2.578A4.9,4.9,0,0,0,43.4,34.279a1.986,1.986,0,0,0,.044-.27c0-2.732.008-5.465-.009-8.2a.948.948,0,0,0-.262-.574c-.551-.587-1.137-1.14-1.7-1.718a.842.842,0,0,1-.089-1.248.852.852,0,0,1,1.286.071,7.506,7.506,0,0,1,.581.728l.2-.133a4.48,4.48,0,0,1,.024-1.148,1.114,1.114,0,0,1,.575-.715,1.1,1.1,0,0,1,.871.283,1.176,1.176,0,0,1,.2.779c.018,1.4.008,2.806.011,4.21,0,.155.024.31.042.535.172-.153.276-.256.39-.346a.817.817,0,0,1,1.164.015.851.851,0,0,1-.013,1.209,1.809,1.809,0,0,1-.315.318,3.026,3.026,0,0,0-1.291,3.088,29.683,29.683,0,0,1,.022,3.128M25.426,29.951c.247-.108.479-.231.726-.312.533-.174.651-.5.59-1.058a49.692,49.692,0,0,1,.367-12.194.815.815,0,0,0-.449-.979A8.164,8.164,0,0,0,15.28,18.78a1.716,1.716,0,0,0,.179,2.056,4.7,4.7,0,0,1,2.967-2.048c1.385-.151,2.29.775,3.229,1.7.019-.165.034-.236.034-.306,0-.748-.015-1.5.012-2.245a.838.838,0,1,1,1.674.022c.012.265,0,.531,0,.913l.475-.447c.448-.424.928-.473,1.288-.131.377.358.34.87-.107,1.327s-.932.92-1.383,1.395a.8.8,0,0,0-.257.462,5.158,5.158,0,0,0,.358,2.679,9.023,9.023,0,0,1,.736,1.992c.339,1.237.618,2.491.938,3.8m27.44,8.319a1.83,1.83,0,0,0,2.407-1.626,10.21,10.21,0,0,0-.14-4.174,10.87,10.87,0,0,0-2.322-5.091c-.639-.715-1-.7-1.655,0a8.744,8.744,0,0,0-1.764,3.158,11.5,11.5,0,0,0-.66,6.217c.261,1.255,1.06,1.735,2.4,1.493v-.6c0-1.795,0-3.59,0-5.385,0-.683.3-1.04.826-1.053.557-.013.851.347.858,1.066.006.665,0,1.33,0,2.065.142-.074.2-.1.262-.138a.841.841,0,0,1,1.07,1.3,4.24,4.24,0,0,1-.638.629c-.81.546-.761,1.323-.653,2.13M54.111,26.3a6.723,6.723,0,0,0-3.1-10.9v9.963a2.642,2.642,0,0,1,3.1.938M46.877,35.58a8.418,8.418,0,0,1-1.248.329c-.416.044-.509.213-.505.606.019,2.017.008,4.035.011,6.052,0,.143.025.286.037.422H51.1V40.018c-3.05.116-4.124-1.7-4.227-4.438M27.324,43V38.084c-1.01-.268-1.958-.527-2.912-.766a.591.591,0,0,0-.391.084,1.356,1.356,0,0,0-.611,1.378c.032,1.4.01,2.792.01,4.222Zm5.089.013V36.594c-.941.374-1.857.787-2.808,1.092-.41.131-.574.253-.564.7.03,1.364.01,2.729.012,4.094,0,.177.018.355.029.538Zm6.269-9.86a2.351,2.351,0,0,0-.92,2.34V43h1.853v-.64c0-2.282-.055-4.567.026-6.846a2.794,2.794,0,0,0-.958-2.36m-13.533,2.6a6.122,6.122,0,0,0,5.881-.556c-2.35-.39-3.311-2.086-3.886-4.145-.5.206-.972.382-1.424.6a.518.518,0,0,0-.232.363c-.122,1.219-.223,2.44-.338,3.74m18.3,7.25c0-2.28,0-4.5-.009-6.715a.416.416,0,0,0-.216-.318c-.618-.189-1.246-.344-1.881-.513V43.01Zm-7.4,0v-7.86l-1.859.182v7.678Zm-18.228,0V38.759c-.271,0-.509.005-.747,0s-.484-.021-.726-.04c-.328-.025-1.173.519-1.181.834-.028,1.148-.011,2.3-.011,3.46Zm-4.389,0V40.279L9.81,40.6v2.415Zm8.237,0v-4.35l-2.091.144v4.206Z" transform="translate(0 0.001)" fill="#d8b537"/>
      </g>
    </g>
  </g>
</svg>
