<svg xmlns="http://www.w3.org/2000/svg" xmlns:xlink="http://www.w3.org/1999/xlink" width="75" height="75" viewBox="0 0 75 75">
  <defs>
    <clipPath id="clip-path">
      <rect id="Rect치ngulo_297090" data-name="Rect치ngulo 297090" width="55.548" height="54.186" fill="#6826cc"/>
    </clipPath>
  </defs>
  <g id="Grupo_877326" data-name="Grupo 877326" transform="translate(-448 -13289.25)">
    <rect id="Rect치ngulo_297072" data-name="Rect치ngulo 297072" width="75" height="75" transform="translate(448 13289.25)" fill="none"/>
    <g id="Grupo_877331" data-name="Grupo 877331" transform="translate(457.726 13299.657)">
      <g id="Grupo_877330" data-name="Grupo 877330" clip-path="url(#clip-path)">
        <path id="Trazado_238643" data-name="Trazado 238643" d="M43.131,52.7h.6c1.356,0,2.712,0,4.068,0,.606,0,.922.257.93.727s-.311.741-.9.755c-.126,0-.253,0-.38,0H8.074c-.9,0-1.247-.2-1.255-.729-.01-.547.343-.755,1.282-.755h4.386c-.054-1.144-.045-2.253-.169-3.347A21.973,21.973,0,0,0,4.073,34.378c-1.217-1-2.408-2.028-3.618-3.035-.362-.3-.617-.63-.335-1.09s.691-.416,1.14-.241a50.948,50.948,0,0,1,6.755,2.839,24.1,24.1,0,0,1,8.8,8.432.677.677,0,0,0,.3.288c-.041-.453-.072-.907-.126-1.359-.057-.472-.12-.945-.21-1.412a24.907,24.907,0,0,0-10.8-16.354c-.1-.071-.207-.143-.309-.215a.7.7,0,0,1-.273-.971.711.711,0,0,1,.965-.345c1.476.567,2.993,1.054,4.411,1.737a26.054,26.054,0,0,1,9.879,8.3.542.542,0,0,0,.345.238c-.213-.969-.4-1.946-.646-2.907a31.922,31.922,0,0,0-5.91-11.84q-1.239-1.572-2.467-3.153c-.386-.5-.416-.876-.079-1.178.4-.36.782-.207,1.173.055a35.683,35.683,0,0,1,10,10.083,1.041,1.041,0,0,0,.4.393c-.171-1.048-.33-2.1-.516-3.143A59.359,59.359,0,0,0,17.62,4.078c-.415-.86-.8-1.734-1.2-2.6-.345-.753-.316-1.1.112-1.357C16.944-.127,17.269,0,17.8.6A55.065,55.065,0,0,1,28.834,19.784c.6,1.806,1.03,3.665,1.539,5.5.027.1.055.194.119.417.15-.277.246-.452.34-.628A35.387,35.387,0,0,1,42.506,12.155c.395-.266.789-.41,1.167-.029s.219.758-.063,1.138c-1.6,2.154-3.3,4.246-4.757,6.489a29.7,29.7,0,0,0-4.225,11.18c-.015.085-.014.173-.029.362.623-.77,1.164-1.482,1.75-2.155a26.914,26.914,0,0,1,12.709-8.19c.471-.144.881-.14,1.112.33s-.029.8-.429,1.062A25.5,25.5,0,0,0,43.2,28.534a24.584,24.584,0,0,0-4.756,12.911,1.444,1.444,0,0,0,.037.226c.23-.361.413-.656.6-.946a24.227,24.227,0,0,1,11.988-9.5c1.077-.406,2.158-.8,3.233-1.217.451-.173.861-.194,1.131.266.259.441.026.763-.318,1.053-1.68,1.42-3.419,2.782-5.02,4.283A21.243,21.243,0,0,0,43.279,49.28c-.107,1.033-.125,2.075-.181,3.113a2.286,2.286,0,0,0,.032.309M23.96,52.685c0-2.922.223-5.81-.043-8.654A24.336,24.336,0,0,0,13.153,25.767c-.736-.52-1.529-.962-2.422-1.518a1.848,1.848,0,0,0,.115.237c.1.1.2.205.3.307a26.375,26.375,0,0,1,5.237,7.65,25.856,25.856,0,0,1,2.293,11.412,6.085,6.085,0,0,0,.3,1.962c.4,1.295.724,2.614.992,3.94.194.958.247,1.942.364,2.928ZM44.8,24.4c-.1,0-.138-.011-.164,0q-.17.082-.333.176A25.231,25.231,0,0,0,32.877,38.113c-1.736,4.734-1.415,9.64-1.333,14.552H35.26a22.285,22.285,0,0,1,1.223-6.611,6.818,6.818,0,0,0,.393-2.529,25.331,25.331,0,0,1,1.487-9.079A26.5,26.5,0,0,1,44.8,24.4M27.014,52.7v-.53c0-3.895.02-7.79,0-11.685a31.787,31.787,0,0,0-7.078-20C19.072,19.4,18.1,18.4,17.18,17.362l-.119.095c.083.13.163.261.248.389A32.574,32.574,0,0,1,22.683,32.8a10.483,10.483,0,0,0,.83,3.3,23.111,23.111,0,0,1,1.994,8.659c.078,2.43.054,4.863.075,7.294,0,.2,0,.409,0,.635.154.01.241.02.329.02.341,0,.683,0,1.1,0m11.4-35.277c-.087.08-.183.16-.269.249a31.974,31.974,0,0,0-9.595,22.574c-.058,3.984-.01,7.97-.009,11.955,0,.153.017.306.026.466h1.4c0-.223,0-.414,0-.6q-.007-2.566-.016-5.132a27.2,27.2,0,0,1,2.623-12.1,2.238,2.238,0,0,0,.175-.817,31.938,31.938,0,0,1,3.242-12.2c.74-1.5,1.613-2.936,2.423-4.4m3.163,35.255a24.009,24.009,0,0,1,9.056-19.631,22.18,22.18,0,0,0-10.061,8.179,21.681,21.681,0,0,0-3.773,11.452ZM4.911,33.089a24.426,24.426,0,0,1,6.909,8.772A23.9,23.9,0,0,1,13.97,52.674H18.7c.748-6.958-6.848-17.76-13.79-19.585m22.822.111a1.754,1.754,0,0,0,.138-.229c.48-1.53.962-3.06,1.432-4.593a1.127,1.127,0,0,0,.031-.509,53.132,53.132,0,0,0-6.177-17.155c-.823-1.444-1.736-2.838-2.66-4.342-.035.164-.056.2-.046.226q.085.222.181.441a54.26,54.26,0,0,1,4.564,17.8,4.741,4.741,0,0,0,.191,1.508A38.07,38.07,0,0,1,27.733,33.2" transform="translate(0 0)" fill="#6826cc"/>
      </g>
    </g>
  </g>
</svg>
