<svg xmlns="http://www.w3.org/2000/svg" xmlns:xlink="http://www.w3.org/1999/xlink" width="74" height="74" viewBox="0 0 74 74">
  <defs>
    <clipPath id="clip-path">
      <rect id="Rectángulo_296943" data-name="Rectángulo 296943" width="74" height="74" transform="translate(330 12354)" fill="#fff" stroke="#707070" stroke-width="1"/>
    </clipPath>
  </defs>
  <g id="Enmascarar_grupo_700367" data-name="Enmascarar grupo 700367" transform="translate(-330 -12354)" clip-path="url(#clip-path)">
    <g id="Grupo_876758" data-name="Grupo 876758" transform="translate(-587.559 12919.558)">
      <path id="Trazado_237673" data-name="Trazado 237673" d="M954.813-470.061a18.351,18.351,0,0,1,6.013-8.6c.178-.152.342-.32.512-.481a19.19,19.19,0,0,0,3.073,1.682,4.151,4.151,0,0,0,2.13.745,3.162,3.162,0,0,0,1.244.385,15.223,15.223,0,0,0,3.888.246,3.843,3.843,0,0,1-1.2.956,9.635,9.635,0,0,0-3.434,3.862c-1.241,2.69.338,6.948,4.373,6.709a42.477,42.477,0,0,0,4.59-.618,1.575,1.575,0,0,1,1.941,1.117,6.7,6.7,0,0,1,.359,1.74c.279,2.335.132,4.679.209,7.018a8.377,8.377,0,0,0,.483,2.561,2.077,2.077,0,0,0,2.848,1.368,13.36,13.36,0,0,0,2.392-1.315,1.44,1.44,0,0,1-.392,1.08,19.606,19.606,0,0,1-10.972,7.811c-.59.164-1.282.116-1.74.652a19.364,19.364,0,0,1-9.585-3.839,7.756,7.756,0,0,0-.866-6.083,3.847,3.847,0,0,1-.055-3.914,29.143,29.143,0,0,0,1.751-4.159,1.721,1.721,0,0,0-.977-2.167,5.493,5.493,0,0,0-1.444-.54,3.639,3.639,0,0,1-2.461-1.877A21.481,21.481,0,0,0,954.813-470.061Z" transform="translate(-23.467 -60.924)" fill="#9dc6f9"/>
      <path id="Trazado_237674" data-name="Trazado 237674" d="M943.075-537.561a4.152,4.152,0,0,1-2.13-.746c1.6-1.28,3.187-2.572,4.8-3.837,1.716-1.348,3.454-2.67,5.337-4.123-2.379-.4-4.5-.784-6.63-1.109a1.876,1.876,0,0,0-1.572.316c-2.287,1.817-4.611,3.587-6.922,5.374a3.762,3.762,0,0,1-1.229-1.153,3.543,3.543,0,0,1,1-.995c1.732-1.322,3.445-2.667,5.33-4.131-1.172-.2-2.089-.388-3.015-.519-2.845-.4-5.648-1.075-8.518-1.315-.627-.7-1.1-1.381.143-1.938l11.667,1.925c-.549-.728-.955-1.24-1.334-1.772a59.151,59.151,0,0,1-3.575-4.839,4.021,4.021,0,0,1,1.664-.757q2.832,3.719,5.667,7.435a1.094,1.094,0,0,0,.686.434,39.26,39.26,0,0,0,6.3.964l.105.049-.1-.056a2.331,2.331,0,0,0-.678-1.226c-1.305-1.736-2.588-3.495-3.995-5.147-1.122-1.317-1.945-2.887-3.336-3.976a4.288,4.288,0,0,1,2.3-.346c.554.618.885,1.431,1.639,1.874l.252.236-.005,0a2.306,2.306,0,0,0,.676,1.225c1.675,2.194,3.461,4.309,5.047,6.564a3.767,3.767,0,0,0,3.592,1.767,34.694,34.694,0,0,0,7,1.166,25.014,25.014,0,0,1,7.058,6.2c.7.756.655,1.855,1.228,2.664.194.274.087.837.535.815.416-.021.6-.475.754-.843.565-1.348,1.086-2.716,1.69-4.046a3.481,3.481,0,0,0,.168-3.423c-1.079-2.047-1.62-4.35-2.74-6.4a3.94,3.94,0,0,1,1.487-1.579c.893,2.279,1.729,4.582,2.9,7a59.566,59.566,0,0,0,2.594-6.564,13.747,13.747,0,0,0,1.889-4.456c1.023-.591,1.7-.395,1.921.843a43.125,43.125,0,0,0-3.1,7.4,6.95,6.95,0,0,0-1.193,2.868l-.049.107.057-.1c.465.009.941.044,1.2-.469a14.6,14.6,0,0,0,5.379-2.295,6.077,6.077,0,0,1,.011,2.3l-5.892,2.384-.229.231.006,0c-.7.221-1.548.226-1.913.994a10.169,10.169,0,0,0-1.2,3.3l0,0-.24.251a13.176,13.176,0,0,0-1.467,3.641c-.7.218-.568.624-.342,1.162,4.326,10.311,2.069,21.69-6.094,29.188-7.656,7.033-16.683,8.977-26.449,5.469-9.713-3.489-15.308-10.708-16.969-20.916a23.236,23.236,0,0,1,.013-7.008c.1-.7.193-1.492,1.09-1.395,1.011.109.848.98.759,1.693-1,7.991,1.287,14.952,7.069,20.5,6.928,6.643,15.264,8.585,24.358,5.56,9.044-3.008,14.594-9.492,16.125-18.934,1.539-9.489-1.834-17.239-9.339-23.2a3.249,3.249,0,0,0-1.42-.84,2.116,2.116,0,0,0-1.193-.424c-1.353-.2-2.7-.453-4.045-.685-.93-.145-1.858-.314-2.793-.427a2.332,2.332,0,0,0-1.926.241c-2.192,1.734-4.413,3.431-6.6,5.17A21.342,21.342,0,0,0,943.075-537.561Z" transform="translate(0 -0.074)" fill="#60a672"/>
      <path id="Trazado_237675" data-name="Trazado 237675" d="M1023.152-409.914c.458-.537,1.15-.489,1.74-.652a19.607,19.607,0,0,0,10.972-7.811,1.439,1.439,0,0,0,.391-1.079l.232-.214.246-.249c1.3-1.516,2.469-3.081,2.2-5.252.382-2.065.923-4.119.4-6.242l.045-.414a20.99,20.99,0,0,1,5.313-3.664,16.893,16.893,0,0,1,.491,9.6,19.97,19.97,0,0,1-16.594,15.932A13.9,13.9,0,0,1,1023.152-409.914Z" transform="translate(-75.488 -94.15)" fill="#80b5fb"/>
      <path id="Trazado_237676" data-name="Trazado 237676" d="M950.317-441.12A21.475,21.475,0,0,1,953-436.779a3.64,3.64,0,0,0,2.461,1.877,5.49,5.49,0,0,1,1.444.54,1.72,1.72,0,0,1,.977,2.167,29.142,29.142,0,0,1-1.751,4.159,3.846,3.846,0,0,0,.055,3.914,7.757,7.757,0,0,1,.866,6.083,19.977,19.977,0,0,1-7.172-22.123A9.379,9.379,0,0,1,950.317-441.12Z" transform="translate(-18.971 -89.865)" fill="#c7e976"/>
      <path id="Trazado_237677" data-name="Trazado 237677" d="M1073.467-473.406a20.99,20.99,0,0,0-5.313,3.664,19.76,19.76,0,0,0-2.391-7.755,23.587,23.587,0,0,0-4.811-5.949,9.805,9.805,0,0,1,3.06-1.852A18.6,18.6,0,0,1,1073.467-473.406Z" transform="translate(-104.262 -56.235)" fill="#aad542"/>
      <path id="Trazado_237678" data-name="Trazado 237678" d="M1013.8-557.248c-.754-.443-1.085-1.256-1.639-1.874a14.035,14.035,0,0,1,9.595,2.918,29.791,29.791,0,0,1,8.6,9.911,34.676,34.676,0,0,1-7-1.166,19.362,19.362,0,0,0-2.941-4.153c-1.863-2.093-3.758-4.184-6.374-5.4l.005,0Z" transform="translate(-67.118 0)" fill="#65af3c"/>
      <path id="Trazado_237679" data-name="Trazado 237679" d="M974.122-504.525c2.311-1.787,4.635-3.557,6.922-5.374a1.875,1.875,0,0,1,1.572-.316c2.13.326,4.251.706,6.63,1.109-1.884,1.453-3.621,2.776-5.338,4.123-1.61,1.265-3.2,2.557-4.8,3.837a19.181,19.181,0,0,1-3.073-1.682Z" transform="translate(-38.165 -37.234)" fill="#7fc964"/>
      <path id="Trazado_237680" data-name="Trazado 237680" d="M987.706-557.509c1.392,1.089,2.215,2.658,3.336,3.976,1.407,1.652,2.69,3.411,3.995,5.147a2.332,2.332,0,0,1,.678,1.226l-.007.007a39.258,39.258,0,0,1-6.3-.964,1.094,1.094,0,0,1-.687-.434q-2.841-3.712-5.667-7.435A13.51,13.51,0,0,1,987.706-557.509Z" transform="translate(-44.964 -1.267)" fill="#7fc964"/>
      <path id="Trazado_237681" data-name="Trazado 237681" d="M1117.722-526.289c1.12,2.048,1.661,4.351,2.74,6.4a3.481,3.481,0,0,1-.168,3.423c-.6,1.33-1.124,2.7-1.689,4.046-.154.367-.339.822-.754.843-.449.022-.342-.541-.535-.815-.573-.81-.529-1.908-1.228-2.665-.188-1.363-.453-2.721-.547-4.091A9.2,9.2,0,0,1,1117.722-526.289Z" transform="translate(-145.791 -25.033)" fill="#80c965"/>
      <path id="Trazado_237682" data-name="Trazado 237682" d="M1024.573-497.316a9.8,9.8,0,0,0-3.06,1.853c-2.753,1.129-5.47,2.372-8.482,2.677a15.222,15.222,0,0,1-3.888-.246.779.779,0,0,1,.546-.417,21.559,21.559,0,0,0,5.813-2.385,24.88,24.88,0,0,0,6.984-5.251c1.348.232,2.693.486,4.045.685a2.116,2.116,0,0,1,1.193.424C1026.767-498.979,1025.442-498.418,1024.573-497.316Z" transform="translate(-64.824 -44.218)" fill="#65af3c"/>
      <path id="Trazado_237683" data-name="Trazado 237683" d="M1138.9-502.715l5.892-2.384a9.481,9.481,0,0,1-3.217,6.538,18.474,18.474,0,0,1-7.711,4.257,13.175,13.175,0,0,1,1.467-3.641l.24-.251,0,0a7.074,7.074,0,0,0,3.11-4.3l-.006,0Z" transform="translate(-159.766 -41.163)" fill="#65b03c"/>
      <path id="Trazado_237684" data-name="Trazado 237684" d="M947.179-520.218c2.87.239,5.673.913,8.519,1.314.925.13,1.843.315,3.014.519-1.885,1.465-3.6,2.81-5.33,4.131a3.539,3.539,0,0,0-1,.994A27.816,27.816,0,0,1,947.179-520.218Z" transform="translate(-17.655 -29.654)" fill="#80c965"/>
      <path id="Trazado_237685" data-name="Trazado 237685" d="M954.537-547.96a59.124,59.124,0,0,0,3.575,4.839c.379.532.785,1.044,1.334,1.772l-11.667-1.925A29.626,29.626,0,0,1,954.537-547.96Z" transform="translate(-18.112 -8.536)" fill="#80c965"/>
      <path id="Trazado_237686" data-name="Trazado 237686" d="M1156.979-538.782a43.1,43.1,0,0,1,3.1-7.4,18.909,18.909,0,0,1,2.293,7.514,14.6,14.6,0,0,1-5.379,2.294Q1156.988-537.579,1156.979-538.782Z" transform="translate(-177.361 -9.889)" fill="#65af3c"/>
      <path id="Trazado_237687" data-name="Trazado 237687" d="M1136.508-541.171a59.541,59.541,0,0,1-2.594,6.564c-1.171-2.423-2.008-4.726-2.9-7a13.531,13.531,0,0,1,4.27-2.732Z" transform="translate(-157.595 -11.289)" fill="#7fc964"/>
      <path id="Trazado_237688" data-name="Trazado 237688" d="M1150.12-545.259l-1.224-3.173a11.428,11.428,0,0,1,3.114-1.282A13.745,13.745,0,0,1,1150.12-545.259Z" transform="translate(-171.208 -7.201)" fill="#65b03c"/>
      <path id="Trazado_237689" data-name="Trazado 237689" d="M1009.335-474.862c3.013-.305,5.729-1.548,8.482-2.677a23.572,23.572,0,0,1,4.811,5.949,19.762,19.762,0,0,1,2.391,7.755l-.045.414a2.129,2.129,0,0,0-.67,1.221,10.234,10.234,0,0,0,.27,5.021c.269,2.171-.906,3.737-2.2,5.253l-.246.249-.232.214a13.364,13.364,0,0,1-2.391,1.315,2.077,2.077,0,0,1-2.848-1.368,8.381,8.381,0,0,1-.483-2.561c-.078-2.339.069-4.683-.209-7.018a6.707,6.707,0,0,0-.359-1.74,1.575,1.575,0,0,0-1.942-1.117,42.453,42.453,0,0,1-4.59.618c-4.036.239-5.614-4.02-4.373-6.709a9.635,9.635,0,0,1,3.434-3.862A3.843,3.843,0,0,0,1009.335-474.862Z" transform="translate(-61.128 -62.142)" fill="#c7e974"/>
      <path id="Trazado_237690" data-name="Trazado 237690" d="M1018.521-502.74a24.878,24.878,0,0,1-6.984,5.251,21.559,21.559,0,0,1-5.812,2.385.779.779,0,0,0-.546.417,3.162,3.162,0,0,1-1.244-.385,21.338,21.338,0,0,1,3.268-2.684c2.187-1.739,4.409-3.436,6.6-5.17a2.332,2.332,0,0,1,1.926-.241C1016.662-503.054,1017.59-502.885,1018.521-502.74Z" transform="translate(-60.859 -42.563)" fill="#7ec863"/>
      <path id="Trazado_237691" data-name="Trazado 237691" d="M1020.054-550.135c2.616,1.22,4.511,3.311,6.374,5.4a19.362,19.362,0,0,1,2.941,4.153,3.767,3.767,0,0,1-3.592-1.767c-1.586-2.256-3.372-4.37-5.047-6.564A2.306,2.306,0,0,1,1020.054-550.135Z" transform="translate(-73.13 -6.88)" fill="#7ec763"/>
      <path id="Trazado_237692" data-name="Trazado 237692" d="M1144.112-494.164a7.075,7.075,0,0,1-3.11,4.3,10.175,10.175,0,0,1,1.2-3.3C1142.564-493.938,1143.414-493.943,1144.112-494.164Z" transform="translate(-165.198 -49.487)" fill="#7ec763"/>
      <path id="Trazado_237693" data-name="Trazado 237693" d="M1153.177-515.189q.009,1.2.019,2.408c-.262.514-.738.478-1.2.469l-.008-.009A6.945,6.945,0,0,1,1153.177-515.189Z" transform="translate(-173.558 -33.482)" fill="#7ec763"/>
      <path id="Trazado_237694" data-name="Trazado 237694" d="M1019.022-551.108l.252.236Z" transform="translate(-72.344 -6.14)" fill="#7ec763"/>
      <path id="Trazado_237695" data-name="Trazado 237695" d="M1036.059-514.169l.1.056-.105-.049Z" transform="translate(-85.308 -34.259)" fill="#7fc964"/>
      <path id="Trazado_237696" data-name="Trazado 237696" d="M1151.837-503.168l-.057.1.049-.107Z" transform="translate(-173.403 -42.626)" fill="#7ec763"/>
      <path id="Trazado_237697" data-name="Trazado 237697" d="M1154.228-495.114l-.229.231Z" transform="translate(-175.092 -48.764)" fill="#7ec763"/>
      <path id="Trazado_237698" data-name="Trazado 237698" d="M1140.25-476.185l-.24.251Z" transform="translate(-164.443 -63.173)" fill="#7ec763"/>
      <path id="Trazado_237699" data-name="Trazado 237699" d="M1087.694-412.171a10.235,10.235,0,0,1-.27-5.021,2.128,2.128,0,0,1,.67-1.221C1088.617-416.291,1088.076-414.236,1087.694-412.171Z" transform="translate(-124.247 -107.151)" fill="#9bc6ef"/>
      <path id="Trazado_237700" data-name="Trazado 237700" d="M1079-370.026l.246-.249Z" transform="translate(-118.004 -143.794)" fill="#9dc6f9"/>
    </g>
  </g>
</svg>
