<svg xmlns="http://www.w3.org/2000/svg" xmlns:xlink="http://www.w3.org/1999/xlink" width="75" height="75" viewBox="0 0 75 75">
  <defs>
    <clipPath id="clip-path">
      <rect id="Rect치ngulo_297086" data-name="Rect치ngulo 297086" width="57.171" height="57.158" fill="#6826cc"/>
    </clipPath>
  </defs>
  <g id="Grupo_877322" data-name="Grupo 877322" transform="translate(-448 -13289.25)">
    <rect id="Rect치ngulo_297072" data-name="Rect치ngulo 297072" width="75" height="75" transform="translate(448 13289.25)" fill="none"/>
    <g id="Grupo_877324" data-name="Grupo 877324" transform="translate(456.915 13298.171)">
      <g id="Grupo_877315" data-name="Grupo 877315" clip-path="url(#clip-path)">
        <path id="Trazado_238616" data-name="Trazado 238616" d="M2.366,54.921H23.118a4.772,4.772,0,0,1,.558.011,1.112,1.112,0,0,1,.03,2.209,3.5,3.5,0,0,1-.5.015H1.484c-1.149,0-1.548-.4-1.477-1.567A9.579,9.579,0,0,1,3.665,48.7,11.476,11.476,0,0,1,7.324,46.6a.941.941,0,0,0,.432-1.434A24.787,24.787,0,0,1,3.182,32.881a14.2,14.2,0,0,1,4.588-11.8A1.032,1.032,0,0,1,8.9,20.821a1.09,1.09,0,0,1,.763,1c.059.647.086,1.3.159,1.944a5.46,5.46,0,0,0,.222.976,2.949,2.949,0,0,0,3.882,2.188,3.279,3.279,0,0,0,2.3-4.06,10.83,10.83,0,0,0-.8-1.835A12.524,12.524,0,0,1,15.554,9.4a1.124,1.124,0,0,1,1.219-.686,1.145,1.145,0,0,1,.942,1.156,6.359,6.359,0,0,0,3.17,5.1,8.04,8.04,0,0,0,2.589.945,3.613,3.613,0,0,0,3.625-1.5,9.993,9.993,0,0,0,2.1-7.426,15.2,15.2,0,0,0-1.427-5.185A1.85,1.85,0,0,1,27.7.6c.176-.561.8-.728,1.46-.495a13.159,13.159,0,0,1,6.407,4.827,14.809,14.809,0,0,1,2.326,13.742c-.256.815-.537,1.627-.71,2.46a3.209,3.209,0,0,0,2.889,3.825,3.3,3.3,0,0,0,3.583-3.113c.037-1.283,0-2.568.014-3.851a1.115,1.115,0,0,1,1.753-1.057A15.027,15.027,0,0,1,53.7,28.666a23.748,23.748,0,0,1-2.281,13.015,38.08,38.08,0,0,1-1.975,3.552.891.891,0,0,0,.475,1.4,10.782,10.782,0,0,1,6.965,7.219,9.285,9.285,0,0,1,.283,2.036,1.1,1.1,0,0,1-1.211,1.269q-11.111.008-22.222,0A1.126,1.126,0,0,1,32.5,56.009a1.14,1.14,0,0,1,1.294-1.086q10.162,0,20.324,0h.713a7.626,7.626,0,0,0-2.54-4.317,8.963,8.963,0,0,0-3.831-2.09,1.413,1.413,0,0,1-1.128-1.208,9.81,9.81,0,0,0-5.7-7.121,1.623,1.623,0,0,1-.956-1.376,9.893,9.893,0,0,0-8.053-8.271,12.172,12.172,0,0,0-2.276-.17,52.075,52.075,0,0,0-5.3.111,9.838,9.838,0,0,0-8.5,8.122,2.089,2.089,0,0,1-1.307,1.738,9.7,9.7,0,0,0-5.367,6.873,1.679,1.679,0,0,1-1.325,1.362,8.611,8.611,0,0,0-6.161,6.112,1.707,1.707,0,0,0-.019.235M30.827,3.436a2.377,2.377,0,0,0,.036.29,14.734,14.734,0,0,1,.519,5.85,11.036,11.036,0,0,1-3.118,6.866,5.6,5.6,0,0,1-4.09,1.76,8.6,8.6,0,0,1-7.188-3.934c-.146-.206-.281-.418-.52-.774-.064.6-.127,1.03-.153,1.465a10.146,10.146,0,0,0,1.381,5.605,6.529,6.529,0,0,1,.884,2.962,5.555,5.555,0,0,1-4.586,5.69,5.139,5.139,0,0,1-6.057-3.7c-.089-.269-.168-.541-.274-.885a11.214,11.214,0,0,0-2.29,6.607A21.688,21.688,0,0,0,8.356,41.966c.212.384.451.752.694,1.154,2.013-2.753,2.016-2.749,5.035-4.742a1.006,1.006,0,0,0,.314-.6,12.151,12.151,0,0,1,10.53-9.534,52.4,52.4,0,0,1,6.022-.106,11.956,11.956,0,0,1,9.777,5.068c.1.129.2.252.206.262a14.777,14.777,0,0,1,2.452-.779,20.876,20.876,0,0,1,3.174-.081,1.055,1.055,0,0,1,1.008,1.072c.023.52-.014,1.043.012,1.563a5.827,5.827,0,0,1-1.838,4.835l2.446,2.988c.138-.236.281-.472.414-.713a24.967,24.967,0,0,0,2.977-10.025,13.584,13.584,0,0,0-2.227-9.021A12.733,12.733,0,0,0,45.9,19.825c0,.745.031,1.391-.006,2.032a5.3,5.3,0,0,1-3.239,4.825,5.174,5.174,0,0,1-5.757-.734,5.218,5.218,0,0,1-1.865-5.5c.186-.831.473-1.641.729-2.456a12.708,12.708,0,0,0-2.174-12,10.36,10.36,0,0,0-2.758-2.556m14.48,31.408a4.308,4.308,0,0,0-2.879.525.61.61,0,0,0-.224.5c.171.719.4,1.425.6,2.136a.889.889,0,0,0,1.431.408,3.922,3.922,0,0,0,1.068-3.571" transform="translate(0 0)" fill="#6826cc"/>
        <path id="Trazado_238617" data-name="Trazado 238617" d="M37.515,103.155c0-.447-.018-.894,0-1.34a1.025,1.025,0,0,1,.958-1.056,19.56,19.56,0,0,1,3.878.222,5.39,5.39,0,0,1,4.086,5.171c.019.763.015,1.526,0,2.289a1.107,1.107,0,0,1-1.214,1.217,19.308,19.308,0,0,1-3.389-.164,5.489,5.489,0,0,1-4.329-5.39c0-.316,0-.633,0-.949Zm6.659,4.236c.432-3.3-1.914-4.835-4.393-4.35-.28,3.042,1.326,4.646,4.393,4.35" transform="translate(-21.209 -56.975)" fill="#6826cc"/>
        <path id="Trazado_238618" data-name="Trazado 238618" d="M80.049,100.691c.428,0,.857-.014,1.284,0a1.047,1.047,0,0,1,1.095.983,20.116,20.116,0,0,1-.133,3.557,5.472,5.472,0,0,1-5.177,4.378c-.818.028-1.638.021-2.457.006a1.039,1.039,0,0,1-1.117-.956A18.775,18.775,0,0,1,73.7,105a5.464,5.464,0,0,1,5.348-4.306c.335-.006.67,0,1.005,0m-4.243,6.673c3.565.4,4.81-2.241,4.321-4.421-3.228-.363-4.735,1.819-4.321,4.421" transform="translate(-41.576 -56.933)" fill="#6826cc"/>
        <path id="Trazado_238619" data-name="Trazado 238619" d="M52.269,79.472c0-1.1,0-2.123,0-3.143,0-.81.436-1.318,1.112-1.32s1.117.508,1.121,1.313c.005,1.115-.018,2.23.016,3.344a1.249,1.249,0,0,0,.316.763c1.189,1.228,2.422,2.415,3.605,3.648a1.959,1.959,0,0,1,.5,1,.95.95,0,0,1-.66,1,1.048,1.048,0,0,1-1.229-.246c-.707-.686-1.395-1.391-2.1-2.083s-1.272-1.606-2.1-1.953a7.846,7.846,0,0,0-2.812-.086c-.353,0-.707.008-1.059,0a1.115,1.115,0,1,1-.009-2.228c1.075-.014,2.149,0,3.29,0" transform="translate(-27.032 -42.414)" fill="#6826cc"/>
        <path id="Trazado_238620" data-name="Trazado 238620" d="M73.506,86.356a1.115,1.115,0,1,1,1.1,1.158,1.125,1.125,0,0,1-1.1-1.158" transform="translate(-41.563 -48.225)" fill="#6826cc"/>
        <path id="Trazado_238621" data-name="Trazado 238621" d="M64.327,105.842a1.114,1.114,0,1,1-1.1,1.1,1.125,1.125,0,0,1,1.1-1.1" transform="translate(-35.751 -59.848)" fill="#6826cc"/>
        <path id="Trazado_238622" data-name="Trazado 238622" d="M24.331,117.226a1.114,1.114,0,1,1-1.093-1.106,1.125,1.125,0,0,1,1.093,1.106" transform="translate(-12.499 -65.66)" fill="#6826cc"/>
        <path id="Trazado_238623" data-name="Trazado 238623" d="M105.478,116.12a1.114,1.114,0,1,1-1.13,1.069,1.125,1.125,0,0,1,1.13-1.069" transform="translate(-59.003 -65.66)" fill="#6826cc"/>
        <path id="Trazado_238624" data-name="Trazado 238624" d="M65.453,127.5a1.114,1.114,0,1,1-1.1-1.1,1.125,1.125,0,0,1,1.1,1.1" transform="translate(-35.751 -71.471)" fill="#6826cc"/>
      </g>
    </g>
  </g>
</svg>
