<svg xmlns="http://www.w3.org/2000/svg" xmlns:xlink="http://www.w3.org/1999/xlink" width="75" height="75" viewBox="0 0 75 75">
  <defs>
    <clipPath id="clip-path">
      <rect id="Rect치ngulo_297089" data-name="Rect치ngulo 297089" width="54.254" height="54.235" fill="#d8b537"/>
    </clipPath>
  </defs>
  <g id="Grupo_877323" data-name="Grupo 877323" transform="translate(-448 -13289.25)">
    <rect id="Rect치ngulo_297072" data-name="Rect치ngulo 297072" width="75" height="75" transform="translate(448 13289.25)" fill="none"/>
    <g id="Grupo_877325" data-name="Grupo 877325" transform="translate(458.373 13299.633)">
      <g id="Grupo_877325-2" data-name="Grupo 877325" clip-path="url(#clip-path)">
        <path id="Trazado_238630" data-name="Trazado 238630" d="M11.28,19.782V6.812c-.17-.01-.339-.028-.507-.028-.954,0-1.908.01-2.861-.007A1.035,1.035,0,0,1,6.79,5.7q-.029-2.3,0-4.607A1.041,1.041,0,0,1,7.858.006c.158-.011.318,0,.477,0H45.948c1.226,0,1.524.3,1.525,1.54,0,1.324,0,2.648,0,3.972,0,.875-.392,1.262-1.264,1.268-1.059.007-2.117,0-3.22,0v13h.61q4.609,0,9.218,0c1.121,0,1.438.324,1.438,1.459q0,15.755,0,31.509c0,1.161-.321,1.484-1.475,1.484H1.5c-1.186,0-1.5-.315-1.5-1.514Q0,36.993,0,21.265c0-1.171.306-1.482,1.467-1.482q4.556,0,9.112,0h.7M13.592,6.808V39.722a1.432,1.432,0,0,0,.223.04c1.642,0,3.284,0,4.926.011.346,0,.389-.185.443-.452a8.1,8.1,0,0,1,15.88-.1c.078.372.243.436.569.431,1.041-.015,2.083-.005,3.125-.005h1.9V6.808ZM2.3,51.942h8.977V22.052H2.3Zm49.66-29.87H42.989V51.956h8.967ZM32.83,51.95a1.152,1.152,0,0,0,.045-.2c-.006-3.83.064-7.661-.044-11.488a5.739,5.739,0,0,0-11.454.66c-.021,3.512-.006,7.024,0,10.536,0,.155.017.309.028.494ZM45.189,2.3H9.074V4.479H45.189ZM19.055,41.969H13.6v9.988h5.455Zm16.127,9.969h5.472V41.97H35.181Z" transform="translate(0 0)" fill="#d8b537"/>
        <path id="Trazado_238631" data-name="Trazado 238631" d="M41.145,26.593c0-1.093-.006-2.186,0-3.279a1.088,1.088,0,0,1,1.234-1.241q3.227-.018,6.454,0a1.092,1.092,0,0,1,1.228,1.25q.009,3.279,0,6.557c0,.813-.379,1.23-1.185,1.237q-3.28.028-6.56,0c-.8-.007-1.165-.424-1.171-1.246-.008-1.093,0-2.185,0-3.279m6.64-2.21H43.429v4.443h4.356Z" transform="translate(-24.522 -13.152)" fill="#d8b537"/>
        <path id="Trazado_238632" data-name="Trazado 238632" d="M71.071,26.57c0-1.075,0-2.151,0-3.226.005-.864.394-1.266,1.262-1.271q3.2-.015,6.4,0c.866,0,1.25.4,1.253,1.275q.009,3.252,0,6.5c0,.876-.375,1.264-1.258,1.269q-3.2.02-6.4,0c-.879-.006-1.251-.4-1.257-1.274-.007-1.093,0-2.186,0-3.279m6.64-2.187H73.363v4.446h4.349Z" transform="translate(-42.36 -13.152)" fill="#d8b537"/>
        <path id="Trazado_238633" data-name="Trazado 238633" d="M41.145,53.482c0-1.094-.006-2.188,0-3.282.006-.858.368-1.228,1.228-1.231q3.23-.014,6.459,0c.851,0,1.225.386,1.228,1.237q.01,3.255,0,6.51a1.138,1.138,0,0,1-1.272,1.28q-3.2.009-6.407,0a1.079,1.079,0,0,1-1.237-1.231c-.009-1.094,0-2.188,0-3.281m6.628-2.225H43.435v4.46h4.339Z" transform="translate(-24.522 -29.183)" fill="#d8b537"/>
        <path id="Trazado_238634" data-name="Trazado 238634" d="M79.989,53.5c0,1.094.007,2.187,0,3.281a1.069,1.069,0,0,1-1.2,1.212q-3.23.012-6.459,0a1.13,1.13,0,0,1-1.252-1.245q-.011-3.281,0-6.563c0-.821.378-1.212,1.193-1.216q3.256-.017,6.512,0c.849,0,1.2.382,1.21,1.25.008,1.094,0,2.188,0,3.282m-2.274-2.253H73.355v4.461h4.361Z" transform="translate(-42.358 -29.182)" fill="#d8b537"/>
        <path id="Trazado_238635" data-name="Trazado 238635" d="M12.831,83.344c-.53,0-1.06.018-1.588,0a1.082,1.082,0,0,1-1.165-1.157,1.067,1.067,0,0,1,1.16-1.107c1.041-.024,2.085-.046,3.122.018a1.538,1.538,0,0,1,.983.5,1.035,1.035,0,0,1-.766,1.733c-.578.052-1.164.01-1.746.01v.01" transform="translate(-6.006 -48.309)" fill="#d8b537"/>
        <path id="Trazado_238636" data-name="Trazado 238636" d="M12.832,114.142c-.547,0-1.094.015-1.641,0a1.072,1.072,0,0,1-1.113-1.148,1.046,1.046,0,0,1,1.108-1.091q1.587-.028,3.175,0a1.207,1.207,0,0,1,1.251,1.172c.006.638-.482,1.062-1.245,1.072-.511.006-1.023,0-1.535,0Z" transform="translate(-6.007 -66.688)" fill="#d8b537"/>
        <path id="Trazado_238637" data-name="Trazado 238637" d="M12.788,98.731c-.547,0-1.094.018-1.64,0a1.117,1.117,0,0,1,.025-2.234q1.614-.03,3.228,0a1.221,1.221,0,0,1,1.208,1.221c-.022.627-.475,1-1.233,1.024H12.788v-.007" transform="translate(-6.005 -57.504)" fill="#d8b537"/>
        <path id="Trazado_238638" data-name="Trazado 238638" d="M12.846,67.994c-.546,0-1.092.013-1.637,0a1.073,1.073,0,0,1-1.132-1.128,1.056,1.056,0,0,1,1.137-1.113q1.558-.025,3.117,0a1.283,1.283,0,0,1,1.278,1.217c-.019.633-.5,1.022-1.283,1.028-.493,0-.986,0-1.479,0Z" transform="translate(-6.006 -39.182)" fill="#d8b537"/>
        <path id="Trazado_238639" data-name="Trazado 238639" d="M113.57,81.086c.529,0,1.059-.017,1.587,0a1.135,1.135,0,1,1-.016,2.267q-1.56.031-3.121,0a1.148,1.148,0,0,1-1.218-1.181c.02-.674.456-1.068,1.234-1.089.511-.014,1.023,0,1.534,0Z" transform="translate(-66.041 -48.326)" fill="#d8b537"/>
        <path id="Trazado_238640" data-name="Trazado 238640" d="M113.543,67.995c-.53,0-1.06.011-1.589,0a1.078,1.078,0,0,1-1.157-1.109,1.057,1.057,0,0,1,1.124-1.132q1.642-.027,3.284,0a1.06,1.06,0,0,1,1.134,1.125,1.084,1.084,0,0,1-1.153,1.117c-.547.015-1.095,0-1.642,0" transform="translate(-66.038 -39.182)" fill="#d8b537"/>
        <path id="Trazado_238641" data-name="Trazado 238641" d="M113.6,111.9c.547,0,1.094-.015,1.639,0a1.117,1.117,0,0,1,.021,2.234q-1.692.035-3.384,0a1.1,1.1,0,0,1-1.078-1.146,1.053,1.053,0,0,1,1.111-1.087c.564-.018,1.128,0,1.692,0" transform="translate(-66.042 -66.693)" fill="#d8b537"/>
        <path id="Trazado_238642" data-name="Trazado 238642" d="M113.566,98.735c-.547,0-1.094.016-1.639,0a1.117,1.117,0,0,1-1.125-1.15,1.061,1.061,0,0,1,1.117-1.088q1.639-.026,3.279,0a1.121,1.121,0,1,1,.007,2.241c-.546.017-1.093,0-1.639,0" transform="translate(-66.041 -57.505)" fill="#d8b537"/>
      </g>
    </g>
  </g>
</svg>
