<svg xmlns="http://www.w3.org/2000/svg" xmlns:xlink="http://www.w3.org/1999/xlink" width="74" height="74" viewBox="0 0 74 74">
  <defs>
    <clipPath id="clip-path">
      <rect id="Rectángulo_296944" data-name="Rectángulo 296944" width="74" height="74" transform="translate(330 12354)" fill="#fff" stroke="#707070" stroke-width="1"/>
    </clipPath>
  </defs>
  <g id="Enmascarar_grupo_700368" data-name="Enmascarar grupo 700368" transform="translate(-330 -12354)" clip-path="url(#clip-path)">
    <g id="Grupo_876759" data-name="Grupo 876759" transform="translate(-164.35 12878.097)">
      <path id="Trazado_237701" data-name="Trazado 237701" d="M530.982-448.531c-6.589,0-13.177.013-19.766,0a7.261,7.261,0,0,1-7.145-5.533,7.364,7.364,0,0,1,3.529-8.143,6.186,6.186,0,0,1,3.768-.867c.881.091,1.142-.173,1.157-1.087a8.806,8.806,0,0,1,9.161-8.631,7.68,7.68,0,0,1,3.644.966c.743.438,1.037.278,1.442-.4a13.456,13.456,0,0,1,9.68-6.656,13.964,13.964,0,0,1,16.288,11.563c.278,1.818.636,3.093,2.5,4.1a7.526,7.526,0,0,1,3.262,8.809,7.942,7.942,0,0,1-7.639,5.873C544.238-448.512,537.61-448.532,530.982-448.531Zm-1.787-11.809a4.125,4.125,0,0,0,4.113,4.165,4.27,4.27,0,0,0,4.2-4.152,4.242,4.242,0,0,0-4.178-4.159A4.11,4.11,0,0,0,529.195-460.339Zm-3.465-3.913a4.2,4.2,0,0,0-4.039,2.7,4.026,4.026,0,0,0,1.2,4.393,4.115,4.115,0,0,0,4.659.479c.38-.229,1.146-.439.747-1.088a.982.982,0,0,0-1.576-.336,2.06,2.06,0,0,1-2.63-.219,2.4,2.4,0,0,1-.707-2.8,2.174,2.174,0,0,1,2.191-1.507,2.807,2.807,0,0,1,1.465.393c.681.393,1.1-.17,1.345-.584.274-.456-.3-.636-.616-.823A3.264,3.264,0,0,0,525.73-464.253Zm13.986-10.01h-.832c-.44,0-.8.138-.845.637a.891.891,0,0,0,.7.975,3.675,3.675,0,0,0,.824.058,7.179,7.179,0,0,1,5.184,2.721,8.018,8.018,0,0,1,1.838,4.778c.031.539.26.991.8,1.007.619.018.835-.469.876-1.05a6.72,6.72,0,0,0-.262-2.107C547.026-471.129,543.355-474.239,539.716-474.262Zm.461,16.839c.2-.226.31-.382.449-.509a1.3,1.3,0,0,0,.3-1.8,1.434,1.434,0,0,0-1.877-.526c-.391.163-.945.241-.715.844.22.576.64.231.981.078.28-.126.545-.159.724.136.19.313-.045.524-.245.707-.348.318-.709.624-1.08.915-.309.243-.735.447-.592.914s.6.266.927.281c.551.025,1.1.007,1.655,0,.244,0,.5-.026.552-.319a.48.48,0,0,0-.441-.585C540.641-457.322,540.463-457.362,540.177-457.424Z" transform="translate(0 -26.63)" fill="#7eadfb"/>
      <path id="Trazado_237702" data-name="Trazado 237702" d="M562.522-505.906a4.124,4.124,0,0,1-4.121-4.041,4.087,4.087,0,0,1,4.049-4.1,4.094,4.094,0,0,1,4.12,4.035A4.1,4.1,0,0,1,562.522-505.906Z" transform="translate(-41.552)" fill="#e79e27"/>
      <path id="Trazado_237703" data-name="Trazado 237703" d="M590.008-333.372a3.142,3.142,0,0,1-3.162,3.15,3.221,3.221,0,0,1-3.172-3.172,3.26,3.26,0,0,1,3.195-3.173A3.188,3.188,0,0,1,590.008-333.372Z" transform="translate(-60.804 -135.193)" fill="#e79e28"/>
      <path id="Trazado_237704" data-name="Trazado 237704" d="M529.52-472.3a2.875,2.875,0,0,1-2.821-2.665,2.874,2.874,0,0,1,2.693-2.794,2.836,2.836,0,0,1,2.878,2.72A2.885,2.885,0,0,1,529.52-472.3Z" transform="translate(-17.403 -27.644)" fill="#81affb"/>
      <path id="Trazado_237705" data-name="Trazado 237705" d="M664.145-331.942a2.44,2.44,0,0,1,2.338-2.483,2.441,2.441,0,0,1,2.449,2.377,2.427,2.427,0,0,1-2.343,2.477A2.412,2.412,0,0,1,664.145-331.942Z" transform="translate(-122.1 -136.823)" fill="#e79e28"/>
      <path id="Trazado_237706" data-name="Trazado 237706" d="M621.329-300.805a1.95,1.95,0,0,1-2.061-1.98,1.967,1.967,0,0,1,2.081-2.083,1.951,1.951,0,0,1,1.983,2.06A1.884,1.884,0,0,1,621.329-300.805Z" transform="translate(-87.916 -159.338)" fill="#82b0fb"/>
      <path id="Trazado_237707" data-name="Trazado 237707" d="M610.218-413.651a4.11,4.11,0,0,1,4.13-4.146,4.242,4.242,0,0,1,4.178,4.159,4.27,4.27,0,0,1-4.2,4.152A4.125,4.125,0,0,1,610.218-413.651Zm4.13,2.54a2.27,2.27,0,0,0,2.332-2.432,2.314,2.314,0,0,0-2.326-2.341,2.533,2.533,0,0,0-2.445,2.546A2.316,2.316,0,0,0,614.348-411.111Z" transform="translate(-81.023 -73.318)" fill="#d4f0fe"/>
      <path id="Trazado_237708" data-name="Trazado 237708" d="M582.038-416.879a3.264,3.264,0,0,1,2.036.6c.321.187.89.367.616.823-.249.414-.663.977-1.345.584a2.807,2.807,0,0,0-1.465-.393,2.174,2.174,0,0,0-2.191,1.507,2.4,2.4,0,0,0,.707,2.8,2.061,2.061,0,0,0,2.631.219.982.982,0,0,1,1.576.336c.4.649-.367.86-.747,1.088a4.115,4.115,0,0,1-4.659-.479,4.026,4.026,0,0,1-1.2-4.393A4.2,4.2,0,0,1,582.038-416.879Z" transform="translate(-56.308 -74.003)" fill="#d4f0fe"/>
      <path id="Trazado_237709" data-name="Trazado 237709" d="M648.995-458.835c3.639.024,7.311,3.135,8.281,7.019a6.72,6.72,0,0,1,.262,2.107c-.041.581-.256,1.068-.876,1.05-.539-.016-.768-.467-.8-1.007a8.018,8.018,0,0,0-1.838-4.778,7.179,7.179,0,0,0-5.184-2.721,3.676,3.676,0,0,1-.824-.058.891.891,0,0,1-.7-.975c.048-.5.405-.635.845-.637Z" transform="translate(-109.278 -42.058)" fill="#5696e2"/>
      <path id="Trazado_237710" data-name="Trazado 237710" d="M649.661-397.707c.286.061.464.1.642.138a.48.48,0,0,1,.441.585c-.049.294-.309.318-.552.319-.552,0-1.1.021-1.655,0-.328-.015-.787.175-.927-.281s.283-.672.592-.914c.371-.292.732-.6,1.08-.915.2-.183.435-.393.245-.707-.179-.3-.444-.262-.724-.136-.341.153-.761.5-.981-.078-.23-.6.324-.681.715-.844a1.434,1.434,0,0,1,1.877.526,1.3,1.3,0,0,1-.3,1.8C649.972-398.089,649.859-397.933,649.661-397.707Z" transform="translate(-109.484 -86.347)" fill="#d3effe"/>
      <path id="Trazado_237711" data-name="Trazado 237711" d="M619.748-404.994a2.316,2.316,0,0,1-2.439-2.227,2.533,2.533,0,0,1,2.445-2.545,2.314,2.314,0,0,1,2.326,2.341A2.27,2.27,0,0,1,619.748-404.994Z" transform="translate(-86.423 -79.435)" fill="#7fadfb"/>
    </g>
  </g>
</svg>
