<svg xmlns="http://www.w3.org/2000/svg" xmlns:xlink="http://www.w3.org/1999/xlink" width="74" height="74" viewBox="0 0 74 74">
  <defs>
    <clipPath id="clip-path">
      <rect id="Rectángulo_296945" data-name="Rectángulo 296945" width="74" height="74" transform="translate(330 12354)" fill="#fff" stroke="#707070" stroke-width="1"/>
    </clipPath>
  </defs>
  <g id="Enmascarar_grupo_700369" data-name="Enmascarar grupo 700369" transform="translate(-330 -12354)" clip-path="url(#clip-path)">
    <g id="Grupo_876760" data-name="Grupo 876760" transform="translate(-993.543 12880.833)">
      <path id="Trazado_237713" data-name="Trazado 237713" d="M1352.712-472.016a16.914,16.914,0,0,1-10.156-3.737,2.507,2.507,0,0,0,.031-3.39,14.763,14.763,0,0,0-1.117-1.341,7.547,7.547,0,0,1-1.431-2,1.967,1.967,0,0,1,.874-2.726c1.118-.346,1.3-1.07,1.244-2.045a11.743,11.743,0,0,0-.517-2.716,1.068,1.068,0,0,0-1.511-.8,6.661,6.661,0,0,1-1.811.347c-.616.017-1.017-.105-1.227-.787a3.19,3.19,0,0,0-2.525-2.179,19.46,19.46,0,0,1,5.93-12.168,17.372,17.372,0,0,1,7.655-4.5,6.614,6.614,0,0,1,2.025,3.038c.433,2.017.444,3.956-.894,5.694a2.876,2.876,0,0,0-.333.638c-.674,1.591-.172,2.551,1.51,2.852a1.748,1.748,0,0,1,1.583,1.227,1.5,1.5,0,0,0,1.837,1.115,1.568,1.568,0,0,0,1.313-1.809c-.01-.24,0-.481-.009-.722-.041-2.189.133-2.372,2.326-2.56.659-.057,1.346-.143,1.479-.986a2.59,2.59,0,0,1,2.617-2.414c.98-.069,1.248-.671,1.235-1.54-.017-1.1,0-2.2,0-3.3a11.651,11.651,0,0,1,4.27,2.758,19.435,19.435,0,0,1,6.135,10.456,21.994,21.994,0,0,1-.012,8.37,20.245,20.245,0,0,1-4.195,8.421,8.747,8.747,0,0,1-.823.764,8.189,8.189,0,0,1,.036-.927,4.843,4.843,0,0,0-2.088-5.109,2.622,2.622,0,0,1-1.2-3.5,1.632,1.632,0,0,0-.426-1.882c-1.114-1.115-4.344-1.13-5.467-.019a3.433,3.433,0,0,0-.852,3.431c.182.786.074,1.159-.845,1.3a11.545,11.545,0,0,0-3.808,1.223c-1.473.806-1.625,1.576-.509,2.832.707.8,1.495,1.522,2.174,2.34.867,1.045.761,1.52-.487,2.087a2.681,2.681,0,0,0-1.7,1.917A7.972,7.972,0,0,0,1352.712-472.016Z" transform="translate(-0.413 -4.112)" fill="#75b9e2"/>
      <path id="Trazado_237714" data-name="Trazado 237714" d="M1420.772-396.317a7.971,7.971,0,0,1,.324-2.333,2.681,2.681,0,0,1,1.7-1.917c1.248-.567,1.353-1.042.486-2.087-.679-.818-1.466-1.544-2.173-2.34-1.116-1.256-.964-2.026.509-2.832a11.547,11.547,0,0,1,3.808-1.223c.919-.142,1.027-.515.845-1.3a3.433,3.433,0,0,1,.851-3.431c1.123-1.11,4.353-1.1,5.467.019a1.632,1.632,0,0,1,.426,1.882,2.622,2.622,0,0,0,1.2,3.5,4.844,4.844,0,0,1,2.088,5.109,8.218,8.218,0,0,0-.036.927,18.027,18.027,0,0,1-9.941,5.779,15.763,15.763,0,0,1-4.581.432C1421.418-396.154,1421.055-396.029,1420.772-396.317Z" transform="translate(-68.473 -79.811)" fill="#d1d9df"/>
      <path id="Trazado_237715" data-name="Trazado 237715" d="M1414.932-512.924c0,1.1-.014,2.2,0,3.3.014.869-.255,1.471-1.234,1.54a2.59,2.59,0,0,0-2.617,2.414c-.133.843-.82.929-1.479.986-2.193.189-2.366.371-2.326,2.56,0,.241,0,.482.009.722a1.569,1.569,0,0,1-1.313,1.809,1.5,1.5,0,0,1-1.837-1.116,1.748,1.748,0,0,0-1.583-1.227c-1.682-.3-2.185-1.261-1.51-2.852a2.871,2.871,0,0,1,.333-.638c1.337-1.738,1.327-3.677.894-5.694a6.615,6.615,0,0,0-2.025-3.038,11.069,11.069,0,0,1,4.657-1.02,19.635,19.635,0,0,1,9.321,1.7C1414.507-513.36,1414.811-513.254,1414.932-512.924Z" transform="translate(-52.509 0)" fill="#d1d9df"/>
      <path id="Trazado_237716" data-name="Trazado 237716" d="M1334.154-429.483a3.19,3.19,0,0,1,2.525,2.179c.21.682.61.8,1.227.787a6.665,6.665,0,0,0,1.811-.347,1.068,1.068,0,0,1,1.51.8,11.748,11.748,0,0,1,.517,2.716c.053.975-.126,1.7-1.244,2.045a1.967,1.967,0,0,0-.874,2.726,7.549,7.549,0,0,0,1.431,2,14.791,14.791,0,0,1,1.117,1.341,2.507,2.507,0,0,1-.031,3.39,9.325,9.325,0,0,1-3.372-2.947,19.258,19.258,0,0,1-4.606-10.259A21.881,21.881,0,0,1,1334.154-429.483Z" transform="translate(0 -68.012)" fill="#d1d9e0"/>
      <path id="Trazado_237717" data-name="Trazado 237717" d="M1542.844-430.332a6.2,6.2,0,0,1,3.773.781,5.36,5.36,0,0,1,2.526,4.589c.031.893-.016,1.788-.027,2.682l-4.2.01c-.165-3.347-.717-3.873-4.066-3.872-.513,0-1.026.007-1.539.011q0-2.106,0-4.212l2.252.028Z" transform="translate(-162.806 -67.329)" fill="#a9c24b"/>
      <path id="Trazado_237718" data-name="Trazado 237718" d="M1565.764-314.792a36.391,36.391,0,0,1,2.6,5.487,2.79,2.79,0,0,1-.973,3.307,2.7,2.7,0,0,1-3.182.052,2.707,2.707,0,0,1-1.1-3.263A28.316,28.316,0,0,1,1565.764-314.792Z" transform="translate(-181.551 -158.98)" fill="#77bae4"/>
      <path id="Trazado_237719" data-name="Trazado 237719" d="M1525.171-438.257q0,2.106,0,4.212c-.068,1.7-.554,2.168-2.256,2.17-.478,0-.957-.031-1.435-.049a22,22,0,0,0,.013-8.37c.509-.01,1.017-.027,1.526-.026C1524.729-440.32,1525.113-439.948,1525.171-438.257Z" transform="translate(-148.668 -59.416)" fill="#edcc54"/>
      <path id="Trazado_237720" data-name="Trazado 237720" d="M1539.274-452.208l-1.284.016c.025-1.3.038-2.609.081-3.913.016-.5-.2-.664-.676-.643-.549.024-1.1,0-1.651,0-.422,0-.929.015-.937-.541-.008-.6.512-.636.981-.636h4.437c.55,0,1.1-.014,1.651.011.384.018.681.208.647.638-.029.366-.3.515-.652.523-.309.007-.619,0-.929.005-1.7,0-1.709,0-1.7,1.752C1539.242-454.064,1539.262-453.136,1539.274-452.208Z" transform="translate(-159.236 -45.453)" fill="#9eb348"/>
      <path id="Trazado_237721" data-name="Trazado 237721" d="M1563.731-391.35l4.2-.01c.967.124.7.871.691,1.442-.007.71-.57.652-1.054.653-1.17,0-2.341,0-3.511,0-.459,0-.977.017-.977-.62C1563.078-390.443,1562.76-391.2,1563.731-391.35Z" transform="translate(-181.62 -98.25)" fill="#d2dadb"/>
      <path id="Trazado_237722" data-name="Trazado 237722" d="M1570.67-358.779a13.392,13.392,0,0,1,1.457,3,1.366,1.366,0,0,1-.606,1.611,1.327,1.327,0,0,1-1.634.015,1.371,1.371,0,0,1-.664-1.595A12.268,12.268,0,0,1,1570.67-358.779Z" transform="translate(-186.484 -124.092)" fill="#7abde5"/>
    </g>
  </g>
</svg>
