<svg xmlns="http://www.w3.org/2000/svg" width="400" height="304.39" viewBox="0 0 400 304.39">
  <g id="Grupo_876964" data-name="Grupo 876964" transform="translate(-683.159 -114.717)">
    <path id="Trazado_238004" data-name="Trazado 238004" d="M903.721,446.351c.522.005,1.041.021,1.564.021A137.391,137.391,0,0,0,1007.4,401.066H903.721Z" transform="translate(-20.937 -27.265)" fill="#81859d"/>
    <path id="Trazado_238005" data-name="Trazado 238005" d="M893.174,446.351V401.066H792.619A137.382,137.382,0,0,0,893.174,446.351Z" transform="translate(-10.391 -27.265)" fill="#ccbe8c"/>
    <path id="Trazado_238006" data-name="Trazado 238006" d="M904.166,396.5H1007.14a137.517,137.517,0,0,0,30.329-54.5h-133.3Z" transform="translate(-20.98 -21.658)" fill="#dee0eb"/>
    <path id="Trazado_238007" data-name="Trazado 238007" d="M789.1,396.5H890.364V342H758.77A137.516,137.516,0,0,0,789.1,396.5Z" transform="translate(-7.178 -21.658)" fill="#fff9e3"/>
    <g id="Grupo_876856" data-name="Grupo 876856" transform="translate(692.296 241.647)">
      <g id="Grupo_876855" data-name="Grupo 876855" transform="translate(0 0)">
        <g id="Grupo_876854" data-name="Grupo 876854">
          <path id="Trazado_238008" data-name="Trazado 238008" d="M733.29,267.776l-.45-.006a6.935,6.935,0,0,0-8.308-6.91,8.122,8.122,0,0,0-15.727.87,6.452,6.452,0,0,0-.842-.075,6.34,6.34,0,0,0-6.426,6.07,11.67,11.67,0,0,0-8.284,8.2l49.463.763C741.515,271.66,738.684,267.857,733.29,267.776Z" transform="translate(-693.254 -255.062)" fill="#f8b8d4"/>
          <g id="Grupo_876853" data-name="Grupo 876853" transform="translate(0.004)">
            <path id="Trazado_238009" data-name="Trazado 238009" d="M718.688,255.054a8.125,8.125,0,0,0-8.138,6.516,6.342,6.342,0,0,1,5.345,5.8l10.387-6.56A8.128,8.128,0,0,0,718.688,255.054Z" transform="translate(-694.9 -255.052)" fill="#f8b8d4"/>
            <path id="Trazado_238010" data-name="Trazado 238010" d="M702.475,268.189l7.309-5.945a6.435,6.435,0,0,0-.841-.081A6.339,6.339,0,0,0,702.475,268.189Z" transform="translate(-694.134 -255.727)" fill="#f8b8d4"/>
            <path id="Trazado_238011" data-name="Trazado 238011" d="M710.55,262.253l5.345,5.8A6.342,6.342,0,0,0,710.55,262.253Z" transform="translate(-694.9 -255.735)" fill="#f8b8d4"/>
            <path id="Trazado_238012" data-name="Trazado 238012" d="M729.3,261.273a6.974,6.974,0,0,0-1.47.127l-.943,6.766,9.2.2A6.944,6.944,0,0,0,729.3,261.273Z" transform="translate(-696.451 -255.642)" fill="#f8b8d4"/>
            <path id="Trazado_238013" data-name="Trazado 238013" d="M733.351,269.093l-.451-.01L701.587,269c0-.06.01-.119.013-.178a11.671,11.671,0,0,0-8.341,8.145l49.876,1.118C741.967,273.045,738.744,269.211,733.351,269.093Z" transform="translate(-693.259 -256.359)" fill="#f8b8d4"/>
            <path id="Trazado_238014" data-name="Trazado 238014" d="M715.751,271.92a6.309,6.309,0,0,0,.655-2.659c0-.2,0-.4-.017-.6Z" transform="translate(-695.394 -256.344)" fill="#f8b8d4"/>
            <path id="Trazado_238015" data-name="Trazado 238015" d="M715.751,271.92a6.309,6.309,0,0,0,.655-2.659c0-.2,0-.4-.017-.6Z" transform="translate(-695.394 -256.344)" fill="#f8b8d4"/>
          </g>
        </g>
        <path id="Trazado_238016" data-name="Trazado 238016" d="M710.549,262.506s4.327,1.406,4.11,5.439a5.823,5.823,0,0,1-4.11,5.439,5.439,5.439,0,0,0,0-10.879Z" transform="translate(-694.896 -255.759)" fill="#fce1ed"/>
      </g>
      <path id="Trazado_238017" data-name="Trazado 238017" d="M738.349,269.544a8.027,8.027,0,0,0-8.147,7.908s2.152-6.747,8.1-6.338a8.81,8.81,0,0,1,7.954,6.578A8.028,8.028,0,0,0,738.349,269.544Z" transform="translate(-696.761 -256.427)" fill="#fce1ed"/>
    </g>
    <g id="Grupo_876858" data-name="Grupo 876858" transform="translate(785.551 187.662)">
      <g id="Grupo_876857" data-name="Grupo 876857" transform="translate(0.042)">
        <path id="Trazado_238018" data-name="Trazado 238018" d="M848.276,211.257a7.94,7.94,0,0,0-9.166-7.562,10.245,10.245,0,0,0-19.836-1.1,8.75,8.75,0,0,0-10.479,8.716l-.568.008c-6.8.1-10.374,4.9-11.89,11.243l62.388-.962A14.719,14.719,0,0,0,848.276,211.257Z" transform="translate(-796.337 -195.405)" fill="#f8b8d4"/>
      </g>
      <path id="Trazado_238019" data-name="Trazado 238019" d="M842.735,204.675a6.861,6.861,0,0,0,0,13.722,7.344,7.344,0,0,1-5.184-6.861C837.278,206.447,842.735,204.675,842.735,204.675Z" transform="translate(-800.048 -196.285)" fill="#fce1ed"/>
      <path id="Trazado_238020" data-name="Trazado 238020" d="M806.266,213.552a10.127,10.127,0,0,0-9.974,10.276s1.752-7.728,10.032-8.3c7.5-.516,10.219,7.995,10.219,7.995A10.126,10.126,0,0,0,806.266,213.552Z" transform="translate(-796.291 -197.127)" fill="#fce1ed"/>
    </g>
    <g id="Grupo_876872" data-name="Grupo 876872" transform="translate(758.368 150.461)">
      <path id="Trazado_238030" data-name="Trazado 238030" d="M814.133,166.5a5.037,5.037,0,0,0-2.685.777,6.753,6.753,0,0,0-9.871-4.907,14.009,14.009,0,0,0-25.64.634,8.606,8.606,0,0,0-9.45,10.518h42.59c.1-.081.2-.161.292-.247.03.083.065.165.1.247h9.338a5.067,5.067,0,0,0-4.674-7.021Z" transform="translate(-766.256 -154.302)" fill="#fce1ed"/>
      <g id="Grupo_876871" data-name="Grupo 876871" transform="translate(0 0)">
        <path id="Trazado_238031" data-name="Trazado 238031" d="M789.912,154.3a14.011,14.011,0,0,0-12.96,8.689,8.629,8.629,0,0,1,7.584,8.562l18.055-9.2A14.007,14.007,0,0,0,789.912,154.3Z" transform="translate(-767.271 -154.301)" fill="#fce1ed"/>
        <path id="Trazado_238032" data-name="Trazado 238032" d="M766.256,172.456l9.681-8.562a8.509,8.509,0,0,0-1.048-.071A8.633,8.633,0,0,0,766.256,172.456Z" transform="translate(-766.256 -155.205)" fill="#fce1ed"/>
        <path id="Trazado_238033" data-name="Trazado 238033" d="M776.952,163.9l7.584,8.562A8.628,8.628,0,0,0,776.952,163.9Z" transform="translate(-767.271 -155.212)" fill="#fce1ed"/>
        <path id="Trazado_238034" data-name="Trazado 238034" d="M808.481,162.31a6.728,6.728,0,0,0-3.2.806l9.871,4.907A6.755,6.755,0,0,0,808.481,162.31Z" transform="translate(-769.961 -155.061)" fill="#fce1ed"/>
      </g>
    </g>
    <g id="Grupo_876874" data-name="Grupo 876874" transform="translate(821.409 114.717)">
      <path id="Trazado_238035" data-name="Trazado 238035" d="M860.486,119.6a4.936,4.936,0,0,0-.582.039,7.771,7.771,0,0,0-14.221-.352A3.746,3.746,0,0,0,840.208,122a2.809,2.809,0,0,0-4.082,3.464h5.18c.019-.046.038-.091.055-.138.052.048.107.092.162.138h23.623a4.776,4.776,0,0,0-4.66-5.873Z" transform="translate(-835.909 -114.809)" fill="#fff"/>
      <g id="Grupo_876873" data-name="Grupo 876873" transform="translate(4.299)">
        <path id="Trazado_238036" data-name="Trazado 238036" d="M853.741,114.808a7.77,7.77,0,0,0-7.033,4.467l10.015,5.1a4.787,4.787,0,0,1,4.207-4.75A7.77,7.77,0,0,0,853.741,114.808Z" transform="translate(-841.233 -114.808)" fill="#fff"/>
        <path id="Trazado_238037" data-name="Trazado 238037" d="M863,120.089a4.748,4.748,0,0,0-.582.039l5.37,4.75A4.789,4.789,0,0,0,863,120.089Z" transform="translate(-842.725 -115.309)" fill="#fff"/>
        <path id="Trazado_238038" data-name="Trazado 238038" d="M857.773,124.882l4.207-4.75A4.787,4.787,0,0,0,857.773,124.882Z" transform="translate(-842.284 -115.313)" fill="#fff"/>
        <path id="Trazado_238039" data-name="Trazado 238039" d="M840.659,122.419l5.475-2.722a3.746,3.746,0,0,0-5.475,2.722Z" transform="translate(-840.659 -115.23)" fill="#fff"/>
      </g>
    </g>
    <path id="Trazado_238040" data-name="Trazado 238040" d="M746.514,207.25a6.115,6.115,0,0,0-2.036.353,11.976,11.976,0,0,0-23.909-.174,4.79,4.79,0,0,0-3.484,6.366h35.536c.01-.138.022-.277.022-.418A6.128,6.128,0,0,0,746.514,207.25Z" transform="translate(-3.192 -7.822)" fill="#fff"/>
    <path id="Trazado_238041" data-name="Trazado 238041" d="M1056.26,240.406a4.4,4.4,0,0,0-1.473.256,8.665,8.665,0,0,0-17.3-.127,3.466,3.466,0,0,0-2.522,4.607h25.71c.007-.1.015-.2.015-.3A4.433,4.433,0,0,0,1056.26,240.406Z" transform="translate(-33.375 -11.258)" fill="#a2a7c5"/>
    <path id="Trazado_238042" data-name="Trazado 238042" d="M778.427,164.282a16.211,16.211,0,0,0-32.364.236,8.275,8.275,0,0,0-11.049,7.816c0,.191.015.377.028.566h48.1a6.485,6.485,0,0,0-4.716-8.618Z" transform="translate(-4.922 -3.351)" fill="#f8b8d4"/>
    <g id="Grupo_876877" data-name="Grupo 876877" transform="translate(714.962 225.874)">
      <g id="Grupo_876876" data-name="Grupo 876876">
        <g id="Grupo_876875" data-name="Grupo 876875">
          <path id="Trazado_238043" data-name="Trazado 238043" d="M770.836,264.2V259.37a2.675,2.675,0,0,0-5.351,0V265a2.67,2.67,0,1,1-5.34,0v-8.845a2.671,2.671,0,0,0-4.884-1.49,2.612,2.612,0,0,0-.456,1.49v2.877a2.485,2.485,0,0,1-2.483,2.473h-.233a2.477,2.477,0,0,1-2.442-2.128l-30.429,43.1c-2.107,2.989-.395,7.448,3.06,7.7.111.01.234.01.345.01H816.6c.122,0,.234,0,.345-.01,3.456-.253,5.168-4.722,3.05-7.7l-33.307-46.834V261.6a2.482,2.482,0,0,1-2.473,2.472h-.233A2.484,2.484,0,0,1,781.5,261.6v-7.1a2.67,2.67,0,0,0-5.34,0v9.494a2.664,2.664,0,0,1-5.32.213Z" transform="translate(-718.297 -238.973)" fill="#fff9e3"/>
          <path id="Trazado_238044" data-name="Trazado 238044" d="M779.873,253.148a2.67,2.67,0,0,1,5.34,0v7.1a2.484,2.484,0,0,0,2.483,2.472h.233a2.482,2.482,0,0,0,2.473-2.472V254.3l-8.614-12.109a10.511,10.511,0,0,0-8.552-4.57,10.746,10.746,0,0,0-8.775,4.7l-7,9.92,1.52,1.074a2.671,2.671,0,0,1,4.884,1.49v8.845a2.67,2.67,0,1,0,5.34,0v-5.633a2.675,2.675,0,0,1,5.351,0v4.833a2.664,2.664,0,0,0,5.32-.213Z" transform="translate(-722.015 -237.624)" fill="#ccbe8c"/>
        </g>
      </g>
      <path id="Trazado_238045" data-name="Trazado 238045" d="M809.873,292.146H729.283L719.277,306.32c-2.1,2.979-.391,7.432,3.058,7.688.113.008.226.013.341.013h93.888c.114,0,.228,0,.341-.013,3.451-.255,5.157-4.718,3.044-7.69Z" transform="translate(-718.303 -242.8)" fill="#998f69"/>
    </g>
    <g id="Grupo_876880" data-name="Grupo 876880" transform="translate(774.946 199.107)">
      <g id="Grupo_876879" data-name="Grupo 876879" transform="translate(0 0)">
        <g id="Grupo_876878" data-name="Grupo 876878">
          <path id="Trazado_238046" data-name="Trazado 238046" d="M866.5,246.981V233.869a3.962,3.962,0,0,0-7.924,0v8.359a3.98,3.98,0,0,1-3.962,3.962,3.974,3.974,0,0,1-3.961-3.962h.03v-16.01a3.962,3.962,0,0,0-7.924,0v23.316a3.962,3.962,0,1,1-7.924,0V227.769l-48.992,69.4c-2.908,4.124-.537,10.275,4.236,10.629.152.011.314.021.466.021H920.407c.162,0,.314-.01.466-.021,4.783-.354,7.134-6.526,4.216-10.629l-50.654-71.255v21.066a3.967,3.967,0,0,1-7.934,0Z" transform="translate(-784.573 -209.399)" fill="#fff9e3"/>
          <path id="Trazado_238047" data-name="Trazado 238047" d="M840.107,226.532v21.654a3.962,3.962,0,0,0,7.924,0V224.87a3.962,3.962,0,0,1,7.924,0v16.01h-.03a3.954,3.954,0,0,0,6.758,2.8,3.933,3.933,0,0,0,1.166-2.8V232.52a3.962,3.962,0,0,1,7.924,0v13.112a3.967,3.967,0,0,0,7.934,0V224.566l-7.266-10.2a14.544,14.544,0,0,0-11.825-6.312,14.908,14.908,0,0,0-12.129,6.495l-8.38,11.875Z" transform="translate(-789.845 -208.05)" fill="#ccbe8c"/>
        </g>
      </g>
      <path id="Trazado_238048" data-name="Trazado 238048" d="M911.154,283.362H799.688l-13.84,19.606c-2.908,4.12-.54,10.28,4.229,10.633.157.012.314.017.472.017h129.86c.158,0,.316-.005.471-.017,4.773-.353,7.134-6.525,4.21-10.636Z" transform="translate(-784.574 -215.199)" fill="#998f69"/>
    </g>
    <g id="Grupo_876892" data-name="Grupo 876892" transform="translate(902.806 238.996)">
      <rect id="Rectángulo_296979" data-name="Rectángulo 296979" width="48.545" height="58.859" transform="translate(0.287 0)" fill="#dee0eb"/>
      <rect id="Rectángulo_296980" data-name="Rectángulo 296980" width="48.545" height="2.988" transform="translate(0.287 21.171)" fill="#a2a7c5"/>
      <rect id="Rectángulo_296981" data-name="Rectángulo 296981" width="48.545" height="10.242" transform="translate(0.287 32.197)" fill="#a2a7c5"/>
      <g id="Grupo_876891" data-name="Grupo 876891" transform="translate(0 31.779)">
        <g id="Grupo_876881" data-name="Grupo 876881" transform="translate(35.084)">
          <path id="Trazado_238049" data-name="Trazado 238049" d="M964.607,298.18h5.983V287.234h-5.983Zm.576-10.373h4.832v9.8h-4.832Z" transform="translate(-964.607 -287.234)" fill="#616476"/>
        </g>
        <g id="Grupo_876882" data-name="Grupo 876882" transform="translate(24.272)">
          <path id="Trazado_238050" data-name="Trazado 238050" d="M952.661,298.18h5.982V287.234h-5.982Zm.576-10.373h4.83v9.8h-4.83Z" transform="translate(-952.661 -287.234)" fill="#616476"/>
        </g>
        <g id="Grupo_876883" data-name="Grupo 876883" transform="translate(45.898)">
          <path id="Trazado_238051" data-name="Trazado 238051" d="M976.555,298.18h3.222V287.234h-3.222Zm.576-10.373H979.2v9.8h-2.071Z" transform="translate(-976.555 -287.234)" fill="#616476"/>
        </g>
        <g id="Grupo_876884" data-name="Grupo 876884" transform="translate(40.492)">
          <path id="Trazado_238052" data-name="Trazado 238052" d="M970.582,298.18h5.982V287.234h-5.982Zm.575-10.373h4.831v9.8h-4.831Z" transform="translate(-970.582 -287.234)" fill="#616476"/>
        </g>
        <g id="Grupo_876885" data-name="Grupo 876885" transform="translate(29.678)">
          <path id="Trazado_238053" data-name="Trazado 238053" d="M958.634,298.18h5.982V287.234h-5.982Zm.576-10.373h4.83v9.8h-4.83Z" transform="translate(-958.634 -287.234)" fill="#616476"/>
        </g>
        <g id="Grupo_876886" data-name="Grupo 876886">
          <path id="Trazado_238054" data-name="Trazado 238054" d="M925.843,298.18h3.222V287.234h-3.222Zm.575-10.373h2.072v9.8h-2.072Z" transform="translate(-925.843 -287.234)" fill="#616476"/>
        </g>
        <g id="Grupo_876887" data-name="Grupo 876887" transform="translate(2.646)">
          <path id="Trazado_238055" data-name="Trazado 238055" d="M928.767,298.18h5.982V287.234h-5.982Zm.576-10.373h4.83v9.8h-4.83Z" transform="translate(-928.767 -287.234)" fill="#616476"/>
        </g>
        <g id="Grupo_876888" data-name="Grupo 876888" transform="translate(8.052)">
          <path id="Trazado_238056" data-name="Trazado 238056" d="M934.74,298.18h5.982V287.234H934.74Zm.576-10.373h4.831v9.8h-4.831Z" transform="translate(-934.74 -287.234)" fill="#616476"/>
        </g>
        <g id="Grupo_876889" data-name="Grupo 876889" transform="translate(18.865)">
          <path id="Trazado_238057" data-name="Trazado 238057" d="M946.687,298.18h5.983V287.234h-5.983Zm.576-10.373h4.831v9.8h-4.831Z" transform="translate(-946.687 -287.234)" fill="#616476"/>
        </g>
        <g id="Grupo_876890" data-name="Grupo 876890" transform="translate(13.459)">
          <path id="Trazado_238058" data-name="Trazado 238058" d="M940.714,298.18H946.7V287.234h-5.982Zm.575-10.373h4.831v9.8h-4.831Z" transform="translate(-940.714 -287.234)" fill="#616476"/>
        </g>
      </g>
    </g>
    <g id="Grupo_876894" data-name="Grupo 876894" transform="translate(917.39 205.766)">
      <path id="Trazado_238059" data-name="Trazado 238059" d="M946.082,215.408l-4.125,91.908,15.269.181-1.949-91.98Z" transform="translate(-941.957 -215.408)" fill="#81859d"/>
      <path id="Trazado_238060" data-name="Trazado 238060" d="M941.957,307.415l7.634.09,1.088-91.944-4.6-.054Z" transform="translate(-941.957 -215.417)" fill="#616476"/>
      <g id="Grupo_876893" data-name="Grupo 876893" transform="translate(2.267 22.174)">
        <path id="Trazado_238061" data-name="Trazado 238061" d="M950.726,239.969l-5.271-.062-.239,5.336,5.448.065,5.448.064-.113-5.34Z" transform="translate(-944.533 -239.907)" fill="#f1f2f7"/>
        <path id="Trazado_238062" data-name="Trazado 238062" d="M950.507,253.759l-5.7-.067-.35,7.8,5.953.07,5.953.07-.165-7.807Z" transform="translate(-944.462 -241.215)" fill="#f1f2f7"/>
      </g>
    </g>
    <path id="Trazado_238063" data-name="Trazado 238063" d="M884.871,154.961A10.064,10.064,0,0,0,873.521,165h0v.016a10.175,10.175,0,0,0,.27,2.292h27.9V144.865c-.536-.052-1.076-.09-1.626-.09A16.423,16.423,0,0,0,884.871,154.961Z" transform="translate(-18.07 -2.936)" fill="#f8b8d4"/>
    <path id="Trazado_238064" data-name="Trazado 238064" d="M932.5,159.055a5.963,5.963,0,0,0-3.181.919l0-.017,0,0a8,8,0,0,0-11.69-5.812,16.589,16.589,0,0,0-13.374-9.447v22.669h22.258c.116-.1.234-.19.346-.292.035.1.077.2.118.292h11.059a6,6,0,0,0-5.534-8.313Z" transform="translate(-20.988 -2.929)" fill="#a2a7c5"/>
    <g id="Grupo_876900" data-name="Grupo 876900" transform="translate(986.437 245.806)">
      <g id="Grupo_876895" data-name="Grupo 876895" transform="translate(2.293 1.083)">
        <rect id="Rectángulo_296982" data-name="Rectángulo 296982" width="54.815" height="50.854" fill="#dee0eb"/>
        <rect id="Rectángulo_296983" data-name="Rectángulo 296983" width="13.628" height="50.854" transform="translate(41.222 0.111)" fill="#a2a7c5"/>
      </g>
      <path id="Trazado_238065" data-name="Trazado 238065" d="M1076.475,259.647h-57.145a1.083,1.083,0,1,0,0,2.167h57.145a1.083,1.083,0,1,0,0-2.167Z" transform="translate(-1018.246 -259.647)" fill="#616476"/>
      <g id="Grupo_876899" data-name="Grupo 876899" transform="translate(6.111 10.925)">
        <g id="Grupo_876896" data-name="Grupo 876896">
          <rect id="Rectángulo_296984" data-name="Rectángulo 296984" width="3.428" height="5.093" transform="translate(43.819)" fill="#f1f2f7"/>
          <rect id="Rectángulo_296985" data-name="Rectángulo 296985" width="3.428" height="5.093" transform="translate(37.559)" fill="#f1f2f7"/>
          <rect id="Rectángulo_296986" data-name="Rectángulo 296986" width="3.428" height="5.093" transform="translate(31.299)" fill="#f1f2f7"/>
          <rect id="Rectángulo_296987" data-name="Rectángulo 296987" width="3.428" height="5.093" transform="translate(25.04)" fill="#f1f2f7"/>
          <rect id="Rectángulo_296988" data-name="Rectángulo 296988" width="3.428" height="5.093" transform="translate(18.78)" fill="#f1f2f7"/>
          <rect id="Rectángulo_296989" data-name="Rectángulo 296989" width="3.428" height="5.093" transform="translate(12.52)" fill="#f1f2f7"/>
          <rect id="Rectángulo_296990" data-name="Rectángulo 296990" width="3.428" height="5.093" transform="translate(6.26)" fill="#f1f2f7"/>
          <rect id="Rectángulo_296991" data-name="Rectángulo 296991" width="3.428" height="5.093" fill="#f1f2f7"/>
        </g>
        <g id="Grupo_876897" data-name="Grupo 876897" transform="translate(0 9.789)">
          <rect id="Rectángulo_296992" data-name="Rectángulo 296992" width="3.428" height="5.093" transform="translate(43.819)" fill="#f1f2f7"/>
          <rect id="Rectángulo_296993" data-name="Rectángulo 296993" width="3.428" height="5.093" transform="translate(37.559)" fill="#f1f2f7"/>
          <rect id="Rectángulo_296994" data-name="Rectángulo 296994" width="3.428" height="5.093" transform="translate(31.299)" fill="#f1f2f7"/>
          <rect id="Rectángulo_296995" data-name="Rectángulo 296995" width="3.428" height="5.093" transform="translate(25.04)" fill="#f1f2f7"/>
          <rect id="Rectángulo_296996" data-name="Rectángulo 296996" width="3.428" height="5.093" transform="translate(18.78)" fill="#f1f2f7"/>
          <rect id="Rectángulo_296997" data-name="Rectángulo 296997" width="3.428" height="5.093" transform="translate(12.52)" fill="#f1f2f7"/>
          <rect id="Rectángulo_296998" data-name="Rectángulo 296998" width="3.428" height="5.093" transform="translate(6.26)" fill="#f1f2f7"/>
          <rect id="Rectángulo_296999" data-name="Rectángulo 296999" width="3.428" height="5.093" fill="#f1f2f7"/>
        </g>
        <g id="Grupo_876898" data-name="Grupo 876898" transform="translate(0 19.578)">
          <rect id="Rectángulo_297000" data-name="Rectángulo 297000" width="3.428" height="5.093" transform="translate(43.819)" fill="#f1f2f7"/>
          <rect id="Rectángulo_297001" data-name="Rectángulo 297001" width="3.428" height="5.093" transform="translate(37.559)" fill="#f1f2f7"/>
          <rect id="Rectángulo_297002" data-name="Rectángulo 297002" width="3.428" height="5.093" transform="translate(31.299)" fill="#f1f2f7"/>
          <rect id="Rectángulo_297003" data-name="Rectángulo 297003" width="3.428" height="5.093" transform="translate(25.04)" fill="#f1f2f7"/>
          <rect id="Rectángulo_297004" data-name="Rectángulo 297004" width="3.428" height="5.093" transform="translate(18.78)" fill="#f1f2f7"/>
          <rect id="Rectángulo_297005" data-name="Rectángulo 297005" width="3.428" height="5.093" transform="translate(12.52)" fill="#f1f2f7"/>
          <rect id="Rectángulo_297006" data-name="Rectángulo 297006" width="3.428" height="5.093" transform="translate(6.26)" fill="#f1f2f7"/>
          <rect id="Rectángulo_297007" data-name="Rectángulo 297007" width="3.428" height="5.093" fill="#f1f2f7"/>
        </g>
      </g>
      <rect id="Rectángulo_297008" data-name="Rectángulo 297008" width="54.85" height="3.288" transform="translate(2.231 48.219)" fill="#616476"/>
    </g>
    <g id="Grupo_876901" data-name="Grupo 876901" transform="translate(951.147 231.25)">
      <path id="Trazado_238066" data-name="Trazado 238066" d="M988.3,243.564s-2.844,59.19-9.048,66.605h45.5s-9.306-20.16-10.857-66.605Z" transform="translate(-979.255 -243.564)" fill="#616476"/>
      <path id="Trazado_238067" data-name="Trazado 238067" d="M1004.39,243.564v66.605h22.748s-9.306-20.16-10.857-66.605Z" transform="translate(-981.641 -243.564)" fill="#81859d"/>
      <path id="Trazado_238068" data-name="Trazado 238068" d="M987.919,263.917l-.254,3.361h28.442l-.312-3.361Z" transform="translate(-980.053 -245.496)" fill="#a2a7c5"/>
      <path id="Trazado_238069" data-name="Trazado 238069" d="M986.674,278.484l-.338,3.378h31.277l-.483-3.378Z" transform="translate(-979.927 -246.879)" fill="#a2a7c5"/>
      <path id="Trazado_238070" data-name="Trazado 238070" d="M989.544,243.564l-.2,3.729,25.655.053-.146-3.782Z" transform="translate(-980.213 -243.564)" fill="#a2a7c5"/>
    </g>
    <g id="Grupo_876903" data-name="Grupo 876903" transform="translate(883.085 200.681)">
      <path id="Trazado_238071" data-name="Trazado 238071" d="M919.182,229.871c-6.763-7.592-15.055-20.082-15.055-20.082l-.073,97.174h25.765s-.362-55.107-1.023-58.808S925.945,237.463,919.182,229.871Z" transform="translate(-904.054 -209.789)" fill="#81859d"/>
      <path id="Trazado_238072" data-name="Trazado 238072" d="M919.19,229.871c-6.763-7.592-15.055-20.082-15.055-20.082l9.273,20.8c.393.882,7.151,14.466,7.23,28.853l.443,47.523h8.746s-.362-55.107-1.024-58.808S925.953,237.463,919.19,229.871Z" transform="translate(-904.062 -209.789)" fill="#616476"/>
      <rect id="Rectángulo_297009" data-name="Rectángulo 297009" width="24.99" height="4.607" transform="translate(0.051 40.114)" fill="#a2a7c5"/>
      <g id="Grupo_876902" data-name="Grupo 876902" transform="translate(0 53.174)">
        <rect id="Rectángulo_297010" data-name="Rectángulo 297010" width="25.359" height="1.105" fill="#a2a7c5"/>
        <rect id="Rectángulo_297011" data-name="Rectángulo 297011" width="25.359" height="1.105" transform="translate(0 2.54)" fill="#a2a7c5"/>
        <rect id="Rectángulo_297012" data-name="Rectángulo 297012" width="25.359" height="1.105" transform="translate(0 5.081)" fill="#a2a7c5"/>
        <rect id="Rectángulo_297013" data-name="Rectángulo 297013" width="25.359" height="1.105" transform="translate(0 7.621)" fill="#a2a7c5"/>
        <rect id="Rectángulo_297014" data-name="Rectángulo 297014" width="25.359" height="1.105" transform="translate(0 10.161)" fill="#a2a7c5"/>
      </g>
    </g>
    <path id="Trazado_238073" data-name="Trazado 238073" d="M809.524,301.995c-15.316,0-28.262,5.591-32.509,13.275h65.019C837.787,307.586,824.841,301.995,809.524,301.995Z" transform="translate(-8.91 -17.861)" fill="#ccbe8c"/>
    <g id="Grupo_876906" data-name="Grupo 876906" transform="translate(819.338 279.529)">
      <path id="Trazado_238074" data-name="Trazado 238074" d="M865.495,296.907c-15.017,0-27.711,7.608-31.874,18.063h63.747C893.2,304.515,880.512,296.907,865.495,296.907Z" transform="translate(-833.621 -296.907)" fill="#fff9e3"/>
      <g id="Grupo_876905" data-name="Grupo 876905" transform="translate(12.799 4.233)">
        <g id="Grupo_876904" data-name="Grupo 876904">
          <path id="Trazado_238075" data-name="Trazado 238075" d="M852.054,301.93c-2.995.878-4.794,3.091-4.167,4.455s3.121,1.518,5.695.764,4.571-2.226,4.363-3.714S855.049,301.053,852.054,301.93Z" transform="translate(-847.763 -301.584)" fill="#ccbe8c"/>
          <path id="Trazado_238076" data-name="Trazado 238076" d="M863.949,302.554c-1.593.012-2.821.788-2.751,1.594s1.307,1.346,2.773,1.335,2.7-.569,2.762-1.376S865.543,302.542,863.949,302.554Z" transform="translate(-849.038 -301.676)" fill="#ccbe8c"/>
        </g>
      </g>
    </g>
    <g id="Grupo_876909" data-name="Grupo 876909" transform="translate(757.869 273.187)">
      <path id="Trazado_238077" data-name="Trazado 238077" d="M776.994,294.873a4.974,4.974,0,1,0-9.893.7,6.314,6.314,0,1,0,9.839,0A5.1,5.1,0,0,0,776.994,294.873Z" transform="translate(-765.705 -289.899)" fill="#e8def8"/>
      <g id="Grupo_876908" data-name="Grupo 876908" transform="translate(3.34 7.3)">
        <g id="Grupo_876907" data-name="Grupo 876907" transform="translate(2.956)">
          <path id="Trazado_238078" data-name="Trazado 238078" d="M772.905,298.023l-.244,16.369a.243.243,0,0,0,.244.241h.033a.243.243,0,0,0,.244-.241s-.109-16.369-.244-16.369C772.938,298.023,772.905,297.891,772.905,298.023Z" transform="translate(-772.661 -297.964)" fill="#6826cc"/>
        </g>
        <path id="Trazado_238079" data-name="Trazado 238079" d="M770.865,303.88a7.45,7.45,0,0,1-1.47-1.462c1.659,2.67,3.184,2.592,3.184,2.592l.033-.376S772.284,304.884,770.865,303.88Z" transform="translate(-769.395 -298.387)" fill="#6826cc"/>
        <path id="Trazado_238080" data-name="Trazado 238080" d="M774.433,302.861c-1.206.853-1.484.641-1.484.641l.027.319s1.3.066,2.707-2.2A6.314,6.314,0,0,1,774.433,302.861Z" transform="translate(-769.732 -298.311)" fill="#6826cc"/>
        <path id="Trazado_238081" data-name="Trazado 238081" d="M771.519,300.873a5.115,5.115,0,0,1-1.008-1c1.138,1.831,2.185,1.778,2.185,1.778l.022-.258S772.492,301.562,771.519,300.873Z" transform="translate(-769.501 -298.145)" fill="#6826cc"/>
      </g>
    </g>
    <g id="Grupo_876912" data-name="Grupo 876912" transform="translate(859.027 245.684)">
      <path id="Trazado_238082" data-name="Trazado 238082" d="M891.836,260.173a4.488,4.488,0,0,0-4.689,0c-5.116,3.207-20.157,44.4,2.345,44.4C913.309,304.576,896.953,263.379,891.836,260.173Z" transform="translate(-877.472 -259.512)" fill="#cab3ed"/>
      <path id="Trazado_238083" data-name="Trazado 238083" d="M883.482,288.064c-.361-16.232,4.449-28.314,3.666-27.824-5.116,3.207-20.157,44.4,2.345,44.4C889.492,304.644,883.841,304.184,883.482,288.064Z" transform="translate(-877.472 -259.579)" fill="#6826cc"/>
      <g id="Grupo_876911" data-name="Grupo 876911" transform="translate(4.148 20.472)">
        <g id="Grupo_876910" data-name="Grupo 876910" transform="translate(7.177)">
          <path id="Trazado_238084" data-name="Trazado 238084" d="M891.582,282.292l-1.6,31.018c.38-.018,2.866.022,3.246,0-.118-13.269-1.32-31.018-1.56-31.018C891.67,282.292,891.582,281.928,891.582,282.292Z" transform="translate(-889.985 -282.13)" fill="#fff"/>
        </g>
        <path id="Trazado_238085" data-name="Trazado 238085" d="M886.085,298.347a20.469,20.469,0,0,1-4.03-4.008c4.549,7.318,8.73,7.1,8.73,7.1l.088-1.031S889.974,301.1,886.085,298.347Z" transform="translate(-882.055 -283.289)" fill="#fff"/>
        <path id="Trazado_238086" data-name="Trazado 238086" d="M895.867,295.554c-3.305,2.339-4.069,1.756-4.069,1.756l.075.876s3.553.182,7.419-6.038A17.366,17.366,0,0,1,895.867,295.554Z" transform="translate(-882.98 -283.081)" fill="#fff"/>
        <path id="Trazado_238087" data-name="Trazado 238087" d="M887.879,290.1a14.007,14.007,0,0,1-2.764-2.75c3.12,5.021,5.988,4.875,5.988,4.875l.061-.708S890.547,291.992,887.879,290.1Z" transform="translate(-882.345 -282.626)" fill="#fff"/>
      </g>
    </g>
    <g id="Grupo_876915" data-name="Grupo 876915" transform="translate(810.417 261.525)">
      <path id="Trazado_238088" data-name="Trazado 238088" d="M833.769,277.475a3.124,3.124,0,0,0-3.266,0c-3.564,2.234-14.04,30.929,1.633,30.929C848.726,308.4,837.333,279.708,833.769,277.475Z" transform="translate(-823.764 -277.014)" fill="#e8def8"/>
      <path id="Trazado_238089" data-name="Trazado 238089" d="M827.95,296.9c-.252-11.305,3.1-19.722,2.553-19.379-3.564,2.234-14.04,30.929,1.633,30.929C832.136,308.451,828.2,308.131,827.95,296.9Z" transform="translate(-823.764 -277.061)" fill="#cab3ed"/>
      <g id="Grupo_876914" data-name="Grupo 876914" transform="translate(2.889 14.259)">
        <g id="Grupo_876913" data-name="Grupo 876913" transform="translate(5)">
          <path id="Trazado_238090" data-name="Trazado 238090" d="M833.592,292.881l-1.112,21.6c.264-.013,2,.015,2.26,0-.081-9.243-.919-21.6-1.087-21.6C833.653,292.881,833.592,292.628,833.592,292.881Z" transform="translate(-832.48 -292.769)" fill="#6826cc"/>
        </g>
        <path id="Trazado_238091" data-name="Trazado 238091" d="M829.764,304.064a14.257,14.257,0,0,1-2.807-2.792c3.169,5.1,6.081,4.949,6.081,4.949l.062-.718S832.472,305.981,829.764,304.064Z" transform="translate(-826.956 -293.576)" fill="#6826cc"/>
        <path id="Trazado_238092" data-name="Trazado 238092" d="M836.577,302.118c-2.3,1.629-2.834,1.224-2.834,1.224l.052.61s2.475.127,5.168-4.206A12.081,12.081,0,0,1,836.577,302.118Z" transform="translate(-827.6 -293.431)" fill="#6826cc"/>
        <path id="Trazado_238093" data-name="Trazado 238093" d="M831.013,298.322a9.763,9.763,0,0,1-1.926-1.915c2.174,3.5,4.172,3.4,4.172,3.4l.043-.493S832.871,299.637,831.013,298.322Z" transform="translate(-827.158 -293.114)" fill="#6826cc"/>
      </g>
    </g>
    <g id="Grupo_876918" data-name="Grupo 876918" transform="translate(846.942 256.766)">
      <path id="Trazado_238094" data-name="Trazado 238094" d="M875.766,272.257a3.4,3.4,0,0,0-3.552,0c-3.875,2.429-16.265,33.635,1.776,33.635C891.034,305.893,879.642,274.687,875.766,272.257Z" transform="translate(-864.152 -271.757)" fill="#cab3ed"/>
      <path id="Trazado_238095" data-name="Trazado 238095" d="M868.513,293.728c-.264-11.864,3.252-20.7,2.679-20.337-3.74,2.344-14.734,32.457,1.714,32.457C872.906,305.848,868.776,305.511,868.513,293.728Z" transform="translate(-864.12 -271.911)" fill="#e8def8"/>
      <g id="Grupo_876917" data-name="Grupo 876917" transform="translate(2.873 17.703)">
        <g id="Grupo_876916" data-name="Grupo 876916" transform="translate(5.334)">
          <path id="Trazado_238096" data-name="Trazado 238096" d="M874.375,291.436l-1.187,23.049c.282-.013,2.13.016,2.411,0-.088-9.86-.981-23.049-1.159-23.049C874.44,291.436,874.375,291.167,874.375,291.436Z" transform="translate(-873.188 -291.317)" fill="#6826cc"/>
        </g>
        <path id="Trazado_238097" data-name="Trazado 238097" d="M870.29,303.367a15.211,15.211,0,0,1-2.995-2.979c3.38,5.439,6.488,5.28,6.488,5.28l.065-.767S873.18,305.412,870.29,303.367Z" transform="translate(-867.295 -292.178)" fill="#6826cc"/>
        <path id="Trazado_238098" data-name="Trazado 238098" d="M877.559,301.291c-2.456,1.738-3.024,1.3-3.024,1.3l.056.652s2.64.135,5.513-4.487A12.934,12.934,0,0,1,877.559,301.291Z" transform="translate(-867.982 -292.023)" fill="#6826cc"/>
        <path id="Trazado_238099" data-name="Trazado 238099" d="M871.623,297.242a10.438,10.438,0,0,1-2.054-2.043c2.318,3.731,4.449,3.621,4.449,3.621l.045-.525S873.606,298.645,871.623,297.242Z" transform="translate(-867.511 -291.685)" fill="#6826cc"/>
      </g>
    </g>
    <g id="Grupo_876921" data-name="Grupo 876921" transform="translate(783.373 256.63)">
      <path id="Trazado_238100" data-name="Trazado 238100" d="M805.53,272.106a3.4,3.4,0,0,0-3.552,0c-3.876,2.429-16.265,33.634,1.776,33.634C820.8,305.741,809.405,274.536,805.53,272.106Z" transform="translate(-793.916 -271.605)" fill="#cab3ed"/>
      <path id="Trazado_238101" data-name="Trazado 238101" d="M798.276,293.577c-.263-11.864,3.252-20.7,2.68-20.337-3.741,2.344-14.734,32.457,1.713,32.457C802.669,305.7,798.539,305.36,798.276,293.577Z" transform="translate(-793.884 -271.76)" fill="#6826cc"/>
      <g id="Grupo_876920" data-name="Grupo 876920" transform="translate(2.874 17.703)">
        <g id="Grupo_876919" data-name="Grupo 876919" transform="translate(5.333)">
          <path id="Trazado_238102" data-name="Trazado 238102" d="M804.138,291.285l-1.187,23.049c.282-.014,2.13.016,2.412,0-.088-9.86-.981-23.049-1.16-23.049C804.2,291.285,804.138,291.016,804.138,291.285Z" transform="translate(-802.951 -291.166)" fill="#6826cc"/>
        </g>
        <path id="Trazado_238103" data-name="Trazado 238103" d="M800.054,303.216a15.178,15.178,0,0,1-2.995-2.979c3.38,5.439,6.487,5.279,6.487,5.279l.066-.766S802.943,305.26,800.054,303.216Z" transform="translate(-797.059 -292.027)" fill="#6826cc"/>
        <path id="Trazado_238104" data-name="Trazado 238104" d="M807.322,301.14c-2.456,1.739-3.023,1.305-3.023,1.305l.055.651s2.64.135,5.513-4.486A12.89,12.89,0,0,1,807.322,301.14Z" transform="translate(-797.746 -291.872)" fill="#6826cc"/>
        <path id="Trazado_238105" data-name="Trazado 238105" d="M801.386,297.091a10.443,10.443,0,0,1-2.055-2.044c2.319,3.731,4.45,3.622,4.45,3.622l.045-.526S803.369,298.494,801.386,297.091Z" transform="translate(-797.275 -291.534)" fill="#6826cc"/>
      </g>
    </g>
    <g id="Grupo_876924" data-name="Grupo 876924" transform="translate(794.654 250.28)">
      <path id="Trazado_238106" data-name="Trazado 238106" d="M819.722,265.18a4,4,0,0,0-4.18,0c-4.561,2.858-19.141,39.583,2.09,39.583C837.69,304.763,824.282,268.038,819.722,265.18Z" transform="translate(-806.354 -264.59)" fill="#6826cc"/>
      <path id="Trazado_238107" data-name="Trazado 238107" d="M811.566,290.662c-.313-14.091,3.863-24.581,3.182-24.155-4.442,2.784-17.5,38.55,2.036,38.55C816.784,305.057,811.877,304.657,811.566,290.662Z" transform="translate(-806.348 -264.771)" fill="#e8def8"/>
      <g id="Grupo_876923" data-name="Grupo 876923" transform="translate(3.755 21.467)">
        <g id="Grupo_876922" data-name="Grupo 876922" transform="translate(5.928)">
          <path id="Trazado_238108" data-name="Trazado 238108" d="M818.367,288.442l-1.32,25.62c.314-.014,2.368.018,2.681,0-.1-10.96-1.091-25.62-1.289-25.62C818.439,288.442,818.367,288.141,818.367,288.442Z" transform="translate(-817.047 -288.308)" fill="#fff"/>
        </g>
        <path id="Trazado_238109" data-name="Trazado 238109" d="M813.826,301.7a16.921,16.921,0,0,1-3.329-3.311c3.758,6.046,7.211,5.869,7.211,5.869l.073-.852S817.038,303.976,813.826,301.7Z" transform="translate(-810.497 -289.266)" fill="#fff"/>
        <path id="Trazado_238110" data-name="Trazado 238110" d="M821.906,299.4c-2.73,1.932-3.361,1.451-3.361,1.451l.062.723s2.935.15,6.128-4.987A14.35,14.35,0,0,1,821.906,299.4Z" transform="translate(-811.261 -289.094)" fill="#fff"/>
        <path id="Trazado_238111" data-name="Trazado 238111" d="M815.307,294.895a11.6,11.6,0,0,1-2.284-2.271c2.578,4.146,4.947,4.026,4.947,4.026l.05-.585S817.511,296.454,815.307,294.895Z" transform="translate(-810.737 -288.718)" fill="#fff"/>
      </g>
    </g>
    <g id="Grupo_876927" data-name="Grupo 876927" transform="translate(770.161 262.025)">
      <path id="Trazado_238112" data-name="Trazado 238112" d="M796.091,284.972a7.406,7.406,0,1,0-14.728,1.043,9.4,9.4,0,1,0,14.647,0A7.468,7.468,0,0,0,796.091,284.972Z" transform="translate(-779.286 -277.567)" fill="#cab3ed"/>
      <g id="Grupo_876926" data-name="Grupo 876926" transform="translate(4.455 7.276)">
        <g id="Grupo_876925" data-name="Grupo 876925" transform="translate(4.914)">
          <path id="Trazado_238113" data-name="Trazado 238113" d="M790.043,285.706l-.406,27.7a.406.406,0,0,0,.406.406h.053a.406.406,0,0,0,.406-.406s-.182-27.7-.406-27.7C790.1,285.706,790.043,285.481,790.043,285.706Z" transform="translate(-789.637 -285.606)" fill="#6826cc"/>
        </g>
        <path id="Trazado_238114" data-name="Trazado 238114" d="M786.652,295.617a12.522,12.522,0,0,1-2.444-2.475c2.758,4.518,5.294,4.386,5.294,4.386l.053-.636S789.009,297.315,786.652,295.617Z" transform="translate(-784.208 -286.321)" fill="#6826cc"/>
        <path id="Trazado_238115" data-name="Trazado 238115" d="M792.583,293.892c-2,1.444-2.467,1.083-2.467,1.083l.045.541s2.155.112,4.5-3.727A10.668,10.668,0,0,1,792.583,293.892Z" transform="translate(-784.769 -286.193)" fill="#6826cc"/>
        <path id="Trazado_238116" data-name="Trazado 238116" d="M787.739,290.528a8.589,8.589,0,0,1-1.676-1.7c1.892,3.1,3.631,3.008,3.631,3.008l.037-.436S789.357,291.694,787.739,290.528Z" transform="translate(-784.384 -285.912)" fill="#6826cc"/>
      </g>
    </g>
    <g id="Grupo_876930" data-name="Grupo 876930" transform="translate(735.698 271.706)">
      <path id="Trazado_238117" data-name="Trazado 238117" d="M753.263,293.575a5.311,5.311,0,1,0-10.623,0,5.386,5.386,0,0,0,.059.748,6.742,6.742,0,1,0,10.505,0A5.231,5.231,0,0,0,753.263,293.575Z" transform="translate(-741.209 -288.263)" fill="#6826cc"/>
      <g id="Grupo_876929" data-name="Grupo 876929" transform="translate(3.195 5.219)">
        <g id="Grupo_876928" data-name="Grupo 876928" transform="translate(3.525)">
          <path id="Trazado_238118" data-name="Trazado 238118" d="M748.925,294.1l-.291,19.867a.291.291,0,0,0,.291.291h.038a.291.291,0,0,0,.291-.291s-.13-19.867-.291-19.867C748.963,294.1,748.925,293.939,748.925,294.1Z" transform="translate(-748.634 -294.029)" fill="#fff"/>
        </g>
        <path id="Trazado_238119" data-name="Trazado 238119" d="M746.492,301.209a8.975,8.975,0,0,1-1.753-1.774c1.978,3.24,3.8,3.145,3.8,3.145l.038-.456S748.184,302.428,746.492,301.209Z" transform="translate(-744.739 -294.542)" fill="#fff"/>
        <path id="Trazado_238120" data-name="Trazado 238120" d="M750.746,299.973c-1.437,1.035-1.769.777-1.769.777l.033.387s1.546.081,3.227-2.674A7.618,7.618,0,0,1,750.746,299.973Z" transform="translate(-745.141 -294.45)" fill="#fff"/>
        <path id="Trazado_238121" data-name="Trazado 238121" d="M747.273,297.559a6.132,6.132,0,0,1-1.2-1.217c1.357,2.223,2.6,2.159,2.6,2.159l.026-.313S748.433,298.4,747.273,297.559Z" transform="translate(-744.865 -294.248)" fill="#fff"/>
      </g>
    </g>
    <g id="Grupo_876932" data-name="Grupo 876932" transform="translate(710.718 286.378)">
      <path id="Trazado_238122" data-name="Trazado 238122" d="M738.071,311.292a2.047,2.047,0,0,0-1.319.48c.006-.1.015-.192.015-.29a3.922,3.922,0,0,0-6.955-2.488,2.748,2.748,0,0,0-.841-.133,2.713,2.713,0,0,0-1.134.249,5.461,5.461,0,0,0-10.86.83c0,.026,0,.051,0,.077a2.732,2.732,0,1,0-.639,5.388v.1h22.015v-.124a2.054,2.054,0,0,0-.286-4.089Z" transform="translate(-713.609 -304.474)" fill="#fff9e3"/>
      <g id="Grupo_876931" data-name="Grupo 876931" transform="translate(3.265 0.164)">
        <path id="Trazado_238123" data-name="Trazado 238123" d="M722.214,304.655a5,5,0,0,0,0,9.994s-2.87-.908-3.089-5A5.134,5.134,0,0,1,722.214,304.655Z" transform="translate(-717.217 -304.655)" fill="#ccbe8c"/>
        <path id="Trazado_238124" data-name="Trazado 238124" d="M730.393,309.392a2.6,2.6,0,0,0-2.565,2.643,2.91,2.91,0,0,1,5.207-.078A2.6,2.6,0,0,0,730.393,309.392Z" transform="translate(-718.224 -305.105)" fill="#ccbe8c"/>
      </g>
    </g>
    <path id="Trazado_238125" data-name="Trazado 238125" d="M811.887,258.764a1.568,1.568,0,0,1-2.87.746c-1.492-.22-2.591.3-2.727,1.223,0,0,.412-.837,2.633-.585a4.035,4.035,0,0,1,1.612.506l-.042,1.15.553-.126.646-.148-.587-1a5.277,5.277,0,0,1,1.168-1.245c1.581-1.268,2.591-.75,2.591-.75C814.305,257.784,813.093,257.861,811.887,258.764Z" transform="translate(-11.688 -13.686)" fill="#81859d"/>
    <path id="Trazado_238126" data-name="Trazado 238126" d="M754.724,231.54a3.307,3.307,0,0,0-.971,1.3,3.273,3.273,0,0,0-1.45-.661c-1.273-.244-2.195.223-2.288,1.1,0,0,.33-.785,2.224-.492a3.364,3.364,0,0,1,1.381.518l-.007,1.091.466-.107.546-.125-.523-.966a4.472,4.472,0,0,1,.963-1.153c1.313-1.165,2.184-.65,2.184-.65C756.756,230.668,755.728,230.712,754.724,231.54Z" transform="translate(-6.346 -11.11)" fill="#81859d"/>
    <path id="Trazado_238127" data-name="Trazado 238127" d="M753.118,245.738a.8.8,0,0,1-1.457.377c-.756-.1-1.315.157-1.387.611,0,0,.212-.414,1.337-.3a2.069,2.069,0,0,1,.815.243l-.024.567.28-.064.329-.075-.294-.491a2.631,2.631,0,0,1,.6-.617c.806-.63,1.316-.378,1.316-.378C754.347,245.247,753.732,245.289,753.118,245.738Z" transform="translate(-6.371 -12.485)" fill="#81859d"/>
    <path id="Trazado_238128" data-name="Trazado 238128" d="M726.422,239.185a1.1,1.1,0,0,1-1.985.514c-1.029-.14-1.791.214-1.89.834,0,0,.289-.564,1.822-.4a2.811,2.811,0,0,1,1.111.331l-.034.772.383-.088.446-.1-.4-.67a3.627,3.627,0,0,1,.812-.842c1.1-.858,1.794-.515,1.794-.515C728.1,238.516,727.26,238.573,726.422,239.185Z" transform="translate(-3.739 -11.85)" fill="#81859d"/>
    <path id="Trazado_238129" data-name="Trazado 238129" d="M813.389,251.277a.585.585,0,0,1-1.059.274c-.549-.075-.956.114-1.008.444,0,0,.155-.3.972-.215a1.5,1.5,0,0,1,.592.176l-.017.412.2-.046.238-.055-.214-.357a1.961,1.961,0,0,1,.434-.449c.586-.457.957-.274.957-.274C814.283,250.92,813.836,250.95,813.389,251.277Z" transform="translate(-12.166 -13.02)" fill="#81859d"/>
    <g id="Grupo_876934" data-name="Grupo 876934" transform="translate(861.275 290.728)">
      <path id="Trazado_238130" data-name="Trazado 238130" d="M895.657,313.656a1.313,1.313,0,0,0-.846.308c0-.062.009-.123.009-.186a2.517,2.517,0,0,0-4.464-1.6,1.736,1.736,0,0,0-1.268.074,3.505,3.505,0,0,0-6.97.532c0,.017,0,.033,0,.05a1.754,1.754,0,1,0-.41,3.458v.065h14.131v-.08a1.319,1.319,0,0,0-.184-2.625Z" transform="translate(-879.956 -309.28)" fill="#ccbe8c"/>
      <g id="Grupo_876933" data-name="Grupo 876933" transform="translate(2.096 0.105)">
        <path id="Trazado_238131" data-name="Trazado 238131" d="M885.479,309.4a3.207,3.207,0,0,0,0,6.414,3.585,3.585,0,0,1,0-6.414Z" transform="translate(-882.272 -309.396)" fill="#998f69"/>
        <path id="Trazado_238132" data-name="Trazado 238132" d="M890.728,312.436a1.673,1.673,0,0,0-1.646,1.7,1.868,1.868,0,0,1,3.342-.05A1.671,1.671,0,0,0,890.728,312.436Z" transform="translate(-882.918 -309.685)" fill="#998f69"/>
      </g>
    </g>
    <g id="Grupo_876936" data-name="Grupo 876936" transform="translate(755.072 290.105)">
      <path id="Trazado_238133" data-name="Trazado 238133" d="M778.362,312.21a1.815,1.815,0,0,0-.424.052c0-.017,0-.033,0-.051a3.616,3.616,0,0,0-7.191-.549,1.794,1.794,0,0,0-.75-.165,1.829,1.829,0,0,0-.558.088,2.6,2.6,0,0,0-4.6,1.647c0,.065,0,.129.01.193a1.36,1.36,0,1,0-1.064,2.389v.082h14.577v-.067a1.81,1.81,0,0,0,0-3.619Z" transform="translate(-762.614 -308.592)" fill="#fff9e3"/>
      <g id="Grupo_876935" data-name="Grupo 876935" transform="translate(5.589 0.109)">
        <path id="Trazado_238134" data-name="Trazado 238134" d="M775.969,308.712a3.7,3.7,0,0,1,0,6.617,3.309,3.309,0,0,0,0-6.617Z" transform="translate(-769.471 -308.712)" fill="#ccbe8c"/>
        <path id="Trazado_238135" data-name="Trazado 238135" d="M770.538,311.848a1.724,1.724,0,0,0-1.75,1.7,1.928,1.928,0,0,1,3.448.052A1.725,1.725,0,0,0,770.538,311.848Z" transform="translate(-768.789 -309.01)" fill="#ccbe8c"/>
      </g>
    </g>
    <g id="Grupo_876939" data-name="Grupo 876939" transform="translate(742.626 264.515)">
      <path id="Trazado_238136" data-name="Trazado 238136" d="M764.323,287.13a6.812,6.812,0,1,0-13.549.958,8.647,8.647,0,1,0,13.474,0A6.84,6.84,0,0,0,764.323,287.13Z" transform="translate(-748.863 -280.318)" fill="#cab3ed"/>
      <g id="Grupo_876938" data-name="Grupo 876938" transform="translate(4.098 6.694)">
        <g id="Grupo_876937" data-name="Grupo 876937" transform="translate(4.521)">
          <path id="Trazado_238137" data-name="Trazado 238137" d="M758.76,287.805l-.374,25.481a.374.374,0,0,0,.374.374h.049a.374.374,0,0,0,.374-.374s-.167-25.481-.374-25.481C758.809,287.805,758.76,287.6,758.76,287.805Z" transform="translate(-758.386 -287.714)" fill="#6826cc"/>
        </g>
        <path id="Trazado_238138" data-name="Trazado 238138" d="M755.639,296.922a11.5,11.5,0,0,1-2.248-2.276c2.537,4.156,4.869,4.035,4.869,4.035l.05-.586S757.809,298.484,755.639,296.922Z" transform="translate(-753.391 -288.372)" fill="#6826cc"/>
        <path id="Trazado_238139" data-name="Trazado 238139" d="M761.1,295.336c-1.844,1.328-2.27,1-2.27,1l.042.5s1.982.1,4.139-3.428A9.815,9.815,0,0,1,761.1,295.336Z" transform="translate(-753.907 -288.254)" fill="#6826cc"/>
        <path id="Trazado_238140" data-name="Trazado 238140" d="M756.639,292.241a7.9,7.9,0,0,1-1.542-1.561c1.741,2.851,3.341,2.768,3.341,2.768l.034-.4S758.128,293.313,756.639,292.241Z" transform="translate(-753.553 -287.995)" fill="#6826cc"/>
      </g>
    </g>
    <path id="Trazado_238141" data-name="Trazado 238141" d="M995.628,204.768a5.107,5.107,0,1,0,5.107,5.107A5.107,5.107,0,0,0,995.628,204.768Z" transform="translate(-29.177 -8.631)" fill="#81859d"/>
    <path id="Trazado_238142" data-name="Trazado 238142" d="M947.616,204.219a3.248,3.248,0,1,0,3.248,3.247A3.248,3.248,0,0,0,947.616,204.219Z" transform="translate(-24.796 -8.579)" fill="#81859d"/>
    <path id="Trazado_238143" data-name="Trazado 238143" d="M955.565,190.663a6.279,6.279,0,1,0,6.278,6.279A6.279,6.279,0,0,0,955.565,190.663Z" transform="translate(-25.263 -7.292)" fill="#a2a7c5"/>
    <path id="Trazado_238144" data-name="Trazado 238144" d="M987.422,216.721a2.148,2.148,0,1,0,2.167,2.13A2.148,2.148,0,0,0,987.422,216.721Z" transform="translate(-28.681 -9.766)" fill="#a2a7c5"/>
    <g id="Grupo_876942" data-name="Grupo 876942" transform="translate(995.158 176.599)">
      <g id="Grupo_876941" data-name="Grupo 876941" transform="translate(0 0)">
        <path id="Trazado_238145" data-name="Trazado 238145" d="M1066.35,194.955l-.436.009a6.715,6.715,0,0,0-8.264-6.412,7.862,7.862,0,0,0-15.185,1.359,6.088,6.088,0,0,0-6.833,6.039,11.3,11.3,0,0,0-7.745,8.208l47.876-.891C1074.435,198.441,1071.571,194.856,1066.35,194.955Z" transform="translate(-1027.882 -183.191)" fill="#81859d"/>
        <g id="Grupo_876940" data-name="Grupo 876940">
          <path id="Trazado_238146" data-name="Trazado 238146" d="M1066.408,194.962l-.436.005a6.716,6.716,0,0,0-8.22-6.469,7.862,7.862,0,0,0-15.194,1.254,6.09,6.09,0,0,0-6.874,5.992,11.3,11.3,0,0,0-7.8,8.154l48.287-.561C1074.874,198.5,1071.63,194.9,1066.408,194.962Z" transform="translate(-1027.882 -183.181)" fill="#81859d"/>
        </g>
      </g>
      <path id="Trazado_238147" data-name="Trazado 238147" d="M1043.248,190.347s4.189,1.36,3.979,5.265a5.634,5.634,0,0,1-3.979,5.265,5.265,5.265,0,1,0,0-10.53Z" transform="translate(-1029.34 -183.862)" fill="#a2a7c5"/>
      <path id="Trazado_238148" data-name="Trazado 238148" d="M1071.158,196.159a7.771,7.771,0,0,0-7.886,7.654s2.083-6.531,7.842-6.135a8.528,8.528,0,0,1,7.7,6.367A7.772,7.772,0,0,0,1071.158,196.159Z" transform="translate(-1031.241 -184.413)" fill="#a2a7c5"/>
    </g>
    <path id="Trazado_238149" data-name="Trazado 238149" d="M774.678,158.365a3.872,3.872,0,1,0,3.873,3.873A3.872,3.872,0,0,0,774.678,158.365Z" transform="translate(-8.32 -4.226)" fill="#fce1ed"/>
    <path id="Trazado_238150" data-name="Trazado 238150" d="M751.666,170.077a1.44,1.44,0,1,0,1.44,1.44A1.44,1.44,0,0,0,751.666,170.077Z" transform="translate(-6.367 -5.338)" fill="#fce1ed"/>
    <path id="Trazado_238151" data-name="Trazado 238151" d="M834.374,217.817a1.827,1.827,0,1,0,1.826,1.827A1.827,1.827,0,0,0,834.374,217.817Z" transform="translate(-14.181 -9.87)" fill="#fce1ed"/>
    <circle id="Elipse_7401" data-name="Elipse 7401" cx="9.269" cy="9.269" r="9.269" transform="translate(780.443 228.618) rotate(-45)" fill="#ffeeb0"/>
    <path id="Trazado_238152" data-name="Trazado 238152" d="M804.509,230.414a9.269,9.269,0,0,0,0,18.539s-5.029-4.635-5.029-9.269S804.509,230.414,804.509,230.414Z" transform="translate(-10.64 -11.066)" fill="#fff9e3"/>
    <path id="Trazado_238153" data-name="Trazado 238153" d="M973.545,174.336H962.854a5.914,5.914,0,1,0,0,11.828h10.692a5.914,5.914,0,0,0,0-11.828Z" transform="translate(-25.989 -5.742)" fill="#81859d"/>
    <path id="Trazado_238155" data-name="Trazado 238155" d="M910.026,191.066h-5.169v11.828h5.169a5.931,5.931,0,0,0,5.914-5.914h0A5.932,5.932,0,0,0,910.026,191.066Z" transform="translate(-21.045 -7.33)" fill="#a2a7c5"/>
    <path id="Trazado_238156" data-name="Trazado 238156" d="M1002.828,152.231H985.72a9.463,9.463,0,0,0,0,18.927h17.108a9.463,9.463,0,1,0,0-18.927Z" transform="translate(-27.823 -3.644)" fill="#a2a7c5"/>
    <g id="Grupo_876944" data-name="Grupo 876944" transform="translate(963.294 161.036)">
      <path id="Trazado_238157" data-name="Trazado 238157" d="M1028.995,165.986H998.706a6.03,6.03,0,0,0,0,12.06h30.289a6.03,6.03,0,1,0,0-12.06Z" transform="translate(-992.676 -165.986)" fill="#81859d"/>
    </g>
    <g id="Grupo_876945" data-name="Grupo 876945" transform="translate(820.778 364.497)">
      <path id="Trazado_238158" data-name="Trazado 238158" d="M852.956,390.786h-14.8a2.946,2.946,0,1,0,0,5.892h14.8a2.946,2.946,0,1,0,0-5.892Z" transform="translate(-835.212 -390.786)" fill="#ccbe8c"/>
    </g>
    <g id="Grupo_876946" data-name="Grupo 876946" transform="translate(774.561 347.621)">
      <path id="Trazado_238159" data-name="Trazado 238159" d="M837.139,372.14h-45.7c-5,0-7.289,1.947-7.289,4.327s2.284,4.327,7.289,4.327h45.7c5,0,7.289-1.948,7.289-4.327S842.143,372.14,837.139,372.14Z" transform="translate(-784.148 -372.14)" fill="#ccbe8c"/>
    </g>
    <g id="Grupo_876947" data-name="Grupo 876947" transform="translate(955.842 337.375)">
      <path id="Trazado_238160" data-name="Trazado 238160" d="M1005.512,360.82H987.94a3.5,3.5,0,0,0,0,7h17.572a3.5,3.5,0,1,0,0-7Z" transform="translate(-984.442 -360.82)" fill="#81859d"/>
    </g>
    <g id="Grupo_876948" data-name="Grupo 876948" transform="translate(931.619 341.787)">
      <path id="Trazado_238161" data-name="Trazado 238161" d="M992.073,365.694H963.389a5.711,5.711,0,1,0,0,11.422h28.685a5.711,5.711,0,0,0,0-11.422Z" transform="translate(-957.678 -365.694)" fill="#81859d"/>
    </g>
    <g id="Grupo_876961" data-name="Grupo 876961" transform="translate(683.159 297.033)">
      <g id="Grupo_876959" data-name="Grupo 876959">
        <g id="Grupo_876956" data-name="Grupo 876956" transform="translate(15.646)">
          <path id="Trazado_238165" data-name="Trazado 238165" d="M1062.171,316.246H708.917c-11.787,0-10.793,11.595,0,11.595h353.254C1071.971,327.841,1070.977,316.246,1062.171,316.246Z" transform="translate(-700.446 -316.246)" fill="#6826cc"/>
        </g>
        <g id="Grupo_876957" data-name="Grupo 876957" transform="translate(44.073 23.097)">
          <path id="Trazado_238166" data-name="Trazado 238166" d="M1040.056,341.851a6.657,6.657,0,0,0-1.031-.086H739.169c-9.418.1-10.081,9.787,0,9.787h300.373C1045.093,351.552,1044.925,342.615,1040.056,341.851Z" transform="translate(-731.855 -341.765)" fill="#616476"/>
        </g>
        <g id="Grupo_876958" data-name="Grupo 876958" transform="translate(0 11.595)">
          <path id="Trazado_238167" data-name="Trazado 238167" d="M1078.188,329.167a7.967,7.967,0,0,0-1.219-.11H691.874c-11.455,0-11.785,11.6,0,11.6h385.708C1084.721,340.655,1085.1,330.246,1078.188,329.167Z" transform="translate(-683.159 -329.057)" fill="#ea3584"/>
        </g>
      </g>
      <g id="Grupo_876960" data-name="Grupo 876960" transform="translate(200)">
        <path id="Trazado_238168" data-name="Trazado 238168" d="M1081.507,316.246H904.135v11.595h177.372C1091.307,327.841,1090.313,316.246,1081.507,316.246Z" transform="translate(-904.135 -316.246)" fill="#a2a7c5"/>
        <path id="Trazado_238169" data-name="Trazado 238169" d="M1056.46,341.871H904.135v9.691H1055.9C1061.428,351.562,1061.279,342.691,1056.46,341.871Z" transform="translate(-904.135 -318.678)" fill="#616476"/>
        <path id="Trazado_238170" data-name="Trazado 238170" d="M1099.165,329.167a7.965,7.965,0,0,0-1.219-.11H904.135v11.5h151.244a6.672,6.672,0,0,1,1.031.086l.051.01h42.1C1105.7,340.655,1106.072,330.246,1099.165,329.167Z" transform="translate(-904.135 -317.462)" fill="#81859d"/>
        <path id="Trazado_238171" data-name="Trazado 238171" d="M1055.379,341.765H904.135v.1H1056.46l-.051-.01A6.658,6.658,0,0,0,1055.379,341.765Z" transform="translate(-904.135 -318.668)" fill="#ab6e37"/>
      </g>
    </g>
    <g id="Grupo_876963" data-name="Grupo 876963" transform="translate(944.74 217.175)">
      <path id="Trazado_238172" data-name="Trazado 238172" d="M975.79,228.013l-3.614,80.521,13.377.158-1.708-80.584Z" transform="translate(-972.176 -228.013)" fill="#81859d"/>
      <path id="Trazado_238173" data-name="Trazado 238173" d="M972.176,308.534l6.689.079.953-80.553-4.028-.048Z" transform="translate(-972.176 -228.013)" fill="#616476"/>
      <g id="Grupo_876962" data-name="Grupo 876962" transform="translate(1.986 19.427)">
        <path id="Trazado_238174" data-name="Trazado 238174" d="M979.859,249.532l-4.618-.055-.21,4.675,4.773.056,4.773.057-.1-4.678Z" transform="translate(-974.433 -249.477)" fill="#f1f2f7"/>
        <path id="Trazado_238175" data-name="Trazado 238175" d="M979.667,261.613l-4.99-.059-.307,6.835,5.216.062,5.215.062-.145-6.84Z" transform="translate(-974.37 -250.624)" fill="#f1f2f7"/>
      </g>
    </g>
  </g>
</svg>
