<svg xmlns="http://www.w3.org/2000/svg" width="399.999" height="323.835" viewBox="0 0 399.999 323.835">
  <g id="Grupo_877024" data-name="Grupo 877024" transform="translate(-725.26 -93.936)">
    <ellipse id="Elipse_7402" data-name="Elipse 7402" cx="200" cy="22.303" rx="200" ry="22.303" transform="translate(725.26 339.071)" fill="#e8e8e8"/>
    <g id="Grupo_876967" data-name="Grupo 876967" transform="translate(1025.313 141.392)">
      <path id="Trazado_238176" data-name="Trazado 238176" d="M1039.613,224.977s9.242-55.21,53.54-68.547c-27.408,13.434-42.976,38.723-50.034,70.163A34.829,34.829,0,0,0,1039.613,224.977Z" transform="translate(-1037.626 -143.84)" fill="#ccbe8c"/>
      <path id="Trazado_238177" data-name="Trazado 238177" d="M1081.074,163.424s1.435-18.165,26.452-11.154C1093.821,168.842,1081.074,163.424,1081.074,163.424Z" transform="translate(-1039.251 -143.614)" fill="#ccbe8c"/>
      <path id="Trazado_238178" data-name="Trazado 238178" d="M1068.746,174.22s9.811-15.355,28.589,2.6C1077.446,185,1068.746,174.22,1068.746,174.22Z" transform="translate(-1038.768 -144.298)" fill="#ccbe8c"/>
      <path id="Trazado_238179" data-name="Trazado 238179" d="M1068.581,171.731s14.794-10.638-4.164-28.4C1057.342,163.634,1068.581,171.731,1068.581,171.731Z" transform="translate(-1038.506 -143.327)" fill="#ccbe8c"/>
      <path id="Trazado_238180" data-name="Trazado 238180" d="M1055.908,191.574s7.94-16.4,28.7-.775C1065.815,201.256,1055.908,191.574,1055.908,191.574Z" transform="translate(-1038.265 -144.922)" fill="#ccbe8c"/>
      <path id="Trazado_238181" data-name="Trazado 238181" d="M1055.474,189.17s13.442-12.3-7.472-27.718C1043.362,182.45,1055.474,189.17,1055.474,189.17Z" transform="translate(-1037.914 -144.037)" fill="#ccbe8c"/>
      <path id="Trazado_238182" data-name="Trazado 238182" d="M1046.511,210.488s7.939-16.4,28.7-.776C1056.417,220.169,1046.511,210.488,1046.511,210.488Z" transform="translate(-1037.897 -145.663)" fill="#ccbe8c"/>
      <path id="Trazado_238183" data-name="Trazado 238183" d="M1046.076,208.083s13.442-12.3-7.471-27.718C1033.964,201.363,1046.076,208.083,1046.076,208.083Z" transform="translate(-1037.546 -144.778)" fill="#ccbe8c"/>
    </g>
    <g id="Grupo_876972" data-name="Grupo 876972" transform="translate(974.892 212.298)">
      <path id="Trazado_238184" data-name="Trazado 238184" d="M1044.8,324.756s-31.255,4.923-47.661-14.044,5.978-28.192,19.545-16.446c-22.522-30.779-8.254-54.617,4.336-51.93s12.03,23.949,12.03,23.949c7.834-48.68,23.2-52.5,33.564-47.514s1.127,29.813,1.127,29.813c30.774-41.888,40.287-32.534,45.6-20.285s-24.619,39.393-31.334,41.908c29.1-7.837,31.334,5.407,19.584,17.528s-36.37,13.159-36.37,13.159c28.817,2.321,28.817,12.113,17.905,18.268S1044.8,324.756,1044.8,324.756Z" transform="translate(-985.316 -217.123)" fill="#cab3ed"/>
      <path id="Trazado_238185" data-name="Trazado 238185" d="M1053.9,238.962a115.275,115.275,0,0,0-6.139-15.036c-5.7,6.811-11.037,19.777-14.714,42.625,0,0,.559-21.262-12.03-23.949s-26.858,21.151-4.336,51.93c-13.567-11.746-35.95-2.522-19.545,16.446s47.661,14.044,47.661,14.044,1.177.023,3.12.007A114.108,114.108,0,0,0,1053.9,238.962Z" transform="translate(-985.316 -217.39)" fill="#6826cc"/>
      <g id="Grupo_876971" data-name="Grupo 876971" transform="translate(0 5.024)">
        <g id="Grupo_876968" data-name="Grupo 876968" transform="translate(0 5.953)">
          <path id="Trazado_238186" data-name="Trazado 238186" d="M985.794,316.026a.725.725,0,0,1-.2-1.422c71.507-20.667,116.659-85.095,117.107-85.744a.725.725,0,1,1,1.193.824c-.112.163-11.5,16.543-31.629,35.264-18.58,17.283-48.63,40.169-86.269,51.048A.7.7,0,0,1,985.794,316.026Z" transform="translate(-985.069 -228.547)" fill="#fff"/>
        </g>
        <g id="Grupo_876969" data-name="Grupo 876969" transform="translate(64.078)">
          <path id="Trazado_238187" data-name="Trazado 238187" d="M1066.215,286.9a40.431,40.431,0,0,1-13.926-2.291l-.529-.193.337-.452c17.276-23.157,10.94-60.742,10.875-61.118a.419.419,0,0,1,.826-.144c.067.378,6.379,37.831-10.692,61.307,21.081,7.318,47.855-7.217,48.125-7.365a.419.419,0,0,1,.406.734C1101.418,277.5,1084.1,286.9,1066.215,286.9Z" transform="translate(-1051.759 -222.352)" fill="#fff"/>
        </g>
        <g id="Grupo_876970" data-name="Grupo 876970" transform="translate(31.961 79.78)">
          <path id="Trazado_238188" data-name="Trazado 238188" d="M1069.927,316.521a138.718,138.718,0,0,1-51.33-10.327.42.42,0,1,1,.313-.779c35.88,14.418,63.515,9.457,63.789,9.406a.419.419,0,0,1,.156.824A79.319,79.319,0,0,1,1069.927,316.521Z" transform="translate(-1018.333 -305.385)" fill="#fff"/>
        </g>
      </g>
    </g>
    <g id="Grupo_876973" data-name="Grupo 876973" transform="translate(788.802 105.704)">
      <path id="Trazado_238189" data-name="Trazado 238189" d="M849.388,189.906S846.568,134,804.1,115.649c25.677,16.5,38.23,43.416,41.619,75.459A34.92,34.92,0,0,1,849.388,189.906Z" transform="translate(-791.89 -106.555)" fill="#ccbe8c"/>
      <path id="Trazado_238190" data-name="Trazado 238190" d="M816.383,124.156s.668-18.211-24.991-14.127C803.1,128.068,816.383,124.156,816.383,124.156Z" transform="translate(-791.392 -106.311)" fill="#ccbe8c"/>
      <path id="Trazado_238191" data-name="Trazado 238191" d="M827.265,136.325s-7.977-16.383-28.7-.71C817.381,146.029,827.265,136.325,827.265,136.325Z" transform="translate(-791.673 -107.071)" fill="#ccbe8c"/>
      <path id="Trazado_238192" data-name="Trazado 238192" d="M828.344,133.918s-13.47-12.272,7.409-27.734C840.441,127.17,828.344,133.918,828.344,133.918Z" transform="translate(-792.672 -106.184)" fill="#ccbe8c"/>
      <path id="Trazado_238193" data-name="Trazado 238193" d="M838.024,155.038s-6-17.208-28.417-4.077C827.067,163.514,838.024,155.038,838.024,155.038Z" transform="translate(-792.106 -107.744)" fill="#ccbe8c"/>
      <path id="Trazado_238194" data-name="Trazado 238194" d="M839.321,152.758s-11.936-13.769,10.615-26.673C852.126,147.477,839.321,152.758,839.321,152.758Z" transform="translate(-793.146 -106.964)" fill="#ccbe8c"/>
      <path id="Trazado_238195" data-name="Trazado 238195" d="M845.18,174.908s-6-17.208-28.417-4.077C834.224,183.384,845.18,174.908,845.18,174.908Z" transform="translate(-792.386 -108.523)" fill="#ccbe8c"/>
      <path id="Trazado_238196" data-name="Trazado 238196" d="M846.478,172.628s-11.936-13.77,10.614-26.674C859.283,167.347,846.478,172.628,846.478,172.628Z" transform="translate(-793.426 -107.742)" fill="#ccbe8c"/>
    </g>
    <g id="Grupo_876978" data-name="Grupo 876978" transform="translate(745.769 156.086)">
      <path id="Trazado_238197" data-name="Trazado 238197" d="M772.956,263.183s16.284,21.3,37.441,19.27,12.827-20.783-2.364-21.518c31.815-5.7,37.012-28.661,27.721-34.378s-21.387,7.646-21.387,7.646c23.675-34.43,19.128-54.267,7.143-50.477-9.292,2.938-18.058,19.329-18.058,19.329,5.635-43.688-6.27-48.7-15.391-42-15.268,11.212-8.654,41.443-6.008,46.912C768.8,186.141,748.328,184,746.766,198.223,744.154,222,774.394,236.6,774.394,236.6c-19.027-15.435-24.756-9.431-21.666.726S772.956,263.183,772.956,263.183Z" transform="translate(-746.606 -158.62)" fill="#cab3ed"/>
      <g id="Grupo_876977" data-name="Grupo 876977" transform="translate(10.951 10.763)">
        <g id="Grupo_876974" data-name="Grupo 876974" transform="translate(33.251)">
          <path id="Trazado_238198" data-name="Trazado 238198" d="M816.157,292.37a.615.615,0,0,0,.955-.754c-31.755-54.505-21.749-120.424-21.645-121.083a.615.615,0,0,0-1.215-.193,206.6,206.6,0,0,0-1.237,40.126c1.282,21.467,6.318,53.078,23.033,81.769A.615.615,0,0,0,816.157,292.37Z" transform="translate(-792.609 -169.822)" fill="#fff"/>
        </g>
        <g id="Grupo_876975" data-name="Grupo 876975" transform="translate(9.822 21.299)">
          <path id="Trazado_238199" data-name="Trazado 238199" d="M784.391,230.009a34.271,34.271,0,0,0,9.879,6.743l.437.19.058-.474c2.954-24.306,28.825-43.645,29.086-43.838a.356.356,0,1,0-.423-.572c-.261.193-26.042,19.464-29.309,43.847-17.206-7.845-25.121-32.42-25.2-32.669a.355.355,0,1,0-.677.213C768.3,203.651,773.426,219.549,784.391,230.009Z" transform="translate(-768.226 -191.99)" fill="#fff"/>
        </g>
        <g id="Grupo_876976" data-name="Grupo 876976" transform="translate(0 63.887)">
          <path id="Trazado_238200" data-name="Trazado 238200" d="M765.484,244.977A117.564,117.564,0,0,0,803,268.673a.355.355,0,1,0,.263-.66c-30.435-12.151-44.477-31.36-44.615-31.551a.356.356,0,0,0-.578.414A67.237,67.237,0,0,0,765.484,244.977Z" transform="translate(-758.003 -236.314)" fill="#fff"/>
        </g>
      </g>
    </g>
    <g id="Grupo_876991" data-name="Grupo 876991" transform="translate(763.343 93.935)">
      <g id="Grupo_876990" data-name="Grupo 876990" transform="translate(0)">
        <g id="Grupo_876988" data-name="Grupo 876988" transform="translate(0)">
          <circle id="Elipse_7403" data-name="Elipse 7403" cx="114.493" cy="114.493" r="114.493" transform="translate(0 161.918) rotate(-45)" fill="#dee0eb"/>
          <g id="Grupo_876987" data-name="Grupo 876987" transform="translate(47.405 47.142)">
            <g id="Grupo_876986" data-name="Grupo 876986">
              <g id="Grupo_876979" data-name="Grupo 876979" transform="translate(64.92)">
                <path id="Trazado_238201" data-name="Trazado 238201" d="M920.881,143.744c-8.233-2.032-10.081.58-13.454,2.051-4.653,2.03-15.817,14.869-21.078,21.935-4.049,5.437,4.333.943-.571,5.623a2.1,2.1,0,0,0-.857,1.471c.034.851,1.12,1.317,1.937,1.073a4.9,4.9,0,0,0,1.992-1.55,21.232,21.232,0,0,1,13.029-6.492c1.53-.167,3.431.047,4.046,1.458.947,2.172-2,3.788-3.893,5.211-2.893,2.172-3.954,5.963-6,8.949-1.709,2.5-4.117,4.433-6.018,6.79s-3.315,5.456-2.5,8.372c.459,1.643,1.6,3.326.947,4.905a5.912,5.912,0,0,1-1.984,2.084,12.958,12.958,0,0,0-4.554,11.688,6.357,6.357,0,0,0,6.4-5.289,33.164,33.164,0,0,0,8.69-1.038,16.089,16.089,0,0,1-1.567-6.317,32.337,32.337,0,0,1,9.354-.274,4.491,4.491,0,0,1,2.18-5.642c-.966-1.905-1.959-3.967-1.653-6.081s2.563-4.055,4.52-3.2a4.382,4.382,0,0,1,1.474,1.192,13.6,13.6,0,0,1-.353,17.7,14.625,14.625,0,0,0,10.631-6.886,30.777,30.777,0,0,1,20.057,7.579,13.358,13.358,0,0,0,3.224,2.41,15.686,15.686,0,0,0,3.51.821c7.036,1.327,12.557,6.615,17.634,11.664,1.153-2.4-.841-5.112-2.921-6.773s-4.605-3.363-4.915-6.007c1.417-1.253,3.761-.679,5.116.64s2.028,3.165,2.875,4.856a23.256,23.256,0,0,0,8.048,9.021,3.326,3.326,0,0,0,1.841.7,3.613,3.613,0,0,0,2.42-1.667c3.126-3.833,6.371-7.934,7.048-12.833A13.655,13.655,0,0,0,984.4,204.3c-3.572,1.534-7.308,3.1-11.191,2.881s-7.928-2.816-8.425-6.673a32.7,32.7,0,0,0,9.087-1.741,11.03,11.03,0,0,0,6.539-6.19,4.356,4.356,0,0,1,.881-1.811,4.041,4.041,0,0,1,2.6-.7,12.369,12.369,0,0,0,7.965-3.718,15.837,15.837,0,0,1,.009,9.592c-.519,1.622-1.314,3.267-1.029,4.946.45,2.646,3.383,4.134,6.053,4.4s5.412-.25,8.029.348,5.192,2.953,4.643,5.58c-2.47.132-4.869-.725-7.244-1.412s-4.946-1.2-7.29-.416-4.259,3.331-3.527,5.694c.9,2.893,4.986,3.94,5.666,6.892a25.6,25.6,0,0,1,11.006-4,24.374,24.374,0,0,0,5.594-.886c1.778-.65,3.422-2.13,3.564-4.018.218-2.929-3.02-4.927-3.873-7.737-2.5-8.24,9.212-7.352,13.793-10.215A114.671,114.671,0,0,0,920.881,143.744Z" transform="translate(-881.8 -142.999)" fill="#81859d"/>
              </g>
              <g id="Grupo_876980" data-name="Grupo 876980" transform="translate(152.979 69.801)">
                <path id="Trazado_238202" data-name="Trazado 238202" d="M1018.285,228.978a13.5,13.5,0,0,1-7.54,5.3,5.074,5.074,0,0,1-2.942.076c-1.63-.565-2.879-2.475-4.572-2.142-1.811.356-2.3,3-4.052,3.594-1.208.409-2.464-.327-3.7-.65-4.852-1.271-9.666,3.923-14.523,2.669a15.114,15.114,0,0,1-2.672-1.132c-3.575-1.7-4.479-2.183-4.839-.779-.009,1.143.726,1.984,2.525,3.742,2.351,2.3,1.859,4.764,4.6,6.581,1.963,1.3,3.389,2.661,6.71,3.612a8.558,8.558,0,0,1,2.479.841,8.722,8.722,0,0,1,1.755,2.006c3.195,4,9.173,3.864,14.294,3.828a85.335,85.335,0,0,1,15.141,1.245c3.322.576,6.769,1.342,10.01.415,5.135-1.469,8.147-6.635,10.634-11.363a8.477,8.477,0,0,0,1.3-3.941c-.041-2.893-1.664-5.51-1.682-8.544-.014-2.353.093-4.672-.135-7.021-.325-3.347-.922-7.887-3.635-10.249-3.337-2.906-6.565-.816-9.316,1.5-1.991,1.68-4.487,2.333-6.213,4.383C1020.4,224.745,1019.614,227.062,1018.285,228.978Z" transform="translate(-973.448 -215.645)" fill="#81859d"/>
              </g>
              <g id="Grupo_876981" data-name="Grupo 876981" transform="translate(179.761 115.27)">
                <path id="Trazado_238203" data-name="Trazado 238203" d="M1007.652,264.011a28.772,28.772,0,0,1-6.329-1.043c-.015.751.7,1.282,1.344,1.676l10.18,6.266a17.513,17.513,0,0,0,6.193,2.776c4.065.656,9.865-4.5,4.145-6.116-2.219-.625-4.735.059-7-.583C1013.007,266.083,1011.144,264.191,1007.652,264.011Z" transform="translate(-1001.323 -262.968)" fill="#81859d"/>
              </g>
              <g id="Grupo_876982" data-name="Grupo 876982" transform="translate(0 45.919)">
                <path id="Trazado_238204" data-name="Trazado 238204" d="M877.027,271.854c2.246-1.809,1.651-5.319.845-8.088l-4.828-16.593a2.525,2.525,0,0,1-.058-1.835c.4-.778,1.433-.91,2.2-1.337,2-1.12,1.863-4.064,1.037-6.2s-2.09-4.378-1.441-6.577c.949-3.214,5.581-4.67,5.661-8.02.086-3.6-4.905-4.832-6.905-7.827-1.428-2.139-1.155-4.943-.826-7.493q.143-1.12.287-2.238a24.176,24.176,0,0,0,.1-8.327c-.608-2.724-2.38-5.36-5.039-6.209-2.017-.643-4.2-.188-6.267.27-3.869.859-8.042,1.9-10.536,4.98a13.159,13.159,0,0,0-2.484,6.242c-.29,1.793-.456,3.774-1.738,5.062-1.357,1.363-3.478,1.469-5.354,1.9s-3.961,1.717-3.844,3.637a16.427,16.427,0,0,1,.321,1.992,4.654,4.654,0,0,1-1.289,2.339,10.039,10.039,0,0,0-.486,11.2c.877,1.378,2.134,2.617,2.37,4.233a5.745,5.745,0,0,1-.367,2.657c-1.608,4.71-5.695,8.106-9.821,10.89s-8.583,5.309-11.651,9.229a16.985,16.985,0,0,0-2.68,5.138q.033,3.027.225,6.066c2.328-1.527,3.462-5.011,5.937-6.847a6.986,6.986,0,0,1,3.46-1.622,6.745,6.745,0,0,1,3.774,1.164c3.136,1.8,6.649,4.252,10.024,2.955a3.962,3.962,0,0,1,2.093-.54c.928.184,1.414,1.19,2.156,1.779,2.784,2.206,7.492-2.151,10.185.167a6.45,6.45,0,0,1,1.48,2.739,14.567,14.567,0,0,0,4.745,6.317c1.349,1.026,3.154,1.828,4.7,1.14a19.77,19.77,0,0,0,2.08-1.454C868.606,270.6,873.827,274.43,877.027,271.854Z" transform="translate(-814.233 -190.789)" fill="#81859d"/>
              </g>
              <g id="Grupo_876983" data-name="Grupo 876983" transform="translate(41.764 134.986)">
                <path id="Trazado_238205" data-name="Trazado 238205" d="M956.859,327.748c-.751.031-1.532.5-2.21.174-1.136-.551-.386-2.337.664-3.037s2.469-1.412,2.405-2.674c-.041-.811-.749-1.508-.673-2.317.119-1.264,1.922-1.644,2.432-2.806.389-.888-.1-1.884-.388-2.808-.992-3.139.321-6.471,1.043-9.682s.5-7.247-2.335-8.913c-.458-.269-.96-.456-1.427-.71a13.5,13.5,0,0,1-2.523-2.01,71.868,71.868,0,0,0-9.66-7,14,14,0,0,0-5.2-2.408c-1.9-.3-4.1.366-5,2.068a13.507,13.507,0,0,1-1.18,2.64,4.07,4.07,0,0,1-1.916,1.091,16.98,16.98,0,0,1-10.813-.172,6.547,6.547,0,0,0-3.012-.655,3.612,3.612,0,0,0-2.775,2.825,8.531,8.531,0,0,0,.282,4.154,28.9,28.9,0,0,0,6.162,11.616c1.86,2.129,4.194,4.39,3.977,7.208-.128,1.654-1.16,3.182-1.046,4.837.084,1.226.765,2.58.059,3.586a3.106,3.106,0,0,1-1.5.957l-12.474,4.858a56.624,56.624,0,0,1-10.038,3.206,45.065,45.065,0,0,1-10.883.432c-10.979-.631-22.213-3.056-31.132-9.489,1.077,6.19,3.058,13.135,8.7,15.9,1.145.561,2.392.915,3.477,1.583a14.812,14.812,0,0,1,2.9,2.623,93.725,93.725,0,0,0,11.565,10.43,11.825,11.825,0,0,0,2.743,1.7c.921.364,1.912.506,2.862.786,3.607,1.065,6.3,3.985,9.121,6.466s6.427,4.733,10.116,4c2.2-.436,4.141-1.9,6.378-2.085,3.873-.316,7.408,3.275,11.221,2.527a41.105,41.105,0,0,0,3.916-1.492c2.828-.863,6.076.12,8.725-1.19,2.552-1.263,4.055-4.444,6.867-4.883,3.167-.495,5.559,2.739,8.509,3.993,3.565,1.515,7.624.006,11.195-1.5-1.82-2.145-5.207-2.192-7.309-4.061-3.173-2.821-2.27-8.62-5.678-11.152-.369-.274-.806-.535-.935-.977-.243-.836.731-1.452,1.451-1.941,1.6-1.092,2.3-2.809,3.355-4.346,1.224-1.785,2.874-2.779,4.194-4.373C963.188,332.168,960.437,327.6,956.859,327.748Z" transform="translate(-857.7 -283.488)" fill="#81859d"/>
              </g>
              <g id="Grupo_876985" data-name="Grupo 876985" transform="translate(129.123 114.397)">
                <g id="Grupo_876984" data-name="Grupo 876984">
                  <path id="Trazado_238206" data-name="Trazado 238206" d="M1042.361,299.438a8.122,8.122,0,0,0-1.317-1.3c-1.777-1.408-3.966-.581-5.308-1.7-1.3-1.089-1.111-4.4-1.835-5.923a10.767,10.767,0,0,0-4.916-5.013,21.28,21.28,0,0,0-6.183-1.6l-2.761-.427c-3.621-.56-7.478-1.091-10.83.392.238,3.521,2.321,6.611,4.335,9.509a3.833,3.833,0,0,0,1.411,1.414c1.141.525,2.436-.161,3.678-.344s2.9.889,2.275,1.978a65.106,65.106,0,0,0-10.279,5.076c-.623-2.931-2.115-6.583-5.108-6.443-1.267.059-2.563.858-3.729.358-1.316-.564-1.5-2.326-2.3-3.513-2.206-3.268-8.18-1.287-10.6-4.4a1.233,1.233,0,0,1-.325-.959,1.373,1.373,0,0,1,.284-.534c4.343-5.761,12.6-6.4,19.813-6.536.714-.963.063-2.413-.947-3.058a12.769,12.769,0,0,0-3.4-1.107,9.173,9.173,0,0,1-5.265-4.115,16.11,16.11,0,0,1-5.179,6.68,2.95,2.95,0,0,1-1.508.7c-2.312.158-2.364-3.85-4.431-4.9a9.2,9.2,0,0,1-5.505-3.382,3.115,3.115,0,0,1-2.069,3.318,15.686,15.686,0,0,0-1.893.466c-1.926.89-1.56,3.7-.882,5.711-.808.788-2.14-.178-2.63-1.194-1.74-3.613-.417-8.555-3.271-11.37a10.156,10.156,0,0,0-3.024-1.83l-5.123-2.331c-1.535-.7-3.305-1.4-4.85-.726a6.1,6.1,0,0,0-2.6,3.071L949.2,278.8a3.06,3.06,0,0,0-.486,2.317c.572,1.641,2.952,1.127,4.679.944,5.732-.609,9.871,5.979,15.582,6.766,1.4.194,3.18.223,3.75,1.522.713,1.624-1.325,3.2-1.387,4.977-.057,1.6,1.512,3.085.987,4.594-.3.853-1.214,1.428-1.35,2.321a4.257,4.257,0,0,0,.491,1.956c1.488,4.3-3.613,8.148-4.053,12.68-.262,2.7,1.209,5.3,3.055,7.3s4.1,3.584,5.935,5.584A2.966,2.966,0,0,1,977.4,331.8c-.08,1.371-1.813,2.131-2.068,3.481-.187.992.485,1.935.614,2.936a2.911,2.911,0,0,1-3.859,2.878c-3.079-1.364-2.29-7.255-5.6-7.877-1.292,1.173.262,3.147.8,4.808,1.465,4.534-5.541,9.094-3.293,13.3a7.168,7.168,0,0,0,3.37,2.661l5.384,2.693c1.018-4.094,5.935-5.61,10.074-6.426a13.661,13.661,0,0,1-1.554,11.321,24.691,24.691,0,0,1-8.505,8.019c.5.015,1.008.017,1.512.018A114.316,114.316,0,0,0,1042.361,299.438Zm-47.922,48.218c-2.836-3.33-1.986-8.131-2.964-12.095-.687-2.781-2.249-5.54-1.611-8.332.5-2.171,2.273-3.94,2.5-6.156a9.229,9.229,0,0,0-.552-3.513q-1.045-3.558-2.089-7.118c2.746-.156,5.124,2.026,6.4,4.464s1.8,5.2,2.941,7.7a16.8,16.8,0,0,0,4.595,5.97c2.517,2.069,6,4.067,5.84,7.321-.133,2.674-2.6,4.194-4.372,5.814-2.468,2.255-2.115,4.024-3.636,6.488C999.691,351.126,996.317,349.861,994.438,347.657Z" transform="translate(-948.62 -262.06)" fill="#81859d"/>
                </g>
              </g>
            </g>
          </g>
        </g>
        <path id="Trazado_238207" data-name="Trazado 238207" d="M928.746,143.293a90.183,90.183,0,1,1-90.183,90.184,90.184,90.184,0,0,1,90.183-90.184,114.493,114.493,0,1,0,114.493,114.493A114.493,114.493,0,0,0,928.746,143.293Z" transform="translate(-766.828 -95.869)" fill="#a2a7c5" opacity="0.96" style="mix-blend-mode: multiply;isolation: isolate"/>
        <path id="Trazado_238208" data-name="Trazado 238208" d="M894.846,348.922c23.965-21.249,16.863-43.51,6.174-43.6S883.2,329.545,883.2,329.545c2.736-41.561-9.708-46.057-14.464-42.96-8.022,5.226-6.689,15.334-6.689,15.334-9.248-43.9-26.541-37.818-33.127-28.7s7.381,39.406,12.346,42.708c-7.126-3.8-12.167-4.872-15.5-4.183a113.713,113.713,0,0,0,23.474,32.845c2.361.513,4.113.775,4.783.867-1.569-.218-3.035-.384-4.411-.507a115.024,115.024,0,0,0,44.908,26.786,33.687,33.687,0,0,0,13.074-5.682C924.538,353.6,908.016,341.723,894.846,348.922Z" transform="translate(-767.28 -100.703)" fill="#a2a7c5" style="mix-blend-mode: multiply;isolation: isolate"/>
        <g id="Grupo_876989" data-name="Grupo 876989" transform="translate(110.047 157.313)">
          <path id="Trazado_238209" data-name="Trazado 238209" d="M892.743,316.637s12.413-33.821-5.8-53.139c9.784,14.53,10.287,31.564,4.795,49.221C892.448,312.707,892.743,316.637,892.743,316.637Z" transform="translate(-879.722 -257.891)" fill="#ffeeb0"/>
          <path id="Trazado_238210" data-name="Trazado 238210" d="M891.478,270.784s4.488-9.446-9.962-13.122C883.587,269.828,891.478,270.784,891.478,270.784Z" transform="translate(-879.51 -257.662)" fill="#ffeeb0"/>
          <path id="Trazado_238211" data-name="Trazado 238211" d="M894.391,279.772s-.482-10.446-14.963-6.892C886.978,282.641,894.391,279.772,894.391,279.772Z" transform="translate(-879.428 -258.229)" fill="#ffeeb0"/>
          <path id="Trazado_238212" data-name="Trazado 238212" d="M895.38,278.742s-4.311-9.528,10.2-12.935C903.288,277.933,895.38,278.742,895.38,278.742Z" transform="translate(-880.029 -257.981)" fill="#ffeeb0"/>
          <path id="Trazado_238213" data-name="Trazado 238213" d="M895.827,292.06s.748-10.431-14.05-8.6C888.129,294.038,895.827,292.06,895.827,292.06Z" transform="translate(-879.52 -258.664)" fill="#ffeeb0"/>
          <path id="Trazado_238214" data-name="Trazado 238214" d="M897.061,293.84s-3.907-12.315,14.4-14.388C906.88,294,897.061,293.84,897.061,293.84Z" transform="translate(-880.105 -258.516)" fill="#ffeeb0"/>
          <path id="Trazado_238215" data-name="Trazado 238215" d="M893.916,309.612s6.2-12.132-10.847-16.285C884.519,308.678,893.916,309.612,893.916,309.612Z" transform="translate(-879.571 -259.059)" fill="#ffeeb0"/>
          <path id="Trazado_238216" data-name="Trazado 238216" d="M894.41,311.411s-4.066-12.817,14.984-14.976C904.631,311.572,894.41,311.411,894.41,311.411Z" transform="translate(-880.001 -259.181)" fill="#ffeeb0"/>
        </g>
      </g>
    </g>
    <g id="Grupo_877001" data-name="Grupo 877001" transform="translate(927.053 269.979)">
      <g id="Grupo_876992" data-name="Grupo 876992" transform="translate(8.736)">
        <path id="Trazado_238217" data-name="Trazado 238217" d="M960.281,375.116s45.742,4.224,70.082-8.17-4.477-18.128-8.674-17.01c30.215-5.875,37.209-22.1,31.054-26.578s-17.065,0-17.065,0c24.34-14.268,36.649-40.566,27.138-45.043s-20.7,4.756-26.578,14.548c-.28-15.387-20.141-11.876-23.079,4.553s-4.058,20.906-4.058,20.906c-1.4-15.388-20.423-14.268-23.781,2.518s-31.054,40.286-39.167,41.964S960.281,375.116,960.281,375.116Z" transform="translate(-944.372 -277.155)" fill="#6826cc"/>
      </g>
      <g id="Grupo_876994" data-name="Grupo 876994" transform="translate(8.736 16.604)" opacity="0.96" style="mix-blend-mode: multiply;isolation: isolate">
        <g id="Grupo_876993" data-name="Grupo 876993">
          <path id="Trazado_238218" data-name="Trazado 238218" d="M964.729,367.215c3.273.28,27.948,1.984,38.907-9.322,11.75-12.122,13.039-29.261-16.056-21.424,3.766-1.411,13.119-11.882,19.669-22.965-5.166-8.586-19.1-5.562-21.929,8.573-3.357,16.786-31.054,40.286-39.167,41.964s14.128,12.31,14.128,12.31a230.357,230.357,0,0,0,28.558.456C988.445,372.508,981.727,368.633,964.729,367.215Z" transform="translate(-944.372 -294.995)" fill="#aed3cd"/>
          <path id="Trazado_238219" data-name="Trazado 238219" d="M1015.144,302.445a26.582,26.582,0,0,0,1.8-8.008,20.722,20.722,0,0,0-1.013,3.659C1015.651,299.65,1015.39,301.1,1015.144,302.445Z" transform="translate(-947.144 -294.436)" fill="#aed3cd"/>
        </g>
      </g>
      <g id="Grupo_877000" data-name="Grupo 877000" transform="translate(0 4.352)">
        <g id="Grupo_876995" data-name="Grupo 876995">
          <path id="Trazado_238220" data-name="Trazado 238220" d="M936,367.066a.725.725,0,0,1-.089-1.445c44.6-5.611,75.777-28.033,94.076-45.857,19.828-19.312,29.213-37.5,29.305-37.683a.725.725,0,0,1,1.292.658c-.094.184-9.588,18.587-29.586,38.064-18.458,17.976-49.907,40.6-94.907,46.256C936.064,367.063,936.034,367.066,936,367.066Z" transform="translate(-935.279 -281.685)" fill="#fff"/>
        </g>
        <g id="Grupo_876996" data-name="Grupo 876996" transform="translate(85.519 4.432)">
          <path id="Trazado_238221" data-name="Trazado 238221" d="M1024.7,329.3a.419.419,0,0,1-.379-.6c8.062-17.321,5.421-41.7,5.393-41.941a.42.42,0,1,1,.835-.1c.028.247,2.7,24.853-5.468,42.391A.418.418,0,0,1,1024.7,329.3Z" transform="translate(-1024.285 -286.298)" fill="#fff"/>
        </g>
        <g id="Grupo_876997" data-name="Grupo 876997" transform="translate(71.582 46.6)">
          <path id="Trazado_238222" data-name="Trazado 238222" d="M1017.152,341.99a61.275,61.275,0,0,1-7.008-.353.42.42,0,0,1,.11-.833c.258.036,26.068,3.242,41.061-10.51a.42.42,0,0,1,.568.618C1041.488,340.446,1026.051,341.99,1017.152,341.99Z" transform="translate(-1009.779 -330.185)" fill="#fff"/>
        </g>
        <g id="Grupo_876998" data-name="Grupo 876998" transform="translate(45.793 30.032)">
          <path id="Trazado_238223" data-name="Trazado 238223" d="M983.358,355.382a.42.42,0,0,1-.264-.747c16.4-13.3,17.715-41.013,17.725-41.292a.42.42,0,1,1,.839.035c-.011.281-1.34,28.363-18.035,41.909A.417.417,0,0,1,983.358,355.382Z" transform="translate(-982.939 -312.941)" fill="#fff"/>
        </g>
        <g id="Grupo_876999" data-name="Grupo 876999" transform="translate(40.863 73.725)">
          <path id="Trazado_238224" data-name="Trazado 238224" d="M1013.216,364.986a112.506,112.506,0,0,1-35.135-5.758.42.42,0,0,1,.294-.787c.262.1,26.512,9.7,53.347,3.781a.42.42,0,0,1,.18.82A87,87,0,0,1,1013.216,364.986Z" transform="translate(-977.808 -358.415)" fill="#fff"/>
        </g>
      </g>
    </g>
    <g id="Grupo_877002" data-name="Grupo 877002" transform="translate(966.265 286.06)">
      <path id="Trazado_238225" data-name="Trazado 238225" d="M976.09,331.882s27.076-28.155,57.843-18.382c-21.078-3.062-40.008,5.368-56.46,20.693A24.334,24.334,0,0,0,976.09,331.882Z" transform="translate(-976.09 -294.579)" fill="#ffeeb0"/>
      <path id="Trazado_238226" data-name="Trazado 238226" d="M1025.117,312.152s7.983-9.9,19.629,4C1030.324,320.295,1025.117,312.152,1025.117,312.152Z" transform="translate(-978.01 -294.473)" fill="#ffeeb0"/>
      <path id="Trazado_238227" data-name="Trazado 238227" d="M1013.87,313.47s11.7-4.978,15.44,12.762C1014.634,323.1,1013.87,313.47,1013.87,313.47Z" transform="translate(-977.57 -294.634)" fill="#ffeeb0"/>
      <path id="Trazado_238228" data-name="Trazado 238228" d="M1014.533,311.891s12.712-.3,8.794-18C1011.251,302.8,1014.533,311.891,1014.533,311.891Z" transform="translate(-977.58 -293.892)" fill="#ffeeb0"/>
      <path id="Trazado_238229" data-name="Trazado 238229" d="M999.616,318.42s11.035-6.317,16.833,10.86C1001.507,327.9,999.616,318.42,999.616,318.42Z" transform="translate(-977.012 -294.808)" fill="#ffeeb0"/>
      <path id="Trazado_238230" data-name="Trazado 238230" d="M1000.155,316.75s12.589-1.789,6.618-18.907C995.827,308.108,1000.155,316.75,1000.155,316.75Z" transform="translate(-977 -294.047)" fill="#ffeeb0"/>
      <path id="Trazado_238231" data-name="Trazado 238231" d="M986.752,325.61s11.034-6.318,16.833,10.86C988.642,335.088,986.752,325.61,986.752,325.61Z" transform="translate(-976.508 -295.09)" fill="#ffeeb0"/>
      <path id="Trazado_238232" data-name="Trazado 238232" d="M987.291,323.94s12.589-1.789,6.617-18.907C982.962,315.3,987.291,323.94,987.291,323.94Z" transform="translate(-976.496 -294.328)" fill="#ffeeb0"/>
    </g>
    <g id="Grupo_877011" data-name="Grupo 877011" transform="translate(874.258 262.45)">
      <g id="Grupo_877003" data-name="Grupo 877003">
        <path id="Trazado_238233" data-name="Trazado 238233" d="M930.81,382s-29.061,2.256-44.619-15.356c-16.6-18.795,5.977-28.192,19.545-16.446-22.522-30.778-8.253-54.616,4.335-51.93s12.031,23.95,12.031,23.95c7.834-48.68,23.2-52.5,33.563-47.515s1.128,29.813,1.128,29.813c22.546-48.253,41.256-36.717,46.572-24.468S984.21,323.594,977.5,326.108c29.1-7.837,27.806,9.3,16.057,21.425s-39.277,9.288-39.277,9.288c28.815,2.321,28.522,11.62,17.9,18.268C960.709,382.27,930.81,382,930.81,382Z" transform="translate(-880.333 -269.32)" fill="#e8def8"/>
      </g>
      <g id="Grupo_877010" data-name="Grupo 877010" transform="translate(8.058 7.109)">
        <g id="Grupo_877004" data-name="Grupo 877004" transform="translate(23.221 2.513)">
          <path id="Trazado_238234" data-name="Trazado 238234" d="M913.612,380.872a.726.726,0,0,1-.474-1.275c.595-.512,59.72-51.791,81.531-99.837a.726.726,0,1,1,1.322.6c-21.945,48.339-81.309,99.822-81.907,100.336A.722.722,0,0,1,913.612,380.872Z" transform="translate(-912.887 -279.335)" fill="#6826cc"/>
        </g>
        <g id="Grupo_877005" data-name="Grupo 877005" transform="translate(55.777)">
          <path id="Trazado_238235" data-name="Trazado 238235" d="M949.506,346.364a.419.419,0,0,1-.412-.346c-7.03-39.169,4.117-68.736,4.23-69.03a.42.42,0,0,1,.784.3c-.113.292-11.175,29.654-4.188,68.581a.419.419,0,0,1-.34.486A.482.482,0,0,1,949.506,346.364Z" transform="translate(-946.77 -276.719)" fill="#6826cc"/>
        </g>
        <g id="Grupo_877006" data-name="Grupo 877006" transform="translate(63.882 56.864)">
          <path id="Trazado_238236" data-name="Trazado 238236" d="M973.5,345.573a50.29,50.29,0,0,1-18.046-3.351.42.42,0,1,1,.336-.769c.237.1,23.955,10.166,42.69-5.454a.42.42,0,1,1,.538.645A39.013,39.013,0,0,1,973.5,345.573Z" transform="translate(-955.206 -335.902)" fill="#6826cc"/>
        </g>
        <g id="Grupo_877007" data-name="Grupo 877007" transform="translate(18.157 26.339)">
          <path id="Trazado_238237" data-name="Trazado 238237" d="M928.3,367.64a.419.419,0,0,1-.307-.133c-21.872-23.36-20.37-62.58-20.353-62.973a.415.415,0,0,1,.438-.4.42.42,0,0,1,.4.438c-.018.39-1.5,39.263,20.128,62.362a.419.419,0,0,1-.307.706Z" transform="translate(-907.616 -304.132)" fill="#6826cc"/>
        </g>
        <g id="Grupo_877008" data-name="Grupo 877008" transform="translate(32.951 91.246)">
          <path id="Trazado_238238" data-name="Trazado 238238" d="M944.058,379.341c-12.677,0-20.679-3.8-20.81-3.864a.42.42,0,0,1,.369-.754c.211.1,21.491,10.185,49.778-3a.42.42,0,1,1,.354.761A69.928,69.928,0,0,1,944.058,379.341Z" transform="translate(-923.013 -371.685)" fill="#6826cc"/>
        </g>
        <g id="Grupo_877009" data-name="Grupo 877009" transform="translate(0 76.404)">
          <path id="Trazado_238239" data-name="Trazado 238239" d="M917.935,378.777c-.02,0-.04,0-.059,0-22.4-3.213-29.069-21.791-29.133-21.979a.419.419,0,1,1,.793-.274c.063.182,6.585,18.283,28.459,21.422a.42.42,0,0,1-.059.835Z" transform="translate(-888.719 -356.238)" fill="#6826cc"/>
        </g>
      </g>
    </g>
    <g id="Grupo_877020" data-name="Grupo 877020" transform="translate(792.556 264.515)">
      <g id="Grupo_877012" data-name="Grupo 877012">
        <path id="Trazado_238240" data-name="Trazado 238240" d="M853.954,373.886s25.307,3.82,40.05-10.615c15.734-15.406-3.446-25.07-16.074-15.644,21.679-25.525,10.7-47.307-.5-45.754s-12.056,20.21-12.056,20.21c-3.77-43.13-16.987-47.454-26.378-43.743s-2.88,26.038-2.88,26.038c-16.681-43.69-33.8-34.775-39.233-24.386s14.01,39.358,19.731,41.985c-24.984-8.711-24.942,6.381-15.421,17.743S835,350.348,835,350.348c-25.384.2-25.718,8.366-16.841,14.862C827.75,372.228,853.954,373.886,853.954,373.886Z" transform="translate(-795.299 -271.469)" fill="#6826cc"/>
      </g>
      <g id="Grupo_877019" data-name="Grupo 877019" transform="translate(4.417 8.148)">
        <g id="Grupo_877013" data-name="Grupo 877013" transform="translate(4.707)">
          <path id="Trazado_238241" data-name="Trazado 238241" d="M870.6,374.062a.637.637,0,0,0,.5-1.087c-.488-.486-49.014-49.148-65.065-92.611a.637.637,0,0,0-1.2.441c16.15,43.727,64.87,92.584,65.361,93.072A.631.631,0,0,0,870.6,374.062Z" transform="translate(-804.796 -279.95)" fill="#fff"/>
        </g>
        <g id="Grupo_877014" data-name="Grupo 877014" transform="translate(42.08 0.526)">
          <path id="Trazado_238242" data-name="Trazado 238242" d="M844.035,341.758a.367.367,0,0,0,.382-.277c8.644-33.857.758-60.457.677-60.723a.369.369,0,1,0-.705.214c.081.263,7.9,26.68-.686,60.327a.364.364,0,0,0,.332.458Z" transform="translate(-843.692 -280.497)" fill="#fff"/>
        </g>
        <g id="Grupo_877015" data-name="Grupo 877015" transform="translate(0 47.488)">
          <path id="Trazado_238243" data-name="Trazado 238243" d="M821.789,339.447a44.178,44.178,0,0,0,16.018-1.789.368.368,0,1,0-.246-.695c-.214.075-21.624,7.381-37.041-7.487a.369.369,0,1,0-.512.53A34.256,34.256,0,0,0,821.789,339.447Z" transform="translate(-799.896 -329.373)" fill="#fff"/>
        </g>
        <g id="Grupo_877016" data-name="Grupo 877016" transform="translate(58.024 26.395)">
          <path id="Trazado_238244" data-name="Trazado 238244" d="M860.628,361.754a.363.363,0,0,0,.276-.1c20.639-19.069,21.814-53.512,21.823-53.857a.364.364,0,0,0-.358-.379.37.37,0,0,0-.379.358c-.009.343-1.179,34.481-21.586,53.337a.369.369,0,0,0,.224.638Z" transform="translate(-860.286 -307.421)" fill="#fff"/>
        </g>
        <g id="Grupo_877017" data-name="Grupo 877017" transform="translate(18.765 79.117)">
          <path id="Trazado_238245" data-name="Trazado 238245" d="M845.183,370.871c11.1.805,18.352-2.014,18.47-2.062a.369.369,0,1,0-.275-.684c-.192.077-19.468,7.555-43.4-5.787a.368.368,0,1,0-.358.644A61.381,61.381,0,0,0,845.183,370.871Z" transform="translate(-819.427 -362.291)" fill="#fff"/>
        </g>
        <g id="Grupo_877018" data-name="Grupo 877018" transform="translate(65.879 71.394)">
          <path id="Trazado_238246" data-name="Trazado 238246" d="M868.8,372.166a.322.322,0,0,0,.053,0,32.041,32.041,0,0,0,26.909-17.4.369.369,0,0,0-.677-.291A31.3,31.3,0,0,1,868.8,371.431a.368.368,0,0,0,0,.735Z" transform="translate(-868.461 -354.254)" fill="#fff"/>
        </g>
      </g>
    </g>
    <g id="Grupo_877021" data-name="Grupo 877021" transform="translate(850.987 319.245)">
      <path id="Trazado_238247" data-name="Trazado 238247" d="M899.412,376.047s-7.153-34.251-18.668-42.424-14.6,9.623-2.675,25.326,13.553,19.889,13.553,19.889Z" transform="translate(-856.675 -328.553)" fill="#cab3ed"/>
      <path id="Trazado_238248" data-name="Trazado 238248" d="M897.263,376.585s7.153-34.251,18.668-42.424,14.6,9.624,2.675,25.326-13.554,19.89-13.554,19.89Z" transform="translate(-857.724 -328.574)" fill="#cab3ed"/>
      <path id="Trazado_238249" data-name="Trazado 238249" d="M915.868,375.827s18.035-18.561,28.465-19.105,5.306,11.792-8.36,16.879-16.344,7.055-16.344,7.055Z" transform="translate(-858.453 -329.538)" fill="#cab3ed"/>
      <path id="Trazado_238250" data-name="Trazado 238250" d="M953.162,370.636c-1.572-6.813-15.723-6.086-33.891,3.7,0,0,25.331-19.042,18.868-29.524-5.091-8.255-19.043-5.939-32.669,28.126,0,0,14.973-44.287-1.922-44.5-16.018-.206-16.5,20.593-14.05,42.631a82.278,82.278,0,0,0-7.349-10.181c-12.055-14.937-33.105-11.88-23.672,1.747a101.454,101.454,0,0,0,21.677,22.361H932.2S954.734,377.45,953.162,370.636Z" transform="translate(-856.112 -328.43)" fill="#531ea3"/>
      <path id="Trazado_238251" data-name="Trazado 238251" d="M861.676,356.7,890,386.1h4.406Z" transform="translate(-856.33 -329.538)" fill="#fff"/>
      <path id="Trazado_238252" data-name="Trazado 238252" d="M925.865,386.75l25.529-13.391L921.039,386.75Z" transform="translate(-858.655 -330.19)" fill="#fff"/>
      <path id="Trazado_238253" data-name="Trazado 238253" d="M911.351,385.715l24.969-38.779-28.7,38.779Z" transform="translate(-858.13 -329.155)" fill="#fff"/>
      <path id="Trazado_238254" data-name="Trazado 238254" d="M902.278,385.093l1.669-54.036-4.764,54.036Z" transform="translate(-857.799 -328.533)" fill="#fff"/>
    </g>
    <g id="Grupo_877022" data-name="Grupo 877022" transform="translate(747.778 322.777)">
      <path id="Trazado_238255" data-name="Trazado 238255" d="M775.842,361.958s-4.485-21.473-11.7-26.6-9.151,6.033-1.677,15.878,8.5,12.469,8.5,12.469Z" transform="translate(-749.049 -332.183)" fill="#6826cc"/>
      <path id="Trazado_238256" data-name="Trazado 238256" d="M772.863,366.159s4.484-21.474,11.7-26.6,9.15,6.033,1.677,15.877-8.5,12.47-8.5,12.47Z" transform="translate(-749.643 -332.348)" fill="#fff"/>
      <path id="Trazado_238257" data-name="Trazado 238257" d="M786.158,361.821S797.465,350.185,804,349.844s3.326,7.393-5.241,10.582-10.246,4.424-10.246,4.424Z" transform="translate(-750.163 -332.8)" fill="#6826cc"/>
      <path id="Trazado_238258" data-name="Trazado 238258" d="M809.539,358.566c-.986-4.272-9.857-3.815-21.248,2.318,0,0,15.882-11.937,11.829-18.509-3.192-5.175-11.938-3.723-20.481,17.633,0,0,9.387-27.764-1.2-27.9-10.043-.129-10.345,12.911-8.809,26.726a51.614,51.614,0,0,0-4.608-6.383c-7.557-9.364-20.754-7.447-14.84,1.1a63.612,63.612,0,0,0,13.59,14.02H796.4S810.524,362.837,809.539,358.566Z" transform="translate(-748.696 -332.106)" fill="#cab3ed"/>
    </g>
    <g id="Grupo_877023" data-name="Grupo 877023" transform="translate(1037.139 322.26)">
      <path id="Trazado_238259" data-name="Trazado 238259" d="M1079.8,364.5s-4.948-23.686-12.911-29.338-10.095,6.655-1.85,17.514,9.373,13.755,9.373,13.755Z" transform="translate(-1050.243 -331.653)" fill="#6826cc"/>
      <path id="Trazado_238260" data-name="Trazado 238260" d="M1078.312,364.87s4.947-23.686,12.911-29.339,10.094,6.656,1.849,17.514S1083.7,366.8,1083.7,366.8Z" transform="translate(-1050.969 -331.668)" fill="#6826cc"/>
      <path id="Trazado_238261" data-name="Trazado 238261" d="M1091.179,364.346s12.472-12.836,19.685-13.212,3.669,8.156-5.781,11.673-11.3,4.879-11.3,4.879Z" transform="translate(-1051.472 -332.334)" fill="#6826cc"/>
      <path id="Trazado_238262" data-name="Trazado 238262" d="M1116.97,360.756c-1.088-4.712-10.874-4.208-23.438,2.557,0,0,17.519-13.169,13.048-20.418-3.52-5.709-13.168-4.108-22.592,19.451,0,0,10.354-30.627-1.329-30.777-11.078-.142-11.412,14.241-9.717,29.482a56.965,56.965,0,0,0-5.083-7.041c-8.337-10.33-22.895-8.215-16.37,1.208a70.167,70.167,0,0,0,14.991,15.465h35.993S1118.057,365.468,1116.97,360.756Z" transform="translate(-1049.854 -331.568)" fill="#cab3ed"/>
    </g>
  </g>
</svg>
