<svg xmlns="http://www.w3.org/2000/svg" xmlns:xlink="http://www.w3.org/1999/xlink" width="179" height="158" viewBox="0 0 179 158">
  <defs>
    <clipPath id="clip-path">
      <rect id="Rectángulo_297213" data-name="Rectángulo 297213" width="179" height="158" transform="translate(-2238 -8552)" fill="#fff"/>
    </clipPath>
    <clipPath id="clip-path-2">
      <rect id="Rectángulo_297210" data-name="Rectángulo 297210" width="177" height="123" transform="translate(-0.107 0.086)" fill="none"/>
    </clipPath>
  </defs>
  <g id="Enmascarar_grupo_700398" data-name="Enmascarar grupo 700398" transform="translate(2238 8552)" clip-path="url(#clip-path)">
    <g id="Grupo_877456" data-name="Grupo 877456" transform="translate(-2236.893 -8517.086)" clip-path="url(#clip-path-2)">
      <path id="Trazado_238900" data-name="Trazado 238900" d="M813.242,493.311c.009.124.053.362.053.362l2.224.062.047-2.544-1.486-.4c-.943.258-.89,1.837-.838,2.519" transform="translate(-767.295 -458.261)" fill="#f0f4ff"/>
      <path id="Trazado_238901" data-name="Trazado 238901" d="M831.685,452.866c-1.4.1-2.058,2.1-2.058,2.1,2.323.294,2.683,1.175,2.683,1.175l-.252,1.006,2.111-1.737-.74-2.658-.316.822a6.043,6.043,0,0,0-1.428-.707" transform="translate(-782.786 -422.741)" fill="#f0f4ff"/>
      <path id="Trazado_238902" data-name="Trazado 238902" d="M917.693,467.789l-.861,2.429,1.984.98.856-1.491c.142-1.133-1.119-1.651-1.675-1.844a3.027,3.027,0,0,0-.3-.074" transform="translate(-865.108 -436.783)" fill="#f0f4ff"/>
      <path id="Trazado_238903" data-name="Trazado 238903" d="M925.717,501.893l-.7-.645.595,2.96,2.36.156-.531-.648a7.289,7.289,0,0,0,1.078-1.316,3.635,3.635,0,0,0-.9-3.035c-1.08,2.453-1.9,2.528-1.9,2.528" transform="translate(-872.836 -466.265)" fill="#f0f4ff"/>
      <path id="Trazado_238904" data-name="Trazado 238904" d="M877.666,572.87c.765.7,1.764-.346,2.178-.826.075-.087.2-.278.2-.278l-1.367-2.078-1.694,1.567Z" transform="translate(-827.494 -531.927)" fill="#f0f4ff"/>
      <path id="Trazado_238905" data-name="Trazado 238905" d="M816.045,555.137l.737-.23a8.844,8.844,0,0,0,.441,1.757,2.449,2.449,0,0,0,2.675.559c-1.277-2.316-.929-3.2-.929-3.2l.818-.406-2.471-.836Z" transform="translate(-769.964 -516.137)" fill="#f0f4ff"/>
      <path id="Trazado_238906" data-name="Trazado 238906" d="M43.942,1373.776c-.07.073-.191.234-.191.234l1.127,1.91,1.557-1.292-.537-1.463c-.648-.661-1.572.21-1.956.611" transform="translate(-40.912 -1281.918)" fill="#e3eaff"/>
      <path id="Trazado_238907" data-name="Trazado 238907" d="M87.583,1373.971a2.184,2.184,0,0,0-2.341-.639c1.039,2.115.7,2.88.7,2.88l-.738.314,2.151.873,1.214-2.016-.66.163a7.908,7.908,0,0,0-.322-1.576" transform="translate(-80.041 -1282.198)" fill="#e3eaff"/>
      <path id="Trazado_238908" data-name="Trazado 238908" d="M120.459,1438.389l-1.914.545.448,2.188,1.347-.058c.757-.473.409-1.809.234-2.379-.032-.1-.115-.3-.115-.3" transform="translate(-111.518 -1343.043)" fill="#e3eaff"/>
      <path id="Trazado_238909" data-name="Trazado 238909" d="M81.346,1465.583l.023-.928-1.472,2.052,1.141,2.074.113-.787a4.945,4.945,0,0,0,1.357.221c1.181-.462,1.357-2.347,1.357-2.347-2.042.372-2.519-.284-2.519-.284" transform="translate(-75.034 -1367.568)" fill="#e3eaff"/>
      <path id="Trazado_238910" data-name="Trazado 238910" d="M23.262,1466.136c-.022,1.013,1.132,1.308,1.637,1.407a2.658,2.658,0,0,0,.274.026l.536-2.242-1.83-.61Z" transform="translate(-21.57 -1367.626)" fill="#e3eaff"/>
      <path id="Trazado_238911" data-name="Trazado 238911" d="M.332,1416.381l.525.5a6.834,6.834,0,0,0-.827,1.292,3.089,3.089,0,0,0,1.064,2.551c.726-2.291,1.443-2.461,1.443-2.461l.672.478-.79-2.524Z" transform="translate(0.389 -1322.342)" fill="#e3eaff"/>
      <path id="Trazado_238912" data-name="Trazado 238912" d="M1310.651,694.81s2.215.921,4.82,5.57H1311.5Z" transform="translate(-1236.876 -648.755)" fill="#c4204a"/>
      <path id="Trazado_238913" data-name="Trazado 238913" d="M1348.3,767.572s1.84.106,3.09.275,7.7,1.671,9.814,3.458c-.972.941-6.264.33-7.492,0a9.549,9.549,0,0,1-5.412-3.733" transform="translate(-1272.417 -716.693)" fill="#87571a"/>
      <path id="Trazado_238914" data-name="Trazado 238914" d="M1356.057,698.032l-1.136-.036a.2.2,0,0,0-.189.212l-.006.286a.237.237,0,0,0,.056.161l-.06,2.68a3.015,3.015,0,0,1-.471,1.569l-.015.023a3.509,3.509,0,0,0-.549,1.829l-.12,5.362a.668.668,0,0,0,.583.727l2.125.067a.654.654,0,0,0,.615-.69l.119-5.334a3.548,3.548,0,0,0-.491-1.9,3.046,3.046,0,0,1-.422-1.632l.059-2.644a.229.229,0,0,0,.076-.169l.007-.286a.205.205,0,0,0-.179-.224" transform="translate(-1277.388 -651.73)" fill="#3f964f"/>
      <path id="Trazado_238915" data-name="Trazado 238915" d="M1479,737.887l-1.085-.4a.18.18,0,0,0-.23.143l-.072.273a.253.253,0,0,0,.016.174l-.676,2.559a2.719,2.719,0,0,1-.815,1.357l-.02.017a3.173,3.173,0,0,0-.95,1.582l-1.352,5.119a.741.741,0,0,0,.393.888l2.029.751a.587.587,0,0,0,.75-.465l1.345-5.092a3.674,3.674,0,0,0-.034-1.989,3.156,3.156,0,0,1-.029-1.706l.667-2.524a.205.205,0,0,0,.112-.138l.072-.273a.228.228,0,0,0-.121-.273" transform="translate(-1390.878 -688.591)" fill="#444cc2"/>
      <path id="Trazado_238916" data-name="Trazado 238916" d="M1459.9,747.846v-.77h-1.708v.77a1.644,1.644,0,0,1-.382,1.085,2.314,2.314,0,0,0-.556,1.536v5.792h3.584v-5.792a2.317,2.317,0,0,0-.556-1.536,1.641,1.641,0,0,1-.383-1.085" transform="translate(-1375.269 -697.556)" fill="#4bb35e"/>
      <path id="Trazado_238917" data-name="Trazado 238917" d="M1372.629,695.94l.24-.716-1.587-.746-.24.716a1.409,1.409,0,0,1-.693.841,1.983,1.983,0,0,0-1,1.185l-1.8,5.384,3.332,1.565,1.8-5.384a2.476,2.476,0,0,0-.038-1.67,1.749,1.749,0,0,1-.017-1.175" transform="translate(-1290.589 -648.445)" fill="#7078e6"/>
      <path id="Trazado_238918" data-name="Trazado 238918" d="M1382.386,721.557l-1.041-.542a.174.174,0,0,0-.243.112l-.1.262a.254.254,0,0,0,0,.174l-.913,2.454a2.586,2.586,0,0,1-.938,1.241l-.021.014a3.015,3.015,0,0,0-1.093,1.447l-1.826,4.909a.765.765,0,0,0,.307.935l1.945,1.014a.567.567,0,0,0,.79-.363l1.816-4.883a3.668,3.668,0,0,0,.153-1.981,3.147,3.147,0,0,1,.132-1.7l.9-2.421a.194.194,0,0,0,.125-.123l.1-.261a.235.235,0,0,0-.094-.287" transform="translate(-1298.721 -673.205)" fill="#c4204a"/>
      <path id="Trazado_238919" data-name="Trazado 238919" d="M1309.85,767.572s1.676,2.114,6.484,3.257c4.744,1.127,6.42.476,6.42.476s-.734,4.614-1.99,9.285c-.882,3.282-2.508,5.676-2.565,7.879-1.9,1.512-10.631-2.18-10.631-2.18Z" transform="translate(-1233.968 -716.693)" fill="#fad56e"/>
      <path id="Trazado_238920" data-name="Trazado 238920" d="M1539.238,851.3a1.434,1.434,0,0,0-.146,1.558c.026,0,.024.035.024.035-.052,0-.081.039-.136.078a1.158,1.158,0,0,0-.151,1.2c.187.389.545.555.824.29a1.078,1.078,0,0,0,.243-.985.46.46,0,0,0,.27-.12,1.267,1.267,0,0,0,.274-1.058l.165-.115a1.469,1.469,0,0,0,.19-1.416.407.407,0,0,0,.27-.12,1.366,1.366,0,0,0,.19-1.416c-.207-.5-.644-.659-.978-.356a1.249,1.249,0,0,0-.3,1.132.474.474,0,0,0-.3.121,1.268,1.268,0,0,0-.273,1.058l-.165.115" transform="translate(-1452.184 -792.466)" fill="#f37a50"/>
      <path id="Trazado_238921" data-name="Trazado 238921" d="M1384.419,823.539a6.111,6.111,0,0,1-4.635-1.625c.253,1.541,1.48,2.786,2.169,5.077a6.844,6.844,0,0,0-.628-3.061,11.343,11.343,0,0,0,3.094-.391" transform="translate(-1302.139 -767.433)" fill="#fabd6e"/>
      <path id="Trazado_238922" data-name="Trazado 238922" d="M1489.506,972.894l-1.792,4.158a3.882,3.882,0,0,1,1.792-4.158" transform="translate(-1403.939 -908.405)" fill="#fabd6e"/>
      <path id="Trazado_238923" data-name="Trazado 238923" d="M1152.679,1042.425l-8.881,7.122s5.714,18.211,9.547,24.157c.667,1.035,5.446.42,5.721-.82,1-4.52-6.388-30.459-6.388-30.459" transform="translate(-1079.366 -973.327)" fill="#16142b"/>
      <path id="Trazado_238924" data-name="Trazado 238924" d="M1299.046,1462.969h-5.73c-.643-4.349-1.784-13.492-1.154-20.1q.035-.373.079-.734a20.732,20.732,0,0,1,.508-2.788h0a6.782,6.782,0,0,1,2.129-3.75c1.3-1.051,2.814-.976,3.679.34a3.69,3.69,0,0,1,.4.823c.035.5.066,1.03.091,1.584,0,0,0,0,0,0v.009c.07,1.5.1,3.2.117,5.16q0,.336,0,.682c.017,4.616-.071,10.628-.116,18.773" transform="translate(-1219.249 -1339.757)" fill="#16142b"/>
      <path id="Trazado_238925" data-name="Trazado 238925" d="M1073.041,1002.339s-5.683-9.742-9.291-3.063-1.118,24.858.076,33c.208,1.417,3.653,3.02,4.315,2.19,2.417-3.028,4.9-32.125,4.9-32.125" transform="translate(-1002.028 -930.853)" fill="#2c2858"/>
      <path id="Trazado_238926" data-name="Trazado 238926" d="M1056.175,1472.9h-7.387c.12-4.822.6-16.727,2.482-23.2a16.989,16.989,0,0,1,.622-1.8,4.164,4.164,0,0,1,1.73-2.17c1.724-.9,3.594.95,3.358,4.186h0c0,.02,0,.04,0,.06-.787,4.517,1.477,10.408-.8,22.92" transform="translate(-989.676 -1349.692)" fill="#2c2858"/>
      <path id="Trazado_238927" data-name="Trazado 238927" d="M895.951,352.307c-1.876-3.886-8.977-2.81-9.464,1.914s-.059,7.81-5.005,7.474c-3.939-.268-7.722,4.2-7.353,10.727.472,8.35,5.176,4.714,4.276,8.928s-1.394,8.455,3.655,8.192,9.371-5.593,8.4-12.334,3.52-6.126,4.4-9.567c1.25-4.893,1.093-15.334,1.093-15.334" transform="translate(-824.772 -326.745)" fill="#16142b"/>
      <path id="Trazado_238928" data-name="Trazado 238928" d="M1177.879,563.654s-.193,2.54-1.456,2.54-3.456-3.141-3.456-3.141a9.6,9.6,0,0,0,.3-2.593c0-.275,0-.555-.011-.839a46.05,46.05,0,0,0-.647-5.874l4.764,2.825s.147,2.366.292,4.422c.018.254.036.5.054.743.061.822.119,1.53.162,1.917" transform="translate(-1106.561 -517.043)" fill="#de623c"/>
      <path id="Trazado_238929" data-name="Trazado 238929" d="M1097.146,694.749c.172-3.144,3.055-7.894,2.125-11.153-.664-2.615-1.632-7.035-3.331-7.556-.689-.211-1.082-.786-2.031-.813,0,0,.222,2.755-.92,2.776-2.2.04-3.648-3.394-3.648-3.394-1.172-.224-5.138.96-5.39,2.15-.213,4.12,1,9.228,1.676,13.753a21.4,21.4,0,0,1-.758,5.349c-.423,1.31-1.076,2.743-1.095,3.032,0,0,7.89,3.573,13.232.608,0,0,.023-2.626.139-4.75" transform="translate(-1022.703 -629.866)" fill="#f5a3b7"/>
      <path id="Trazado_238930" data-name="Trazado 238930" d="M1264.787,684.327a19.338,19.338,0,0,1,3.721,9.575,70.647,70.647,0,0,1-1.052,12.7l1.374-.583a75.689,75.689,0,0,0,1.725-13.358c-2.073-6.972-3.2-7.636-3.2-7.636Z" transform="translate(-1193.58 -638.966)" fill="#e62552"/>
      <path id="Trazado_238931" data-name="Trazado 238931" d="M1172.2,410.628c-.176,4.62,2.166,8.5,5.231,8.662s5.693-3.449,5.869-8.069-2.165-8.5-5.231-8.663-5.693,3.449-5.869,8.069" transform="translate(-1106.171 -375.871)" fill="#f37a50"/>
      <path id="Trazado_238932" data-name="Trazado 238932" d="M1337,544.718a.547.547,0,0,0,.621.507.633.633,0,0,0,.428-.736.547.547,0,0,0-.621-.507.632.632,0,0,0-.428.736" transform="translate(-1261.744 -507.915)"/>
      <path id="Trazado_238933" data-name="Trazado 238933" d="M1267.214,527.849a.592.592,0,0,0,.672.549.685.685,0,0,0,.464-.8.593.593,0,0,0-.673-.549.685.685,0,0,0-.463.8" transform="translate(-1195.863 -492.107)"/>
      <path id="Trazado_238934" data-name="Trazado 238934" d="M1303.392,558.883a6.7,6.7,0,0,0,.579,1.168.284.284,0,0,1-.011.343,2.624,2.624,0,0,1-1.488.6c-.064.009-.089-.095-.031-.127a2.771,2.771,0,0,0,.843-.656.336.336,0,0,0,.063-.26c-.035-.216-.1-.653-.133-1.008-.011-.122.13-.172.178-.064" transform="translate(-1229.096 -521.782)" fill="#de623c"/>
      <path id="Trazado_238935" data-name="Trazado 238935" d="M1254.873,595.509a.29.29,0,0,0-.349-.25,2.529,2.529,0,0,1-2.6-1,.3.3,0,0,0-.282-.247.252.252,0,0,0-.129.039.354.354,0,0,0-.156.308,1.2,1.2,0,0,0,.41.684c.043.044.087.086.13.125a3.156,3.156,0,0,0,2.047.862,2.533,2.533,0,0,0,.718-.1.349.349,0,0,0,.211-.414" transform="translate(-1180.903 -554.636)" fill="#de623c"/>
      <path id="Trazado_238936" data-name="Trazado 238936" d="M1257.667,507.769a.287.287,0,0,1-.257-.186.374.374,0,0,1,.125-.46,1.708,1.708,0,0,1,1.671-.121.371.371,0,0,1,.138.455.271.271,0,0,1-.382.165,1.213,1.213,0,0,0-1.165.11.251.251,0,0,1-.131.038" transform="translate(-1186.586 -473.246)" fill="#201d40"/>
      <path id="Trazado_238937" data-name="Trazado 238937" d="M1346.35,528.28a.3.3,0,0,1-.277-.245.826.826,0,0,0-.48-.6.35.35,0,0,1-.2-.417.289.289,0,0,1,.355-.243,1.45,1.45,0,0,1,.883,1.067.355.355,0,0,1-.2.425.245.245,0,0,1-.082.014" transform="translate(-1269.66 -491.847)" fill="#201d40"/>
      <path id="Trazado_238938" data-name="Trazado 238938" d="M1145.129,395.6c2.258.4,4.777-2.586,6.393-3.847a5.568,5.568,0,0,0,3.847-2.4c-.044-2.77-1.351-4.314-6.133-4.285-2.946.018-7.952,4.478-4.107,10.533" transform="translate(-1079.304 -359.541)" fill="#201d40"/>
      <path id="Trazado_238939" data-name="Trazado 238939" d="M1253.866,441.294s4.585,1.162,6.536,3.557c2.313-2.089.766-4.746-1.162-6.28-1.669.152-5.375,2.723-5.375,2.723" transform="translate(-1183.271 -409.501)" fill="#201d40"/>
      <path id="Trazado_238940" data-name="Trazado 238940" d="M1153.5,519.124a2.059,2.059,0,0,1-.121,2.541c-.607.524-1.539.236-2.079-.643a2.059,2.059,0,0,1,.121-2.541c.608-.524,1.539-.236,2.079.643" transform="translate(-1086.094 -483.87)" fill="#f37a50"/>
      <path id="Trazado_238941" data-name="Trazado 238941" d="M1169.31,533.973a.184.184,0,0,0,.084-.044,1.182,1.182,0,0,0,.375-1.244.99.99,0,0,0-.918-.761.225.225,0,0,0-.193.247.218.218,0,0,0,.209.228.588.588,0,0,1,.524.446.664.664,0,0,1-.239.7.267.267,0,0,0-.039.333.187.187,0,0,0,.2.091" transform="translate(-1102.834 -496.666)" fill="#de623c"/>
      <path id="Trazado_238942" data-name="Trazado 238942" d="M1068.648,672.508s2.917-1.25,4.041-1.129c1.045,3.023,2.157,5.087,2.4,9.85s-.752,6.634.108,13.635c-2.37.6-6.676.537-9.088-1.628,1.206-2.856,1.331-3.323,1.292-7.8a112.179,112.179,0,0,1,1.245-12.926" transform="translate(-1006.028 -626.869)" fill="#e62552"/>
      <path id="Trazado_238943" data-name="Trazado 238943" d="M1049.928,690.325c-2.156,3.987-2.674,16.656-.074,20.948,2.586.059,5.132-2.72,5.132-2.72s-.816-10.577-.42-13.542c.16-1.195.825-4.374-.44-5.3a2.761,2.761,0,0,0-4.2.616" transform="translate(-989.026 -643.349)" fill="#c4204a"/>
      <path id="Trazado_238944" data-name="Trazado 238944" d="M1352.056,927.373h0a3.5,3.5,0,0,1,.183-1.891l1.2-3.044-1.388-.768-1.211,3.069a2.856,2.856,0,0,1-1.072,1.356l-.024.016a3.327,3.327,0,0,0-1.249,1.581l-2.638,6.577a.857.857,0,0,0,.322,1.051l2.148,1.188a.628.628,0,0,0,.888-.382l2.627-6.549a4.084,4.084,0,0,0,.213-2.2" transform="translate(-1270.052 -860.576)" fill="#3f964f"/>
      <path id="Trazado_238945" data-name="Trazado 238945" d="M1456,919.07l-1.149-.636a.264.264,0,0,1-.1-.323l.114-.289a.193.193,0,0,1,.273-.117l1.149.636a.263.263,0,0,1,.1.323l-.114.289a.193.193,0,0,1-.273.117" transform="translate(-1372.892 -856.853)" fill="#3f964f"/>
      <path id="Trazado_238946" data-name="Trazado 238946" d="M1101.067,985.315s-8.944-3.315-10.6-4.124c-1.732-.847-3.092,2.014-3.5,4.085a29.114,29.114,0,0,0,13.787,2.232,13.032,13.032,0,0,1,.307-2.193" transform="translate(-1025.722 -916.01)" fill="#f37a50"/>
      <path id="Trazado_238947" data-name="Trazado 238947" d="M1329.786,1017.8c.206-.772-.034-1.588.292-2.081.2-.3.789-.295,1.258-.6s.564-.959,1.119-1.318c.482-.312.719-.329.853-.14l-.566,1.411c-.063.42.244.974,1.646,1.571,1.071.456,2,.309,1.943,1.045-.04.483-.607.243-1.355-.034.831.617,1.061.236,1.068.844.009.735-1.42.17-2.07-.227.759.929,1.635.526,1.638,1-.02.537-.866.806-1.853-.057.768.941,1.3.595,1.218,1.043-.089.466-1.716.473-3.145-.581-.368-.271-2.045-1.874-2.045-1.874" transform="translate(-1254.94 -946.35)" fill="#f37a50"/>
      <path id="Trazado_238948" data-name="Trazado 238948" d="M1063.469,963.961c.306-.135.02.686.231,1.056s.6.476.281.818-2.728,3.661-5.464,3.337a5.353,5.353,0,0,1-1.285-3.813c1.375.476,6.236-1.4,6.236-1.4" transform="translate(-997.603 -900.05)" fill="#e64369"/>
      <path id="Trazado_238949" data-name="Trazado 238949" d="M1155.431,656.063l-1.715,1.227,1.667,3.992,1.906,1.646s-.868-3.826-1.859-6.865" transform="translate(-1088.728 -612.576)" fill="#c4204a"/>
      <path id="Trazado_238950" data-name="Trazado 238950" d="M1263.567,670.7l1.723,1.194,1.259,2.627-.245,1.967-2.669-4.884Z" transform="translate(-1192.428 -626.243)" fill="#c4204a"/>
      <path id="Trazado_238951" data-name="Trazado 238951" d="M1144.818,1133.026l-.1,1.5-2.851,43.323a.816.816,0,0,1-.242.573h-23.5a.817.817,0,0,1-.242-.573l-1.129-19.021-.449-7.572-.993-16.73-.123-2.076c0-.477,1.524-2.328,2.053-2.328l1.172.006h0l4.641.028,4.225.025,1.634.009h0l2.829.016,11.152.066c1.154-.456,1.924,2.278,1.924,2.755" transform="translate(-1052.357 -1055.208)" fill="#38668e"/>
      <path id="Trazado_238952" data-name="Trazado 238952" d="M1100.754,1130.121h-32.708a.9.9,0,0,0-.962.826v2.752a.9.9,0,0,0,.962.826h32.708a.9.9,0,0,0,.962-.826v-2.752a.9.9,0,0,0-.962-.826" transform="translate(-1006.946 -1055.209)" fill="#669ac6"/>
      <path id="Trazado_238953" data-name="Trazado 238953" d="M1332.18,1350.6h-.348a2.935,2.935,0,0,1-2.66-3.149v-4.549h5.668v4.549a2.936,2.936,0,0,1-2.66,3.149" transform="translate(-1254.36 -1253.888)" fill="#7078e6"/>
      <rect id="Rectángulo_297200" data-name="Rectángulo 297200" width="0.945" height="6.608" transform="translate(77.173 95.277)" fill="#7078e6"/>
      <path id="Trazado_238954" data-name="Trazado 238954" d="M1350.507,1519.044c0-.712-.827-1.289-1.846-1.289s-1.846.577-1.846,1.289Z" transform="translate(-1271.016 -1417.147)" fill="#7078e6"/>
      <path id="Trazado_238955" data-name="Trazado 238955" d="M1235.175,1274.62c-.105,0-.21,0-.314.007-3.521.151-6.507,2.826-7.7,6.538a11.744,11.744,0,0,0-.561,3.61,10.742,10.742,0,0,0,3.844,8.465,7.621,7.621,0,0,0,4.733,1.689,7.3,7.3,0,0,0,2.267-.36c3.633-1.179,6.31-5.124,6.31-9.794,0-5.6-3.848-10.155-8.577-10.155m2.264,19.267a6.86,6.86,0,0,1-2.264.385,7.172,7.172,0,0,1-4.654-1.766,10.11,10.11,0,0,1-3.369-7.731,11.105,11.105,0,0,1,.344-2.754c.985-3.841,3.974-6.659,7.519-6.742l.16,0c4.423,0,8.022,4.26,8.022,9.5,0,4.307-2.433,7.953-5.758,9.112" transform="translate(-1157.53 -1190.13)" fill="#7078e6"/>
      <path id="Trazado_238956" data-name="Trazado 238956" d="M2565.052,638.761s-7.567,4.355-9.213,12.552c1.494,3.388,8.964,3.031,8.964,3.031Z" transform="translate(-2412.344 -596.421)" fill="#c4204a"/>
      <path id="Trazado_238957" data-name="Trazado 238957" d="M2595.6,1048.9l10.541,6.557s-8.6,19.206-13.541,25.152c-.861,1.035-5.789-.575-6.144-1.815-1.292-4.52,9.143-29.894,9.143-29.894" transform="translate(-2441.147 -979.373)" fill="#2c2858"/>
      <path id="Trazado_238958" data-name="Trazado 238958" d="M2592.857,1457.688h-6.51c-.066-9.278-.453-15.337-.591-19.9-.007-.272-.015-.538-.022-.8-.034-1.457-.038-2.76.012-3.971h0c.017-.417.04-.822.07-1.22a.008.008,0,0,1,0,0,.02.02,0,0,1,0-.005.015.015,0,0,1,0,0c.01-.149.022-.3.036-.441.009-.022.019-.042.03-.064h0c.007-.017.015-.034.024-.051a3.911,3.911,0,0,1,.962-1.3,2.963,2.963,0,0,1,.382-.284,2.834,2.834,0,0,1,2.981,0,4.193,4.193,0,0,1,.889.683,5.614,5.614,0,0,1,.763.955,6.948,6.948,0,0,1,.385.683,8.43,8.43,0,0,1,.4.956c.04.113.079.23.116.349s.05.221.074.333c.054.255.1.516.152.786h0c.009.044.016.088.023.133.176,1.027.305,2.152.4,3.34q.026.341.049.689a133.1,133.1,0,0,1-.626,19.142" transform="translate(-2440.541 -1334.475)" fill="#2c2858"/>
      <path id="Trazado_238959" data-name="Trazado 238959" d="M2793.167,1042.666l12.618-3.617s.533,24.271-1.007,32.412c-.268,1.417-4.709,3.021-5.563,2.19-3.116-3.028-6.047-30.984-6.047-30.984" transform="translate(-2636.384 -970.174)" fill="#494c7f"/>
      <path id="Trazado_238960" data-name="Trazado 238960" d="M2884.114,1471h-5.644c-2.094-7.692-3.126-12.6-3.823-16.269-.521-2.738-.854-4.786-1.3-6.787,0-.011,0-.021,0-.031h0a3.92,3.92,0,0,1,2.032-4.2c1.436-.626,3.3-.077,4.524,2.156a15.1,15.1,0,0,1,.776,1.713h0c2.616,6.762,3.29,19.374,3.442,23.418" transform="translate(-2712.04 -1347.785)" fill="#494c7f"/>
      <path id="Trazado_238961" data-name="Trazado 238961" d="M2828.471,519.449h0l-2.355.01-.533,6.584,2.749,1.718,2.931-1.7v-7.542Z" transform="translate(-2666.983 -484.152)" fill="#de623c"/>
      <path id="Trazado_238962" data-name="Trazado 238962" d="M2686.409,305.5c2.135.321,3.275-2.9,3.275-2.9,1.311-.243,1.1-1.789,1.1-1.789a2.029,2.029,0,0,0,1.2-2.406c-.218-1.19-1.2-1.144-1.319-2.536-.094-1.117.6-3.847-2.406-4.088a2.838,2.838,0,0,0-1.864-2.589c-2.212-.629-2.772.943-3.745,1.216-1.087.306-3.413-.9-3.737,2.073a2.8,2.8,0,0,0-2.271,1.356,3.583,3.583,0,0,0,.148,3.419,2.72,2.72,0,0,0-1.541,1.88,2.854,2.854,0,0,0,.884,2.736,2.053,2.053,0,0,0,.972.417c.507.1.528,1.712.973,2.027a9.485,9.485,0,0,0,2.282,1.151Z" transform="translate(-2525.011 -269.891)" fill="#16142b"/>
      <path id="Trazado_238963" data-name="Trazado 238963" d="M2748.331,362.067c.438,4.589-2.089,9.054-5.134,9.462s-5.451-3.4-5.89-7.986,1.674-8.639,4.718-9.046,5.867,2.982,6.305,7.57" transform="translate(-2583.597 -330.969)" fill="#f37a50"/>
      <path id="Trazado_238964" data-name="Trazado 238964" d="M2753.262,500.193a.562.562,0,0,1-.59.555.616.616,0,0,1-.468-.7.561.561,0,0,1,.59-.555.616.616,0,0,1,.468.7" transform="translate(-2597.71 -466.382)"/>
      <path id="Trazado_238965" data-name="Trazado 238965" d="M2823.863,485.325a.607.607,0,0,1-.639.6.667.667,0,0,1-.507-.756.608.608,0,0,1,.639-.6.667.667,0,0,1,.507.756" transform="translate(-2664.275 -452.445)"/>
      <path id="Trazado_238966" data-name="Trazado 238966" d="M2786.763,505.639c-.365,1-.834,2.215-.834,2.215a1.354,1.354,0,0,0,1.474.734,1.019,1.019,0,0,1-.881-1.171c.094-.748.24-1.779.24-1.779" transform="translate(-2629.552 -472.123)" fill="#de623c"/>
      <path id="Trazado_238967" data-name="Trazado 238967" d="M2823.584,466.308a.3.3,0,0,0,.043-.053.355.355,0,0,0-.049-.441,1.249,1.249,0,0,0-1.718-.074.357.357,0,0,0-.04.442.239.239,0,0,0,.374.048c.468-.446,1.055.078,1.061.083a.235.235,0,0,0,.33-.005" transform="translate(-2663.377 -434.573)" fill="#16142b"/>
      <path id="Trazado_238968" data-name="Trazado 238968" d="M2742.294,482.447a.238.238,0,0,0,.084-.094.292.292,0,0,0-.073-.36.955.955,0,0,0-.833-.126,1.259,1.259,0,0,0-.674.822.282.282,0,0,0,.117.344.21.21,0,0,0,.291-.139.814.814,0,0,1,.4-.529.558.558,0,0,1,.467.074.192.192,0,0,0,.221.007" transform="translate(-2586.929 -449.879)" fill="#16142b"/>
      <path id="Trazado_238969" data-name="Trazado 238969" d="M2711.05,338.347l5.848-6.17,7.424,4.5-.93,6.343c-.184-2.932-1.7-1.99-2.484-2.849s-1.136-2.229-3.008-1.034a1.4,1.4,0,0,0-2.3.5c-.6,1.346-1.421,1.085-2.236,1.154-.961.081-.734,1.187-1.321,1.149Z" transform="translate(-2558.865 -310.16)" fill="#16142b"/>
      <path id="Trazado_238970" data-name="Trazado 238970" d="M2913.981,451.806a2.046,2.046,0,0,0,.257,2.522c.634.476,1.546.119,2.037-.8a2.046,2.046,0,0,0-.257-2.522c-.634-.476-1.546-.119-2.038.8" transform="translate(-2750.146 -420.917)" fill="#f37a50"/>
      <path id="Trazado_238971" data-name="Trazado 238971" d="M2928.162,466.576a.179.179,0,0,1-.087-.037,1.161,1.161,0,0,1-.441-1.211,1.016,1.016,0,0,1,.874-.828.22.22,0,0,1,.206.231.224.224,0,0,1-.2.243.605.605,0,0,0-.5.484.652.652,0,0,0,.276.684.265.265,0,0,1,.057.329.19.19,0,0,1-.191.105" transform="translate(-2763.29 -433.711)" fill="#de623c"/>
      <path id="Trazado_238972" data-name="Trazado 238972" d="M2798.825,551.467a2.85,2.85,0,0,1-.493-.044.306.306,0,0,1-.221-.353.272.272,0,0,1,.3-.262,2.563,2.563,0,0,0,2.535-1.247.239.239,0,0,1,.365-.081.348.348,0,0,1,.069.431,3.174,3.174,0,0,1-2.552,1.556" transform="translate(-2641.047 -513.008)" fill="#de623c"/>
      <path id="Trazado_238973" data-name="Trazado 238973" d="M2725.228,654.978s-4.928.6-9.545.638a54.96,54.96,0,0,1-9.545-1.1s.621-10.039.557-13.895c-.09-4.427.24-10.3.24-16.148,0,0,3.275-.624,5.123-.894.3-.044.563-.078.768-.1,0,0,1.053,2.615,5.64,0a4.888,4.888,0,0,1,.873,0,33.586,33.586,0,0,1,5.031,1c0,5.835.2,11.553.132,15.981.2,3.949.727,14.525.727,14.525" transform="translate(-2554.228 -582.132)" fill="#e62552"/>
      <path id="Trazado_238974" data-name="Trazado 238974" d="M.112.1,12.434,0l-.112,12.284L0,12.381Z" transform="translate(151.743 56.383) rotate(-86.547)" fill="#3f964f"/>
      <path id="Trazado_238975" data-name="Trazado 238975" d="M.428.224,4.884,0,4.456,7.482,0,7.705Z" transform="matrix(0.337, -0.941, 0.941, 0.337, 156.856, 49.376)" fill="#fff"/>
      <path id="Trazado_238976" data-name="Trazado 238976" d="M2675.423,704.8l-6.056.718-.989-11.691,7.03.834Z" transform="translate(-2518.582 -647.839)" fill="#b8c9ff"/>
      <path id="Trazado_238977" data-name="Trazado 238977" d="M.151.092,6.288,0,6.137,11.582,0,11.674Z" transform="translate(148.649 47.955) rotate(-5.719)" fill="#4bb35e"/>
      <path id="Trazado_238978" data-name="Trazado 238978" d="M2653.448,712.316l-12.193,4.728-4.018-19.236,12.193-4.728Z" transform="translate(-2489.184 -647.139)" fill="#444cc2"/>
      <path id="Trazado_238979" data-name="Trazado 238979" d="M.62.476,13.874,0l-.62,19.52L0,20Z" transform="matrix(0.969, -0.247, 0.247, 0.969, 148.507, 50.21)" fill="#b8c9ff"/>
      <path id="Trazado_238980" data-name="Trazado 238980" d="M.036.028,13.572,0l-.036,19.927L0,19.956Z" transform="translate(151.681 50.015) rotate(-0.796)" fill="#fff"/>
      <path id="Trazado_238981" data-name="Trazado 238981" d="M.425.326,13.636,0l-.425,19.658L0,19.984Z" transform="matrix(0.986, -0.166, 0.166, 0.986, 147.579, 50.417)" fill="#7078e6"/>
      <path id="Trazado_238982" data-name="Trazado 238982" d="M2731.29,699.238l3.869-3.123.624,1.848Z" transform="translate(-2577.971 -649.972)" fill="#fff"/>
      <path id="Trazado_238983" data-name="Trazado 238983" d="M2760.464,1031.647l.686,2.079,4.684-3.152Z" transform="translate(-2605.512 -962.261)" fill="#e3eaff"/>
      <path id="Trazado_238984" data-name="Trazado 238984" d="M2819.146,623.475h0a3.535,3.535,0,0,1-1.407,1.487,5.97,5.97,0,0,1-3.222.779,3.374,3.374,0,0,1-1.883-.83,2.673,2.673,0,0,1-.768-1.333c.3-.044.609-.1.813-.121,0,0,1.007,2.636,5.594.021a4.888,4.888,0,0,1,.873,0" transform="translate(-2654.035 -582.132)" fill="#c4204a"/>
      <path id="Trazado_238985" data-name="Trazado 238985" d="M2690.291,763.878c.451-1.229.87-1.353.87-3.108a8.31,8.31,0,0,0-.872-2.447c-.394-1.1-.876-1.96-1.088-1.919-.481.091-.536.447-.4,1.14.1.536.565,1.108.35,1.534-.191.379-.527.716-1.875-.168-1.722-1.129-2.164-1.878-2.538-1.254-.246.41.573,1.053,2.179,2.16-1-.186-2.8-2.279-3.209-1.347-.294.677,2.4,2.178,3.136,2.391-1.416-.031-2.958-1.79-3.234-1.421-.544.809,1.594,2.212,2.86,2.331-1.239.272-2.03-.843-2.249-.445-.409.743,1.962,2.115,3.472,2.274l2.6.279" transform="translate(-2532.879 -706.264)" fill="#f37a50"/>
      <path id="Trazado_238986" data-name="Trazado 238986" d="M2806.782,821.581l-2.205-.666.649-3.427,2.246.822Z" transform="translate(-2647.155 -763.301)" fill="#f37a50"/>
      <path id="Trazado_238987" data-name="Trazado 238987" d="M2833.236,653.415c-4.213-1.541-9.892-3.058-9.892-3.058a8.246,8.246,0,0,0-.865,4.279c6.052,5.789,14.41,7.769,17.09,6.32,2.446-1.323.753-18.156-5.389-22.194l-.213.024c-2.106,4.218-.731,14.629-.731,14.629" transform="translate(-2664.039 -596.422)" fill="#c4204a"/>
      <path id="Trazado_238988" data-name="Trazado 238988" d="M2696.367,922.322c.465-1.221.261-1.673,1.358-2.852.505-.543,1.5-.625,2.116-.88.954-.394,1.814-.549,1.932-.336.267.482.081.77-.444,1.117-.406.268-1.073.249-1.2.724-.108.422-.094.943,1.365,1.53,1.863.75,2.629.634,2.49,1.382-.091.491-1.044.205-2.816-.458.791.754,3.311.926,3,1.907-.226.713-2.976-.64-3.6-1.142.972,1.22,3.108,1.39,3.063,1.88-.14,1.021-2.455.09-3.381-.94.663,1.268,1.891,1.213,1.79,1.673-.189.858-2.641-.3-3.756-1.514l-1.92-2.09" transform="translate(-2545.004 -857.296)" fill="#f37a50"/>
      <path id="Trazado_238989" data-name="Trazado 238989" d="M2662.343,918.96l1.9,1.485,1.706-2.872-2.024-1.416Z" transform="translate(-2512.885 -855.428)" fill="#f37a50"/>
      <path id="Trazado_238990" data-name="Trazado 238990" d="M2555.839,828.113s2.176,7.4,7.15,10.5c.351-1.263,1.542-4.529,1.542-4.529s-2.086-2.938-3.44-5.328c-.818-.166-5.251-.641-5.251-.641" transform="translate(-2412.344 -773.221)" fill="#c4204a"/>
      <path id="Trazado_238991" data-name="Trazado 238991" d="M2428.645,1178.71a.811.811,0,0,0,.222-.554l1.034-15.715.229-3.464.5-7.555,1.092-16.589.1-1.5a2.484,2.484,0,0,0-.089-.51c-.233-.928-.911-2.609-1.835-2.245l-5.528-.032-4.79-.029h0l-15.335-.091c-.529,0-2.052,1.851-2.052,2.328l.123,2.075,2.571,43.323a.811.811,0,0,0,.223.554h23.54Z" transform="translate(-2267.296 -1055.498)" fill="#0e8282"/>
      <path id="Trazado_238992" data-name="Trazado 238992" d="M2387.75,1130.427h-32.709a.9.9,0,0,0-.962.826v2.752a.9.9,0,0,0,.962.826h32.709a.9.9,0,0,0,.962-.826v-2.752a.9.9,0,0,0-.962-.826" transform="translate(-2221.881 -1055.495)" fill="#0e8282"/>
      <path id="Trazado_238993" data-name="Trazado 238993" d="M2531.851,1281.456a9.508,9.508,0,0,0-8.82-6.526,8.738,8.738,0,0,0-1.025.06c-4.727.551-8.419,4.868-8.419,10.094a10.343,10.343,0,0,0,4.5,8.648,8.855,8.855,0,0,0,8.507.757,10.2,10.2,0,0,0,5.882-9.405,10.762,10.762,0,0,0-.624-3.628m-5.312,12.344a8.253,8.253,0,0,1-3.508.781,8.363,8.363,0,0,1-4.969-1.649,9.711,9.711,0,0,1-3.863-7.849,9.32,9.32,0,0,1,7.544-9.4,8.25,8.25,0,0,1,1.288-.1,8.94,8.94,0,0,1,8.405,6.578,10.113,10.113,0,0,1,.427,2.919,9.556,9.556,0,0,1-5.324,8.716" transform="translate(-2374.191 -1190.419)" fill="#49b9b9"/>
      <path id="Trazado_238994" data-name="Trazado 238994" d="M2597.927,1344.668h-8.683v-9.113l1.874-2.568h6.81Z" transform="translate(-2443.879 -1244.627)" fill="#0e8282"/>
      <path id="Trazado_238995" data-name="Trazado 238995" d="M2589.244,1335.555l2.027-2.568.345,2.568Z" transform="translate(-2444.512 -1244.628)" fill="#49b9b9"/>
      <rect id="Rectángulo_297201" data-name="Rectángulo 297201" width="5.648" height="0.683" transform="translate(147.439 90.244)" fill="#49b9b9"/>
      <rect id="Rectángulo_297202" data-name="Rectángulo 297202" width="7.314" height="0.683" transform="translate(145.773 95.161)" fill="#49b9b9"/>
      <rect id="Rectángulo_297203" data-name="Rectángulo 297203" width="5.648" height="0.683" transform="translate(147.439 98.438)" fill="#49b9b9"/>
      <rect id="Rectángulo_297204" data-name="Rectángulo 297204" width="2.406" height="0.683" transform="translate(145.773 93.522)" fill="#49b9b9"/>
      <rect id="Rectángulo_297205" data-name="Rectángulo 297205" width="3.718" height="0.683" transform="translate(145.773 96.8)" fill="#49b9b9"/>
      <rect id="Rectángulo_297206" data-name="Rectángulo 297206" width="3.264" height="0.683" transform="translate(149.785 96.8)" fill="#49b9b9"/>
      <rect id="Rectángulo_297207" data-name="Rectángulo 297207" width="4.651" height="0.683" transform="translate(148.435 93.522)" fill="#49b9b9"/>
      <rect id="Rectángulo_297208" data-name="Rectángulo 297208" width="4.329" height="0.683" transform="translate(145.773 91.883)" fill="#49b9b9"/>
      <rect id="Rectángulo_297209" data-name="Rectángulo 297209" width="2.673" height="0.683" transform="translate(150.413 91.883)" fill="#49b9b9"/>
      <path id="Trazado_238996" data-name="Trazado 238996" d="M688.342,966.408l-1.158-.455.584-3.068,1.864.765Z" transform="translate(-648.319 -899.059)" fill="#f37a50"/>
      <path id="Trazado_238997" data-name="Trazado 238997" d="M470.288,899.134c-2.022-.047-11.138-1.562-13.344-4.121.937-1.953,1.7-4.308,3.539-4.059,3.044.325,10.719,4.686,10.719,4.686Z" transform="translate(-430.97 -831.879)" fill="#30357f"/>
      <path id="Trazado_238998" data-name="Trazado 238998" d="M437.834,679.423s-4.5,2.689-4.785,7.575c-.181,3.105-.223,7.968,1.19,10.18.81,1.268,3.129-1.64,4.194-1.654,1.585-8.618.492-13.55-.6-16.1" transform="translate(-408.328 -634.388)" fill="#30357f"/>
      <path id="Trazado_238999" data-name="Trazado 238999" d="M708.1,973.79c-.456-.169-1.834-.9-2.663-.588-.5.188-.83,1.041-.959,1.691-.838.812.36,3.425.36,3.425l3.085-2.719Z" transform="translate(-664.361 -908.621)" fill="#f37a50"/>
      <path id="Trazado_239000" data-name="Trazado 239000" d="M860.99,967.1l.624,1.594a.28.28,0,0,1-.106.344l-1.066.585-.808-2.064,1.066-.585a.206.206,0,0,1,.29.126" transform="translate(-811.113 -902.854)" fill="#3f964f"/>
      <path id="Trazado_239001" data-name="Trazado 239001" d="M657.351,980.381s7.5-4.312,8.117-4.378a3.353,3.353,0,0,1,.659-.005l2.231,0,.808,2.064-1.444,2.013a4.6,4.6,0,0,1-.429.592c-.444.519-8.063,4.516-8.063,4.516a.548.548,0,0,1-.774-.336s-.389-1.4-.562-1.846-.827-1.7-.827-1.7a.748.748,0,0,1,.284-.916" transform="translate(-619.837 -911.29)" fill="#fff"/>
      <path id="Trazado_239002" data-name="Trazado 239002" d="M731.68,1050.575c-.386-.128-.9.277-1.1.873a.033.033,0,0,1-.007.044c-.035-.046-.078-.048-.138-.073a.856.856,0,0,0-.87.636c-.131.42-.006.851.344.933a.766.766,0,0,0,.792-.415.494.494,0,0,0,.252.167.894.894,0,0,0,.86-.435l.181.074c.35.082.807-.235,1.036-.741a.432.432,0,0,0,.251.167,1.007,1.007,0,0,0,1.036-.741.8.8,0,0,0-.4-1.114.886.886,0,0,0-.927.455.516.516,0,0,0-.269-.19.894.894,0,0,0-.86.435l-.181-.075" transform="translate(-688.278 -980.335)" fill="#f37a50"/>
      <path id="Trazado_239003" data-name="Trazado 239003" d="M759.6,983.146c-.368-.082-.755.407-.864,1.092s.1,1.307.469,1.39.755-.407.864-1.092-.1-1.308-.469-1.39" transform="translate(-715.839 -917.969)" fill="#f37a50"/>
      <path id="Trazado_239004" data-name="Trazado 239004" d="M223.193,1084.332l-10.541,6.557s8.6,19.206,13.541,25.153c.86,1.035,5.789-.575,6.144-1.815,1.293-4.52-9.143-29.894-9.143-29.894" transform="translate(-200.356 -1012.456)" fill="#3c3f73"/>
      <path id="Trazado_239005" data-name="Trazado 239005" d="M432.765,1490.77h-6.747c-.47-5.617-.995-15,.056-20.956h0q.1-.583.226-1.118a7.038,7.038,0,0,1,1.675-2.953,3.045,3.045,0,0,1,5.229.964c.011.021.021.043.03.065q.02.227.038.457s0,.008,0,.012c.029.394.052.795.068,1.207h0c.192,4.766-.424,10.933-.577,22.321" transform="translate(-401.251 -1367.558)" fill="#3c3f73"/>
      <path id="Trazado_239006" data-name="Trazado 239006" d="M145.134,1078.1l-12.618-3.617s-.533,24.271,1.007,32.412c.268,1.417,4.709,3.02,5.564,2.19,3.115-3.028,6.047-30.984,6.047-30.984" transform="translate(-124.623 -1003.256)" fill="#494c7f"/>
      <path id="Trazado_239007" data-name="Trazado 239007" d="M98.894,1483.34c0,.01,0,.021,0,.031-.988,4.4-1.418,9.027-4.5,20.707H88.228c.29-5.346,1.111-15.322,3.334-21.07a15.267,15.267,0,0,1,.776-1.713c2.323-4.251,7-2.4,6.556,2.045" transform="translate(-82.899 -1380.865)" fill="#494c7f"/>
      <path id="Trazado_239008" data-name="Trazado 239008" d="M119.61,628.856l9.632,1.661,3.523,1.691c.2,6.6-4.106,30.16-4.106,30.16s-6.23,2.749-9.918,2.789a15.092,15.092,0,0,1-8.931-3.2c-.187-6.986,1.252-15.63,3.742-24.4.952-3.352,3.465-7.494,6.057-8.7" transform="translate(-103.258 -587.173)" fill="#2c2858"/>
      <path id="Trazado_239009" data-name="Trazado 239009" d="M341.8,557.262h0l2.325.23.088,6.552s-.031,1.553-2.415,1.774c-2.047.19-3.2-2.285-3.2-2.285l.908-6.477Z" transform="translate(-319.254 -520.132)" fill="#de623c"/>
      <path id="Trazado_239010" data-name="Trazado 239010" d="M345.738,367.41c-.24,4.761,1.674,8.754,4.833,8.977s5.913-3.456,6.153-8.216-2.126-8.8-5.284-9.024-5.461,3.5-5.7,8.263" transform="translate(-325.972 -335.333)" fill="#f37a50"/>
      <path id="Trazado_239011" data-name="Trazado 239011" d="M463.747,507.375c.423,1,.963,2.23.963,2.23a1.429,1.429,0,0,1-1.487.853,1.075,1.075,0,0,0,.854-1.264c-.132-.765-.33-1.819-.33-1.819" transform="translate(-436.897 -473.744)" fill="#de623c"/>
      <path id="Trazado_239012" data-name="Trazado 239012" d="M325.942,324.6a5.384,5.384,0,0,1,4.063-5.162s-.717-.5-.311-1.791a2.859,2.859,0,0,0,1.758.926c4.353.48,6.9,1.929,6.155,3.813-.267.671,2.444,1.668.444,6.063-.173-.613-.071-2.741-.827-3.389s-.529,1.082-2.374.4c-1.861-.691-2.947-1.91-4.48-1.339-1.241.552-3.51,5.617-3.507,6-.007-.877-1.093-3.542-.922-5.519" transform="translate(-307.286 -296.597)" fill="#181b47"/>
      <path id="Trazado_239013" data-name="Trazado 239013" d="M356.815,482.58a12.1,12.1,0,0,1-1.352,3.006c.077-1.109-2.047-.888-2.936-1-1.61-.2-2.944-2.232-3.881.108-2.714-.29-1.911-5.747-1.911-5.747-1.087,4.069-.8,9.827,4.427,10.99,3.364.749,5.609-3.394,5.654-7.358" transform="translate(-326.448 -447.202)" fill="#181b47"/>
      <path id="Trazado_239014" data-name="Trazado 239014" d="M503.939,477.294a.284.284,0,0,1-.218-.193.92.92,0,0,0-.452-.574.859.859,0,0,0-.693.081.256.256,0,0,1-.37-.138.357.357,0,0,1,.115-.438,1.339,1.339,0,0,1,1.127-.12,1.486,1.486,0,0,1,.778.93.351.351,0,0,1-.142.429.236.236,0,0,1-.144.025" transform="translate(-473.667 -444.29)" fill="#181b47"/>
      <path id="Trazado_239015" data-name="Trazado 239015" d="M414.9,460.9a.268.268,0,0,1-.157-.108.369.369,0,0,1,.031-.459,1.577,1.577,0,0,1,1.3-.585,1.331,1.331,0,0,1,.871.573.366.366,0,0,1-.056.456.248.248,0,0,1-.384-.064.779.779,0,0,0-.5-.319,1.123,1.123,0,0,0-.88.434.245.245,0,0,1-.23.072" transform="translate(-391.066 -429.263)" fill="#181b47"/>
      <path id="Trazado_239016" data-name="Trazado 239016" d="M309.546,465.7a2.122,2.122,0,0,1-.148,2.618c-.632.532-1.589.223-2.138-.69a2.122,2.122,0,0,1,.148-2.618c.632-.532,1.589-.223,2.138.69" transform="translate(-289.315 -433.945)" fill="#f37a50"/>
      <path id="Trazado_239017" data-name="Trazado 239017" d="M325.888,481a.191.191,0,0,0,.087-.044,1.217,1.217,0,0,0,.4-1.277,1.026,1.026,0,0,0-.94-.8.231.231,0,0,0-.2.252.226.226,0,0,0,.213.238.61.61,0,0,1,.537.466.683.683,0,0,1-.253.723.276.276,0,0,0-.044.343.193.193,0,0,0,.2.1" transform="translate(-306.633 -447.141)" fill="#de623c"/>
      <path id="Trazado_239018" data-name="Trazado 239018" d="M429.732,486.792a.808.808,0,0,0-.029-1.007.539.539,0,0,0-.851.035.808.808,0,0,0,.029,1.007.539.539,0,0,0,.851-.035" transform="translate(-404.298 -453.407)"/>
      <path id="Trazado_239019" data-name="Trazado 239019" d="M504.656,498.725a.494.494,0,0,0,.781-.032.741.741,0,0,0-.027-.924.494.494,0,0,0-.781.032.741.741,0,0,0,.027.924" transform="translate(-475.844 -464.611)"/>
      <path id="Trazado_239020" data-name="Trazado 239020" d="M370.077,856.385l1.074,1.213a.293.293,0,0,1,.007.366l-.811,1.006-1.39-1.571.811-1.006a.2.2,0,0,1,.309-.009" transform="translate(-347.909 -799.553)" fill="#e62552"/>
      <path id="Trazado_239021" data-name="Trazado 239021" d="M207.5,881.553s5.643-7.26,6.2-7.591a3.647,3.647,0,0,1,.612-.291l2.075-.97,1.39,1.571-.722,2.5a5.316,5.316,0,0,1-.217.737c-.253.676-6.108,7.7-6.108,7.7a.522.522,0,0,1-.824.023s-.8-1.137-1.094-1.474-1.295-1.225-1.295-1.225a.783.783,0,0,1-.019-.976" transform="translate(-195.342 -814.854)" fill="#fff"/>
      <path id="Trazado_239022" data-name="Trazado 239022" d="M324.848,902.679l-.028,0a3.648,3.648,0,0,1-2.584-2.76.2.2,0,0,1,.125-.239.169.169,0,0,1,.2.148,3.206,3.206,0,0,0,2.313,2.459.2.2,0,0,1,.138.229.179.179,0,0,1-.165.166" transform="translate(-303.8 -840.036)" fill="#e3eaff"/>
      <path id="Trazado_239023" data-name="Trazado 239023" d="M210.079,912.071c.436-.8.377-1.82.876-2.262.3-.265.975-.046,1.59-.227.6-.174.859-.856,1.553-1.18.568-.265.846-.137.949.127l-.93,1.477c-.182.454.063,1.235,1.5,2.428,1.1.912,2.2,1.085,1.939,1.9-.172.535-.755.054-1.534-.536.785,1.007,1.146.657,1,1.353-.182.84-1.66-.327-2.3-1.017.622,1.336,1.724,1.2,1.6,1.741-.163.6-1.2.6-2.094-.744.628,1.352,1.328,1.154,1.113,1.633-.223.5-2.077-.09-3.428-1.813-.348-.443-1.837-2.882-1.837-2.882" transform="translate(-197.927 -848.052)" fill="#f37a50"/>
      <path id="Trazado_239024" data-name="Trazado 239024" d="M41.394,629.022s-8.5,2.751-14.363,12.905c2.043,4.8,5.179,2.729,5.179,2.729l8.3-5.527a10.451,10.451,0,0,0,2.171-5.929c.023-3.234-1.29-4.178-1.29-4.178" transform="translate(-25.129 -587.328)" fill="#30357f"/>
      <path id="Trazado_239025" data-name="Trazado 239025" d="M39.428,808.45l-7.212-6.838s-1.551-3.117-5.186.233c.527,2.7,2.545,7.435,10.081,10.053a14.128,14.128,0,0,0,2.316-3.448" transform="translate(-25.129 -747.245)" fill="#30357f"/>
      <path id="Trazado_239026" data-name="Trazado 239026" d="M420.058,568.491a2.813,2.813,0,0,0,1.1-.22.356.356,0,0,0,.158-.433.27.27,0,0,0-.365-.187,2.3,2.3,0,0,1-2.8-.858.252.252,0,0,0-.4-.028.378.378,0,0,0-.023.471A2.858,2.858,0,0,0,420,568.49h.063" transform="translate(-393.883 -529.12)" fill="#de623c"/>
      <path id="Trazado_239027" data-name="Trazado 239027" d="M707.585,1031.409a.149.149,0,0,1-.091-.032c-1.071-.823-1.2-2.844-1.209-2.93a.191.191,0,0,1,.156-.212.18.18,0,0,1,.179.184c0,.019.127,1.91,1.057,2.625a.222.222,0,0,1,.049.275.163.163,0,0,1-.141.091" transform="translate(-666.349 -960.077)" fill="#e3eaff"/>
      <path id="Trazado_239028" data-name="Trazado 239028" d="M808.725,985.958a.152.152,0,0,1-.106-.044,6.118,6.118,0,0,1-1.589-3.62.192.192,0,0,1,.154-.214.179.179,0,0,1,.181.182,5.785,5.785,0,0,0,1.465,3.344.224.224,0,0,1,.025.28.159.159,0,0,1-.131.073" transform="translate(-761.454 -916.981)" fill="#e3eaff"/>
      <path id="Trazado_239029" data-name="Trazado 239029" d="M477.758,1133.026l-.1,1.5-2.852,43.323a.816.816,0,0,1-.242.573h-23.5a.816.816,0,0,1-.242-.573l-1.111-18.724-.34-5.731-1.12-18.868-.029-.482h0l-.095-1.594c0-.477,1.523-2.328,2.052-2.328l25.654.152c1.155-.456,1.924,2.278,1.924,2.755" transform="translate(-422.648 -1055.208)" fill="#ffd947"/>
      <path id="Trazado_239030" data-name="Trazado 239030" d="M433.691,1130.121H400.982a.9.9,0,0,0-.962.826v2.752a.9.9,0,0,0,.962.826h32.709a.9.9,0,0,0,.962-.826v-2.752a.9.9,0,0,0-.962-.826" transform="translate(-377.233 -1055.209)" fill="#fad56e"/>
      <path id="Trazado_239031" data-name="Trazado 239031" d="M570.146,1274.619a10.165,10.165,0,1,0,10.618,10.155,10.406,10.406,0,0,0-10.618-10.155m0,19.652a9.507,9.507,0,1,1,9.931-9.5,9.732,9.732,0,0,1-9.931,9.5" transform="translate(-529.712 -1190.129)" fill="#f9ecbb"/>
      <path id="Trazado_239032" data-name="Trazado 239032" d="M693.843,1314.1H692.36a.241.241,0,0,0-.218.258v1.389h1.919v-1.389a.241.241,0,0,0-.218-.258" transform="translate(-652.999 -1226.991)" fill="#f9ecbb"/>
      <path id="Trazado_239033" data-name="Trazado 239033" d="M673.682,1496.965h-4.17a.16.16,0,0,0-.145.172v3a.642.642,0,0,0,.582.689h3.3a.642.642,0,0,0,.582-.689v-3a.161.161,0,0,0-.145-.172" transform="translate(-631.498 -1397.736)" fill="#f9ecbb"/>
      <path id="Trazado_239034" data-name="Trazado 239034" d="M674.366,1412.311h-4.1a.161.161,0,0,0-.146.172v4.837a.161.161,0,0,0,.146.172h4.1a.161.161,0,0,0,.146-.172v-4.837a.161.161,0,0,0-.146-.172" transform="translate(-632.206 -1318.693)" fill="#f9ecbb"/>
      <path id="Trazado_239035" data-name="Trazado 239035" d="M673.694,1375.77a5.154,5.154,0,0,0-.273-.709h-3.787a5.176,5.176,0,0,0-.273.709,2,2,0,0,0,.1,1.329h4.134a2,2,0,0,0,.1-1.329" transform="translate(-631.424 -1283.912)" fill="#f9ecbb"/>
      <path id="Trazado_239036" data-name="Trazado 239036" d="M675.469,1341.342l.934-2.394h.252l-.883,2.445Z" transform="translate(-637.259 -1250.193)" fill="#f9ecbb"/>
      <path id="Trazado_239037" data-name="Trazado 239037" d="M722.612,1341.342l-.935-2.394H721.4l.883,2.445Z" transform="translate(-680.616 -1250.193)" fill="#f9ecbb"/>
      <path id="Trazado_239038" data-name="Trazado 239038" d="M2142.194,711.269c3.041,1.3,4.942,8.488,4.016,17.422-2.371,1.8-3.479-3.1-3.479-3.1s-1.286-5.661-1.942-7.828c-1.575-5.2-.061-7.123,1.4-6.5" transform="translate(-2019.903 -664.017)" fill="#de623c"/>
      <path id="Trazado_239039" data-name="Trazado 239039" d="M1817.286,384.193c-2.013-3.519-3.655-9.014-.531-10.492s2.613-4.344,1.907-7.11,1.825-8.257,6.963-8.611c5.7-.393,9.792,4.42,9.411,7.215s-.072,4.564,1.687,5.528a5.952,5.952,0,0,1,1.442,8.089c-2.22,3.225.138,1.515-.018,4.684s-18.723,4.435-20.861.7" transform="translate(-1712.998 -334.232)" fill="#2c2858"/>
      <path id="Trazado_239040" data-name="Trazado 239040" d="M1895.059,1045.211l8.233-5.706-2.485-9.6-13.269.275-1.95,9.812,8.447,5.25Z" transform="translate(-1779.622 -961.634)" fill="#16142b"/>
      <path id="Trazado_239041" data-name="Trazado 239041" d="M2127.25,700.673a10.475,10.475,0,0,0-5.387-6.75l-.644-.16-1.141,6.1s1.514,2.4,2.559,4.551Z" transform="translate(-2000.981 -647.776)" fill="#0e6a41"/>
      <path id="Trazado_239042" data-name="Trazado 239042" d="M1798.89,716.254c-2.987,1.46-4.763,10.642-5.107,16.213,2.439,1.67,3.612-1.648,3.612-1.648s2.581-5.951,3.152-8.151c1.37-5.281-.217-7.119-1.657-6.415" transform="translate(-1692.956 -668.642)" fill="#de623c"/>
      <path id="Trazado_239043" data-name="Trazado 239043" d="M1820.2,705.906a9.551,9.551,0,0,1,4.948-6.862l.638-.2,1.377,6.029a30.489,30.489,0,0,0-2.624,4.565Z" transform="translate(-1717.9 -652.525)" fill="#0e6a41"/>
      <path id="Trazado_239044" data-name="Trazado 239044" d="M1919.771,689.777a9.626,9.626,0,0,0-.966-3.449,7.207,7.207,0,0,1-.3-2.988,11.488,11.488,0,0,1,.251-3.111,15.964,15.964,0,0,0-3.952-.961l-4.59.2a16.173,16.173,0,0,0-4.006,1.1,11.941,11.941,0,0,1,.486,3.162,7.418,7.418,0,0,1-.325,3.029,9.857,9.857,0,0,0-.763,3.4,9.3,9.3,0,0,0,.889,2.78l-.275,10.253,13.593-.282-.874-10.1a10.5,10.5,0,0,0,.835-3.036" transform="translate(-1798.515 -634.243)" fill="#3f964f"/>
      <path id="Trazado_239045" data-name="Trazado 239045" d="M1866.053,801l2.13,3.979c-.692.953-4.06,5.018-5.594,8.062-2.185,4.337-1.621,14.93,6.813,14.93,8.268,0,7.939-8.278,7.432-12.452-.615-5.057-7.672-9.653-6.895-10.8a23.277,23.277,0,0,0,1.666-4.829l-2.641,1.179-2.022-1.179Z" transform="translate(-1756.885 -746.867)" fill="#fff"/>
      <path id="Trazado_239046" data-name="Trazado 239046" d="M1995.881,884.037s1.6,6.24,2.875,7.62-2-5.507-2.875-7.62" transform="translate(-1883.739 -825.438)" fill="#c2d1ff"/>
      <path id="Trazado_239047" data-name="Trazado 239047" d="M2014.706,893.9s2.364,5.816,3.522,5.4-3.522-5.4-3.522-5.4" transform="translate(-1901.51 -834.65)" fill="#c2d1ff"/>
      <path id="Trazado_239048" data-name="Trazado 239048" d="M1970.343,838.451a7.96,7.96,0,0,1-1.029-2.7,5.444,5.444,0,0,1,1.286,2.023,5.725,5.725,0,0,1,1.084-1.827,10.027,10.027,0,0,1-.729,2.632Z" transform="translate(-1858.66 -780.356)" fill="#c2d1ff"/>
      <path id="Trazado_239049" data-name="Trazado 239049" d="M2017.276,1117.889a1.436,1.436,0,0,1,1.055-.339,2.1,2.1,0,0,1-.505,1.147,1.436,1.436,0,0,1-1.055.339,2.1,2.1,0,0,1,.505-1.147" transform="translate(-1903.46 -1043.467)" fill="#3f964f"/>
      <path id="Trazado_239050" data-name="Trazado 239050" d="M1906.022,1034.07a2.492,2.492,0,0,1-.26,1.6c-.43.592-1.012.836-1.3.543s-.171-1.009.26-1.6a1.633,1.633,0,0,1,1.3-.543" transform="translate(-1797.292 -965.525)" fill="#e6cf91"/>
      <path id="Trazado_239051" data-name="Trazado 239051" d="M1946.3,1059.117a1.612,1.612,0,0,1-1.345.352c-.63-.233-.936-1.2-.936-1.2a1.611,1.611,0,0,1,1.345-.352c.63.233.936,1.2.936,1.2" transform="translate(-1834.779 -987.744)" fill="#e6cf91"/>
      <path id="Trazado_239052" data-name="Trazado 239052" d="M1976.442,1096s.315,1.244-.364,1.652c-.252-.019-.223-.835-.223-.835l-.1-.741Z" transform="translate(-1864.744 -1023.352)" fill="#b83131"/>
      <path id="Trazado_239053" data-name="Trazado 239053" d="M1967.98,1108.332s-.059.51,1.034,1.127a3.233,3.233,0,0,1-1.18.313l-.417-.939Z" transform="translate(-1856.869 -1034.865)" fill="#c4670a"/>
      <path id="Trazado_239054" data-name="Trazado 239054" d="M1908.822,1054.976a1.187,1.187,0,0,0,.012.365,1.082,1.082,0,0,0,.18.43,5.96,5.96,0,0,1-4.06-2.528,2.37,2.37,0,0,1-.182-.6,1.2,1.2,0,0,1,.642-1.389.978.978,0,0,1,.5-.052,1.842,1.842,0,0,1,1.23,1,2.4,2.4,0,0,0,1.522,1.259,1.293,1.293,0,0,0,.46.566,1.051,1.051,0,0,0,.28.135.98.98,0,0,0-.587.817" transform="translate(-1797.711 -981.509)" fill="#fa942f"/>
      <path id="Trazado_239055" data-name="Trazado 239055" d="M1929.157,1057.477h0Z" transform="translate(-1820.751 -987.381)" fill="#fa942f"/>
      <path id="Trazado_239056" data-name="Trazado 239056" d="M1926.3,1061.908h0" transform="translate(-1818.052 -991.518)" fill="#ea3f3f"/>
      <path id="Trazado_239057" data-name="Trazado 239057" d="M1901.392,1056.543l0,.012c-2.251-.226-4.5-1.109-5.487-3.463-.031-.074-.061-.149-.09-.226a.955.955,0,0,1,1.119-1.273.87.87,0,0,1,.542.646h0a4.006,4.006,0,0,0,3.172,2.125,1.048,1.048,0,0,0,.28.135.98.98,0,0,0-.587.817,1.191,1.191,0,0,0,.012.365,1.086,1.086,0,0,0,.18.43.781.781,0,0,0,.838.334l0,0c0,.033.008.066.014.1" transform="translate(-1789.233 -981.85)" fill="#ea3f3f"/>
      <path id="Trazado_239058" data-name="Trazado 239058" d="M1894.674,1077.4a2.537,2.537,0,0,1-1.259.425,7.121,7.121,0,0,1-1.248.01,4.645,4.645,0,0,1-2-.554,8.369,8.369,0,0,1-.693-.48c-2.066-1.6-1.868-3.2-1.048-3.636a.978.978,0,0,1,.386-.111,1.721,1.721,0,0,1,1.5.981,2.776,2.776,0,0,0,2.553,1.354,1.2,1.2,0,0,0,.012.365,1.082,1.082,0,0,0,.181.43.78.78,0,0,0,.838.334l0,0c0,.033.008.066.015.1a.094.094,0,0,0,0,.012.909.909,0,0,0,.765.773" transform="translate(-1781.747 -1001.925)" fill="#fa942f"/>
      <path id="Trazado_239059" data-name="Trazado 239059" d="M1981.874,1129.018c.017.091.16.13.319.088s.274-.15.256-.241-.16-.13-.318-.088-.274.15-.256.241" transform="translate(-1870.515 -1053.939)" fill="#fad56e"/>
      <path id="Trazado_239060" data-name="Trazado 239060" d="M1970.172,1135.163c-.024.089.083.208.238.265s.3.032.324-.057-.083-.208-.239-.265-.3-.032-.323.057" transform="translate(-1859.466 -1059.835)" fill="#fad56e"/>
      <path id="Trazado_239061" data-name="Trazado 239061" d="M1905.341,1112.274c-.058.036-.054.181.009.323s.161.228.219.192.054-.18-.009-.323-.161-.229-.219-.193" transform="translate(-1798.23 -1038.538)" fill="#fad56e"/>
      <path id="Trazado_239062" data-name="Trazado 239062" d="M1894.613,1099.088c-.058.036-.054.181.009.323s.161.229.219.192.054-.18-.009-.323-.161-.228-.219-.192" transform="translate(-1788.102 -1026.226)" fill="#fad56e"/>
      <path id="Trazado_239063" data-name="Trazado 239063" d="M1966.129,1126.768c0,.073.108.128.236.122s.23-.07.228-.143-.108-.128-.236-.122-.23.07-.228.143" transform="translate(-1855.653 -1051.944)" fill="#fad56e"/>
      <path id="Trazado_239064" data-name="Trazado 239064" d="M1904.024,1103.354c.027.066.142.067.258,0s.188-.172.161-.239-.142-.067-.258,0-.187.172-.161.239" transform="translate(-1797.02 -1029.948)" fill="#fad56e"/>
      <path id="Trazado_239065" data-name="Trazado 239065" d="M2081.719,976.966a2.5,2.5,0,0,0,.448-.5,1.054,1.054,0,0,0,.184-.581.218.218,0,0,0-.4-.087s.342.309-.287,1Z" transform="translate(-1964.715 -911.014)" fill="#82421a"/>
      <path id="Trazado_239066" data-name="Trazado 239066" d="M2057.531,1013.774" transform="translate(-1941.937 -946.575)" fill="#f5e9a8"/>
      <path id="Trazado_239067" data-name="Trazado 239067" d="M2057.6,1013.864" transform="translate(-1942.002 -946.659)" fill="#f5e9a8"/>
      <path id="Trazado_239068" data-name="Trazado 239068" d="M2036.339,979.9a1.971,1.971,0,0,1,.088,1.3l-.9.66-.067.727s-.414.65-.865.719a1.064,1.064,0,0,0,.725.234c.051.186.343.453.505.427a1.334,1.334,0,0,0,.439.7,4.625,4.625,0,0,1-.078-1.033c.153-.109,1-.837,1-.837l.328-1.123s.316-.227.471-.2a3.3,3.3,0,0,1,.339.07.8.8,0,0,0-.752-.273c-.029-.091-.4-.551-.674-.522-.045-.122-.275-.773-.561-.845" transform="translate(-1920.284 -914.945)" fill="#fad56e"/>
      <path id="Trazado_239069" data-name="Trazado 239069" d="M2066.258,980.18a1.013,1.013,0,0,0-.5-.223,1.4,1.4,0,0,1,.506.881.554.554,0,0,1,.364.134.715.715,0,0,1,.24.358,1.023,1.023,0,0,1,.875.244,1.327,1.327,0,0,0-.368-.481,1.637,1.637,0,0,0-.605-.3l-.068-.018c-.019-.038-.038-.073-.057-.11a1.654,1.654,0,0,0-.389-.484" transform="translate(-1949.707 -915)" fill="#ea3f3f"/>
      <path id="Trazado_239070" data-name="Trazado 239070" d="M2034.595,1031.289a1.318,1.318,0,0,0,.324.393,1.452,1.452,0,0,0,.345.207c.054.023.11.046.172.066a2.239,2.239,0,0,0,.133.2,1.532,1.532,0,0,0,.258.269,1.139,1.139,0,0,0,.438.228,1.229,1.229,0,0,1-.439-.7.569.569,0,0,1-.309-.131.715.715,0,0,1-.214-.295.924.924,0,0,1-.709-.235" transform="translate(-1920.285 -962.929)" fill="#ea3f3f"/>
      <path id="Trazado_239071" data-name="Trazado 239071" d="M2006.593,1093.307a.784.784,0,0,1,.1.8,3.627,3.627,0,0,0,.634.38l.2-.877-.65-.574Z" transform="translate(-1893.851 -1020.58)" fill="#c4670a"/>
      <path id="Trazado_239072" data-name="Trazado 239072" d="M2066.5,1116.072c-.2.271,0,.854.439,1.3s.955.59,1.151.319,0-.854-.438-1.3-.955-.59-1.152-.319" transform="translate(-1950.335 -1041.964)" fill="#b83131"/>
      <path id="Trazado_239073" data-name="Trazado 239073" d="M2067.169,1113.207c-.2.271,0,.854.438,1.3s.955.59,1.152.319,0-.854-.438-1.3-.956-.59-1.152-.319" transform="translate(-1950.963 -1039.288)" fill="#ea3f3f"/>
      <path id="Trazado_239074" data-name="Trazado 239074" d="M2005.421,1097.173l.063.039a.3.3,0,0,0,0-.032c0-.006,0-.011,0-.017l-.028,0-.038.007" transform="translate(-1892.745 -1024.436)" fill="#fab62f"/>
      <path id="Trazado_239075" data-name="Trazado 239075" d="M2003.854,1084.144a.608.608,0,0,1,.253.027.716.716,0,0,1,.344.247.846.846,0,0,1,.088.138,1,1,0,0,1,.079.67.959.959,0,0,1-.028.1,8.682,8.682,0,0,0,.9.342c1.757.564,2.919.394,3.025-.07a1.56,1.56,0,0,0,.02-.545h0c-.005-.034-.012-.068-.02-.1a.462.462,0,0,0-.211-.324.24.24,0,0,0-.034-.014l-4.338-1.392a.843.843,0,0,1-.242.356.963.963,0,0,1,.162.569" transform="translate(-1891.112 -1011.417)" fill="#fa942f"/>
      <path id="Trazado_239076" data-name="Trazado 239076" d="M2005.421,1097.173l.063.039a.3.3,0,0,0,0-.032c0-.006,0-.011,0-.017l-.028,0-.038.007" transform="translate(-1892.745 -1024.436)" fill="#d49415"/>
      <path id="Trazado_239077" data-name="Trazado 239077" d="M2003.854,1082.054a.614.614,0,0,1,.253.027.717.717,0,0,1,.344.247.857.857,0,0,1,.088.139,9.466,9.466,0,0,0,1.1.441c1.009.324,2.775.613,2.885.131a.291.291,0,0,0,.007-.079h0a.328.328,0,0,0-.02-.1.831.831,0,0,0-.22-.313l-.026-.025a6.661,6.661,0,0,0-2.281-1.127,7.973,7.973,0,0,0-2.015-.412c0,.01,0,.02-.006.03a.989.989,0,0,1-.035.118.842.842,0,0,1-.242.356.964.964,0,0,1,.162.568" transform="translate(-1891.112 -1009.328)" fill="#c4670a"/>
      <path id="Trazado_239078" data-name="Trazado 239078" d="M2006.121,1097.179c0-.006,0-.012,0-.017l-.028,0,.028.014" transform="translate(-1893.379 -1024.435)" fill="#82421a"/>
      <path id="Trazado_239079" data-name="Trazado 239079" d="M2003.934,1077.364a.844.844,0,0,1-.242.356.963.963,0,0,1,.162.569.606.606,0,0,1,.253.027.717.717,0,0,1,.344.247,8.236,8.236,0,0,0,1.1.319c1.3.283,2.433.23,2.74-.1l.009-.011a.283.283,0,0,0,.07-.145l.054-.345c.072-.465-1.149-.61-2.634-.933-.694-.151-1.323-.314-1.8-.4a.991.991,0,0,1-.017.267c0,.01,0,.02-.006.03a1,1,0,0,1-.035.118" transform="translate(-1891.112 -1005.561)" fill="#82421a"/>
      <path id="Trazado_239080" data-name="Trazado 239080" d="M2011.167,1070.908l.31.947a24.8,24.8,0,0,1,3.156,1.455c.018.187-.1,1.338-.1,1.338l1.284-.53-.076-1.343-1.375-1.575Z" transform="translate(-1898.169 -999.922)" fill="#ffc930"/>
      <path id="Trazado_239081" data-name="Trazado 239081" d="M2053.325,1082.531c-.033.36.451.716,1.083.8s1.129-.175,1.2-.506a1.111,1.111,0,0,0,.046-.227c-.068-.317-.568-.5-1.13-.57-.63-.08-1.168.146-1.2.506" transform="translate(-1937.965 -1010.286)" fill="#b83131"/>
      <path id="Trazado_239082" data-name="Trazado 239082" d="M2054.162,1079.105c-.032.36.453.716,1.083.8s1.168-.146,1.2-.506-.452-.716-1.083-.8-1.168.146-1.2.506" transform="translate(-1938.756 -1007.088)" fill="#ea3f3f"/>
      <path id="Trazado_239083" data-name="Trazado 239083" d="M2016.987,1075.277c-.163.334.145.9.686,1.274s1.113.4,1.275.062-.145-.9-.687-1.274-1.113-.4-1.275-.062" transform="translate(-1903.622 -1003.783)" fill="#b83131"/>
      <path id="Trazado_239084" data-name="Trazado 239084" d="M2016.447,1071.288c-.163.335.145.9.687,1.274s1.113.4,1.275.062-.145-.9-.686-1.274-1.113-.4-1.275-.062" transform="translate(-1903.112 -1000.058)" fill="#ea3f3f"/>
      <path id="Trazado_239085" data-name="Trazado 239085" d="M1993.74,1051.056c.388.163.355.562,0,.561a2.305,2.305,0,0,0-.913.346c-.3.125-1.124-.39-1.453-.41s-.613.171-.788-.065a1.533,1.533,0,0,0-1.044-.466.615.615,0,0,1-.655-.355c-.041-.2-.105-.153-.421-.141-.651.026-.569-.516-.37-.552.937-.172,1.1-.564,2.149-.329.354.079,3.492,1.411,3.492,1.411" transform="translate(-1876.257 -980)" fill="#3f964f"/>
      <path id="Trazado_239086" data-name="Trazado 239086" d="M2026.665,1035.87c.225-.469.363-1.646-1.717-3.04-2.125-1.425-2.86-.649-3.086-.18l0,.006a.024.024,0,0,0,0,.007c-.1.293.855,1.235,2.161,2.11s2.475,1.356,2.639,1.108a.024.024,0,0,0,0-.007l0-.006Z" transform="translate(-1908.253 -963.605)" fill="#fa942f"/>
      <path id="Trazado_239087" data-name="Trazado 239087" d="M2084.5,1068.831c-.021.052.046.142.149.2s.2.064.225.011-.046-.142-.149-.2-.2-.064-.226-.012" transform="translate(-1967.392 -997.948)" fill="#d49415"/>
      <path id="Trazado_239088" data-name="Trazado 239088" d="M2037.56,1046.369c0,.058.084.115.2.128s.211-.023.216-.08-.084-.115-.2-.128-.21.022-.215.08" transform="translate(-1923.084 -976.932)" fill="#d49415"/>
      <path id="Trazado_239089" data-name="Trazado 239089" d="M2064.326,1049.25c0,.057.084.115.2.128s.211-.022.216-.08-.083-.115-.2-.128-.211.023-.216.08" transform="translate(-1948.352 -979.622)" fill="#b87b1f"/>
      <path id="Trazado_239090" data-name="Trazado 239090" d="M2005.421,1097.173l.063.039a.3.3,0,0,0,0-.032c0-.006,0-.011,0-.017l-.028,0-.038.007" transform="translate(-1892.745 -1024.436)" fill="#606060"/>
      <path id="Trazado_239091" data-name="Trazado 239091" d="M2005.421,1097.173l.063.039a.3.3,0,0,0,0-.032c0-.006,0-.011,0-.017l-.028,0-.038.007" transform="translate(-1892.745 -1024.436)" fill="#606060"/>
      <path id="Trazado_239092" data-name="Trazado 239092" d="M1926.729,964.689a3.541,3.541,0,0,0-.354-.781.956.956,0,0,0-.515-.441c-.248,0-.342.352-.214.531,0,0,.414-.374.9.719Z" transform="translate(-1817.383 -899.603)" fill="#82421a"/>
      <path id="Trazado_239093" data-name="Trazado 239093" d="M1959.857,1017.357" transform="translate(-1849.732 -949.92)" fill="#f5e9a8"/>
      <path id="Trazado_239094" data-name="Trazado 239094" d="M1959.984,1017.306" transform="translate(-1849.852 -949.873)" fill="#f5e9a8"/>
      <path id="Trazado_239095" data-name="Trazado 239095" d="M1922.911,965.565a1.506,1.506,0,0,1,1.312.295c.05.2.362,1.46.362,1.46l.7.325a2.649,2.649,0,0,1,.432,1.426,1.817,1.817,0,0,0,.464-.927.833.833,0,0,0,.583-.562,1.25,1.25,0,0,0,.831-.383,3.469,3.469,0,0,1-1.044-.224c-.058-.246-.5-1.656-.5-1.656l-1-.813a1.932,1.932,0,0,1-.051-.717c.071-.208.178-.446.178-.446a1.265,1.265,0,0,0-.51.953c-.1.011-.672.375-.731.765-.135.023-.851.133-1.014.505" transform="translate(-1814.854 -899.486)" fill="#fad56e"/>
      <path id="Trazado_239096" data-name="Trazado 239096" d="M1923.354,964.9a1.6,1.6,0,0,0-.379.616,1.281,1.281,0,0,1,1.031-.418.916.916,0,0,1,.249-.461.689.689,0,0,1,.43-.217,1.753,1.753,0,0,1,.521-1.132,1.338,1.338,0,0,0-.592.355,2.523,2.523,0,0,0-.492.742l-.039.089c-.044.014-.084.029-.127.044a1.713,1.713,0,0,0-.6.384" transform="translate(-1814.915 -899.433)" fill="#ea3f3f"/>
      <path id="Trazado_239097" data-name="Trazado 239097" d="M1972.978,1023.356a1.387,1.387,0,0,0,.492-.323,2.109,2.109,0,0,0,.315-.411c.04-.068.081-.138.12-.217a2.121,2.121,0,0,0,.237-.121,1.76,1.76,0,0,0,.713-.8,1.155,1.155,0,0,1-.831.383.909.909,0,0,1-.228.385.709.709,0,0,1-.359.2,1.55,1.55,0,0,1-.459.905" transform="translate(-1862.119 -953.771)" fill="#ea3f3f"/>
      <path id="Trazado_239098" data-name="Trazado 239098" d="M1960.4,1003.08a.194.194,0,0,1-.09.235c-.075.026-.156-.038-.182-.142s-.033-.315.042-.341.2.143.23.247" transform="translate(-1849.971 -936.357)" fill="#82421a"/>
      <path id="Trazado_239099" data-name="Trazado 239099" d="M1966.05,998.547a.2.2,0,0,1,.06.248.14.14,0,0,1-.217.03c-.077-.06-.2-.216-.154-.293s.234-.046.31.014" transform="translate(-1855.277 -932.301)" fill="#82421a"/>
      <path id="Trazado_239100" data-name="Trazado 239100" d="M1886.656,1007.091a2.206,2.206,0,0,1,.32,1.238,1.524,1.524,0,0,1-.985-.563,2.209,2.209,0,0,1-.319-1.238,1.524,1.524,0,0,1,.984.563" transform="translate(-1779.7 -939.809)" fill="#3f964f"/>
      <path id="Trazado_239101" data-name="Trazado 239101" d="M2089.514,1012.332a1.436,1.436,0,0,1,1.055-.34,2.1,2.1,0,0,1-.506,1.148,1.437,1.437,0,0,1-1.055.34,2.1,2.1,0,0,1,.506-1.148" transform="translate(-1971.652 -944.907)" fill="#3f964f"/>
      <path id="Trazado_239102" data-name="Trazado 239102" d="M1919.531,907.969s-3.376,1.988-3.319,4.2,3.319-4.2,3.319-4.2" transform="translate(-1808.53 -847.784)" fill="#c2d1ff"/>
      <path id="Trazado_239103" data-name="Trazado 239103" d="M2044.737,886.1l7.988,1.509s4.107.048,3.16,4.57c-1.711,1.184-3.906.789-11.431-3.8Z" transform="translate(-1929.593 -827.361)" fill="#f37a50"/>
      <path id="Trazado_239104" data-name="Trazado 239104" d="M1805.123,876.549l-8.536,2.534s-4.093.4-2.868,4.829c1.78,1.034,4.156.008,11.375-5.211,1.64-.991.029-2.152.029-2.152" transform="translate(-1692.681 -818.446)" fill="#de623c"/>
      <path id="Trazado_239105" data-name="Trazado 239105" d="M1985.855,629.643l4.64-.127.08,4.088a5.543,5.543,0,0,1-2.465.528,3.756,3.756,0,0,1-2.175-.4Z" transform="translate(-1874.274 -587.789)" fill="#de623c"/>
      <path id="Trazado_239106" data-name="Trazado 239106" d="M2101.624,510.125c-.329,1.125-.042,2.256.64,2.525s1.5-.425,1.83-1.55.042-2.256-.64-2.525-1.5.425-1.829,1.55" transform="translate(-1983.433 -474.81)" fill="#de623c"/>
      <path id="Trazado_239107" data-name="Trazado 239107" d="M1939.925,402.5c-.3-3.935-.276-7.986-5.543-7.842s-5.095,3.557-5.2,8.136c-.109,4.8,2.843,8.619,5.544,8.739,2.593.116,5.566-4.252,5.2-9.033" transform="translate(-1820.772 -368.498)" fill="#f37a50"/>
      <path id="Trazado_239108" data-name="Trazado 239108" d="M2048.835,527.049a.587.587,0,0,1-.866.266.808.808,0,0,1-.229-1.008.587.587,0,0,1,.866-.266.807.807,0,0,1,.228,1.008" transform="translate(-1932.614 -491.079)"/>
      <path id="Trazado_239109" data-name="Trazado 239109" d="M1964.343,532.624a.551.551,0,0,1-.813.25.757.757,0,0,1-.214-.947.551.551,0,0,1,.813-.25.757.757,0,0,1,.214.947" transform="translate(-1852.921 -496.348)"/>
      <path id="Trazado_239110" data-name="Trazado 239110" d="M1948.3,509.555a.2.2,0,0,1-.064-.048.346.346,0,0,1-.009-.413,1.51,1.51,0,0,1,1.611-.727.285.285,0,0,1,.154.351.255.255,0,0,1-.291.223,1.082,1.082,0,0,0-1.135.522.214.214,0,0,1-.266.091" transform="translate(-1838.691 -474.64)" fill="#2c2858"/>
      <path id="Trazado_239111" data-name="Trazado 239111" d="M2049.5,505.415a.219.219,0,0,0,.061-.052.344.344,0,0,0-.015-.413,1.484,1.484,0,0,0-1.647-.6.29.29,0,0,0-.134.362.249.249,0,0,0,.3.2,1.064,1.064,0,0,1,1.163.432.211.211,0,0,0,.271.07" transform="translate(-1932.7 -470.864)" fill="#2c2858"/>
      <path id="Trazado_239112" data-name="Trazado 239112" d="M1998.045,554.09a6.908,6.908,0,0,1-.513,1.234.283.283,0,0,0,.035.345,2.665,2.665,0,0,0,1.569.466c.066,0,.084-.1.023-.131a2.744,2.744,0,0,1-.911-.581.331.331,0,0,1-.082-.257c.021-.221.059-.669.066-1.03,0-.125-.145-.161-.187-.047" transform="translate(-1885.257 -517.299)" fill="#de623c"/>
      <path id="Trazado_239113" data-name="Trazado 239113" d="M1999.04,601.105c.071-.135-.016-.315-.142-.29a7.986,7.986,0,0,1-2.716.126c-.127-.014-.2.174-.122.3a1.775,1.775,0,0,0,1.524.949,1.834,1.834,0,0,0,1.456-1.087" transform="translate(-1883.877 -560.989)" fill="#fff"/>
      <path id="Trazado_239114" data-name="Trazado 239114" d="M1917.708,393.2a11.877,11.877,0,0,0,8.146-2.761,9.883,9.883,0,0,0,3.163,3.026c1.022.605.128-5.711-.767-6.732s-6.9-1.853-8.21-1.1-2.332,7.564-2.332,7.564" transform="translate(-1809.943 -359.799)" fill="#2c2858"/>
      <path id="Trazado_239115" data-name="Trazado 239115" d="M1951.158,846.589c.105-.751.6-1.315.505-1.893-.057-.347-.556-.646-.838-1.142-.274-.481-.127-1.089-.463-1.671-.292-.505-.426-.6-.606-.514l-.052,1.438c-.1.384-.6.69-1.987.483-1.063-.158-1.792-.754-2.006-.105-.141.426.422.511,1.149.656-.92.1-.975-.338-1.2.169-.273.612,1.13.86,1.819.855-.972.4-1.562-.385-1.736.013-.176.461.436,1.114,1.575.888-.983.4-1.307-.159-1.4.26-.093.435,1.269,1.264,2.848,1.1.407-.042,2.391-.539,2.391-.539" transform="translate(-1836.296 -785.57)" fill="#f37a50"/>
      <path id="Trazado_239116" data-name="Trazado 239116" d="M2079.678,754.518c.5-.69.966-.041.858.445a2.294,2.294,0,0,1-.873,1.195c-1.65-1.442-.437-2.456.015-1.64" transform="translate(-1962.037 -704.224)" fill="#0e6a41"/>
      <path id="Trazado_239117" data-name="Trazado 239117" d="M1788.319,1133.026l-.1,1.5-2.852,43.323a.816.816,0,0,1-.242.573h-23.5a.815.815,0,0,1-.242-.573l-2.571-43.323-.123-2.076c0-.477,1.523-2.328,2.052-2.328l4.126.025,1.6.009,1.174.007h0l3.573.021.539,0h0l.322,0,1.206.007,1.1.007,1.734.01h.165l1.268.007h.108l2.065.012,3.039.019h0l3.629.021c1.154-.456,1.924,2.278,1.924,2.755" transform="translate(-1659.828 -1055.208)" fill="#ef6f6c"/>
      <path id="Trazado_239118" data-name="Trazado 239118" d="M1744.251,1130.121h-32.708a.9.9,0,0,0-.962.826v2.752a.9.9,0,0,0,.962.826h32.708a.9.9,0,0,0,.962-.826v-2.752a.9.9,0,0,0-.962-.826" transform="translate(-1614.413 -1055.209)" fill="#ef6f6c"/>
      <path id="Trazado_239119" data-name="Trazado 239119" d="M1878.674,1274.619c-4.729,0-8.577,4.556-8.577,10.155s3.848,10.155,8.577,10.155,8.578-4.555,8.578-10.155-3.848-10.155-8.578-10.155m0,19.652c-4.423,0-8.022-4.26-8.022-9.5s3.6-9.5,8.022-9.5,8.023,4.26,8.023,9.5-3.6,9.5-8.023,9.5" transform="translate(-1764.998 -1190.129)" fill="#e62552"/>
      <path id="Trazado_239120" data-name="Trazado 239120" d="M2039.173,1392.852a2,2,0,0,1-1.947.019,10.915,10.915,0,0,1,1.724-3.036,6.31,6.31,0,0,0-2.019,2.779c-.017-.019-.033-.039-.049-.06a2.793,2.793,0,0,1-.1-2.673,4.08,4.08,0,0,1,3.839-2.065c.365,2.356-.27,4.392-1.446,5.036" transform="translate(-1922.072 -1295.822)" fill="#e62552"/>
      <path id="Trazado_239121" data-name="Trazado 239121" d="M1935.715,1348.956a28.791,28.791,0,0,1,3.386,4.408,2.553,2.553,0,0,1-2.958-.088c-1.373-.932-2.028-3.268-1.507-5.765,2.53-.395,4.622.738,5.163,2.5a3.543,3.543,0,0,1-.456,3.11,22.744,22.744,0,0,0-3.628-4.169" transform="translate(-1825.754 -1258.115)" fill="#e62552"/>
      <path id="Trazado_239122" data-name="Trazado 239122" d="M1948.981,1454.041c-.969.894-2.728.614-4.3-.82.905-2.079,2.377-3.234,3.582-2.932a2.148,2.148,0,0,1,1.366,1.111,4.21,4.21,0,0,0-2.766.824,4.545,4.545,0,0,1,2.913-.367,2.558,2.558,0,0,1-.8,2.183" transform="translate(-1835.406 -1354.109)" fill="#e62552"/>
      <path id="Trazado_239123" data-name="Trazado 239123" d="M1502.423,139.96c-.082.078-.226.252-.226.252l1.182,2.232,1.819-1.356-.537-1.688c-.7-.79-1.784.133-2.237.56" transform="translate(-1417.697 -129.874)" fill="#f0f4ff"/>
      <path id="Trazado_239124" data-name="Trazado 239124" d="M1549.907,141.871a2.494,2.494,0,0,0-2.613-.877c1.072,2.457.649,3.3.649,3.3l-.848.305,2.387,1.129,1.467-2.195-.753.14a9.008,9.008,0,0,0-.288-1.8" transform="translate(-1460.081 -131.58)" fill="#f0f4ff"/>
      <path id="Trazado_239125" data-name="Trazado 239125" d="M1585.6,217.551l-2.187.487.4,2.5,1.523.025c.877-.484.548-2.015.377-2.671-.031-.119-.115-.341-.115-.341" transform="translate(-1494.37 -203.133)" fill="#f0f4ff"/>
      <path id="Trazado_239126" data-name="Trazado 239126" d="M1538.715,245.633l.07-1.046-1.759,2.218,1.19,2.418.165-.881a5.645,5.645,0,0,0,1.521.34c1.355-.443,1.644-2.56,1.644-2.56-2.324.284-2.831-.489-2.831-.489" transform="translate(-1450.575 -228.376)" fill="#f0f4ff"/>
      <path id="Trazado_239127" data-name="Trazado 239127" d="M1473.572,242.172c-.073,1.142,1.216,1.552,1.782,1.7a2.991,2.991,0,0,0,.308.048l.712-2.5-2.038-.81Z" transform="translate(-1390.672 -224.665)" fill="#f0f4ff"/>
      <path id="Trazado_239128" data-name="Trazado 239128" d="M1449.763,186.4l.568.6a7.545,7.545,0,0,0-1,1.4,3.554,3.554,0,0,0,1.079,2.951c.929-2.538,1.747-2.682,1.747-2.682l.736.584-.772-2.9Z" transform="translate(-1367.747 -174.005)" fill="#f0f4ff"/>
      <path id="Trazado_239129" data-name="Trazado 239129" d="M2345.376,827.934c0,.11.022.324.022.324l1.955.262.211-2.237-1.283-.49c-.847.139-.906,1.535-.905,2.142" transform="translate(-2213.665 -771.054)" fill="#e3eaff"/>
      <path id="Trazado_239130" data-name="Trazado 239130" d="M2364.771,796.761c-1.243-.043-1.952,1.658-1.952,1.658,2.027.475,2.286,1.285,2.286,1.285l-.289.863,1.975-1.333-.475-2.411-.333.695a5.552,5.552,0,0,0-1.212-.756" transform="translate(-2230.131 -743.946)" fill="#e3eaff"/>
      <path id="Trazado_239131" data-name="Trazado 239131" d="M2439.136,813.681l-.921,2.06,1.683,1.049.854-1.234c.2-.985-.876-1.559-1.353-1.781-.087-.04-.263-.094-.263-.094" transform="translate(-2301.307 -759.746)" fill="#e3eaff"/>
      <path id="Trazado_239132" data-name="Trazado 239132" d="M2444.164,846.647l-.573-.634.327,2.664,2.07.357-.425-.621a6.174,6.174,0,0,0,1.037-1.059,3.293,3.293,0,0,0-.591-2.757c-1.115,2.061-1.845,2.05-1.845,2.05" transform="translate(-2306.381 -788.613)" fill="#e3eaff"/>
      <path id="Trazado_239133" data-name="Trazado 239133" d="M2396.6,904.209c.627.689,1.577-.141,1.974-.525.072-.07.2-.226.2-.226L2397.7,901.5l-1.6,1.223Z" transform="translate(-2261.556 -841.743)" fill="#e3eaff"/>
      <path id="Trazado_239134" data-name="Trazado 239134" d="M2342.8,883.166l.665-.134a7.973,7.973,0,0,0,.272,1.589,2.2,2.2,0,0,0,2.32.742c-.972-2.159-.605-2.909-.605-2.909l.747-.281-2.122-.967Z" transform="translate(-2211.235 -822.794)" fill="#e3eaff"/>
      <path id="Trazado_239135" data-name="Trazado 239135" d="M1618.536,565.858a1.935,1.935,0,1,1-1.908-2.258,2.106,2.106,0,0,1,1.908,2.258" transform="translate(-1523.921 -526.242)" fill="#f0f4ff"/>
      <path id="Trazado_239136" data-name="Trazado 239136" d="M1012.467,70.108a1.36,1.36,0,1,1-1.341-1.588,1.48,1.48,0,0,1,1.341,1.588" transform="translate(-952.856 -63.981)" fill="#d4deff"/>
      <path id="Trazado_239137" data-name="Trazado 239137" d="M128.686,490.178a1.935,1.935,0,1,1-1.908-2.258,2.105,2.105,0,0,1,1.908,2.258" transform="translate(-117.49 -455.579)" fill="#f0f4ff"/>
      <path id="Trazado_239138" data-name="Trazado 239138" d="M2117.542,132.991a1.935,1.935,0,1,1-1.908-2.258,2.105,2.105,0,0,1,1.908,2.258" transform="translate(-1994.987 -122.07)" fill="#f0f4ff"/>
      <path id="Trazado_239139" data-name="Trazado 239139" d="M2544.863,545.646a1.28,1.28,0,1,1-1.262-1.494,1.393,1.393,0,0,1,1.262,1.494" transform="translate(-2399.599 -508.084)" fill="#f0f4ff"/>
      <path id="Trazado_239140" data-name="Trazado 239140" d="M3104.655,1457.858a1.28,1.28,0,1,1-1.261-1.494,1.392,1.392,0,0,1,1.261,1.494" transform="translate(-2928.049 -1359.826)" fill="#f0f4ff"/>
      <path id="Trazado_239141" data-name="Trazado 239141" d="M2375.076,3.387a2.9,2.9,0,1,1-5.725,0,2.9,2.9,0,1,1,5.725,0" transform="translate(-2236.298 -0.001)" fill="#d4deff"/>
      <path id="Trazado_239142" data-name="Trazado 239142" d="M946.986,132.553a3,3,0,1,0,2.5,2.958,2.761,2.761,0,0,0-2.5-2.958m0,4.574a1.639,1.639,0,1,1,1.365-1.616,1.508,1.508,0,0,1-1.365,1.616" transform="translate(-891.216 -123.769)" fill="#d4deff"/>
      <path id="Trazado_239143" data-name="Trazado 239143" d="M672.185,737.1a2.29,2.29,0,1,0,1.907,2.258,2.107,2.107,0,0,0-1.907-2.258m0,3.491a1.251,1.251,0,1,1,1.042-1.233,1.151,1.151,0,0,1-1.042,1.233" transform="translate(-632.359 -688.245)" fill="#f0f4ff"/>
      <path id="Trazado_239144" data-name="Trazado 239144" d="M1551.265,484.473a2.29,2.29,0,1,0,1.907,2.257,2.107,2.107,0,0,0-1.907-2.257m0,3.49a1.251,1.251,0,1,1,1.042-1.233,1.15,1.15,0,0,1-1.042,1.233" transform="translate(-1462.217 -452.361)" fill="#f0f4ff"/>
      <path id="Trazado_239145" data-name="Trazado 239145" d="M2394.865,630.3a2.29,2.29,0,1,0,1.906,2.257,2.107,2.107,0,0,0-1.906-2.257m0,3.49a1.251,1.251,0,1,1,1.042-1.233,1.15,1.15,0,0,1-1.042,1.233" transform="translate(-2258.583 -588.525)" fill="#f0f4ff"/>
      <path id="Trazado_239146" data-name="Trazado 239146" d="M1635.244,1599.9a2.29,2.29,0,1,0,1.907,2.257,2.107,2.107,0,0,0-1.907-2.257m0,3.49a1.25,1.25,0,1,1,1.042-1.233,1.151,1.151,0,0,1-1.042,1.233" transform="translate(-1541.495 -1493.851)" fill="#f0f4ff"/>
    </g>
  </g>
</svg>
