<svg xmlns="http://www.w3.org/2000/svg" xmlns:xlink="http://www.w3.org/1999/xlink" width="179" height="158" viewBox="0 0 179 158">
  <defs>
    <clipPath id="clip-path">
      <rect id="Rectángulo_297216" data-name="Rectángulo 297216" width="179" height="158" transform="translate(-2199 -8289)" fill="#fff"/>
    </clipPath>
    <clipPath id="clip-path-2">
      <rect id="Rectángulo_54629" data-name="Rectángulo 54629" width="178.642" height="112.156" fill="none"/>
    </clipPath>
    <clipPath id="clip-path-6">
      <rect id="Rectángulo_54605" data-name="Rectángulo 54605" width="17.563" height="9.978" fill="none"/>
    </clipPath>
    <clipPath id="clip-path-7">
      <rect id="Rectángulo_54606" data-name="Rectángulo 54606" width="1.457" height="20.345" fill="none"/>
    </clipPath>
    <clipPath id="clip-path-8">
      <rect id="Rectángulo_54607" data-name="Rectángulo 54607" width="1.468" height="19.67" fill="none"/>
    </clipPath>
    <clipPath id="clip-path-12">
      <rect id="Rectángulo_54611" data-name="Rectángulo 54611" width="7.281" height="1.223" fill="none"/>
    </clipPath>
    <clipPath id="clip-path-13">
      <rect id="Rectángulo_54612" data-name="Rectángulo 54612" width="5.022" height="2.716" fill="none"/>
    </clipPath>
    <clipPath id="clip-path-14">
      <rect id="Rectángulo_54613" data-name="Rectángulo 54613" width="3.132" height="6.863" fill="none"/>
    </clipPath>
    <clipPath id="clip-path-15">
      <rect id="Rectángulo_54618" data-name="Rectángulo 54618" width="13.236" height="11.753" fill="none"/>
    </clipPath>
    <clipPath id="clip-path-16">
      <rect id="Rectángulo_54619" data-name="Rectángulo 54619" width="7.475" height="1.809" fill="none"/>
    </clipPath>
    <clipPath id="clip-path-18">
      <rect id="Rectángulo_54621" data-name="Rectángulo 54621" width="12.25" height="8.158" fill="none"/>
    </clipPath>
    <clipPath id="clip-path-19">
      <rect id="Rectángulo_54622" data-name="Rectángulo 54622" width="5.014" height="15.022" fill="none"/>
    </clipPath>
    <clipPath id="clip-path-20">
      <rect id="Rectángulo_54623" data-name="Rectángulo 54623" width="7.252" height="2.635" fill="none"/>
    </clipPath>
    <clipPath id="clip-path-21">
      <rect id="Rectángulo_54624" data-name="Rectángulo 54624" width="5.777" height="1.145" fill="none"/>
    </clipPath>
    <clipPath id="clip-path-22">
      <rect id="Rectángulo_54625" data-name="Rectángulo 54625" width="16.749" height="12.073" fill="none"/>
    </clipPath>
    <clipPath id="clip-path-23">
      <rect id="Rectángulo_54626" data-name="Rectángulo 54626" width="5.52" height="4.724" fill="none"/>
    </clipPath>
  </defs>
  <g id="Enmascarar_grupo_700401" data-name="Enmascarar grupo 700401" transform="translate(2199 8289)" clip-path="url(#clip-path)">
    <g id="Grupo_877459" data-name="Grupo 877459" transform="translate(-2199 -8266)">
      <g id="Grupo_597854" data-name="Grupo 597854" clip-path="url(#clip-path-2)">
        <g id="Grupo_597797" data-name="Grupo 597797">
          <g id="Grupo_597796" data-name="Grupo 597796" clip-path="url(#clip-path-2)">
            <path id="Trazado_234849" data-name="Trazado 234849" d="M57.077,14.221c.147-1.075-1.356-1.959-2.485-2.051a6.335,6.335,0,0,1-1.608-.14c-1.105-.389-1.546-1.83-2.625-2.289a3.06,3.06,0,0,0-2.516.359,6.524,6.524,0,0,1-2.427.953c-.76.049-1.584-.235-2.249.139-.5.279-.755.855-1.211,1.195a2.868,2.868,0,0,1-1.583.433,4.42,4.42,0,0,0-1.632.269,1.3,1.3,0,0,0-.817,1.322Z" transform="translate(-28.474 -7.182)" fill="#ebebeb"/>
            <path id="Trazado_234850" data-name="Trazado 234850" d="M530.651,4.63c.147-1.075-1.356-1.959-2.485-2.051a6.324,6.324,0,0,1-1.608-.14c-1.105-.389-1.546-1.83-2.625-2.289a3.06,3.06,0,0,0-2.516.359,6.524,6.524,0,0,1-2.427.953c-.76.049-1.584-.235-2.249.139-.495.279-.754.855-1.211,1.195a2.868,2.868,0,0,1-1.583.433,4.42,4.42,0,0,0-1.632.269A1.3,1.3,0,0,0,511.5,4.82Z" transform="translate(-384.184 -0.001)" fill="#ebebeb"/>
            <path id="Trazado_234851" data-name="Trazado 234851" d="M242.939,122.632c.1-.727-.918-1.326-1.682-1.388a4.3,4.3,0,0,1-1.088-.095c-.748-.263-1.047-1.239-1.777-1.549a2.071,2.071,0,0,0-1.7.243,4.42,4.42,0,0,1-1.643.645c-.514.033-1.072-.159-1.522.094-.335.189-.511.579-.82.809a1.94,1.94,0,0,1-1.071.293,2.989,2.989,0,0,0-1.1.182.882.882,0,0,0-.553.894Z" transform="translate(-172.731 -89.474)" fill="#f5f5f5"/>
            <path id="Trazado_234852" data-name="Trazado 234852" d="M655.231,65c.1-.727-.918-1.326-1.682-1.388a4.3,4.3,0,0,1-1.088-.095c-.748-.263-1.047-1.239-1.777-1.549a2.07,2.07,0,0,0-1.7.243,4.419,4.419,0,0,1-1.643.645c-.514.033-1.072-.159-1.522.094-.335.189-.511.579-.82.809a1.94,1.94,0,0,1-1.071.293,2.988,2.988,0,0,0-1.1.182.882.882,0,0,0-.553.894Z" transform="translate(-482.411 -46.319)" fill="#f5f5f5"/>
            <path id="Trazado_234853" data-name="Trazado 234853" d="M193.7,101.038H113.2A16.013,16.013,0,0,1,97.282,84.967V52.28A3.569,3.569,0,0,0,93.734,48.7H65.2a2.325,2.325,0,0,0-2.311,2.333V63.119A14.4,14.4,0,0,1,48.573,77.568H21.284V65.453H48.573a2.325,2.325,0,0,0,2.311-2.333V51.032A14.4,14.4,0,0,1,65.2,36.583H93.734a15.641,15.641,0,0,1,15.549,15.7V84.967a3.941,3.941,0,0,0,3.918,3.955h80.5Z" transform="translate(-15.987 -27.391)" fill="#ebebeb"/>
            <path id="Trazado_234854" data-name="Trazado 234854" d="M210.545,40.733h0a1.451,1.451,0,0,1-1.444-1.458V24.305a1.444,1.444,0,1,1,2.889,0v14.97a1.451,1.451,0,0,1-1.444,1.458" transform="translate(-157.06 -17.107)" fill="#e0e0e0"/>
            <path id="Trazado_234855" data-name="Trazado 234855" d="M145.74,114.933h0a1.451,1.451,0,0,1-1.444,1.458H129.467a1.458,1.458,0,0,1,0-2.916H144.3a1.451,1.451,0,0,1,1.444,1.458" transform="translate(-96.16 -84.964)" fill="#e0e0e0"/>
            <path id="Trazado_234856" data-name="Trazado 234856" d="M89.932,160.587h0a1.451,1.451,0,0,1-1.444-1.458v-14.97a1.444,1.444,0,1,1,2.889,0v14.97a1.451,1.451,0,0,1-1.444,1.458" transform="translate(-66.465 -106.846)" fill="#e0e0e0"/>
            <path id="Trazado_234857" data-name="Trazado 234857" d="M329.519,119.308h0a1.451,1.451,0,0,1-1.444,1.458H313.246a1.458,1.458,0,0,1,0-2.916h14.829a1.451,1.451,0,0,1,1.444,1.458" transform="translate(-234.2 -88.239)" fill="#e0e0e0"/>
            <path id="Trazado_234858" data-name="Trazado 234858" d="M329.519,217.176h0a1.451,1.451,0,0,1-1.444,1.458H313.246a1.458,1.458,0,0,1,0-2.916h14.829a1.451,1.451,0,0,1,1.444,1.458" transform="translate(-234.2 -161.517)" fill="#e0e0e0"/>
            <path id="Trazado_234859" data-name="Trazado 234859" d="M541.141,231.845h0a1.451,1.451,0,0,1,1.444,1.458v14.97a1.444,1.444,0,1,1-2.888,0V233.3a1.451,1.451,0,0,1,1.444-1.458" transform="translate(-405.376 -173.592)" fill="#e0e0e0"/>
            <path id="Trazado_234860" data-name="Trazado 234860" d="M657.94,231.845h0a1.451,1.451,0,0,1,1.444,1.458v14.97a1.444,1.444,0,1,1-2.888,0V233.3a1.451,1.451,0,0,1,1.444-1.458" transform="translate(-493.106 -173.592)" fill="#e0e0e0"/>
            <path id="Trazado_234861" data-name="Trazado 234861" d="M301.64,42.96h0A1.451,1.451,0,0,1,300.2,41.5V26.532a1.444,1.444,0,1,1,2.889,0V41.5a1.451,1.451,0,0,1-1.444,1.458" transform="translate(-225.483 -18.774)" fill="#e0e0e0"/>
          </g>
        </g>
        <g id="Grupo_597799" data-name="Grupo 597799">
          <g id="Grupo_597798" data-name="Grupo 597798" clip-path="url(#clip-path-2)">
            <path id="Trazado_234862" data-name="Trazado 234862" d="M645.345,368.506a2.985,2.985,0,0,1,1.537,1.757,5.33,5.33,0,0,1,.2,2.38,9.367,9.367,0,0,1-1.979,4.338,6.349,6.349,0,0,1-1.673-4.13c-.139-1.6.574-4.585,1.911-4.346" transform="translate(-483.282 -275.906)" fill="#0e8282"/>
            <path id="Trazado_234863" data-name="Trazado 234863" d="M656.049,402.83a2.568,2.568,0,0,1,.817-2.428,3.338,3.338,0,0,1,2.478-.781,1.408,1.408,0,0,1,1.087.493,1.1,1.1,0,0,1,.017,1.107,2.2,2.2,0,0,1-.812.807,4.318,4.318,0,0,1-3.588.8" transform="translate(-492.727 -299.206)" fill="#0e8282"/>
            <path id="Trazado_234864" data-name="Trazado 234864" d="M649.58,412.112a1.833,1.833,0,0,1,.046-.317l.156-.858a9.032,9.032,0,0,1,.877-2.74,5.465,5.465,0,0,1,1.948-2.09,3.68,3.68,0,0,1,.794-.355,2.195,2.195,0,0,1,.229-.059.232.232,0,0,1,.082-.011,5.738,5.738,0,0,0-1.064.493,5.642,5.642,0,0,0-1.891,2.076,9.71,9.71,0,0,0-.9,2.7c-.078.359-.141.651-.191.851a1.7,1.7,0,0,1-.088.308" transform="translate(-487.91 -303.751)" fill="#263238"/>
            <path id="Trazado_234865" data-name="Trazado 234865" d="M649.586,377.777a.653.653,0,0,1,.016.138c.006.1.014.235.023.4.018.346.039.847.058,1.465.04,1.238.071,2.948.063,4.838s-.054,3.6-.1,4.838c-.025.619-.049,1.119-.071,1.465-.011.163-.02.3-.027.4a.632.632,0,0,1-.017.138.674.674,0,0,1-.005-.139c0-.1,0-.235.006-.4.009-.36.021-.857.035-1.465.03-1.237.063-2.947.072-4.836s-.011-3.6-.03-4.836c-.01-.608-.017-1.106-.023-1.466,0-.164,0-.3,0-.4a.674.674,0,0,1,.007-.139" transform="translate(-487.868 -282.858)" fill="#263238"/>
            <path id="Trazado_234866" data-name="Trazado 234866" d="M632.7,402.49a5.969,5.969,0,0,0-3.231-4.376.986.986,0,0,0-1.449,1.334,5.056,5.056,0,0,0,4.649,3.169" transform="translate(-471.606 -297.925)" fill="#0e8282"/>
            <path id="Trazado_234867" data-name="Trazado 234867" d="M635.122,404.581a1.524,1.524,0,0,1,.274.12,2.849,2.849,0,0,1,.309.166c.116.073.256.144.393.249a5.178,5.178,0,0,1,.45.342,5.792,5.792,0,0,1,.479.439,6.617,6.617,0,0,1,.91,1.18,6.547,6.547,0,0,1,.6,1.368,5.723,5.723,0,0,1,.151.635,4.913,4.913,0,0,1,.077.564,4.488,4.488,0,0,1,.021.468,2.681,2.681,0,0,1-.01.353,1.535,1.535,0,0,1-.033.3c-.025,0,.019-.43-.056-1.113a5.246,5.246,0,0,0-.089-.554,6.054,6.054,0,0,0-.159-.623,6.815,6.815,0,0,0-.6-1.341,6.93,6.93,0,0,0-.888-1.166,6.209,6.209,0,0,0-.465-.44c-.148-.136-.3-.245-.436-.348-.554-.4-.942-.579-.93-.6" transform="translate(-477.052 -302.927)" fill="#263238"/>
          </g>
        </g>
        <path id="Trazado_234868" data-name="Trazado 234868" d="M308.681,351.856l3.674,3.933v16.259h3.936V355.789l3.832-3.761Z" transform="translate(-231.856 -263.45)" fill="#e0e0e0"/>
        <g id="Grupo_597816" data-name="Grupo 597816">
          <g id="Grupo_597815" data-name="Grupo 597815" clip-path="url(#clip-path-2)">
            <path id="Trazado_234869" data-name="Trazado 234869" d="M308.681,351.856l11.442.12h.124l-.089.088-3.827,3.767.018-.042c0,3.753,0,8,.006,12.473,0,1.283,0,2.548,0,3.786v.065h-.064l-3.936,0h-.063v-.063c.01-6.68.019-12.4.025-16.259l.01.026-3.646-3.959,3.7,3.907.01.011v.015c.006,3.862.015,9.579.025,16.259l-.062-.063,3.936,0-.064.065c0-1.238,0-2.5,0-3.786,0-4.477,0-8.72.006-12.473v-.025l.018-.017,3.837-3.756.035.089-11.441-.224" transform="translate(-231.856 -263.45)" fill="#263238"/>
            <path id="Trazado_234870" data-name="Trazado 234870" d="M327.315,367.527a29.984,29.984,0,0,1-3.957,0,30,30,0,0,1,3.957,0" transform="translate(-242.88 -275.135)" fill="#263238"/>
            <path id="Trazado_234871" data-name="Trazado 234871" d="M113.594,187.764h-.156L0,186.645l.178-20.192,107.07,1.062a3.4,3.4,0,0,0,3.414-3.417V148.69a17.157,17.157,0,0,1,17.075-17.238h50.9v20.193H134.049a3.4,3.4,0,0,0-3.384,3.417v15.465a17.2,17.2,0,0,1-5.055,12.243,16.872,16.872,0,0,1-12.016,4.995" transform="translate(0 -98.424)" fill="#1b3f5e"/>
            <path id="Trazado_234872" data-name="Trazado 234872" d="M104.591,290.9h0a1.352,1.352,0,0,1-1.345-1.358V268.8a1.346,1.346,0,1,1,2.691,0v20.741a1.352,1.352,0,0,1-1.345,1.358" transform="translate(-77.55 -200.242)" fill="#455a64"/>
            <path id="Trazado_234873" data-name="Trazado 234873" d="M104.4,290.7a1.6,1.6,0,0,0,.487-.107,1.318,1.318,0,0,0,.489-.347,1.333,1.333,0,0,0,.333-.74c.014-1.258-.009-3.095-.009-5.356s-.009-4.958-.014-7.948c0-1.5,0-3.066,0-4.694q0-1.221,0-2.483a5.443,5.443,0,0,0-.017-.622,1.266,1.266,0,0,0-.225-.556,1.271,1.271,0,0,0-2.078,0,1.269,1.269,0,0,0-.225.556,5.381,5.381,0,0,0-.017.622q0,1.261,0,2.483c0,1.628,0,3.2,0,4.695-.005,2.991-.01,5.685-.014,7.949s-.024,4.1-.01,5.355a1.346,1.346,0,0,0,.823,1.087,1.6,1.6,0,0,0,.487.107s-.043,0-.128,0a1.3,1.3,0,0,1-.368-.083,1.328,1.328,0,0,1-.508-.345,1.368,1.368,0,0,1-.355-.76c-.031-1.271-.021-3.1-.032-5.362s-.009-4.958-.014-7.949c0-1.5,0-3.067,0-4.695q0-1.221,0-2.483a5.391,5.391,0,0,1,.018-.642,1.4,1.4,0,0,1,.248-.612,1.4,1.4,0,0,1,2.288,0,1.4,1.4,0,0,1,.247.612,5.44,5.44,0,0,1,.018.642q0,1.261,0,2.483c0,1.628,0,3.2,0,4.694-.005,2.99-.01,5.684-.014,7.948s0,4.091-.032,5.362a1.367,1.367,0,0,1-.355.761,1.326,1.326,0,0,1-.508.345,1.3,1.3,0,0,1-.368.083c-.085,0-.128,0-.128,0" transform="translate(-77.354 -200.048)" fill="#263238"/>
            <path id="Trazado_234874" data-name="Trazado 234874" d="M462.589,191.182h0a1.339,1.339,0,0,1-1.838.5l-21.877-12.751a1.365,1.365,0,0,1-.492-1.855,1.338,1.338,0,0,1,1.838-.5L462.1,189.326a1.365,1.365,0,0,1,.493,1.855" transform="translate(-329.141 -132.073)" fill="#455a64"/>
            <path id="Trazado_234875" data-name="Trazado 234875" d="M462.4,190.989a1.557,1.557,0,0,0,.162-.574,1.36,1.36,0,0,0-.14-.7,1.331,1.331,0,0,0-.272-.367,2.036,2.036,0,0,0-.432-.294l-5.483-3.172-8.124-4.719-4.795-2.79-2.536-1.477-.646-.376a1.433,1.433,0,0,0-.672-.247,1.283,1.283,0,0,0-1.213.64,1.309,1.309,0,0,0,.055,1.381,1.441,1.441,0,0,0,.547.465l.646.377,2.535,1.479,4.792,2.8,8.111,4.743,5.462,3.208a2,2,0,0,0,.468.23,1.3,1.3,0,0,0,.451.055,1.324,1.324,0,0,0,.672-.228,1.538,1.538,0,0,0,.412-.428,1.443,1.443,0,0,1-.078.132,1.347,1.347,0,0,1-1,.563,1.337,1.337,0,0,1-.465-.05,2.061,2.061,0,0,1-.481-.229l-5.483-3.172-8.124-4.719-4.8-2.791-2.536-1.477-.646-.377a1.574,1.574,0,0,1-.589-.5,1.441,1.441,0,0,1-.061-1.52,1.412,1.412,0,0,1,1.336-.7,1.563,1.563,0,0,1,.726.264l.646.377,2.535,1.479,4.791,2.8,8.11,4.743,5.462,3.208a2.07,2.07,0,0,1,.437.306,1.36,1.36,0,0,1,.276.382,1.374,1.374,0,0,1,.018,1.159,1.456,1.456,0,0,1-.074.135" transform="translate(-328.951 -131.88)" fill="#263238"/>
            <path id="Trazado_234876" data-name="Trazado 234876" d="M640.5,148.288h0a1.352,1.352,0,0,1-1.346-1.358V126.188a1.345,1.345,0,1,1,2.691,0V146.93a1.352,1.352,0,0,1-1.345,1.358" transform="translate(-480.084 -93.466)" fill="#455a64"/>
            <path id="Trazado_234877" data-name="Trazado 234877" d="M640.307,148.093a1.6,1.6,0,0,0,.486-.107,1.315,1.315,0,0,0,.489-.347,1.333,1.333,0,0,0,.333-.74c.014-1.258-.009-3.095-.009-5.356s-.009-4.958-.014-7.949c0-1.5,0-3.066,0-4.694q0-1.221,0-2.483a5.442,5.442,0,0,0-.017-.622,1.265,1.265,0,0,0-.225-.556,1.271,1.271,0,0,0-2.078,0,1.269,1.269,0,0,0-.226.556,5.425,5.425,0,0,0-.017.622q0,1.261,0,2.483c0,1.628,0,3.2,0,4.695,0,2.991-.01,5.685-.014,7.949s-.024,4.1-.009,5.356a1.345,1.345,0,0,0,.822,1.087,1.6,1.6,0,0,0,.487.107s-.043,0-.129,0a1.291,1.291,0,0,1-.368-.083,1.327,1.327,0,0,1-.508-.345,1.368,1.368,0,0,1-.355-.76c-.031-1.271-.021-3.1-.032-5.362s-.008-4.958-.014-7.949c0-1.5,0-3.067,0-4.695q0-1.221,0-2.483a5.4,5.4,0,0,1,.018-.642,1.4,1.4,0,0,1,.248-.612,1.4,1.4,0,0,1,2.288,0,1.4,1.4,0,0,1,.247.612,5.387,5.387,0,0,1,.018.641q0,1.261,0,2.483c0,1.628,0,3.2,0,4.694-.005,2.99-.01,5.684-.014,7.949s0,4.091-.032,5.362a1.368,1.368,0,0,1-.355.761,1.322,1.322,0,0,1-.508.345,1.292,1.292,0,0,1-.368.083c-.085,0-.128,0-.128,0" transform="translate(-479.887 -93.271)" fill="#263238"/>
            <path id="Trazado_234878" data-name="Trazado 234878" d="M388.217,290.9h0a1.352,1.352,0,0,1-1.345-1.358V268.8a1.346,1.346,0,1,1,2.691,0v20.741a1.352,1.352,0,0,1-1.345,1.358" transform="translate(-290.587 -200.242)" fill="#455a64"/>
            <path id="Trazado_234879" data-name="Trazado 234879" d="M388.021,290.7a1.6,1.6,0,0,0,.487-.107,1.318,1.318,0,0,0,.489-.347,1.333,1.333,0,0,0,.333-.74c.014-1.258-.009-3.095-.009-5.356s-.009-4.958-.014-7.948c0-1.5,0-3.066,0-4.694q0-1.221,0-2.483a5.439,5.439,0,0,0-.017-.622,1.265,1.265,0,0,0-.225-.556,1.271,1.271,0,0,0-2.078,0,1.269,1.269,0,0,0-.225.556,5.377,5.377,0,0,0-.017.622q0,1.261,0,2.483c0,1.628,0,3.2,0,4.695-.005,2.991-.01,5.685-.014,7.949s-.024,4.1-.01,5.355a1.346,1.346,0,0,0,.823,1.087,1.6,1.6,0,0,0,.487.107s-.043,0-.128,0a1.3,1.3,0,0,1-.368-.083,1.328,1.328,0,0,1-.508-.345,1.369,1.369,0,0,1-.355-.76c-.031-1.271-.021-3.1-.032-5.362s-.009-4.958-.014-7.949c0-1.5,0-3.067,0-4.695q0-1.221,0-2.483a5.393,5.393,0,0,1,.018-.642,1.4,1.4,0,0,1,.248-.612,1.4,1.4,0,0,1,2.288,0,1.4,1.4,0,0,1,.247.612,5.441,5.441,0,0,1,.018.642q0,1.261,0,2.483c0,1.628,0,3.2,0,4.694-.005,2.99-.01,5.684-.014,7.948s0,4.091-.032,5.362a1.368,1.368,0,0,1-.355.761,1.328,1.328,0,0,1-.508.345,1.3,1.3,0,0,1-.368.083c-.085,0-.128,0-.128,0" transform="translate(-290.39 -200.048)" fill="#263238"/>
            <path id="Trazado_234880" data-name="Trazado 234880" d="M272.654,290.9h0a1.352,1.352,0,0,1-1.345-1.358V268.8a1.346,1.346,0,1,1,2.691,0v20.741a1.352,1.352,0,0,1-1.345,1.358" transform="translate(-203.785 -200.242)" fill="#455a64"/>
            <path id="Trazado_234881" data-name="Trazado 234881" d="M272.458,290.7a1.6,1.6,0,0,0,.487-.107,1.318,1.318,0,0,0,.489-.347,1.333,1.333,0,0,0,.333-.74c.014-1.258-.009-3.095-.009-5.356s-.009-4.958-.014-7.948c0-1.5,0-3.066,0-4.694q0-1.221,0-2.483a5.446,5.446,0,0,0-.017-.622,1.265,1.265,0,0,0-.225-.556,1.271,1.271,0,0,0-2.078,0,1.269,1.269,0,0,0-.225.556,5.377,5.377,0,0,0-.017.622q0,1.261,0,2.483c0,1.628,0,3.2,0,4.695-.005,2.991-.01,5.685-.014,7.949s-.024,4.1-.01,5.355a1.331,1.331,0,0,0,.334.74,1.318,1.318,0,0,0,.489.347,1.6,1.6,0,0,0,.487.107s-.043,0-.128,0a1.3,1.3,0,0,1-.368-.083,1.328,1.328,0,0,1-.508-.345,1.368,1.368,0,0,1-.355-.76c-.031-1.271-.021-3.1-.032-5.362s-.009-4.958-.014-7.949c0-1.5,0-3.067,0-4.695q0-1.221,0-2.483a5.393,5.393,0,0,1,.018-.642,1.4,1.4,0,0,1,.248-.612,1.4,1.4,0,0,1,2.288,0,1.4,1.4,0,0,1,.247.612,5.435,5.435,0,0,1,.018.642q0,1.261,0,2.483c0,1.628,0,3.2,0,4.694-.005,2.99-.01,5.684-.014,7.948s0,4.091-.032,5.362a1.367,1.367,0,0,1-.355.761,1.326,1.326,0,0,1-.508.345,1.3,1.3,0,0,1-.368.083c-.085,0-.128,0-.128,0" transform="translate(-203.589 -200.048)" fill="#263238"/>
            <g id="Grupo_597802" data-name="Grupo 597802" transform="translate(114.71 46.849)" opacity="0.3">
              <g id="Grupo_597801" data-name="Grupo 597801">
                <g id="Grupo_597800" data-name="Grupo 597800" clip-path="url(#clip-path-6)">
                  <path id="Trazado_234882" data-name="Trazado 234882" d="M460.9,186.457a34.852,34.852,0,0,1,17.563,9.978Z" transform="translate(-460.901 -186.457)"/>
                </g>
              </g>
            </g>
            <g id="Grupo_597805" data-name="Grupo 597805" transform="translate(98.976 69.243)" opacity="0.3">
              <g id="Grupo_597804" data-name="Grupo 597804">
                <g id="Grupo_597803" data-name="Grupo 597803" clip-path="url(#clip-path-7)">
                  <path id="Trazado_234883" data-name="Trazado 234883" d="M397.683,275.588a35.619,35.619,0,0,1,0,20.345Z" transform="translate(-397.683 -275.588)"/>
                </g>
              </g>
            </g>
            <g id="Grupo_597808" data-name="Grupo 597808" transform="translate(70.215 69.243)" opacity="0.3">
              <g id="Grupo_597807" data-name="Grupo 597807">
                <g id="Grupo_597806" data-name="Grupo 597806" clip-path="url(#clip-path-8)">
                  <path id="Trazado_234884" data-name="Trazado 234884" d="M282.162,275.588s3.238,8.351-.041,19.67Z" transform="translate(-282.121 -275.588)"/>
                </g>
              </g>
            </g>
            <g id="Grupo_597811" data-name="Grupo 597811" transform="translate(28.222 69.243)" opacity="0.3">
              <g id="Grupo_597810" data-name="Grupo 597810">
                <g id="Grupo_597809" data-name="Grupo 597809" clip-path="url(#clip-path-8)">
                  <path id="Trazado_234885" data-name="Trazado 234885" d="M113.437,275.588s3.238,8.351-.041,19.67Z" transform="translate(-113.396 -275.588)"/>
                </g>
              </g>
            </g>
            <g id="Grupo_597814" data-name="Grupo 597814" transform="translate(161.766 32.722)" opacity="0.3">
              <g id="Grupo_597813" data-name="Grupo 597813">
                <g id="Grupo_597812" data-name="Grupo 597812" clip-path="url(#clip-path-7)">
                  <path id="Trazado_234886" data-name="Trazado 234886" d="M649.97,130.235a35.619,35.619,0,0,1,0,20.346Z" transform="translate(-649.97 -130.235)"/>
                </g>
              </g>
            </g>
            <path id="Trazado_234887" data-name="Trazado 234887" d="M25.519,351.062l3.71,3.972v16.419H33.2V355.034l3.87-3.8Z" transform="translate(-19.168 -262.855)" fill="#e0e0e0"/>
            <path id="Trazado_234888" data-name="Trazado 234888" d="M25.519,351.062l11.555.122H37.2l-.089.088-3.865,3.8.018-.042c0,3.79,0,8.075.006,12.6,0,1.3,0,2.573,0,3.823v.065H33.2l-3.975,0h-.063v-.063c.01-6.746.019-12.52.025-16.419l.01.026-3.683-4,3.737,3.946.01.01v.015c.006,3.9.015,9.674.025,16.419l-.062-.063,3.975,0-.064.065c0-1.25,0-2.527,0-3.823,0-4.521,0-8.806.006-12.6v-.025l.018-.017,3.875-3.793.035.089-11.554-.225" transform="translate(-19.168 -262.855)" fill="#263238"/>
            <path id="Trazado_234889" data-name="Trazado 234889" d="M44.337,366.89a15.3,15.3,0,0,1-2,.065,15.3,15.3,0,0,1-2-.065,15.318,15.318,0,0,1,2-.065,15.316,15.316,0,0,1,2,.065" transform="translate(-30.301 -274.658)" fill="#263238"/>
            <path id="Trazado_234890" data-name="Trazado 234890" d="M559.362,211.21l3.891,4.165V266.74h4.168V215.375l4.244-4.165Z" transform="translate(-420.147 -158.142)" fill="#e0e0e0"/>
            <path id="Trazado_234891" data-name="Trazado 234891" d="M559.362,211.1l12.3-.038h.093l-.067.066-4.238,4.17.014-.032c0,11.843.012,28.587.02,47.131v4.3h-4.3v-.065c.017-23.058.031-42.331.038-51.365l.007.018-3.871-4.183,3.91,4.147.007.008v.011c.007,9.034.021,28.307.038,51.365l-.064-.065h4.168l-.065.065v-4.234c.008-18.544.015-35.288.02-47.131v-.019l.014-.013,4.249-4.16.026.066-12.3-.038" transform="translate(-420.147 -158.028)" fill="#263238"/>
            <path id="Trazado_234892" data-name="Trazado 234892" d="M579.1,227.817a33.63,33.63,0,0,1-4.19,0,33.63,33.63,0,0,1,4.19,0" transform="translate(-431.822 -170.528)" fill="#263238"/>
            <path id="Trazado_234893" data-name="Trazado 234893" d="M308.189,353.976c0,.036-5.837.028-13.035-.019s-13.036-.113-13.036-.149,5.836-.028,13.036.019,13.035.113,13.034.15" transform="translate(-211.904 -264.895)" fill="#263238"/>
          </g>
        </g>
        <g id="Grupo_597833" data-name="Grupo 597833">
          <g id="Grupo_597832" data-name="Grupo 597832" clip-path="url(#clip-path-2)">
            <path id="Trazado_234894" data-name="Trazado 234894" d="M523,63.815a16.646,16.646,0,0,0-.814,10.772,16.345,16.345,0,0,0,1.09,2.93.625.625,0,0,0,.851.225.645.645,0,0,0,.223-.86,15.235,15.235,0,0,1-.277-12.434.652.652,0,0,0-.223-.86.623.623,0,0,0-.851.225" transform="translate(-391.82 -47.552)" fill="#e0e0e0"/>
            <path id="Trazado_234895" data-name="Trazado 234895" d="M526.146,93.568l2.606-3.843a.624.624,0,1,0-1.075-.634l-2.606,3.843a.624.624,0,1,0,1.074.634" transform="translate(-394.325 -66.477)" fill="#e0e0e0"/>
            <path id="Trazado_234896" data-name="Trazado 234896" d="M522.787,88.621a22.515,22.515,0,0,0,3.481-.042.628.628,0,0,0,0-1.256,22.515,22.515,0,0,1-3.481.042.628.628,0,0,0-.622.628.64.64,0,0,0,.622.628" transform="translate(-392.207 -65.381)" fill="#e0e0e0"/>
            <path id="Trazado_234897" data-name="Trazado 234897" d="M525.437,70.193a39.057,39.057,0,0,1,2.42,3.991.624.624,0,0,0,.852.225.645.645,0,0,0,.223-.86,39.07,39.07,0,0,0-2.42-3.991.632.632,0,0,0-.851-.225.64.64,0,0,0-.223.86" transform="translate(-394.598 -51.847)" fill="#e0e0e0"/>
            <path id="Trazado_234898" data-name="Trazado 234898" d="M409.005,384.529l-.673,7.73s7.557,3.286,7.57,4.727l-14.892-.778.559-12.087Z" transform="translate(-301.206 -287.607)" fill="#455a64"/>
            <path id="Trazado_234899" data-name="Trazado 234899" d="M410.662,412.9a.614.614,0,0,0-.456.679.585.585,0,0,0,.662.463.648.648,0,0,0,.48-.721.606.606,0,0,0-.742-.4" transform="translate(-308.107 -309.144)" fill="#e0e0e0"/>
            <path id="Trazado_234900" data-name="Trazado 234900" d="M400.9,429.993l.053-1.171,14.317.84s.648.326.549.793Z" transform="translate(-301.125 -321.078)" fill="#e0e0e0"/>
            <path id="Trazado_234901" data-name="Trazado 234901" d="M427.193,416.016c-.006.073-.372.087-.741.305s-.576.516-.642.483c-.066-.018.064-.451.517-.706s.885-.149.866-.082" transform="translate(-319.822 -311.428)" fill="#263238"/>
            <path id="Trazado_234902" data-name="Trazado 234902" d="M434.425,419.076c.013.072-.308.18-.571.478s-.351.622-.423.615c-.069.008-.1-.425.237-.788s.76-.375.758-.305" transform="translate(-325.525 -313.754)" fill="#263238"/>
            <path id="Trazado_234903" data-name="Trazado 234903" d="M440.511,423.184c-.067.012-.149-.36.058-.752s.556-.535.583-.472-.194.267-.359.591-.21.629-.282.632" transform="translate(-330.82 -315.929)" fill="#263238"/>
            <path id="Trazado_234904" data-name="Trazado 234904" d="M426.569,408.276c-.034.065-.362-.054-.775-.047s-.74.121-.774.056.287-.311.773-.312.815.247.776.3" transform="translate(-319.238 -305.468)" fill="#263238"/>
            <path id="Trazado_234905" data-name="Trazado 234905" d="M402.046,59.828a3.948,3.948,0,0,1-.738,2.567,3.431,3.431,0,0,1-2.1.866,4.611,4.611,0,0,1-1.3.041,1.947,1.947,0,0,1-1.152-.554,1.269,1.269,0,0,1-.318-1.21,1.346,1.346,0,0,1-1.294-.518,1.746,1.746,0,0,1-.291-1.4,2.394,2.394,0,0,1,.74-1.249,1.327,1.327,0,0,1-.37-1.534,1.2,1.2,0,0,1,1.547-.93.959.959,0,0,1,.576-1.484l.96-.188Z" transform="translate(-296.558 -40.605)" fill="#263238"/>
            <path id="Trazado_234906" data-name="Trazado 234906" d="M445.051,44.02a1.458,1.458,0,0,0-.047-1.4,1.428,1.428,0,0,0-1.22-.674l-2.187.505.943,3.723a1.912,1.912,0,0,0,.463.981,1.267,1.267,0,0,0,.967.277,1.974,1.974,0,0,0,1.664-1.341,2,2,0,0,0-.582-2.068" transform="translate(-331.691 -31.404)" fill="#263238"/>
            <path id="Trazado_234907" data-name="Trazado 234907" d="M416.851,51.678a3.419,3.419,0,0,1-3.657-3.091l-1.105-11.212c-.392-3,1.012-5.735,4-6.048l.277-.013a5.378,5.378,0,0,1,5.563,4.73c.325,2.6.652,5.486.7,6.889a3.475,3.475,0,0,1-2.762,3.487c-.007,0,.332,1.914.406,2.764.167,1.908-1.523,2.346-3.415,2.494" transform="translate(-309.479 -23.442)" fill="#b56760"/>
            <path id="Trazado_234908" data-name="Trazado 234908" d="M431.816,88.412a6.9,6.9,0,0,1-3.794-.947,3.692,3.692,0,0,0,3.914,1.682Z" transform="translate(-321.495 -65.489)" fill="#8a4a43"/>
            <path id="Trazado_234909" data-name="Trazado 234909" d="M446.875,59a.414.414,0,0,1-.377.436.394.394,0,0,1-.44-.355.414.414,0,0,1,.377-.436.4.4,0,0,1,.441.355" transform="translate(-335.041 -43.905)" fill="#263238"/>
            <path id="Trazado_234910" data-name="Trazado 234910" d="M444.406,53.653c-.048.056-.37-.162-.812-.141s-.756.259-.806.207c-.024-.023.023-.123.16-.233a1.122,1.122,0,0,1,.642-.232,1.076,1.076,0,0,1,.649.18c.141.1.191.195.167.22" transform="translate(-332.582 -39.872)" fill="#263238"/>
            <path id="Trazado_234911" data-name="Trazado 234911" d="M430.143,60.1a.414.414,0,0,1-.377.436.394.394,0,0,1-.44-.355.414.414,0,0,1,.377-.436.394.394,0,0,1,.44.355" transform="translate(-322.473 -44.736)" fill="#263238"/>
            <path id="Trazado_234912" data-name="Trazado 234912" d="M427.047,55.155c-.049.056-.37-.162-.812-.141s-.756.259-.806.207c-.025-.023.022-.123.16-.233a1.12,1.12,0,0,1,.642-.232,1.077,1.077,0,0,1,.649.179c.14.1.191.195.167.22" transform="translate(-319.543 -40.997)" fill="#263238"/>
            <path id="Trazado_234913" data-name="Trazado 234913" d="M437.809,58.654a2.9,2.9,0,0,1,.712-.163c.112-.017.218-.044.234-.123a.586.586,0,0,0-.09-.334l-.372-.852a14.983,14.983,0,0,1-.851-2.235,15.043,15.043,0,0,1,1.027,2.161l.359.858a.665.665,0,0,1,.078.444.283.283,0,0,1-.178.175.753.753,0,0,1-.19.036,2.848,2.848,0,0,1-.727.034" transform="translate(-328.567 -41.14)" fill="#263238"/>
            <path id="Trazado_234914" data-name="Trazado 234914" d="M434.778,73.12a.541.541,0,0,0-.783-.392.461.461,0,0,0-.231.282.213.213,0,0,0-.008.06.276.276,0,0,0-.031.108.723.723,0,0,0,.218.619.51.51,0,0,0,.367.128.479.479,0,0,0,.328-.168.74.74,0,0,0,.141-.636" transform="translate(-325.777 -54.41)" fill="#8a4a43"/>
            <path id="Trazado_234915" data-name="Trazado 234915" d="M433.575,71.167c.072-.008.094.477.52.8s.934.248.941.316c.008.03-.11.1-.325.115a1.188,1.188,0,0,1-.784-.237,1.053,1.053,0,0,1-.405-.674c-.027-.2.021-.324.054-.323" transform="translate(-325.62 -53.286)" fill="#263238"/>
            <path id="Trazado_234916" data-name="Trazado 234916" d="M425.856,49.31c-.038.123-.482.086-1,.172s-.929.248-1,.143c-.033-.051.035-.168.2-.293a1.744,1.744,0,0,1,1.523-.24c.194.069.294.16.278.218" transform="translate(-318.36 -36.698)" fill="#263238"/>
            <path id="Trazado_234917" data-name="Trazado 234917" d="M443.764,47.067c-.073.1-.382.014-.749.025s-.673.1-.749,0c-.034-.05.011-.154.142-.256a1.075,1.075,0,0,1,1.207-.017c.134.1.181.2.149.252" transform="translate(-332.186 -34.92)" fill="#263238"/>
            <path id="Trazado_234918" data-name="Trazado 234918" d="M407.758,63.555c-.05-.019-2-.5-1.851,1.482A1.479,1.479,0,0,0,408,66.4c0-.057-.239-2.844-.239-2.844" transform="translate(-304.878 -47.538)" fill="#b56760"/>
            <path id="Trazado_234919" data-name="Trazado 234919" d="M408.865,67.675c-.009-.006-.032.027-.088.058a.339.339,0,0,1-.255.025.857.857,0,0,1-.45-.736,1.159,1.159,0,0,1,.058-.5.4.4,0,0,1,.237-.285.174.174,0,0,1,.209.079c.03.053.021.094.032.1s.04-.036.018-.117a.221.221,0,0,0-.087-.118.255.255,0,0,0-.193-.036.483.483,0,0,0-.334.335,1.185,1.185,0,0,0-.076.562.9.9,0,0,0,.564.817.364.364,0,0,0,.309-.077c.057-.054.064-.1.057-.1" transform="translate(-306.403 -49.518)" fill="#8a4a43"/>
            <path id="Trazado_234920" data-name="Trazado 234920" d="M409.692,44.39a1.492,1.492,0,0,0-.923-.285,4.553,4.553,0,0,0-2.456.607,2.2,2.2,0,0,0-.945.937,1.11,1.11,0,0,0,.186,1.255,1.45,1.45,0,0,0-.4,1.79,1.421,1.421,0,0,0,1.7.641.893.893,0,0,0,1.4.574,1.415,1.415,0,0,0,.328-.35,2.917,2.917,0,0,0,.15-2.041,1.307,1.307,0,0,0,.963-.619,2.58,2.58,0,0,0,.359-1.127,1.56,1.56,0,0,0-.367-1.381" transform="translate(-304.2 -33.02)" fill="#263238"/>
            <path id="Trazado_234921" data-name="Trazado 234921" d="M406.26,22.779c-.132.039-3.274,1.263-3.731,3.828s-.109,3.281-.109,3.281a1.614,1.614,0,0,0-.3.345c-.112.18.2.921.609.771,2.968-1.89,6.706-2.591,10.912-3.082l3.2-.517c.913-.028,1.193-.315.781-.486-.316-.131-3.013-.785-3.013-.785l-.554-.294-1.594-1.657s.126-.282-.229-.449-3.378-1.722-5.975-.955" transform="translate(-302.025 -16.897)" fill="#ffd947"/>
            <g id="Grupo_597819" data-name="Grupo 597819" transform="translate(101.476 6.541)" opacity="0.3">
              <g id="Grupo_597818" data-name="Grupo 597818">
                <g id="Grupo_597817" data-name="Grupo 597817" clip-path="url(#clip-path-12)">
                  <path id="Trazado_234922" data-name="Trazado 234922" d="M407.729,27.256s3.42-1.092,5.1-.563l-.2-.066,1.578.438a.933.933,0,0,0,.8-.023,6.982,6.982,0,0,0-2.435-.883c-1.538-.283-3.9-.153-4.847,1.1" transform="translate(-407.729 -26.033)"/>
                </g>
              </g>
            </g>
            <path id="Trazado_234923" data-name="Trazado 234923" d="M407.535,27.13a2.541,2.541,0,0,1,.284-.254,4.4,4.4,0,0,1,.882-.545,5.21,5.21,0,0,1,1.47-.44,4.358,4.358,0,0,1,1.87.089,7.869,7.869,0,0,1,.916.336c.288.126.571.233.832.362a4.733,4.733,0,0,0,.743.334,1.513,1.513,0,0,0,.7.037c.863-.116,1.365-.374,1.318-.423a.141.141,0,0,1-.059.079,1.122,1.122,0,0,1-.251.129,4.7,4.7,0,0,1-1,.254,1.547,1.547,0,0,1-.715-.032,4.685,4.685,0,0,1-.752-.332c-.258-.126-.543-.233-.831-.358a7.95,7.95,0,0,0-.91-.333,4.364,4.364,0,0,0-1.848-.092,5.279,5.279,0,0,0-1.461.425,4.632,4.632,0,0,0-.885.527c-.1.074-.171.134-.22.176s-.077.061-.077.061" transform="translate(-306.107 -19.34)" fill="#263238"/>
            <g id="Grupo_597822" data-name="Grupo 597822" transform="translate(100.289 8.648)" opacity="0.3">
              <g id="Grupo_597821" data-name="Grupo 597821">
                <g id="Grupo_597820" data-name="Grupo 597820" clip-path="url(#clip-path-13)">
                  <path id="Trazado_234924" data-name="Trazado 234924" d="M403.017,36.547a7.9,7.9,0,0,0,1.683-.563c.643-.245,1.284-.459,1.915-.735a2.94,2.94,0,0,0,1.323-.83.748.748,0,0,1-.122.719,3.532,3.532,0,0,1-1,.633,18.536,18.536,0,0,1-3.861,1.364,4.452,4.452,0,0,1,.058-.589" transform="translate(-402.958 -34.42)"/>
                </g>
              </g>
            </g>
            <path id="Trazado_234925" data-name="Trazado 234925" d="M402.366,34.2c-.373.233-.6.387-.561.731.032.286.14.626.425.635a.692.692,0,0,0,.253-.057l4.207-1.525a.65.65,0,0,0,.371-.245.449.449,0,0,0-.238-.58,1.206,1.206,0,0,0-.685-.05,14.464,14.464,0,0,0-3.772,1.091" transform="translate(-301.799 -24.768)" fill="#ffd947"/>
            <path id="Trazado_234926" data-name="Trazado 234926" d="M407.825,33.327a.429.429,0,0,0,.089-.208.557.557,0,0,0-.258-.526,1.352,1.352,0,0,0-.9-.065c-.345.069-.724.15-1.119.249a11.552,11.552,0,0,0-1.97.663c-.244.108-.435.209-.567.279l-.151.082a.233.233,0,0,1-.055.025.253.253,0,0,1,.049-.035l.146-.091c.129-.076.318-.182.561-.3a10.566,10.566,0,0,1,1.973-.68c.4-.1.775-.179,1.122-.245a1.369,1.369,0,0,1,.93.082.576.576,0,0,1,.259.562.379.379,0,0,1-.067.162.2.2,0,0,1-.043.043" transform="translate(-302.621 -24.287)" fill="#263238"/>
            <path id="Trazado_234927" data-name="Trazado 234927" d="M437.495,31.065l-2.736.346.343.742,2.957-.5Z" transform="translate(-326.555 -23.26)" fill="#fff"/>
            <path id="Trazado_234928" data-name="Trazado 234928" d="M430.6,38.648c0-.015,1.186-.37,2.659-.794s2.67-.755,2.674-.741-1.186.37-2.659.794-2.669.755-2.674.741" transform="translate(-323.433 -27.788)" fill="#263238"/>
            <path id="Trazado_234929" data-name="Trazado 234929" d="M462.271,69.56,455.5,76.971l-8.111,1.583,2.365,7.111,7.4-2.553a6.7,6.7,0,0,0,3.366-2.547c1.753-2.616,4.741-8.056,4.741-8.056Z" transform="translate(-336.044 -52.083)" fill="#ffd947"/>
            <path id="Trazado_234930" data-name="Trazado 234930" d="M489.084,84.494l3.9,4.264,1.136-1.909-3.594-3.929Z" transform="translate(-367.36 -62.086)" fill="#fff"/>
            <path id="Trazado_234931" data-name="Trazado 234931" d="M508.753,54.15s3.2-2.617,3.858-2.687,1.106-.244,1.556.14a7.328,7.328,0,0,1,1.443,1.856,2.87,2.87,0,0,1-.126,1.122,3.236,3.236,0,0,0-.782-.942c-.246-.189-1.2-.464-1.333.443a4.442,4.442,0,0,0,0,1.5l.53-.075.349,1.111-3.5.151-.925,1.765-2.641-2.6Z" transform="translate(-380.95 -38.457)" fill="#b56760"/>
            <g id="Grupo_597825" data-name="Grupo 597825" transform="translate(111.444 26.471)" opacity="0.3">
              <g id="Grupo_597824" data-name="Grupo 597824">
                <g id="Grupo_597823" data-name="Grupo 597823" clip-path="url(#clip-path-14)">
                  <path id="Trazado_234932" data-name="Trazado 234932" d="M447.779,105.354a5.82,5.82,0,0,1,2.669,2.778,7.6,7.6,0,0,1,.316,4.085Z" transform="translate(-447.779 -105.354)"/>
                </g>
              </g>
            </g>
            <path id="Trazado_234933" data-name="Trazado 234933" d="M402.782,234.3c-1.169,5.5-2.457,22.506-2.457,22.506l8.229.274,2.966-17.155s1.337-6.018,2.156-9.339c.729-2.959,3.182-25.787,3.182-25.787l-14.252.335a19.663,19.663,0,0,0-.912,4.817,21.916,21.916,0,0,0-.062,5.851,5.986,5.986,0,0,0,.888,2.325l1.059,2.3Z" transform="translate(-300.691 -153.344)" fill="#ffd947"/>
            <rect id="Rectángulo_54614" data-name="Rectángulo 54614" width="2.546" height="4.295" transform="translate(141.378 27.655)" fill="#e0e0e0"/>
            <rect id="Rectángulo_54615" data-name="Rectángulo 54615" width="7.929" height="1.171" transform="translate(138.864 31.821)" fill="#e0e0e0"/>
            <rect id="Rectángulo_54616" data-name="Rectángulo 54616" width="3.32" height="1.79" transform="translate(135.228 20.887)" fill="#e0e0e0"/>
            <rect id="Rectángulo_54617" data-name="Rectángulo 54617" width="8.504" height="10.607" transform="translate(138.29 17.211)" fill="#e0e0e0"/>
            <path id="Trazado_234934" data-name="Trazado 234934" d="M567.784,81.371a2.45,2.45,0,1,1-2.449-2.473,2.461,2.461,0,0,1,2.449,2.473" transform="translate(-422.793 -59.074)" fill="#fff"/>
            <path id="Trazado_234935" data-name="Trazado 234935" d="M567.55,81.177c-.018,0-.007-.22-.106-.6a2.468,2.468,0,0,0-.895-1.325,2.371,2.371,0,0,0-2.259-.333,2.388,2.388,0,0,0-1.1.838,2.409,2.409,0,0,0,0,2.832,2.389,2.389,0,0,0,1.1.838,2.37,2.37,0,0,0,2.259-.333,2.467,2.467,0,0,0,.895-1.325c.1-.376.088-.6.106-.6a.613.613,0,0,1,.008.159,1.13,1.13,0,0,1-.012.192,1.728,1.728,0,0,1-.043.26,2.484,2.484,0,0,1-1.938,1.882,2.492,2.492,0,0,1-1.323-.1,2.517,2.517,0,0,1-1.175-.884,2.549,2.549,0,0,1,0-3.014,2.521,2.521,0,0,1,1.175-.883,2.491,2.491,0,0,1,1.323-.1,2.485,2.485,0,0,1,1.939,1.882,1.7,1.7,0,0,1,.043.26,1.109,1.109,0,0,1,.012.192.613.613,0,0,1-.008.159" transform="translate(-422.559 -58.88)" fill="#263238"/>
            <path id="Trazado_234936" data-name="Trazado 234936" d="M555.433,68.306a1.065,1.065,0,0,1,.148-.007l.446-.007,1.714-.017,6.2-.034H564v.066c0,3.035.008,6.683.013,10.606.017-.016-.148.15-.079.079h-2.268l-2.187,0-4.047-.006h-.07v-.07c.014-3.159.026-5.816.035-7.692.008-.922.014-1.652.018-2.159q.005-.363.008-.566a1.605,1.605,0,0,1,.008-.189.31.31,0,0,1,0,.054c0,.039,0,.089,0,.151q0,.208.008.58c0,.511.011,1.246.018,2.175.008,1.864.021,4.506.035,7.646l-.069-.07,4.047-.006,2.187,0h2.268c.07-.07-.093.1-.076.078,0-3.923.009-7.571.013-10.606l.065.065-6.154-.034-1.729-.017-.459-.007a1.487,1.487,0,0,1-.162-.007" transform="translate(-417.143 -51.094)" fill="#263238"/>
            <path id="Trazado_234937" data-name="Trazado 234937" d="M565.655,126.413c0,.043-1.754.079-3.917.079s-3.917-.035-3.917-.079,1.754-.078,3.917-.078,3.917.035,3.917.078" transform="translate(-418.989 -94.592)" fill="#263238"/>
            <path id="Trazado_234938" data-name="Trazado 234938" d="M571.713,83.565l.681.214.257-1.832Z" transform="translate(-429.424 -61.357)" fill="#ff725e"/>
            <path id="Trazado_234939" data-name="Trazado 234939" d="M532.844,73.875a3.927,3.927,0,0,0,1.306-2.348,21.436,21.436,0,0,0,.667-4.311,15.162,15.162,0,0,0-.752-5.841,3.081,3.081,0,0,0-.637-1.055,1.24,1.24,0,0,0-1.337-.484c-.941.39-.237,1.5,0,1.83a8.259,8.259,0,0,1,.824,2.856,29.118,29.118,0,0,1-.607,7.466,7.374,7.374,0,0,0-.36,1.54s.653.459.725.474a.607.607,0,0,0,.171-.126" transform="translate(-399.306 -44.752)" fill="#e0e0e0"/>
            <path id="Trazado_234940" data-name="Trazado 234940" d="M532.652,73.683a.276.276,0,0,1-.049.05c-.017.015-.038.035-.066.056a.171.171,0,0,1-.051.031.2.2,0,0,1-.065-.026c-.159-.089-.385-.238-.678-.439l-.011-.008v-.012a6.244,6.244,0,0,1,.192-.976c.094-.37.227-.776.307-1.241a30.876,30.876,0,0,0,.394-3.295c.045-.627.077-1.289.083-1.98a11.783,11.783,0,0,0-.133-2.143,8.716,8.716,0,0,0-.281-1.093,6.682,6.682,0,0,0-.431-1.069,2.586,2.586,0,0,1-.5-1.111.776.776,0,0,1,.179-.618.836.836,0,0,1,.265-.192.849.849,0,0,1,.312-.1,1.155,1.155,0,0,1,.788.236,2.627,2.627,0,0,1,.573.565,4.255,4.255,0,0,1,.642,1.42,14.478,14.478,0,0,1,.517,2.885,19.184,19.184,0,0,1-.255,4.944c-.123.7-.265,1.318-.416,1.858a5.79,5.79,0,0,1-.513,1.343,3.091,3.091,0,0,1-.566.708c-.075.071-.135.123-.176.156a.364.364,0,0,1-.064.048c0-.005.078-.076.222-.223a3.284,3.284,0,0,0,.54-.715,5.909,5.909,0,0,0,.487-1.337c.144-.539.279-1.161.4-1.855a19.427,19.427,0,0,0,.226-4.918A14.5,14.5,0,0,0,534,61.778a4.144,4.144,0,0,0-.623-1.378,2.509,2.509,0,0,0-.544-.536,1.029,1.029,0,0,0-.7-.213.722.722,0,0,0-.27.084.711.711,0,0,0-.227.163.643.643,0,0,0-.146.516,2.482,2.482,0,0,0,.477,1.056,6.674,6.674,0,0,1,.443,1.1,8.814,8.814,0,0,1,.282,1.11,11.8,11.8,0,0,1,.128,2.167c-.008.695-.044,1.359-.093,1.987a29.662,29.662,0,0,1-.422,3.3c-.085.468-.225.877-.323,1.242a6.558,6.558,0,0,0-.207.96l-.01-.019c.289.206.51.362.663.457a.4.4,0,0,0,.05.026.182.182,0,0,0,.044-.025l.068-.051a.309.309,0,0,1,.056-.04" transform="translate(-399.114 -44.561)" fill="#263238"/>
            <path id="Trazado_234941" data-name="Trazado 234941" d="M406.678,95.319l-.235,1.421a15.737,15.737,0,0,0-2.57,9.249c.342,5.78.869,16.656.869,16.656l-.024.151a2.489,2.489,0,0,0,.764,2.227l.01.01,13.013.283a3.036,3.036,0,0,0,2.489-3.4l-2.051-15.428-3.954-9.108-.371-.781-.445-.271Z" transform="translate(-303.336 -71.369)" fill="#ffd947"/>
            <path id="Trazado_234942" data-name="Trazado 234942" d="M404.318,144.1l.312,5.812,15.294-.109-.331-5.621Z" transform="translate(-303.691 -107.894)" fill="#fff"/>
            <path id="Trazado_234943" data-name="Trazado 234943" d="M420.6,99.055a2.865,2.865,0,0,1-.027.39,9.774,9.774,0,0,0-.032,1.059v.06l-.059-.012c-.764-.154-1.8-.337-2.947-.491-1.212-.164-2.314-.28-3.111-.376-.4-.047-.721-.088-.943-.12a1.808,1.808,0,0,1-.344-.062,1.769,1.769,0,0,1,.349.012l.947.078c.8.073,1.9.174,3.119.338,1.149.154,2.187.351,2.949.526l-.058.048a7.436,7.436,0,0,1,.075-1.066,1.709,1.709,0,0,1,.079-.384" transform="translate(-310.314 -74.167)" fill="#263238"/>
            <path id="Trazado_234944" data-name="Trazado 234944" d="M451.728,111.994a2.254,2.254,0,0,1-.165-.352l-.412-.975c-.346-.824-.831-1.96-1.379-3.208l-1.423-3.19-.43-.968a2.256,2.256,0,0,1-.143-.362,2.266,2.266,0,0,1,.188.34c.114.223.273.547.467.95.387.806.909,1.926,1.458,3.176s1.02,2.392,1.345,3.226c.163.417.29.756.374.992a2.232,2.232,0,0,1,.118.371" transform="translate(-336.333 -77.075)" fill="#263238"/>
            <path id="Trazado_234945" data-name="Trazado 234945" d="M422.569,212.683a.627.627,0,0,1-.144.026l-.416.048c-.362.04-.886.088-1.534.139-1.3.1-3.092.2-5.077.234s-3.783-.013-5.083-.075c-.65-.03-1.175-.062-1.538-.09l-.417-.035a.625.625,0,0,1-.145-.021.612.612,0,0,1,.147-.005l.418.011,1.539.049c1.3.038,3.094.067,5.077.037s3.776-.117,5.073-.2l1.536-.1.418-.024a.624.624,0,0,1,.147,0" transform="translate(-306.618 -159.242)" fill="#263238"/>
            <path id="Trazado_234946" data-name="Trazado 234946" d="M511.776,110.484l1.909-2.087a.885.885,0,0,1,.653-.289H515s-.209,1.1.576,1.188a1.017,1.017,0,0,0,1.059-.626s1.174.535,1.053,1.327a1.817,1.817,0,0,1-.483,1.1,1.582,1.582,0,0,1,.06,1.158,1.81,1.81,0,0,1-.724.731,3.685,3.685,0,0,1-.845.792,21.42,21.42,0,0,1-3.04.318l-2.334,2.419-1.718-3.805Z" transform="translate(-382.024 -80.945)" fill="#b56760"/>
            <g id="Grupo_597828" data-name="Grupo 597828" transform="translate(103.241 32.996)" opacity="0.3">
              <g id="Grupo_597827" data-name="Grupo 597827">
                <g id="Grupo_597826" data-name="Grupo 597826" clip-path="url(#clip-path-15)">
                  <path id="Trazado_234947" data-name="Trazado 234947" d="M414.821,131.322s-.146,1.2,1.434,3.6,4.133,6.573,7.633,7.488,4.165.624,4.165.624l-.578-4.349Z" transform="translate(-414.818 -131.322)"/>
                </g>
              </g>
            </g>
            <path id="Trazado_234948" data-name="Trazado 234948" d="M412.35,109a8.508,8.508,0,0,0,2.688,5.717c2.439,2.309,7.179,7.35,10.245,7.417,4.373.1,13.415-7.727,13.415-7.727l-1.87-4.943-11.214,5.427-5.759-7.58a5.448,5.448,0,0,0-3.976-2.185,3.4,3.4,0,0,0-2.652.843A3.856,3.856,0,0,0,412.35,109" transform="translate(-309.716 -78.703)" fill="#ffd947"/>
            <path id="Trazado_234949" data-name="Trazado 234949" d="M487.754,130.4l2.279,6.241,1.907-1.363-2.038-5.895Z" transform="translate(-366.361 -96.874)" fill="#fff"/>
            <path id="Trazado_234950" data-name="Trazado 234950" d="M412.322,108.892s-.016-.129-.019-.38a5.5,5.5,0,0,1,.091-1.1,2.753,2.753,0,0,1,1.735-2.18,3.714,3.714,0,0,1,1.242-.251,5.228,5.228,0,0,1,2.831.725,5.674,5.674,0,0,1,1.306,1.051c.2.213.378.451.559.688l.553.726,5.012,6.58-.071-.017,11.211-5.433.063-.031.025.066,1.333,3.523.537,1.42.016.043-.035.029a65.618,65.618,0,0,1-5.656,4.3c-.953.636-1.9,1.236-2.871,1.763a17.4,17.4,0,0,1-2.942,1.321,7.265,7.265,0,0,1-1.522.334,4.409,4.409,0,0,1-.769,0,4.523,4.523,0,0,1-.739-.163,9.968,9.968,0,0,1-2.561-1.333,34.943,34.943,0,0,1-3.97-3.321c-.575-.542-1.114-1.068-1.623-1.565l-.742-.723c-.24-.232-.478-.455-.693-.685a8.741,8.741,0,0,1-1.73-2.705,8.066,8.066,0,0,1-.517-1.968c-.031-.231-.045-.408-.049-.527s-.007-.18-.007-.18.009.061.02.179.027.295.061.525a8.3,8.3,0,0,0,.538,1.953,8.757,8.757,0,0,0,1.736,2.675c.214.227.451.447.694.679l.746.72c.511.495,1.051,1.018,1.628,1.558a35.119,35.119,0,0,0,3.968,3.3,9.882,9.882,0,0,0,2.535,1.313,4.4,4.4,0,0,0,.719.158,4.341,4.341,0,0,0,.745,0,7.162,7.162,0,0,0,1.5-.331,17.341,17.341,0,0,0,2.919-1.316c.961-.526,1.91-1.125,2.86-1.761a65.993,65.993,0,0,0,5.641-4.292l-.018.073-.537-1.42-1.333-3.523.088.035-11.217,5.421-.043.021-.029-.038-5-6.592-.551-.728a8.77,8.77,0,0,0-.551-.684,5.609,5.609,0,0,0-1.282-1.04,5.167,5.167,0,0,0-2.787-.728,3.665,3.665,0,0,0-1.221.239,2.715,2.715,0,0,0-1.721,2.13,5.809,5.809,0,0,0-.108,1.1c0,.125,0,.22,0,.284s0,.1,0,.1" transform="translate(-309.689 -78.599)" fill="#263238"/>
            <path id="Trazado_234951" data-name="Trazado 234951" d="M464.946,146.655a23.181,23.181,0,0,1,.172-2.315,6.741,6.741,0,0,1-.172,2.315" transform="translate(-349.219 -108.074)" fill="#263238"/>
            <g id="Grupo_597831" data-name="Grupo 597831" transform="translate(103.182 25.102)" opacity="0.3">
              <g id="Grupo_597830" data-name="Grupo 597830">
                <g id="Grupo_597829" data-name="Grupo 597829" clip-path="url(#clip-path-16)">
                  <path id="Trazado_234952" data-name="Trazado 234952" d="M414.58,100.179c-.044.014,7.475,1.536,7.475,1.536l-.374-1.809-.107,1.236s-6.416-1.142-6.995-.963" transform="translate(-414.58 -99.906)"/>
                </g>
              </g>
            </g>
            <path id="Trazado_234953" data-name="Trazado 234953" d="M404.6,152.991a.656.656,0,0,1-.015-.15c0-.112-.01-.255-.016-.429-.01-.373-.032-.912-.065-1.578-.064-1.332-.2-3.169-.369-5.2s-.291-3.87-.332-5.205c-.022-.667-.03-1.208-.024-1.581,0-.175.006-.317.008-.43a.647.647,0,0,1,.012-.15.663.663,0,0,1,.014.15c0,.112.01.255.017.429.01.373.032.912.065,1.578.064,1.332.2,3.169.369,5.2s.291,3.869.332,5.2c.022.667.03,1.208.024,1.581,0,.175-.006.318-.008.43a.654.654,0,0,1-.011.15" transform="translate(-303.283 -103.529)" fill="#263238"/>
          </g>
        </g>
        <g id="Grupo_597853" data-name="Grupo 597853">
          <g id="Grupo_597852" data-name="Grupo 597852" clip-path="url(#clip-path-2)">
            <path id="Trazado_234954" data-name="Trazado 234954" d="M210.161,390.69l7.019-2.424s4.8,6.389,6.138,6.069l-4.166-13.909-11.091,3.323Z" transform="translate(-156.279 -284.841)" fill="#455a64"/>
            <path id="Trazado_234955" data-name="Trazado 234955" d="M237.112,393.481a.591.591,0,0,1,.524-.589.567.567,0,0,1,.583.52.624.624,0,0,1-.558.621.59.59,0,0,1-.547-.609" transform="translate(-178.096 -294.175)" fill="#e0e0e0"/>
            <path id="Trazado_234956" data-name="Trazado 234956" d="M250.534,380.034l-1.075.321,4.091,13.351s.452.538.863.336Z" transform="translate(-187.373 -284.548)" fill="#e0e0e0"/>
            <path id="Trazado_234957" data-name="Trazado 234957" d="M244.178,408.143c.067-.023,0-.372.112-.772s.345-.665.3-.719-.4.165-.536.652.067.872.124.838" transform="translate(-183.279 -304.472)" fill="#263238"/>
            <path id="Trazado_234958" data-name="Trazado 234958" d="M248.64,414.07c.07,0,.1-.333.312-.651s.5-.476.473-.543-.417.006-.677.406-.172.806-.108.788" transform="translate(-186.706 -309.122)" fill="#263238"/>
            <path id="Trazado_234959" data-name="Trazado 234959" d="M253.739,418.789c0-.066-.369-.058-.685.229s-.368.649-.3.661.2-.245.466-.477.535-.343.522-.413" transform="translate(-189.828 -313.54)" fill="#263238"/>
            <path id="Trazado_234960" data-name="Trazado 234960" d="M236.515,409.722c.053-.047-.133-.33-.223-.722s-.059-.728-.127-.745-.222.343-.111.8.418.714.46.665" transform="translate(-177.276 -305.677)" fill="#263238"/>
            <path id="Trazado_234961" data-name="Trazado 234961" d="M175.33,343.409c-.27-.075-12.158,12.8-12.428,14.926s.162,3.982,1.567,5.183,17.4-2.728,17.4-2.728l-1.513-6.765,5.782-1.964-5.167-9.547Z" transform="translate(-122.301 -256.456)" fill="#ffd947"/>
            <g id="Grupo_597836" data-name="Grupo 597836" transform="translate(49.836 89.18)" opacity="0.3">
              <g id="Grupo_597835" data-name="Grupo 597835">
                <g id="Grupo_597834" data-name="Grupo 597834" clip-path="url(#clip-path-18)">
                  <path id="Trazado_234962" data-name="Trazado 234962" d="M200.62,355.562l-.381.413s6.814,7.216,8.9,7.118l3.345-1.144-11.319-7.013Z" transform="translate(-200.239 -354.936)"/>
                </g>
              </g>
            </g>
            <path id="Trazado_234963" data-name="Trazado 234963" d="M199.85,389.024c.01.035-2.472.8-5.543,1.713s-5.57,1.622-5.58,1.587,2.472-.8,5.544-1.713,5.569-1.622,5.579-1.587" transform="translate(-141.756 -291.279)" fill="#263238"/>
            <path id="Trazado_234964" data-name="Trazado 234964" d="M161.456,385.966l2.311,7.4s-6.675,4.857-6.38,6.266l14.374-4.008-3.132-11.68Z" transform="translate(-118.209 -287.476)" fill="#455a64"/>
            <path id="Trazado_234965" data-name="Trazado 234965" d="M198.466,413.991a.611.611,0,0,1,.591.563.589.589,0,0,1-.548.6.645.645,0,0,1-.622-.6c.02-.3.346-.623.638-.556" transform="translate(-148.635 -309.969)" fill="#e0e0e0"/>
            <path id="Trazado_234966" data-name="Trazado 234966" d="M171.757,428.261l-.3-1.132-13.8,3.943s-.563.46-.366.894Z" transform="translate(-118.111 -319.81)" fill="#e0e0e0"/>
            <path id="Trazado_234967" data-name="Trazado 234967" d="M182.026,420.913c.022.07.382,0,.789.136s.673.378.73.332-.16-.426-.656-.577-.9.048-.863.109" transform="translate(-136.722 -315.032)" fill="#263238"/>
            <path id="Trazado_234968" data-name="Trazado 234968" d="M176.665,425.385c0,.073.339.109.66.342s.476.531.545.508c.069-.007,0-.436-.4-.718s-.822-.2-.805-.132" transform="translate(-132.696 -318.454)" fill="#263238"/>
            <path id="Trazado_234969" data-name="Trazado 234969" d="M172.543,430.569c.068,0,.069-.384-.218-.722s-.657-.4-.671-.334.246.218.477.5.339.569.411.556" transform="translate(-128.932 -321.578)" fill="#263238"/>
            <path id="Trazado_234970" data-name="Trazado 234970" d="M180.643,412.979c.047.057.342-.131.746-.215s.748-.043.768-.114-.347-.241-.821-.136-.743.419-.693.465" transform="translate(-135.68 -308.843)" fill="#263238"/>
            <g id="Grupo_597839" data-name="Grupo 597839" transform="translate(48.641 90.812)" opacity="0.3">
              <g id="Grupo_597838" data-name="Grupo 597838">
                <g id="Grupo_597837" data-name="Grupo 597837" clip-path="url(#clip-path-19)">
                  <path id="Trazado_234971" data-name="Trazado 234971" d="M200.452,376.3l-.885-3.509.659-.31-4.02-11.05-.768.674,3.16,10.123,1.13,4.225Z" transform="translate(-195.439 -361.431)"/>
                </g>
              </g>
            </g>
            <path id="Trazado_234972" data-name="Trazado 234972" d="M158.538,311.368a5.6,5.6,0,0,0-4.524.979,4.207,4.207,0,0,0-1.688,4.191c.648,4.582,6.449,20.224,6.449,20.224l8.026-2.436c.046-.014.091-.147.066-.107-.066.107-4.072-12.924-3.971-12.771s8.1,6.673,11.422,7.871a7.324,7.324,0,0,0,8.413-2.536c.778-1.1.833-5.923,0-8.472,0,0-23.163-6.629-23.6-6.793a4.724,4.724,0,0,0-.6-.152" transform="translate(-114.372 -233.043)" fill="#ffd947"/>
            <path id="Trazado_234973" data-name="Trazado 234973" d="M176.139,330.712a11,11,0,0,1,4.705,7.718" transform="translate(-132.301 -247.618)" fill="#ffd947"/>
            <path id="Trazado_234974" data-name="Trazado 234974" d="M182.671,326.417s-.031.053-.1.154a4.961,4.961,0,0,1-.318.429,7.286,7.286,0,0,1-1.547,1.362,8.12,8.12,0,0,1-1.319.714,7.573,7.573,0,0,1-1.725.485,7.158,7.158,0,0,1-2.068,0,7.327,7.327,0,0,1-2.22-.713c-.371-.178-.74-.383-1.118-.59-.369-.223-.758-.435-1.135-.683s-.772-.487-1.161-.753-.788-.533-1.188-.814c-1.6-1.124-3.284-2.395-5.025-3.8l-.654-.535c-.109-.093-.216-.18-.328-.281l-.085-.081c.038,0-.1-.008.082-.009.017-.065,0-.018.009-.028l.005.024.014.051.06.207.514,1.676,1.087,3.473,2.336,7.395.019.061-.061.018-8.13,2.47-.058.018-.021-.057c-.526-1.427-1.075-2.947-1.621-4.488-1.161-3.287-2.268-6.508-3.24-9.65-.488-1.57-.944-3.122-1.3-4.666-.1-.383-.166-.773-.235-1.16a5.222,5.222,0,0,1-.1-1.172,4.1,4.1,0,0,1,.667-2.2,5.306,5.306,0,0,1,3.7-2.211,5.711,5.711,0,0,1,2.1.106l.5.13.489.147.965.29,7.1,2.138,10.276,3.1,2.792.85.725.224c.163.051.246.081.246.081s-.085-.021-.25-.068l-.729-.212-2.8-.827-10.291-3.066-7.106-2.124-.966-.289-.489-.146-.492-.126a5.6,5.6,0,0,0-2.061-.1,5.421,5.421,0,0,0-2.011.685,4.843,4.843,0,0,0-1.6,1.479,3.98,3.98,0,0,0-.645,2.133,5.1,5.1,0,0,0,.1,1.149c.07.383.136.769.235,1.152.359,1.537.816,3.087,1.3,4.656.973,3.139,2.08,6.358,3.241,9.644.546,1.54,1.094,3.061,1.62,4.487l-.079-.04,8.131-2.466-.042.08-2.329-7.4-1.083-3.475-.512-1.678-.06-.209-.014-.053-.007-.029c0-.019-.012.019.006-.055.131.036.09-.018.1.006l.072.065.32.274.651.535c1.737,1.4,3.414,2.675,5.012,3.8.4.282.793.557,1.185.816s.776.513,1.156.755.762.461,1.13.685c.376.208.743.414,1.111.591a7.274,7.274,0,0,0,2.2.714,7.1,7.1,0,0,0,2.049.005,7.563,7.563,0,0,0,1.714-.472,8.153,8.153,0,0,0,1.316-.7,7.433,7.433,0,0,0,1.553-1.341c.147-.182.262-.32.326-.421s.106-.147.106-.147" transform="translate(-114.199 -232.876)" fill="#263238"/>
            <path id="Trazado_234975" data-name="Trazado 234975" d="M180.225,337.575a3.286,3.286,0,0,1,.662.373,10.11,10.11,0,0,1,1.435,1.147,8.979,8.979,0,0,1,1.193,1.4,5.354,5.354,0,0,1,.293.476.632.632,0,0,1,.085.187c-.018.011-.172-.235-.453-.609a11.509,11.509,0,0,0-1.208-1.363,13.546,13.546,0,0,0-1.4-1.166,6.5,6.5,0,0,1-.61-.449" transform="translate(-135.37 -252.756)" fill="#263238"/>
            <path id="Trazado_234976" data-name="Trazado 234976" d="M191.227,333.985a2.822,2.822,0,0,1,.283.613,11.125,11.125,0,0,1,.7,3.175,2.842,2.842,0,0,1,0,.676,4.493,4.493,0,0,1-.093-.667c-.05-.411-.133-.978-.269-1.594s-.3-1.165-.426-1.559a4.528,4.528,0,0,1-.2-.644" transform="translate(-143.632 -250.069)" fill="#263238"/>
            <path id="Trazado_234977" data-name="Trazado 234977" d="M188.592,186.712l2.4,11.153c.407,1.9.622,4.766-2.378,5.28-2.636.247-3.817-2.076-4.2-3.847-.179-.84-.331-1.539-.355-1.625a3.422,3.422,0,0,1-3.676-2.417c-.39-1.336-.97-4.155-1.467-6.711a5.373,5.373,0,0,1,3.783-6.2l.265-.075c2.907-.643,5.072,1.49,5.628,4.442" transform="translate(-134.312 -136.387)" fill="#ffbe9d"/>
            <path id="Trazado_234978" data-name="Trazado 234978" d="M199.88,237.707a6.882,6.882,0,0,0,3.282-2.084,3.6,3.6,0,0,1-3.107,2.872Z" transform="translate(-150.134 -176.421)" fill="#eb996e"/>
            <path id="Trazado_234979" data-name="Trazado 234979" d="M182.388,211.5c.063.044.426-.154.955-.161s.925.174.98.127c.027-.021-.039-.1-.212-.185a1.8,1.8,0,0,0-.787-.158,1.643,1.643,0,0,0-.757.184c-.159.09-.21.172-.179.191" transform="translate(-136.989 -158.081)" fill="#263238"/>
            <path id="Trazado_234980" data-name="Trazado 234980" d="M199.895,206.811c.075.011.314-.326.782-.567s.9-.26.93-.325c.015-.03-.078-.071-.269-.068a1.822,1.822,0,0,0-.77.213,1.681,1.681,0,0,0-.6.5c-.1.15-.113.244-.077.248" transform="translate(-150.13 -154.13)" fill="#263238"/>
            <path id="Trazado_234981" data-name="Trazado 234981" d="M200.476,211.814a.315.315,0,0,0,.378.226.3.3,0,0,0,.236-.365.315.315,0,0,0-.378-.226.3.3,0,0,0-.236.365" transform="translate(-150.575 -158.315)" fill="#263238"/>
            <path id="Trazado_234982" data-name="Trazado 234982" d="M184.333,215.555a.315.315,0,0,0,.378.226.3.3,0,0,0,.236-.365.315.315,0,0,0-.378-.226.3.3,0,0,0-.236.365" transform="translate(-138.45 -161.116)" fill="#263238"/>
            <path id="Trazado_234983" data-name="Trazado 234983" d="M193.7,211.534a2.866,2.866,0,0,0-.721.07c-.111.019-.219.027-.258-.042a.582.582,0,0,1-.018-.343q.042-.438.088-.92a14.928,14.928,0,0,0,.112-2.372,14.95,14.95,0,0,0-.3,2.358q-.038.482-.073.921a.66.66,0,0,0,.063.443.281.281,0,0,0,.222.109.742.742,0,0,0,.19-.026,2.842,2.842,0,0,0,.7-.2" transform="translate(-144.606 -155.683)" fill="#263238"/>
            <path id="Trazado_234984" data-name="Trazado 234984" d="M198.642,199.4c.066.1.424-.06.877-.129s.84-.045.872-.156c.013-.053-.076-.135-.247-.2a1.485,1.485,0,0,0-1.333.218c-.142.113-.2.219-.17.265" transform="translate(-149.198 -148.888)" fill="#263238"/>
            <path id="Trazado_234985" data-name="Trazado 234985" d="M181.525,206.4c.066.075.412-.094.85-.2s.817-.123.846-.222c.012-.046-.077-.108-.244-.144a1.565,1.565,0,0,0-.675.025,1.621,1.621,0,0,0-.617.3c-.136.111-.19.208-.16.244" transform="translate(-136.341 -154.101)" fill="#263238"/>
            <path id="Trazado_234986" data-name="Trazado 234986" d="M219.492,207.751c.041-.034,1.732-1.1,2.2.815a1.476,1.476,0,0,1-1.549,1.94c-.017-.054-.651-2.754-.651-2.754" transform="translate(-164.864 -155.308)" fill="#ffbe9d"/>
            <path id="Trazado_234987" data-name="Trazado 234987" d="M223.12,211.417c.007-.008.039.015.1.027a.338.338,0,0,0,.248-.057.855.855,0,0,0,.2-.835,1.138,1.138,0,0,0-.209-.454.391.391,0,0,0-.311-.194.173.173,0,0,0-.172.14c-.012.06.009.095,0,.1s-.049-.022-.053-.1a.22.22,0,0,1,.045-.138.255.255,0,0,1,.171-.094.476.476,0,0,1,.418.211,1.171,1.171,0,0,1,.245.505.9.9,0,0,1-.28.947.361.361,0,0,1-.314.025c-.07-.033-.091-.073-.085-.078" transform="translate(-167.44 -157.089)" fill="#eb996e"/>
            <path id="Trazado_234988" data-name="Trazado 234988" d="M200.155,222.919c-.031-.044.321-.235.513-.644a2.227,2.227,0,0,0,.163-.559c.027-.152.052-.248.074-.246s.035.1.035.257a1.465,1.465,0,0,1-.132.615,1.175,1.175,0,0,1-.412.478c-.134.09-.232.114-.24.1" transform="translate(-150.339 -165.825)" fill="#263238"/>
            <path id="Trazado_234989" data-name="Trazado 234989" d="M167.522,182.38a.536.536,0,0,0-.224.483.624.624,0,0,0,.553.519.789.789,0,0,0,.7-.346,1.142,1.142,0,0,0-.188.289.5.5,0,0,0,.85.515l.006-.008a5,5,0,0,1,.312.405v0l.02.026c.062.085.126.169.2.251v-.006l.917,1.134c-.119-.8-.411-1.908-.53-2.709a4.472,4.472,0,0,0,2.826-2.1,5.3,5.3,0,0,1,1.063-1.642,3.207,3.207,0,0,1,2.435-.321l-.039-.023a3.552,3.552,0,0,1,1.239.565,11.289,11.289,0,0,0,1.41,4.553c.119.21.411.632.647.672.463.079.49-.386.7-.674a1.155,1.155,0,0,1,.742-.355,17.743,17.743,0,0,0,.12-2.111l.128-.739-.244-.749c-.536-.6.238-1.124-.133-1.839a2.591,2.591,0,0,0-1.741-1.529l-.015.011a2.042,2.042,0,0,0-1.985.608,2.671,2.671,0,0,0-2.391-1.648,6.563,6.563,0,0,0-3.4.985,7.3,7.3,0,0,0-1.9,2.236,21.825,21.825,0,0,0-.6,2.256Z" transform="translate(-125.658 -131.489)" fill="#263238"/>
            <path id="Trazado_234990" data-name="Trazado 234990" d="M171.294,170.415c.142,0,3.633.183,4.9,2.566s1.152,3.2,1.152,3.2a1.66,1.66,0,0,1,.4.244c.168.142.1.973-.356.959-3.531-.9-7.441-.38-11.747.5l-3.322.529c-.91.269-1.277.076-.926-.226.27-.232,2.723-1.753,2.723-1.753l.453-.47,1.045-2.152a.356.356,0,0,1,.083-.517c.3-.28,2.784-2.8,5.591-2.882" transform="translate(-121.131 -127.597)" fill="#ffd947"/>
            <path id="Trazado_234991" data-name="Trazado 234991" d="M174.559,190.673s.045-.006.129-.021l.369-.072c.319-.069.784-.145,1.36-.231a25.729,25.729,0,0,1,4.54-.212,39.542,39.542,0,0,1,4.528.462c.576.087,1.042.167,1.363.22l.371.061c.085.013.13.017.13.017s-.044-.012-.128-.029l-.369-.071c-.321-.06-.785-.146-1.361-.238a36.947,36.947,0,0,0-4.532-.479,24.629,24.629,0,0,0-4.548.229,18.747,18.747,0,0,0-1.853.365" transform="translate(-131.114 -142.304)" fill="#263238"/>
            <g id="Grupo_597842" data-name="Grupo 597842" transform="translate(46.233 43.321)" opacity="0.3">
              <g id="Grupo_597841" data-name="Grupo 597841">
                <g id="Grupo_597840" data-name="Grupo 597840" clip-path="url(#clip-path-20)">
                  <path id="Trazado_234992" data-name="Trazado 234992" d="M193.013,172.875s-3.722.033-5.211,1.1l.172-.128-1.417.944a.971.971,0,0,1-.8.236,7.3,7.3,0,0,1,2.121-1.662c1.428-.778,3.8-1.416,5.131-.49" transform="translate(-185.761 -172.417)"/>
                </g>
              </g>
            </g>
            <path id="Trazado_234993" data-name="Trazado 234993" d="M187.8,172.94a2.6,2.6,0,0,0-.361-.159,4.552,4.552,0,0,0-1.043-.252,5.4,5.4,0,0,0-1.59.043,4.546,4.546,0,0,0-1.817.695,8.216,8.216,0,0,0-.8.629c-.244.218-.489.415-.706.627a4.954,4.954,0,0,1-.627.571,1.576,1.576,0,0,1-.676.263c-.888.166-1.466.074-1.436.01a.145.145,0,0,0,.083.059,1.159,1.159,0,0,0,.289.046,4.862,4.862,0,0,0,1.07-.075,1.612,1.612,0,0,0,.7-.264,4.917,4.917,0,0,0,.636-.572c.214-.208.462-.406.706-.623a8.346,8.346,0,0,1,.792-.624,4.543,4.543,0,0,1,1.794-.691,5.474,5.474,0,0,1,1.576-.055,4.8,4.8,0,0,1,1.041.233c.119.041.211.076.273.1s.1.035.1.035" transform="translate(-134.264 -129.15)" fill="#263238"/>
            <g id="Grupo_597845" data-name="Grupo 597845" transform="translate(50.025 45.883)" opacity="0.3">
              <g id="Grupo_597844" data-name="Grupo 597844">
                <g id="Grupo_597843" data-name="Grupo 597843" clip-path="url(#clip-path-21)">
                  <path id="Trazado_234994" data-name="Trazado 234994" d="M206.531,183.116a8.169,8.169,0,0,1-1.84-.009c-.713-.033-1.413-.036-2.123-.1a3.03,3.03,0,0,1-1.569-.389.772.772,0,0,0,.349.67,3.638,3.638,0,0,0,1.184.3,19.176,19.176,0,0,0,4.243.092,4.6,4.6,0,0,0-.244-.562" transform="translate(-200.999 -182.614)"/>
                </g>
              </g>
            </g>
            <path id="Trazado_234995" data-name="Trazado 234995" d="M205.881,179.389c.442.109.715.187.786.539.06.293.061.663-.217.764a.721.721,0,0,1-.268.026l-4.636-.138a.673.673,0,0,1-.444-.121.468.468,0,0,1,.05-.649,1.257,1.257,0,0,1,.66-.272,14.994,14.994,0,0,1,4.069-.148" transform="translate(-150.969 -134.263)" fill="#ffd947"/>
            <path id="Trazado_234996" data-name="Trazado 234996" d="M201.054,180.052a.441.441,0,0,1-.154-.176.579.579,0,0,1,.087-.6,1.407,1.407,0,0,1,.867-.357c.363-.044.763-.087,1.183-.117a12,12,0,0,1,2.155.014c.275.028.5.065.648.091l.175.032a.27.27,0,0,0,.062.008.244.244,0,0,0-.059-.019l-.173-.043c-.152-.033-.372-.076-.647-.109a10.94,10.94,0,0,0-2.164-.031c-.422.031-.822.075-1.185.122a1.428,1.428,0,0,0-.891.383.6.6,0,0,0-.077.639.393.393,0,0,0,.117.138.22.22,0,0,0,.056.028" transform="translate(-150.841 -133.803)" fill="#263238"/>
            <path id="Trazado_234997" data-name="Trazado 234997" d="M176.324,185l2.81-.546-.1.843-3.077.464Z" transform="translate(-132.163 -138.111)" fill="#fff"/>
            <path id="Trazado_234998" data-name="Trazado 234998" d="M178.942,193.743c0-.016-1.288.02-2.876.08s-2.875.121-2.874.137,1.288-.02,2.876-.08,2.874-.121,2.874-.137" transform="translate(-130.088 -145.061)" fill="#263238"/>
            <path id="Trazado_234999" data-name="Trazado 234999" d="M53.368,249.107H51.189v-4.794a2.581,2.581,0,0,1,2.548-2.608h2.278v2.231H53.737a.374.374,0,0,0-.369.378Z" transform="translate(-38.449 -180.975)" fill="#e0e0e0"/>
            <path id="Trazado_235000" data-name="Trazado 235000" d="M64.387,247.729a1.091,1.091,0,0,1,.74-1.317c1.127-.335,2.871-.754,3.346-.316.719.663,2.438,2.272,2.438,2.272l3.657.883.219,3.313L68.348,250.7s-1.75.094-1.594-.852c0,0-.875-.347-.75-.883s.844-.662.844-.662l-.156-.947-2.3.406Z" transform="translate(-48.336 -184.122)" fill="#ffbe9d"/>
            <path id="Trazado_235001" data-name="Trazado 235001" d="M64.344,240.471a2.2,2.2,0,1,1-2.2-2.224,2.214,2.214,0,0,1,2.2,2.224" transform="translate(-45.021 -178.386)" fill="#fff"/>
            <path id="Trazado_235002" data-name="Trazado 235002" d="M61.765,242.447a2.35,2.35,0,1,1,2.328-2.35,2.342,2.342,0,0,1-2.328,2.35m0-4.448a2.1,2.1,0,1,0,2.079,2.1,2.091,2.091,0,0,0-2.079-2.1" transform="translate(-44.644 -178.011)" fill="#e0e0e0"/>
            <path id="Trazado_235003" data-name="Trazado 235003" d="M70.025,249.974l-2.906-.757s-.781-.221-.375.631,1.625.663,2.094,1.167a3.467,3.467,0,0,0,2.672,1.672" transform="translate(-50.045 -186.58)" fill="#ffbe9d"/>
            <path id="Trazado_235004" data-name="Trazado 235004" d="M71.322,252.506a1.96,1.96,0,0,1-.383-.049,4.11,4.11,0,0,1-1-.327,2.758,2.758,0,0,1-.609-.415,4.471,4.471,0,0,1-.552-.637,1.4,1.4,0,0,0-.3-.308,1.538,1.538,0,0,0-.41-.183,7.585,7.585,0,0,1-.945-.306,1.484,1.484,0,0,1-.428-.3,1.387,1.387,0,0,1-.26-.44,1.028,1.028,0,0,1-.056-.251.322.322,0,0,1,.1-.262.39.39,0,0,1,.252-.08.855.855,0,0,1,.236.033l1.5.405,1.009.284a2.159,2.159,0,0,1,.365.121,2.164,2.164,0,0,1-.378-.072l-1.019-.244-1.508-.378a.462.462,0,0,0-.376.026c-.083.069-.056.234,0,.373a1.277,1.277,0,0,0,.235.4,1.372,1.372,0,0,0,.389.271,7.964,7.964,0,0,0,.928.3,1.635,1.635,0,0,1,.441.2,1.494,1.494,0,0,1,.324.337,4.524,4.524,0,0,0,.53.631,2.733,2.733,0,0,0,.578.412,4.661,4.661,0,0,0,.972.36,2.414,2.414,0,0,1,.372.1" transform="translate(-49.857 -186.399)" fill="#eb996e"/>
            <path id="Trazado_235005" data-name="Trazado 235005" d="M66.836,242.659l.327-.191-.953-1.3Z" transform="translate(-49.732 -180.573)" fill="#ff725e"/>
            <path id="Trazado_235006" data-name="Trazado 235006" d="M59.824,240.911c.015.016-.107.132-.233.364a2.472,2.472,0,0,0-.283.984,2.6,2.6,0,0,0,.116,1.02,3.6,3.6,0,0,1,.152.408.957.957,0,0,1-.238-.375,2.265,2.265,0,0,1-.159-1.063,2.179,2.179,0,0,1,.334-1.021c.155-.232.3-.327.312-.316" transform="translate(-44.442 -180.38)" fill="#263238"/>
            <path id="Trazado_235007" data-name="Trazado 235007" d="M104.542,254.377l12.328,1.383,10.5-2.465.1,8.775s-11.469-.41-12.219-.473-10.965-1.418-10.965-1.418Z" transform="translate(-78.329 -189.652)" fill="#ffd947"/>
            <path id="Trazado_235008" data-name="Trazado 235008" d="M114.7,258.668l-.067,5.874,2.2.289.048-5.919Z" transform="translate(-86.104 -193.676)" fill="#fff"/>
            <path id="Trazado_235009" data-name="Trazado 235009" d="M202.756,232.018l.921.781,6.164,2.09,3.555,5.3s1.657,15.779,1.565,17.16.07,1.639.07,1.639l-18.751-5.381L195.274,245l.442-7.636.909-1.432,1.032,1.7,1.82-2.567Z" transform="translate(-146.674 -173.722)" fill="#ffd947"/>
            <path id="Trazado_235010" data-name="Trazado 235010" d="M213.721,284.537l-18.771-.721.346,3.086,18.774,1.174Z" transform="translate(-146.43 -212.505)" fill="#fff"/>
            <path id="Trazado_235011" data-name="Trazado 235011" d="M192.516,268.8a.468.468,0,0,1,.034.123l.073.356c.061.31.139.76.227,1.317.178,1.115.378,2.661.575,4.371s.383,3.257.537,4.373l.187,1.322.048.36a.487.487,0,0,1,.008.127.453.453,0,0,1-.034-.122l-.072-.356c-.061-.31-.139-.76-.228-1.317-.178-1.115-.378-2.662-.575-4.372s-.383-3.256-.537-4.373l-.187-1.322-.049-.36a.468.468,0,0,1-.008-.127" transform="translate(-144.601 -201.265)" fill="#263238"/>
            <path id="Trazado_235012" data-name="Trazado 235012" d="M204.848,240.5a.975.975,0,0,1,.134-.179l.4-.474,1.436-1.629.04-.045.045.041,1.286,1.168.107.1-.095.009c.773-1.023,1.474-1.938,1.986-2.6l.61-.774a1.955,1.955,0,0,1,.237-.273,1.959,1.959,0,0,1-.2.3l-.578.8c-.493.672-1.182,1.6-1.955,2.62l-.043.057-.052-.047-.107-.1-1.28-1.174.085,0-1.47,1.6-.429.451a.944.944,0,0,1-.164.152" transform="translate(-153.865 -176.59)" fill="#263238"/>
            <path id="Trazado_235013" data-name="Trazado 235013" d="M198.557,251.817a3.629,3.629,0,0,1-.8-.887l.1,0c-.069.094-.14.2-.21.3a6.553,6.553,0,0,0-.454.83l-.038.082-.05-.071a2.49,2.49,0,0,1-.328-.518,2.488,2.488,0,0,1,.409.456l-.088.011a4.661,4.661,0,0,1,.44-.862c.071-.11.145-.214.218-.309l.053-.069.049.071c.385.562.726.937.7.96" transform="translate(-147.8 -187.774)" fill="#263238"/>
            <path id="Trazado_235014" data-name="Trazado 235014" d="M147.819,273.276l6.94,5.682,1.674-2.03-6.777-5.776Z" transform="translate(-111.03 -203.024)" fill="#263238"/>
            <path id="Trazado_235015" data-name="Trazado 235015" d="M135.584,269.011a6.185,6.185,0,0,0-2.219-1.542,4.038,4.038,0,0,0-2.918-.141l-.092-.233a4.224,4.224,0,0,1,3.111.145,6.3,6.3,0,0,1,2.314,1.617Z" transform="translate(-97.912 -199.814)" fill="#263238"/>
            <path id="Trazado_235016" data-name="Trazado 235016" d="M160.788,283.407a8.318,8.318,0,0,1,1.805.413c.463.241,1.8,1.142,1.8,1.142l2.711.517L166.46,290l-1.813-.908-4,.4s-.87-.2-.87-.829a1.658,1.658,0,0,1-.775-1.183,18.174,18.174,0,0,1-1.166-1.69c-.1-.274.447-.921.447-.921A6.3,6.3,0,0,0,160.121,286c.694.152,1.32-.123,1.38-.573a3.435,3.435,0,0,0-.714-2.016" transform="translate(-118.548 -212.199)" fill="#e0e0e0"/>
            <g id="Grupo_597848" data-name="Grupo 597848" transform="translate(49.409 70.036)" opacity="0.3">
              <g id="Grupo_597847" data-name="Grupo 597847">
                <g id="Grupo_597846" data-name="Grupo 597846" clip-path="url(#clip-path-22)">
                  <path id="Trazado_235017" data-name="Trazado 235017" d="M198.571,287.71s9.1,3.293,12.149,3.1c2.585-.166,3.858-1.389,4.063-3.1s.49-8.967.49-8.967l-4.881,8.543-11.869-.376Z" transform="translate(-198.523 -278.743)"/>
                </g>
              </g>
            </g>
            <path id="Trazado_235018" data-name="Trazado 235018" d="M203.625,260.26A56.4,56.4,0,0,0,205,254.742l1.134-6.046a6.623,6.623,0,0,0-1.475-4.335,4.094,4.094,0,0,0-3.175-1.664c-2.944.013-2.84,5.491-2.84,5.491l-.8,7.842-11.519-1.9-.731,5.591,13.547,2.95a4,4,0,0,0,3.323-.646,3.56,3.56,0,0,0,1.165-1.77" transform="translate(-139.401 -181.717)" fill="#ffd947"/>
            <path id="Trazado_235019" data-name="Trazado 235019" d="M241.9,244.577c0,.022-.235.029-.6.126a3.226,3.226,0,0,0-1.275.673,3.271,3.271,0,0,0-.845,1.176c-.147.347-.188.582-.209.577a1.534,1.534,0,0,1,.124-.611,3.006,3.006,0,0,1,.846-1.241,2.965,2.965,0,0,1,1.339-.665,1.493,1.493,0,0,1,.617-.035" transform="translate(-179.494 -183.114)" fill="#263238"/>
            <path id="Trazado_235020" data-name="Trazado 235020" d="M199.126,290.149l-.409,5.818,2.361.514.363-5.951Z" transform="translate(-149.26 -217.247)" fill="#fff"/>
            <path id="Trazado_235021" data-name="Trazado 235021" d="M205.916,265.06s0,.05-.02.145l-.073.424-.293,1.629-.472,2.576c-.095.5-.186,1.039-.3,1.608s-.244,1.166-.386,1.793-.3,1.282-.481,1.96c-.089.339-.189.684-.3,1.033a7.3,7.3,0,0,1-.395,1.048,3.329,3.329,0,0,1-.67.949,3.564,3.564,0,0,1-1,.652,4.146,4.146,0,0,1-2.444.258l-10.71-2.326-3.009-.656-.058-.013.008-.06.733-5.591.008-.064.063.01,11.516,1.913-.052.04.608-5.747c.074-.671.131-1.193.17-1.552.02-.173.036-.307.048-.4s.02-.136.02-.136,0,.047-.007.138-.02.229-.035.4c-.034.36-.083.882-.147,1.554l-.568,5.752,0,.048-.047-.008L186.1,270.56l.071-.054-.728,5.592-.05-.072,3.009.655,10.705,2.336a4.036,4.036,0,0,0,2.377-.245,3.461,3.461,0,0,0,.971-.628,3.22,3.22,0,0,0,.651-.917,7.192,7.192,0,0,0,.392-1.031c.108-.347.208-.69.3-1.028.183-.676.342-1.329.488-1.955s.276-1.223.395-1.789.213-1.1.311-1.6l.494-2.572.317-1.624.086-.422c.02-.095.034-.143.034-.143" transform="translate(-139.184 -198.081)" fill="#263238"/>
            <path id="Trazado_235022" data-name="Trazado 235022" d="M235.607,297.659a6.353,6.353,0,0,1-.757-1.035l-.484-.76a.529.529,0,0,0-.277-.208c0-.007.036-.024.107-.011a.474.474,0,0,1,.241.16c.155.187.324.451.522.746a6.386,6.386,0,0,1,.649,1.107" transform="translate(-175.828 -221.359)" fill="#263238"/>
            <g id="Grupo_597851" data-name="Grupo 597851" transform="translate(51.388 59.61)" opacity="0.3">
              <g id="Grupo_597850" data-name="Grupo 597850">
                <g id="Grupo_597849" data-name="Grupo 597849" clip-path="url(#clip-path-23)">
                  <path id="Trazado_235023" data-name="Trazado 235023" d="M206.474,241.1l1.561-.971,1.722,1.841,2.238-4.724-2.516,3.33-1.39-1.269Z" transform="translate(-206.474 -237.247)"/>
                </g>
              </g>
            </g>
            <rect id="Rectángulo_54627" data-name="Rectángulo 54627" width="2.836" height="7.324" transform="translate(8.931 60.769)" fill="#e0e0e0"/>
            <path id="Trazado_235024" data-name="Trazado 235024" d="M34.467,217.623a3.65,3.65,0,1,1-3.649-3.726,3.688,3.688,0,0,1,3.649,3.726" transform="translate(-20.407 -160.154)" fill="#fff"/>
            <path id="Trazado_235025" data-name="Trazado 235025" d="M30.443,221.1a3.852,3.852,0,1,1,3.774-3.852,3.818,3.818,0,0,1-3.774,3.852m0-7.452a3.6,3.6,0,1,0,3.525,3.6,3.567,3.567,0,0,0-3.525-3.6" transform="translate(-20.032 -159.78)" fill="#e0e0e0"/>
            <path id="Trazado_235026" data-name="Trazado 235026" d="M40.01,221.532l.7.2.566-2.619Z" transform="translate(-30.052 -164.063)" fill="#ff725e"/>
            <path id="Trazado_235027" data-name="Trazado 235027" d="M37.958,242.169a1.261,1.261,0,0,1-.491.273,3.482,3.482,0,0,1-1.342.183,4.114,4.114,0,0,1-1.325-.279,1.449,1.449,0,0,1-.491-.273c.01-.019.2.081.522.186a5,5,0,0,0,1.3.235,4.048,4.048,0,0,0,1.307-.14c.325-.095.508-.205.52-.185" transform="translate(-25.771 -181.249)" fill="#263238"/>
            <path id="Trazado_235028" data-name="Trazado 235028" d="M30.2,270.788c0,.036-3.243.039-7.243.006s-7.243-.088-7.243-.125,3.243-.039,7.244-.006,7.242.089,7.242.125" transform="translate(-11.802 -202.64)" fill="#263238"/>
          </g>
        </g>
      </g>
    </g>
  </g>
</svg>
