<svg xmlns="http://www.w3.org/2000/svg" xmlns:xlink="http://www.w3.org/1999/xlink" width="118" height="118" viewBox="0 0 118 118">
  <defs>
    <clipPath id="clip-path">
      <circle id="Elipse_7381" data-name="Elipse 7381" cx="52.262" cy="52.262" r="52.262" transform="translate(0 0)" fill="none" stroke="#707070" stroke-width="1"/>
    </clipPath>
  </defs>
  <g id="Grupo_877466" data-name="Grupo 877466" transform="translate(2093 7632)">
    <g id="Elipse_7428" data-name="Elipse 7428" transform="translate(-2093 -7632)" fill="#f4f4f4" stroke="#fff" stroke-width="4">
      <circle cx="59" cy="59" r="59" stroke="none"/>
      <circle cx="59" cy="59" r="57" fill="none"/>
    </g>
    <g id="Grupo_877035" data-name="Grupo 877035" transform="translate(-2692.832 -11405.832)">
      <g id="Enmascarar_grupo_700350" data-name="Enmascarar grupo 700350" transform="translate(606.832 3780.833)" clip-path="url(#clip-path)">
        <g id="Grupo_877041" data-name="Grupo 877041" transform="translate(254.697 836.85)">
          <path id="Trazado_238383" data-name="Trazado 238383" d="M-212.845-768.867a22.218,22.218,0,0,1-14.5-10.029c-8.618-13.574-.048-31.8,15.877-33.805a9.536,9.536,0,0,1,2.416-.171c.581.478,1.321.357,1.985.518a22.057,22.057,0,0,1,13.4,9.074c.691,1,1.62,1.93,1.576,3.3a32.074,32.074,0,0,0-2.362-3.185,17.965,17.965,0,0,0-13.5-6.227c-.733,0-1.469-.051-2.2,0a18.79,18.79,0,0,0-16.909,21.721c1.665,9.382,9.857,16.2,18.886,15.705a16.276,16.276,0,0,0,7.153-1.481,19.613,19.613,0,0,0,8.741-7.617c.445.38.018.687-.131.953a22.386,22.386,0,0,1-12.227,10.389c-1.523.561-3.166.575-4.644,1.243l-.237.053a4.9,4.9,0,0,0-1.73-.073A4.025,4.025,0,0,0-212.845-768.867Z" fill="#4581a0"/>
          <path id="Trazado_238384" data-name="Trazado 238384" d="M-133.708-768.445c1.478-.668,3.121-.682,4.644-1.243a22.387,22.387,0,0,0,12.227-10.389c.149-.266.575-.573.131-.953.458-1,.99-1.971,1.363-3a19.128,19.128,0,0,0-1.168-15.916c.044-1.369-.885-2.3-1.576-3.3a22.057,22.057,0,0,0-13.4-9.074c-.664-.161-1.4-.039-1.985-.518,10.449-.494,20.222,7.234,22.309,17.64.072.359.171.713.258,1.07.031.543-.132,1.109.193,1.617l.044,1.712-.02,1.63q-.1.853-.207,1.707l-.28,1.657a23.614,23.614,0,0,1-4.66,9.343.493.493,0,0,0-.1.5,7.207,7.207,0,0,0-2.315,2.322c-.5-.152-.72.289-1.018.518a22.365,22.365,0,0,1-9.579,4.317l-1.809.271-1.547.122Z" transform="translate(-75.57 -0.034)" fill="#3d7391"/>
          <path id="Trazado_238385" data-name="Trazado 238385" d="M-14.75-610.768q3.37,3.336,6.741,6.671A.8.8,0,0,1-8-602.779c-.694.654-1.377,1.32-2.065,1.98.01-.509-.377-.771-.683-1.078q-2.757-2.766-5.521-5.525c-.308-.308-.677-.579-.718-1.068Z" transform="translate(-166.461 -157.402)" fill="#f76f1b"/>
          <path id="Trazado_238386" data-name="Trazado 238386" d="M-25.947-600.386c.042.489.411.76.718,1.068q2.759,2.764,5.521,5.525c.305.306.693.568.683,1.078-2.582,2.716-1.893,2.373-4.153.143-1.8-1.779-3.691-3.48-5.316-5.436a11.876,11.876,0,0,0,2.2-2.227Z" transform="translate(-157.5 -165.487)" fill="#f68e36"/>
          <path id="Trazado_238387" data-name="Trazado 238387" d="M-63.854-643.791a7.206,7.206,0,0,1,2.315-2.322l4,3.955-1.421,1.577-.922.784C-61.256-641.076-62.6-642.385-63.854-643.791Z" transform="translate(-129.966 -129.879)" fill="#4581a0"/>
          <path id="Trazado_238388" data-name="Trazado 238388" d="M-134.544-612.164l1.506.037q-.009,4.253-.017,8.506c0,.258,0,.515,0,.773-.013.614-.193,1.137-.92,1.113-.675-.021-.8-.527-.794-1.1.007-1.436,0-2.872,0-4.308q0-2.485-.011-4.971Z" transform="translate(-74.735 -156.315)" fill="#52dd90"/>
          <path id="Trazado_238389" data-name="Trazado 238389" d="M-29.7-711.541l.02-1.63q4.693.006,9.387.011c.573,0,1.191-.008,1.219.766.03.852-.621.856-1.238.855Q-25.011-711.543-29.7-711.541Z" transform="translate(-156.557 -77.661)" fill="#46d987"/>
          <path id="Trazado_238390" data-name="Trazado 238390" d="M-41.724-629.78l1.421-1.577c1.315-1.189,1.319-1.193,2.562.061.456.46.886.946,1.327,1.42l-2.46,2.311c-.4-.366-.788-.747-1.2-1.1C-40.587-629.088-40.9-629.818-41.724-629.78Z" transform="translate(-147.198 -140.68)" fill="#f76f1b"/>
          <path id="Trazado_238391" data-name="Trazado 238391" d="M-28.953-619.238l2.46-2.311a15.736,15.736,0,0,1,2.4,2.386l-2.237,2.3-.349.152a10.821,10.821,0,0,0-2.306-2.316A1.16,1.16,0,0,0-28.953-619.238Z" transform="translate(-157.119 -149.007)" fill="#46d987"/>
          <path id="Trazado_238392" data-name="Trazado 238392" d="M-45.206-618.9a1.165,1.165,0,0,1-.031.208l-2.254,2.221c-.483-.448-.979-.883-1.446-1.346-1.22-1.207-1.215-1.212-.041-2.514l.922-.784c.828-.039,1.138.692,1.647,1.12C-45.994-619.651-45.606-619.271-45.206-618.9Z" transform="translate(-140.866 -149.341)" fill="#f68e36"/>
          <path id="Trazado_238393" data-name="Trazado 238393" d="M-31.906-696.434l.28-1.657c1.84,0,3.679.013,5.519.011.627,0,1.271.048,1.263.856-.007.746-.653.807-1.215.809C-28.008-696.407-29.957-696.425-31.906-696.434Z" transform="translate(-154.843 -89.404)" fill="#47da89"/>
          <path id="Trazado_238394" data-name="Trazado 238394" d="M-119.913-613.5l1.809-.271c-.01,1.792-.021,3.584-.026,5.377,0,.642.017,1.369-.84,1.391s-.879-.689-.883-1.344C-119.865-610.067-119.892-611.785-119.913-613.5Z" transform="translate(-86.313 -155.062)" fill="#52dd90"/>
          <path id="Trazado_238395" data-name="Trazado 238395" d="M-39.17-607.943l2.254-2.221a10.816,10.816,0,0,1,2.306,2.316,11.87,11.87,0,0,1-2.2,2.227A13.4,13.4,0,0,1-39.17-607.943Z" transform="translate(-149.187 -157.873)" fill="#7ee192"/>
          <path id="Trazado_238396" data-name="Trazado 238396" d="M-30.545-726.608c-.325-.508-.162-1.074-.193-1.617,1.875,0,3.75,0,5.625,0,.59,0,1.194.05,1.173.81-.02.719-.6.82-1.2.817C-26.941-726.611-28.743-726.607-30.545-726.608Z" transform="translate(-155.742 -65.936)" fill="#47da89"/>
          <path id="Trazado_238397" data-name="Trazado 238397" d="M-149.824-613.914a4.025,4.025,0,0,1,1.6.367q.012,2.688.026,5.378c0,.572-.138,1.074-.815,1.05-.649-.022-.808-.511-.807-1.086C-149.816-610.108-149.822-612.011-149.824-613.914Z" transform="translate(-63.021 -154.953)" fill="#46d987"/>
          <path id="Trazado_238398" data-name="Trazado 238398" d="M-196.114-759.693c-9.028.49-17.221-6.323-18.886-15.705a18.79,18.79,0,0,1,16.909-21.721c.729-.051,1.466,0,2.2,0,.012.481.4.436.71.517a18.08,18.08,0,0,1,8.892,5.243c4.257,4.609,6.1,10.065,4.886,16.2-1.56,7.863-6.356,12.955-14.212,14.993C-195.906-760.088-196.094-760.005-196.114-759.693Zm6.879-24.458a9.762,9.762,0,0,0-3.465.13c-.018-1.914-.046-3.829-.05-5.743-.008-3.277,0-3.277-3.354-3.054-.808-.012-1.618.008-2.423-.044s-1.135.239-1.106,1.071c.04,1.136-.015,2.276-.03,3.413a13.831,13.831,0,0,0-3.31-.072l-3.1.026c-.485.154-.386.567-.387.916q0,4.291.014,8.583c-.662.024-1.326.02-1.985.079a.784.784,0,0,0-.789.885.762.762,0,0,0,.789.763c.294.021.59.013.884.013h18.138l5.309,0c.555,0,.962-.239.983-.815.021-.594-.41-.825-.945-.859-.624-.04-1.249-.056-1.874-.083,0-.736.01-1.471.01-2.207C-185.92-784.411-185.921-784.411-189.235-784.151Zm-4,12.254c.449,1.131.8,1.972,1.116,2.827a1.193,1.193,0,0,0,1.251.871c1.29-.013,2.58,0,3.87,0,.605,0,1.18-.146,1.194-.851.014-.721-.551-.854-1.166-.844-.848.014-1.7-.054-2.542.019a1.258,1.258,0,0,1-1.532-1c-.368-1.155-.871-2.267-1.313-3.4-.169-.432-.389-.836-.918-.817s-.754.392-.885.853c-.06.212-.146.417-.224.624-.689,1.831-1.379,3.662-2.174,5.774l-1.55-4.338c-.173-.482-.276-1.064-.9-1.137-.7-.081-.89.536-1.161,1.005a19.333,19.333,0,0,0-.963,1.738,1.091,1.091,0,0,1-1.215.7c-.993-.043-1.99-.009-2.985-.012-.543,0-.964.172-.99.785s.389.855.917.881c.772.039,1.557-.059,2.319.041,1.714.224,3.045-.165,3.656-1.958.012-.035.111-.039.238-.079.552,1.562,1.1,3.121,1.655,4.678.173.485.31,1.029,1,1,.6-.029.746-.5.916-.961C-194.87-767.542-194.105-769.567-193.232-771.9Z" transform="translate(-12.056 -12.274)" fill="#f1f1f1"/>
          <path id="Trazado_238399" data-name="Trazado 238399" d="M-128.7-759.61c.021-.312.208-.4.5-.47,7.856-2.039,12.652-7.13,14.212-14.993,1.218-6.137-.629-11.593-4.886-16.2a18.081,18.081,0,0,0-8.892-5.243c-.309-.082-.7-.036-.71-.517a17.965,17.965,0,0,1,13.5,6.227,32.074,32.074,0,0,1,2.362,3.185,19.129,19.129,0,0,1,1.168,15.916c-.372,1.03-.9,2-1.363,3a19.613,19.613,0,0,1-8.741,7.617A16.277,16.277,0,0,1-128.7-759.61Z" transform="translate(-79.47 -12.356)" fill="#e1e2e2"/>
          <path id="Trazado_238400" data-name="Trazado 238400" d="M-161.735-694.332c-.873,2.329-1.638,4.355-2.391,6.385-.171.46-.316.931-.916.961-.686.034-.823-.51-1-1-.555-1.557-1.1-3.116-1.655-4.678-.127.04-.226.045-.238.079-.611,1.793-1.942,2.182-3.656,1.958-.762-.1-1.547,0-2.319-.041-.528-.027-.944-.27-.917-.881s.447-.786.99-.785c1,0,1.992-.031,2.985.011a1.091,1.091,0,0,0,1.215-.7,19.338,19.338,0,0,1,.963-1.738c.271-.469.461-1.087,1.161-1.005.625.073.729.654.9,1.137l1.55,4.338c.8-2.112,1.485-3.943,2.174-5.774.078-.207.164-.412.224-.624.131-.461.37-.835.885-.853s.75.385.918.817c.441,1.132.945,2.244,1.313,3.4a1.258,1.258,0,0,0,1.532,1c.841-.073,1.694-.005,2.542-.019.614-.01,1.18.123,1.166.844-.014.7-.589.851-1.194.851-1.29,0-2.58-.01-3.87,0a1.193,1.193,0,0,1-1.251-.871C-160.935-692.36-161.286-693.2-161.735-694.332Z" transform="translate(-43.553 -89.838)" fill="#2ccdf4"/>
          <path id="Trazado_238401" data-name="Trazado 238401" d="M-144.738-773.343c.014-1.138.069-2.278.03-3.414-.029-.832.305-1.123,1.106-1.071s1.615.033,2.423.044q0,6.985-.008,13.969a17.485,17.485,0,0,1-3.511-.076Z" transform="translate(-66.981 -27.309)" fill="#f18e3a"/>
          <path id="Trazado_238402" data-name="Trazado 238402" d="M-128.7-763.927q0-6.985.008-13.969c3.352-.222,3.346-.222,3.354,3.054,0,1.914.033,3.829.05,5.743l-.04,5.1A20.217,20.217,0,0,1-128.7-763.927Z" transform="translate(-79.473 -27.196)" fill="#f76f1b"/>
          <path id="Trazado_238403" data-name="Trazado 238403" d="M-174.807-714.832a20.217,20.217,0,0,0,3.372-.076l3.466-.023,3.343,0c.625.026,1.25.042,1.873.083.535.035.966.266.945.859-.021.576-.428.815-.983.815l-5.309,0h-18.138c-.295,0-.591.008-.884-.013a.762.762,0,0,1-.789-.763.784.784,0,0,1,.789-.885c.659-.059,1.323-.056,1.985-.08l.37-.008,3.1-.007,3.347.015A17.485,17.485,0,0,0-174.807-714.832Z" transform="translate(-33.362 -76.291)" fill="#4684a0"/>
          <path id="Trazado_238404" data-name="Trazado 238404" d="M-156.349-748.569l-3.347-.016,0-9.511a13.809,13.809,0,0,1,3.31.072Q-156.368-753.3-156.349-748.569Z" transform="translate(-55.332 -42.629)" fill="#22b4ec"/>
          <path id="Trazado_238405" data-name="Trazado 238405" d="M-170.6-757.871l0,9.511-3.1.007q0-4.746,0-9.491Z" transform="translate(-44.429 -42.854)" fill="#29cdf5"/>
          <path id="Trazado_238406" data-name="Trazado 238406" d="M-109.992-733.556l-3.466.023.04-5.1a9.779,9.779,0,0,1,3.465-.129Q-109.972-736.157-109.992-733.556Z" transform="translate(-91.339 -57.666)" fill="#7ee192"/>
          <path id="Trazado_238407" data-name="Trazado 238407" d="M-97.795-733.6q.02-2.6.04-5.2c3.314-.26,3.315-.26,3.314,3,0,.736-.007,1.471-.01,2.207Z" transform="translate(-103.536 -57.625)" fill="#46d987"/>
          <path id="Trazado_238408" data-name="Trazado 238408" d="M-175.077-757.753q0,4.746,0,9.491l-.37.008q-.009-4.291-.014-8.583C-175.463-757.186-175.561-757.6-175.077-757.753Z" transform="translate(-43.049 -42.946)" fill="#2ccdf4"/>
        </g>
      </g>
    </g>
  </g>
</svg>
