<svg xmlns="http://www.w3.org/2000/svg" width="118" height="118" viewBox="0 0 118 118">
  <g id="Grupo_877473" data-name="Grupo 877473" transform="translate(3559 5962)">
    <g id="Elipse_7431" data-name="Elipse 7431" transform="translate(-3559 -5962)" fill="#f4f4f4" stroke="#fff" stroke-width="4">
      <circle cx="59" cy="59" r="59" stroke="none"/>
      <circle cx="59" cy="59" r="57" fill="none"/>
    </g>
    <g id="Grupo_877469" data-name="Grupo 877469" transform="translate(-14.128 112.86)">
      <g id="cuidado" transform="translate(-3520.872 -6058.86)">
        <path id="Trazado_237164" data-name="Trazado 237164" d="M200.2,33.015h3.093V29.921a7.432,7.432,0,0,0-7.432-7.432H193.43a.666.666,0,0,0-.666.666v2.428A7.432,7.432,0,0,0,200.2,33.015Z" transform="translate(-167.917 -18.746)" fill="#b3e59f"/>
        <g id="Grupo_599492" data-name="Grupo 599492" transform="translate(29.657 8.554)">
          <path id="Trazado_237165" data-name="Trazado 237165" d="M227.38,58.392a1.282,1.282,0,0,1-.909-.377l-4.429-4.429a1.286,1.286,0,1,1,1.819-1.819L228.29,56.2a1.286,1.286,0,0,1-.909,2.2Z" transform="translate(-221.665 -51.391)" fill="#78c2a4"/>
        </g>
        <g id="Grupo_599494" data-name="Grupo 599494" transform="translate(34.086)">
          <path id="Trazado_237166" data-name="Trazado 237166" d="M259.093,10.526H256V7.432A7.432,7.432,0,0,1,263.432,0h2.428a.666.666,0,0,1,.666.666V3.093A7.432,7.432,0,0,1,259.093,10.526Z" transform="translate(-254.714 0)" fill="#b3e59f"/>
          <g id="Grupo_599493" data-name="Grupo 599493" transform="translate(0 5.332)">
            <path id="Trazado_237167" data-name="Trazado 237167" d="M249.56,38.514a1.286,1.286,0,0,1-.853-2.249l4.413-3.908a1.286,1.286,0,0,1,1.7,1.926l-4.413,3.908A1.28,1.28,0,0,1,249.56,38.514Z" transform="translate(-248.273 -32.034)" fill="#78c2a4"/>
          </g>
        </g>
        <g id="Grupo_599496" data-name="Grupo 599496" transform="translate(34.086 9.197)">
          <g id="Grupo_599495" data-name="Grupo 599495">
            <path id="Trazado_237168" data-name="Trazado 237168" d="M249.56,71.277a1.286,1.286,0,0,1-1.286-1.286V56.541a1.286,1.286,0,0,1,2.572,0v13.45A1.286,1.286,0,0,1,249.56,71.277Z" transform="translate(-248.274 -55.255)" fill="#78c2a4"/>
          </g>
        </g>
        <g id="Grupo_599497" data-name="Grupo 599497" transform="translate(0 57.702)">
          <path id="Trazado_237169" data-name="Trazado 237169" d="M400.182,353.133l-9.165,1.986-1.385-6.393,9.165-1.986a3.271,3.271,0,1,1,1.385,6.393Z" transform="translate(-332.016 -346.665)" fill="#edbb87"/>
          <path id="Trazado_237170" data-name="Trazado 237170" d="M46.069,353.133l9.165,1.986,1.386-6.393-9.165-1.986a3.271,3.271,0,1,0-1.386,6.393Z" transform="translate(-43.49 -346.665)" fill="#edbb87"/>
        </g>
        <g id="Grupo_599498" data-name="Grupo 599498" transform="translate(3.81 18.964)">
          <path id="Trazado_237171" data-name="Trazado 237171" d="M141.992,145.5a31.562,31.562,0,0,1-31.562,31.562C93,177.06,81.363,162.929,81.363,145.5c0-6.97-.238-13.412,3.588-18.634a31.577,31.577,0,0,1,18.84-12.229c1.07-.229,2.16,2.093,3.267,1.975s2.232-2.674,3.37-2.674c10.6,0,17.475,5.221,23.2,13.23,2.707,3.788,7.094,8.2,7.911,12.976A31.766,31.766,0,0,1,141.992,145.5Z" transform="translate(-78.867 -113.935)" fill="#9dc6fb"/>
          <path id="Trazado_237172" data-name="Trazado 237172" d="M184.3,126.834a31.569,31.569,0,0,1-28.068,56.259A31.566,31.566,0,0,0,204.4,156.25a31.763,31.763,0,0,0-.453-5.356c-.658-3.849-4.51-7.461-6.428-10.7-3.575-6.038-6.608-10.781-13.22-13.36Z" transform="translate(-141.278 -124.687)" fill="#80b4fb"/>
          <path id="Trazado_237173" data-name="Trazado 237173" d="M253.868,140.143a31.562,31.562,0,0,0-37.737-25.5c.63,2.535,1.272,5.512,1.851,9.025.946,5.745,1.342,10.616,4.08,11.5,2.666.859,4.833-2.943,8.531-2.225,3.1.6,3.537,3.659,6.305,5.934C240.653,141.959,247.716,142.8,253.868,140.143Z" transform="translate(-191.205 -113.935)" fill="#b3e59f"/>
          <path id="Trazado_237174" data-name="Trazado 237174" d="M339.815,152.271a19.472,19.472,0,0,0,4.718-1.355A31.611,31.611,0,0,0,324.9,126.859,31.544,31.544,0,0,1,339.815,152.271Z" transform="translate(-281.87 -124.708)" fill="#95d6a4"/>
          <path id="Trazado_237175" data-name="Trazado 237175" d="M79.484,199.779c-.99-3.194-3.7-6.167-7.016-8.151a31.536,31.536,0,0,0,2.548,40.313c3.959-2.632,6.8-6.869,7.065-10.669.179-2.527-.926-2.767-1.889-7.794C78.75,205.95,80.686,203.66,79.484,199.779Z" transform="translate(-66.378 -178.696)" fill="#b3e59f"/>
          <path id="Trazado_237176" data-name="Trazado 237176" d="M191.679,368.94a31.58,31.58,0,0,0,34.184-8.607,46.359,46.359,0,0,0-7.091-7.676c-2.494-2.276-8.439-7.7-12.106-5.943-2.867,1.374-1.466,5.761-3.962,11.446C200.107,364.076,195.215,367.016,191.679,368.94Z" transform="translate(-170.823 -307.681)" fill="#b3e59f"/>
          <path id="Trazado_237177" data-name="Trazado 237177" d="M225.862,408.361h0a32.494,32.494,0,0,0-3.64-4.373,31.676,31.676,0,0,1-28.868,12.035c-.551.325-1.116.64-1.676.945a31.58,31.58,0,0,0,34.184-8.607Z" transform="translate(-170.822 -355.709)" fill="#95d6a4"/>
        </g>
        <path id="Trazado_237178" data-name="Trazado 237178" d="M376.873,369.741a3,3,0,0,1,4.244,0l5.092,5.092a3,3,0,0,1-4.244,4.244l-5.092-5.093A3,3,0,0,1,376.873,369.741Z" transform="translate(-320.649 -307.465)" fill="#f1d0a4"/>
        <path id="Trazado_237179" data-name="Trazado 237179" d="M386.712,381.175a3,3,0,0,1-4.244,0l-5.092-5.093a2.99,2.99,0,0,1-.643-.958,3,3,0,0,0,.148,4.08l5.092,5.093a3,3,0,0,0,4.887-3.285C386.812,381.067,386.764,381.122,386.712,381.175Z" transform="translate(-320.656 -312.685)" fill="#edbb87"/>
        <path id="Trazado_237180" data-name="Trazado 237180" d="M340.45,384.31a3,3,0,0,1,4.244,0l8.73,8.73a3,3,0,0,1-4.244,4.244l-8.73-8.73A3,3,0,0,1,340.45,384.31Z" transform="translate(-290.289 -319.609)" fill="#f1d0a4"/>
        <path id="Trazado_237181" data-name="Trazado 237181" d="M353.6,400.7a3,3,0,0,1-4.244,0l-8.73-8.73a3,3,0,0,1-.517-.7,3,3,0,0,0,.352,3.818l8.73,8.73a3,3,0,0,0,4.761-3.548A2.985,2.985,0,0,1,353.6,400.7Z" transform="translate(-290.295 -326.145)" fill="#edbb87"/>
        <path id="Trazado_237182" data-name="Trazado 237182" d="M314.955,409.806a3,3,0,0,1,4.244,0l8.73,8.73a3,3,0,1,1-4.244,4.244l-8.73-8.73A3,3,0,0,1,314.955,409.806Z" transform="translate(-269.037 -340.861)" fill="#f1d0a4"/>
        <path id="Trazado_237183" data-name="Trazado 237183" d="M327.938,426.868a3,3,0,0,1-4.244,0l-8.73-8.73a3,3,0,0,1-.438-.561,3,3,0,0,0,.438,3.683l8.73,8.73a3,3,0,0,0,4.682-3.683A3,3,0,0,1,327.938,426.868Z" transform="translate(-269.047 -348.072)" fill="#edbb87"/>
        <path id="Trazado_237184" data-name="Trazado 237184" d="M300.386,446.228a3,3,0,0,1,4.244,0l5.092,5.093a3,3,0,1,1-4.244,4.244l-5.092-5.092A3,3,0,0,1,300.386,446.228Z" transform="translate(-256.893 -371.221)" fill="#f1d0a4"/>
        <path id="Trazado_237185" data-name="Trazado 237185" d="M306,457.557l-5.092-5.093a2.99,2.99,0,0,1-.645-.963,3,3,0,0,0,.131,4.1l5.092,5.093a3,3,0,0,0,4.889-3.281A3,3,0,0,1,306,457.557Z" transform="translate(-256.901 -376.35)" fill="#edbb87"/>
        <path id="Trazado_237186" data-name="Trazado 237186" d="M79.57,369.741a3,3,0,0,0-4.244,0l-5.093,5.092a3,3,0,0,0,4.244,4.244l5.092-5.093A3,3,0,0,0,79.57,369.741Z" transform="translate(-65.049 -307.465)" fill="#f1d0a4"/>
        <path id="Trazado_237187" data-name="Trazado 237187" d="M79.756,375.31a3,3,0,0,1-.434.555l-5.092,5.092a3,3,0,0,1-4.244,0c-.062-.062-.12-.128-.176-.194a3,3,0,0,0,4.678,3.689l5.093-5.093A3,3,0,0,0,79.756,375.31Z" transform="translate(-65.06 -312.84)" fill="#edbb87"/>
        <path id="Trazado_237188" data-name="Trazado 237188" d="M97.776,384.31a3,3,0,0,0-4.244,0l-8.73,8.73a3,3,0,0,0,4.244,4.244l8.73-8.73A3,3,0,0,0,97.776,384.31Z" transform="translate(-77.193 -319.609)" fill="#f1d0a4"/>
        <path id="Trazado_237189" data-name="Trazado 237189" d="M97.783,391.664l-8.73,8.73a2.991,2.991,0,0,1-4.592-.421,3,3,0,0,0,4.592,3.822l8.73-8.73a3,3,0,0,0,.348-3.822A3.011,3.011,0,0,1,97.783,391.664Z" transform="translate(-77.2 -326.121)" fill="#edbb87"/>
        <path id="Trazado_237190" data-name="Trazado 237190" d="M123.273,409.806a3,3,0,0,0-4.244,0l-8.73,8.73a3,3,0,1,0,4.244,4.244l8.73-8.73A3,3,0,0,0,123.273,409.806Z" transform="translate(-98.446 -340.861)" fill="#f1d0a4"/>
        <path id="Trazado_237191" data-name="Trazado 237191" d="M123.331,414.52a3,3,0,0,1-.461.6l-8.73,8.73a3,3,0,0,1-4.244,0c-.017-.017-.031-.035-.047-.052a3,3,0,0,0,4.7,3.643l8.73-8.73A3,3,0,0,0,123.331,414.52Z" transform="translate(-98.457 -345.523)" fill="#edbb87"/>
        <path id="Trazado_237192" data-name="Trazado 237192" d="M156.057,446.228a3,3,0,0,0-4.244,0l-5.093,5.093a3,3,0,1,0,4.244,4.244l5.093-5.092A3,3,0,0,0,156.057,446.228Z" transform="translate(-128.806 -371.221)" fill="#f1d0a4"/>
        <path id="Trazado_237193" data-name="Trazado 237193" d="M150.974,458.244a2.982,2.982,0,0,1-4.547-.36,3,3,0,0,0,4.547,3.884l5.093-5.093a3,3,0,0,0,.3-3.884C156.089,453.2,151.337,457.882,150.974,458.244Z" transform="translate(-128.815 -377.425)" fill="#edbb87"/>
      </g>
    </g>
  </g>
</svg>
