<svg id="Grupo_877443" data-name="Grupo 877443" xmlns="http://www.w3.org/2000/svg" xmlns:xlink="http://www.w3.org/1999/xlink" width="1028.881" height="530.738" viewBox="0 0 1028.881 530.738">
  <defs>
    <clipPath id="clip-path">
      <rect id="Rectángulo_55522" data-name="Rectángulo 55522" width="1028.881" height="530.738" fill="none"/>
    </clipPath>
  </defs>
  <rect id="Rectángulo_55490" data-name="Rectángulo 55490" width="147.187" height="437.428" transform="translate(39.748 69.257)" fill="#ea3584" opacity="0.5"/>
  <rect id="Rectángulo_55491" data-name="Rectángulo 55491" width="289.285" height="437.428" transform="translate(186.935 69.257)" fill="#f8b8d4"/>
  <rect id="Rectángulo_55492" data-name="Rectángulo 55492" width="286.267" height="437.428" transform="translate(476.221 69.257)" fill="#f8b8d4" opacity="0.5"/>
  <rect id="Rectángulo_55493" data-name="Rectángulo 55493" width="260.66" height="437.428" transform="translate(762.488 69.257)" fill="#fbdbe9" opacity="0.25"/>
  <g id="Grupo_599553" data-name="Grupo 599553">
    <g id="Grupo_599552" data-name="Grupo 599552" clip-path="url(#clip-path)">
      <path id="Trazado_237234" data-name="Trazado 237234" d="M35.758,491.852l-.12-1.6c68.875-5.165,108.039-22.169,137.266-38.124,43.514-23.752,63.349-52.182,77.832-72.943,3.034-4.348,5.9-8.455,8.675-12.072C365.5,228.874,471.579,185.725,472.638,185.306c53.914-26.175,114.925-41.767,181.285-46.322,53.069-3.641,109.658-.271,168.195,10.016,99.656,17.517,171.372,49.474,172.086,49.794l-.66,1.468c-.712-.321-72.277-32.207-171.746-49.684-91.757-16.12-226.706-22.929-348.51,36.2-1.11.442-106.8,43.458-212.6,181.311-2.753,3.587-5.608,7.681-8.632,12.013-14.574,20.89-34.534,49.5-78.38,73.433-29.378,16.037-68.738,33.129-137.917,38.317" transform="translate(4.05 15.634)" fill="#1a3f5e"/>
      <rect id="Rectángulo_55494" data-name="Rectángulo 55494" width="1.608" height="444.307" transform="translate(38.944 69.257)" fill="#1a3f5e"/>
      <rect id="Rectángulo_55495" data-name="Rectángulo 55495" width="988.87" height="1.608" transform="translate(34.278 505.88)" fill="#1a3f5e"/>
      <rect id="Rectángulo_55496" data-name="Rectángulo 55496" width="14.476" height="1.608" transform="translate(34.206 149.576)" fill="#1a3f5e"/>
      <rect id="Rectángulo_55497" data-name="Rectángulo 55497" width="14.476" height="1.608" transform="translate(34.206 237.863)" fill="#1a3f5e"/>
      <rect id="Rectángulo_55498" data-name="Rectángulo 55498" width="14.476" height="1.608" transform="translate(34.206 326.725)" fill="#1a3f5e"/>
      <rect id="Rectángulo_55499" data-name="Rectángulo 55499" width="14.476" height="1.608" transform="translate(34.206 413.673)" fill="#1a3f5e"/>
      <rect id="Rectángulo_55500" data-name="Rectángulo 55500" width="1.608" height="42.162" transform="translate(185.327 464.523)" fill="#1a3f5e"/>
      <rect id="Rectángulo_55501" data-name="Rectángulo 55501" width="4.021" height="1.608" transform="translate(39.748 463.719)" fill="#1a3f5e"/>
      <path id="Trazado_237235" data-name="Trazado 237235" d="M168.675,418h-8.137V416.4h8.137ZM152.4,418h-8.137V416.4H152.4Zm-16.276,0h-8.137V416.4h8.137Zm-16.275,0h-8.137V416.4h8.137Zm-16.275,0H95.437V416.4h8.137ZM87.3,418H79.161V416.4H87.3Zm-16.275,0H62.886V416.4h8.137Zm-16.275,0H46.611V416.4h8.137Z" transform="translate(5.297 47.324)" fill="#1a3f5e"/>
      <rect id="Rectángulo_55502" data-name="Rectángulo 55502" width="4.021" height="1.608" transform="translate(182.11 463.719)" fill="#1a3f5e"/>
      <rect id="Rectángulo_55503" data-name="Rectángulo 55503" width="1028.881" height="3.217" transform="translate(0 -0.001)" fill="#1a3f5e"/>
      <rect id="Rectángulo_55504" data-name="Rectángulo 55504" width="1028.881" height="1.608" transform="translate(0 53.26)" fill="#1a3f5e"/>
      <path id="Trazado_237236" data-name="Trazado 237236" d="M10.764,17.179H5.98v3.086h5.343v2.411H3.048v-13h8.006v2.412H5.98v2.7h4.784Z" transform="translate(0.346 1.099)" fill="#15324b"/>
      <path id="Trazado_237237" data-name="Trazado 237237" d="M19.232,22.676l-1.177-2.353c-.482-.908-.791-1.581-1.157-2.334h-.039c-.27.753-.6,1.427-1.022,2.334l-1.06,2.353H11.42L15.182,16.1,11.555,9.673H14.93l1.138,2.374c.386.791.676,1.428.984,2.16h.038c.31-.831.56-1.409.888-2.16l1.1-2.374h3.358l-3.666,6.348,3.859,6.655Z" transform="translate(1.298 1.099)" fill="#15324b"/>
      <path id="Trazado_237238" data-name="Trazado 237238" d="M25.859,9.674v5.017H30.7V9.674h2.932v13H30.7V17.255H25.859v5.421H22.927v-13Z" transform="translate(2.606 1.099)" fill="#15324b"/>
      <rect id="Rectángulo_55505" data-name="Rectángulo 55505" width="2.932" height="13.003" transform="translate(38.831 10.772)" fill="#15324b"/>
      <path id="Trazado_237239" data-name="Trazado 237239" d="M39.79,9.876a22.965,22.965,0,0,1,3.8-.288,7.186,7.186,0,0,1,3.839.733,2.822,2.822,0,0,1,1.544,2.566,2.955,2.955,0,0,1-2.123,2.757v.04a3.237,3.237,0,0,1,2.585,3.2,3.408,3.408,0,0,1-1.35,2.759c-.945.753-2.527,1.177-5.112,1.177a22.654,22.654,0,0,1-3.184-.194ZM42.7,14.836h.964c1.562,0,2.373-.638,2.373-1.6,0-.983-.753-1.5-2.084-1.5a5.4,5.4,0,0,0-1.254.1Zm0,5.768a6.327,6.327,0,0,0,1.138.057c1.331,0,2.508-.52,2.508-1.89,0-1.312-1.177-1.833-2.643-1.833h-1Z" transform="translate(4.522 1.09)" fill="#15324b"/>
      <rect id="Rectángulo_55506" data-name="Rectángulo 55506" width="2.932" height="13.003" transform="translate(55.989 10.772)" fill="#15324b"/>
      <path id="Trazado_237240" data-name="Trazado 237240" d="M57.825,12.143h-3.51V9.674h9.992v2.469H60.757V22.676H57.825Z" transform="translate(6.173 1.099)" fill="#15324b"/>
      <rect id="Rectángulo_55507" data-name="Rectángulo 55507" width="2.932" height="13.003" transform="translate(75.965 10.772)" fill="#15324b"/>
      <path id="Trazado_237241" data-name="Trazado 237241" d="M4.491,28.886a19.471,19.471,0,0,1,3.222-.252,5.341,5.341,0,0,1,3.646,1.081A3.562,3.562,0,0,1,12.5,32.434a3.826,3.826,0,0,1-1,2.779A5.417,5.417,0,0,1,7.519,36.64a5.808,5.808,0,0,1-1.35-.116v5.209H4.491Zm1.678,6.269a5.608,5.608,0,0,0,1.389.135c2.026,0,3.261-1,3.261-2.757,0-1.736-1.235-2.567-3.068-2.567a7.065,7.065,0,0,0-1.581.135Z" transform="translate(0.51 3.254)" fill="#15324b"/>
      <path id="Trazado_237242" data-name="Trazado 237242" d="M13.39,34.944c0-1.1-.019-2.044-.077-2.912H14.8l.078,1.852h.058a2.823,2.823,0,0,1,2.6-2.045,3.343,3.343,0,0,1,.463.039v1.6a2.62,2.62,0,0,0-.579-.039A2.363,2.363,0,0,0,15.145,35.6a5.157,5.157,0,0,0-.058.79v4.978h-1.7Z" transform="translate(1.513 3.619)" fill="#15324b"/>
      <path id="Trazado_237243" data-name="Trazado 237243" d="M27.394,36.623a4.572,4.572,0,0,1-4.648,4.957,4.45,4.45,0,0,1-4.476-4.8c0-3.1,2.064-4.938,4.629-4.938,2.682,0,4.495,1.948,4.495,4.784m-7.388.1c0,2.045,1.157,3.589,2.816,3.589,1.62,0,2.835-1.526,2.835-3.627,0-1.581-.791-3.568-2.8-3.568-1.988,0-2.855,1.852-2.855,3.606" transform="translate(2.076 3.619)" fill="#15324b"/>
      <path id="Trazado_237244" data-name="Trazado 237244" d="M36.5,28.1V39.383c0,.829.039,1.775.077,2.411h-1.5L35,40.172h-.058A3.368,3.368,0,0,1,31.8,42.005c-2.257,0-4.012-1.91-4.012-4.745-.02-3.1,1.929-5,4.185-5a3.127,3.127,0,0,1,2.816,1.409h.039V28.1Zm-1.678,8.16a2.986,2.986,0,0,0-.077-.713,2.5,2.5,0,0,0-2.45-1.95c-1.756,0-2.8,1.545-2.8,3.589,0,1.89.945,3.452,2.759,3.452a2.572,2.572,0,0,0,2.489-2.025,2.955,2.955,0,0,0,.077-.733Z" transform="translate(3.158 3.193)" fill="#15324b"/>
      <path id="Trazado_237245" data-name="Trazado 237245" d="M45.984,38.783c0,.983.019,1.832.077,2.565h-1.5l-.1-1.523h-.039a3.487,3.487,0,0,1-3.087,1.736c-1.466,0-3.221-.83-3.221-4.09V32.012h1.7v5.15c0,1.775.559,2.991,2.084,2.991a2.442,2.442,0,0,0,2.237-1.562,2.329,2.329,0,0,0,.155-.869v-5.71h1.7Z" transform="translate(4.332 3.638)" fill="#15324b"/>
      <path id="Trazado_237246" data-name="Trazado 237246" d="M54.439,41.04a6.573,6.573,0,0,1-2.682.54,4.435,4.435,0,0,1-4.648-4.764,4.759,4.759,0,0,1,5.015-4.977,5.353,5.353,0,0,1,2.354.5l-.386,1.292a4.163,4.163,0,0,0-1.968-.442,3.24,3.24,0,0,0-3.3,3.529,3.2,3.2,0,0,0,3.242,3.491,4.868,4.868,0,0,0,2.083-.442Z" transform="translate(5.354 3.619)" fill="#15324b"/>
      <path id="Trazado_237247" data-name="Trazado 237247" d="M57.858,30V32.24h2.43v1.293h-2.43v5.034c0,1.158.327,1.814,1.273,1.814a3.186,3.186,0,0,0,.984-.116l.077,1.293a4.694,4.694,0,0,1-1.5.231,2.428,2.428,0,0,1-1.833-.713,3.656,3.656,0,0,1-.656-2.451V33.533H54.752V32.24H56.2V30.5Z" transform="translate(6.223 3.41)" fill="#15324b"/>
      <rect id="Rectángulo_55508" data-name="Rectángulo 55508" width="1.697" height="13.697" transform="translate(72.515 31.29)" fill="#15324b"/>
      <path id="Trazado_237248" data-name="Trazado 237248" d="M71.118,29.765a1.013,1.013,0,0,1-1.08,1.041,1,1,0,0,1-1.022-1.041A1.034,1.034,0,0,1,70.076,28.7a1.019,1.019,0,0,1,1.041,1.062m-1.89,2.623h1.7v9.337h-1.7Z" transform="translate(7.844 3.262)" fill="#15324b"/>
      <path id="Trazado_237249" data-name="Trazado 237249" d="M73.549,41.815V33.771H72.257V32.479h1.292v-.444a4.479,4.479,0,0,1,1.08-3.259,3.247,3.247,0,0,1,2.276-.869,3.859,3.859,0,0,1,1.447.27l-.232,1.312a2.482,2.482,0,0,0-1.08-.212c-1.447,0-1.813,1.253-1.813,2.7v.5h2.257v1.293H75.227v8.044Z" transform="translate(8.212 3.172)" fill="#15324b"/>
      <path id="Trazado_237250" data-name="Trazado 237250" d="M79.11,37.007a2.983,2.983,0,0,0,3.2,3.242,6.069,6.069,0,0,0,2.586-.482l.308,1.215a7.618,7.618,0,0,1-3.125.6c-2.874,0-4.592-1.91-4.592-4.726s1.659-5.015,4.379-5.015c3.067,0,3.858,2.662,3.858,4.379a4.078,4.078,0,0,1-.058.79Zm4.977-1.214a2.41,2.41,0,0,0-2.353-2.74,2.782,2.782,0,0,0-2.6,2.74Z" transform="translate(8.807 3.619)" fill="#15324b"/>
      <path id="Trazado_237251" data-name="Trazado 237251" d="M99.65,41.339a8.245,8.245,0,0,1-3.433.617c-3.665,0-6.4-2.315-6.4-6.6A6.459,6.459,0,0,1,96.6,28.53a7.042,7.042,0,0,1,3.087.579l-.424,1.37a5.947,5.947,0,0,0-2.6-.54c-3.048,0-5.073,1.948-5.073,5.362,0,3.2,1.832,5.227,4.977,5.227a6.741,6.741,0,0,0,2.759-.54Z" transform="translate(10.207 3.242)" fill="#15324b"/>
      <path id="Trazado_237252" data-name="Trazado 237252" d="M100.9,32.012l2.026,5.516c.232.618.462,1.351.617,1.91h.039c.174-.559.366-1.272.6-1.947l1.852-5.479h1.794l-2.547,6.655c-1.215,3.2-2.045,4.822-3.2,5.844A4.82,4.82,0,0,1,100,45.593l-.424-1.41a4.491,4.491,0,0,0,1.486-.829,5.363,5.363,0,0,0,1.427-1.89,1.22,1.22,0,0,0,.136-.405,1.169,1.169,0,0,0-.136-.444l-3.433-8.6Z" transform="translate(11.257 3.638)" fill="#15324b"/>
      <path id="Trazado_237253" data-name="Trazado 237253" d="M114.872,41.04a6.573,6.573,0,0,1-2.682.54,4.435,4.435,0,0,1-4.648-4.764,4.759,4.759,0,0,1,5.015-4.977,5.353,5.353,0,0,1,2.354.5l-.386,1.292a4.163,4.163,0,0,0-1.968-.442,3.24,3.24,0,0,0-3.3,3.529A3.2,3.2,0,0,0,112.5,40.21a4.868,4.868,0,0,0,2.083-.442Z" transform="translate(12.222 3.619)" fill="#15324b"/>
      <rect id="Rectángulo_55509" data-name="Rectángulo 55509" width="1.697" height="13.697" transform="translate(129.087 31.29)" fill="#15324b"/>
      <path id="Trazado_237254" data-name="Trazado 237254" d="M121.017,37.007a2.983,2.983,0,0,0,3.2,3.242,6.069,6.069,0,0,0,2.586-.482l.308,1.215a7.618,7.618,0,0,1-3.125.6c-2.874,0-4.592-1.91-4.592-4.726s1.659-5.015,4.379-5.015c3.067,0,3.858,2.662,3.858,4.379a4.079,4.079,0,0,1-.058.79Zm4.977-1.214a2.41,2.41,0,0,0-2.353-2.74,2.782,2.782,0,0,0-2.6,2.74Z" transform="translate(13.57 3.619)" fill="#15324b"/>
      <rect id="Rectángulo_55510" data-name="Rectángulo 55510" width="4.764" height="1.235" transform="translate(143.023 39.16)" fill="#15324b"/>
      <rect id="Rectángulo_55511" data-name="Rectángulo 55511" width="4.764" height="1.235" transform="translate(148.947 39.16)" fill="#15324b"/>
      <path id="Trazado_237255" data-name="Trazado 237255" d="M146.579,35.627h-5.035v4.687h5.633v1.409h-7.33v-13h7.041v1.41h-5.343v4.108h5.035Z" transform="translate(15.894 3.264)" fill="#15324b"/>
      <path id="Trazado_237256" data-name="Trazado 237256" d="M148.347,34.559c0-.984-.019-1.756-.077-2.527h1.5l.1,1.542h.039A3.46,3.46,0,0,1,153,31.838c1.292,0,3.3.772,3.3,3.975v5.555h-1.7V35.986c0-1.5-.559-2.76-2.16-2.76a2.491,2.491,0,0,0-2.392,2.527v5.614h-1.7Z" transform="translate(16.851 3.618)" fill="#15324b"/>
      <path id="Trazado_237257" data-name="Trazado 237257" d="M160.042,30V32.24h2.43v1.293h-2.43v5.034c0,1.158.327,1.814,1.273,1.814a3.186,3.186,0,0,0,.984-.116l.077,1.293a4.694,4.694,0,0,1-1.5.231,2.428,2.428,0,0,1-1.833-.713,3.656,3.656,0,0,1-.656-2.451V33.533h-1.447V32.24h1.447V30.5Z" transform="translate(17.836 3.41)" fill="#15324b"/>
      <path id="Trazado_237258" data-name="Trazado 237258" d="M165.538,29.765a1.013,1.013,0,0,1-1.08,1.041,1,1,0,0,1-1.022-1.041A1.034,1.034,0,0,1,164.5,28.7a1.019,1.019,0,0,1,1.042,1.062m-1.891,2.623h1.7v9.337h-1.7Z" transform="translate(18.575 3.262)" fill="#15324b"/>
      <path id="Trazado_237259" data-name="Trazado 237259" d="M167.689,34.944c0-1.1-.019-2.044-.077-2.912H169.1l.078,1.852h.058a2.823,2.823,0,0,1,2.6-2.045,3.342,3.342,0,0,1,.463.039v1.6a2.62,2.62,0,0,0-.579-.039,2.363,2.363,0,0,0-2.276,2.162,5.158,5.158,0,0,0-.058.79v4.978h-1.7Z" transform="translate(19.049 3.619)" fill="#15324b"/>
      <path id="Trazado_237260" data-name="Trazado 237260" d="M174.189,37.007a2.983,2.983,0,0,0,3.2,3.242,6.059,6.059,0,0,0,2.585-.482l.31,1.215a7.618,7.618,0,0,1-3.125.6c-2.874,0-4.592-1.91-4.592-4.726s1.659-5.015,4.379-5.015c3.067,0,3.858,2.662,3.858,4.379a4.078,4.078,0,0,1-.058.79Zm4.977-1.214a2.41,2.41,0,0,0-2.353-2.74,2.783,2.783,0,0,0-2.6,2.74Z" transform="translate(19.613 3.619)" fill="#15324b"/>
      <rect id="Rectángulo_55512" data-name="Rectángulo 55512" width="1.697" height="13.003" transform="translate(206.657 31.984)" fill="#15324b"/>
      <path id="Trazado_237261" data-name="Trazado 237261" d="M189.855,34.559c0-.984-.019-1.756-.077-2.527h1.5l.1,1.542h.039a3.46,3.46,0,0,1,3.087-1.736c1.292,0,3.3.772,3.3,3.975v5.555h-1.7V35.986c0-1.5-.559-2.76-2.16-2.76a2.491,2.491,0,0,0-2.392,2.527v5.614h-1.7Z" transform="translate(21.568 3.618)" fill="#15324b"/>
      <path id="Trazado_237262" data-name="Trazado 237262" d="M207.579,28.1V39.383c0,.829.039,1.775.077,2.411h-1.5l-.077-1.621h-.058a3.369,3.369,0,0,1-3.145,1.833c-2.256,0-4.012-1.91-4.012-4.745-.019-3.1,1.93-5,4.186-5a3.125,3.125,0,0,1,2.816,1.409h.039V28.1Zm-1.678,8.16a2.987,2.987,0,0,0-.077-.713,2.5,2.5,0,0,0-2.45-1.95c-1.756,0-2.8,1.545-2.8,3.589,0,1.89.945,3.452,2.759,3.452a2.572,2.572,0,0,0,2.489-2.025,2.955,2.955,0,0,0,.077-.733Z" transform="translate(22.601 3.193)" fill="#15324b"/>
      <path id="Trazado_237263" data-name="Trazado 237263" d="M217.059,38.783c0,.983.019,1.832.077,2.565h-1.5l-.1-1.523H215.5a3.487,3.487,0,0,1-3.087,1.736c-1.466,0-3.221-.83-3.221-4.09V32.012h1.7v5.15c0,1.775.559,2.991,2.084,2.991a2.442,2.442,0,0,0,2.237-1.562,2.329,2.329,0,0,0,.155-.869v-5.71h1.7Z" transform="translate(23.775 3.638)" fill="#15324b"/>
      <path id="Trazado_237264" data-name="Trazado 237264" d="M218.623,39.651a4.809,4.809,0,0,0,2.257.657c1.215,0,1.794-.6,1.794-1.391,0-.81-.483-1.234-1.717-1.7-1.7-.617-2.489-1.525-2.489-2.644,0-1.5,1.235-2.738,3.222-2.738a4.326,4.326,0,0,1,2.276.579l-.405,1.235a3.6,3.6,0,0,0-1.909-.561c-1,0-1.544.579-1.544,1.274,0,.771.54,1.118,1.755,1.6,1.6.6,2.45,1.409,2.45,2.8,0,1.659-1.293,2.816-3.472,2.816a5.342,5.342,0,0,1-2.624-.655Z" transform="translate(24.801 3.619)" fill="#15324b"/>
      <path id="Trazado_237265" data-name="Trazado 237265" d="M227.807,30V32.24h2.429v1.293h-2.429v5.034c0,1.158.326,1.814,1.272,1.814a3.186,3.186,0,0,0,.984-.116l.077,1.293a4.688,4.688,0,0,1-1.5.231,2.424,2.424,0,0,1-1.832-.713,3.65,3.65,0,0,1-.657-2.451V33.533H224.7V32.24h1.445V30.5Z" transform="translate(25.537 3.41)" fill="#15324b"/>
      <path id="Trazado_237266" data-name="Trazado 237266" d="M231.4,34.944c0-1.1-.019-2.044-.077-2.912h1.486l.077,1.852h.058a2.823,2.823,0,0,1,2.6-2.045,3.342,3.342,0,0,1,.463.039v1.6a2.62,2.62,0,0,0-.579-.039,2.363,2.363,0,0,0-2.276,2.162,5.156,5.156,0,0,0-.058.79v4.978h-1.7Z" transform="translate(26.29 3.619)" fill="#15324b"/>
      <path id="Trazado_237267" data-name="Trazado 237267" d="M238.234,32.012l2.026,5.516c.232.618.463,1.351.617,1.91h.039c.174-.559.366-1.272.6-1.947l1.852-5.479h1.794l-2.547,6.655c-1.215,3.2-2.045,4.822-3.2,5.844a4.814,4.814,0,0,1-2.084,1.081l-.424-1.41a4.491,4.491,0,0,0,1.486-.829,5.364,5.364,0,0,0,1.427-1.89,1.221,1.221,0,0,0,.136-.405,1.169,1.169,0,0,0-.136-.444l-3.433-8.6Z" transform="translate(26.865 3.638)" fill="#15324b"/>
      <g id="Grupo_877444" data-name="Grupo 877444" transform="translate(44.441)">
        <path id="Trazado_237268" data-name="Trazado 237268" d="M4.354,90.03a6.809,6.809,0,0,0,2.978.739c1.234,0,1.885-.512,1.885-1.286,0-.739-.564-1.164-1.991-1.657-1.973-.7-3.277-1.8-3.277-3.522,0-2.028,1.709-3.561,4.494-3.561a6.943,6.943,0,0,1,3.031.6l-.6,2.148a5.59,5.59,0,0,0-2.468-.562c-1.163,0-1.726.546-1.726,1.146,0,.756.651,1.091,2.2,1.673,2.1.775,3.066,1.869,3.066,3.541,0,1.992-1.516,3.684-4.775,3.684a7.73,7.73,0,0,1-3.365-.741Z" transform="translate(0.433 9.177)" fill="#15324b"/>
        <path id="Trazado_237269" data-name="Trazado 237269" d="M15.606,89.729l-.829,3.049H11.993L15.624,80.9H19.13l3.7,11.877h-2.89l-.917-3.049Zm3.014-2.009L17.879,85.2c-.194-.706-.405-1.6-.581-2.291h-.052c-.159.7-.353,1.6-.529,2.291l-.723,2.519Z" transform="translate(1.363 9.194)" fill="#15324b"/>
        <path id="Trazado_237270" data-name="Trazado 237270" d="M23.172,80.9H25.85v9.621h4.723v2.255h-7.4Z" transform="translate(2.633 9.194)" fill="#15324b"/>
        <path id="Trazado_237271" data-name="Trazado 237271" d="M38.311,87.756h-4.37v2.82h4.881v2.2H31.263V80.9h7.312v2.2H33.941v2.468h4.37Z" transform="translate(3.553 9.194)" fill="#15324b"/>
        <path id="Trazado_237272" data-name="Trazado 237272" d="M39.837,90.03a6.809,6.809,0,0,0,2.978.739c1.234,0,1.885-.512,1.885-1.286,0-.739-.564-1.164-1.991-1.657-1.973-.7-3.277-1.8-3.277-3.522,0-2.028,1.709-3.561,4.494-3.561a6.943,6.943,0,0,1,3.031.6l-.6,2.148a5.59,5.59,0,0,0-2.468-.562c-1.163,0-1.726.546-1.726,1.146,0,.756.651,1.091,2.2,1.673,2.1.775,3.066,1.869,3.066,3.541,0,1.992-1.516,3.684-4.775,3.684a7.73,7.73,0,0,1-3.365-.741Z" transform="translate(4.465 9.177)" fill="#15324b"/>
        <path id="Trazado_237273" data-name="Trazado 237273" d="M53.769,92.778,49.963,80.9h2.943l1.444,5.021c.405,1.428.775,2.766,1.058,4.247h.052c.3-1.428.669-2.839,1.075-4.194L58.051,80.9h2.854l-4,11.876Z" transform="translate(5.678 9.194)" fill="#15324b"/>
        <path id="Trazado_237274" data-name="Trazado 237274" d="M65.9,92.992c-3.5,0-5.585-2.661-5.585-6.044,0-3.559,2.291-6.221,5.779-6.221,3.649,0,5.641,2.732,5.641,6.01,0,3.911-2.344,6.254-5.815,6.254Zm.143-2.132c1.814,0,2.853-1.709,2.853-4.035,0-2.134-1-3.965-2.853-3.965s-2.89,1.8-2.89,4.016c0,2.238,1.075,3.984,2.871,3.984Z" transform="translate(6.855 9.175)" fill="#15324b"/>
        <path id="Trazado_237275" data-name="Trazado 237275" d="M72.177,80.9h2.678v9.621h4.723v2.255h-7.4Z" transform="translate(8.203 9.194)" fill="#15324b"/>
        <path id="Trazado_237276" data-name="Trazado 237276" d="M82.44,80.9v6.819c0,2.062.793,3.1,2.149,3.1,1.41,0,2.185-.988,2.185-3.1V80.9h2.679v6.66c0,3.666-1.851,5.41-4.952,5.41-3,0-4.74-1.673-4.74-5.445V80.9Z" transform="translate(9.065 9.194)" fill="#15324b"/>
        <path id="Trazado_237277" data-name="Trazado 237277" d="M100.631,88.232c-.052-1.428-.106-3.137-.106-4.882h-.036c-.388,1.516-.881,3.207-1.339,4.6l-1.446,4.635h-2.1l-1.268-4.6c-.388-1.392-.775-3.066-1.075-4.634H93.23c-.052,1.6-.123,3.437-.194,4.917l-.229,4.511H90.322L91.08,80.9h3.577l1.163,3.963c.388,1.375.741,2.854,1,4.246h.07c.317-1.374.723-2.942,1.128-4.263L99.275,80.9H102.8l.635,11.876h-2.608Z" transform="translate(10.265 9.194)" fill="#15324b"/>
        <path id="Trazado_237278" data-name="Trazado 237278" d="M111.02,87.756h-4.37v2.82h4.881v2.2h-7.559V80.9h7.312v2.2H106.65v2.468h4.37Z" transform="translate(11.817 9.194)" fill="#15324b"/>
        <path id="Trazado_237279" data-name="Trazado 237279" d="M8,99.634a15.131,15.131,0,0,0,0,14.239H6.133a12.436,12.436,0,0,1-2.009-7.1,12.61,12.61,0,0,1,2.009-7.136Z" transform="translate(0.469 11.323)" fill="#15324b"/>
        <path id="Trazado_237280" data-name="Trazado 237280" d="M9.191,100.088a21.653,21.653,0,0,1,3.612-.265,7.753,7.753,0,0,1,4.882,1.268,5.238,5.238,0,0,1,2.008,4.477,6.07,6.07,0,0,1-1.956,4.81,8.576,8.576,0,0,1-5.5,1.535,23.209,23.209,0,0,1-3.048-.177Zm2.678,9.674a4.982,4.982,0,0,0,.933.053c2.45.017,4.054-1.323,4.054-4.159a3.432,3.432,0,0,0-3.771-3.771,5.846,5.846,0,0,0-1.216.1Z" transform="translate(1.045 11.345)" fill="#15324b"/>
        <path id="Trazado_237281" data-name="Trazado 237281" d="M25.306,111.993c-3.506,0-5.586-2.661-5.586-6.044,0-3.559,2.292-6.221,5.78-6.221,3.648,0,5.64,2.732,5.64,6.01,0,3.911-2.344,6.254-5.815,6.254Zm.141-2.132c1.815,0,2.854-1.709,2.854-4.035,0-2.134-1-3.965-2.854-3.965s-2.89,1.8-2.89,4.016c0,2.238,1.075,3.984,2.872,3.984Z" transform="translate(2.241 11.334)" fill="#15324b"/>
        <path id="Trazado_237282" data-name="Trazado 237282" d="M31.58,99.9h2.678v9.621h4.723v2.255h-7.4Z" transform="translate(3.589 11.354)" fill="#15324b"/>
        <path id="Trazado_237283" data-name="Trazado 237283" d="M39.67,99.9h2.678v9.621h4.723v2.255h-7.4Z" transform="translate(4.509 11.354)" fill="#15324b"/>
        <path id="Trazado_237284" data-name="Trazado 237284" d="M50.678,108.731l-.829,3.049H47.065L50.7,99.9H54.2l3.7,11.877h-2.89l-.917-3.049Zm3.014-2.009-.741-2.519c-.194-.706-.405-1.6-.581-2.291h-.052c-.159.7-.353,1.6-.529,2.291l-.723,2.519Z" transform="translate(5.349 11.354)" fill="#15324b"/>
        <path id="Trazado_237285" data-name="Trazado 237285" d="M58.228,100.088a21.1,21.1,0,0,1,3.577-.265,5.944,5.944,0,0,1,3.841.952,2.978,2.978,0,0,1,1.11,2.485,3.145,3.145,0,0,1-2.1,2.908v.053a2.961,2.961,0,0,1,1.586,2.2c.371,1.358.723,2.908.952,3.367h-2.75a15.958,15.958,0,0,1-.811-2.766c-.334-1.5-.845-1.887-1.956-1.9h-.793v4.671H58.228Zm2.661,5.093h1.057c1.34,0,2.133-.669,2.133-1.709,0-1.076-.741-1.639-1.973-1.639a5.282,5.282,0,0,0-1.216.089Z" transform="translate(6.618 11.345)" fill="#15324b"/>
        <rect id="Rectángulo_55513" data-name="Rectángulo 55513" width="2.678" height="11.876" transform="translate(78.881 111.257)" fill="#15324b"/>
        <path id="Trazado_237286" data-name="Trazado 237286" d="M75.328,111.779V99.9h3.136l2.468,4.352a37.222,37.222,0,0,1,1.938,4.069h.036a48.776,48.776,0,0,1-.212-4.969V99.9H85.16v11.876H82.342L79.8,107.2A41.965,41.965,0,0,1,77.742,103h-.071c.089,1.586.124,3.261.124,5.2v3.577Z" transform="translate(8.561 11.354)" fill="#15324b"/>
        <path id="Trazado_237287" data-name="Trazado 237287" d="M86.253,100.088a21.658,21.658,0,0,1,3.613-.265,7.751,7.751,0,0,1,4.881,1.268,5.238,5.238,0,0,1,2.008,4.477,6.07,6.07,0,0,1-1.956,4.81,8.576,8.576,0,0,1-5.5,1.535,23.209,23.209,0,0,1-3.048-.177Zm2.678,9.674a4.988,4.988,0,0,0,.934.053c2.449.017,4.053-1.323,4.053-4.159a3.432,3.432,0,0,0-3.771-3.771,5.846,5.846,0,0,0-1.216.1Z" transform="translate(9.803 11.345)" fill="#15324b"/>
        <path id="Trazado_237288" data-name="Trazado 237288" d="M104.338,106.758h-4.37v2.82h4.881v2.2H97.289V99.9H104.6v2.2H99.968v2.468h4.37Z" transform="translate(11.057 11.354)" fill="#15324b"/>
        <path id="Trazado_237289" data-name="Trazado 237289" d="M112.074,111.779,111,109.629c-.441-.827-.723-1.444-1.058-2.132h-.035c-.247.687-.547,1.3-.934,2.132l-.969,2.15h-3.066l3.436-6.009L105.061,99.9h3.084l1.04,2.166c.352.723.617,1.305.9,1.975h.035c.283-.757.511-1.287.811-1.975l1-2.166H115l-3.349,5.8,3.525,6.078Z" transform="translate(11.926 11.354)" fill="#15324b"/>
        <path id="Trazado_237290" data-name="Trazado 237290" d="M114.944,113.872a13.761,13.761,0,0,0,1.78-7.137,13.619,13.619,0,0,0-1.78-7.1h1.868a12.365,12.365,0,0,1,2.009,7.12,12.643,12.643,0,0,1-2.009,7.12Z" transform="translate(13.063 11.323)" fill="#15324b"/>
      </g>
      <path id="Trazado_237314" data-name="Trazado 237314" d="M76.168,341.519a1.4,1.4,0,0,0-.245-1.285,4.921,4.921,0,0,0-1.615-.931,7.076,7.076,0,0,1-2.884-1.657,2.734,2.734,0,0,1-.594-2.554,3.592,3.592,0,0,1,1.593-2.4,5.483,5.483,0,0,1,3.083-.843,4.166,4.166,0,0,1,3,1.031,2.8,2.8,0,0,1,.693,2.807l-.026.051h-2.4a1.609,1.609,0,0,0-.284-1.42,1.7,1.7,0,0,0-1.369-.533,1.972,1.972,0,0,0-1.158.373,1.486,1.486,0,0,0-.641.918,1.224,1.224,0,0,0,.258,1.227,6.966,6.966,0,0,0,1.894.961,6.2,6.2,0,0,1,2.677,1.63,2.947,2.947,0,0,1,.5,2.614,3.567,3.567,0,0,1-1.6,2.432,5.723,5.723,0,0,1-3.12.805,5.285,5.285,0,0,1-3.182-.938,2.576,2.576,0,0,1-.856-2.9l.017-.051h2.411q-.224,1.106.4,1.531a2.779,2.779,0,0,0,1.6.424,2.1,2.1,0,0,0,1.179-.366,1.468,1.468,0,0,0,.672-.922" transform="translate(7.931 37.715)" fill="#15324b"/>
      <path id="Trazado_237315" data-name="Trazado 237315" d="M88.6,333.946H85.375l-2.118,10.6h-2.48l2.118-10.6H79.683l.388-1.937h8.92Z" transform="translate(9.056 37.733)" fill="#15324b"/>
      <path id="Trazado_237316" data-name="Trazado 237316" d="M93.045,341.841H89.118l-1.326,2.7H85.3L91.8,332.009h2.531l1.454,12.536h-2.5Zm-2.962-1.972h2.781l-.422-4.7-.051-.009Z" transform="translate(9.695 37.733)" fill="#15324b"/>
      <path id="Trazado_237317" data-name="Trazado 237317" d="M104.942,342.85a6.192,6.192,0,0,1-1.9,1.317,6.717,6.717,0,0,1-2.91.577,3.794,3.794,0,0,1-3.152-1.451,4.317,4.317,0,0,1-.7-3.688l.526-2.618a6.52,6.52,0,0,1,2.04-3.78,5.384,5.384,0,0,1,3.659-1.36,3.75,3.75,0,0,1,3,1.115,3.693,3.693,0,0,1,.775,2.931l-.026.052h-2.342a2.59,2.59,0,0,0-.331-1.6,1.565,1.565,0,0,0-1.391-.564,2.442,2.442,0,0,0-1.8.908,4.605,4.605,0,0,0-1.115,2.275l-.526,2.632a3.416,3.416,0,0,0,.168,2.361,1.685,1.685,0,0,0,1.6.849,3.768,3.768,0,0,0,1.253-.186,2.46,2.46,0,0,0,.822-.441l.457-2.266h-1.954l.344-1.738h4.435Z" transform="translate(10.928 37.715)" fill="#15324b"/>
      <path id="Trazado_237318" data-name="Trazado 237318" d="M113.887,339.035h-4.753l-.714,3.574h5.57l-.388,1.937h-8.051l2.506-12.536h8.033l-.388,1.937h-5.553l-.629,3.152h4.753Z" transform="translate(11.996 37.733)" fill="#15324b"/>
      <path id="Trazado_237319" data-name="Trazado 237319" d="M118.881,341.024h-1.43l-1.274,3.521h-1.549l1.274-3.521h-1.791l.292-1.464h2.023l.9-2.506h-1.825l.293-1.463h2.067l1.3-3.582h1.541l-1.292,3.582h1.438l1.3-3.582h1.541l-1.3,3.582h1.74l-.293,1.463h-1.98l-.9,2.506h1.783l-.293,1.464h-2.023l-1.275,3.521H117.6Zm-.9-1.464h1.429l.913-2.506h-1.438Z" transform="translate(12.969 37.733)" fill="#15324b"/>
      <path id="Trazado_237320" data-name="Trazado 237320" d="M127.876,344.545h-2.471l2-9.978h-2.591l.344-1.714,5.226-.844Z" transform="translate(14.185 37.733)" fill="#15324b"/>
      <path id="Trazado_237321" data-name="Trazado 237321" d="M280.026,341.519a1.4,1.4,0,0,0-.245-1.285,4.933,4.933,0,0,0-1.615-.931,7.075,7.075,0,0,1-2.884-1.657,2.734,2.734,0,0,1-.594-2.554,3.592,3.592,0,0,1,1.592-2.4,5.483,5.483,0,0,1,3.083-.843,4.166,4.166,0,0,1,3,1.031,2.8,2.8,0,0,1,.693,2.807l-.026.051h-2.4a1.609,1.609,0,0,0-.284-1.42,1.7,1.7,0,0,0-1.369-.533,1.972,1.972,0,0,0-1.158.373,1.486,1.486,0,0,0-.641.918,1.224,1.224,0,0,0,.258,1.227,6.967,6.967,0,0,0,1.894.961,6.2,6.2,0,0,1,2.677,1.63,2.951,2.951,0,0,1,.5,2.614,3.567,3.567,0,0,1-1.6,2.432,5.723,5.723,0,0,1-3.12.805,5.285,5.285,0,0,1-3.182-.938,2.576,2.576,0,0,1-.856-2.9l.017-.051h2.411q-.224,1.106.4,1.531a2.786,2.786,0,0,0,1.6.424,2.1,2.1,0,0,0,1.179-.366,1.468,1.468,0,0,0,.672-.922" transform="translate(31.099 37.715)" fill="#15324b"/>
      <path id="Trazado_237322" data-name="Trazado 237322" d="M292.461,333.946h-3.229l-2.118,10.6h-2.48l2.118-10.6h-3.212l.388-1.937h8.92Z" transform="translate(32.225 37.733)" fill="#15324b"/>
      <path id="Trazado_237323" data-name="Trazado 237323" d="M296.9,341.841h-3.927l-1.326,2.7h-2.488l6.491-12.536h2.532l1.454,12.536h-2.5Zm-2.962-1.972h2.781l-.422-4.7-.051-.009Z" transform="translate(32.864 37.733)" fill="#15324b"/>
      <path id="Trazado_237324" data-name="Trazado 237324" d="M308.8,342.85a6.2,6.2,0,0,1-1.9,1.317,6.722,6.722,0,0,1-2.911.577,3.794,3.794,0,0,1-3.152-1.451,4.317,4.317,0,0,1-.7-3.688l.526-2.618a6.52,6.52,0,0,1,2.04-3.78,5.384,5.384,0,0,1,3.659-1.36,3.748,3.748,0,0,1,3,1.115,3.693,3.693,0,0,1,.775,2.931l-.026.052h-2.342a2.59,2.59,0,0,0-.331-1.6,1.565,1.565,0,0,0-1.391-.564,2.442,2.442,0,0,0-1.8.908,4.605,4.605,0,0,0-1.115,2.275l-.526,2.632a3.416,3.416,0,0,0,.168,2.361,1.685,1.685,0,0,0,1.6.849,3.768,3.768,0,0,0,1.253-.186,2.459,2.459,0,0,0,.822-.441l.457-2.266H304.95l.344-1.738h4.435Z" transform="translate(34.097 37.715)" fill="#15324b"/>
      <path id="Trazado_237325" data-name="Trazado 237325" d="M317.745,339.035h-4.753l-.714,3.574h5.57l-.388,1.937H309.41l2.506-12.536h8.033l-.388,1.937h-5.553l-.629,3.152h4.753Z" transform="translate(35.165 37.733)" fill="#15324b"/>
      <path id="Trazado_237326" data-name="Trazado 237326" d="M322.739,341.024H321.31l-1.275,3.521h-1.549l1.274-3.521h-1.791l.293-1.464h2.024l.9-2.506h-1.825l.293-1.463h2.067l1.3-3.582h1.541l-1.292,3.582h1.438l1.3-3.582h1.541l-1.3,3.582h1.74l-.293,1.463h-1.98l-.9,2.506H326.6l-.293,1.464H324.28L323,344.545h-1.549Zm-.9-1.464h1.43l.912-2.506h-1.438Z" transform="translate(36.137 37.733)" fill="#15324b"/>
      <path id="Trazado_237327" data-name="Trazado 237327" d="M334.646,344.564h-8.033l.266-1.653,4.46-4.34a12.013,12.013,0,0,0,1.409-1.7,3.461,3.461,0,0,0,.538-1.286,1.943,1.943,0,0,0-.164-1.311,1.054,1.054,0,0,0-.982-.49,1.554,1.554,0,0,0-1.235.6,3.147,3.147,0,0,0-.659,1.562h-2.4l-.026-.052a4.676,4.676,0,0,1,1.511-2.906,4.48,4.48,0,0,1,3.122-1.14,3.393,3.393,0,0,1,2.668,1.02,3.091,3.091,0,0,1,.655,2.673,4.669,4.669,0,0,1-.9,2.109,25,25,0,0,1-2.342,2.506l-2.377,2.42.027.052h4.779Z" transform="translate(37.12 37.715)" fill="#15324b"/>
      <path id="Trazado_237328" data-name="Trazado 237328" d="M78.907,351.828l3.221,9.092,3.2-9.092h3.392v12.536H86.131v-3.428l.258-5.916-3.384,9.344H81.231l-3.374-9.333.258,5.906v3.428H75.532V351.828Z" transform="translate(8.584 39.986)" fill="#15324b"/>
      <path id="Trazado_237329" data-name="Trazado 237329" d="M96.727,361.782H92.2l-.861,2.583H88.59l4.667-12.536h2.393l4.693,12.536H97.6ZM92.9,359.688h3.134L94.453,355Z" transform="translate(10.068 39.986)" fill="#15324b"/>
      <path id="Trazado_237330" data-name="Trazado 237330" d="M104.837,359.775h-2.058v4.589H100.2V351.828h4.657a5.268,5.268,0,0,1,3.427.99,3.415,3.415,0,0,1,1.206,2.8,3.86,3.86,0,0,1-.556,2.139,3.781,3.781,0,0,1-1.684,1.365l2.713,5.122v.121h-2.773Zm-2.058-2.093h2.084a2.137,2.137,0,0,0,1.507-.494,1.769,1.769,0,0,0,.533-1.365,1.892,1.892,0,0,0-.5-1.394,2.093,2.093,0,0,0-1.546-.508h-2.075Z" transform="translate(11.387 39.986)" fill="#15324b"/>
      <path id="Trazado_237331" data-name="Trazado 237331" d="M114.226,359.336l-1.343,1.447v3.582H110.3V351.828h2.584v5.683l1.136-1.559,3.2-4.124h3.177l-4.452,5.57,4.582,6.966h-3.074Z" transform="translate(12.536 39.986)" fill="#15324b"/>
      <path id="Trazado_237332" data-name="Trazado 237332" d="M127.893,358.914h-4.959v3.375h5.82v2.075h-8.4V351.829h8.387v2.091h-5.8v2.988h4.959Z" transform="translate(13.678 39.986)" fill="#15324b"/>
      <path id="Trazado_237333" data-name="Trazado 237333" d="M138.928,353.92h-3.84v10.444H132.5V353.92h-3.789v-2.093h10.212Z" transform="translate(14.629 39.986)" fill="#15324b"/>
      <path id="Trazado_237334" data-name="Trazado 237334" d="M51.766,383.365V370.829h3.857a5.857,5.857,0,0,1,2.958.745,5.2,5.2,0,0,1,2.036,2.117,6.54,6.54,0,0,1,.733,3.122v.578a6.559,6.559,0,0,1-.719,3.108,5.142,5.142,0,0,1-2.028,2.109,5.9,5.9,0,0,1-2.953.757Zm2.583-10.444v8.369H55.6a2.806,2.806,0,0,0,2.316-.99,4.479,4.479,0,0,0,.817-2.833V376.8a4.554,4.554,0,0,0-.792-2.9,2.8,2.8,0,0,0-2.316-.984Z" transform="translate(5.883 42.145)" fill="#15324b"/>
      <path id="Trazado_237335" data-name="Trazado 237335" d="M69.6,377.915H64.639v3.375h5.82v2.075h-8.4V370.83h8.387v2.091h-5.8v2.988H69.6Z" transform="translate(7.053 42.145)" fill="#15324b"/>
      <path id="Trazado_237336" data-name="Trazado 237336" d="M75.7,380.257l2.841-9.427H81.42l-4.366,12.535h-2.7L70.011,370.83h2.868Z" transform="translate(7.957 42.145)" fill="#15324b"/>
      <path id="Trazado_237337" data-name="Trazado 237337" d="M88.857,377.915H83.9v3.375h5.82v2.075h-8.4V370.83H89.7v2.091H83.9v2.988h4.959Z" transform="translate(9.241 42.145)" fill="#15324b"/>
      <path id="Trazado_237338" data-name="Trazado 237338" d="M92.8,381.29h5.485v2.075H90.222V370.83H92.8Z" transform="translate(10.254 42.145)" fill="#15324b"/>
      <path id="Trazado_237339" data-name="Trazado 237339" d="M108.637,377.4a7.582,7.582,0,0,1-.654,3.246,4.927,4.927,0,0,1-1.873,2.152,5.534,5.534,0,0,1-5.575.01,4.981,4.981,0,0,1-1.894-2.139,7.357,7.357,0,0,1-.68-3.2v-.62a7.516,7.516,0,0,1,.668-3.259,4.957,4.957,0,0,1,1.885-2.16,5.522,5.522,0,0,1,5.57,0,4.964,4.964,0,0,1,1.885,2.16,7.5,7.5,0,0,1,.667,3.25Zm-2.617-.569a5.284,5.284,0,0,0-.706-3,2.5,2.5,0,0,0-4.021-.012,5.219,5.219,0,0,0-.714,2.966v.611a5.342,5.342,0,0,0,.706,2.979,2.472,2.472,0,0,0,4.029.039,5.314,5.314,0,0,0,.706-2.975Z" transform="translate(11.133 42.128)" fill="#15324b"/>
      <path id="Trazado_237340" data-name="Trazado 237340" d="M111.817,378.949v4.417h-2.583V370.829h4.89a5.651,5.651,0,0,1,2.485.517,3.809,3.809,0,0,1,1.648,1.468,4.1,4.1,0,0,1,.577,2.166,3.6,3.6,0,0,1-1.262,2.906,5.257,5.257,0,0,1-3.491,1.064Zm0-2.093h2.307a2.267,2.267,0,0,0,1.562-.482,1.755,1.755,0,0,0,.538-1.378,2.066,2.066,0,0,0-.542-1.489,2.02,2.02,0,0,0-1.5-.586h-2.368Z" transform="translate(12.415 42.145)" fill="#15324b"/>
      <path id="Trazado_237341" data-name="Trazado 237341" d="M122.821,370.83l3.221,9.092,3.2-9.092h3.392v12.536h-2.591v-3.428l.258-5.916-3.384,9.344h-1.774l-3.374-9.334.258,5.906v3.428h-2.584V370.83Z" transform="translate(13.575 42.145)" fill="#15324b"/>
      <path id="Trazado_237342" data-name="Trazado 237342" d="M140.859,377.915H135.9v3.375h5.82v2.075h-8.4V370.83H141.7v2.091h-5.8v2.988h4.959Z" transform="translate(15.152 42.145)" fill="#15324b"/>
      <path id="Trazado_237343" data-name="Trazado 237343" d="M152.417,383.365h-2.583l-5.029-8.248v8.248h-2.583V370.829h2.583l5.037,8.266v-8.266h2.575Z" transform="translate(16.164 42.145)" fill="#15324b"/>
      <path id="Trazado_237344" data-name="Trazado 237344" d="M162.694,372.922h-3.84v10.444h-2.584V372.922h-3.789v-2.093h10.212Z" transform="translate(17.33 42.145)" fill="#15324b"/>
      <path id="Trazado_237345" data-name="Trazado 237345" d="M277.013,366.915a4.467,4.467,0,0,1-1.971,1.3,8.255,8.255,0,0,1-2.824.461,5.586,5.586,0,0,1-2.854-.712,4.727,4.727,0,0,1-1.894-2.06,7.247,7.247,0,0,1-.685-3.177v-.853a7.721,7.721,0,0,1,.633-3.25,4.69,4.69,0,0,1,1.825-2.1,6.012,6.012,0,0,1,6.282.336,4.549,4.549,0,0,1,1.489,3.1H274.5a2.5,2.5,0,0,0-.762-1.576,2.433,2.433,0,0,0-1.623-.5,2.291,2.291,0,0,0-2.007.99,5.2,5.2,0,0,0-.7,2.944v.8a4.952,4.952,0,0,0,.75,2.979,2.564,2.564,0,0,0,2.2,1.008,2.868,2.868,0,0,0,2.076-.62v-2.162h-2.351v-1.9h4.933Z" transform="translate(30.32 40.436)" fill="#15324b"/>
      <path id="Trazado_237346" data-name="Trazado 237346" d="M282.489,363.893h-2.058v4.589h-2.583V355.946h4.657a5.269,5.269,0,0,1,3.427.99,3.415,3.415,0,0,1,1.206,2.8,3.861,3.861,0,0,1-.556,2.139,3.781,3.781,0,0,1-1.684,1.365l2.713,5.122v.121h-2.773Zm-2.058-2.093h2.084a2.137,2.137,0,0,0,1.507-.494,1.769,1.769,0,0,0,.533-1.365,1.892,1.892,0,0,0-.5-1.394,2.093,2.093,0,0,0-1.546-.508h-2.075Z" transform="translate(31.578 40.454)" fill="#15324b"/>
      <path id="Trazado_237347" data-name="Trazado 237347" d="M298.289,362.516a7.582,7.582,0,0,1-.654,3.246,4.927,4.927,0,0,1-1.873,2.152,5.534,5.534,0,0,1-5.575.01,4.982,4.982,0,0,1-1.894-2.139,7.358,7.358,0,0,1-.68-3.2v-.62a7.516,7.516,0,0,1,.668-3.259,4.957,4.957,0,0,1,1.885-2.16,5.522,5.522,0,0,1,5.57,0,4.964,4.964,0,0,1,1.885,2.16,7.5,7.5,0,0,1,.667,3.25Zm-2.617-.569a5.284,5.284,0,0,0-.706-3,2.5,2.5,0,0,0-4.021-.012,5.219,5.219,0,0,0-.714,2.966v.611a5.342,5.342,0,0,0,.706,2.979,2.472,2.472,0,0,0,4.029.039,5.314,5.314,0,0,0,.706-2.975Z" transform="translate(32.687 40.436)" fill="#15324b"/>
      <path id="Trazado_237348" data-name="Trazado 237348" d="M308.732,364.867l1.687-8.92h2.575l-2.781,12.536h-2.6l-2.04-8.386-2.041,8.386h-2.6l-2.781-12.536h2.575l1.7,8.9,2.067-8.9h2.186Z" transform="translate(33.885 40.454)" fill="#15324b"/>
      <path id="Trazado_237349" data-name="Trazado 237349" d="M322.356,358.039h-3.84v10.444h-2.584V358.039h-3.789v-2.093h10.212Z" transform="translate(35.475 40.454)" fill="#15324b"/>
      <path id="Trazado_237350" data-name="Trazado 237350" d="M332.839,368.483h-2.583v-5.373h-5.037v5.373h-2.584V355.946h2.584v5.08h5.037v-5.08h2.583Z" transform="translate(36.668 40.454)" fill="#15324b"/>
      <path id="Trazado_237351" data-name="Trazado 237351" d="M537.765,341.519a1.4,1.4,0,0,0-.245-1.285,4.921,4.921,0,0,0-1.615-.931,7.075,7.075,0,0,1-2.884-1.657,2.734,2.734,0,0,1-.594-2.554,3.592,3.592,0,0,1,1.593-2.4,5.485,5.485,0,0,1,3.083-.843,4.166,4.166,0,0,1,3,1.031,2.8,2.8,0,0,1,.693,2.807l-.026.051h-2.4a1.609,1.609,0,0,0-.284-1.42,1.7,1.7,0,0,0-1.369-.533,1.972,1.972,0,0,0-1.158.373,1.486,1.486,0,0,0-.641.918,1.224,1.224,0,0,0,.258,1.227,6.947,6.947,0,0,0,1.894.961,6.2,6.2,0,0,1,2.677,1.63,2.947,2.947,0,0,1,.5,2.614,3.57,3.57,0,0,1-1.6,2.432,5.73,5.73,0,0,1-3.122.805,5.286,5.286,0,0,1-3.182-.938,2.578,2.578,0,0,1-.856-2.9l.017-.051h2.411q-.224,1.106.4,1.531a2.782,2.782,0,0,0,1.6.424,2.1,2.1,0,0,0,1.179-.366,1.468,1.468,0,0,0,.672-.922" transform="translate(60.392 37.715)" fill="#15324b"/>
      <path id="Trazado_237352" data-name="Trazado 237352" d="M550.2,333.946h-3.229l-2.118,10.6h-2.48l2.118-10.6H541.28l.388-1.937h8.92Z" transform="translate(61.517 37.733)" fill="#15324b"/>
      <path id="Trazado_237353" data-name="Trazado 237353" d="M554.642,341.841h-3.927l-1.325,2.7H546.9l6.493-12.536h2.531l1.454,12.536h-2.5Zm-2.962-1.972h2.782l-.423-4.7-.051-.009Z" transform="translate(62.156 37.733)" fill="#15324b"/>
      <path id="Trazado_237354" data-name="Trazado 237354" d="M566.539,342.85a6.207,6.207,0,0,1-1.9,1.317,6.717,6.717,0,0,1-2.91.577,3.794,3.794,0,0,1-3.152-1.451,4.317,4.317,0,0,1-.7-3.688l.526-2.618a6.52,6.52,0,0,1,2.04-3.78,5.383,5.383,0,0,1,3.659-1.36,3.754,3.754,0,0,1,3,1.115,3.7,3.7,0,0,1,.774,2.931l-.026.052h-2.342a2.583,2.583,0,0,0-.332-1.6,1.562,1.562,0,0,0-1.39-.564,2.444,2.444,0,0,0-1.8.908,4.6,4.6,0,0,0-1.115,2.275l-.526,2.632a3.41,3.41,0,0,0,.168,2.361,1.685,1.685,0,0,0,1.6.849,3.768,3.768,0,0,0,1.253-.186,2.46,2.46,0,0,0,.822-.441l.457-2.266H562.69l.344-1.738h4.435Z" transform="translate(63.389 37.715)" fill="#15324b"/>
      <path id="Trazado_237355" data-name="Trazado 237355" d="M575.484,339.035h-4.753l-.714,3.574h5.571l-.388,1.937H567.15l2.506-12.536h8.034l-.388,1.937h-5.554l-.629,3.152h4.753Z" transform="translate(64.457 37.733)" fill="#15324b"/>
      <path id="Trazado_237356" data-name="Trazado 237356" d="M580.479,341.024h-1.43l-1.274,3.521h-1.549l1.274-3.521h-1.791L576,339.56h2.023l.9-2.506H577.1l.293-1.463h2.067l1.3-3.582H582.3l-1.292,3.582h1.438l1.3-3.582h1.541l-1.3,3.582h1.74l-.293,1.463h-1.98l-.9,2.506h1.782l-.292,1.464H582.02l-1.274,3.521H579.2Zm-.9-1.464H581l.912-2.506h-1.438Z" transform="translate(65.43 37.733)" fill="#15324b"/>
      <path id="Trazado_237357" data-name="Trazado 237357" d="M587.789,337.822l.095-.594h1.343a1.628,1.628,0,0,0,1.214-.474,2.311,2.311,0,0,0,.595-1.3,1.683,1.683,0,0,0-.182-1.226,1.135,1.135,0,0,0-1.016-.443,1.638,1.638,0,0,0-1.08.418,1.743,1.743,0,0,0-.607,1.08h-2.4l-.018-.051a3.551,3.551,0,0,1,1.447-2.459,4.716,4.716,0,0,1,2.9-.924,3.777,3.777,0,0,1,2.734.942,2.834,2.834,0,0,1,.711,2.639,3.318,3.318,0,0,1-.736,1.585,4.031,4.031,0,0,1-1.511,1.135,2.476,2.476,0,0,1,1.283,1.146,2.8,2.8,0,0,1,.242,1.757,4.023,4.023,0,0,1-1.61,2.741,5.28,5.28,0,0,1-3.177.952,3.831,3.831,0,0,1-2.63-.93,2.609,2.609,0,0,1-.745-2.609l.027-.051h2.41a1.432,1.432,0,0,0,.242,1.2,1.307,1.307,0,0,0,1.068.45,1.821,1.821,0,0,0,1.265-.486,2.2,2.2,0,0,0,.671-1.3,1.936,1.936,0,0,0-.189-1.469,1.452,1.452,0,0,0-1.206-.439h-1.342Z" transform="translate(66.437 37.715)" fill="#15324b"/>
      <path id="Trazado_237358" data-name="Trazado 237358" d="M522.479,355.947l3.221,9.092,3.2-9.092h3.392v12.536H529.7v-3.428l.258-5.916-3.384,9.344H524.8l-3.374-9.333.258,5.906v3.428H519.1V355.947Z" transform="translate(58.997 40.454)" fill="#15324b"/>
      <path id="Trazado_237359" data-name="Trazado 237359" d="M540.3,365.9H535.77l-.862,2.583h-2.746l4.667-12.536h2.393l4.693,12.536h-2.747Zm-3.831-2.094H539.6l-1.576-4.692Z" transform="translate(60.481 40.454)" fill="#15324b"/>
      <path id="Trazado_237360" data-name="Trazado 237360" d="M552.355,358.039h-3.84v10.444h-2.583V358.039h-3.789v-2.093h10.212Z" transform="translate(61.615 40.454)" fill="#15324b"/>
      <path id="Trazado_237361" data-name="Trazado 237361" d="M562.136,355.947V364.2a4.225,4.225,0,0,1-1.287,3.254,4.958,4.958,0,0,1-3.517,1.2,5.022,5.022,0,0,1-3.487-1.163,4.154,4.154,0,0,1-1.318-3.2v-8.351h2.583v8.274a2.391,2.391,0,0,0,.59,1.8,2.267,2.267,0,0,0,1.632.565q2.178,0,2.213-2.292v-8.342Z" transform="translate(62.795 40.454)" fill="#15324b"/>
      <path id="Trazado_237362" data-name="Trazado 237362" d="M567.7,363.893H565.64v4.589h-2.583V355.946h4.657a5.269,5.269,0,0,1,3.427.99,3.415,3.415,0,0,1,1.206,2.8,3.852,3.852,0,0,1-.556,2.139,3.787,3.787,0,0,1-1.684,1.365l2.713,5.122v.121h-2.773ZM565.64,361.8h2.084a2.136,2.136,0,0,0,1.507-.494,1.773,1.773,0,0,0,.533-1.365,1.892,1.892,0,0,0-.5-1.394,2.093,2.093,0,0,0-1.546-.508H565.64Z" transform="translate(63.992 40.454)" fill="#15324b"/>
      <rect id="Rectángulo_55515" data-name="Rectángulo 55515" width="2.583" height="12.536" transform="translate(638.466 396.4)" fill="#15324b"/>
      <path id="Trazado_237363" data-name="Trazado 237363" d="M587.069,358.039h-3.84v10.444h-2.584V358.039h-3.789v-2.093h10.212Z" transform="translate(65.56 40.454)" fill="#15324b"/>
      <path id="Trazado_237364" data-name="Trazado 237364" d="M591.907,361.6l2.609-5.648h2.824l-4.116,7.99v4.546H590.6v-4.546l-4.116-7.99h2.833Z" transform="translate(66.654 40.454)" fill="#15324b"/>
      <path id="Trazado_237365" data-name="Trazado 237365" d="M10.032,141.789v-1.621l1.462-1.322c2.52-2.256,3.736-3.54,3.754-4.88,0-.935-.547-1.675-1.868-1.675a4.252,4.252,0,0,0-2.45.934l-.757-1.9a6.286,6.286,0,0,1,3.735-1.182c2.608,0,4.018,1.516,4.018,3.6,0,1.921-1.374,3.453-3.049,4.933l-1.057.881v.037h4.335v2.2Z" transform="translate(1.14 14.791)" fill="#15324b"/>
      <path id="Trazado_237366" data-name="Trazado 237366" d="M22.944,141.981c-2.961,0-4.265-2.661-4.282-5.9,0-3.33,1.392-5.939,4.352-5.939,3.048,0,4.264,2.732,4.264,5.869,0,3.525-1.428,5.973-4.318,5.973ZM23,139.956c1.04,0,1.6-1.3,1.6-3.911,0-2.538-.547-3.877-1.621-3.877-1,0-1.638,1.286-1.638,3.877-.018,2.644.616,3.911,1.638,3.911Z" transform="translate(2.121 14.791)" fill="#15324b"/>
      <path id="Trazado_237367" data-name="Trazado 237367" d="M13.358,210.942h-.036l-2.185,1.04-.44-2.009,3.048-1.409h2.2v11.453h-2.59Z" transform="translate(1.216 23.704)" fill="#15324b"/>
      <path id="Trazado_237368" data-name="Trazado 237368" d="M26.451,210.766h-4.44l-.247,1.762c.247-.017.458-.035.741-.035a5.2,5.2,0,0,1,3.012.829,3.257,3.257,0,0,1,1.392,2.872c0,2.132-1.832,4.017-4.916,4.017a7.288,7.288,0,0,1-3.189-.651l.493-2.009a6.416,6.416,0,0,0,2.573.564c1.11,0,2.291-.528,2.291-1.744,0-1.18-.934-1.9-3.225-1.9a9.673,9.673,0,0,0-1.532.1l.739-6.007h6.309Z" transform="translate(2.137 23.703)" fill="#15324b"/>
      <path id="Trazado_237369" data-name="Trazado 237369" d="M13.358,291.377h-.036l-2.185,1.04-.44-2.009L13.745,289h2.2v11.453h-2.59Z" transform="translate(1.216 32.845)" fill="#15324b"/>
      <path id="Trazado_237370" data-name="Trazado 237370" d="M22.944,300.665c-2.961,0-4.265-2.661-4.282-5.9,0-3.33,1.392-5.939,4.352-5.939,3.048,0,4.264,2.732,4.264,5.869,0,3.525-1.428,5.973-4.318,5.973ZM23,298.64c1.04,0,1.6-1.3,1.6-3.911,0-2.538-.547-3.877-1.621-3.877-1,0-1.638,1.286-1.638,3.877-.018,2.644.616,3.911,1.638,3.911Z" transform="translate(2.121 32.825)" fill="#15324b"/>
      <path id="Trazado_237371" data-name="Trazado 237371" d="M26.158,369.451h-4.44l-.247,1.762c.247-.017.458-.035.741-.035a5.2,5.2,0,0,1,3.012.829,3.257,3.257,0,0,1,1.392,2.872c0,2.132-1.832,4.017-4.916,4.017a7.289,7.289,0,0,1-3.189-.651L19,376.235a6.416,6.416,0,0,0,2.573.564c1.11,0,2.291-.528,2.291-1.744,0-1.18-.934-1.9-3.225-1.9a9.669,9.669,0,0,0-1.532.1l.739-6.007h6.309Z" transform="translate(2.104 41.738)" fill="#15324b"/>
      <path id="Trazado_237372" data-name="Trazado 237372" d="M43.341,470.812l2.609-5.648h2.824l-4.116,7.99V477.7H42.033v-4.546l-4.116-7.99H40.75Z" transform="translate(4.309 52.866)" fill="#15324b"/>
      <path id="Trazado_237373" data-name="Trazado 237373" d="M56.237,472.249H51.278v3.375H57.1V477.7h-8.4V465.164h8.387v2.091h-5.8v2.988h4.959Z" transform="translate(5.534 52.866)" fill="#15324b"/>
      <path id="Trazado_237374" data-name="Trazado 237374" d="M64.787,475.117H60.258L59.4,477.7H56.65l4.667-12.536h2.393L68.4,477.7H65.656Zm-3.832-2.094h3.134l-1.576-4.692Z" transform="translate(6.438 52.866)" fill="#15324b"/>
      <path id="Trazado_237375" data-name="Trazado 237375" d="M72.9,473.11H70.839V477.7H68.256V465.163h4.657a5.267,5.267,0,0,1,3.426.99,3.415,3.415,0,0,1,1.206,2.8,3.86,3.86,0,0,1-.556,2.139,3.781,3.781,0,0,1-1.684,1.365l2.713,5.122v.121H75.245Zm-2.058-2.093h2.083a2.14,2.14,0,0,0,1.508-.494,1.773,1.773,0,0,0,.532-1.365,1.9,1.9,0,0,0-.5-1.394,2.094,2.094,0,0,0-1.546-.508H70.839Z" transform="translate(7.757 52.866)" fill="#15324b"/>
      <path id="Trazado_237376" data-name="Trazado 237376" d="M84.914,474.427A1.322,1.322,0,0,0,84.4,473.3a6.739,6.739,0,0,0-1.86-.829,13.138,13.138,0,0,1-2.127-.855,3.477,3.477,0,0,1-2.135-3.109,3.022,3.022,0,0,1,.572-1.812,3.733,3.733,0,0,1,1.645-1.244,6.191,6.191,0,0,1,2.407-.448,5.62,5.62,0,0,1,2.393.487,3.8,3.8,0,0,1,1.631,1.373,3.593,3.593,0,0,1,.581,2.015H84.923a1.694,1.694,0,0,0-.542-1.34,2.237,2.237,0,0,0-1.525-.478,2.379,2.379,0,0,0-1.472.4,1.266,1.266,0,0,0-.526,1.056,1.209,1.209,0,0,0,.616,1.023,6.955,6.955,0,0,0,1.813.775,7.866,7.866,0,0,1,3.212,1.644,3.28,3.28,0,0,1,1.007,2.446,3.012,3.012,0,0,1-1.231,2.552,5.388,5.388,0,0,1-3.315.928,6.419,6.419,0,0,1-2.635-.53,4.162,4.162,0,0,1-1.812-1.451,3.711,3.711,0,0,1-.625-2.136h2.591q0,2.075,2.48,2.075a2.406,2.406,0,0,0,1.438-.374,1.218,1.218,0,0,0,.517-1.046" transform="translate(8.852 52.849)" fill="#15324b"/>
      <path id="Trazado_237377" data-name="Trazado 237377" d="M169.574,477.7h-2.488V468.1l-2.971.918v-2.006l5.192-1.86h.267Z" transform="translate(18.652 52.864)" fill="#15324b"/>
      <path id="Trazado_237378" data-name="Trazado 237378" d="M307.123,477.717H298.53v-1.7l4.055-4.323a9.976,9.976,0,0,0,1.236-1.592,2.557,2.557,0,0,0,.4-1.291,1.911,1.911,0,0,0-.421-1.313,1.523,1.523,0,0,0-1.206-.48,1.645,1.645,0,0,0-1.33.581,2.308,2.308,0,0,0-.487,1.529h-2.5a4.1,4.1,0,0,1,.547-2.093,3.841,3.841,0,0,1,1.546-1.485,4.682,4.682,0,0,1,2.264-.539,4.446,4.446,0,0,1,3.009.93,3.289,3.289,0,0,1,1.071,2.626,4.214,4.214,0,0,1-.481,1.894,10.585,10.585,0,0,1-1.654,2.248l-2.85,3h5.39Z" transform="translate(33.9 52.849)" fill="#15324b"/>
      <path id="Trazado_237379" data-name="Trazado 237379" d="M427.578,470.347H428.9a1.865,1.865,0,0,0,1.4-.474,1.733,1.733,0,0,0,.457-1.256,1.539,1.539,0,0,0-.452-1.18,1.755,1.755,0,0,0-1.244-.422,1.84,1.84,0,0,0-1.2.393,1.25,1.25,0,0,0-.482,1.019H424.9a3.062,3.062,0,0,1,.529-1.761,3.529,3.529,0,0,1,1.481-1.217,4.921,4.921,0,0,1,2.1-.44,4.684,4.684,0,0,1,3.117.952,3.246,3.246,0,0,1,1.128,2.622,2.639,2.639,0,0,1-.526,1.585,3.412,3.412,0,0,1-1.378,1.11,3.121,3.121,0,0,1,1.58,1.136,3.085,3.085,0,0,1,.521,1.792,3.3,3.3,0,0,1-1.218,2.676,4.9,4.9,0,0,1-3.225,1.009,4.639,4.639,0,0,1-3.069-.991,3.23,3.23,0,0,1-1.193-2.617h2.489a1.438,1.438,0,0,0,.529,1.153,2.212,2.212,0,0,0,2.7-.02,1.619,1.619,0,0,0,.5-1.244q0-1.878-2.066-1.876h-1.317Z" transform="translate(48.273 52.849)" fill="#15324b"/>
      <path id="Trazado_237380" data-name="Trazado 237380" d="M561.629,472.981h1.42v2.006h-1.42V477.7H559.14v-2.713H554l-.112-1.566,5.226-8.258h2.515Zm-5.261,0h2.772v-4.425l-.163.283Z" transform="translate(62.95 52.866)" fill="#15324b"/>
      <path id="Trazado_237381" data-name="Trazado 237381" d="M680.976,471.534l.723-6.371h7.026v2.075H683.74l-.311,2.7a3.943,3.943,0,0,1,1.887-.474,3.616,3.616,0,0,1,2.806,1.11,4.439,4.439,0,0,1,1.016,3.108,4.537,4.537,0,0,1-.512,2.174,3.614,3.614,0,0,1-1.468,1.491,4.594,4.594,0,0,1-2.256.529,4.849,4.849,0,0,1-2.109-.462,3.731,3.731,0,0,1-1.537-1.3,3.527,3.527,0,0,1-.6-1.9h2.462a1.839,1.839,0,0,0,.547,1.218,1.735,1.735,0,0,0,1.227.434,1.527,1.527,0,0,0,1.3-.607,2.814,2.814,0,0,0,.457-1.718,2.319,2.319,0,0,0-.526-1.635,1.927,1.927,0,0,0-1.489-.569,2.154,2.154,0,0,0-1.438.466l-.242.224Z" transform="translate(77.357 52.866)" fill="#15324b"/>
      <path id="Trazado_237382" data-name="Trazado 237382" d="M820.519,465.048V467.1h-.241a4.234,4.234,0,0,0-2.716.878,3.577,3.577,0,0,0-1.236,2.369,3.394,3.394,0,0,1,2.522-1.016,3.191,3.191,0,0,1,2.6,1.17,4.7,4.7,0,0,1,.964,3.083,4.624,4.624,0,0,1-.529,2.214,3.8,3.8,0,0,1-1.5,1.54,4.345,4.345,0,0,1-2.191.551,4.07,4.07,0,0,1-3.2-1.378,5.349,5.349,0,0,1-1.217-3.676v-.9a8.051,8.051,0,0,1,.77-3.6,5.663,5.663,0,0,1,2.213-2.42,6.484,6.484,0,0,1,3.345-.864Zm-2.428,6.284a1.987,1.987,0,0,0-1.094.314,1.886,1.886,0,0,0-.723.83v.755a3.363,3.363,0,0,0,.49,1.948,1.588,1.588,0,0,0,1.379.7,1.567,1.567,0,0,0,1.3-.631,2.966,2.966,0,0,0,0-3.286,1.627,1.627,0,0,0-1.343-.628" transform="translate(92.487 52.853)" fill="#15324b"/>
      <rect id="Rectángulo_55516" data-name="Rectángulo 55516" width="1.608" height="11.849" transform="translate(335.15 499.613)" fill="#15324b"/>
      <rect id="Rectángulo_55517" data-name="Rectángulo 55517" width="1.608" height="309.774" transform="translate(475.416 201.688)" fill="#15324b"/>
      <rect id="Rectángulo_55518" data-name="Rectángulo 55518" width="1.608" height="354.884" transform="translate(761.684 156.578)" fill="#15324b"/>
      <rect id="Rectángulo_55519" data-name="Rectángulo 55519" width="1.608" height="11.849" transform="translate(619.697 499.613)" fill="#15324b"/>
      <rect id="Rectángulo_55520" data-name="Rectángulo 55520" width="1.608" height="11.849" transform="translate(909.213 499.613)" fill="#15324b"/>
      <path id="Trazado_237383" data-name="Trazado 237383" d="M793.592,341.519a1.4,1.4,0,0,0-.245-1.285,4.92,4.92,0,0,0-1.615-.931,7.076,7.076,0,0,1-2.884-1.657,2.734,2.734,0,0,1-.594-2.554,3.592,3.592,0,0,1,1.593-2.4,5.485,5.485,0,0,1,3.083-.843,4.166,4.166,0,0,1,3,1.031,2.8,2.8,0,0,1,.693,2.807l-.026.051h-2.4a1.609,1.609,0,0,0-.284-1.42,1.7,1.7,0,0,0-1.369-.533,1.972,1.972,0,0,0-1.158.373,1.486,1.486,0,0,0-.641.918A1.224,1.224,0,0,0,791,336.3a6.966,6.966,0,0,0,1.894.961,6.194,6.194,0,0,1,2.677,1.63,2.948,2.948,0,0,1,.5,2.614,3.567,3.567,0,0,1-1.6,2.432,5.723,5.723,0,0,1-3.12.805,5.286,5.286,0,0,1-3.182-.938,2.576,2.576,0,0,1-.856-2.9l.017-.051h2.411q-.224,1.106.4,1.531a2.782,2.782,0,0,0,1.6.424,2.1,2.1,0,0,0,1.179-.366,1.468,1.468,0,0,0,.672-.922" transform="translate(89.467 37.715)" fill="#15324b"/>
      <path id="Trazado_237384" data-name="Trazado 237384" d="M806.028,333.946H802.8l-2.118,10.6H798.2l2.118-10.6h-3.212l.388-1.937h8.92Z" transform="translate(90.592 37.733)" fill="#15324b"/>
      <path id="Trazado_237385" data-name="Trazado 237385" d="M810.469,341.841h-3.927l-1.326,2.7h-2.488l6.491-12.536h2.532l1.454,12.536h-2.5Zm-2.962-1.972h2.781l-.422-4.7-.051-.009Z" transform="translate(91.231 37.733)" fill="#15324b"/>
      <path id="Trazado_237386" data-name="Trazado 237386" d="M822.367,342.85a6.206,6.206,0,0,1-1.9,1.317,6.72,6.72,0,0,1-2.91.577,3.794,3.794,0,0,1-3.152-1.451,4.317,4.317,0,0,1-.7-3.688l.526-2.618a6.52,6.52,0,0,1,2.04-3.78,5.384,5.384,0,0,1,3.659-1.36,3.75,3.75,0,0,1,3,1.115,3.694,3.694,0,0,1,.775,2.931l-.026.052h-2.342a2.582,2.582,0,0,0-.332-1.6,1.562,1.562,0,0,0-1.39-.564,2.44,2.44,0,0,0-1.8.908,4.6,4.6,0,0,0-1.115,2.275l-.526,2.632a3.4,3.4,0,0,0,.168,2.361,1.685,1.685,0,0,0,1.6.849,3.767,3.767,0,0,0,1.253-.186,2.459,2.459,0,0,0,.822-.441l.457-2.266h-1.954l.344-1.738H823.3Z" transform="translate(92.464 37.715)" fill="#15324b"/>
      <path id="Trazado_237387" data-name="Trazado 237387" d="M831.312,339.035h-4.753l-.714,3.574h5.57l-.388,1.937h-8.051l2.506-12.536h8.034l-.389,1.937h-5.553l-.629,3.152H831.7Z" transform="translate(93.532 37.733)" fill="#15324b"/>
      <path id="Trazado_237388" data-name="Trazado 237388" d="M836.306,341.024h-1.429l-1.275,3.521h-1.549l1.274-3.521h-1.791l.293-1.464h2.024l.9-2.506H832.93l.293-1.463h2.067l1.3-3.582h1.541l-1.292,3.582h1.438l1.3-3.582h1.541l-1.3,3.582h1.739l-.293,1.463h-1.98l-.9,2.506h1.783l-.293,1.464h-2.023l-1.275,3.521h-1.549Zm-.9-1.464h1.43l.912-2.506h-1.438Z" transform="translate(94.505 37.733)" fill="#15324b"/>
      <path id="Trazado_237389" data-name="Trazado 237389" d="M847.916,339.886h1.266l-.388,1.938h-1.266l-.542,2.721h-2.471l.543-2.721h-4.693l.189-1.5L847,332.009h2.488Zm-4.985,0h2.514l.879-4.425-.043-.027-.2.268Z" transform="translate(95.508 37.733)" fill="#15324b"/>
      <path id="Trazado_237390" data-name="Trazado 237390" d="M782.593,368.482V355.946h3.857a5.856,5.856,0,0,1,2.958.745,5.207,5.207,0,0,1,2.037,2.117,6.54,6.54,0,0,1,.732,3.122v.578a6.559,6.559,0,0,1-.719,3.108,5.142,5.142,0,0,1-2.028,2.109,5.9,5.9,0,0,1-2.953.757Zm2.583-10.444v8.369h1.248a2.806,2.806,0,0,0,2.316-.99,4.479,4.479,0,0,0,.817-2.833v-.663a4.554,4.554,0,0,0-.792-2.9,2.8,2.8,0,0,0-2.316-.984Z" transform="translate(88.942 40.454)" fill="#15324b"/>
      <path id="Trazado_237391" data-name="Trazado 237391" d="M800.426,363.032h-4.959v3.375h5.82v2.075h-8.4V355.947h8.387v2.091h-5.8v2.988h4.959Z" transform="translate(90.112 40.454)" fill="#15324b"/>
      <path id="Trazado_237392" data-name="Trazado 237392" d="M811.67,364.324a4.445,4.445,0,0,1-1.493,3.187,5.253,5.253,0,0,1-3.553,1.162,4.715,4.715,0,0,1-3.792-1.624,6.646,6.646,0,0,1-1.382-4.455v-.766a7.5,7.5,0,0,1,.637-3.186,4.77,4.77,0,0,1,1.821-2.114,5.693,5.693,0,0,1,6.247.425,4.773,4.773,0,0,1,1.534,3.264H809.1a2.615,2.615,0,0,0-.676-1.761,2.5,2.5,0,0,0-1.77-.547,2.192,2.192,0,0,0-1.932.925,5.181,5.181,0,0,0-.659,2.871v.948a5.56,5.56,0,0,0,.616,2.97,2.152,2.152,0,0,0,1.941.939,2.543,2.543,0,0,0,1.786-.547,2.47,2.47,0,0,0,.677-1.693Z" transform="translate(91.086 40.436)" fill="#15324b"/>
      <path id="Trazado_237393" data-name="Trazado 237393" d="M814.733,366.408h5.485v2.075h-8.067V355.947h2.583Z" transform="translate(92.302 40.454)" fill="#15324b"/>
      <rect id="Rectángulo_55521" data-name="Rectángulo 55521" width="2.583" height="12.536" transform="translate(914.164 396.4)" fill="#15324b"/>
      <path id="Trazado_237394" data-name="Trazado 237394" d="M835.534,368.483h-2.583l-5.029-8.248v8.248H825.34V355.946h2.583l5.037,8.266v-8.266h2.575Z" transform="translate(93.801 40.454)" fill="#15324b"/>
      <path id="Trazado_237395" data-name="Trazado 237395" d="M844.062,363.032H839.1v3.375h5.82v2.075h-8.4V355.947h8.387v2.091h-5.8v2.988h4.959Z" transform="translate(95.071 40.454)" fill="#15324b"/>
    </g>
  </g>
</svg>
