<svg xmlns="http://www.w3.org/2000/svg" width="505" height="372.938" viewBox="0 0 505 372.938">
  <g id="Grupo_876378" data-name="Grupo 876378" transform="translate(-284.452 -126.023)">
    <g id="Grupo_876356" data-name="Grupo 876356" transform="translate(595.86 187.21)">
      <path id="Trazado_218908" data-name="Trazado 218908" d="M565.169,438.879c16.486-.02,31.866-10.535,43.544-21.651,1.19-1.132,2.42-2.319,3.574-3.5a72.167,72.167,0,0,1-23.233.444,109.075,109.075,0,0,0,30.911-8.761c14.092-16.529,25.426-35.14,36.069-54.007a84.468,84.468,0,0,1-15.705.96A78.678,78.678,0,0,0,661.9,341.079c12.616-22.5,24.5-44.949,32.681-68.882.259-.759.5-1.559.721-2.384-8.3,7.2-17.839,11.3-25.969,18.3,5.006-9.375,9.533-19.037,15.7-27.351,4.8-6.48,10.532-12.013,15.419-18.466.05-.825.092-1.7.13-2.552.579-13.184-2.639-29.734-8.822-41.662-.435,1.274-.8,2.589-1.172,3.9a108.619,108.619,0,0,1-3.616,11.779,46.773,46.773,0,0,1-5.892,10.166,76.152,76.152,0,0,0,3.3-12.92c.722-4.648.869-9.414,1.438-14.11.3-2.471.7-4.913,1.176-7.324a81.965,81.965,0,0,0-15.615-18.215c-6.408,4.837-15.62,11.068-22.411,17.441.086.988.147,2.011.192,2.992.216,4.708-.113,9.47.206,14.149a40.038,40.038,0,0,0,.827,5.963,39.874,39.874,0,0,1-5.866-10.427c-.7-1.782-1.3-3.6-1.833-5.472a327.925,327.925,0,0,0-22.1,32.437,25.835,25.835,0,0,1,1.518,3.372c2.319,6.1,3.007,12.883,3.331,19.647.22,4.58.3,9.275.7,13.867a62.559,62.559,0,0,0-4-6.958c-3.145-4.7-7.12-8.9-10.313-13.481a152.544,152.544,0,0,0-10.041,27.031c-2.246,8.552-3.662,17.316-5.754,26.058.135.383.279.749.416,1.13a94.888,94.888,0,0,0,9.795,19.776,48.155,48.155,0,0,1-7.26-4.739,34.017,34.017,0,0,1-5.817-5.854c-.136.413-.25.826-.4,1.215-6.261,16.333-15.427,30.658-25.515,45.881-.175,1.377-.323,2.749-.5,4.107-.746,5.713-1.7,11.551-1.8,17.336a42.632,42.632,0,0,0,.609,8.3,29.451,29.451,0,0,1-7.531-9.1,21.109,21.109,0,0,1-1.529-4.415c-7.213,11.473-13.716,23.441-17.355,36.451-1.61,5.759.531,19.325,3.413,23.871C549.474,435.221,556.708,438.888,565.169,438.879Z" transform="translate(-507.052 -171.356)" fill="#f8f5e3"/>
      <path id="Trazado_218909" data-name="Trazado 218909" d="M574.433,413.071a33.434,33.434,0,0,1-4.774-2.25,268.156,268.156,0,0,0,24.078-23.448,83.739,83.739,0,0,0,11.752-1.845,99.534,99.534,0,0,0,13.287-4.125,111.263,111.263,0,0,0,25.592-14.092,107.547,107.547,0,0,1-25.729,12.6,95.281,95.281,0,0,1-13.056,3.334,74.288,74.288,0,0,1-9.049,1.066,321.682,321.682,0,0,0,41.129-57.123,80.316,80.316,0,0,0,10.84-3.971,92.375,92.375,0,0,0,11.309-6.145,103.39,103.39,0,0,0,20.747-17.444,100.588,100.588,0,0,1-21.073,16.363,89.823,89.823,0,0,1-11.268,5.531,73.5,73.5,0,0,1-9.058,2.99,321.149,321.149,0,0,0,26.949-64.4,100.294,100.294,0,0,0,17.671-16.118c5.435-6.275,14.534-21.157,14.534-21.157s-9.414,14.507-14.947,20.543a98.272,98.272,0,0,1-16.6,14.485,431.789,431.789,0,0,0,11.423-62.329,292.721,292.721,0,0,1-7.434,43.677A156.867,156.867,0,0,1,658.3,224.6c-4.09-5.35-8.057-10.823-11.844-16.4,3.607,5.732,7.4,11.382,11.323,16.94a163.487,163.487,0,0,0,12.532,15.894,430.3,430.3,0,0,1-22.482,62.093c-2.323-3.369-4.621-6.8-6.751-10.306-2.405-3.956-4.8-8.027-7.051-12.118-4.509-8.179-8.831-16.473-12.751-24.855,3.615,8.548,7.638,17.055,11.851,25.5,2.11,4.225,4.352,8.445,6.616,12.567,2.162,3.939,4.52,7.8,6.905,11.631a431.184,431.184,0,0,1-33.006,52.994c-1.162-3.037-2.265-6.136-3.2-9.279-1.172-3.943-2.3-8-3.254-12.058-1.914-8.113-3.562-16.344-4.74-24.581.726,8.339,1.913,16.733,3.361,25.09.726,4.183,1.613,8.389,2.555,12.512.857,3.75,1.941,7.464,3.079,11.146a429.161,429.161,0,0,1-44.471,46.153,48.325,48.325,0,0,1-1.606-5.813,82.074,82.074,0,0,1-1.355-8.891,126.906,126.906,0,0,1-.409-18.363,137.317,137.317,0,0,0-1.073,18.694,90.994,90.994,0,0,0,.6,9.321,55.977,55.977,0,0,0,1.317,7.174,318.79,318.79,0,0,1-49.266,33.624c1.05,1.86,1.574,2.791,2.624,4.651a322.91,322.91,0,0,0,49.377-34.935,37.456,37.456,0,0,0,6.051,2.257,47.858,47.858,0,0,0,8.588,1.531,57.237,57.237,0,0,0,18.418-1.493,53.45,53.45,0,0,1-17.822-.03A44.552,44.552,0,0,1,574.433,413.071Z" transform="translate(-515.171 -162.899)" fill="#c5c9e6"/>
    </g>
    <g id="Grupo_876357" data-name="Grupo 876357" transform="translate(568.931 148.475)">
      <path id="Trazado_218910" data-name="Trazado 218910" d="M591.717,147.314c7.747-3.507,19.629,2.879,23.171,9.686,4.109,7.891.49,15.843.039,16.792,1.606.667,11.906,5.14,15.561,16.415,3.212,9.907.023,21.142-8.131,28.666.629.289,10.123,4.847,11.443,14.858,1.109,8.429-4.059,17.054-12.779,20.617a17.288,17.288,0,0,1,1.572,33.079c.448.7,7.842,12.646,1.921,25.009-4.651,9.709-15.514,15.495-26.912,14.11,2.427,6.388.223,13.415-4.958,16.816a13.822,13.822,0,0,1-14.14.294,10.157,10.157,0,0,1-18.8,5.851c-.192.536-2.11,5.609-7.345,7.1-4.456,1.271-12.544-.549-15.45-4.642Z" transform="translate(-480.641 -141.376)" fill="#ffeeb0"/>
      <path id="Trazado_218911" data-name="Trazado 218911" d="M551.485,353.251c-6.134,3.8-16.124,1.008-19.111-2.223a9.5,9.5,0,0,1-1.737-9.512,12.587,12.587,0,0,1-12.885-3.451,12.754,12.754,0,0,1-.516-15.85c-6.163,1.07-12.2-1.8-14.836-6.831-3.207-6.121-.867-14.449,5.886-18.421a23.228,23.228,0,0,1,.817-42.156,22.148,22.148,0,0,1-.834-23.554c5.391-8.977,15.411-10.2,16.572-10.321a21.17,21.17,0,0,1,3.49-21.92c6.516-7.372,15.908-6.93,17.071-6.855a22.329,22.329,0,0,1,26.908-34.693,18.847,18.847,0,0,1,12.844-14.176c7.433-2.184,17.484,1.733,21.141,5.309Z" transform="translate(-495.22 -142.657)" fill="#f8f5e3"/>
      <path id="Trazado_218912" data-name="Trazado 218912" d="M590.543,182.611a122.383,122.383,0,0,1-15.049-10.529,165.937,165.937,0,0,1-14.1-12.794,166.415,166.415,0,0,0,13.72,13.245,122.785,122.785,0,0,0,15.1,11.243L578.3,225.747c-3.077-1.929-6.117-3.933-9.05-6.1-3.346-2.452-6.631-5-9.811-7.679a216.055,216.055,0,0,1-18.228-17.074,216.3,216.3,0,0,0,17.452,17.958c3.068,2.843,6.253,5.562,9.514,8.2,3.044,2.475,6.224,4.783,9.464,7.019l-9.845,34.7a155.462,155.462,0,0,1-24.62-14.871A241.068,241.068,0,0,1,519.46,228.2a241.717,241.717,0,0,0,23.011,20.631A156.4,156.4,0,0,0,567.166,265l-10.038,35.372c-3.79-2.011-7.548-4.1-11.168-6.431q-6.554-4.116-12.781-8.754A214.9,214.9,0,0,1,509.6,265.006a215.428,215.428,0,0,0,22.859,21.115q6.064,4.9,12.532,9.3c3.7,2.587,7.579,4.925,11.5,7.191l-23.3,82.131,3.409.912,61.718-230.438Z" transform="translate(-490.19 -138.265)" fill="#fff"/>
      <path id="Trazado_218913" data-name="Trazado 218913" d="M580.491,311.616c-5.381,1.243-10.787,2.385-16.259,3.106-2.721.456-5.476.665-8.21.993-1.749.173-3.5.294-5.256.413l9.2-36.489c2.238-.269,4.477-.524,6.707-.844,2.751-.467,5.522-.8,8.251-1.378,5.487-.987,10.9-2.323,16.274-3.783,5.35-1.545,10.638-3.3,15.805-5.354a105.617,105.617,0,0,0,15-7.224,105.428,105.428,0,0,1-15.21,6.674c-5.215,1.867-10.533,3.42-15.9,4.766-5.385,1.262-10.8,2.4-16.27,3.181-2.72.479-5.479.709-8.213,1.076-1.949.209-3.9.368-5.855.53l8.4-33.336c4.14-1,8.259-2.072,12.305-3.382,4.364-1.34,8.638-2.948,12.867-4.646s8.358-3.633,12.409-5.7a114.494,114.494,0,0,0,11.782-6.854,114.344,114.344,0,0,1-12.04,6.325c-4.122,1.882-8.31,3.613-12.574,5.132-4.268,1.5-8.568,2.91-12.94,4.049-3.693,1.023-7.434,1.844-11.184,2.594l10.394-41.242a135.207,135.207,0,0,0,20.354-7.716,128.74,128.74,0,0,0,19.2-11.08,128.417,128.417,0,0,1-19.448,10.544,134.235,134.235,0,0,1-19.782,6.951l11.015-43.706L529.6,385.656l3.409.914,17.168-68.121c2.027-.211,4.055-.416,6.074-.687,2.755-.431,5.526-.74,8.258-1.3,5.495-.923,10.907-2.269,16.278-3.71a161.19,161.19,0,0,0,15.782-5.365,105.6,105.6,0,0,0,14.964-7.26,105.436,105.436,0,0,1-15.174,6.711A160.477,160.477,0,0,1,580.491,311.616Z" transform="translate(-483.195 -138.265)" fill="#fff"/>
    </g>
    <g id="Grupo_876358" data-name="Grupo 876358" transform="translate(444.373 126.023)">
      <path id="Trazado_218914" data-name="Trazado 218914" d="M451.458,126.023c3.03,0,6.261,1.037,7.961,3.729.89,1.41,1.146,3.138,1.976,4.584,2.744,4.779,10.145,4.468,13.8,8.6,2.627,2.971,2.65,7.5,4.92,10.751,2.2,3.157,6.26,4.727,8.19,8.058,2.987,5.156-.171,12.588,3.593,17.206,1.313,1.61,3.25,2.547,5,3.674a24.618,24.618,0,0,1,10.5,25,12.152,12.152,0,0,0-.5,4.848c.525,2.559,2.926,4.2,4.755,6.068,5.843,5.964,6,16.568.333,22.7-1.134,1.227-2.509,2.373-2.942,3.986-.541,2.012.545,4.053,1.405,5.951,2.087,4.608,2.346,11.2-2.116,13.582-1.443.771-3.324,1.069-4.11,2.5a4.835,4.835,0,0,0-.387,2.455c.1,4.107.035,9.242-3.678,11-3.114,1.471-7.3-.455-10.028,1.641-3.635,2.787-1.644,10.4-6.043,11.677-2.844.827-6.587-1.992-8.511.26a7.932,7.932,0,0,0-1.064,2.762c-1.47,4.318-7.3,5.295-11.7,4.078a3.188,3.188,0,0,0-2.266-.1c-.865.439-1.068,1.547-1.369,2.469-.8,2.457-3.176,4.777-7.712,4.777Z" transform="translate(-385.967 -126.023)" fill="#f8f5e3"/>
      <path id="Trazado_218915" data-name="Trazado 218915" d="M468.427,308.279c-2.733.1-7.729-3.141-9.053-5.533a7.309,7.309,0,0,0-1.29-2.045c-1.286-1.154-3.274-.661-4.975-.358a9.492,9.492,0,0,1-5.06-.279,5.111,5.111,0,0,1-3.28-3.652,10.434,10.434,0,0,0-.267-1.618c-.663-1.9-3.223-2.068-5.236-2.072-3.6-.005-7.909-1.155-8.949-4.605-.508-1.684-.1-3.642-1.031-5.134-1.192-1.909-3.831-2.062-6.029-2.542-3.79-.827-7.452-3.745-7.726-7.615-.175-2.477,1.02-4.81,1.929-7.121a2.043,2.043,0,0,0,.151-1.579,2.1,2.1,0,0,0-1.115-.872,18.541,18.541,0,0,1-5.929-3.716c-1.613-1.7-2.543-4.271-1.678-6.453.51-1.288,1.564-2.286,2.184-3.525,1.441-2.887.259-6.372-1.248-9.225-1.855-3.507-4.2-6.772-5.641-10.464s-1.892-8.055.059-11.509c1.33-2.354,3.592-4,5.5-5.917s3.582-4.458,3.192-7.133c-.449-3.077-1.965-5.061-2.122-8.169a13.346,13.346,0,0,1,2.377-8.82c3.28-4.264,9.733-5.564,12.13-10.379,1.544-3.1.934-6.776.79-10.238s.544-7.482,3.543-9.217c1.432-.829,3.154-.975,4.688-1.6a8.222,8.222,0,0,0,4.944-8.2,8.492,8.492,0,0,1-.131-2.975c.576-2.21,3.358-2.793,5.6-3.215,2.582-.485,5.337-1.478,6.635-3.762,1.192-2.095.838-4.713,1.5-7.029.88-3.063,1.964-5.688,15.531-5.688Z" transform="translate(-402.936 -126.023)" fill="#ffeeb0"/>
      <path id="Trazado_218916" data-name="Trazado 218916" d="M499.341,253.948a138.16,138.16,0,0,1-11.292,8.391c-3.868,2.651-7.885,5.078-11.917,7.464L470,273.245l-3.081,1.622-.781-40.679a99.164,99.164,0,0,0,11.446-6.9,137.937,137.937,0,0,0,11.552-9.169q5.5-4.893,10.576-10.219c3.37-3.552,6.624-7.217,9.657-11.056-3.184,3.712-6.58,7.235-10.08,10.637s-7.155,6.643-10.923,9.73A136.588,136.588,0,0,1,476.59,225.8a96.884,96.884,0,0,1-10.5,5.842l-.881-45.857a72.049,72.049,0,0,0,6.57-6.193,74.618,74.618,0,0,0,5.866-7.033,81.514,81.514,0,0,0,9.215-15.678,80.821,80.821,0,0,1-10.147,14.937,72.839,72.839,0,0,1-6.2,6.512,61.986,61.986,0,0,1-5.365,4.528l-.8-41.874-.524,27.181c-3.852-2.467-7.554-5.238-11.181-8.092q-5.908-4.679-11.578-9.673,5.363,5.317,11,10.356a137.006,137.006,0,0,0,11.714,9.5l-.83,43.168c-3.269-1.385-6.518-2.834-9.674-4.485-3.779-1.91-7.471-4.007-11.081-6.24s-7.15-4.59-10.587-7.1-6.8-5.124-9.985-7.95c3.053,2.972,6.3,5.751,9.625,8.422s6.762,5.219,10.3,7.621,7.149,4.7,10.88,6.813c3.395,1.98,6.917,3.732,10.474,5.423l-.849,44.156c-3.624-1.664-7.218-3.407-10.706-5.364-4.411-2.394-8.712-5-12.906-7.778q-6.311-4.136-12.288-8.773c-3.982-3.084-7.869-6.3-11.55-9.752,3.543,3.593,7.307,6.967,11.177,10.216s7.866,6.352,11.986,9.29c4.107,2.956,8.336,5.753,12.693,8.345,3.737,2.295,7.621,4.345,11.546,6.321l-1.231,63.977h7.141l-.946-49.164,4.064-2.363,6.027-3.725c3.96-2.575,7.9-5.187,11.677-8.017A139.04,139.04,0,0,0,499.73,254.4a68.791,68.791,0,0,0,9.641-10.309A68.575,68.575,0,0,1,499.341,253.948Z" transform="translate(-398.855 -120.789)" fill="#fff"/>
    </g>
    <g id="Grupo_876359" data-name="Grupo 876359" transform="translate(382.545 195.383)">
      <path id="Trazado_218917" data-name="Trazado 218917" d="M381.424,180.079c-4.439-2.008-11.247,1.651-13.277,5.55-2.354,4.523-.281,9.08-.023,9.624-.921.382-6.822,2.945-8.918,9.406a15.879,15.879,0,0,0,4.661,16.426c-.36.166-5.8,2.778-6.557,8.514a11.456,11.456,0,0,0,7.322,11.816,9.907,9.907,0,0,0-.9,18.956c-.256.4-4.493,7.247-1.1,14.33a15,15,0,0,0,15.422,8.086,8.081,8.081,0,0,0,2.84,9.637,7.925,7.925,0,0,0,8.1.169,5.82,5.82,0,0,0,10.775,3.353,6.75,6.75,0,0,0,4.21,4.071c2.552.729,7.187-.316,8.853-2.66Z" transform="translate(-357.128 -176.677)" fill="#ffeeb0"/>
      <path id="Trazado_218918" data-name="Trazado 218918" d="M406.539,298.09c3.516,2.177,9.24.578,10.952-1.274a5.44,5.44,0,0,0,.995-5.45,7.211,7.211,0,0,0,7.383-1.977,7.31,7.31,0,0,0,.3-9.084,8.008,8.008,0,0,0,8.5-3.913,8.126,8.126,0,0,0-3.373-10.556,13.313,13.313,0,0,0-.467-24.159,12.7,12.7,0,0,0,.478-13.5,13.088,13.088,0,0,0-9.5-5.914,12.133,12.133,0,0,0-2-12.561,12.477,12.477,0,0,0-9.783-3.928A12.8,12.8,0,0,0,394.6,185.9a10.8,10.8,0,0,0-7.36-8.124c-4.26-1.253-10.019.992-12.115,3.041Z" transform="translate(-350.833 -177.411)" fill="#f8f5e3"/>
      <path id="Trazado_218919" data-name="Trazado 218919" d="M380.835,200.306a70.158,70.158,0,0,0,8.625-6.035,95.012,95.012,0,0,0,8.078-7.33,95.318,95.318,0,0,1-7.862,7.59,70.462,70.462,0,0,1-8.65,6.444l6.824,24.051c1.763-1.105,3.505-2.254,5.186-3.5,1.917-1.405,3.8-2.864,5.623-4.4a123.489,123.489,0,0,0,10.444-9.784,123.6,123.6,0,0,1-10,10.29c-1.759,1.629-3.583,3.188-5.453,4.7-1.742,1.419-3.566,2.741-5.423,4.022l5.642,19.883a89.079,89.079,0,0,0,14.109-8.522A137.976,137.976,0,0,0,421.57,226.43a138.6,138.6,0,0,1-13.187,11.824,89.714,89.714,0,0,1-14.151,9.267l5.751,20.269c2.173-1.153,4.326-2.35,6.4-3.685q3.756-2.359,7.324-5.017a123.21,123.21,0,0,0,13.511-11.566,123.413,123.413,0,0,1-13.1,12.1q-3.476,2.81-7.182,5.329c-2.123,1.483-4.342,2.824-6.589,4.122L413.7,316.136l-1.954.524L376.381,184.609Z" transform="translate(-350.395 -174.894)" fill="#fff"/>
      <path id="Trazado_218920" data-name="Trazado 218920" d="M387.143,274.232c3.084.711,6.182,1.366,9.319,1.779,1.558.262,3.137.382,4.7.57,1,.1,2.007.169,3.011.236l-5.269-20.909c-1.282-.154-2.566-.3-3.844-.483-1.576-.269-3.164-.458-4.727-.79-3.145-.566-6.249-1.332-9.327-2.169-3.065-.885-6.1-1.888-9.057-3.068a60.539,60.539,0,0,1-8.6-4.14,60.27,60.27,0,0,0,8.717,3.824c2.99,1.07,6.036,1.961,9.111,2.732,3.086.723,6.187,1.373,9.323,1.823,1.559.274,3.139.406,4.706.615,1.116.12,2.237.212,3.355.305l-4.814-19.1c-2.373-.574-4.734-1.188-7.051-1.938-2.5-.768-4.951-1.69-7.374-2.662s-4.789-2.084-7.112-3.268a65.673,65.673,0,0,1-6.751-3.928,65.446,65.446,0,0,0,6.9,3.625c2.362,1.078,4.762,2.07,7.2,2.94s4.91,1.668,7.415,2.322c2.116.586,4.26,1.055,6.408,1.486L387.437,210.4a77.484,77.484,0,0,1-11.663-4.422,73.722,73.722,0,0,1-11-6.349,73.457,73.457,0,0,0,11.145,6.041,76.658,76.658,0,0,0,11.335,3.983l-6.313-25.044L416.3,316.66l-1.953.524-9.84-39.037c-1.161-.12-2.323-.238-3.48-.393-1.579-.247-3.167-.424-4.732-.744-3.149-.529-6.251-1.3-9.328-2.126a92.861,92.861,0,0,1-9.044-3.075,60.469,60.469,0,0,1-8.575-4.161,60.531,60.531,0,0,0,8.7,3.847A92.057,92.057,0,0,0,387.143,274.232Z" transform="translate(-354.951 -174.894)" fill="#fff"/>
    </g>
    <g id="Grupo_876360" data-name="Grupo 876360" transform="translate(382.529 263.4)">
      <path id="Trazado_218921" data-name="Trazado 218921" d="M434.48,231.537c6.211-2.811,15.736,2.308,18.576,7.765,3.293,6.326.391,12.7.031,13.464,1.288.533,9.544,4.119,12.475,13.159,2.575,7.943.019,16.951-6.519,22.983.5.231,8.117,3.886,9.174,11.911.891,6.757-3.253,13.671-10.246,16.529a13.861,13.861,0,0,1,1.262,26.521c.359.559,6.287,10.138,1.539,20.049-3.728,7.785-12.436,12.424-21.575,11.313a11.305,11.305,0,0,1-3.974,13.481,11.082,11.082,0,0,1-11.336.236,8.143,8.143,0,0,1-15.075,4.69,9.44,9.44,0,0,1-5.89,5.7c-3.57,1.02-10.055-.441-12.385-3.721Z" transform="translate(-345.428 -226.777)" fill="#d3daf4"/>
      <path id="Trazado_218922" data-name="Trazado 218922" d="M402.225,396.64c-4.918,3.045-12.928.808-15.322-1.782a7.614,7.614,0,0,1-1.393-7.626,10.093,10.093,0,0,1-10.329-2.767,10.227,10.227,0,0,1-.413-12.708,11.2,11.2,0,0,1-11.894-5.476c-2.573-4.908-.7-11.585,4.719-14.769a18.623,18.623,0,0,1,.653-33.8,17.762,17.762,0,0,1-.668-18.884c4.322-7.2,12.355-8.177,13.287-8.275a16.973,16.973,0,0,1,2.8-17.573c5.225-5.91,12.754-5.555,13.686-5.495a17.9,17.9,0,0,1,21.573-27.814,15.11,15.11,0,0,1,10.3-11.366c5.959-1.751,14.018,1.389,16.95,4.256Z" transform="translate(-357.116 -227.804)" fill="#dee3f9"/>
      <path id="Trazado_218923" data-name="Trazado 218923" d="M433.539,259.835a98.112,98.112,0,0,1-12.067-8.443,133.226,133.226,0,0,1-11.3-10.257,133.745,133.745,0,0,0,11,10.62,98.577,98.577,0,0,0,12.1,9.013l-9.547,33.649c-2.467-1.547-4.9-3.154-7.256-4.89-2.682-1.967-5.317-4.009-7.866-6.156a173.02,173.02,0,0,1-14.612-13.689,173.225,173.225,0,0,0,13.991,14.4c2.459,2.28,5.013,4.459,7.627,6.57,2.44,1.984,4.99,3.835,7.588,5.627L415.306,324.1a124.616,124.616,0,0,1-19.738-11.924,193.317,193.317,0,0,1-19.018-15.788A193.658,193.658,0,0,0,395,312.926a125.541,125.541,0,0,0,19.8,12.965l-8.046,28.358c-3.04-1.613-6.052-3.288-8.954-5.156q-5.254-3.3-10.246-7.019a172.357,172.357,0,0,1-18.9-16.182,172.741,172.741,0,0,0,18.327,16.928q4.863,3.93,10.047,7.456c2.969,2.074,6.075,3.949,9.22,5.766l-18.683,65.845,2.733.732,49.48-184.745Z" transform="translate(-353.083 -224.282)" fill="#fff"/>
      <path id="Trazado_218924" data-name="Trazado 218924" d="M425.48,363.261c-4.315,1-8.649,1.911-13.036,2.49-2.181.366-4.389.533-6.583.8-1.4.139-2.807.235-4.213.331l7.372-29.253c1.8-.216,3.59-.42,5.379-.676,2.2-.375,4.426-.64,6.614-1.105,4.4-.791,8.741-1.863,13.048-3.033,4.288-1.24,8.528-2.643,12.67-4.293a84.768,84.768,0,0,0,12.029-5.79,84.4,84.4,0,0,1-12.195,5.349c-4.181,1.5-8.445,2.743-12.745,3.822-4.318,1.011-8.657,1.921-13.042,2.551-2.181.383-4.393.567-6.585.861-1.562.169-3.129.3-4.694.427l6.735-26.726c3.319-.8,6.622-1.662,9.865-2.713,3.5-1.074,6.927-2.363,10.316-3.724s6.7-2.913,9.949-4.57a91.921,91.921,0,0,0,9.447-5.495,91.782,91.782,0,0,1-9.653,5.071c-3.3,1.509-6.662,2.9-10.081,4.114s-6.869,2.334-10.374,3.247c-2.961.819-5.96,1.477-8.966,2.08l8.333-33.066a108.119,108.119,0,0,0,16.318-6.187,103.113,103.113,0,0,0,15.4-8.883,102.963,102.963,0,0,1-15.592,8.455,107.669,107.669,0,0,1-15.859,5.572l8.831-35.039-49.48,184.745,2.733.733,13.765-54.614c1.625-.169,3.25-.333,4.868-.551,2.209-.344,4.43-.593,6.62-1.039,4.406-.741,8.745-1.819,13.049-2.975a129.228,129.228,0,0,0,12.654-4.3,84.724,84.724,0,0,0,12-5.821,84.536,84.536,0,0,1-12.165,5.381A129.115,129.115,0,0,1,425.48,363.261Z" transform="translate(-347.475 -224.282)" fill="#fff"/>
    </g>
    <path id="Trazado_218925" data-name="Trazado 218925" d="M563.42,392.169H334.572a11.377,11.377,0,0,1-11.344-11.344h0a11.379,11.379,0,0,1,11.344-11.346H563.42a11.379,11.379,0,0,1,11.344,11.346h0A11.377,11.377,0,0,1,563.42,392.169Z" transform="translate(13.561 85.143)" fill="#dee3f9"/>
    <g id="Grupo_876361" data-name="Grupo 876361" transform="translate(284.452 185.85)">
      <path id="Trazado_218926" data-name="Trazado 218926" d="M410.371,423.016c3.362-6.834,7.151-13.4,8.507-20.919,2.315-12.814-2.636-26.028-8.239-37.7-.532-1.111-1.092-2.249-1.655-3.345a109.551,109.551,0,0,1-7.54,19.342,202.311,202.311,0,0,0,3.656-26.822c-7.824-14.055-15.935-28.491-21.763-43.522-2.976,3.841-6.2,7.548-9.552,11.11a107.3,107.3,0,0,0,6.615-19.544c-4.551-18.688-7.361-36.763-9.891-55.823-.08-.593-.157-1.185-.262-1.8-4.824,7.61-11.486,14.295-14.941,22.878-.381-8.7-.468-17.425,2.177-25.438,2.061-6.248,5.7-11.847,8.633-17.544-.173-.586-.35-1.2-.548-1.811a100.558,100.558,0,0,0-15.863-29.721c-.32,1.039-.557,2.106-.788,3.175-.7,3.23-1.095,6.593-2,9.781a46.483,46.483,0,0,1-3.852,9.175,83.672,83.672,0,0,0,.883-11.01c.015-3.863-.393-7.757-.217-11.621a44.939,44.939,0,0,1,.688-6.029,138.2,138.2,0,0,0-15.581-15.479c-6.558,4-15.785,9.783-22.177,16.583.142.991.265,2.016.378,3,.548,4.72.757,9.53,1.78,14.119a32.663,32.663,0,0,0,1.811,5.734,32.661,32.661,0,0,1-7.394-9.517,47.043,47.043,0,0,1-2.435-5.445,113.939,113.939,0,0,0-14.631,39.965,36.574,36.574,0,0,1,2.552,3.193c4.264,5.848,7.521,12.616,10.825,19.23a125.7,125.7,0,0,0,7.27,13.083c-2.268-1.634-4.585-3.2-6.944-4.628-5.036-3.054-10.517-5.507-15.417-9.074a108.87,108.87,0,0,0,5.987,34.338c3.544,10.115,8.58,19.441,13.724,28.6.381.227.753.425,1.134.645a62.191,62.191,0,0,0,21.535,7.59,42.126,42.126,0,0,1-8.279,2.378,27.758,27.758,0,0,1-8.29.236c.242.443.483.854.718,1.293,9.42,17.471,18.506,35.378,28.694,52.683,1.27.814,2.551,1.581,3.81,2.349,5.295,3.23,10.72,6.338,16.322,8.236a34.3,34.3,0,0,0,8.206,1.749c-3.264,2.237-6.695,4.262-10.664,4.91a18.5,18.5,0,0,1-4.736.14c8.322,10.262,21.729,20.536,34.315,24.735C392.585,428.362,405.934,425.993,410.371,423.016Z" transform="translate(-284.452 -170.348)" fill="#f8f5e3"/>
      <path id="Trazado_218927" data-name="Trazado 218927" d="M400.083,393.564a41.359,41.359,0,0,1-2.888,4.256c-6.909-9.76-10.172-14.766-16.293-25,.91-3.548,1.753-7.125,2.388-10.691.714-4.015,1.336-8.112,1.78-12.162a189.286,189.286,0,0,0,1.231-24.191,186.087,186.087,0,0,1-2.566,23.9c-.667,3.961-1.51,7.946-2.438,11.82-.653,2.732-1.432,5.465-2.276,8.148a527.562,527.562,0,0,1-27.3-56.676c1.575-3.214,3.1-6.471,4.4-9.764,1.4-3.532,2.729-7.164,3.883-10.792a167.353,167.353,0,0,0,5.515-22,164.979,164.979,0,0,1-6.458,21.59c-1.3,3.531-2.776,7.047-4.315,10.442-1.22,2.7-2.586,5.357-4.006,7.957a527.757,527.757,0,0,1-17.345-60.159,203.023,203.023,0,0,0,9.645-19.319c2.875-6.616,7.634-20.142,7.634-20.142s-5.167,13.329-8.231,19.806a197.382,197.382,0,0,1-9.46,17.6,390.112,390.112,0,0,1-6.916-56.309,326.07,326.07,0,0,0,3.225,39.582,83.4,83.4,0,0,1-16.411-8.95,113.948,113.948,0,0,1-15.653-13.021,115.109,115.109,0,0,0,15.322,13.681,83.936,83.936,0,0,0,16.969,9.96,391.814,391.814,0,0,0,12.6,58.342,102.686,102.686,0,0,1-11.689-2.867,116.479,116.479,0,0,1-13.017-4.944,121.29,121.29,0,0,1-24.819-14.948,123.093,123.093,0,0,0,24.512,16.031,117.3,117.3,0,0,0,13.009,5.5,106.449,106.449,0,0,0,12.7,3.559,392.214,392.214,0,0,0,20.373,52.917,76.12,76.12,0,0,1-9.475-1.219,96.206,96.206,0,0,1-11.921-3.137,104.986,104.986,0,0,1-23.209-11.076,107.679,107.679,0,0,0,22.933,12.525,98.3,98.3,0,0,0,12.011,3.886,82.215,82.215,0,0,0,11.058,1.961,392.992,392.992,0,0,0,29.064,50.478,41.28,41.28,0,0,1-5.809,1.088,57.217,57.217,0,0,1-8.829.308,72.3,72.3,0,0,1-18.169-3.172,74.855,74.855,0,0,0,18.273,4.658,59.33,59.33,0,0,0,9.152.4,44.528,44.528,0,0,0,7.074-.817A393.26,393.26,0,0,0,428.98,444.8l3.878-3.619a388.775,388.775,0,0,1-33.971-40.99,47.664,47.664,0,0,0,3.023-5.454,63.113,63.113,0,0,0,2.984-7.607,71.381,71.381,0,0,0,3.158-15.938,68.506,68.506,0,0,1-4.439,15.345A59.1,59.1,0,0,1,400.083,393.564Z" transform="translate(-281.605 -162.817)" fill="#f8f5e3"/>
    </g>
    <rect id="Rectángulo_296909" data-name="Rectángulo 296909" width="168.731" height="36.525" rx="13.531" transform="translate(561.304 449.239)" fill="#dee3f9"/>
    <rect id="Rectángulo_296910" data-name="Rectángulo 296910" width="115.828" height="9.942" rx="3.683" transform="translate(650.865 457.702)" fill="#dee3f9"/>
    <path id="Trazado_218928" data-name="Trazado 218928" d="M645.071,373.576H539.183a4.987,4.987,0,0,0-4.971,4.971,4.908,4.908,0,0,0,.5,2.133H504.529a4.97,4.97,0,1,0,0,9.941H610.415a4.985,4.985,0,0,0,4.971-4.97,4.889,4.889,0,0,0-.5-2.133h30.187a4.971,4.971,0,1,0,0-9.942Z" transform="translate(75.229 86.576)" fill="#dee3f9" style="mix-blend-mode: multiply;isolation: isolate"/>
    <path id="Trazado_218929" data-name="Trazado 218929" d="M438.448,380.531H544.334a4.985,4.985,0,0,0,4.971-4.971h0a4.985,4.985,0,0,0-4.971-4.971H438.448a4.985,4.985,0,0,0-4.971,4.971h0A4.985,4.985,0,0,0,438.448,380.531Z" transform="translate(52.118 85.532)" fill="#dee3f9" style="mix-blend-mode: multiply;isolation: isolate"/>
    <rect id="Rectángulo_296911" data-name="Rectángulo 296911" width="115.828" height="9.942" rx="3.683" transform="translate(444.051 489.02)" fill="#dee3f9"/>
    <rect id="Rectángulo_296912" data-name="Rectángulo 296912" width="115.828" height="9.942" rx="3.683" transform="translate(287.078 457.702)" fill="#dee3f9"/>
    <path id="Trazado_218930" data-name="Trazado 218930" d="M483.7,378.434h-37.29a4.921,4.921,0,0,0,.445-2.03,4.985,4.985,0,0,0-4.971-4.971H336a4.971,4.971,0,0,0,0,9.942h37.292a4.915,4.915,0,0,0-.447,2.029,4.986,4.986,0,0,0,4.971,4.971H483.7a4.97,4.97,0,1,0,0-9.941Z" transform="translate(16.289 85.827)" fill="#dee3f9" style="mix-blend-mode: multiply;isolation: isolate"/>
    <path id="Trazado_218931" data-name="Trazado 218931" d="M602.6,303.873,593.886,241.4a3.528,3.528,0,0,0-3.859-3.149l-31.47,4.392a3.527,3.527,0,0,0-2.849,4.084l8.718,62.468a3.527,3.527,0,0,0,3.859,3.149l31.47-4.392A3.527,3.527,0,0,0,602.6,303.873Z" transform="translate(94.852 39.24)" fill="#a2a7c5"/>
    <path id="Trazado_218932" data-name="Trazado 218932" d="M550.79,327.794l23.758-58.428a3.527,3.527,0,0,0-1.761-4.658L543.352,252.74a3.527,3.527,0,0,0-4.512,2.106l-23.758,58.43a3.527,3.527,0,0,0,1.761,4.658L546.28,329.9A3.525,3.525,0,0,0,550.79,327.794Z" transform="translate(80.557 44.235)" fill="#a2a7c5"/>
    <path id="Trazado_218933" data-name="Trazado 218933" d="M567.839,280.276l-.005,0a1.342,1.342,0,0,0-.178,1.89l.451.544-.2.165a1,1,0,0,0-.134,1.412l2.037,2.461a1,1,0,0,0,1.413.132l.2-.165.451.544a1.341,1.341,0,0,0,1.888.178l0,0a1.669,1.669,0,0,0,1.865.063l.289.348,1.142-.946-.258-.312,1.142-.946.259.313,1.142-.946-.258-.312,1.142-.946.259.312,1.142-.945-.559-.675.5-.414a13.549,13.549,0,0,1,12.038-2.562,18.811,18.811,0,0,0,19.031-30.249,19.45,19.45,0,0,0-1.455-1.571,18.811,18.811,0,0,0-31.8,14.829,13.338,13.338,0,0,1-4.775,11.135l-.5.416-.3-.362-.259-.312-1.142.945.259.313-1.143.945-.258-.312-1.143.946.259.312-1.143.946-.258-.313-1.143.946.289.348A1.669,1.669,0,0,0,567.839,280.276Z" transform="translate(98.937 40.706)" fill="#616476"/>
    <path id="Trazado_218934" data-name="Trazado 218934" d="M553.35,243.665l-2.018,1.44-1.728-2.419a2.079,2.079,0,0,0-2.9-.483l-8.285,5.919a2.076,2.076,0,0,0-.483,2.9l1.728,2.419-2.018,1.442a2.079,2.079,0,0,0-.483,2.9l39.39,55.147a2.079,2.079,0,0,0,2.9.483l15.7-11.216a2.079,2.079,0,0,0,.484-2.9l-39.392-55.147A2.079,2.079,0,0,0,553.35,243.665Z" transform="translate(88.245 40.496)" fill="#616476"/>
    <path id="Trazado_218935" data-name="Trazado 218935" d="M414.234,273.47l-3.825-2.138,3.876-6.932a2.454,2.454,0,0,0-.945-3.338l-4.99-2.79,12.964-26.4a.95.95,0,0,0-1.656-.926l-15.7,24.874-4.99-2.79a2.452,2.452,0,0,0-3.338.943l-3.876,6.934-3.824-2.138a2.453,2.453,0,0,0-3.338.943l-26.526,47.45a2.451,2.451,0,0,0,.945,3.336L385.315,325.2a2.452,2.452,0,0,0,3.338-.943l26.525-47.45A2.453,2.453,0,0,0,414.234,273.47Z" transform="translate(25.635 36.538)" fill="#a2a7c5"/>
    <path id="Trazado_218936" data-name="Trazado 218936" d="M337.888,298.266l4.248,1.073-1.945,7.7a2.451,2.451,0,0,0,1.778,2.978l5.543,1.4-5.673,28.864a.95.95,0,0,0,1.84.464l8.715-28.1,5.542,1.4a2.452,2.452,0,0,0,2.979-1.776l1.945-7.7,4.249,1.073a2.452,2.452,0,0,0,2.979-1.776L383.4,251.165a2.453,2.453,0,0,0-1.778-2.979l-29.22-7.38a2.453,2.453,0,0,0-2.979,1.778l-13.311,52.706A2.451,2.451,0,0,0,337.888,298.266Z" transform="translate(18.04 40.116)" fill="#a2a7c5"/>
    <path id="Trazado_218937" data-name="Trazado 218937" d="M371.715,317.464l4.829-4.037,1.321,1.581a1.131,1.131,0,0,0,1.591.143l3.415-2.855a1.13,1.13,0,0,0,.142-1.593l-1.321-1.581,4.828-4.037a2.078,2.078,0,0,0,.26-2.928l-20.346-24.334-23.126-27.657a2.078,2.078,0,0,0-2.928-.26l-14.805,12.378a2.078,2.078,0,0,0-.26,2.928L348.44,292.87,368.788,317.2A2.078,2.078,0,0,0,371.715,317.464Z" transform="translate(14.122 43.156)" fill="#616476"/>
    <path id="Trazado_218938" data-name="Trazado 218938" d="M505.614,283.225l6.182,1.188-.389,2.023a1.129,1.129,0,0,0,.9,1.323l4.37.84a1.133,1.133,0,0,0,1.324-.9l.389-2.025,6.179,1.188A2.08,2.08,0,0,0,527,285.216l5.981-31.15,6.8-35.4a2.078,2.078,0,0,0-1.648-2.434l-18.953-3.639a2.078,2.078,0,0,0-2.432,1.649l-6.8,35.4-5.982,31.15A2.078,2.078,0,0,0,505.614,283.225Z" transform="translate(76.757 30.261)" fill="#616476"/>
    <g id="Grupo_876363" data-name="Grupo 876363" transform="translate(585.692 311.909)">
      <path id="Trazado_218939" data-name="Trazado 218939" d="M638.293,265.7l-.85,7.515L622.69,402.861A12.366,12.366,0,0,1,610.4,413.825H539.8a12.366,12.366,0,0,1-12.293-10.964L512.759,273.213l-.852-7.515Z" transform="translate(-506.145 -263.061)" fill="#cab3ed"/>
      <path id="Trazado_218940" data-name="Trazado 218940" d="M638.293,265.7l-.851,7.515H512.758l-.85-7.515Z" transform="translate(-506.145 -263.061)" fill="#6826cc" style="mix-blend-mode: multiply;isolation: isolate"/>
      <g id="Grupo_876362" data-name="Grupo 876362">
        <path id="Trazado_218941" data-name="Trazado 218941" d="M642.909,269.012H510.271a2.634,2.634,0,0,1,0-5.268H642.909a2.634,2.634,0,0,1,0,5.268Z" transform="translate(-507.638 -263.744)" fill="#cab3ed"/>
      </g>
      <path id="Trazado_218942" data-name="Trazado 218942" d="M562.043,281.963l-2.635,106.57-2.633-106.57a2.635,2.635,0,1,1,5.268-.131C562.045,281.872,562.045,281.922,562.043,281.963Z" transform="translate(-490.454 -258.317)" fill="#6826cc"/>
      <path id="Trazado_218943" data-name="Trazado 218943" d="M590.262,282.244l-14.1,106.288,8.858-106.853a2.635,2.635,0,1,1,5.252.436C590.272,282.155,590.266,282.205,590.262,282.244Z" transform="translate(-483.672 -258.316)" fill="#6826cc"/>
      <path id="Trazado_218944" data-name="Trazado 218944" d="M536.088,281.68l8.858,106.853-14.1-106.288a2.635,2.635,0,1,1,5.223-.692C536.079,281.591,536.084,281.64,536.088,281.68Z" transform="translate(-499.528 -258.317)" fill="#6826cc"/>
    </g>
    <path id="Trazado_218945" data-name="Trazado 218945" d="M536.474,215.448l-62.619,7.567a3.526,3.526,0,0,0-3.218,3.8l3.812,31.546a3.526,3.526,0,0,0,4.03,2.923l62.619-7.567a3.525,3.525,0,0,0,3.218-3.8L540.5,218.373A3.526,3.526,0,0,0,536.474,215.448Z" transform="translate(65.106 31.265)" fill="#a2a7c5"/>
    <g id="Grupo_876365" data-name="Grupo 876365" transform="translate(330.49 311.909)">
      <path id="Trazado_218946" data-name="Trazado 218946" d="M449.217,265.7l-.852,7.515L433.613,402.861a12.366,12.366,0,0,1-12.293,10.964H350.727a12.366,12.366,0,0,1-12.293-10.964L323.681,273.213l-.85-7.515Z" transform="translate(-317.068 -263.061)" fill="#cab3ed"/>
      <path id="Trazado_218947" data-name="Trazado 218947" d="M449.216,265.7l-.851,7.515H323.681l-.85-7.515Z" transform="translate(-317.068 -263.061)" fill="#6826cc" style="mix-blend-mode: multiply;isolation: isolate"/>
      <g id="Grupo_876364" data-name="Grupo 876364">
        <path id="Trazado_218948" data-name="Trazado 218948" d="M453.832,269.012H321.2a2.634,2.634,0,1,1,0-5.268H453.832a2.634,2.634,0,0,1,0,5.268Z" transform="translate(-318.561 -263.744)" fill="#cab3ed"/>
      </g>
      <path id="Trazado_218949" data-name="Trazado 218949" d="M372.966,281.963l-2.633,106.57L367.7,281.963a2.635,2.635,0,0,1,5.268-.131C372.968,281.872,372.968,281.922,372.966,281.963Z" transform="translate(-301.377 -258.317)" fill="#6826cc"/>
      <path id="Trazado_218950" data-name="Trazado 218950" d="M401.185,282.244l-14.1,106.288,8.858-106.853a2.635,2.635,0,1,1,5.252.436C401.2,282.155,401.19,282.205,401.185,282.244Z" transform="translate(-294.595 -258.316)" fill="#6826cc"/>
      <path id="Trazado_218951" data-name="Trazado 218951" d="M347.011,281.68l8.86,106.853-14.1-106.288a2.635,2.635,0,1,1,5.225-.692C347,281.591,347.009,281.64,347.011,281.68Z" transform="translate(-310.451 -258.317)" fill="#6826cc"/>
    </g>
    <g id="Grupo_876366" data-name="Grupo 876366" transform="translate(511.057 215.147)">
      <rect id="Rectángulo_296913" data-name="Rectángulo 296913" width="36.007" height="55.58" transform="matrix(0.917, 0.399, -0.399, 0.917, 25.254, 6.028)" fill="#81859d"/>
      <path id="Trazado_218952" data-name="Trazado 218952" d="M477.851,194.312l-25.183,57.829a3.526,3.526,0,0,0,1.647,4.7l29.133,12.687a3.526,3.526,0,0,0,4.562-2L513.193,209.7a3.527,3.527,0,0,0-1.647-4.7l-29.133-12.687A3.528,3.528,0,0,0,477.851,194.312Zm10.566,69.1L455.4,249.04,477.6,198.082l33.013,14.377Z" transform="translate(-452.341 -192.054)" fill="#616476"/>
      <path id="Trazado_218953" data-name="Trazado 218953" d="M488.923,202.26l-7.523-3.276a.506.506,0,0,1-.262-.665h0a.505.505,0,0,1,.665-.262l7.523,3.276a.505.505,0,0,1,.262.665h0A.5.5,0,0,1,488.923,202.26Z" transform="translate(-442.285 -189.969)" fill="#112b46"/>
      <path id="Trazado_218954" data-name="Trazado 218954" d="M468.288,243.915a2.275,2.275,0,1,1-1.177-3A2.274,2.274,0,0,1,468.288,243.915Z" transform="translate(-448.29 -175.03)" fill="#112b46"/>
    </g>
    <path id="Trazado_218955" data-name="Trazado 218955" d="M484.756,249.049,442.637,202.1a3.527,3.527,0,0,0-4.959-.456l-23.653,21.218a3.526,3.526,0,0,0-.082,4.979l42.117,46.952a3.526,3.526,0,0,0,4.959.456l23.654-21.218A3.526,3.526,0,0,0,484.756,249.049Z" transform="translate(44.942 26.16)" fill="#a2a7c5"/>
    <path id="Trazado_218956" data-name="Trazado 218956" d="M460.1,211.189l-6.2,1.1-.359-2.029a1.131,1.131,0,0,0-1.309-.916l-4.383.777a1.133,1.133,0,0,0-.916,1.311l.36,2.029-6.2,1.1a2.077,2.077,0,0,0-1.683,2.409l5.537,31.233,6.292,35.5a2.079,2.079,0,0,0,2.409,1.684l19-3.369a2.079,2.079,0,0,0,1.683-2.409l-6.292-35.5-5.538-31.233A2.078,2.078,0,0,0,460.1,211.189Z" transform="translate(54.183 29.133)" fill="#616476"/>
    <g id="Grupo_876368" data-name="Grupo 876368" transform="translate(441.234 261.081)">
      <path id="Trazado_218957" data-name="Trazado 218957" d="M575.313,228.7l-1.137,10.049L554.45,412.1a16.537,16.537,0,0,1-16.438,14.661H443.621A16.536,16.536,0,0,1,427.183,412.1L407.457,238.748,406.319,228.7Z" transform="translate(-398.613 -225.172)" fill="#ea3584"/>
      <path id="Trazado_218958" data-name="Trazado 218958" d="M575.314,228.7l-1.137,10.049H407.457L406.319,228.7Z" transform="translate(-398.613 -225.172)" fill="#bb2a69"/>
      <g id="Grupo_876367" data-name="Grupo 876367">
        <path id="Trazado_218959" data-name="Trazado 218959" d="M581.486,233.13H404.133a3.522,3.522,0,1,1,0-7.044H581.486a3.522,3.522,0,1,1,0,7.044Z" transform="translate(-400.61 -226.086)" fill="#f8b8d4"/>
      </g>
      <path id="Trazado_218960" data-name="Trazado 218960" d="M473.358,250.446l-3.523,142.5-3.521-142.5a3.523,3.523,0,0,1,7.044-.174C473.359,250.326,473.359,250.394,473.358,250.446Z" transform="translate(-377.632 -218.829)" fill="#bb2a69"/>
      <path id="Trazado_218961" data-name="Trazado 218961" d="M511.089,250.824,492.24,392.946,504.085,250.07a3.523,3.523,0,0,1,7.023.582C511.1,250.705,511.1,250.771,511.089,250.824Z" transform="translate(-368.564 -218.829)" fill="#bb2a69"/>
      <path id="Trazado_218962" data-name="Trazado 218962" d="M438.652,250.07,450.5,392.946,431.648,250.824a3.523,3.523,0,1,1,6.985-.927C438.64,249.951,438.648,250.017,438.652,250.07Z" transform="translate(-389.766 -218.829)" fill="#bb2a69"/>
    </g>
    <g id="Grupo_876369" data-name="Grupo 876369" transform="translate(628.726 393.225)">
      <path id="Rectángulo_296914" data-name="Rectángulo 296914" d="M1.54,0H21.914a1.541,1.541,0,0,1,1.541,1.541V70.388a1.54,1.54,0,0,1-1.54,1.54H1.54A1.54,1.54,0,0,1,0,70.388V1.54A1.54,1.54,0,0,1,1.54,0Z" transform="translate(0 3.189)" fill="#ffeeb0"/>
      <path id="Trazado_218963" data-name="Trazado 218963" d="M562.977,351.394H539.521v36.051a2.08,2.08,0,0,0,2.081,2.079h19.3a2.079,2.079,0,0,0,2.079-2.079Z" transform="translate(-539.521 -314.406)" fill="#616476"/>
      <path id="Trazado_218964" data-name="Trazado 218964" d="M551.3,323.99h-4.452a1.129,1.129,0,0,0-1.128,1.13v2.06h6.711v-2.06A1.131,1.131,0,0,0,551.3,323.99Z" transform="translate(-537.351 -323.99)" fill="#bee1f4"/>
      <path id="Trazado_218965" data-name="Trazado 218965" d="M554.159,366.7h-4.725V356.017l-4.723,14.972h4.723v10.679Z" transform="translate(-537.706 -312.789)" fill="#ffeeb0"/>
      <path id="Trazado_218966" data-name="Trazado 218966" d="M547.882,328.826v6.711h.885v-6.711" transform="translate(-536.597 -322.299)" fill="#56548c"/>
      <path id="Trazado_218967" data-name="Trazado 218967" d="M545.725,331.868h6.711v-.885h-6.711" transform="translate(-537.351 -321.544)" fill="#56548c"/>
      <path id="Trazado_218968" data-name="Trazado 218968" d="M545.725,345.464h6.711v-.885h-6.711" transform="translate(-537.351 -316.789)" fill="#56548c"/>
    </g>
    <g id="Grupo_876370" data-name="Grupo 876370" transform="translate(561.071 450.946)">
      <path id="Rectángulo_296915" data-name="Rectángulo 296915" d="M1.54,0H70.387a1.541,1.541,0,0,1,1.541,1.541V21.915a1.54,1.54,0,0,1-1.54,1.54H1.54A1.54,1.54,0,0,1,0,21.915V1.54A1.54,1.54,0,0,1,1.54,0Z" transform="translate(3.188 0)" fill="#ffeeb0"/>
      <path id="Trazado_218969" data-name="Trazado 218969" d="M516.8,366.755v23.456H552.85a2.079,2.079,0,0,0,2.079-2.081v-19.3a2.078,2.078,0,0,0-2.079-2.079Z" transform="translate(-479.812 -366.755)" fill="#616476"/>
      <path id="Trazado_218970" data-name="Trazado 218970" d="M489.4,374.088v4.45a1.128,1.128,0,0,0,1.128,1.13h2.06v-6.711h-2.06A1.129,1.129,0,0,0,489.4,374.088Z" transform="translate(-489.396 -364.586)" fill="#bee1f4"/>
      <path id="Trazado_218971" data-name="Trazado 218971" d="M532.1,371.943v4.725H521.422l14.972,4.723v-4.723h10.679Z" transform="translate(-478.196 -364.941)" fill="#ffeeb0"/>
      <path id="Trazado_218972" data-name="Trazado 218972" d="M494.231,376h6.711v-.885h-6.711" transform="translate(-487.705 -363.831)" fill="#56548c"/>
      <path id="Trazado_218973" data-name="Trazado 218973" d="M497.273,379.668v-6.711h-.885v6.711" transform="translate(-486.951 -364.586)" fill="#56548c"/>
      <path id="Trazado_218974" data-name="Trazado 218974" d="M510.87,379.668v-6.711h-.885v6.711" transform="translate(-482.196 -364.586)" fill="#56548c"/>
    </g>
    <g id="Grupo_876372" data-name="Grupo 876372" transform="translate(493.564 361.694)">
      <rect id="Rectángulo_296916" data-name="Rectángulo 296916" width="14.416" height="11.125" transform="translate(15.147 6.105)" fill="#998f69"/>
      <path id="Rectángulo_296917" data-name="Rectángulo 296917" d="M1.339,0H15.647a1.339,1.339,0,0,1,1.339,1.339v5.9a0,0,0,0,1,0,0H0a0,0,0,0,1,0,0v-5.9A1.339,1.339,0,0,1,1.339,0Z" transform="translate(13.862)" fill="#616476"/>
      <path id="Trazado_218975" data-name="Trazado 218975" d="M484.084,363.777v35.555a6.553,6.553,0,0,1-.148,1.44,7.345,7.345,0,0,1-7.221,5.929H446.729a7.357,7.357,0,0,1-7.348-7.369V363.777a24.46,24.46,0,0,1,2.583-10.926,24.082,24.082,0,0,0,1.757-17.237,18.671,18.671,0,0,1,10.8-22.214h14.42a18.684,18.684,0,0,1,10.821,22.129,24.309,24.309,0,0,0,1.716,17.322,24.017,24.017,0,0,1,2.562,9.719A11.261,11.261,0,0,1,484.084,363.777Z" transform="translate(-439.381 -296.163)" fill="#ccbe8c"/>
      <g id="Grupo_876371" data-name="Grupo 876371" transform="translate(2.784 21.289)">
        <path id="Trazado_218976" data-name="Trazado 218976" d="M443.563,399.714a2.119,2.119,0,0,1-2.119-2.118V362.722a21.678,21.678,0,0,1,2.295-9.675,26.786,26.786,0,0,0,1.948-19.223,15.885,15.885,0,0,1,5.85-17.008,2.117,2.117,0,0,1,2.517,3.405,11.669,11.669,0,0,0-4.287,12.471,31,31,0,0,1-2.243,22.253,17.436,17.436,0,0,0-1.842,7.776V397.6A2.119,2.119,0,0,1,443.563,399.714Z" transform="translate(-441.444 -316.402)" fill="#ffeeb0"/>
      </g>
      <path id="Trazado_218977" data-name="Trazado 218977" d="M481.384,351.037v35.555a6.553,6.553,0,0,1-.148,1.44H447.1v-38.2h34.241A11.261,11.261,0,0,1,481.384,351.037Z" transform="translate(-436.681 -283.422)" fill="#f9fbfc"/>
      <rect id="Rectángulo_296918" data-name="Rectángulo 296918" width="27.663" height="7.942" transform="translate(17.04 72.01)" fill="#ffeeb0"/>
      <rect id="Rectángulo_296919" data-name="Rectángulo 296919" width="27.663" height="2.264" transform="translate(17.04 85.281)" fill="#ffeeb0"/>
      <rect id="Rectángulo_296920" data-name="Rectángulo 296920" width="27.663" height="2.264" transform="translate(17.04 95.648)" fill="#ffeeb0"/>
      <rect id="Rectángulo_296921" data-name="Rectángulo 296921" width="27.663" height="2.264" transform="translate(17.04 90.665)" fill="#ffeeb0"/>
    </g>
    <g id="Grupo_876373" data-name="Grupo 876373" transform="translate(663.19 431.611)">
      <path id="Trazado_218978" data-name="Trazado 218978" d="M617.152,364.81a19.487,19.487,0,0,0-.842-1.968,18.811,18.811,0,0,0-34.936,3.3,13.333,13.333,0,0,1-8.233,8.888l-1.566.571,3.74,10.265,1.563-.57a13.541,13.541,0,0,1,12.2,1.625,18.811,18.811,0,0,0,28.076-22.113Z" transform="translate(-562.776 -352.43)" fill="#fff9e3"/>
      <path id="Rectángulo_296922" data-name="Rectángulo 296922" d="M0,0H9.3a0,0,0,0,1,0,0V5.978a.994.994,0,0,1-.994.994H.994A.994.994,0,0,1,0,5.978V0A0,0,0,0,1,0,0Z" transform="translate(7.034 24.682) rotate(69.979)" fill="#56548c"/>
      <path id="Rectángulo_296923" data-name="Rectángulo 296923" d="M0,0H5.2a0,0,0,0,1,0,0V6.228a.744.744,0,0,1-.744.744H.744A.744.744,0,0,1,0,6.228V0A0,0,0,0,1,0,0Z" transform="translate(6.55 27.038) rotate(69.979)" fill="#56548c"/>
      <path id="Trazado_218979" data-name="Trazado 218979" d="M573.165,377.628a.734.734,0,0,1,.255-.844l21.149-15.6a.736.736,0,0,1,1.159.732l-1.558,8.057,6.376,5.167a.735.735,0,0,1-.417,1.305L573.9,378.109A.736.736,0,0,1,573.165,377.628Zm20.76-14.138-17.618,12.994,21.848-1.387L592.9,370.84a.74.74,0,0,1-.259-.713Z" transform="translate(-562.235 -349.418)" fill="#d8edf8"/>
      <path id="Rectángulo_296924" data-name="Rectángulo 296924" d="M0,0H11.864a0,0,0,0,1,0,0V7.63A1.269,1.269,0,0,1,10.6,8.9H1.269A1.269,1.269,0,0,1,0,7.629V0A0,0,0,0,1,0,0Z" transform="matrix(0.342, 0.94, -0.94, 0.342, 9.59, 22.384)" fill="#56548c"/>
      <rect id="Rectángulo_296925" data-name="Rectángulo 296925" width="12.676" height="1.483" transform="matrix(0.342, 0.94, -0.94, 0.342, 6.664, 23.018)" fill="#7876a3"/>
      <rect id="Rectángulo_296926" data-name="Rectángulo 296926" width="12.676" height="1.483" transform="matrix(0.342, 0.94, -0.94, 0.342, 9.451, 22.003)" fill="#7876a3"/>
      <rect id="Rectángulo_296927" data-name="Rectángulo 296927" width="12.676" height="1.483" transform="matrix(0.342, 0.94, -0.94, 0.342, 3.877, 24.033)" fill="#7876a3"/>
    </g>
    <g id="Grupo_876375" data-name="Grupo 876375" transform="translate(447.872 378.415)">
      <path id="Trazado_218980" data-name="Trazado 218980" d="M411.881,393.076h29.484l5.76-80.058h-41Z" transform="translate(-405.32 -313.018)" fill="#cab3ed"/>
      <rect id="Rectángulo_296928" data-name="Rectángulo 296928" width="29.484" height="12.387" transform="translate(36.044 92.445) rotate(180)" fill="#616476"/>
      <rect id="Rectángulo_296929" data-name="Rectángulo 296929" width="7.21" height="5.737" transform="translate(24.907 92.445) rotate(180)" fill="#e8def8"/>
      <path id="Trazado_218981" data-name="Trazado 218981" d="M406.328,318.853h41l.885-5.835H405.528Z" transform="translate(-405.528 -313.018)" fill="#616476"/>
      <path id="Trazado_218982" data-name="Trazado 218982" d="M411.283,329.775H438.35l-1.966,30.309H413.25Z" transform="translate(-403.515 -307.158)" fill="#6826cc"/>
      <g id="Grupo_876374" data-name="Grupo 876374" transform="translate(4.443 13.023)">
        <path id="Trazado_218983" data-name="Trazado 218983" d="M414.668,385.251a2.117,2.117,0,0,1-2.11-1.983l-3.735-58.346a2.117,2.117,0,0,1,4.226-.271L416.785,383a2.117,2.117,0,0,1-1.977,2.249C414.762,385.25,414.716,385.251,414.668,385.251Z" transform="translate(-408.82 -322.667)" fill="#e8def8"/>
      </g>
    </g>
    <g id="Grupo_876377" data-name="Grupo 876377" transform="translate(405.231 368.39)">
      <rect id="Rectángulo_296930" data-name="Rectángulo 296930" width="35.044" height="59.266" rx="1.817" transform="translate(0 40.669)" fill="#f8b8d4"/>
      <path id="Rectángulo_296931" data-name="Rectángulo 296931" d="M1.817,0h17.74a1.817,1.817,0,0,1,1.817,1.817V10.4a0,0,0,0,1,0,0H0a0,0,0,0,1,0,0V1.817A1.817,1.817,0,0,1,1.817,0Z" transform="translate(6.834 30.274)" fill="#ea3584"/>
      <path id="Trazado_218984" data-name="Trazado 218984" d="M387.571,305.59h0a.951.951,0,0,0-.949.9l-1.57,29.375h5.036l-1.568-29.375A.951.951,0,0,0,387.571,305.59Z" transform="translate(-370.049 -305.59)" fill="#f8b8d4"/>
      <g id="Grupo_876376" data-name="Grupo 876376" transform="translate(2.275 43.477)">
        <rect id="Rectángulo_296932" data-name="Rectángulo 296932" width="4.235" height="52.525" fill="#fce1ed"/>
      </g>
      <rect id="Rectángulo_296933" data-name="Rectángulo 296933" width="21.2" height="6.903" transform="translate(13.844 60.985)" fill="#ea3584"/>
      <rect id="Rectángulo_296934" data-name="Rectángulo 296934" width="21.2" height="1.827" transform="translate(13.844 74.968)" fill="#ea3584"/>
      <rect id="Rectángulo_296935" data-name="Rectángulo 296935" width="21.2" height="1.827" transform="translate(13.844 79.259)" fill="#ea3584"/>
    </g>
    <path id="Trazado_218985" data-name="Trazado 218985" d="M382.989,402.991H363.945a5.235,5.235,0,0,1-5.219-5.219h0a5.235,5.235,0,0,1,5.219-5.219h19.043a5.234,5.234,0,0,1,5.219,5.219h0A5.234,5.234,0,0,1,382.989,402.991Z" transform="translate(25.976 93.213)" fill="#dee3f9"/>
  </g>
</svg>
