<svg xmlns="http://www.w3.org/2000/svg" xmlns:xlink="http://www.w3.org/1999/xlink" width="317" height="283" viewBox="0 0 317 283">
  <defs>
    <clipPath id="clip-path">
      <rect id="Rectángulo_297199" data-name="Rectángulo 297199" width="317" height="283" transform="translate(11153 -6948)" fill="#fff"/>
    </clipPath>
  </defs>
  <g id="Enmascarar_grupo_700395" data-name="Enmascarar grupo 700395" transform="translate(-11153 6948)" clip-path="url(#clip-path)">
    <g id="Grupo_877440" data-name="Grupo 877440" transform="translate(10465.407 -6965.742)">
      <g id="Grupo_876623" data-name="Grupo 876623" transform="translate(948.673 108.057)">
        <g id="Grupo_876622" data-name="Grupo 876622">
          <g id="Grupo_876598" data-name="Grupo 876598" transform="translate(0.109 10.856)">
            <g id="Grupo_876597" data-name="Grupo 876597">
              <path id="Trazado_219464" data-name="Trazado 219464" d="M1034.565,226.733c.014.019.029.038.045.057a.559.559,0,0,0,.789.028c.3-.277,29.708-28.079,32.438-64.551a.557.557,0,1,0-1.111-.083c-2.7,36.029-31.794,63.545-32.087,63.819A.557.557,0,0,0,1034.565,226.733Z" transform="translate(-1034.461 -161.666)" fill="#c7bd8d"/>
            </g>
          </g>
          <g id="Grupo_876621" data-name="Grupo 876621">
            <g id="Grupo_876600" data-name="Grupo 876600" transform="translate(30.626)">
              <g id="Grupo_876599" data-name="Grupo 876599">
                <path id="Trazado_219465" data-name="Trazado 219465" d="M1077.461,161.725s8.954-11.775,3.387-14.186S1073.835,152.525,1077.461,161.725Z" transform="translate(-1075.471 -147.078)" fill="#c7bd8d"/>
              </g>
            </g>
            <g id="Grupo_876602" data-name="Grupo 876602" transform="translate(31.321 13.639)">
              <g id="Grupo_876601" data-name="Grupo 876601">
                <path id="Trazado_219466" data-name="Trazado 219466" d="M1076.405,173.426s14.744,1.2,13.776-4.79S1082.2,165.413,1076.405,173.426Z" transform="translate(-1076.405 -165.406)" fill="#c7bd8d"/>
              </g>
            </g>
            <g id="Grupo_876604" data-name="Grupo 876604" transform="translate(20.189 7.313)">
              <g id="Grupo_876603" data-name="Grupo 876603">
                <path id="Trazado_219467" data-name="Trazado 219467" d="M1073.1,168.34s-4.41-14.12-9.6-10.98S1063.5,165.966,1073.1,168.34Z" transform="translate(-1061.445 -156.905)" fill="#c7bd8d"/>
              </g>
            </g>
            <g id="Grupo_876606" data-name="Grupo 876606" transform="translate(28.167 25.849)">
              <g id="Grupo_876605" data-name="Grupo 876605">
                <path id="Trazado_219468" data-name="Trazado 219468" d="M1072.167,189.835s14.744,1.2,13.776-4.79S1077.964,181.822,1072.167,189.835Z" transform="translate(-1072.167 -181.815)" fill="#c7bd8d"/>
              </g>
            </g>
            <g id="Grupo_876608" data-name="Grupo 876608" transform="translate(17.035 19.523)">
              <g id="Grupo_876607" data-name="Grupo 876607">
                <path id="Trazado_219469" data-name="Trazado 219469" d="M1068.859,184.749s-4.41-14.12-9.6-10.98S1059.26,182.375,1068.859,184.749Z" transform="translate(-1057.207 -173.314)" fill="#c7bd8d"/>
              </g>
            </g>
            <g id="Grupo_876610" data-name="Grupo 876610" transform="translate(22.533 39.987)">
              <g id="Grupo_876609" data-name="Grupo 876609">
                <path id="Trazado_219470" data-name="Trazado 219470" d="M1064.6,207.368s14.446,3.179,14.3-2.886S1071.421,200.213,1064.6,207.368Z" transform="translate(-1064.596 -200.814)" fill="#c7bd8d"/>
              </g>
            </g>
            <g id="Grupo_876612" data-name="Grupo 876612" transform="translate(12.954 31.284)">
              <g id="Grupo_876611" data-name="Grupo 876611">
                <path id="Trazado_219471" data-name="Trazado 219471" d="M1062.211,201.562s-2.462-14.586-8.03-12.175S1053.019,197.913,1062.211,201.562Z" transform="translate(-1051.722 -189.118)" fill="#c7bd8d"/>
              </g>
            </g>
            <g id="Grupo_876614" data-name="Grupo 876614" transform="translate(14.521 55.321)">
              <g id="Grupo_876613" data-name="Grupo 876613">
                <path id="Trazado_219472" data-name="Trazado 219472" d="M1053.829,224.919s13,7.053,14.537,1.182S1062.368,219.932,1053.829,224.919Z" transform="translate(-1053.829 -221.42)" fill="#c7bd8d"/>
              </g>
            </g>
            <g id="Grupo_876616" data-name="Grupo 876616" transform="translate(8.494 42.416)">
              <g id="Grupo_876615" data-name="Grupo 876615">
                <path id="Trazado_219473" data-name="Trazado 219473" d="M1053.409,218.029s1.67-14.7-4.347-13.921S1045.586,211.979,1053.409,218.029Z" transform="translate(-1045.73 -204.078)" fill="#c7bd8d"/>
              </g>
            </g>
            <g id="Grupo_876618" data-name="Grupo 876618" transform="translate(6.027 66.822)">
              <g id="Grupo_876617" data-name="Grupo 876617">
                <path id="Trazado_219474" data-name="Trazado 219474" d="M1042.414,240.374s13,7.053,14.537,1.183S1050.953,235.387,1042.414,240.374Z" transform="translate(-1042.414 -236.875)" fill="#c7bd8d"/>
              </g>
            </g>
            <g id="Grupo_876620" data-name="Grupo 876620" transform="translate(0 53.917)">
              <g id="Grupo_876619" data-name="Grupo 876619">
                <path id="Trazado_219475" data-name="Trazado 219475" d="M1041.994,233.485s1.67-14.7-4.347-13.922S1034.171,227.434,1041.994,233.485Z" transform="translate(-1034.315 -219.533)" fill="#c7bd8d"/>
              </g>
            </g>
          </g>
        </g>
      </g>
      <g id="Grupo_876636" data-name="Grupo 876636" transform="translate(876.245 135.607)">
        <g id="Grupo_876624" data-name="Grupo 876624" transform="translate(2.378)">
          <path id="Trazado_219476" data-name="Trazado 219476" d="M940.436,284.542s97.945-38.183,67.491-100.424C952.193,182.706,938.012,270.338,940.436,284.542Z" transform="translate(-940.18 -184.101)" fill="#5b2ac7"/>
        </g>
        <path id="Trazado_219477" data-name="Trazado 219477" d="M940.537,275.515c25.627-13.59,71.508-45.047,53.344-89.111C956.517,196.736,942.558,251.33,940.537,275.515Z" transform="translate(-937.893 -184.69)" fill="#4a239f"/>
        <g id="Grupo_876635" data-name="Grupo 876635" transform="translate(0 4.462)">
          <g id="Grupo_876634" data-name="Grupo 876634">
            <g id="Grupo_876625" data-name="Grupo 876625">
              <path id="Trazado_219478" data-name="Trazado 219478" d="M937.562,290.432a.578.578,0,0,1-.482-.9l65.534-99.177a.579.579,0,1,1,.966.639l-65.535,99.176A.578.578,0,0,1,937.562,290.432Z" transform="translate(-936.984 -190.098)" fill="#fff"/>
            </g>
            <g id="Grupo_876626" data-name="Grupo 876626" transform="translate(49.74 1.511)">
              <path id="Trazado_219479" data-name="Trazado 219479" d="M1004.834,215.029a.579.579,0,0,1-.579-.568l-.429-21.743a.579.579,0,0,1,.568-.59.592.592,0,0,1,.59.568l.429,21.743a.579.579,0,0,1-.568.59Z" transform="translate(-1003.826 -192.128)" fill="#fff"/>
            </g>
            <g id="Grupo_876627" data-name="Grupo 876627" transform="translate(30.882 15.785)">
              <path id="Trazado_219480" data-name="Trazado 219480" d="M982.483,243.948a.58.58,0,0,1-.575-.516l-3.421-31.481a.579.579,0,0,1,1.152-.125l3.42,31.48a.58.58,0,0,1-.513.638A.616.616,0,0,1,982.483,243.948Z" transform="translate(-978.484 -211.31)" fill="#fff"/>
            </g>
            <g id="Grupo_876628" data-name="Grupo 876628" transform="translate(16.712 43.628)">
              <path id="Trazado_219481" data-name="Trazado 219481" d="M965.479,271.879a.578.578,0,0,1-.561-.44l-5.459-22a.579.579,0,1,1,1.124-.278l5.459,22a.579.579,0,0,1-.423.7A.593.593,0,0,1,965.479,271.879Z" transform="translate(-959.442 -248.727)" fill="#fff"/>
            </g>
            <g id="Grupo_876629" data-name="Grupo 876629" transform="translate(8.967 66.63)">
              <path id="Trazado_219482" data-name="Trazado 219482" d="M952.295,295.712a.58.58,0,0,1-.569-.476l-2.683-14.917a.579.579,0,0,1,1.139-.205l2.683,14.917a.581.581,0,0,1-.467.673A.617.617,0,0,1,952.295,295.712Z" transform="translate(-949.034 -279.638)" fill="#fff"/>
            </g>
            <g id="Grupo_876630" data-name="Grupo 876630" transform="translate(14.963 76.39)">
              <path id="Trazado_219483" data-name="Trazado 219483" d="M957.671,294.052a.579.579,0,0,1,0-1.158l17.8-.141h.005a.579.579,0,0,1,0,1.158l-17.8.141Z" transform="translate(-957.092 -292.753)" fill="#fff"/>
            </g>
            <g id="Grupo_876631" data-name="Grupo 876631" transform="translate(27.333 56.561)">
              <path id="Trazado_219484" data-name="Trazado 219484" d="M974.292,268.516a.579.579,0,0,1-.025-1.157l28.744-1.252a.579.579,0,1,1,.051,1.156l-28.744,1.252Z" transform="translate(-973.714 -266.106)" fill="#fff"/>
            </g>
            <g id="Grupo_876632" data-name="Grupo 876632" transform="translate(40.201 35.364)">
              <path id="Trazado_219485" data-name="Trazado 219485" d="M991.585,241.753a.579.579,0,0,1-.06-1.155l28.368-2.974a.585.585,0,0,1,.636.516.579.579,0,0,1-.516.635l-28.368,2.974C991.626,241.751,991.606,241.753,991.585,241.753Z" transform="translate(-991.008 -237.621)" fill="#fff"/>
            </g>
            <g id="Grupo_876633" data-name="Grupo 876633" transform="translate(53.373 15.594)">
              <path id="Trazado_219486" data-name="Trazado 219486" d="M1009.287,215.021a.579.579,0,0,1-.086-1.152l18.482-2.81a.579.579,0,0,1,.174,1.145l-18.482,2.81A.59.59,0,0,1,1009.287,215.021Z" transform="translate(-1008.708 -211.054)" fill="#fff"/>
            </g>
          </g>
        </g>
      </g>
      <g id="Grupo_876650" data-name="Grupo 876650" transform="translate(874.616 179.864)">
        <g id="Grupo_876638" data-name="Grupo 876638" transform="translate(3.879)">
          <g id="Grupo_876637" data-name="Grupo 876637">
            <path id="Trazado_219487" data-name="Trazado 219487" d="M940.007,316.072s105.123.464,99.661-68.612C988.349,225.674,942.97,301.971,940.007,316.072Z" transform="translate(-940.007 -243.574)" fill="#c2b1ea"/>
          </g>
        </g>
        <path id="Trazado_219488" data-name="Trazado 219488" d="M950.948,330.893c16.294-1.037,53.206-5.555,74.912-25.177C998.322,294.87,968.1,315.721,950.948,330.893Z" transform="translate(-938.928 -258.705)" fill="#c2b1ea" style="mix-blend-mode: multiply;isolation: isolate"/>
        <g id="Grupo_876649" data-name="Grupo 876649" transform="translate(0 2.109)">
          <g id="Grupo_876648" data-name="Grupo 876648">
            <g id="Grupo_876639" data-name="Grupo 876639" transform="translate(0 4.397)">
              <path id="Trazado_219489" data-name="Trazado 219489" d="M935.375,321.646a.579.579,0,0,1-.333-1.053l97.384-68.171a.579.579,0,0,1,.663.949l-97.384,68.172A.575.575,0,0,1,935.375,321.646Z" transform="translate(-934.795 -252.317)" fill="#fff"/>
            </g>
            <g id="Grupo_876640" data-name="Grupo 876640" transform="translate(74.55)">
              <path id="Trazado_219490" data-name="Trazado 219490" d="M1035.557,267.946a.571.571,0,0,1-.2-.036.579.579,0,0,1-.34-.745l7.588-20.38a.579.579,0,1,1,1.085.4L1036.1,267.57A.579.579,0,0,1,1035.557,267.946Z" transform="translate(-1034.978 -246.408)" fill="#fff"/>
            </g>
            <g id="Grupo_876641" data-name="Grupo 876641" transform="translate(50.974 6.349)">
              <path id="Trazado_219491" data-name="Trazado 219491" d="M1003.875,286.634a.579.579,0,0,1-.559-.732l8.383-30.536a.579.579,0,1,1,1.116.306l-8.383,30.537A.579.579,0,0,1,1003.875,286.634Z" transform="translate(-1003.295 -254.939)" fill="#fff"/>
            </g>
            <g id="Grupo_876642" data-name="Grupo 876642" transform="translate(32.947 27.042)">
              <path id="Trazado_219492" data-name="Trazado 219492" d="M979.65,306.369a.539.539,0,0,1-.077-.006.579.579,0,0,1-.5-.65l3-22.462a.579.579,0,1,1,1.147.153l-3,22.463A.58.58,0,0,1,979.65,306.369Z" transform="translate(-979.07 -282.748)" fill="#fff"/>
            </g>
            <g id="Grupo_876643" data-name="Grupo 876643" transform="translate(17.312 45.591)">
              <path id="Trazado_219493" data-name="Trazado 219493" d="M958.639,323.692a.607.607,0,0,1-.115-.012.579.579,0,0,1-.454-.682l2.985-14.859a.579.579,0,0,1,1.135.228L959.2,323.226A.579.579,0,0,1,958.639,323.692Z" transform="translate(-958.059 -307.675)" fill="#fff"/>
            </g>
            <g id="Grupo_876644" data-name="Grupo 876644" transform="translate(22.236 57.002)">
              <path id="Trazado_219494" data-name="Trazado 219494" d="M981.867,330.575a.565.565,0,0,1-.208-.039l-16.611-6.409a.579.579,0,0,1,.416-1.08l16.611,6.409a.579.579,0,0,1-.208,1.118Z" transform="translate(-964.677 -323.009)" fill="#fff"/>
            </g>
            <g id="Grupo_876645" data-name="Grupo 876645" transform="translate(40.616 44.136)">
              <path id="Trazado_219495" data-name="Trazado 219495" d="M1017.15,316.27a.58.58,0,0,1-.189-.032l-27.195-9.393a.579.579,0,0,1,.378-1.095l27.195,9.394a.579.579,0,0,1-.189,1.126Z" transform="translate(-989.376 -305.719)" fill="#fff"/>
            </g>
            <g id="Grupo_876646" data-name="Grupo 876646" transform="translate(59.739 30.749)">
              <path id="Trazado_219496" data-name="Trazado 219496" d="M1043.13,296.542a.593.593,0,0,1-.156-.022l-27.477-7.654a.578.578,0,1,1,.31-1.115l27.477,7.654a.579.579,0,0,1-.155,1.136Z" transform="translate(-1015.074 -287.73)" fill="#fff"/>
            </g>
            <g id="Grupo_876647" data-name="Grupo 876647" transform="translate(79.314 17.046)">
              <path id="Trazado_219497" data-name="Trazado 219497" d="M1060.18,274.649a.56.56,0,0,1-.13-.015l-18.222-4.175a.579.579,0,0,1,.26-1.128l18.222,4.175a.579.579,0,0,1-.129,1.143Z" transform="translate(-1041.379 -269.315)" fill="#fff"/>
            </g>
          </g>
        </g>
      </g>
      <g id="Grupo_876677" data-name="Grupo 876677" transform="translate(699.593 108.057)">
        <g id="Grupo_876676" data-name="Grupo 876676">
          <g id="Grupo_876652" data-name="Grupo 876652" transform="translate(11.655 10.856)">
            <g id="Grupo_876651" data-name="Grupo 876651">
              <path id="Trazado_219498" data-name="Trazado 219498" d="M748.529,226.733c-.014.019-.03.038-.046.057a.558.558,0,0,1-.788.028c-.3-.277-29.708-28.079-32.439-64.551a.557.557,0,1,1,1.112-.083c2.7,36.029,31.794,63.545,32.087,63.819A.557.557,0,0,1,748.529,226.733Z" transform="translate(-715.255 -161.666)" fill="#c7bd8d"/>
            </g>
          </g>
          <g id="Grupo_876675" data-name="Grupo 876675">
            <g id="Grupo_876654" data-name="Grupo 876654" transform="translate(7.315)">
              <g id="Grupo_876653" data-name="Grupo 876653">
                <path id="Trazado_219499" data-name="Trazado 219499" d="M714.633,161.725s-8.954-11.775-3.387-14.186S718.26,152.525,714.633,161.725Z" transform="translate(-709.423 -147.078)" fill="#c7bd8d"/>
              </g>
            </g>
            <g id="Grupo_876656" data-name="Grupo 876656" transform="translate(0 13.639)">
              <g id="Grupo_876655" data-name="Grupo 876655">
                <path id="Trazado_219500" data-name="Trazado 219500" d="M713.414,173.426s-14.744,1.2-13.776-4.79S707.617,165.413,713.414,173.426Z" transform="translate(-699.593 -165.406)" fill="#c7bd8d"/>
              </g>
            </g>
            <g id="Grupo_876658" data-name="Grupo 876658" transform="translate(13.301 7.313)">
              <g id="Grupo_876657" data-name="Grupo 876657">
                <path id="Trazado_219501" data-name="Trazado 219501" d="M717.467,168.34s4.409-14.12,9.6-10.98S727.066,165.966,717.467,168.34Z" transform="translate(-717.467 -156.905)" fill="#c7bd8d"/>
              </g>
            </g>
            <g id="Grupo_876660" data-name="Grupo 876660" transform="translate(3.154 25.849)">
              <g id="Grupo_876659" data-name="Grupo 876659">
                <path id="Trazado_219502" data-name="Trazado 219502" d="M717.652,189.835s-14.744,1.2-13.776-4.79S711.855,181.822,717.652,189.835Z" transform="translate(-703.831 -181.815)" fill="#c7bd8d"/>
              </g>
            </g>
            <g id="Grupo_876662" data-name="Grupo 876662" transform="translate(16.455 19.523)">
              <g id="Grupo_876661" data-name="Grupo 876661">
                <path id="Trazado_219503" data-name="Trazado 219503" d="M721.705,184.749s4.409-14.12,9.6-10.98S731.3,182.375,721.705,184.749Z" transform="translate(-721.705 -173.314)" fill="#c7bd8d"/>
              </g>
            </g>
            <g id="Grupo_876664" data-name="Grupo 876664" transform="translate(8.311 39.987)">
              <g id="Grupo_876663" data-name="Grupo 876663">
                <path id="Trazado_219504" data-name="Trazado 219504" d="M725.059,207.368s-14.447,3.179-14.3-2.886S718.234,200.213,725.059,207.368Z" transform="translate(-710.761 -200.814)" fill="#c7bd8d"/>
              </g>
            </g>
            <g id="Grupo_876666" data-name="Grupo 876666" transform="translate(21.7 31.284)">
              <g id="Grupo_876665" data-name="Grupo 876665">
                <path id="Trazado_219505" data-name="Trazado 219505" d="M728.754,201.562s2.462-14.586,8.03-12.175S737.945,197.913,728.754,201.562Z" transform="translate(-728.754 -189.118)" fill="#c7bd8d"/>
              </g>
            </g>
            <g id="Grupo_876668" data-name="Grupo 876668" transform="translate(15.884 55.321)">
              <g id="Grupo_876667" data-name="Grupo 876667">
                <path id="Trazado_219506" data-name="Trazado 219506" d="M735.674,224.919s-13,7.053-14.537,1.182S727.135,219.932,735.674,224.919Z" transform="translate(-720.938 -221.42)" fill="#c7bd8d"/>
              </g>
            </g>
            <g id="Grupo_876670" data-name="Grupo 876670" transform="translate(28.756 42.416)">
              <g id="Grupo_876669" data-name="Grupo 876669">
                <path id="Trazado_219507" data-name="Trazado 219507" d="M738.449,218.029s-1.67-14.7,4.347-13.921S746.271,211.979,738.449,218.029Z" transform="translate(-738.236 -204.078)" fill="#c7bd8d"/>
              </g>
            </g>
            <g id="Grupo_876672" data-name="Grupo 876672" transform="translate(24.379 66.822)">
              <g id="Grupo_876671" data-name="Grupo 876671">
                <path id="Trazado_219508" data-name="Trazado 219508" d="M747.09,240.374s-13,7.053-14.537,1.183S738.55,235.387,747.09,240.374Z" transform="translate(-732.353 -236.875)" fill="#c7bd8d"/>
              </g>
            </g>
            <g id="Grupo_876674" data-name="Grupo 876674" transform="translate(37.251 53.917)">
              <g id="Grupo_876673" data-name="Grupo 876673">
                <path id="Trazado_219509" data-name="Trazado 219509" d="M749.864,233.485s-1.67-14.7,4.347-13.922S757.686,227.434,749.864,233.485Z" transform="translate(-749.651 -219.533)" fill="#c7bd8d"/>
              </g>
            </g>
          </g>
        </g>
      </g>
      <g id="Grupo_876691" data-name="Grupo 876691" transform="translate(741.167 135.607)">
        <g id="Grupo_876679" data-name="Grupo 876679">
          <g id="Grupo_876678" data-name="Grupo 876678">
            <path id="Trazado_219510" data-name="Trazado 219510" d="M828.823,284.542s-97.945-38.183-67.491-100.424C817.066,182.706,831.247,270.338,828.823,284.542Z" transform="translate(-755.462 -184.101)" fill="#5b2ac7"/>
          </g>
        </g>
        <path id="Trazado_219511" data-name="Trazado 219511" d="M834.2,278.134c-1.179-22.572-14.709-80.812-53.339-91.666C760.111,232.147,808.371,264.6,834.2,278.134Z" transform="translate(-760.668 -184.707)" fill="#4a239f"/>
        <g id="Grupo_876690" data-name="Grupo 876690" transform="translate(2.982 4.462)">
          <g id="Grupo_876689" data-name="Grupo 876689">
            <g id="Grupo_876680" data-name="Grupo 876680" transform="translate(6.322)">
              <path id="Trazado_219512" data-name="Trazado 219512" d="M834.078,290.432a.579.579,0,0,0,.482-.9l-65.534-99.177a.579.579,0,1,0-.966.639l65.534,99.176A.58.58,0,0,0,834.078,290.432Z" transform="translate(-767.964 -190.098)" fill="#fff"/>
            </g>
            <g id="Grupo_876681" data-name="Grupo 876681" transform="translate(21.687 1.511)">
              <path id="Trazado_219513" data-name="Trazado 219513" d="M789.192,215.029a.579.579,0,0,0,.579-.568l.429-21.743a.579.579,0,0,0-.568-.59.591.591,0,0,0-.59.568l-.429,21.743a.579.579,0,0,0,.568.59Z" transform="translate(-788.613 -192.128)" fill="#fff"/>
            </g>
            <g id="Grupo_876682" data-name="Grupo 876682" transform="translate(37.553 15.785)">
              <path id="Trazado_219514" data-name="Trazado 219514" d="M810.514,243.948a.58.58,0,0,0,.575-.516l3.42-31.481a.579.579,0,1,0-1.151-.125l-3.42,31.48a.579.579,0,0,0,.513.638A.616.616,0,0,0,810.514,243.948Z" transform="translate(-809.935 -211.31)" fill="#fff"/>
            </g>
            <g id="Grupo_876683" data-name="Grupo 876683" transform="translate(49.684 43.628)">
              <path id="Trazado_219515" data-name="Trazado 219515" d="M826.817,271.879a.578.578,0,0,0,.561-.44l5.459-22a.579.579,0,0,0-1.124-.278l-5.459,22a.579.579,0,0,0,.423.7A.6.6,0,0,0,826.817,271.879Z" transform="translate(-826.236 -248.727)" fill="#fff"/>
            </g>
            <g id="Grupo_876684" data-name="Grupo 876684" transform="translate(60.206 66.63)">
              <path id="Trazado_219516" data-name="Trazado 219516" d="M840.956,295.712a.58.58,0,0,0,.569-.476l2.683-14.917a.579.579,0,0,0-1.14-.205l-2.683,14.917a.58.58,0,0,0,.467.673A.616.616,0,0,0,840.956,295.712Z" transform="translate(-840.376 -279.638)" fill="#fff"/>
            </g>
            <g id="Grupo_876685" data-name="Grupo 876685" transform="translate(39.088 76.39)">
              <path id="Trazado_219517" data-name="Trazado 219517" d="M830.38,294.052a.579.579,0,0,0,0-1.158l-17.8-.141h0a.579.579,0,0,0,0,1.158l17.8.141Z" transform="translate(-811.997 -292.753)" fill="#fff"/>
            </g>
            <g id="Grupo_876686" data-name="Grupo 876686" transform="translate(15.779 56.561)">
              <path id="Trazado_219518" data-name="Trazado 219518" d="M810,268.516a.579.579,0,0,0,.024-1.157l-28.744-1.252a.579.579,0,1,0-.051,1.156l28.744,1.252Z" transform="translate(-780.673 -266.106)" fill="#fff"/>
            </g>
            <g id="Grupo_876687" data-name="Grupo 876687" transform="translate(3.287 35.364)">
              <path id="Trazado_219519" data-name="Trazado 219519" d="M792.833,241.753a.579.579,0,0,0,.06-1.155l-28.367-2.974a.585.585,0,0,0-.636.516.579.579,0,0,0,.516.635l28.367,2.974Z" transform="translate(-763.886 -237.621)" fill="#fff"/>
            </g>
            <g id="Grupo_876688" data-name="Grupo 876688" transform="translate(0 15.594)">
              <path id="Trazado_219520" data-name="Trazado 219520" d="M778.531,215.021a.579.579,0,0,0,.086-1.152l-18.482-2.81a.579.579,0,0,0-.174,1.145l18.482,2.81A.59.59,0,0,0,778.531,215.021Z" transform="translate(-759.469 -211.054)" fill="#fff"/>
            </g>
          </g>
        </g>
      </g>
      <g id="Grupo_876705" data-name="Grupo 876705" transform="translate(715.047 179.864)">
        <g id="Grupo_876693" data-name="Grupo 876693">
          <g id="Grupo_876692" data-name="Grupo 876692">
            <path id="Trazado_219521" data-name="Trazado 219521" d="M820.227,316.072s-105.123.464-99.661-68.612C771.884,225.674,817.264,301.971,820.227,316.072Z" transform="translate(-720.361 -243.574)" fill="#c2b1ea"/>
          </g>
        </g>
        <path id="Trazado_219522" data-name="Trazado 219522" d="M745.383,307.286c25.119,20.988,67.96,23.561,78.728,23.874C806.292,315.322,773.988,293,745.383,307.286Z" transform="translate(-726.763 -258.705)" fill="#c2b1ea" style="mix-blend-mode: multiply;isolation: isolate"/>
        <g id="Grupo_876704" data-name="Grupo 876704" transform="translate(5.052 2.109)">
          <g id="Grupo_876703" data-name="Grupo 876703">
            <g id="Grupo_876694" data-name="Grupo 876694" transform="translate(0.151 4.397)">
              <path id="Trazado_219523" data-name="Trazado 219523" d="M825.315,321.646a.579.579,0,0,0,.333-1.053l-97.384-68.171a.579.579,0,0,0-.664.949l97.384,68.172A.574.574,0,0,0,825.315,321.646Z" transform="translate(-727.352 -252.317)" fill="#fff"/>
            </g>
            <g id="Grupo_876695" data-name="Grupo 876695" transform="translate(15.396)">
              <path id="Trazado_219524" data-name="Trazado 219524" d="M756.007,267.946a.564.564,0,0,0,.2-.036.579.579,0,0,0,.341-.745l-7.589-20.38a.579.579,0,1,0-1.085.4l7.589,20.381A.579.579,0,0,0,756.007,267.946Z" transform="translate(-747.839 -246.408)" fill="#fff"/>
            </g>
            <g id="Grupo_876696" data-name="Grupo 876696" transform="translate(38.179 6.349)">
              <path id="Trazado_219525" data-name="Trazado 219525" d="M787.416,286.634a.58.58,0,0,0,.559-.732l-8.383-30.536a.579.579,0,1,0-1.116.306l8.383,30.537A.579.579,0,0,0,787.416,286.634Z" transform="translate(-778.455 -254.939)" fill="#fff"/>
            </g>
            <g id="Grupo_876697" data-name="Grupo 876697" transform="translate(61.586 27.042)">
              <path id="Trazado_219526" data-name="Trazado 219526" d="M813.491,306.369a.545.545,0,0,0,.077-.006.579.579,0,0,0,.5-.65l-3-22.462a.579.579,0,0,0-1.148.153l3,22.463A.579.579,0,0,0,813.491,306.369Z" transform="translate(-809.91 -282.748)" fill="#fff"/>
            </g>
            <g id="Grupo_876698" data-name="Grupo 876698" transform="translate(77.239 45.591)">
              <path id="Trazado_219527" data-name="Trazado 219527" d="M834.508,323.692a.608.608,0,0,0,.115-.012.578.578,0,0,0,.453-.682l-2.984-14.859a.579.579,0,0,0-1.135.228l2.985,14.859A.578.578,0,0,0,834.508,323.692Z" transform="translate(-830.946 -307.675)" fill="#fff"/>
            </g>
            <g id="Grupo_876699" data-name="Grupo 876699" transform="translate(58.688 57.002)">
              <path id="Trazado_219528" data-name="Trazado 219528" d="M806.6,330.575a.57.57,0,0,0,.208-.039l16.611-6.409a.579.579,0,1,0-.416-1.08l-16.611,6.409a.579.579,0,0,0,.208,1.118Z" transform="translate(-806.017 -323.009)" fill="#fff"/>
            </g>
            <g id="Grupo_876700" data-name="Grupo 876700" transform="translate(29.724 44.136)">
              <path id="Trazado_219529" data-name="Trazado 219529" d="M767.672,316.27a.584.584,0,0,0,.19-.032l27.195-9.393a.579.579,0,0,0-.379-1.095l-27.195,9.394a.579.579,0,0,0,.189,1.126Z" transform="translate(-767.093 -305.719)" fill="#fff"/>
            </g>
            <g id="Grupo_876701" data-name="Grupo 876701" transform="translate(10.319 30.749)">
              <path id="Trazado_219530" data-name="Trazado 219530" d="M741.6,296.542a.589.589,0,0,0,.155-.022l27.477-7.654a.579.579,0,1,0-.31-1.115l-27.477,7.654a.579.579,0,0,0,.156,1.136Z" transform="translate(-741.016 -287.73)" fill="#fff"/>
            </g>
            <g id="Grupo_876702" data-name="Grupo 876702" transform="translate(0 17.046)">
              <path id="Trazado_219531" data-name="Trazado 219531" d="M727.727,274.649a.561.561,0,0,0,.13-.015l18.222-4.175a.579.579,0,0,0-.259-1.128L727.6,273.506a.579.579,0,0,0,.129,1.143Z" transform="translate(-727.149 -269.315)" fill="#fff"/>
            </g>
          </g>
        </g>
      </g>
      <g id="Grupo_876719" data-name="Grupo 876719" transform="translate(718.166 -5.432)">
        <g id="Grupo_876717" data-name="Grupo 876717">
          <g id="Grupo_876716" data-name="Grupo 876716">
            <g id="Grupo_876715" data-name="Grupo 876715">
              <circle id="Elipse_7391" data-name="Elipse 7391" cx="90.89" cy="90.89" r="90.89" transform="translate(0 128.538) rotate(-45)" fill="#dedfea"/>
              <g id="Grupo_876714" data-name="Grupo 876714" transform="translate(39.924 38.623)">
                <g id="Grupo_876713" data-name="Grupo 876713">
                  <g id="Grupo_876706" data-name="Grupo 876706" transform="translate(0 2.108)">
                    <path id="Trazado_219532" data-name="Trazado 219532" d="M778.2,116.821c2.533,1.23,2.544,4.941,2.82,7.85.38,4.012,2.142,7.745,3.878,11.382q3.475,7.286,6.95,14.572c.2.42.449.883.9,1.011.65.185,1.271-.519,1.289-1.2a3.89,3.89,0,0,0-.676-1.886,16.857,16.857,0,0,1-1.673-11.434c.252-1.2.884-2.576,2.1-2.692,1.873-.176,2.363,2.445,2.967,4.227.923,2.72,3.52,4.458,5.266,6.737,1.462,1.908,2.325,4.2,3.633,6.22s3.3,3.851,5.7,3.959c1.353.06,2.9-.382,3.934.5a4.694,4.694,0,0,1,1.081,2.013,10.285,10.285,0,0,0,7.689,6.327,5.046,5.046,0,0,0-2.407-6.133,26.32,26.32,0,0,0,1.367-6.812,12.751,12.751,0,0,1-5.152-.381,25.675,25.675,0,0,1,2.107-7.124,3.563,3.563,0,0,1-3.715-3.041c-1.677.257-3.477.5-5-.257s-2.424-2.937-1.294-4.2a3.481,3.481,0,0,1,1.264-.816,10.8,10.8,0,0,1,13.263,4.646,11.616,11.616,0,0,0-2.564-9.724,24.431,24.431,0,0,1,10.68-13.254,10.583,10.583,0,0,0,2.616-1.836,12.466,12.466,0,0,0,1.488-2.445c2.741-4.979,8.1-7.834,13.161-10.415-1.524-1.464-4.064-.63-5.831.528s-3.677,2.641-5.748,2.22c-.595-1.379.419-3,1.749-3.7a13.513,13.513,0,0,1,4.374-.967,18.459,18.459,0,0,0,8.8-3.838,2.634,2.634,0,0,0,.98-1.216,2.868,2.868,0,0,0-.658-2.238c-2.119-3.306-4.408-6.769-7.936-8.492a10.839,10.839,0,0,0-6-1.017c.273,3.075.53,6.279-.6,9.154s-4.087,5.283-7.119,4.7a25.949,25.949,0,0,0,.936-7.285A8.76,8.76,0,0,0,829.771,84a3.468,3.468,0,0,1-1.148-1.112,3.208,3.208,0,0,1,.118-2.133,9.824,9.824,0,0,0-.833-6.929,12.569,12.569,0,0,1,7.237,2.368c1.1.793,2.139,1.8,3.477,2,2.107.316,3.956-1.528,4.819-3.477s1.151-4.143,2.249-5.969,3.512-3.186,5.358-2.121a17.7,17.7,0,0,1-2.857,5.114,9.808,9.808,0,0,0-2.119,5.4c.015,1.964,1.459,4.037,3.422,4.07,2.4.04,4.207-2.786,6.6-2.569a20.306,20.306,0,0,1-.293-9.291,19.364,19.364,0,0,0,.716-4.439,4.033,4.033,0,0,0-2.15-3.683c-2.154-.889-4.463,1.059-6.793,1.008-6.834-.151-3.266-8.768-4.292-12.932A91.03,91.03,0,0,0,778.2,116.821Z" transform="translate(-778.203 -49.304)" fill="#81849b"/>
                  </g>
                  <g id="Grupo_876707" data-name="Grupo 876707" transform="translate(75.265)">
                    <path id="Trazado_219533" data-name="Trazado 219533" d="M888.722,66.177a11.56,11.56,0,0,1,2.3,7.546,4.338,4.338,0,0,1-.723,2.414c-.894,1.175-2.781,1.681-2.962,3.146-.193,1.568,1.826,2.674,1.842,4.254.011,1.091-.923,1.917-1.515,2.834-2.329,3.608.611,8.908-1.7,12.525a12.931,12.931,0,0,1-1.633,1.871,20.886,20.886,0,0,0-4.976,8.753c2.108.444,4.415.863,6.326-.131,2.5-1.3,3.309-4.437,5.132-6.581,1.915-2.253,4.959-3.4,6.618-5.847a7.343,7.343,0,0,1,1.345-1.793,7.485,7.485,0,0,1,2.1-.891c4.108-1.531,5.591-6.43,6.927-10.6a72.96,72.96,0,0,1,5.053-11.981c1.354-2.549,2.9-5.147,3.009-8.031.175-4.568-3.224-8.4-6.4-11.679a7.25,7.25,0,0,0-2.859-2.108c-2.364-.738-4.925-.117-7.4-.912-1.917-.615-3.774-1.322-5.746-1.763-2.808-.628-6.66-1.354-9.305.222-3.254,1.938-2.415,5.122-1.262,7.979.836,2.068.7,4.272,1.907,6.223C885.844,63.323,887.518,64.584,888.722,66.177Z" transform="translate(-879.347 -46.471)" fill="#81849b"/>
                  </g>
                  <g id="Grupo_876708" data-name="Grupo 876708" transform="translate(105.133 24.132)">
                    <path id="Trazado_219534" data-name="Trazado 219534" d="M921.837,91.073a22.824,22.824,0,0,1-2.353,4.515c.563.2,1.141-.214,1.6-.6l7.245-6.129a13.9,13.9,0,0,0,3.626-3.984c1.5-2.9-.953-8.555-3.587-4.64-1.022,1.519-1.128,3.586-2.171,5.132C924.725,87.546,922.837,88.483,921.837,91.073Z" transform="translate(-919.484 -78.901)" fill="#81849b"/>
                  </g>
                  <g id="Grupo_876709" data-name="Grupo 876709" transform="translate(20.328 116.428)">
                    <path id="Trazado_219535" data-name="Trazado 219535" d="M870.217,218.449c-.809-2.142-3.6-2.561-5.892-2.639l-13.711-.464a2.007,2.007,0,0,1-1.4-.41c-.488-.495-.331-1.306-.465-1.988-.35-1.786-2.6-2.411-4.421-2.317s-3.821.493-5.318-.54c-2.189-1.511-2.142-5.365-4.649-6.255-2.7-.955-4.858,2.5-7.613,3.272-1.967.548-4.015-.352-5.857-1.231l-1.616-.771a19.2,19.2,0,0,0-6.255-2.137,6.509,6.509,0,0,0-5.93,2.264,9.644,9.644,0,0,0-1.348,4.795c-.31,3.131-.558,6.536,1.149,9.179a10.441,10.441,0,0,0,4.093,3.418c1.281.663,2.735,1.278,3.388,2.564.693,1.361.248,2.988.106,4.508s.315,3.413,1.793,3.8a13.011,13.011,0,0,1,1.581.251c.668.266,1.04.958,1.445,1.552a7.971,7.971,0,0,0,8.33,3.139c1.256-.321,2.5-.963,3.78-.74a4.553,4.553,0,0,1,1.912.934c3.155,2.379,4.705,6.3,5.784,10.1s1.881,7.787,4.078,11.072A13.512,13.512,0,0,0,846.4,263.1q2.29.723,4.631,1.331c-.576-2.134-2.923-3.851-3.7-6.173a5.54,5.54,0,0,1-.368-3.011,5.357,5.357,0,0,1,1.812-2.559c2.132-1.921,4.852-3.963,4.709-6.83a3.146,3.146,0,0,1,.111-1.713c.368-.655,1.248-.772,1.874-1.185,2.353-1.555.231-6.184,2.646-7.642a5.132,5.132,0,0,1,2.433-.438,11.568,11.568,0,0,0,5.939-2.017c1.108-.764,2.16-1.927,2.024-3.266a15.886,15.886,0,0,0-.582-1.929C867.19,224.492,871.368,221.5,870.217,218.449Z" transform="translate(-805.521 -202.93)" fill="#81849b"/>
                  </g>
                  <g id="Grupo_876710" data-name="Grupo 876710" transform="translate(104.317 76.33)">
                    <path id="Trazado_219536" data-name="Trazado 219536" d="M957.85,158.662c-.163.574,0,1.28-.416,1.709-.7.721-1.858-.286-2.126-1.252s-.455-2.212-1.422-2.476c-.622-.17-1.323.191-1.914-.066-.924-.4-.764-1.856-1.515-2.529-.573-.513-1.445-.393-2.215-.4-2.613-.029-4.8-1.844-7.045-3.183s-5.341-2.172-7.3-.444c-.316.279-.582.611-.889.9a10.7,10.7,0,0,1-2.141,1.4,57.09,57.09,0,0,0-7.669,5.555,11.124,11.124,0,0,0-3.1,3.326,3.8,3.8,0,0,0,.323,4.28c.534.554,1.3.888,1.7,1.544a3.221,3.221,0,0,1,.348,1.715,13.477,13.477,0,0,1-2.805,8.113,5.21,5.21,0,0,0-1.24,2.11,2.868,2.868,0,0,0,1.444,2.792,6.765,6.765,0,0,0,3.2.815,22.944,22.944,0,0,0,10.286-1.773c2.067-.876,4.35-2.078,6.422-1.216,1.215.505,2.113,1.662,3.389,1.986.945.24,2.136.062,2.72.843a2.469,2.469,0,0,1,.349,1.37l.578,10.611a44.921,44.921,0,0,1-.065,8.364,35.813,35.813,0,0,1-2.366,8.317c-3.193,8.126-7.8,16-14.863,21.135,4.936.719,10.665.944,14.145-2.629.706-.725,1.281-1.578,2.055-2.231a11.776,11.776,0,0,1,2.7-1.536,74.317,74.317,0,0,0,10.728-6.141,9.4,9.4,0,0,0,1.958-1.65c.5-.6.855-1.317,1.3-1.965,1.7-2.457,4.563-3.762,7.134-5.28s5.161-3.677,5.522-6.641c.216-1.769-.411-3.593.005-5.327.72-3,4.3-4.777,4.683-7.838a32.372,32.372,0,0,0-.156-3.323c.048-2.346,1.595-4.553,1.261-6.877-.321-2.237-2.348-4.158-1.983-6.388.41-2.511,3.442-3.515,5.117-5.43,2.026-2.314,1.891-5.749,1.643-8.814-2.069.842-2.942,3.385-4.873,4.508-2.913,1.7-7.063-.421-9.817,1.523a1.711,1.711,0,0,1-.969.463c-.691-.023-.914-.91-1.105-1.575-.426-1.479-1.549-2.43-2.448-3.605-1.043-1.365-1.384-2.855-2.26-4.246C962.751,154.982,958.624,155.927,957.85,158.662Z" transform="translate(-918.387 -149.045)" fill="#81849b"/>
                  </g>
                  <g id="Grupo_876712" data-name="Grupo 876712" transform="translate(94.632 17.342)">
                    <g id="Grupo_876711" data-name="Grupo 876711">
                      <path id="Trazado_219537" data-name="Trazado 219537" d="M954.076,69.775a6.442,6.442,0,0,0-1.3.673c-1.5.992-1.421,2.848-2.6,3.582-1.145.714-3.593-.251-4.922-.081a8.548,8.548,0,0,0-5,2.467,16.91,16.91,0,0,0-2.741,4.267l-1,1.976c-1.319,2.594-2.674,5.371-2.384,8.267,2.715.692,5.562-.115,8.246-.917a3.035,3.035,0,0,0,1.416-.715c.678-.73.481-1.877.651-2.859s1.387-1.967,2.055-1.227a51.689,51.689,0,0,0,1.285,9.01c-2.365-.256-5.488-.034-6.124,2.258-.269.97.013,2.145-.652,2.9-.751.853-2.126.554-3.219.865-3.011.856-2.995,5.851-5.942,6.9a.983.983,0,0,1-.8.008,1.092,1.092,0,0,1-.333-.348c-3.271-4.7-1.711-11.088-.028-16.562a1.815,1.815,0,0,0-2.541-.042,10.13,10.13,0,0,0-1.677,2.293,7.285,7.285,0,0,1-4.407,2.954,12.786,12.786,0,0,1,3.756,5.559,2.34,2.34,0,0,1,.156,1.31c-.452,1.783-3.488.83-4.789,2.131a7.3,7.3,0,0,1-3.914,3.315,2.474,2.474,0,0,1,1.991,2.382,12.422,12.422,0,0,0-.118,1.543c.2,1.672,2.406,2.092,4.09,2.078.4.8-.663,1.57-1.552,1.688-3.155.419-6.556-1.8-9.386-.347a8.062,8.062,0,0,0-2.129,1.828l-3.026,3.288c-.907.985-1.877,2.145-1.748,3.479a4.842,4.842,0,0,0,1.674,2.719l8.4,8.518a2.426,2.426,0,0,0,1.627.941c1.38-.025,1.581-1.947,1.87-3.3.959-4.475,6.953-5.966,8.959-10.079.494-1.012.955-2.343,2.075-2.453,1.4-.136,2.09,1.793,3.411,2.279,1.19.437,2.7-.377,3.71.392.57.435.777,1.268,1.417,1.592a3.368,3.368,0,0,0,1.6.113c3.614-.057,5.252,4.742,8.561,6.195a7.788,7.788,0,0,0,6.26-.5c1.962-.9,3.717-2.2,5.681-3.1a2.355,2.355,0,0,1,1.789-.252c1.015.4,1.159,1.895,2.114,2.421.7.387,1.58.113,2.367.263a2.312,2.312,0,0,1,1.216,3.623c-1.792,1.985-6.039-.068-7.328,2.274.566,1.266,2.438.58,3.824.587,3.782.017,5.489,6.43,9.214,5.774a5.688,5.688,0,0,0,2.842-1.883l3.364-3.393c-2.836-1.782-2.763-5.866-2.354-9.19a10.85,10.85,0,0,1,8.155,3.974,19.61,19.61,0,0,1,3.944,8.4c.136-.377.263-.756.388-1.136A90.752,90.752,0,0,0,954.076,69.775Zm24.513,48.08c-3.214,1.315-6.625-.514-9.857-.757-2.267-.17-4.736.325-6.684-.847-1.515-.912-2.409-2.69-4.024-3.412a7.334,7.334,0,0,0-2.787-.452l-5.886-.185c.563-2.11,2.8-3.364,4.952-3.724s4.368-.068,6.538-.312a13.34,13.34,0,0,0,5.64-1.989c2.183-1.387,4.553-3.521,6.967-2.593,1.984.762,2.52,3,3.3,4.736,1.09,2.42,2.512,2.592,3.995,4.349C982.5,114.752,980.716,116.983,978.588,117.855Z" transform="translate(-905.372 -69.775)" fill="#81849b"/>
                    </g>
                  </g>
                </g>
              </g>
            </g>
            <path id="Trazado_219538" data-name="Trazado 219538" d="M866.034,45.16a71.592,71.592,0,1,1-71.592,71.592A71.591,71.591,0,0,1,866.034,45.16a90.89,90.89,0,1,0,90.89,90.89A90.891,90.891,0,0,0,866.034,45.16Z" transform="translate(-737.496 -7.512)" fill="#dedfea" style="mix-blend-mode: multiply;isolation: isolate"/>
            <path id="Trazado_219539" data-name="Trazado 219539" d="M966.231,232.061l7.784-42.924s-5,.171-7.029,6.208c-2.863,1.107-2.991,5.05-4.74,8.613s-13.284,18.582-22.679,19.77c4.853-12.385,2.55-19.975,2.55-19.975s-7.945,13.907-19.572,19.581-26.924,20.052-25.3,40.444A90.684,90.684,0,0,0,966.231,232.061Z" transform="translate(-768.706 -44.35)" fill="#dedfea" style="mix-blend-mode: multiply;isolation: isolate"/>
            <path id="Trazado_219540" data-name="Trazado 219540" d="M801.658,232.061l-7.785-42.924s5,.171,7.029,6.208c2.863,1.107,2.991,5.05,4.741,8.613s13.284,18.582,22.678,19.77c-4.852-12.385-2.55-19.975-2.55-19.975s7.945,13.907,19.572,19.581,26.924,20.052,25.3,40.444A90.681,90.681,0,0,1,801.658,232.061Z" transform="translate(-742.288 -44.35)" fill="#dedfea" style="mix-blend-mode: multiply;isolation: isolate"/>
          </g>
        </g>
        <g id="Grupo_876718" data-name="Grupo 876718" transform="translate(128.531 190.25)">
          <path id="Trazado_219541" data-name="Trazado 219541" d="M897.29,250.231l-.014.01.014-.01Z" transform="translate(-897.276 -250.231)" fill="#edb48e"/>
        </g>
      </g>
      <g id="Grupo_876724" data-name="Grupo 876724" transform="translate(846.89 139.352)">
        <g id="Grupo_876721" data-name="Grupo 876721" transform="translate(2.16)">
          <path id="Trazado_219542" data-name="Trazado 219542" d="M984.02,240.746a56.4,56.4,0,0,0,9.3-14.86c3.336-8.289,4.044-21.632,4.044-26.08s.05-5.307-.4-6.015-2.325-.909-3.791,1.264-16.982,35.987-20.622,39.323S984.02,240.746,984.02,240.746Z" transform="translate(-918.743 -190.201)" fill="#f7cba6"/>
          <path id="Trazado_219543" data-name="Trazado 219543" d="M1005,194.111a4.158,4.158,0,0,1-1.86.178c.142,2-.1,4.209.185,4.89s2.015.453,2.015.453S1005.552,195.514,1005,194.111Z" transform="translate(-926.715 -190.407)" fill="#f9d6bb"/>
          <path id="Trazado_219544" data-name="Trazado 219544" d="M903.457,331.191s-5.619-53.033-1.525-73.956,21.375-28.152,30.245-38.387,9.884-15.862,13.725-15.457,4.448,6.874,2.325,11.321-7.481,15.669-9.806,18.3c9.3-4.548,20.419-15.264,24.159-22.036s4.777-13.824,8.264-15.8c.455-2.729,1.542-6.141,4.018-6.039,1.718.152,1.718.758,1.718.758a61.487,61.487,0,0,1-.353,15.921c-1.138,6.579-2.51,15.16-4.329,18.495,4.044-6.166,7.261-11.824,10.193-12.127s3.134,1.921,1.314,5.458-9.3,16.478-16.275,24.968a80.407,80.407,0,0,1-39.274,26.272c-1.819,11.6,10.181,62.308,10.181,62.308Z" transform="translate(-900.438 -189.134)" fill="#efbf9c"/>
          <path id="Trazado_219545" data-name="Trazado 219545" d="M916.227,331.19s-10.217-53.249-6.123-74.172,15.736-26.174,24.605-36.409,9.577-17.626,13.418-17.221,4.448,6.874,2.325,11.321c-2.015,4.221-7.129,14.41-9.428,17.83a49.531,49.531,0,0,1-6.9,7.809c12.891-.973,28.274-20.819,32.014-27.591s5.612-16.206,9.1-18.177c.455-2.73-.622-5.546,1.854-5.445,1.718.152,1.718.758,1.718.758a61.487,61.487,0,0,1-.353,15.921c-.507,2.931,1.46,6.572.651,11.45a65.247,65.247,0,0,1-5.432,15.753c4.043-6.166,8.337-19.549,11.268-19.863,2.381-.255,2.51.949.691,4.486s-9.3,16.478-16.275,24.968a80.406,80.406,0,0,1-39.274,26.272c-1.819,11.6,10.181,62.308,10.181,62.308Z" transform="translate(-902.664 -189.133)" fill="#f7cba6"/>
          <path id="Trazado_219546" data-name="Trazado 219546" d="M934.917,296.3s-6.881.429-6.881,11.8C928.036,308.1,931.593,298.723,934.917,296.3Z" transform="translate(-907.499 -216.553)" fill="#efbf9c"/>
          <path id="Trazado_219547" data-name="Trazado 219547" d="M1012.3,222.226s-1.418-.661-2.211-.122-2.58,4.481-2.552,4.848,1.631.631,1.964,1.477A19.725,19.725,0,0,0,1012.3,222.226Z" transform="translate(-927.84 -197.515)" fill="#f9d6bb"/>
          <path id="Trazado_219548" data-name="Trazado 219548" d="M1002.147,189.976a3.144,3.144,0,0,1-1.28.653c-.574.064-.2,2.4-.149,3.4s.2,1.754.63,1.8a12.7,12.7,0,0,0,1.311,0Z" transform="translate(-926.053 -189.349)" fill="#f9d6bb"/>
          <path id="Trazado_219549" data-name="Trazado 219549" d="M951.124,215.892s-.646.834,0,1.415.848.364,3.308,2.03c1.859,1.259,4.019-3.391,5.033-5.849s1.244-3.02,0-4.083a3.809,3.809,0,0,0-3.605-.694c-.634.3-4.736,7.18-4.736,7.18" transform="translate(-913.333 -194.094)" fill="#f9d6bb"/>
          <g id="Grupo_876720" data-name="Grupo 876720" transform="translate(28.558 0.761)">
            <path id="Trazado_219550" data-name="Trazado 219550" d="M1000.274,197.743s-1.165-.367-1.732,0-1.588,4-1.673,4.761,1.109.284,2.085,1.048C999.563,201.285,1000.274,197.743,1000.274,197.743Z" transform="translate(-953.668 -192.055)" fill="#f9d6bb"/>
            <path id="Trazado_219551" data-name="Trazado 219551" d="M990.752,196.979a5.872,5.872,0,0,1,1.938-.726,4.11,4.11,0,0,1,2.093.147l.006,0,.019.011a1.591,1.591,0,0,1,.743,1.222,4.376,4.376,0,0,1-.124,1.395l-.625,2.628c-.423,1.748-.829,3.5-1.305,5.237-.95,3.47-1.89,6.949-3.175,10.335a33.84,33.84,0,0,1-2.455,4.861c-.922,1.555-1.927,3.055-2.977,4.519-2.084,2.94-4.332,5.753-6.645,8.506,2.091-2.926,4.211-5.827,6.194-8.815a52.042,52.042,0,0,0,5.2-9.331c1.219-3.354,2.262-6.793,3.23-10.248l1.453-5.187.714-2.594a4.561,4.561,0,0,0,.175-1.273,1.275,1.275,0,0,0-.547-1.03l.025.013a3.9,3.9,0,0,0-1.972-.248A6.2,6.2,0,0,0,990.752,196.979Z" transform="translate(-948.903 -191.698)" fill="#e5ac85"/>
            <path id="Trazado_219552" data-name="Trazado 219552" d="M997.5,190.156a59.275,59.275,0,0,1,.4,13.419,68.162,68.162,0,0,1-2.389,13.249,59,59,0,0,1-5.231,12.406,51.738,51.738,0,0,1-8.093,10.71,62.476,62.476,0,0,0,4.091-5.3,53.96,53.96,0,0,0,3.492-5.69c1.054-1.96,1.991-3.979,2.843-6.032a66.456,66.456,0,0,0,2.17-6.3,72.574,72.574,0,0,0,2.537-13.089c.235-2.215.362-4.443.391-6.673A59.489,59.489,0,0,0,997.5,190.156Z" transform="translate(-949.911 -190.156)" fill="#e5ac85"/>
            <path id="Trazado_219553" data-name="Trazado 219553" d="M1001.4,195.421a78.615,78.615,0,0,1-.024,12.62,84.048,84.048,0,0,1-1.924,12.5q-.763,3.075-1.784,6.08a55.111,55.111,0,0,1-2.416,5.858,49.746,49.746,0,0,1-3.181,5.477,38.472,38.472,0,0,1-4.045,4.85,44.136,44.136,0,0,0,3.735-5.055,50.026,50.026,0,0,0,2.964-5.522c.838-1.914,1.624-3.849,2.291-5.831s1.215-4,1.7-6.033a92.443,92.443,0,0,0,2.082-12.375q.337-3.124.477-6.27Q1001.441,198.575,1001.4,195.421Z" transform="translate(-951.405 -191.503)" fill="#e5ac85"/>
            <path id="Trazado_219554" data-name="Trazado 219554" d="M956.708,227.258c-.427,1.209-.932,2.387-1.43,3.569q-.782,1.756-1.633,3.483a70.262,70.262,0,0,1-3.778,6.711,41.286,41.286,0,0,1-4.7,6.124,22.022,22.022,0,0,1-2.888,2.581,10.225,10.225,0,0,1-3.465,1.678,11.071,11.071,0,0,0,3.237-1.972,21.883,21.883,0,0,0,2.684-2.68,54.292,54.292,0,0,0,4.493-6.142c1.384-2.135,2.652-4.347,3.9-6.572.624-1.112,1.225-2.239,1.813-3.373C955.554,229.543,956.125,228.4,956.708,227.258Z" transform="translate(-938.815 -199.649)" fill="#e5ac85"/>
          </g>
        </g>
        <g id="Grupo_876723" data-name="Grupo 876723" transform="translate(0 92.139)">
          <g id="Grupo_876722" data-name="Grupo 876722">
            <path id="Trazado_219555" data-name="Trazado 219555" d="M900.19,332.229l-.723-16.379,32.656-2.9,4.093,18.705Z" transform="translate(-898.03 -312.953)" fill="#e7f7f7"/>
            <path id="Trazado_219556" data-name="Trazado 219556" d="M910.99,331.014,909.1,315.7l-9.638.855.723,16.379,36.025-.57-.381-1.74Z" transform="translate(-898.03 -313.655)" fill="#d5efee"/>
            <path id="Trazado_219557" data-name="Trazado 219557" d="M897.535,333.847l39.759-3.828,7.744,38.1h-47.5Z" transform="translate(-897.535 -317.32)" fill="#ca3881"/>
            <path id="Trazado_219558" data-name="Trazado 219558" d="M897.535,334.718v34.27h16.149l-2.692-35.566Z" transform="translate(-897.535 -318.191)" fill="#e7b7d2" style="mix-blend-mode: multiply;isolation: isolate"/>
          </g>
          <circle id="Elipse_7392" data-name="Elipse 7392" cx="2.847" cy="2.847" r="2.847" transform="translate(5.786 6.063)" fill="#a12e67"/>
        </g>
      </g>
      <g id="Grupo_876729" data-name="Grupo 876729" transform="translate(759.899 139.352)">
        <g id="Grupo_876726" data-name="Grupo 876726">
          <path id="Trazado_219559" data-name="Trazado 219559" d="M801.823,240.746a56.413,56.413,0,0,1-9.3-14.86c-3.336-8.289-4.044-21.632-4.044-26.08s-.051-5.307.4-6.015,2.325-.909,3.791,1.264,16.982,35.987,20.622,39.323S801.823,240.746,801.823,240.746Z" transform="translate(-782.641 -190.201)" fill="#f7cba6"/>
          <path id="Trazado_219560" data-name="Trazado 219560" d="M788.8,194.111a4.156,4.156,0,0,0,1.859.178c-.141,2,.1,4.209-.184,4.89s-2.015.453-2.015.453S788.249,195.514,788.8,194.111Z" transform="translate(-782.627 -190.407)" fill="#f9d6bb"/>
          <path id="Trazado_219561" data-name="Trazado 219561" d="M862.185,331.191s5.619-53.033,1.525-73.956-21.375-28.152-30.245-38.387-9.884-15.862-13.725-15.457-4.448,6.874-2.325,11.321,7.48,15.669,9.806,18.3c-9.3-4.548-20.419-15.264-24.159-22.036s-4.777-13.824-8.264-15.8c-.455-2.729-1.541-6.141-4.018-6.039-1.719.152-1.719.758-1.719.758a61.509,61.509,0,0,0,.354,15.921c1.138,6.579,2.509,15.16,4.329,18.495-4.044-6.166-7.261-11.824-10.192-12.127s-3.134,1.921-1.314,5.458,9.3,16.478,16.275,24.968a80.407,80.407,0,0,0,39.274,26.272c1.819,11.6-10.181,62.308-10.181,62.308Z" transform="translate(-780.745 -189.134)" fill="#efbf9c"/>
          <path id="Trazado_219562" data-name="Trazado 219562" d="M851.614,331.19s10.218-53.249,6.123-74.172S842,230.845,833.132,220.61s-9.576-17.626-13.418-17.221-4.448,6.874-2.325,11.321c2.014,4.221,7.129,14.41,9.428,17.83a49.534,49.534,0,0,0,6.9,7.809c-12.891-.973-28.274-20.819-32.015-27.591s-5.612-16.206-9.1-18.177c-.455-2.73.623-5.546-1.854-5.445-1.719.152-1.719.758-1.719.758a61.509,61.509,0,0,0,.354,15.921c.507,2.931-1.461,6.572-.652,11.45a65.239,65.239,0,0,0,5.433,15.753c-4.044-6.166-8.337-19.549-11.268-19.863-2.381-.255-2.51.949-.691,4.486s9.3,16.478,16.275,24.968a80.406,80.406,0,0,0,39.274,26.272c1.819,11.6-10.181,62.308-10.181,62.308Z" transform="translate(-780.719 -189.133)" fill="#f7cba6"/>
          <path id="Trazado_219563" data-name="Trazado 219563" d="M857.288,296.3s6.88.429,6.88,11.8C864.168,308.1,860.612,298.723,857.288,296.3Z" transform="translate(-800.247 -216.553)" fill="#efbf9c"/>
          <path id="Trazado_219564" data-name="Trazado 219564" d="M780.634,222.226s1.417-.661,2.211-.122,2.58,4.481,2.551,4.848-1.631.631-1.963,1.477A19.707,19.707,0,0,1,780.634,222.226Z" transform="translate(-780.634 -197.515)" fill="#f9d6bb"/>
          <path id="Trazado_219565" data-name="Trazado 219565" d="M791.7,189.976a3.143,3.143,0,0,0,1.28.653c.574.064.2,2.4.149,3.4s-.2,1.754-.63,1.8a12.7,12.7,0,0,1-1.311,0Z" transform="translate(-783.334 -189.349)" fill="#f9d6bb"/>
          <path id="Trazado_219566" data-name="Trazado 219566" d="M840.188,215.892s.646.834,0,1.415-.848.364-3.309,2.03c-1.859,1.259-4.019-3.391-5.032-5.849s-1.244-3.02,0-4.083a3.808,3.808,0,0,1,3.6-.694c.635.3,4.737,7.18,4.737,7.18" transform="translate(-793.52 -194.094)" fill="#f9d6bb"/>
          <g id="Grupo_876725" data-name="Grupo 876725" transform="translate(5.667 0.761)">
            <path id="Trazado_219567" data-name="Trazado 219567" d="M793.125,197.743s1.165-.367,1.732,0,1.587,4,1.673,4.761-1.109.284-2.085,1.048C793.836,201.285,793.125,197.743,793.125,197.743Z" transform="translate(-789.497 -192.055)" fill="#f9d6bb"/>
            <path id="Trazado_219568" data-name="Trazado 219568" d="M797.862,196.979a5.867,5.867,0,0,0-1.937-.726,4.11,4.11,0,0,0-2.093.147l-.007,0-.018.011a1.589,1.589,0,0,0-.743,1.222,4.372,4.372,0,0,0,.124,1.395l.625,2.628c.423,1.748.829,3.5,1.305,5.237.95,3.47,1.89,6.949,3.175,10.335a33.77,33.77,0,0,0,2.455,4.861c.922,1.555,1.926,3.055,2.977,4.519,2.084,2.94,4.332,5.753,6.645,8.506-2.091-2.926-4.212-5.827-6.194-8.815a52.045,52.045,0,0,1-5.2-9.331c-1.219-3.354-2.263-6.793-3.23-10.248l-1.453-5.187-.714-2.594a4.56,4.56,0,0,1-.176-1.273,1.276,1.276,0,0,1,.548-1.03l-.025.013a3.9,3.9,0,0,1,1.972-.248A6.19,6.19,0,0,1,797.862,196.979Z" transform="translate(-789.477 -191.698)" fill="#e5ac85"/>
            <path id="Trazado_219569" data-name="Trazado 219569" d="M791.6,190.156a59.317,59.317,0,0,0-.4,13.419,68.165,68.165,0,0,0,2.388,13.249,59.08,59.08,0,0,0,5.231,12.406,51.764,51.764,0,0,0,8.093,10.71,62.768,62.768,0,0,1-4.091-5.3,53.964,53.964,0,0,1-3.492-5.69c-1.054-1.96-1.991-3.979-2.844-6.032-.834-2.062-1.546-4.171-2.17-6.3a72.509,72.509,0,0,1-2.537-13.089c-.235-2.215-.362-4.443-.392-6.673A59.822,59.822,0,0,1,791.6,190.156Z" transform="translate(-788.955 -190.156)" fill="#e5ac85"/>
            <path id="Trazado_219570" data-name="Trazado 219570" d="M788.492,195.421a78.615,78.615,0,0,0,.024,12.62,84.064,84.064,0,0,0,1.924,12.5q.764,3.075,1.783,6.08a55.308,55.308,0,0,0,2.417,5.858,49.775,49.775,0,0,0,3.181,5.477,38.4,38.4,0,0,0,4.044,4.85,44.058,44.058,0,0,1-3.734-5.055,50.026,50.026,0,0,1-2.964-5.522c-.838-1.914-1.625-3.849-2.291-5.831s-1.215-4-1.7-6.033a92.462,92.462,0,0,1-2.082-12.375q-.336-3.124-.476-6.27Q788.448,198.575,788.492,195.421Z" transform="translate(-788.249 -191.503)" fill="#e5ac85"/>
            <path id="Trazado_219571" data-name="Trazado 219571" d="M831.711,227.258c.427,1.209.932,2.387,1.43,3.569q.782,1.756,1.633,3.483a70.1,70.1,0,0,0,3.778,6.711,41.286,41.286,0,0,0,4.7,6.124,21.975,21.975,0,0,0,2.888,2.581A10.225,10.225,0,0,0,849.6,251.4a11.074,11.074,0,0,1-3.238-1.972,21.937,21.937,0,0,1-2.683-2.68,54.306,54.306,0,0,1-4.494-6.142c-1.384-2.135-2.651-4.347-3.9-6.572-.624-1.112-1.225-2.239-1.813-3.373C832.865,229.543,832.294,228.4,831.711,227.258Z" transform="translate(-799.369 -199.649)" fill="#e5ac85"/>
          </g>
        </g>
        <g id="Grupo_876728" data-name="Grupo 876728" transform="translate(39.117 92.139)">
          <g id="Grupo_876727" data-name="Grupo 876727">
            <path id="Trazado_219572" data-name="Trazado 219572" d="M881.746,332.229l.723-16.379-32.656-2.9-4.093,18.705Z" transform="translate(-836.404 -312.953)" fill="#e7f7f7"/>
            <path id="Trazado_219573" data-name="Trazado 219573" d="M870.946,331.014l1.886-15.316,9.638.855-.723,16.379-36.025-.57.381-1.74Z" transform="translate(-836.404 -313.655)" fill="#d5efee"/>
            <path id="Trazado_219574" data-name="Trazado 219574" d="M880.7,333.847l-39.759-3.828-7.744,38.1h47.5Z" transform="translate(-833.2 -317.32)" fill="#ca3881"/>
            <path id="Trazado_219575" data-name="Trazado 219575" d="M891.483,334.718v34.27H875.333l2.692-35.566Z" transform="translate(-843.98 -318.191)" fill="#e7b7d2" style="mix-blend-mode: multiply;isolation: isolate"/>
          </g>
          <circle id="Elipse_7393" data-name="Elipse 7393" cx="2.847" cy="2.847" r="2.847" transform="translate(36.023 6.063)" fill="#a12e67"/>
        </g>
      </g>
      <g id="Grupo_876742" data-name="Grupo 876742" transform="translate(850.713 240.622)">
        <g id="Grupo_876731" data-name="Grupo 876731">
          <g id="Grupo_876730" data-name="Grupo 876730">
            <path id="Trazado_219576" data-name="Trazado 219576" d="M902.673,367.231s61.738-71.931,105.784-27.541C993.161,387.623,914.064,373.5,902.673,367.231Z" transform="translate(-902.673 -325.223)" fill="#e4ddf7"/>
          </g>
        </g>
        <g id="Grupo_876741" data-name="Grupo 876741" transform="translate(0 2.82)">
          <g id="Grupo_876740" data-name="Grupo 876740">
            <path id="Trazado_219577" data-name="Trazado 219577" d="M1003.493,346.953a.524.524,0,0,0-.635-.377L903.32,371.957c-.424.473-.647.733-.647.733.2.111.429.224.671.339l99.771-25.441A.522.522,0,0,0,1003.493,346.953Z" transform="translate(-902.673 -333.502)" fill="#5b2ac7"/>
            <g id="Grupo_876732" data-name="Grupo 876732" transform="translate(75.417 19.272)">
              <path id="Trazado_219578" data-name="Trazado 219578" d="M1022.953,362.759a.533.533,0,0,1-.181-.032l-18.41-6.8a.523.523,0,1,1,.363-.98l18.409,6.8a.523.523,0,0,1-.182,1.013Z" transform="translate(-1004.021 -354.911)" fill="#5b2ac7"/>
            </g>
            <g id="Grupo_876733" data-name="Grupo 876733" transform="translate(50.249 25.691)">
              <path id="Trazado_219579" data-name="Trazado 219579" d="M996.548,376.817a.52.52,0,0,1-.223-.051L970.5,364.531a.523.523,0,0,1,.448-.945l25.826,12.236a.523.523,0,0,1-.224,1Z" transform="translate(-970.2 -363.536)" fill="#5b2ac7"/>
            </g>
            <g id="Grupo_876734" data-name="Grupo 876734" transform="translate(31.007 30.596)">
              <path id="Trazado_219580" data-name="Trazado 219580" d="M962,382.339a.522.522,0,0,1-.285-.084l-17.135-11.167a.522.522,0,1,1,.571-.875l17.135,11.166a.522.522,0,0,1-.286.96Z" transform="translate(-944.341 -370.128)" fill="#5b2ac7"/>
            </g>
            <g id="Grupo_876735" data-name="Grupo 876735" transform="translate(14.316 34.852)">
              <path id="Trazado_219581" data-name="Trazado 219581" d="M934.356,383.6a.52.52,0,0,1-.255-.067l-11.923-6.7a.522.522,0,0,1,.512-.911l11.923,6.7a.523.523,0,0,1-.257.978Z" transform="translate(-921.912 -375.848)" fill="#5b2ac7"/>
            </g>
            <g id="Grupo_876736" data-name="Grupo 876736" transform="translate(19.573 18.376)">
              <path id="Trazado_219582" data-name="Trazado 219582" d="M929.5,369.888a.516.516,0,0,1-.175-.03.523.523,0,0,1-.317-.668l5.392-15.137a.522.522,0,0,1,.984.351l-5.391,15.136A.523.523,0,0,1,929.5,369.888Z" transform="translate(-928.976 -353.707)" fill="#5b2ac7"/>
            </g>
            <g id="Grupo_876737" data-name="Grupo 876737" transform="translate(39.193 4.376)">
              <path id="Trazado_219583" data-name="Trazado 219583" d="M955.865,360.072a.534.534,0,0,1-.193-.037.523.523,0,0,1-.292-.679l9.578-24.135a.523.523,0,1,1,.971.386l-9.578,24.134A.523.523,0,0,1,955.865,360.072Z" transform="translate(-955.342 -334.893)" fill="#5b2ac7"/>
            </g>
            <g id="Grupo_876738" data-name="Grupo 876738" transform="translate(59.606)">
              <path id="Trazado_219584" data-name="Trazado 219584" d="M983.3,353.362a.524.524,0,0,1-.472-.745l10.934-23.3a.522.522,0,1,1,.946.444l-10.934,23.3A.524.524,0,0,1,983.3,353.362Z" transform="translate(-982.774 -329.012)" fill="#5b2ac7"/>
            </g>
            <g id="Grupo_876739" data-name="Grupo 876739" transform="translate(80.501 3.052)">
              <path id="Trazado_219585" data-name="Trazado 219585" d="M1011.375,349.083a.522.522,0,0,1-.461-.766l7.867-14.924a.522.522,0,0,1,.924.487l-7.867,14.925A.522.522,0,0,1,1011.375,349.083Z" transform="translate(-1010.853 -333.113)" fill="#5b2ac7"/>
            </g>
          </g>
        </g>
      </g>
      <g id="Grupo_876755" data-name="Grupo 876755" transform="translate(735.976 240.622)">
        <g id="Grupo_876744" data-name="Grupo 876744">
          <g id="Grupo_876743" data-name="Grupo 876743">
            <path id="Trazado_219586" data-name="Trazado 219586" d="M854.269,367.231S792.532,295.3,748.486,339.69C763.782,387.623,842.878,373.5,854.269,367.231Z" transform="translate(-748.486 -325.223)" fill="#e4ddf7"/>
          </g>
        </g>
        <g id="Grupo_876754" data-name="Grupo 876754" transform="translate(5.882 2.82)">
          <g id="Grupo_876753" data-name="Grupo 876753">
            <path id="Trazado_219587" data-name="Trazado 219587" d="M756.407,346.953a.524.524,0,0,1,.635-.377l99.538,25.381c.423.473.647.733.647.733-.2.111-.429.224-.671.339l-99.772-25.441A.523.523,0,0,1,756.407,346.953Z" transform="translate(-756.391 -333.502)" fill="#5b2ac7"/>
            <g id="Grupo_876745" data-name="Grupo 876745" transform="translate(5.964 19.272)">
              <path id="Trazado_219588" data-name="Trazado 219588" d="M764.928,362.759a.537.537,0,0,0,.182-.032l18.409-6.8a.522.522,0,0,0-.362-.98l-18.409,6.8a.523.523,0,0,0,.181,1.013Z" transform="translate(-764.406 -354.911)" fill="#5b2ac7"/>
            </g>
            <g id="Grupo_876746" data-name="Grupo 876746" transform="translate(23.716 25.691)">
              <path id="Trazado_219589" data-name="Trazado 219589" d="M788.784,376.817a.524.524,0,0,0,.223-.051l25.826-12.236a.523.523,0,0,0-.447-.945l-25.826,12.236a.523.523,0,0,0,.225,1Z" transform="translate(-788.261 -363.536)" fill="#5b2ac7"/>
            </g>
            <g id="Grupo_876747" data-name="Grupo 876747" transform="translate(51.649 30.596)">
              <path id="Trazado_219590" data-name="Trazado 219590" d="M826.322,382.339a.519.519,0,0,0,.284-.084l17.135-11.167a.522.522,0,1,0-.571-.875l-17.135,11.166a.522.522,0,0,0,.286.96Z" transform="translate(-825.799 -370.128)" fill="#5b2ac7"/>
            </g>
            <g id="Grupo_876748" data-name="Grupo 876748" transform="translate(73.552 34.852)">
              <path id="Trazado_219591" data-name="Trazado 219591" d="M855.756,383.6a.519.519,0,0,0,.255-.067l11.923-6.7a.522.522,0,0,0-.512-.911l-11.923,6.7a.523.523,0,0,0,.257.978Z" transform="translate(-855.233 -375.848)" fill="#5b2ac7"/>
            </g>
            <g id="Grupo_876749" data-name="Grupo 876749" transform="translate(74.826 18.376)">
              <path id="Trazado_219592" data-name="Trazado 219592" d="M862.859,369.888a.517.517,0,0,0,.175-.03.523.523,0,0,0,.317-.668l-5.392-15.137a.522.522,0,0,0-.984.351l5.391,15.136A.523.523,0,0,0,862.859,369.888Z" transform="translate(-856.945 -353.707)" fill="#5b2ac7"/>
            </g>
            <g id="Grupo_876750" data-name="Grupo 876750" transform="translate(51.02 4.376)">
              <path id="Trazado_219593" data-name="Trazado 219593" d="M835.053,360.072a.541.541,0,0,0,.193-.037.524.524,0,0,0,.292-.679l-9.579-24.135a.522.522,0,1,0-.97.386l9.578,24.134A.522.522,0,0,0,835.053,360.072Z" transform="translate(-824.953 -334.893)" fill="#5b2ac7"/>
            </g>
            <g id="Grupo_876751" data-name="Grupo 876751" transform="translate(29.251)">
              <path id="Trazado_219594" data-name="Trazado 219594" d="M807.156,353.362a.523.523,0,0,0,.473-.745l-10.934-23.3a.522.522,0,1,0-.946.444l10.934,23.3A.523.523,0,0,0,807.156,353.362Z" transform="translate(-795.699 -329.012)" fill="#5b2ac7"/>
            </g>
            <g id="Grupo_876752" data-name="Grupo 876752" transform="translate(11.423 3.052)">
              <path id="Trazado_219595" data-name="Trazado 219595" d="M780.131,349.083a.522.522,0,0,0,.461-.766l-7.867-14.924a.522.522,0,1,0-.923.487l7.867,14.925A.521.521,0,0,0,780.131,349.083Z" transform="translate(-771.742 -333.113)" fill="#5b2ac7"/>
            </g>
          </g>
        </g>
      </g>
    </g>
  </g>
</svg>
